<?xml version="1.0" encoding="utf-8"?>
<!-- Generator: Adobe Illustrator 22.0.1, SVG Export Plug-In . SVG Version: 6.00 Build 0)  -->
<svg version="1.1" id="Capa_1" xmlns="http://www.w3.org/2000/svg" xmlns:xlink="http://www.w3.org/1999/xlink" x="0px" y="0px"
	 viewBox="0 0 512 407.5" style="enable-background:new 0 0 512 407.5;" xml:space="preserve">
<style type="text/css">
	.st0{fill:#282828;}
</style>
<g>
	<g>
		<path class="st0" d="M256,82.3L73.4,232.8c0,0.2-0.1,0.5-0.2,1c-0.1,0.4-0.2,0.7-0.2,0.9v152.4c0,5.5,2,10.3,6,14.3
			c4,4,8.8,6,14.3,6h121.9v-122h81.3v122h121.9c5.5,0,10.3-2,14.3-6c4-4,6-8.8,6-14.3V234.7c0-0.8-0.1-1.5-0.3-1.9L256,82.3z"/>
		<path class="st0" d="M357.6,73L280.1,8.3C273.4,2.8,265.3,0,256,0c-9.3,0-17.4,2.8-24.1,8.3L3.5,198.5c-2.1,1.7-3.3,4-3.5,6.8
			c-0.2,2.9,0.5,5.4,2.2,7.5l19.7,23.5c1.7,1.9,3.9,3.1,6.7,3.5c2.5,0.2,5.1-0.5,7.6-2.2L256,54.3l219.8,183.2
			c1.7,1.5,3.9,2.2,6.7,2.2h1c2.7-0.4,5-1.6,6.7-3.5l19.7-23.5c1.7-2.1,2.4-4.6,2.2-7.5c-0.2-2.9-1.4-5.1-3.5-6.8l-69.5-57.8"/>
	</g>
</g>
</svg>
