<?xml version="1.0" encoding="utf-8"?>
<!-- Generator: Adobe Illustrator 16.0.0, SVG Export Plug-In . SVG Version: 6.00 Build 0)  -->
<!DOCTYPE svg PUBLIC "-//W3C//DTD SVG 1.1//EN" "http://www.w3.org/Graphics/SVG/1.1/DTD/svg11.dtd">
<svg version="1.1" id="圖層_1" xmlns="http://www.w3.org/2000/svg" xmlns:xlink="http://www.w3.org/1999/xlink" x="0px" y="0px"
	 width="48.473px" height="48.445px" viewBox="0 0 48.473 48.445" enable-background="new 0 0 48.473 48.445" xml:space="preserve">
<g>
	<path fill="#EC681B" d="M44.826,46.552H3.776c-0.932,0-1.687-0.754-1.687-1.688V3.813c0-0.932,0.755-1.687,1.687-1.687h41.051
		c0.933,0,1.688,0.755,1.688,1.687v41.052C46.514,45.798,45.759,46.552,44.826,46.552"/>
	<path fill="#FFFFFF" d="M36.925,16.101H33.43c-0.15,0-0.271,0.119-0.271,0.266v15.947c0,0.146,0.12,0.266,0.271,0.266h3.495
		c0.147,0,0.271-0.119,0.271-0.266V16.367C37.195,16.219,37.073,16.101,36.925,16.101"/>
	<path fill="#FFFFFF" d="M24.99,16.101H11.677c-0.15,0-0.27,0.119-0.27,0.266v15.947c0,0.146,0.119,0.266,0.27,0.266h3.496
		c0.148,0,0.271-0.119,0.271-0.266V19.797c0-0.144,0.121-0.264,0.271-0.264h7.53c2.117,0,2.718,1.622,2.718,2.668v10.113
		c0,0.145,0.122,0.264,0.271,0.264h3.493c0.149,0,0.271-0.119,0.271-0.264V21c0-0.933-0.111-2.274-1.315-3.456
		C27.424,16.312,26.275,16.101,24.99,16.101"/>
	<path fill="#FFFFFF" d="M22.545,22.451h-3.67c-0.15,0-0.272,0.119-0.272,0.265v9.598c0,0.146,0.123,0.266,0.272,0.266h3.67
		c0.147,0,0.27-0.119,0.27-0.266v-9.598C22.815,22.57,22.693,22.451,22.545,22.451"/>
</g>
</svg>
