<?xml version="1.0" encoding="UTF-8"?>
<svg width="151px" height="22px" viewBox="0 0 151 22" version="1.1" xmlns="http://www.w3.org/2000/svg" xmlns:xlink="http://www.w3.org/1999/xlink">
    <!-- Generator: Sketch 50.2 (55047) - http://www.bohemiancoding.com/sketch -->
    <title>icon</title>
    <desc>Created with Sketch.</desc>
    <defs></defs>
    <g id="icon" stroke="none" stroke-width="1" fill="none" fill-rule="evenodd">
        <polygon id="Shape" fill="#FFFFFF" fill-rule="nonzero" points="80.6 3.3 94.9 3.3 94.9 18.6 80.6 18.6"></polygon>
        <path d="M67.3,18.2 C67.2,18.2 67.3,18.3 67.3,18.2 Z M67.4,18.3 L67.5,18.4 C67.5,18.3 67.4,18.3 67.4,18.3 Z M67.7,19.2 C67.7,19.2 67.8,19.2 67.7,19.2 C67.8,19.2 67.8,19.2 67.7,19.2 Z M68,19.4 C68,19.3 68,19.3 68,19.4 C67.9,19.4 68.1,19.4 68,19.4 Z M68.3,19.7 C68.2,19.7 68.2,19.7 68.3,19.7 C68.2,19.7 68.2,19.7 68.3,19.7 C68.3,19.8 68.3,19.7 68.3,19.7 Z M68.2,19.8 C68.2,19.7 68.3,19.9 68.2,19.8 C68.3,19.8 68.2,19.8 68.2,19.8 Z M69.8,17.3 C69.8,17.4 69.8,17.4 69.8,17.3 C69.8,17.4 69.8,17.4 69.8,17.3 Z M69.8,17.7 C69.8,17.7 69.8,17.8 69.8,17.7 C69.8,17.8 69.8,17.7 69.8,17.7 Z M67.3,18.2 C67.2,18.2 67.3,18.3 67.3,18.2 Z M67.4,18.3 L67.5,18.4 C67.5,18.3 67.4,18.3 67.4,18.3 Z M67.7,19.2 C67.7,19.2 67.8,19.2 67.7,19.2 C67.8,19.2 67.8,19.2 67.7,19.2 Z M68,19.4 C68,19.3 68,19.3 68,19.4 C67.9,19.4 68.1,19.4 68,19.4 Z M68.3,19.7 C68.2,19.7 68.2,19.7 68.3,19.7 C68.2,19.7 68.2,19.7 68.3,19.7 C68.3,19.8 68.3,19.7 68.3,19.7 Z M68.2,19.8 C68.2,19.7 68.3,19.9 68.2,19.8 C68.3,19.8 68.2,19.8 68.2,19.8 Z M68.1,19.9 C68,20 68.2,20 68.1,19.9 C68.2,19.9 68.2,19.9 68.1,19.9 Z M68.2,20 C68.2,20 68.4,20.1 68.4,20 L68.2,20 Z M59.4,14.1 C59.4,14 59.5,14 59.5,14 C59.4,14 59.4,14.1 59.4,14.1 Z M58.7,15.8 L58.8,15.9 L58.7,15.8 Z M59,14.6 L58.9,14.7 C59,14.7 59,14.7 59,14.6 Z M59.1,14.5 C59.1,14.4 59.1,14.5 59.1,14.5 C59.1,14.5 59.2,14.5 59.1,14.5 Z M59.4,14.1 C59.4,14.1 59.4,14.2 59.4,14.1 C59.4,14.2 59.5,14.2 59.4,14.1 C59.4,14.2 59.4,14.1 59.4,14.1 Z M60,15.5 C60,15.6 60,15.5 60,15.5 C60.1,15.5 60,15.5 60,15.5 Z M60.2,15.5 C60.3,15.5 60.4,15.4 60.4,15.3 C60.3,15.3 60.2,15.5 60.2,15.5 Z M60.4,15.2 L60.3,15.3 C60.4,15.3 60.5,15.2 60.4,15.2 C60.5,15.2 60.4,15.3 60.4,15.2 Z M60.6,15 C60.6,14.9 60.7,14.9 60.6,15 C60.6,14.9 60.6,15 60.6,15 C60.6,15 60.7,15 60.6,15 C60.7,14.9 60.7,14.9 60.6,15 Z M60.7,14.9 C60.7,14.9 60.8,14.8 60.7,14.9 C60.7,14.8 60.7,14.8 60.7,14.9 Z M72.6,14.1 C72.6,14.1 72.5,14.1 72.6,14.1 C72.5,14.1 72.6,14.1 72.6,14.1 Z M72.6,14.1 C72.6,14.1 72.5,14.1 72.6,14.1 C72.5,14.1 72.6,14.1 72.6,14.1 Z M59.4,14.1 C59.4,14.1 59.4,14.2 59.4,14.1 C59.4,14.2 59.5,14.2 59.4,14.1 C59.4,14.2 59.4,14.1 59.4,14.1 Z M72.6,14.3 C72.6,14.3 72.6,14.4 72.6,14.3 C72.6,14.4 72.6,14.4 72.6,14.3 C72.6,14.4 72.6,14.4 72.6,14.3 Z M59.1,14.5 C59.1,14.4 59.1,14.5 59.1,14.5 C59.1,14.5 59.2,14.5 59.1,14.5 Z M59,14.6 L58.9,14.7 C59,14.7 59,14.7 59,14.6 Z M72.7,14.6 C72.7,14.7 72.7,14.7 72.7,14.6 C72.7,14.7 72.7,14.6 72.7,14.6 Z M72.7,14.7 C72.7,14.7 72.7,14.8 72.7,14.7 C72.7,14.8 72.7,14.7 72.7,14.7 Z M60.7,14.9 C60.7,14.9 60.8,14.8 60.7,14.9 C60.7,14.8 60.7,14.8 60.7,14.9 Z M60.6,15 C60.6,14.9 60.7,14.9 60.6,15 C60.6,14.9 60.6,15 60.6,15 C60.6,15 60.7,15 60.6,15 C60.7,14.9 60.7,14.9 60.6,15 Z M69.7,15 L69.7,15.2 C69.8,15.2 69.7,15 69.7,15 Z M72.8,15.1 C72.8,15.2 72.8,15.2 72.8,15.1 C72.8,15.2 72.8,15.2 72.8,15.1 Z M60.4,15.2 L60.3,15.3 C60.4,15.3 60.5,15.2 60.4,15.2 C60.5,15.2 60.4,15.3 60.4,15.2 Z M60.2,15.5 C60.3,15.5 60.4,15.4 60.4,15.3 C60.3,15.3 60.2,15.5 60.2,15.5 Z M69.7,15.4 L69.7,15.7 C69.8,15.7 69.8,15.4 69.7,15.4 Z M60,15.5 C60,15.6 60,15.5 60,15.5 C60.1,15.5 60,15.5 60,15.5 Z M60.6,15.6 C60.7,15.6 60.4,15.7 60.4,15.8 C60.5,15.8 60.6,15.6 60.6,15.6 Z M69.7,15.7 L69.7,15.9 C69.8,15.8 69.8,15.7 69.7,15.7 Z M60.3,15.7 C60.3,15.7 60.2,15.7 60.3,15.7 C60.3,15.8 60.4,15.7 60.3,15.7 Z M58.7,15.8 L58.8,15.9 L58.7,15.8 Z M60.4,16 C60.3,16 60.3,16 60.4,16 C60.4,16.1 60.4,16 60.4,16 Z M72.9,16.7 C72.8,16.8 72.8,16.8 72.9,16.7 C72.9,16.8 72.9,16.7 72.9,16.7 Z M69.8,16.8 C69.8,16.8 69.8,16.9 69.8,16.8 C69.8,16.9 69.8,16.8 69.8,16.8 Z M59.8,13.6 C59.9,13.6 59.8,13.6 59.8,13.6 C59.8,13.7 59.9,13.5 59.9,13.5 C59.9,13.5 59.8,13.5 59.8,13.6 Z M60.2,12.9 L60.2,12.8 C60.3,12.8 60.2,12.9 60.2,12.9 Z M60.9,11.6 C60.9,11.7 60.9,11.7 60.9,11.6 C60.9,11.7 60.9,11.7 60.9,11.6 C60.9,11.7 61,11.6 60.9,11.6 Z M62.4,12.8 C62.4,12.8 62.4,12.7 62.4,12.8 C62.4,12.7 62.3,12.8 62.4,12.8 Z M69.1,11.7 C69.1,11.7 69.2,11.7 69.1,11.7 C69.2,11.7 69.1,11.7 69.1,11.7 Z M69.5,11.5 C69.4,11.5 69.4,11.6 69.5,11.5 C69.5,11.6 69.4,11.5 69.5,11.5 Z M72,10.3 C72.1,10.3 72.1,10.3 72,10.3 C72.1,10.2 72,10.3 72,10.3 Z M72.2,10.3 C72.2,10.3 72.3,10.3 72.4,10.2 L72.4,10.1 C72.4,10 72.2,10.2 72.2,10.3 Z M72.4,10 C72.5,10.1 72.5,10 72.4,10 C72.5,10 72.5,10 72.4,10 Z M69.6,13.8 C69.7,13.8 69.7,13.8 69.6,13.8 C69.7,13.8 69.6,13.8 69.6,13.8 Z M72.4,10 C72.5,10.1 72.5,10 72.4,10 C72.5,10 72.5,10 72.4,10 Z M72.2,10.3 C72.2,10.3 72.3,10.3 72.4,10.2 L72.4,10.1 C72.4,10 72.2,10.2 72.2,10.3 Z M72,10.3 C72.1,10.3 72.1,10.3 72,10.3 C72.1,10.2 72,10.3 72,10.3 Z M69.5,11.5 C69.4,11.5 69.4,11.6 69.5,11.5 C69.5,11.6 69.4,11.5 69.5,11.5 Z M60.9,11.6 C60.9,11.7 60.9,11.7 60.9,11.6 C60.9,11.7 60.9,11.7 60.9,11.6 C60.9,11.7 60.9,11.7 60.9,11.6 C60.9,11.7 61,11.6 60.9,11.6 Z M69.1,11.7 C69.1,11.7 69.2,11.7 69.1,11.7 C69.2,11.7 69.1,11.7 69.1,11.7 Z M69,11.8 C69,11.7 68.9,11.8 69,11.8 C68.9,11.8 69,11.8 69,11.8 Z M68.7,11.9 C68.7,12 68.7,12 68.7,11.9 C68.7,12 68.7,12 68.7,11.9 C68.7,12 68.7,12 68.7,11.9 Z M68.2,12.1 C68.2,12.2 68.2,12.2 68.2,12.1 C68.2,12.2 68.2,12.1 68.2,12.1 Z M68.1,12.1 C68.1,12.2 68.1,12.2 68.1,12.1 C68.1,12.2 68.2,12.2 68.1,12.1 Z M60.6,12.1 C60.5,12.2 60.5,12.2 60.6,12.1 C60.6,12.2 60.6,12.2 60.6,12.1 Z M60.5,12.3 C60.5,12.3 60.4,12.3 60.5,12.3 C60.5,12.4 60.5,12.4 60.5,12.3 Z M62.4,12.8 C62.4,12.8 62.4,12.7 62.4,12.8 C62.4,12.7 62.3,12.8 62.4,12.8 Z M60.2,12.9 L60.2,12.8 C60.3,12.8 60.2,12.9 60.2,12.9 Z M62.5,12.9 C62.4,13 62.5,13 62.5,12.9 C62.5,13 62.5,12.9 62.5,12.9 Z M59.8,13.6 C59.9,13.6 59.8,13.6 59.8,13.6 C59.8,13.7 59.9,13.5 59.9,13.5 C59.9,13.5 59.8,13.5 59.8,13.6 Z M69.6,13.5 C69.6,13.6 69.6,13.6 69.6,13.5 C69.6,13.6 69.6,13.6 69.6,13.5 Z M59.4,8 L59.3,8.1 C59.3,8.2 59.4,8.1 59.4,8 Z M59.4,8 C59.5,7.9 59.5,7.9 59.4,8 C59.5,7.9 59.4,7.9 59.4,8 Z M59.7,7.6 C59.6,7.6 59.6,7.8 59.6,7.8 C59.6,7.8 59.6,7.7 59.7,7.6 C59.6,7.7 59.7,7.6 59.7,7.6 Z M59.7,7.5 C59.7,7.6 59.8,7.4 59.8,7.4 L59.7,7.5 Z M59.9,7.3 L59.8,7.5 C59.9,7.4 60,7.3 59.9,7.3 Z M59.6,8 C59.7,7.9 60.2,7.4 60.1,7.2 C60,7.2 59.6,7.9 59.6,8 Z M60.2,7.2 L60.3,7.1 C60.2,7 60.1,7.2 60.2,7.2 Z M60.2,6.9 C60.3,6.9 60.3,6.8 60.2,6.9 C60.3,6.8 60.3,6.8 60.2,6.9 Z M60.2,7 C60.3,7.1 60.3,6.9 60.3,6.9 C60.4,6.9 60.2,7 60.2,7 Z M60.5,6.8 C60.5,6.7 60.5,6.7 60.5,6.8 C60.6,6.6 60.4,6.8 60.5,6.8 Z M60.7,6.4 C60.7,6.5 60.7,6.5 60.7,6.4 C60.7,6.5 60.7,6.5 60.7,6.4 Z M60.5,6.3 L60.7,6.3 L60.5,6.3 Z M61.6,9.4 C61.6,9.4 61.6,9.3 61.6,9.4 C61.6,9.3 61.6,9.3 61.6,9.4 Z M62,8.7 C61.9,8.8 61.8,9 61.8,9.1 C61.7,9.2 62,8.8 62,8.7 Z M61.9,8.6 C61.9,8.6 61.8,8.7 61.9,8.6 C61.8,8.7 62,8.7 61.9,8.6 C62,8.6 61.9,8.6 61.9,8.6 Z M63,7.1 C62.9,7.1 62.9,7.2 62.9,7.3 L62.7,7.4 C62.7,7.4 62.8,7.5 62.7,7.5 C62.7,7.5 62.8,7.4 62.9,7.4 C62.9,7.2 63.2,7 63,7.1 Z M69.1,6.3 L68.9,6.3 L68.8,6.4 C68.7,6.5 68.4,6.7 68.4,6.9 C68.4,6.9 68.6,6.7 68.7,6.7 C68.7,6.9 68.2,7 68.2,7.2 C68.3,7.2 68.5,6.9 68.6,6.8 L68.9,6.5 C68.8,6.5 69,6.4 69.1,6.3 Z M65.8,9.7 L65.9,9.7 C66,9.5 66.2,9.4 66.2,9.3 C66.2,9.1 66.6,8.9 66.6,8.7 C66.5,8.7 66.4,8.9 66.3,9 C66.2,9.2 66,9.3 65.8,9.5 C66,9.6 65.9,9.6 65.8,9.7 Z M72.9,17.2 L72.9,17.7 C73,18 72.9,18.5 72.7,18.8 C72.6,18.9 72.5,19.7 72.4,19.6 C72.3,19.7 72.2,19.9 72.1,20 C71.9,20.2 71.7,20.3 71.5,20.4 L71.6,20.4 C71.7,20.6 70.3,20.5 70.4,20.4 C70.1,20.4 69.9,20.3 69.6,20.3 C69.5,20.3 68.9,20.3 68.9,20.2 L69.5,20.2 C69.4,20.2 68.5,20.1 68.5,20 C68.4,20 68.3,19.9 68.2,19.9 C68.1,19.9 68.1,19.8 68.1,19.7 L68.4,19.8 C68.4,19.8 68.1,19.7 68.1,19.6 L68.1,19.5 L68.2,19.5 L68,19.3 L68.1,19.3 C68.1,19.2 68,19.2 68,19.1 L68.1,19.2 C68,19.1 67.9,19 67.9,18.9 L68,18.9 C68,18.8 67.9,18.8 67.9,18.7 L68.1,18.7 C68.1,18.6 67.8,18.6 67.8,18.5 L67.7,18.3 L67.7,18.4 C67.7,18.4 67.6,18.3 67.5,18.3 C67.5,18.2 67.5,18.1 67.4,18.1 L67.4,18.2 C67.3,18.2 67.2,17.9 67.2,17.9 L67,18 L67.1,18 C67.1,18.1 67.3,18.1 67.3,18.2 C67.3,18.3 67.8,18.5 67.8,18.5 C67.9,18.5 68.1,18.6 68.2,18.6 C68.4,18.7 68.9,18.6 69.1,18.6 C69.2,18.6 69.5,18.5 69.6,18.4 C69.6,18.3 69.8,18.2 69.8,18.1 L69.8,17.5 L69.8,17.3 C69.8,16.8 69.7,15.6 69.8,15.4 L69.8,13.9 C69.8,13.5 69.8,13.1 69.7,13.1 L69.7,13.4 C69.6,13.5 69.7,13.3 69.6,13.3 C69.5,13.4 69.5,13.2 69.5,13.1 L69.5,12.4 C69.5,12.2 69.6,11.8 69.4,11.6 C69.4,11.7 69.3,11.7 69.2,11.7 L69,11.7 C68.9,11.7 68.8,11.8 68.7,11.9 L68.6,11.9 L68.7,11.8 C68.6,11.8 68.6,11.9 68.5,11.9 L68.4,12 C68.4,11.9 68.4,12 68.4,12 C68.3,11.9 68.4,12.1 68.3,12.1 C68.2,12.1 68.2,12.2 68.2,12.2 L68.1,12.2 L67.8,12.4 C67.8,12.5 67.3,12.5 67.2,12.6 C66.9,12.7 66.7,12.7 66.4,12.8 C66.1,12.9 65.7,12.9 65.4,13 C65.3,13.1 65.1,13 65,12.9 C65,12.9 64.9,12.9 64.9,12.8 C64.8,12.7 64.8,12.7 64.7,12.7 L64.5,12.3 L64.5,12.1 C64.5,12.1 64.5,12 64.4,12 L64.4,11.8 C64.4,11.7 64.3,11.7 64.3,11.7 C64.3,11.5 64.4,11.3 64.4,11.1 C64.4,10.9 64.6,10.8 64.6,10.8 L64.8,10.8 C64.9,10.7 65.2,10.5 65.2,10.4 C65.2,10.3 65.4,10.1 65.5,10 L66,10 C65.9,10.1 65.9,10.2 65.9,10.3 L66,10.2 C66.1,10.3 65.7,10.6 65.9,10.6 C65.9,10.6 65.8,10.7 65.8,10.8 L66,10.8 C66.2,10.8 66.3,10.7 66.4,10.7 L66.7,10.7 C66.9,10.7 67,10.6 67.2,10.5 C67.6,10.4 67.9,10.2 68.3,10 L68.6,10 C68.6,10 68.5,10 68.5,10.1 C68.5,10.1 68.6,10.1 68.6,10 L68.7,9.9 C68.6,9.9 68.5,10 68.5,10 L68.1,10 L68.2,10 C68.6,9.8 69.1,9.7 69.5,9.5 L70.1,9.2 C70.1,9.2 70.2,9.1 70.3,9.1 C70.4,9 70.5,9 70.5,9 C70.5,9 70.5,9.1 70.4,9.1 C70.5,9.1 70.7,9 70.8,8.9 L70.7,8.9 C70.7,8.9 70.8,8.9 70.8,8.8 L70.7,8.8 L70.7,8.7 L70.8,8.7 C70.9,8.6 71,8.5 71.1,8.5 L71,8.6 C71,8.6 71.3,8.5 71.4,8.5 C71.7,8.4 72.7,7.8 72.7,7.8 C72.9,7.7 73.1,7.5 73.4,7.5 C73.5,7.5 73.7,7.5 73.8,7.6 C73.9,7.6 73.9,7.6 73.9,7.7 C73.9,7.8 74,7.7 74,7.7 C74.3,7.7 74.4,8 74.6,8.2 C74.7,8.3 74.5,8.3 74.6,8.4 C74.7,8.5 74.7,8.6 74.7,8.8 C74.7,9 74.5,9.3 74.3,9.4 C74.2,9.4 73.7,9.8 73.7,9.8 C73.7,9.9 73.7,9.9 73.6,10 C73.5,10.1 73.2,10.1 73.1,10.1 L72.9,10.1 L72.9,10.2 C72.9,10.2 72.8,10.3 72.7,10.3 C72.6,10.3 72.6,10.4 72.6,10.4 C72.6,10.3 72.7,10.3 72.7,10.2 L72.7,10.3 C72.6,10.3 72.6,10.4 72.5,10.4 C72.3,10.5 72.2,10.7 72.1,10.7 L72.1,10.6 C72,10.7 71.9,10.7 71.9,10.7 C71.9,10.8 72.1,10.9 72.1,11 C72.2,11.2 72.2,11.3 72.2,11.4 C72.1,11.5 72.2,12.1 72.2,12.2 C72.2,12.3 72.4,13.6 72.5,14.1 L72.5,14.2 L72.4,14.1 L72.4,14.8 C72.4,15 72.5,15.3 72.5,15.3 C72.6,15.3 72.5,15.2 72.5,15.2 L72.5,15.6 C72.6,15.7 72.5,15.8 72.5,15.9 C72.6,15.9 72.6,16 72.5,16.1 L72.5,16 L72.5,16.1 L72.6,16.1 C72.6,16.1 72.4,16.3 72.6,16.3 L72.6,17.2 C72.9,16.9 72.9,17 72.9,17.2 Z M69.2,11.7 C69.2,11.7 69.1,11.7 69.2,11.7 C69.1,11.7 69.2,11.7 69.2,11.7 Z M69.5,11.5 C69.4,11.5 69.4,11.6 69.5,11.5 C69.5,11.6 69.4,11.5 69.5,11.5 Z M67.3,18.2 C67.2,18.2 67.3,18.3 67.3,18.2 Z M67.5,18.4 C67.5,18.3 67.4,18.3 67.4,18.3 L67.5,18.4 Z M67.9,19.2 C67.9,19.1 67.9,19.1 67.9,19.2 C67.7,19 68,19.2 67.9,19.2 Z M68,19.4 C68,19.3 68,19.3 68,19.4 C67.9,19.4 68.1,19.4 68,19.4 Z M68.3,19.9 C68.3,19.8 68.2,19.8 68.3,19.9 C68.2,19.7 68.3,19.9 68.3,19.9 Z M68.4,19.9 C68.5,19.9 68.4,19.9 68.4,19.9 C68.3,19.9 68.3,19.9 68.4,19.9 Z M70.1,9 C70.1,9 70,9 70,9.1 C70,9 70.1,9 70.1,9 Z M71.2,8.4 C71.2,8.4 71.2,8.5 71.2,8.4 C71.2,8.5 71.2,8.5 71.2,8.4 Z M72.5,14.1 C72.5,14.1 72.6,14.1 72.5,14.1 C72.6,14.1 72.6,14.1 72.5,14.1 C72.6,14.1 72.5,14.1 72.5,14.1 Z M72.1,10.2 C72.1,10.2 72,10.3 72.1,10.2 C72.1,10.3 72.1,10.3 72.1,10.2 Z M72.4,10.1 L72.2,10.3 L72.4,10.1 Z M68.9,9.6 C68.9,9.5 68.9,9.5 68.9,9.6 C68.9,9.5 68.8,9.6 68.9,9.6 Z M69.4,9.3 C69.5,9.3 69.5,9.3 69.4,9.3 C69.5,9.2 69.4,9.3 69.4,9.3 Z M70,9 C70,9 70.1,9 70.1,8.9 C70.1,9 70.1,9 70,9 Z M71.6,8.2 C71.6,8.2 71.6,8.1 71.6,8.2 C71.6,8.1 71.6,8.2 71.6,8.2 Z M60.7,6.4 C60.6,6.5 60.6,6.5 60.7,6.4 C60.7,6.5 60.7,6.5 60.7,6.4 Z M60.4,6.7 C60.4,6.6 60.4,6.6 60.4,6.7 C60.4,6.6 60.4,6.6 60.4,6.7 Z M60.5,6.8 C60.5,6.7 60.5,6.7 60.5,6.8 C60.6,6.6 60.4,6.8 60.5,6.8 Z M63.5,6.7 C63.5,6.7 63.5,6.8 63.5,6.7 C63.5,6.8 63.6,6.7 63.5,6.7 Z M60.2,6.9 C60.3,6.9 60.3,6.8 60.2,6.9 C60.3,6.8 60.3,6.8 60.2,6.9 Z M60.2,7 C60.3,7.1 60.3,6.9 60.3,6.9 C60.4,6.9 60.2,7 60.2,7 Z M68.2,6.9 L68.1,7 C68.2,7.1 68.2,6.9 68.2,6.9 Z M60.2,7.2 L60.3,7.1 C60.2,7 60.1,7.2 60.2,7.2 Z M63,7.1 C62.9,7.1 62.9,7.2 62.9,7.3 L62.7,7.4 C62.7,7.4 62.8,7.5 62.7,7.5 C62.7,7.5 62.8,7.4 62.9,7.4 C62.9,7.2 63.2,7 63,7.1 Z M68.1,7.1 C68.1,7.1 68,7.1 68.1,7.1 C68.1,7.2 68.1,7.1 68.1,7.1 Z M63,7.2 C63,7.2 63,7.1 63,7.2 C63,7.1 63,7.2 63,7.2 Z M68,7.2 L67.9,7.3 C67.9,7.4 68,7.2 68,7.2 Z M59.6,8 C59.7,7.9 60.2,7.4 60.1,7.2 C60,7.2 59.6,7.9 59.6,8 Z M59.7,7.5 C59.7,7.6 59.8,7.4 59.8,7.4 L59.7,7.5 Z M59.9,7.3 L59.8,7.5 C59.9,7.4 60,7.3 59.9,7.3 Z M67.9,7.4 L67.8,7.5 L67.9,7.4 Z M59.7,7.6 C59.6,7.6 59.6,7.8 59.6,7.8 C59.6,7.8 59.6,7.7 59.7,7.6 C59.6,7.7 59.7,7.6 59.7,7.6 Z M59.4,8 C59.5,7.9 59.5,7.9 59.4,8 C59.5,7.9 59.4,7.9 59.4,8 Z M59.4,8 L59.3,8.1 C59.3,8.2 59.4,8.1 59.4,8 Z M59.2,8.2 C59.2,8.3 59.2,8.3 59.2,8.2 C59.2,8.3 59.2,8.2 59.2,8.2 Z M59.2,8.3 C59.2,8.4 59.2,8.4 59.2,8.3 C59.1,8.3 59.1,8.4 59.2,8.3 C59.2,8.4 59.3,8.3 59.2,8.3 Z M70.8,8.5 C70.8,8.5 70.7,8.5 70.8,8.5 C70.7,8.5 70.8,8.5 70.8,8.5 Z M70.8,8.5 C70.8,8.5 70.7,8.5 70.7,8.6 L70.8,8.5 Z M61.9,8.6 C61.9,8.6 61.8,8.7 61.9,8.6 C61.8,8.7 62,8.7 61.9,8.6 C62,8.6 61.9,8.6 61.9,8.6 Z M66.8,8.6 C66.8,8.6 66.7,8.6 66.8,8.6 C66.8,8.7 66.8,8.6 66.8,8.6 Z M62,8.7 C61.9,8.8 61.8,9 61.8,9.1 C61.7,9.2 62,8.8 62,8.7 Z M69.8,8.9 C69.8,8.9 69.8,9 69.8,8.9 C69.8,9 69.8,8.9 69.8,8.9 Z M70,9 C70,9 70.1,9 70.1,8.9 C70.1,9 70.1,9 70,9 Z M69.4,9.3 C69.5,9.3 69.5,9.3 69.4,9.3 C69.5,9.2 69.4,9.3 69.4,9.3 Z M61.6,9.4 C61.6,9.4 61.6,9.3 61.6,9.4 C61.6,9.3 61.6,9.3 61.6,9.4 Z M68.9,9.6 C68.9,9.5 68.9,9.5 68.9,9.6 C68.9,9.5 68.8,9.6 68.9,9.6 Z M62,4.6 C62,4.6 62.2,4.5 62.2,4.4 C62.1,4.4 62.1,4.5 62,4.6 Z M62.2,4.3 C62.2,4.3 62.3,4.3 62.2,4.3 C62.3,4.2 62.2,4.3 62.2,4.3 Z M62.3,4.1 C62.3,4.1 62.3,4.2 62.3,4.1 C62.4,4.2 62.4,4.2 62.3,4.1 Z M61.3,5.3 C61.3,5.4 60.8,5.9 60.8,6 C60.7,6 60.6,6.2 60.5,6.4 L60.7,6.4 C60.8,6.3 60.9,6.1 60.8,6.1 L60.7,6.2 C60.6,6.2 60.9,6.1 60.9,6.1 C60.9,6.1 60.8,6.1 60.9,6.2 L61.2,5.8 L61.1,5.9 L61.3,5.7 L61.3,5.8 C61.4,5.8 61.4,5.7 61.4,5.7 C61.4,5.4 61.4,5.3 61.3,5.3 Z M68.8,6.3 L69,6.3 L69.1,6.2 C69.2,6.1 69.4,5.9 69.6,5.9 C70,5.9 70.5,6.1 70.9,6 L71.1,6.1 L71,6.2 C71,6.3 71.7,6.1 71.7,6 C71.9,6 72,5.9 72.1,5.8 C72.4,5.5 72.7,5.2 72.7,4.8 C72.7,4.6 72.8,4.5 72.7,4.3 C72.7,4.3 72.6,3.7 72.5,3.8 C72.5,3.8 72.2,3.4 72.1,3.4 C72,3.2 71.7,3.2 71.6,3.1 C71.5,3.1 71.2,2.9 71.2,3 C71.2,3.1 70.8,3 70.7,3 L70.4,3 C70.3,3 70.2,3.1 70.1,3.1 C69.9,3 69.6,3.2 69.4,3.2 C69.3,3.2 69,3.1 68.9,3.2 C68.8,3.2 68.6,3.3 68.5,3.3 C68.5,3.2 68,3.2 68.1,3.3 C68.2,3.4 67.9,3.5 67.9,3.6 C68.1,3.6 67.9,3.8 67.9,3.8 L68,3.8 C68,3.8 67.8,4.3 67.9,4.3 C68,4.4 68,4.6 68.1,4.7 C68.1,4.8 68.4,5 68.3,5.1 C68.3,5.2 68.5,5.4 68.5,5.6 C68.5,5.7 68.8,5.8 68.8,5.9 C68.9,6 68.7,6.1 68.7,6.1 C69.1,6.1 69,6.2 68.8,6.3 Z M62.3,4.1 C62.3,4.1 62.3,4.2 62.3,4.1 C62.4,4.2 62.4,4.2 62.3,4.1 Z M62.2,4.3 C62.2,4.3 62.3,4.3 62.2,4.3 C62.3,4.2 62.2,4.3 62.2,4.3 Z M62,4.6 C62,4.6 62.2,4.5 62.2,4.4 C62.1,4.4 62.1,4.5 62,4.6 Z M61.1,5.8 C61,5.8 61,5.8 61.1,5.8 C61,5.8 61.1,5.8 61.1,5.8 Z M60.8,6.1 C60.8,6.2 60.8,6.2 60.8,6.1 C60.8,6.2 60.9,6.1 60.8,6.1 Z M63.8,9.7 L63.8,9.8 C63.7,10.2 63.8,10.6 63.6,10.9 C63.5,11 63.5,11.5 63.3,11.5 C63.3,11.6 63.1,11.9 63.1,11.8 C63.1,11.8 63,12.1 62.9,12.1 C63,12.2 62.8,12.2 62.8,12.2 L62.8,12.3 C62.8,12.4 62.7,12.5 62.7,12.5 C62.7,12.5 62.6,12.5 62.7,12.5 L62.6,12.5 C62.8,12.5 62.6,12.6 62.5,12.6 L62.4,12.7 L62.3,12.8 C62.3,12.9 62.6,13.5 62.6,13.6 L62.6,13.7 C62.7,13.9 62.7,14.4 62.7,14.6 C62.7,14.7 62.9,15.2 62.8,15.2 L62.9,15.6 C63,15.6 63,16 63,16.1 C63.1,16.4 63.1,16.8 63.1,17.1 L63.1,17.5 C63.1,17.9 63,18.5 62.7,18.9 C62.6,19 62.4,19.2 62.2,19.2 C62.1,19.3 61.9,19.4 61.9,19.4 C62,19.5 61.7,19.5 61.7,19.5 C61.5,19.5 61.4,19.4 61.3,19.2 C61.2,19.1 61,19 60.9,19 C60.8,19 60.7,18.8 60.6,18.8 C60.6,18.7 60.5,18.7 60.4,18.7 C60.3,18.6 60.4,18.5 60.4,18.5 C60.2,18.3 60.4,18 60.3,17.7 C60.3,17.7 60.3,17.3 60.4,17.2 L60.4,17.1 C60.4,16.9 60.3,16.7 60.3,16.6 C60.3,16.4 60.4,16.1 60.3,15.9 C60.3,15.8 60.6,15.1 60.4,15.1 C60.4,15.2 60.3,15.3 60.2,15.3 L60.2,15.4 L60.1,15.5 L59.8,15.7 L59.7,15.7 C60.1,15.9 60,16 60,16 C60.2,16.1 60.2,15.8 60.4,15.8 C60.4,15.8 60.3,15.9 60.3,16 L60.4,16 C60.4,16 60.3,16.1 60.3,16 L60.3,16.1 L60.4,16.1 C60.4,16.2 60.3,16.2 60.3,16.2 C60.3,16.2 60,16.2 60,16.1 C59.9,16 59.9,16.1 59.9,16.2 L59.9,16.1 L59.9,16.2 L59.7,16.3 L59.4,16.3 C59.2,16.4 59.1,16.1 59,16.1 C58.9,16 58.8,15.9 58.8,15.7 C58.8,15.5 58.7,15.1 58.8,14.9 C58.9,14.7 59,14.6 59.1,14.5 L59.5,14.1 L59.5,14.2 C59.5,14.2 59.7,13.9 59.8,13.8 C59.8,13.7 59.9,13.7 59.9,13.7 L59.9,13.8 C60,13.8 59.9,13.6 60,13.6 L60.2,13.4 L60,13.6 C60,13.5 60.1,13.4 60.2,13.4 C60.2,13.3 60.2,13.2 60.3,13.1 L60.3,13.2 C60.3,13.2 60.4,13.2 60.4,13.1 L60.3,13.1 L60.6,12.5 L60.6,12.6 C60.6,12.6 60.9,12.3 60.7,12.3 C60.7,12.2 60.9,12 60.9,12 C60.9,12 60.8,12.1 60.9,12.1 C61,12 61,12 61,11.9 L61,11.8 C61.1,11.8 61.1,11.6 61.2,11.5 C61.3,11.4 61.3,11.3 61.3,11.3 C61.3,11.2 61.4,11.2 61.3,11.1 C61.4,11 61.5,10.6 61.6,10.5 C61.7,10.4 61.7,10.2 61.8,10 L61.8,9.5 L61.7,9.6 C61.8,9.6 61.5,9.8 61.5,9.8 L61.2,10 C61.2,9.9 61.1,10 61.1,9.9 C61.1,9.9 61,10 60.9,10 C60.8,9.9 60.7,10 60.6,10 C60.4,10 60.5,10 60.5,9.9 C60.5,9.9 60.4,9.5 60.3,9.7 C60.2,9.8 59.9,9.9 60,9.7 C59.9,9.7 59.8,9.9 59.8,9.8 C59.7,9.6 59.4,9.8 59.4,9.6 C59.4,9.4 58.9,9.1 59.1,8.8 C59.1,8.8 59.1,8.9 59.2,8.9 C59.2,8.9 59.1,9 59.2,9 C59.2,9 59.5,8.5 59.5,8.4 C59.4,8.4 59.4,8.7 59.3,8.7 C59.3,8.7 59.3,8.5 59.4,8.5 L59.3,8.6 C59.2,8.6 59.5,8.1 59.7,7.8 L59.7,7.9 C59.7,7.9 59.8,7.7 59.9,7.7 C60,7.7 59.9,7.8 59.9,7.8 C59.9,7.8 60,7.7 60,7.6 L59.9,7.6 C59.9,7.5 60,7.5 60,7.5 C59.9,7.5 60.1,7.3 60.1,7.2 C60.2,7.1 60.3,6.8 60.4,6.7 C60.4,6.7 60.5,6.6 60.5,6.5 L60.7,6.5 C60.7,6.6 60.6,6.7 60.6,6.7 L60.7,6.6 L60.8,6.5 C60.9,6.4 61,6.2 61.1,6.1 C61.2,6 61.3,5.8 61.5,5.6 C61.6,5.5 61.9,5.2 61.9,5.1 L61.8,5.2 C61.8,5.1 62,4.9 62.1,4.8 C62,4.8 62,5 62,5 C62,4.9 62,4.9 62,5 L61.8,5.2 L61.8,5.3 L61.9,5.2 C61.9,5.2 61.8,5.4 61.7,5.4 L61.7,5.3 C61.6,5.2 61.6,5.5 61.6,5.5 L61.6,5.4 L61.5,5.4 C61.5,5.4 61.6,5.1 61.7,5.1 C61.7,5 62,4.7 62,4.6 C62.2,4.2 62.6,3.8 62.8,3.4 C62.9,3.3 62.9,3.2 62.9,3.1 C62.9,3.1 62.9,3 63,3 C63.1,2.9 63.1,2.6 63.2,2.6 C63.5,2.4 63.9,2.6 64.2,2.7 C64.4,2.8 64.6,3 64.8,3.1 C65.1,3.4 65.3,3.7 65.3,4.1 C65.3,4.5 65.2,4.9 65,5.2 C64.9,5.3 64.6,5.7 64.5,5.7 C64.4,5.6 64,6.3 64,6.3 L63.9,6.3 L64,6.3 C64,6.3 64,6.4 63.9,6.4 L63.9,6.5 L63.7,6.6 L62.7,7.8 L62.6,7.8 C62.6,7.7 62.8,7.6 62.8,7.5 L62.7,7.6 C62.7,7.6 62.4,7.9 62.4,8 C62.5,8 62.6,7.8 62.7,7.8 C62.8,7.9 62.5,8 62.5,8 C62.8,8 63.3,8.3 63.5,8.5 C63.6,8.8 63.8,9.3 63.8,9.7 Z M59.4,8 L59.3,8.1 C59.3,8.2 59.4,8.1 59.4,8 Z M59.5,7.8 L59.6,7.7 L59.6,7.6 C59.6,7.6 59.6,7.7 59.5,7.8 Z M60.1,7.2 C60,7.2 59.6,7.8 59.6,8 C59.6,7.9 60.1,7.4 60.1,7.2 Z M60.2,7 L60.1,7.1 C60.2,7.2 60.2,7.1 60.2,7 Z M60.2,6.9 C60.3,6.9 60.3,6.8 60.2,6.9 C60.3,6.8 60.3,6.8 60.2,6.9 Z M60.4,6.9 L60.3,7 C60.3,7.1 60.4,6.9 60.4,6.9 Z M60.5,6.8 C60.5,6.7 60.5,6.7 60.5,6.8 C60.6,6.6 60.4,6.8 60.5,6.8 Z M58.8,15.9 L58.7,15.8 C58.6,15.8 58.7,15.9 58.8,15.9 Z M59,14.6 C58.9,14.6 58.9,14.7 58.9,14.7 C59,14.7 59,14.7 59,14.6 Z M59.1,14.5 C59.1,14.4 59.1,14.5 59.1,14.5 C59.1,14.5 59.2,14.5 59.1,14.5 Z M59.5,14.1 C59.4,14.2 59.4,14.1 59.5,14.1 C59.4,14.1 59.4,14.2 59.5,14.1 C59.4,14.2 59.5,14.2 59.5,14.1 Z M59.8,13.7 C59.8,13.7 59.7,13.7 59.8,13.7 C59.7,13.8 59.7,13.8 59.8,13.7 C59.7,13.8 59.7,13.8 59.8,13.7 C59.7,13.8 59.8,13.8 59.8,13.7 Z M59.9,13.5 L59.8,13.6 C59.9,13.6 59.8,13.6 59.8,13.7 L59.9,13.5 Z M60.1,15.5 C60.1,15.5 60,15.5 60.1,15.5 C60,15.6 60,15.5 60.1,15.5 Z M60.2,12.9 L60.2,12.8 C60.3,12.8 60.2,12.9 60.2,12.9 Z M60.3,15.3 C60.2,15.3 60.1,15.4 60.1,15.5 C60.2,15.5 60.3,15.4 60.3,15.3 Z M60.5,15.2 C60.5,15.2 60.4,15.3 60.5,15.2 C60.4,15.2 60.4,15.3 60.4,15.3 L60.5,15.2 Z M60.5,15.1 C60.6,15.1 60.4,15.1 60.5,15.1 C60.5,15.1 60.5,15.2 60.5,15.1 Z M60.7,14.9 C60.6,14.9 60.7,14.9 60.7,14.9 C60.6,14.9 60.6,15 60.7,14.9 C60.6,15 60.6,15 60.7,14.9 C60.6,15 60.6,15 60.7,14.9 C60.6,15 60.7,15 60.7,14.9 Z M60.8,14.8 C60.7,14.8 60.7,14.8 60.8,14.8 C60.7,14.9 60.8,14.8 60.8,14.8 Z M62.4,12.8 C62.4,12.8 62.4,12.7 62.4,12.8 C62.4,12.7 62.3,12.8 62.4,12.8 Z M62,8.7 C61.9,8.8 61.8,9 61.8,9.1 C61.7,9.2 62,8.8 62,8.7 Z M61.9,8.6 C61.9,8.6 61.8,8.7 61.9,8.6 C61.8,8.7 62,8.7 61.9,8.6 C62,8.6 61.9,8.6 61.9,8.6 Z M62.2,4.3 C62.1,4.4 62.1,4.5 62,4.5 C62,4.6 62.2,4.4 62.2,4.3 Z M62.3,4.3 C62.3,4.2 62.2,4.3 62.3,4.3 C62.2,4.3 62.3,4.3 62.3,4.3 Z M62.3,4.1 C62.3,4.1 62.3,4.2 62.3,4.1 C62.4,4.2 62.4,4.2 62.3,4.1 Z M63,7.1 C62.9,7.1 62.9,7.2 62.9,7.3 L62.7,7.4 C62.7,7.4 62.8,7.5 62.7,7.5 C62.7,7.5 62.8,7.4 62.9,7.4 C62.9,7.2 63.2,7 63,7.1 Z M8.4,15.8 C8.4,15.9 8.4,15.9 8.4,15.8 C8.4,15.9 8.4,15.9 8.4,15.8 Z M8.4,15.7 L8.4,15.5 C8.5,15.6 8.5,15.6 8.4,15.7 Z" id="Shape" fill="#FFFFFF"></path>
        <path d="M8.4,15.7 L8.4,15.5 C8.5,15.6 8.5,15.6 8.4,15.7 Z M8.4,15.8 C8.4,15.9 8.4,15.9 8.4,15.8 C8.4,15.9 8.4,15.9 8.4,15.8 Z M8.4,9.7 L8.3,9.7 L8.4,9.7 Z M11.3,11.5 C11.3,11.5 11.4,11.5 11.3,11.5 C11.4,11.5 11.3,11.5 11.3,11.5 Z M5.6,13.2 C5.7,13.1 5.7,13.1 5.6,13.2 C5.7,13.1 5.6,13.2 5.6,13.2 Z M3.6,13.2 C3.7,13.3 3.7,13.3 3.6,13.2 C3.6,13.3 3.6,13.3 3.6,13.2 Z M10.2,13.3 C10.1,13.3 10.1,13.3 10.2,13.3 C10.1,13.3 10.2,13.3 10.2,13.3 Z M3.5,13.3 C3.6,13.3 3.5,13.4 3.5,13.3 C3.5,13.4 3.5,13.3 3.5,13.3 Z M4.5,14.2 C4.5,14.2 4.4,14.2 4.5,14.2 C4.4,14.1 4.4,14.2 4.5,14.2 Z M2.6,14.3 C2.6,14.3 2.6,14.5 2.5,14.4 C2.5,14.3 2.6,14.3 2.6,14.3 Z M8.6,4.2 C8.6,4.3 8.6,4.3 8.6,4.2 C8.6,4.3 8.6,4.2 8.6,4.2 Z M8.7,4.4 C8.7,4.4 8.7,4.3 8.7,4.4 C8.7,4.2 8.7,4.4 8.7,4.4 Z M8.3,5.1 C8.3,5.2 8.3,5.2 8.3,5.1 C8.3,5.2 8.3,5.1 8.3,5.1 Z M8.2,5.2 C8.2,5.2 8.2,5.3 8.2,5.2 C8.2,5.3 8.2,5.2 8.2,5.2 Z M8,5.7 C8,5.7 8.1,5.6 8,5.7 C8.1,5.6 8.1,5.6 8,5.7 C8.1,5.7 8,5.7 8,5.7 Z M7.6,5.6 C7.6,5.6 7.6,5.7 7.6,5.6 C7.6,5.7 7.6,5.7 7.6,5.6 Z M7.9,5.9 C8,5.9 7.9,6.1 7.8,6.1 C7.8,6 7.9,5.9 7.9,5.9 Z" id="Shape" fill="#FFFFFF"></path>
        <path d="M7.9,6 C7.9,6 7.9,6.1 7.9,6 C7.9,6.1 7.8,6 7.9,6 Z M7.8,6.1 C7.8,6.1 7.7,6.2 7.8,6.1 C7.7,6.2 7.7,6.2 7.8,6.1 Z" id="Shape" fill="#FFFFFF"></path>
        <path d="M13.1,18.2 C13.1,18.2 12.9,18.1 12.9,18 C12.9,17.9 12.8,17.8 12.7,17.7 C12.6,17.5 12.4,17.5 12.3,17.4 C12,17.2 11.6,17.2 11.3,17.1 C10.9,17.1 10.7,17 10.3,17.1 C10.1,17.2 9.9,17 9.7,17.1 C9.6,17.1 9.4,17.2 9.3,17.1 C9,17 8.7,17 8.4,17 C8.3,17 8.4,16.4 8.4,16.3 L8.4,16.4 C8.3,16.4 8.4,16.2 8.4,16 L8.4,15.9 C8.4,15.8 8.5,15.7 8.5,15.6 C8.5,15.5 8.5,15.2 8.6,15.2 C8.7,15.1 8.7,15.3 8.8,15.2 L8.9,15.2 C9.1,15.2 9.4,15 9.6,15 C9.9,15 10.2,14.9 10.3,14.6 C10.4,14.3 10.4,14.2 10.4,13.9 C10.4,13.8 10.3,13.6 10.2,13.4 C10.2,13.3 10.1,13.2 10,13.2 C9.9,13 9.8,12.9 9.5,12.9 C9.4,12.9 9.3,12.8 9.2,12.8 L8.9,12.8 C8.7,12.7 8.5,12.9 8.3,12.8 C8.2,12.8 8.3,12.3 8.4,12.2 C8.5,12.1 8.6,11.6 8.8,11.7 C9,11.8 9.1,11.7 9.3,11.7 C9.4,11.7 9.4,11.6 9.5,11.6 C9.5,11.6 9.8,11.6 9.8,11.5 C9.9,11.5 10.1,11.5 10.1,11.4 C10.2,11.4 10.4,11.3 10.5,11.4 L11.3,11.4 C11.5,11.4 11.7,11.3 11.8,11.3 L11.7,11.3 C12.1,11.3 12.1,10.4 12,10.4 L12,10.5 C11.9,10.4 11.8,10.1 11.8,10 C11.8,9.9 11.7,9.7 11.6,9.6 L11.6,9.5 C11.4,9.3 10.7,9 10.5,9 L10.4,9 C10.3,9.1 10.1,9 10,9 C9.8,9 9.8,9.1 9.6,9 C9.5,9 9.3,9.1 9.2,9.1 C9.1,9.1 8.8,9.2 8.7,9.2 C8.5,9.2 8.3,9.4 8.1,9.4 L8,9.4 L7.9,9.4 C7.8,9.4 7.6,9.1 7.5,9 L7.4,9 C7.5,9 7.9,8.9 7.9,9 C7.9,9 7.8,9 7.8,9.1 L7.9,9.1 C8,9.1 8.2,9 8.2,9 C8.3,9 8.4,8.9 8.5,8.9 C8.7,8.9 9.2,8.6 9.2,8.4 C9.3,8.2 9.4,8 9.2,7.8 C9.1,7.7 9.3,7.4 9.4,7.3 C9.5,7.3 9.3,7.6 9.4,7.6 C9.5,7.6 9.7,7 9.8,6.9 C9.8,6.8 10,6.6 10.1,6.5 C10.1,6.4 10.3,6.2 10.3,6.2 C10.3,6.1 10.4,5.9 10.5,5.9 C10.6,5.7 10.6,5.6 10.7,5.4 C10.8,5.1 10.8,4.6 11.1,4.4 C11.4,4.2 11.3,3.6 11,3.4 C10.8,3.1 10.5,2.9 10.2,2.7 C10,2.6 9.7,2.2 9.4,2.2 C9.1,2.3 8.7,2.1 8.4,2.1 C8,2.1 7.6,2.1 7.2,2.2 C6.8,2.2 6.4,2.4 6,2.4 C5.7,2.5 5.3,2.5 5.1,2.6 C5,3 4.9,3 5.1,3.2 C5.2,3.3 5.4,3.4 5.4,3.5 C5.5,3.6 5.5,3.7 5.6,3.8 C5.8,4 6,4.2 6.3,4.2 C6.8,4.3 7.3,4.3 7.8,4.1 C8,4 8.1,3.7 8.2,3.7 C8.4,3.6 8.3,3.5 8.4,3.5 C8.5,3.4 8.7,3.2 8.9,3.2 C8.8,3.2 8.8,3.8 8.7,3.9 C8.7,3.9 8.5,4.1 8.5,4.2 C8.5,4.3 8.3,4.6 8.3,4.6 C8.4,4.7 8.1,5 8.1,5.1 L8.1,5.2 C8.1,5.1 8.2,5.1 8.2,5 L8.3,4.8 C8.4,4.7 8.5,4.3 8.5,4.4 C8.5,4.4 8.1,5.3 8.1,5.4 C8.1,5.5 7.8,5.9 7.7,6.1 L7.7,6 L7.5,6.2 L7.6,6.2 L7.6,6.1 C7.6,6.1 7.5,6.4 7.4,6.5 L7.3,6.6 L7.3,6.7 C7.3,6.8 7.1,6.9 7.1,7.1 L7.2,7.1 C7.2,7.2 7.2,7.2 7.1,7.2 L7.1,7.3 C7,7.7 7,7.6 6.8,7.6 C6.6,7.6 6.7,7.7 6.5,7.6 L6.2,7.6 C6,7.7 5.4,7.7 5.7,7.3 C5.9,7.1 6,7 6.2,6.9 C6.4,6.9 6.5,6.9 6.7,6.8 C7,6.6 7.4,6.6 7.6,6.4 C7.8,6.2 7.6,6 7.6,5.8 C7.5,5.1 6.5,5 6,5.1 C5.6,5.1 5.3,5.2 5,5.3 C4.6,5.4 4.4,5 4.2,4.7 C4.1,4.5 3.9,4.3 3.8,4.1 C3.8,4 3.7,3.8 3.6,3.8 C3.2,3.6 3.2,4.2 3.1,4.5 C2.9,5.4 3,6.2 3.2,7.1 C3.3,7.6 3.5,8.4 3.9,8.7 L4.2,9 C4.2,9.1 4.4,9.1 4.5,9.2 L4.8,9.5 L5.2,9.7 L5.2,9.6 C5.3,9.6 5.6,9.6 5.7,9.7 C5.8,9.7 5.8,9.8 5.8,9.8 C5.8,10 6.1,10.5 5.8,10.7 C5.6,10.9 5.1,11 4.9,11 L4.5,11 C4.3,11 4.4,11 4.3,10.8 C4.1,10.2 3.2,9.8 2.7,9.9 C2.4,10 1.8,10 2.1,10.4 C2.3,10.7 1.9,11 1.9,11.3 C1.8,11.4 1.7,11.8 1.7,11.9 L1.6,12.1 L1.7,12.1 C1.6,12.1 1.5,12.6 1.4,12.7 L1.4,12.6 C1.3,12.6 1.3,12.8 1.3,12.9 C1.3,13 1.3,13 1.2,13.1 C1.2,13.2 1,13.6 0.9,13.7 C0.7,13.9 0.5,14.1 0.4,14.1 L0.4,14 C0.4,13.9 0.3,14 0.4,13.9 L0.2,14.1 L0.2,15 L0.4,15 C0.5,15.1 0.5,15.1 0.5,15 L1.5,15 L1.4,15.1 L1.5,15.1 C1.6,15.1 1.7,14.9 1.8,14.9 C2,14.8 2.1,14.7 2.3,14.6 C2.4,14.6 2.8,14.3 2.7,14.2 L2.6,14.3 C2.6,14.2 2.7,14.2 2.8,14.2 C2.9,14.2 2.8,14.1 2.9,14 C2.9,14 2.9,14.1 2.9,14 L3.1,13.7 C3.1,13.9 2.9,14 2.9,14.1 C3,14.2 3,13.9 3.1,13.9 C3.1,13.9 3.2,13.7 3.3,13.7 C3.4,13.5 3.5,13.4 3.6,13.2 L3.8,13 C3.9,12.9 3.9,12.8 4,12.7 C4.1,12.6 4.2,12.5 4.2,12.4 C4.3,12.2 4.3,12.2 4.5,12.2 C4.7,12.1 6,12.3 6,12.5 L6,12.7 L5.9,12.8 C5.8,13 5.7,13.1 5.6,13.2 C5.4,13.3 5.3,13.5 5.1,13.6 C5,13.7 4.7,14.1 4.5,14.1 L4.3,14.3 C4.3,14.3 4.1,14.6 4.1,14.4 C3.9,14.4 3.9,14.7 3.9,15 C3.9,15.4 4,15.8 4,15.8 C4.1,16.4 5.3,16 5.3,16.1 C5.3,16.1 5.8,16 5.9,16 C6,16 5.9,16.5 5.9,16.6 C5.9,16.7 5.9,17.2 5.8,17.2 C5.7,17.2 5.7,17.3 5.7,17.3 L5.3,17.3 C5.3,17.3 4.8,17.4 4.7,17.4 C4.6,17.4 4.4,17.4 4.3,17.5 L4,17.5 C3.5,17.5 3.1,17.6 2.7,17.7 C2.5,17.7 2.1,17.9 2,17.8 C1.9,17.8 1.6,17.9 1.4,18 L0.9,18 C0.7,18 0.5,18.1 0.4,18.1 L0.1,18.2 C0.1,18.2 -1.94289029e-16,18.6 0.1,18.7 C0.2,18.8 0.2,19 0.4,19 C0.5,19 0.6,19.1 0.6,19.2 C0.6,19.4 0.8,19.6 1,19.6 C1.1,19.6 1.1,19.8 1.2,19.8 C1.3,19.8 1.3,19.7 1.4,19.8 C1.4,19.9 1.6,20 1.7,20.1 C1.8,20.2 1.9,20.2 1.9,20.2 C2,20.2 2.1,20.3 2.2,20.3 C2.3,20.3 2.5,20.4 2.6,20.4 C2.9,20.5 3.4,20.3 3.7,20.2 C3.8,20.2 4,20 4.2,20 C4.3,20 4.8,19.7 5,19.8 C5,19.8 5.3,19.8 5.4,19.7 C5.7,19.6 6.1,19.7 6.4,19.6 C6.6,19.6 6.7,19.6 6.9,19.5 C7.1,19.5 7.2,19.4 7.4,19.4 L7.9,19.4 C8,19.4 8.3,19.3 8.4,19.3 L8.3,19.3 C8.4,19.3 9.5,19.4 9.6,19.4 C9.7,19.4 10.2,19.6 10.2,19.7 C10,20 10.2,20 10.2,20 L10.5,20 C10.7,20 10.9,20.1 11.1,20.1 L11.7,20.1 C11.9,20 12.3,20.1 12.5,19.8 C12.5,19.7 12.8,19.4 12.8,19.4 L12.9,19.1 C12.9,18.9 13.1,18.7 13,18.5 C13.2,18.5 13.2,18.3 13.1,18.2 Z M5.6,7 C5.5,7.1 5.3,7.3 5.4,7 L5.2,6.5 C5.3,6.5 5.6,6.7 5.6,6.7 C5.7,6.9 5.8,6.7 5.6,7 Z" id="Shape" fill="#FFFFFF"></path>
        <path d="M56.8,16.5 C56.9,16.5 57.1,17 57.1,17 C57,16.9 57,16.8 56.9,16.7 C56.9,16.6 56.8,16.6 56.8,16.5 Z M56.7,16.9 C56.6,16.9 56.7,16.7 56.7,16.9 C56.7,16.8 56.7,16.9 56.7,16.9 Z M36.5,15.1 C36.5,15.1 36.4,15.2 36.5,15.1 C36.4,15.1 36.5,15.1 36.5,15.1 Z M36.6,15.7 L36.5,15.7 L36.6,15.7 Z M36.8,14.7 L36.7,14.8 L36.8,14.7 Z M37.6,15.6 C37.6,15.6 37.5,15.7 37.6,15.6 C37.5,15.6 37.6,15.6 37.6,15.6 Z" id="Shape" fill="#FFFFFF"></path>
        <path d="M36.4,15.1 C36.4,15.1 36.5,15.1 36.4,15.1 C36.5,15.1 36.4,15.2 36.4,15.1 Z M36.5,15.7 C36.5,15.7 36.6,15.6 36.6,15.7 L36.5,15.7 Z M36.7,14.8 L36.8,14.7 L36.7,14.8 Z M37.5,15.7 C37.5,15.6 37.6,15.6 37.5,15.7 C37.6,15.6 37.5,15.7 37.5,15.7 Z M37.7,13.5 C37.7,13.5 37.7,13.4 37.7,13.5 C37.8,13.5 37.7,13.5 37.7,13.5 Z M38,13 C38,12.9 38.1,12.8 38,13 C38.1,12.9 38.1,13 38,13 Z" id="Shape" fill="#FFFFFF" fill-rule="nonzero"></path>
        <path d="M36.5,15.1 C36.5,15.1 36.4,15.2 36.5,15.1 C36.4,15.1 36.5,15.1 36.5,15.1 Z M36.6,15.7 L36.5,15.7 L36.6,15.7 Z M36.8,14.7 L36.7,14.8 L36.8,14.7 Z M37.6,15.6 C37.6,15.6 37.5,15.7 37.6,15.6 C37.5,15.6 37.6,15.6 37.6,15.6 Z M37.7,13.5 C37.7,13.5 37.7,13.4 37.7,13.5 C37.8,13.5 37.7,13.5 37.7,13.5 Z M38.1,12.9 C38.1,12.9 38.1,13 38.1,12.9 C38,12.9 38.1,12.8 38.1,12.9 Z" id="Shape" fill="#FFFFFF" fill-rule="nonzero"></path>
        <path d="M36.9,14.5 C37,14.5 37,14.5 36.9,14.5 C37,14.5 36.9,14.5 36.9,14.5 Z M36.8,14.7 L36.7,14.8 L36.8,14.7 Z M36.5,15.1 C36.5,15.1 36.4,15.2 36.5,15.1 C36.4,15.1 36.5,15.1 36.5,15.1 Z M37.6,15.6 C37.6,15.6 37.5,15.7 37.6,15.6 C37.5,15.6 37.6,15.6 37.6,15.6 Z M36.6,15.7 L36.5,15.7 L36.6,15.7 Z M37.7,13.5 C37.7,13.5 37.7,13.4 37.7,13.5 C37.8,13.5 37.7,13.5 37.7,13.5 Z M38.1,12.9 C38.1,12.9 38.1,13 38.1,12.9 C38,12.9 38.1,12.8 38.1,12.9 Z" id="Shape" fill="#FFFFFF"></path>
        <path d="M38.2,12.4 L38.3,12.4 C38.3,12.5 38.2,12.5 38.2,12.4 C38.2,12.5 38.2,12.4 38.2,12.4 Z M38.1,12.9 C38.1,12.9 38.1,13 38.1,12.9 C38,12.9 38.1,12.8 38.1,12.9 Z M37.8,13.2 C37.8,13.3 37.8,13.3 37.8,13.2 C37.8,13.3 37.8,13.3 37.8,13.2 C37.8,13.3 37.8,13.3 37.8,13.2 Z M37.7,13.5 C37.7,13.5 37.7,13.4 37.7,13.5 C37.8,13.5 37.7,13.5 37.7,13.5 Z M37.5,13.5 C37.6,13.6 37.6,13.6 37.5,13.5 C37.5,13.5 37.5,13.6 37.5,13.5 Z M38.7,11.7 C38.7,11.7 38.7,11.8 38.7,11.7 C38.6,11.7 38.6,11.8 38.7,11.7 Z M38.5,12.1 L38.5,12.2 C38.4,12.2 38.4,12.2 38.5,12.1 C38.4,12.2 38.4,12.3 38.4,12.2 C38.4,12.1 38.5,12.1 38.5,12.1 Z M16.8,19.7 C16.8,19.8 16.6,19.8 16.6,19.8 L16.8,19.7 Z M17.4,19.6 C17.3,19.7 17.4,19.7 17.4,19.6 C17.4,19.7 17.4,19.7 17.4,19.6 Z M16.6,19.9 L16.8,19.8 C16.8,19.7 16.6,19.8 16.6,19.9 Z M16.8,19.7 L16.6,19.8 C16.6,19.8 16.8,19.8 16.8,19.7 Z M18.3,14.4 C18.2,14.4 18.2,14.4 18.3,14.4 C18.3,14.3 18.3,14.4 18.3,14.4 Z M18.3,14.4 C18.2,14.4 18.2,14.4 18.3,14.4 C18.3,14.3 18.3,14.4 18.3,14.4 Z M18.3,14.4 C18.2,14.4 18.2,14.4 18.3,14.4 C18.3,14.3 18.3,14.4 18.3,14.4 Z M18.3,14.4 C18.2,14.4 18.2,14.4 18.3,14.4 C18.3,14.3 18.3,14.4 18.3,14.4 Z M27.5,17.8 C27.5,17.8 27.6,17.9 27.5,17.8 C27.6,17.9 27.6,17.8 27.5,17.8 C27.6,17.8 27.5,17.8 27.5,17.8 Z M27.5,17.9 C27.5,17.9 27.5,18 27.5,17.9 C27.5,18 27.5,17.9 27.5,17.9 Z M23.4,20.3 C23.5,20.4 23.4,20.1 23.4,20.3 C23.3,20.2 23.3,20.2 23.4,20.3 Z M25,20.3 C25,20.3 25,20.2 25,20.3 C25,20.2 24.8,20.3 24.8,20.3 L24.7,20.3 C24.8,20.4 24.9,20.3 25,20.3 Z M24.5,20.4 C24.5,20.5 24.6,20.4 24.6,20.4 L24.5,20.4 Z M24.5,15.6 L24.4,15.6 L24.5,15.6 C24.4,15.6 24.5,15.6 24.5,15.6 Z M25.5,15.4 C25.5,15.4 25.4,15.4 25.5,15.4 C25.4,15.4 25.5,15.4 25.5,15.4 Z M25.7,15.3 L25.5,15.4 C25.6,15.4 25.7,15.3 25.7,15.3 Z M26.8,16.3 C26.8,16.3 26.8,16.2 26.9,16.2 L26.8,16.3 Z M27.3,16 C27.3,16.1 27.3,16.1 27.3,16 C27.2,16.1 27.3,16 27.3,16 Z M27.8,17 C27.8,17 27.8,17.1 27.8,17 C27.7,17.1 27.7,17 27.8,17 Z M27.7,17.3 C27.6,17.4 27.6,17.1 27.7,17.1 C27.8,17.1 27.7,17.3 27.7,17.3 Z M25.7,15.3 L25.5,15.4 C25.6,15.4 25.7,15.3 25.7,15.3 Z M25.5,15.4 C25.5,15.4 25.4,15.4 25.5,15.4 C25.4,15.4 25.5,15.4 25.5,15.4 Z M24.5,15.6 L24.4,15.6 L24.5,15.6 C24.4,15.6 24.5,15.6 24.5,15.6 Z M27.3,16 C27.3,16.1 27.3,16.1 27.3,16 C27.2,16.1 27.3,16 27.3,16 Z M26.7,16.1 C26.7,16.1 26.7,16.2 26.7,16.1 C26.8,16.2 26.8,16.1 26.7,16.1 Z M26.7,16.2 C26.7,16.2 26.6,16.2 26.7,16.2 C26.7,16.3 26.7,16.2 26.7,16.2 Z M26.8,16.3 C26.8,16.3 26.8,16.2 26.9,16.2 L26.8,16.3 Z M27.8,17 C27.8,17 27.8,17.1 27.8,17 C27.7,17.1 27.7,17 27.8,17 Z M27.7,17.3 C27.6,17.4 27.6,17.1 27.7,17.1 C27.8,17.1 27.7,17.3 27.7,17.3 Z M20.2,14 C20.2,14 20.1,14 20.2,14 C20.1,14 20.1,13.9 20.2,14 Z M20.7,12.7 C20.7,12.8 20.7,12.8 20.7,12.7 C20.7,12.8 20.7,12.8 20.7,12.7 Z M25.5,15 C25.5,15 25.6,15 25.5,15 C25.6,15 25.6,15 25.5,15 Z M25.7,14.8 C25.7,14.8 25.7,14.9 25.7,14.8 C25.6,14.8 25.7,14.8 25.7,14.8 Z M29.8,12.4 C29.7,12.4 29.7,12.6 29.8,12.6 L29.8,12.4 Z M19.7,15.1 C19.7,15 19.7,15 19.7,15.1 C19.7,15 19.7,15.1 19.7,15.1 Z M20.7,12.7 C20.7,12.8 20.7,12.8 20.7,12.7 C20.7,12.8 20.7,12.8 20.7,12.7 Z M20.2,14 C20.2,14 20.1,14 20.2,14 C20.1,14 20.1,13.9 20.2,14 Z M20,14.3 C20,14.3 20.1,14.3 20,14.3 C20.1,14.2 20,14.3 20,14.3 Z M19.9,14.6 C19.9,14.7 19.9,14.7 19.9,14.6 C19.9,14.7 19.9,14.7 19.9,14.6 Z M19.8,14.7 C19.8,14.7 19.8,14.8 19.8,14.7 C19.8,14.8 19.8,14.8 19.8,14.7 Z M25.7,14.8 C25.7,14.8 25.7,14.9 25.7,14.8 C25.6,14.8 25.7,14.8 25.7,14.8 Z M25.5,15 C25.5,15 25.6,15 25.5,15 C25.6,15 25.6,15 25.5,15 Z M25,10.7 C25,10.7 25,10.8 25,10.7 C24.9,10.7 24.9,10.6 25,10.6 C24.9,10.6 25,10.7 25,10.7 Z M27.5,10.1 L27.5,10.2 C27.4,10.2 27.4,10.1 27.5,10.1 C27.4,10.1 27.4,10.1 27.5,10.1 C27.4,10.1 27.5,10.1 27.5,10.1 Z M29.6,11.2 C29.6,11.2 29.5,11.3 29.6,11.2 C29.5,11.3 29.5,11.3 29.6,11.2 C29.5,11.2 29.6,11.2 29.6,11.2 Z M29.7,11.2 C29.6,11.2 29.6,11.2 29.7,11.2 C29.6,11.2 29.6,11.2 29.7,11.2 Z M34.8,17.3 C34.8,17.2 34.8,17.2 34.8,17.3 C34.8,17.2 34.8,17.2 34.7,17.2 C34.7,17.1 34.8,17.1 34.8,17 C34.8,17 34.5,17.2 34.5,17.1 C34.5,17 34.7,17 34.5,16.9 L34.5,16.7 C34.4,16.7 34.3,16.5 34.2,16.4 C34,16.2 33.9,16.1 33.6,16 C33.4,15.9 33.2,15.9 33.1,15.8 C33,15.8 32.5,15.8 32.4,15.7 C32.4,15.6 32.1,15.8 32,15.7 L31.8,15.7 C31.7,15.7 31.6,15.6 31.6,15.6 C31.6,15.6 30.8,15.3 30.7,15.2 C30.6,15.1 30.4,15.1 30.3,15 L30.2,15 C30,14.9 29.8,14.7 29.6,14.6 C29.5,14.5 28.6,14 28.7,13.9 C29.1,13.7 29.4,13.3 29.4,12.8 L29.4,12.9 C29.5,12.9 29.4,12.6 29.4,12.6 C29.4,12.6 29.4,12.7 29.5,12.7 C29.5,12.6 29.4,12.6 29.5,12.5 L29.6,12.7 L29.6,12.4 L29.7,12.4 C29.6,12.1 29.2,11.8 29,11.8 C28.9,11.8 28.6,11.5 28.4,11.6 C28.3,11.6 28.3,11.6 28.3,11.7 C28.3,11.7 28.2,11.7 28.2,11.8 C28.2,11.9 28.3,11.8 28.3,11.9 C28.2,11.9 28.1,11.8 28.2,12 C28.2,12.1 28,12.1 28,12 L28,12.3 C27.9,12.4 27.8,12.3 27.8,12.2 C27.7,12.2 27.8,12.3 27.7,12.3 L27.8,12.4 C27.6,12.5 27.5,13 27.2,12.8 L27.1,12.8 C27,12.8 26.9,12.7 26.9,12.7 C26.8,12.6 26.5,12.5 26.5,12.4 L26.6,12.4 C26.6,12.4 26.7,12.4 26.7,12.3 L26.6,12.3 C26.6,12.2 27.7,11.7 27.8,11.7 L27.7,11.8 C27.7,11.9 27.9,11.7 28,11.7 C28.4,11.6 28.9,11.3 29.3,11.3 C29.3,11.3 29.2,11.3 29.2,11.4 L29.6,11.4 L29.8,11.3 L29.9,11.2 C30,11.2 30.1,10.9 30,10.8 C30,10.7 29.8,10.6 29.8,10.5 C29.7,10.3 28.9,10.4 28.7,10.4 C28.4,10.4 27,11 27,11 C27,11 27.1,10.8 27.2,10.7 C27.3,10.6 27.4,10.4 27.5,10.3 L27.8,9.9 C27.8,9.9 27.9,9.8 27.9,9.7 C28,9.5 28.1,9.1 28.1,9.1 C28.1,9.1 28.2,9 28.3,9 C28.4,9 28.5,8.9 28.6,8.9 C28.8,8.8 29.1,8.7 29.3,8.7 C29.5,8.7 29.8,8.7 30,8.6 C30,8.6 30.3,8.3 30.2,8.3 C30.2,8.3 30.3,8.2 30.3,8.1 L30.1,7.9 C30.1,8 30,7.8 29.9,7.8 C29.8,7.7 29.7,7.7 29.5,7.7 C29.4,7.7 28.7,7.7 28.7,7.6 C28.7,7.3 28.9,7.1 28.7,6.8 C28.6,6.6 28.5,6.6 28.3,6.5 C28.3,6.4 28.4,6.5 28.4,6.5 C28.4,6.4 28,6.4 27.9,6.4 C27.9,6.4 27.7,6.3 27.6,6.3 C27.5,6.3 27.5,6.4 27.5,6.4 C27.4,6.5 27.6,6.7 27.6,6.7 L27.6,7.1 C27.6,7.4 27.5,7.6 27.4,7.9 C27.4,8 27,8.1 26.9,8.1 C26.7,8.2 26.4,8.3 26.2,8.4 C25.9,8.5 25.6,8.6 25.4,8.8 C25.2,8.9 24.9,8.9 24.8,9.1 C24.8,9.1 24.7,8.5 24.6,8.4 C24.5,8.2 24.3,7.9 24.1,7.9 C23.9,7.9 23.8,7.8 23.6,7.7 C23.4,7.7 23.4,7.9 23.4,8 C23.3,8.2 23.3,8.6 23.3,8.8 C23.3,8.9 23.2,9.1 23.3,9.2 L23.3,9.7 C23.3,9.8 22.9,9.9 22.9,9.9 C22.8,10 22.3,10.1 22.5,10.3 C22.6,10.4 22.7,10.8 22.8,10.8 C22.9,10.8 23.1,11.2 23.2,11.3 C23.3,11.4 23.4,11.4 23.5,11.5 C23.6,11.6 23.5,11.7 23.6,11.8 C23.6,11.9 23.7,12.1 23.7,12.2 C23.7,12.2 23.8,12.3 23.8,12.5 C23.9,12.6 23.9,12.7 23.9,12.8 C23.8,13 23.5,13.1 23.2,13.2 C23.1,13.3 23,13.3 22.8,13.4 C22.7,13.4 22.5,13.5 22.5,13.5 L22.3,13.7 C22.2,13.7 22.2,13.8 22,13.9 L21.7,13.9 C21.6,13.9 21.3,14.3 21.3,14.3 C21.2,14.3 21.2,14.5 21.2,14.7 C21.2,14.8 21.1,14.9 21.1,15 C21.1,15.2 21.2,15.1 21.1,15.2 L21.1,15.4 C21.1,15.5 21.1,15.6 21.2,15.6 C21.4,15.6 21.4,15.7 21.5,15.7 C21.6,15.8 21.6,15.6 21.5,15.6 C21.5,15.5 21.6,15.5 21.6,15.5 C21.7,15.4 21.7,15.5 21.8,15.5 C21.8,15.5 21.9,15.4 22,15.4 L22.1,15.4 C22.1,15.3 22.3,15.2 22.4,15.2 C22.5,15.2 22.9,14.8 23,14.8 L22.7,15.4 L22.7,15.5 C22.6,15.9 22.6,16.3 22.6,16.7 L22.6,18.6 C22.6,18.9 22.6,19.2 22.7,19.5 C22.8,19.8 22.8,20.3 23.1,20.5 C23.3,20.7 23.5,20.8 23.7,20.8 C23.7,20.9 24,20.8 24.1,20.8 L24,20.8 C24.3,20.7 24.6,20.7 24.8,20.7 L24.9,20.7 C25,20.7 25,20.7 25.1,20.6 C25.4,20.1 25.6,20 25.7,20 C25.7,19.9 26.1,19.7 26.1,19.8 L26.2,19.7 L26.2,19.8 L26.6,19.4 L26.6,19.3 C26.6,19.3 26.7,19.3 26.6,19.4 L26.7,19.2 C26.7,19.2 26.7,19.4 26.8,19.3 C26.8,19.3 26.8,19.2 26.9,19.1 C27,18.9 27.1,18.8 27.1,18.7 C27.1,18.7 27.3,18.5 27.3,18.4 C27.4,18.2 27.6,18.1 27.6,17.9 C27.6,17.9 27.6,17.8 27.7,17.7 C27.7,17.6 27.8,17.6 27.8,17.5 C27.8,17.4 27.8,17.3 27.9,17.2 C27.9,17.2 28,16.9 28,16.8 L28,16.6 C27.9,16.6 28,16.9 27.9,16.9 C27.9,16.7 28,16.3 28.1,16.4 L28.5,16.7 L29,17 L29.5,17.6 C29.6,17.6 29.6,17.7 29.7,17.8 C29.8,17.9 29.9,18 30,18 C30.2,18 30.4,18 30.6,18.1 C30.7,18.1 31.2,18.3 31.2,18.2 C31.5,18.2 31.8,18.1 32.1,18.1 L32.5,18.1 C32.5,18 32.8,18.2 32.9,18.1 C33,18.1 33.2,18.2 33.3,18.2 C33.4,18.2 34.3,18.1 34.2,17.9 C34.2,17.8 34.3,17.7 34.3,17.7 C34.3,17.7 34.5,17.7 34.5,17.6 L34.5,17.5 L34.6,17.5 C34.6,17.5 34.7,17.4 34.7,17.3 C34.7,17.3 34.8,17.5 34.8,17.3 C34.8,17.3 34.7,17.3 34.8,17.3 Z M29.5,11.3 C29.5,11.3 29.6,11.2 29.5,11.3 C29.6,11.2 29.5,11.2 29.5,11.3 Z M27.9,9.3 C27.9,9.3 27.9,9.2 27.9,9.3 C27.9,9.2 27.8,9.3 27.9,9.3 Z M27.7,9.5 C27.7,9.5 27.8,9.5 27.7,9.5 C27.8,9.5 27.8,9.5 27.7,9.5 Z M27.7,9.6 C27.8,9.6 27.8,9.5 27.7,9.6 C27.7,9.5 27.7,9.6 27.7,9.6 Z M27.5,9.9 C27.6,9.9 27.6,9.9 27.5,9.9 C27.6,9.8 27.5,9.9 27.5,9.9 Z M27.5,10 C27.5,10 27.5,9.9 27.5,10 C27.5,9.9 27.5,9.9 27.5,10 Z M27.4,10.2 L27.4,10.1 C27.5,10.1 27.4,10.1 27.4,10.2 L27.4,10.1 L27.4,10.2 Z M26.8,8.2 C26.9,8.2 27.3,8.1 27.3,8 L26.8,8.2 Z M25,10.4 L25,11 C25,11.1 25.2,11.6 25.2,11.7 C25.3,12 25.6,11.8 25.8,11.6 C25.9,11.5 26,11.3 26.1,11.1 C26.3,11 26.4,10.7 26.4,10.5 C26.5,10.3 26.6,10.2 26.7,10 C26.7,10 26.8,9.9 26.8,9.8 C26.8,9.7 26.9,9.7 26.9,9.7 C26.9,9.7 26.7,9.7 26.5,9.8 C26.1,10 25.6,10.2 25.6,10.3 C25.4,10.2 25,10.3 25,10.4 Z M25.6,15.4 C25.6,15.4 25.8,15.4 25.8,15.3 C25.7,15.3 25.6,15.4 25.6,15.4 Z M25.7,14.8 C25.7,14.8 25.6,14.8 25.7,14.8 C25.7,14.9 25.7,14.8 25.7,14.8 Z M24.3,15.5 C24.3,15.6 24.5,15.6 24.5,15.5 C24.6,15.4 24.8,15.4 24.9,15.3 L25.1,15.1 C25.1,15.1 25.2,15.1 25.3,15 C25.5,14.9 25.6,14.8 25.6,14.7 C25.6,14.7 25.7,14.7 25.6,14.7 C25.7,14.7 25.6,14.6 25.6,14.6 C25.6,14.6 25.5,14.5 25.4,14.5 C25.4,14.4 25.1,14.4 25.1,14.3 C25.1,14.2 24.9,14.1 24.8,14 C24.7,13.9 24.6,13.7 24.4,13.6 C24.3,13.6 24,13.8 24,13.9 C24,14.2 24.1,14.5 24.1,14.8 L24.1,15 C24.3,15.2 24.3,15.4 24.3,15.5 Z M25.4,15.4 C25.4,15.4 25.5,15.4 25.4,15.4 C25.5,15.4 25.4,15.4 25.4,15.4 Z M24.3,15.6 C24.4,15.6 24.4,15.6 24.3,15.6 Z M25.1,17.8 C25.3,17.7 25.4,17.5 25.6,17.4 L25.9,17.1 C25.9,17.2 25.8,17.2 25.8,17.3 C25.8,17.3 26.7,16.5 26.7,16.3 C26.7,16.2 26.7,16.3 26.8,16.2 C26.8,16.2 26.8,16.1 26.9,16.1 L26.9,16.2 L26.8,16.3 L26.9,16.2 L26.9,16 C26.9,16.1 27,15.8 27,15.8 C27,15.9 26.9,16 26.9,16.1 L26.9,16.2 C26.9,16.2 27,16.1 26.9,16.2 C27,16.2 27,16 27.1,16 C27.1,16.1 27,16.1 27,16.2 L27.1,16 L27.1,15.6 C27,15.6 26.9,15.4 26.9,15.4 L26.6,15.2 C26.5,15.2 26.3,15.4 26.2,15.4 C26,15.5 24.7,15.8 24.7,16 C24.6,16.1 24.5,15.9 24.5,16.1 L24.5,16.7 C24.4,16.8 24.5,17.2 24.5,17.4 L24.5,18.1 C24.4,18.2 24.9,17.9 25.1,17.8 C25,17.8 25.1,17.8 25.1,17.8 Z M27.7,17.1 C27.8,17.1 27.8,17 27.7,17.1 C27.7,17 27.7,17.1 27.7,17.1 Z M27.8,17.1 C27.8,17.1 27.8,17.2 27.7,17.2 C27.7,17.2 27.7,17.1 27.8,17.1 C27.7,17.2 27.7,17.4 27.8,17.3 C27.7,17.3 27.8,17.1 27.8,17.1 Z M24.5,15.6 L24.4,15.6 L24.5,15.6 C24.4,15.6 24.5,15.6 24.5,15.6 Z M25.4,15.4 C25.4,15.4 25.5,15.4 25.4,15.4 C25.5,15.4 25.4,15.4 25.4,15.4 Z M25.6,15.4 L25.8,15.3 C25.7,15.3 25.6,15.4 25.6,15.4 Z M25.3,15.1 C25.2,15.1 25.2,15.2 25.1,15.2 C25,15.2 25,15.2 24.9,15.3 C24.8,15.4 24.6,15.4 24.5,15.5 L24.3,15.5 C24.3,15.4 24.2,15.3 24.2,15.1 L24.2,14.9 C24.1,14.6 24.1,14.3 24.1,14 C24.1,13.9 24.4,13.7 24.5,13.7 C24.6,13.7 24.8,14 24.9,14.1 C25,14.2 25.2,14.3 25.2,14.4 C25.2,14.5 25.5,14.5 25.5,14.6 C25.5,14.6 25.6,14.7 25.7,14.7 C25.8,14.7 25.8,14.8 25.7,14.8 C25.6,14.9 25.4,15 25.3,15.1 Z M25.6,14.9 C25.6,14.8 25.7,14.8 25.6,14.9 C25.7,14.8 25.7,14.9 25.6,14.9 Z M26.8,9.5 C26.8,9.5 26.8,9.6 26.7,9.6 C26.7,9.7 26.6,9.7 26.6,9.8 C26.5,10 26.4,10.1 26.3,10.3 C26.2,10.5 26.1,10.8 26,10.9 C25.9,11.1 25.8,11.3 25.7,11.4 C25.5,11.6 25.2,11.8 25.1,11.5 C25.1,11.4 24.9,11 24.9,10.8 L24.9,10.6 L24.9,10.3 C24.9,10.2 25.4,10.1 25.4,10 C25.4,10 25.9,9.7 26.3,9.5 C26.6,9.6 26.8,9.5 26.8,9.5 Z M27.2,15.8 C27.2,15.9 27.2,15.9 27.2,15.8 C27.2,15.9 27.2,15.9 27.2,15.8 Z M27.3,16 C27.3,16.1 27.3,16.1 27.3,16 C27.2,16.1 27.3,16 27.3,16 Z M27.3,8 C27.3,8.1 26.8,8.2 26.8,8.2 L27.3,8 Z M27.4,10.1 C27.4,10.1 27.5,10.1 27.4,10.1 C27.5,10.1 27.5,10.1 27.4,10.1 C27.4,10.1 27.4,10.2 27.4,10.1 C27.4,10.2 27.4,10.1 27.4,10.1 Z M27.5,10 C27.5,9.9 27.5,9.9 27.5,10 C27.5,9.9 27.5,10 27.5,10 Z M27.7,9.6 C27.7,9.6 27.7,9.5 27.7,9.6 C27.8,9.5 27.8,9.6 27.7,9.6 Z M27.7,9.5 C27.8,9.5 27.8,9.5 27.7,9.5 C27.8,9.5 27.7,9.5 27.7,9.5 Z M27.8,17 C27.8,17 27.8,17.1 27.8,17 C27.7,17.1 27.7,17 27.8,17 Z M27.8,17.1 L27.8,17.3 C27.6,17.4 27.7,17.2 27.8,17.1 L27.7,17.2 L27.8,17.1 Z M27.9,9.2 C27.9,9.2 27.9,9.3 27.9,9.2 C27.8,9.3 27.9,9.2 27.9,9.2 Z M29.6,11.2 C29.6,11.2 29.5,11.3 29.6,11.2 C29.5,11.3 29.5,11.3 29.6,11.2 C29.5,11.2 29.6,11.2 29.6,11.2 Z M29.7,11.2 C29.6,11.2 29.6,11.2 29.7,11.2 C29.6,11.2 29.6,11.2 29.7,11.2 Z M29.6,11.2 C29.6,11.2 29.5,11.3 29.6,11.2 C29.5,11.3 29.5,11.3 29.6,11.2 C29.5,11.2 29.6,11.2 29.6,11.2 Z M27.9,9.3 C27.8,9.3 27.9,9.2 27.9,9.3 C27.9,9.2 27.9,9.3 27.9,9.3 Z M27.7,9.6 C27.7,9.6 27.7,9.5 27.7,9.6 C27.8,9.5 27.8,9.6 27.7,9.6 Z M27.5,10.1 L27.5,10.2 C27.4,10.2 27.4,10.1 27.5,10.1 C27.4,10.1 27.4,10.1 27.5,10.1 C27.4,10.1 27.5,10.1 27.5,10.1 Z M27.3,8 C27.3,8.1 26.8,8.2 26.8,8.2 L27.3,8 Z M24.5,15.6 L24.4,15.6 L24.5,15.6 C24.4,15.6 24.5,15.6 24.5,15.6 Z M25.6,14.8 C25.7,14.8 25.6,14.8 25.6,14.8 C25.6,14.9 25.4,15 25.3,15.1 C25.2,15.1 25.2,15.2 25.1,15.2 C25,15.2 25,15.2 24.9,15.3 C24.8,15.4 24.6,15.4 24.5,15.5 L24.3,15.5 C24.3,15.4 24.2,15.3 24.2,15.1 L24.2,14.9 C24.1,14.6 24.1,14.3 24.1,14 C24.1,13.9 24.4,13.7 24.5,13.7 C24.6,13.7 24.8,14 24.9,14.1 C25,14.2 25.2,14.3 25.2,14.4 C25.2,14.5 25.5,14.5 25.5,14.6 C25.5,14.6 25.6,14.7 25.7,14.7 C25.7,14.7 25.7,14.8 25.6,14.8 Z M25.7,14.8 C25.7,14.8 25.7,14.9 25.7,14.8 C25.6,14.8 25.7,14.8 25.7,14.8 Z M25.5,15.4 C25.5,15.4 25.4,15.4 25.5,15.4 C25.4,15.4 25.5,15.4 25.5,15.4 Z M25.5,15 C25.5,15 25.6,15 25.5,15 C25.6,15 25.6,15 25.5,15 Z M25.7,15.3 L25.5,15.4 C25.6,15.4 25.7,15.3 25.7,15.3 Z M26.8,9.5 C26.8,9.5 26.8,9.6 26.7,9.6 C26.7,9.7 26.6,9.7 26.6,9.8 C26.5,10 26.4,10.1 26.3,10.3 C26.2,10.5 26.1,10.8 26,10.9 C25.9,11.1 25.8,11.3 25.7,11.4 C25.5,11.6 25.2,11.8 25.1,11.5 C25.1,11.4 24.9,11 24.9,10.8 L24.9,10.6 L24.9,10.3 C24.9,10.2 25.4,10.1 25.4,10 C25.4,10 25.9,9.7 26.3,9.5 C26.6,9.6 26.8,9.5 26.8,9.5 Z M27.3,16 C27.3,16.1 27.3,16.1 27.3,16 C27.2,16.1 27.3,16 27.3,16 Z M27.8,17 C27.8,17 27.8,17.1 27.8,17 C27.7,17.1 27.7,17 27.8,17 Z M27.7,17.3 C27.6,17.4 27.6,17.1 27.7,17.1 C27.8,17.1 27.7,17.3 27.7,17.3 Z M27.5,10.1 L27.5,10.2 C27.4,10.2 27.4,10.1 27.5,10.1 C27.4,10.1 27.4,10.1 27.5,10.1 C27.4,10.1 27.5,10.1 27.5,10.1 Z M25,10.7 C25,10.7 25,10.8 25,10.7 C24.9,10.7 24.9,10.6 25,10.6 C24.9,10.6 25,10.7 25,10.7 Z M19.6,11 C19.6,11.1 19.6,11.1 19.6,11 C19.6,11.1 19.6,11.1 19.6,11 Z M29.7,11.2 C29.6,11.2 29.6,11.2 29.7,11.2 C29.6,11.2 29.6,11.2 29.7,11.2 Z M29.6,11.2 C29.6,11.2 29.5,11.3 29.6,11.2 C29.5,11.3 29.5,11.3 29.6,11.2 C29.5,11.2 29.6,11.2 29.6,11.2 Z M28.4,11.5 C28.4,11.5 28.5,11.6 28.4,11.5 C28.5,11.5 28.5,11.5 28.4,11.5 Z M26.7,12.3 C26.7,12.3 26.6,12.3 26.7,12.3 C26.6,12.3 26.7,12.3 26.7,12.3 Z M20.3,9.7 C20.3,9.6 20.3,9.6 20.3,9.7 C20.3,9.6 20.3,9.7 20.3,9.7 Z M22.2,5.2 L22.1,5.3 L22.2,5.2 Z M23,7.4 C23,7.4 23,7.5 23,7.4 C23,7.5 23,7.4 23,7.4 Z M25.8,5 C25.8,5 25.7,5.1 25.6,5.1 C25.7,5 25.8,4.9 25.8,5 C25.8,4.9 25.8,5 25.8,5 Z M25.8,5 C25.9,5 25.9,4.9 25.8,5 C26,4.9 25.8,5 25.8,5 Z M25.9,4.7 C25.9,4.8 25.6,5 25.6,5 L25.9,4.7 Z M27.5,4.9 C27.5,5 27.4,5.1 27.4,5 L27.5,4.9 Z M27.3,8 C27.3,8.1 26.8,8.2 26.8,8.2 L27.3,8 Z M27.7,9.6 C27.7,9.6 27.7,9.5 27.7,9.6 C27.8,9.5 27.8,9.6 27.7,9.6 Z M27.9,9.3 C27.8,9.3 27.9,9.2 27.9,9.3 C27.9,9.2 27.9,9.3 27.9,9.3 Z M25.9,4.7 C25.9,4.8 25.6,5 25.6,5 L25.9,4.7 Z M27.5,4.9 C27.5,5 27.4,5.1 27.4,5 L27.5,4.9 Z M25.8,5 C25.9,5 25.9,4.9 25.8,5 C26,4.9 25.8,5 25.8,5 Z M25.8,5 C25.8,5 25.7,5.1 25.6,5.1 C25.7,5 25.8,4.9 25.8,5 C25.8,4.9 25.8,5 25.8,5 Z M22.2,5.2 L22.1,5.3 L22.2,5.2 Z M25.1,5.4 C25.1,5.4 25,5.4 25.1,5.4 C25,5.3 25,5.4 25.1,5.4 C25.1,5.3 25.1,5.4 25.1,5.4 Z M22,5.6 C22,5.6 21.9,5.8 22,5.7 C21.9,5.7 22,5.6 22,5.6 Z M24.3,5.8 C24.3,5.8 24,5.9 24,6 C24.1,6 24.3,5.8 24.3,5.8 Z M24,6 C24,6 24,5.9 24,6 C24,5.9 23.9,5.9 24,6 C23.9,6 24,6 24,6 Z M21.6,6.4 C21.6,6.5 21.6,6.4 21.6,6.4 C21.7,6.4 21.7,6.4 21.6,6.4 Z M21.6,6.5 C21.5,6.5 21.5,6.6 21.5,6.6 C21.6,6.7 21.6,6.5 21.6,6.5 Z M26.5,6.6 C26.6,6.5 26.6,6.5 26.5,6.6 C26.6,6.5 26.6,6.6 26.5,6.6 Z M21.5,6.7 C21.5,6.7 21.3,7.1 21.4,7.1 L21.4,6.9 C21.4,6.9 21.6,6.7 21.5,6.7 Z M21.3,7.2 C21.3,7.2 21.2,7.2 21.3,7.2 C21.3,7.3 21.3,7.2 21.3,7.2 Z M28.7,7.2 C28.7,7.2 28.6,7.3 28.7,7.2 C28.7,7.3 28.7,7.2 28.7,7.2 Z M28.6,7.3 L28.6,7.5 C28.7,7.5 28.7,7.3 28.6,7.3 Z M23,7.4 C23,7.4 23,7.5 23,7.4 C23,7.5 23,7.4 23,7.4 Z M21.1,7.6 C21.1,7.7 21.1,7.7 21.1,7.6 C21.1,7.7 21.1,7.6 21.1,7.6 Z M27.3,8 C27.3,8.1 26.8,8.2 26.8,8.2 L27.3,8 Z M27.9,9.3 C27.8,9.3 27.9,9.2 27.9,9.3 C27.9,9.2 27.9,9.3 27.9,9.3 Z M27.7,9.6 C27.7,9.6 27.7,9.5 27.7,9.6 C27.8,9.5 27.8,9.6 27.7,9.6 Z M19.6,15.1 L19.3,15.7 C19.2,15.8 19.1,16.3 19,16.3 L19.1,16.1 C19,16.1 19,16.2 19,16.4 C19,16.4 18.6,17.2 18.5,17.2 C18.4,17.3 18.4,17.5 18.3,17.6 C18.2,18 18.1,18.1 18,18.3 C18,18.4 17.6,19.1 17.6,19.1 L17.6,19.3 C17.5,19.4 17.5,19.6 17.5,19.6 C17.4,19.6 17.4,19.5 17.4,19.6 L17.3,19.7 C17.3,19.8 16.9,19.9 16.8,20 L16.6,20 L16.5,20 L16.6,20 C16.6,20.1 16.4,19.9 16.4,19.9 C16.4,19.9 16.2,19.8 16.1,19.7 C15.9,19.6 15.7,19.3 15.8,19.1 L15.8,18.8 C15.8,18.9 15.8,18.8 15.8,18.8 L16,19 C16,19 16.1,19 16.1,18.9 C16.1,18.9 16,18.9 16,18.8 C16.1,18.8 16.1,18.9 16.2,18.7 C16.2,18.6 16.3,18.6 16.4,18.5 C16.5,18.3 16.7,18 16.8,17.7 C16.8,17.6 16.8,17.6 16.9,17.5 C17.1,17 17.4,16.4 17.6,15.9 C17.7,15.7 17.8,15.5 17.8,15.4 C17.9,15.3 17.9,15.1 18,15 C18,14.9 18.1,14.8 18.1,14.7 L18.4,14.2 C18.4,14.2 18.5,13.8 18.6,13.8 C18.7,13.6 18.8,13.3 18.9,13.1 C18.9,13 19.1,12.6 19.1,12.6 C19.1,12.6 19.2,12.4 19.2,12.3 C19.2,12.1 19.3,11.9 19.4,11.9 L19.5,11.6 L19.4,11.6 L19.7,11 L19.7,10.9 L19.8,10.8 L19.7,10.8 C19.7,10.8 19.7,10.7 19.8,10.7 C19.9,10.6 20,10.5 20,10.4 C20,10.3 20.2,9.9 20.2,9.9 C20.2,9.8 20.4,9.6 20.4,9.5 C20.4,9.4 20.5,9.4 20.5,9.3 C20.5,9.3 20.6,9.2 20.6,9.1 C20.6,9 20.7,8.9 20.7,8.9 C20.8,8.8 20.8,8.4 21,8.3 C21.2,8 21.3,7.5 21.5,7.2 C21.6,7 21.6,6.9 21.7,6.7 C21.8,6.6 21.9,6.4 21.9,6.2 C21.9,6.2 21.8,6.3 21.8,6.2 L22,5.7 C22,5.8 21.9,6 21.9,6 C21.9,5.9 22.1,5.6 22.2,5.4 C22.2,5.3 22.3,5.2 22.2,5.2 C22.2,5.2 22.2,5.4 22.1,5.4 C22,5.3 22.3,4.9 22.4,4.8 C22.4,4.7 21.8,4.4 21.6,4.3 C21.6,4.3 21.4,4.2 21.3,4 C21,3.8 20.7,3.5 21.1,3.5 C21.9,3.4 22.7,3.1 23.5,2.9 C24.3,2.8 25,2.5 25.7,2.3 C26.1,2.2 26.5,2.1 26.9,2.1 C27.1,2 27.3,2.1 27.4,2.1 C27.5,2.1 27.7,2 27.8,2 C27.9,2.1 28.2,2 28.4,2.1 C28.6,2.3 28.9,2.2 29.1,2.4 C29.3,2.6 29.8,2.8 29.6,3.2 C29.5,3.5 29.4,3.8 29.1,4 L29,4 C28.9,4.1 28.7,4.2 28.6,4.2 C28.6,4.3 28.1,4.6 28.1,4.6 C28.1,4.6 27.9,4.7 27.9,4.6 C27.9,4.5 28,4.5 28,4.4 C28,4.5 27.8,4.5 27.8,4.6 L27.8,4.7 L27.6,4.9 L27.7,5.1 C27.9,5.1 27.8,5.2 27.9,5.3 C28.3,5.5 27.8,5.9 27.6,6 C27.4,6.1 27.2,6.2 26.9,6.3 C26.8,6.3 26.5,6.3 26.4,6.5 C26.3,6.5 26.2,6.7 26.1,6.7 C25.9,6.8 25.8,6.9 25.6,7 C25.2,7.2 24.8,7.3 24.4,7.3 C24.2,7.3 23.8,7.2 23.6,7.1 C23.5,7.1 23.4,7 23.3,7 C23.2,7 23.3,7.2 23.1,7.1 L23.1,7.3 C23.1,7.3 23.1,7.4 23,7.4 C23,7.3 23,7.4 23,7.4 C23,7.4 23,7.5 22.9,7.6 C22.9,7.5 22.8,7.7 22.9,7.6 L22.9,7.8 C22.9,7.9 22.8,8 22.8,8 C22.9,8 22.8,8.1 22.8,8.1 C22.8,8.1 22.8,8.3 22.7,8.4 C22.7,8.4 22.7,8.5 22.6,8.5 C22.6,8.5 22.5,8.5 22.6,8.6 L22.5,8.8 C22.6,8.8 22.4,9.1 22.4,9.1 L22.4,9.2 C22.4,9.3 22.2,9.4 22.2,9.6 C22.2,9.6 22.3,9.4 22.3,9.5 C22.3,9.6 22.2,9.6 22.2,9.6 L22.1,9.7 L22,9.7 L22,10 C22,10 21.9,10.2 21.9,10.3 C22,10.3 21.8,10.5 21.7,10.6 L21.8,10.6 L21.7,10.7 C21.7,10.7 21.6,10.8 21.6,10.9 L21.6,10.8 L21.6,10.9 C21.7,10.8 21.6,11 21.6,11 C21.6,11 21.6,10.9 21.5,10.9 L21.5,11 L21.6,11 L21.4,11.3 L21.4,11.5 C21.4,11.5 21.3,11.7 21.3,11.8 C21.2,12 21.2,12.1 21.1,12.3 C21.1,12.4 21,12.4 21,12.5 C21,12.6 20.9,12.7 20.9,12.7 L20.9,12.8 C20.9,12.9 20.8,12.9 20.8,12.9 C20.7,13 20.7,13.1 20.6,13.3 C20.5,13.4 20.4,13.7 20.4,13.8 C20.4,13.9 20.3,14.1 20.3,14.1 L20.3,14 L20.2,14.3 C19.8,14.5 19.7,15 19.6,15.1 Z M18.3,14.4 C18.3,14.4 18.3,14.3 18.3,14.4 C18.2,14.4 18.2,14.4 18.3,14.4 Z M18.2,14.3 C18.3,14.3 18.3,14.4 18.2,14.3 C18.2,14.4 18.2,14.4 18.2,14.3 Z M18.3,14.4 C18.2,14.4 18.2,14.4 18.3,14.4 C18.3,14.3 18.3,14.4 18.3,14.4 Z M20.2,14 C20.1,13.9 20.1,14 20.2,14 C20.1,14 20.2,14 20.2,14 Z M22.2,5.2 L22.1,5.3 C22.2,5.3 22.2,5.2 22.2,5.2 Z M23,7.4 C23,7.4 23,7.5 23,7.4 C23,7.5 23,7.4 23,7.4 Z M23,7.4 C23.1,7.4 23.1,7.4 23,7.4 C23.1,7.3 23,7.4 23,7.4 Z M26.3,3.5 L26.4,3.5 C26.4,3.4 26.3,3.4 26.3,3.5 Z M25.7,3.8 C25.7,3.8 25.8,3.8 25.7,3.8 C25.8,3.8 25.6,3.8 25.7,3.8 Z M25.9,4.9 C25.9,4.9 25.9,5 25.9,4.9 C25.8,5 25.8,4.9 25.9,4.9 C25.8,4.9 25.7,5.1 25.7,5.1 C25.8,5.1 25.8,5.1 25.9,5 C25.8,5 25.8,5 25.9,4.9 C25.8,5 26,4.9 25.9,4.9 Z M25.9,4.7 L25.6,5 C25.7,5 25.9,4.8 25.9,4.7 Z M26.4,4.2 C26.4,4.2 26.4,4.3 26.4,4.2 C26.4,4.3 26.4,4.3 26.4,4.2 Z M26.5,4.1 C26.5,4.1 26.5,4.2 26.5,4.1 C26.5,4.2 26.5,4.1 26.5,4.1 Z M26.7,4 L26.6,4.1 L26.7,4 Z M27.2,3.3 C27.2,3.3 26.8,3.3 26.8,3.4 C26.7,3.5 26.5,3.4 26.4,3.5 L26.2,3.6 C26.2,3.6 26.1,3.5 26.1,3.6 C26,3.7 26.2,3.7 26.2,3.7 C26.2,3.7 25.5,4 25.4,4 L25.2,4.2 C25,4.3 24.7,4.4 24.5,4.5 C24.4,4.6 24.5,4.7 24.5,4.8 C24.6,5 24.5,5.1 24.4,5.3 C24.4,5.4 24.2,5.7 24.1,5.7 C24.1,5.8 23.9,5.8 23.9,6 L24.2,6 C24.3,6 24.4,5.9 24.5,5.8 C24.6,5.7 24.8,5.7 24.9,5.6 C24.9,5.6 25.1,5.5 25.1,5.4 C24.9,5.5 24.4,5.8 24.4,5.8 C24.4,5.8 24.8,5.5 24.9,5.4 C24.9,5.4 24.9,5.5 24.9,5.4 L25,5.3 L25.1,5.2 L25.1,5.3 C25.5,5 25.8,4.6 26.2,4.3 C26.3,4.2 26.4,4 26.6,3.9 C26.8,3.7 27.1,3.5 27.2,3.3 Z M27.5,4.9 L27.4,5 C27.4,5 27.5,5 27.5,4.9 Z M28.2,4.7 C28.2,4.7 28.1,4.7 28.1,4.8 C28.1,4.7 28.1,4.7 28.2,4.7 C28.1,4.7 28.2,4.7 28.2,4.7 Z M20.2,14 C20.2,14 20.1,14 20.2,14 C20.1,14 20.1,13.9 20.2,14 Z M22.2,5.2 L22.1,5.3 L22.2,5.2 Z M23,7.4 C23,7.4 23,7.5 23,7.4 C23,7.5 23,7.4 23,7.4 Z M25.8,3.8 C25.8,3.8 25.7,3.8 25.8,3.8 C25.6,3.8 25.8,3.8 25.8,3.8 Z M25.8,5 C25.8,5.1 25.7,5.1 25.6,5.1 C25.7,5 25.8,4.9 25.8,5 C25.8,4.9 25.8,5 25.8,5 C25.9,5 25.9,4.9 25.8,5 C26,4.9 25.8,5 25.8,5 Z M25.9,4.7 C25.9,4.8 25.6,5 25.6,5 L25.9,4.7 Z M26.4,4.2 C26.4,4.3 26.4,4.3 26.4,4.2 C26.4,4.3 26.4,4.2 26.4,4.2 Z M26.5,3.4 C26.5,3.4 26.4,3.5 26.4,3.4 L26.5,3.4 Z M26.7,3.4 L26.5,3.4 L26.7,3.4 Z M26.5,4.1 C26.5,4.1 26.5,4.2 26.5,4.1 C26.5,4.2 26.5,4.1 26.5,4.1 Z M26.7,4 L26.6,4.1 C26.6,4 26.6,4 26.7,4 Z M27.2,3.3 C27.2,3.5 26.9,3.7 26.8,3.8 C26.7,3.9 26.6,4.1 26.4,4.2 C26,4.5 25.7,4.9 25.3,5.2 L25.3,5.1 C25.3,5.1 25.2,5.1 25.2,5.2 L25.1,5.3 C25,5.4 24.6,5.6 24.6,5.7 C24.6,5.7 25.1,5.4 25.3,5.3 C25.2,5.3 25.1,5.4 25.1,5.5 C25,5.6 24.8,5.6 24.7,5.7 C24.6,5.8 24.5,5.8 24.4,5.9 L24.1,5.9 C24.1,5.8 24.3,5.7 24.3,5.6 C24.4,5.6 24.5,5.3 24.6,5.2 C24.7,5 24.8,4.9 24.7,4.7 C24.7,4.6 24.6,4.4 24.7,4.4 C24.9,4.3 25.2,4.2 25.4,4.1 C25.5,4.1 25.6,4 25.6,3.9 C25.7,3.9 26.4,3.6 26.4,3.6 C26.4,3.6 26.2,3.6 26.3,3.5 C26.3,3.4 26.4,3.5 26.4,3.5 L26.6,3.4 C26.7,3.3 26.9,3.4 27,3.3 C26.8,3.4 27.1,3.3 27.2,3.3 Z M27.5,4.9 C27.5,5 27.4,5.1 27.4,5 L27.5,4.9 Z M28.2,4.7 C28.2,4.7 28.1,4.7 28.2,4.7 L28.1,4.8 C28.1,4.7 28.2,4.7 28.2,4.7 Z M20.2,14 C20.2,14 20.1,14 20.2,14 C20.1,14 20.1,13.9 20.2,14 Z M22.2,5.2 L22.1,5.3 L22.2,5.2 Z M23,7.4 C23,7.4 23,7.5 23,7.4 C23,7.5 23,7.4 23,7.4 Z M26.7,3.4 L26.5,3.4 L26.7,3.4 Z M26.5,3.4 C26.5,3.4 26.4,3.5 26.4,3.4 L26.5,3.4 Z M25.8,3.8 C25.8,3.8 25.7,3.8 25.8,3.8 C25.6,3.8 25.8,3.8 25.8,3.8 Z M25.8,5 C25.8,5.1 25.7,5.1 25.6,5.1 C25.7,5 25.8,4.9 25.8,5 C25.8,4.9 25.8,5 25.8,5 C25.9,5 25.9,4.9 25.8,5 C26,4.9 25.8,5 25.8,5 Z M25.9,4.7 C25.9,4.8 25.6,5 25.6,5 L25.9,4.7 Z M26.4,4.2 C26.4,4.3 26.4,4.3 26.4,4.2 C26.4,4.3 26.4,4.2 26.4,4.2 Z M26.5,4.1 C26.5,4.1 26.5,4.2 26.5,4.1 C26.5,4.2 26.5,4.1 26.5,4.1 Z M26.7,4 L26.6,4.1 C26.6,4 26.6,4 26.7,4 Z M27.2,3.3 C27.2,3.5 26.9,3.7 26.8,3.8 C26.7,3.9 26.6,4.1 26.4,4.2 C26,4.5 25.7,4.9 25.3,5.2 L25.3,5.1 C25.3,5.1 25.2,5.1 25.2,5.2 L25.1,5.3 C25,5.4 24.6,5.6 24.6,5.7 C24.6,5.7 25.1,5.4 25.3,5.3 C25.2,5.3 25.1,5.4 25.1,5.5 C25,5.6 24.8,5.6 24.7,5.7 C24.6,5.8 24.5,5.8 24.4,5.9 L24.1,5.9 C24.1,5.8 24.3,5.7 24.3,5.6 C24.4,5.6 24.5,5.3 24.6,5.2 C24.7,5 24.8,4.9 24.7,4.7 C24.7,4.6 24.6,4.4 24.7,4.4 C24.9,4.3 25.2,4.2 25.4,4.1 C25.5,4.1 25.6,4 25.6,3.9 C25.7,3.9 26.4,3.6 26.4,3.6 C26.4,3.6 26.2,3.6 26.3,3.5 C26.3,3.4 26.4,3.5 26.4,3.5 L26.6,3.4 C26.7,3.3 26.9,3.4 27,3.3 C26.8,3.4 27.1,3.3 27.2,3.3 Z M27.5,4.9 C27.5,5 27.4,5.1 27.4,5 L27.5,4.9 Z M28.2,4.7 C28.2,4.7 28.1,4.7 28.2,4.7 L28.1,4.8 C28.1,4.7 28.2,4.7 28.2,4.7 Z M25.8,3.8 C25.8,3.8 25.7,3.8 25.8,3.8 C25.6,3.8 25.8,3.8 25.8,3.8 Z M26.5,3.4 C26.5,3.4 26.4,3.5 26.4,3.4 L26.5,3.4 Z M26.7,3.4 L26.5,3.4 L26.7,3.4 Z M26.5,4.1 C26.5,4.1 26.5,4.2 26.5,4.1 C26.5,4.2 26.5,4.1 26.5,4.1 Z M26.7,4 L26.6,4.1 C26.6,4 26.6,4 26.7,4 Z M26.7,3.4 L26.5,3.4 L26.7,3.4 Z M26.5,3.4 C26.5,3.4 26.4,3.5 26.4,3.4 L26.5,3.4 Z M25.8,3.8 C25.8,3.8 25.7,3.8 25.8,3.8 C25.6,3.8 25.8,3.8 25.8,3.8 Z M26.7,4 L26.6,4.1 C26.6,4 26.6,4 26.7,4 Z M26.5,4.1 C26.5,4.1 26.5,4.2 26.5,4.1 C26.5,4.2 26.5,4.1 26.5,4.1 Z" id="Shape" fill="#FFFFFF"></path>
        <path d="M38.9,13.9 L38.8,14 C38.9,14 39,13.9 38.9,13.9 Z M39,13.8 C39,13.7 39,13.8 39,13.8 C39,13.9 39.2,13.7 39.1,13.6 C39.1,13.6 39,13.7 39,13.8 Z M38.9,11.3 C38.9,11.4 38.8,11.4 38.9,11.3 C38.8,11.5 39,11.4 38.9,11.3 Z M39.1,10.9 C39.1,10.9 39,11 39,11.1 C39.1,11.1 39.2,10.9 39.1,10.9 Z M39.3,10.7 C39.3,10.7 39.1,10.9 39.2,10.9 L39.3,10.7 Z M39,11.3 L39,11.2 L38.9,11.3 L39,11.3 Z M43.6,16.4 C43.6,16.4 43.6,16.5 43.6,16.4 C43.6,16.5 43.7,16.4 43.6,16.4 Z M40.5,8.4 C40.5,8.5 40.5,8.5 40.5,8.4 C40.5,8.5 40.6,8.4 40.5,8.4 Z M45.6,17.3 C45.6,17.4 45.5,17.4 45.6,17.3 C45.6,17.4 45.7,17.3 45.6,17.3 Z M39.5,12.9 C39.5,13 39.5,13 39.5,12.9 C39.5,13.1 39.6,13 39.5,12.9 Z M39.3,13.4 C39.3,13.4 39.3,13.3 39.3,13.4 C39.3,13.3 39.3,13.3 39.3,13.4 Z M51.6,7.1 C51.7,7 51.6,7 51.6,7 L51.6,7.1 Z M57.1,17 C57,17 57,17 57.1,17 C57,17 56.8,17.2 56.7,17.2 C56.6,17.2 56.5,17.3 56.5,17.3 C56.5,17.2 56,17.7 56,17.7 C56,17.7 55.8,17.9 55.7,17.9 L55.2,17.9 C54.9,17.9 54.7,17.8 54.4,17.9 C54.2,17.9 54,17.8 53.9,17.8 L53.5,17.8 C53.2,17.7 52.9,17.8 52.6,17.6 C52.5,17.5 52.4,17.3 52.2,17.3 C52.1,17.3 51.9,17 51.8,16.9 C51.7,16.9 51.4,17.8 51.3,18.1 C51.4,18 51.4,17.9 51.5,17.9 C51.5,18 51.6,18.1 51.5,18.1 C51.5,18.2 51.4,18.4 51.4,18.4 L51.4,18.5 C51.4,18.6 51.3,18.7 51.3,18.7 C51.3,18.7 51.3,18.8 51.2,18.9 C51.2,19 51.1,19 51.1,18.9 L51,18.8 C50.9,18.9 51.1,18.9 51,18.9 L50.9,18.9 C51,19 50.4,19.6 50.3,19.5 C50.3,19.5 50.2,19.7 50.1,19.7 C50,19.9 49.9,20 49.7,20 L49.1,20.3 L48.9,20.3 L48.8,20.4 C48.7,20.5 48.7,20.5 48.6,20.5 C48.3,20.5 48.1,20.4 47.9,20.3 C47.8,20.3 47.5,19.9 47.4,19.9 C47.4,20.1 47.6,20.1 47.6,20.3 L47.6,20.4 C47.5,20.4 47.3,19.9 47.2,19.8 C47,19.4 47,19 46.9,18.6 L46.9,18.4 C46.9,18.1 46.9,17.8 46.8,17.5 C46.7,17.3 46.7,16.9 46.7,16.6 L46.7,16.3 L46.7,15.2 C46.7,15.2 46.7,15.3 46.7,15.2 L46.7,14.3 C46.7,14.1 46.6,13.9 46.5,13.7 C46.4,13.5 46.3,13.4 46.1,13.2 C46.1,13.2 45.9,13 45.9,12.9 L46,12.9 L45.9,12.8 C45.9,12.8 45.8,12.8 45.8,12.7 L45.9,12.7 C45.9,12.7 45.8,12.7 45.8,12.6 L45.9,12.6 L45.8,12.5 C45.8,12.4 46.2,12.6 46.2,12.6 C46.2,12.5 45.9,12.4 45.9,12.3 C46.1,12.2 46.7,12.7 46.7,12.4 L46.7,12.1 L46.7,11.7 C46.7,11.4 46.7,11.2 46.8,10.9 C46.8,10.4 46.8,9.9 46.9,9.4 C46.9,9.2 46.9,9 47,8.8 C47.1,8.5 47.1,8.1 47.1,7.8 C47.1,7.6 47.2,7.2 47.2,7.1 C47,7 47.4,6.8 47,6.6 C46.9,6.5 46.3,6.3 46.3,6 L46.5,6 C46.6,5.9 46.7,5.8 46.8,5.8 C46.9,5.7 47.1,5.6 47.3,5.6 C47.8,5.3 48.2,5.1 48.7,4.8 C49,4.6 49.3,4.5 49.6,4.3 C49.7,4.2 49.8,4.1 49.9,4.1 C50,4.1 50.2,4 50.3,4 C50.4,3.8 51.1,4.2 51.2,4.2 C51.3,4.1 51.5,4.4 51.6,4.4 C51.8,4.5 51.8,4.7 51.8,5 C51.8,5.1 51.8,5.3 51.7,5.4 C51.6,5.6 51.6,5.8 51.5,6.1 C51.4,6.3 51.4,6.6 51.5,6.8 L51.5,7.1 C51.4,7.1 51.3,7.4 51.4,7.4 C51.4,7.3 51.4,7.4 51.5,7.4 L51.5,7.6 C51.5,7.6 51.4,7.7 51.4,7.8 L51.4,8.3 C51.4,8.5 51.5,8.4 51.4,8.6 C51.3,8.6 51.4,8.8 51.4,8.8 L51.4,9.2 C51.4,9.2 51.4,9.5 51.3,9.5 C51.2,9.4 51.3,9 51.3,8.8 L51.3,8.1 C51.3,8.1 51.1,9.5 51.1,9.6 L51.1,11 C51.1,11 51.1,11.1 51.1,11 L51.1,11.2 C51.2,11.3 51,11.9 50.9,11.9 C50.9,11.9 51.1,11 51,11 C51,11 50.9,11.7 50.9,11.8 C50.9,12.1 50.5,12.1 50.3,12.2 L50.1,12.4 C50,12.5 49.9,12.4 49.9,12.5 C49.8,12.5 49.8,12.6 49.7,12.6 L49.5,12.8 C49.4,12.9 49.1,13.1 49,13.1 C49,13.1 48.9,13.2 48.8,13.2 C48.9,13.1 48.6,13.2 48.6,13.2 L48.2,13.2 L48.7,13.4 C48.9,13.5 49.2,13.6 49.4,13.7 C49.6,13.8 49.8,13.8 50,13.8 C50.1,13.8 50.5,13.4 50.5,13.4 C50.8,13.1 51.1,12.9 51.4,12.6 L51.7,12.3 C51.7,12.2 51.8,12.2 51.8,12.1 C51.8,12.1 51.9,12.1 52,12 C52.2,11.9 51.9,11.8 52.2,11.8 C52.2,11.7 52.1,11.7 52.1,11.7 C52,11.4 52.4,11.3 52.6,11.4 C52.9,11.6 53.3,11.9 53.4,12.2 L53.4,12.7 C53.3,13 53,13.2 52.8,13.4 C52.7,13.5 52.5,13.8 52.3,13.8 C52.3,13.7 52,14 52,14 C52,14 52.2,13.8 52.1,13.8 C52,13.8 51.4,14.2 51.4,14.2 C51.3,14.2 51.4,14.1 51.4,14.1 C51.4,14.1 51.2,14.2 51.3,14.2 C51.3,14.3 51.5,14.3 51.7,14.4 C51.8,14.4 51.8,14.4 51.8,14.5 C51.9,14.6 52.1,14.6 52.2,14.7 C52.3,14.8 52.6,15 52.8,15 C52.9,15.1 53.2,15.2 53.4,15.3 C53.6,15.4 53.8,15.4 53.9,15.5 C54.1,15.5 54.2,15.6 54.4,15.6 C54.6,15.7 54.8,15.6 55,15.7 C55.1,15.8 55.3,15.8 55.5,15.8 C55.6,15.8 55.7,15.9 55.7,15.9 C55.8,15.9 56,16.1 56.1,16.1 C56.2,16 56.2,16.1 56.3,16.2 L56.5,16.4 C56.8,16.5 57.1,16.8 57.1,17 Z M51.6,7.4 C51.6,7.4 51.5,7.4 51.6,7.4 C51.5,7.3 51.5,7.4 51.6,7.4 Z M51.4,7.9 C51.4,7.9 51.5,7.6 51.4,7.5 C51.5,7.6 51.4,7.8 51.4,7.9 Z M51.2,9.9 C51.3,9.9 51.3,9.8 51.2,9.7 L51.2,9.9 Z M51.2,11.1 L51.2,10.9 L51.2,11.1 Z M46.7,15.1 Z M47.9,7.2 C47.9,7.4 48.2,7.4 48.1,7.6 C48.1,7.7 48.2,7.7 48.2,7.8 L48.2,8 C48.4,8 48.8,7.7 48.9,7.7 C49.1,7.7 49.3,7.6 49.4,7.7 L49.5,7.8 C49.6,7.8 49.5,7 49.6,6.9 C49.7,6.7 49.6,6.3 49.7,6.1 C49.7,6 49.6,6.2 49.6,6.2 L49.3,6.4 L49.1,6.5 C49,6.7 48.7,6.6 48.6,6.7 C48.4,6.8 48.1,6.9 47.9,6.8 C47.5,6.7 47.9,7.2 47.9,7.2 Z M49,9.6 C49.1,9.6 49.1,9.6 49.2,9.7 C49.3,9.7 49.4,9.8 49.4,9.8 L49.4,9.7 L49.4,9.5 C49.4,9.4 49,9.5 49,9.6 Z M47.5,11.8 L47.6,11.7 C47.7,11.9 47.7,11.9 48,11.9 C48.1,11.9 48.3,11.8 48.4,11.7 C48.6,11.6 48.7,11.4 48.9,11.3 C49,11.3 49.1,11 49.2,11 C49.2,11 49.5,10.5 49.5,10.4 C49.5,10.2 49.4,10.1 49.3,10 L49.2,10 C49.2,10 49.1,9.9 49,9.9 L49.1,9.9 C49,9.9 49,9.9 48.9,9.8 L49,9.8 C48.9,9.7 48.8,9.7 48.8,9.6 L48.7,9.6 C48.5,9.5 48.3,9.6 48.1,9.5 C47.8,9.3 47.8,9.4 47.7,9.6 C47.7,9.7 47.7,9.9 47.6,10 C47.7,10.1 47.5,10.8 47.6,10.9 C47.6,11.2 47.4,11.5 47.5,11.8 Z M47.6,12.5 C47.5,12.4 47.5,12.5 47.5,12.6 C47.5,12.7 47.5,12.8 47.6,12.9 C47.7,12.9 47.8,13 47.9,13 C47.9,12.8 47.7,12.5 47.6,12.5 Z M47.6,17.6 L47.6,17.5 L47.6,17.6 Z M47.7,17.9 L47.7,17.8 C47.6,17.7 47.7,17.9 47.7,17.9 Z M47.7,18.2 L47.7,18.1 L47.7,18.2 Z M50.3,16.1 C50.3,16 50.2,16 50.1,15.9 C49.8,15.7 49.4,15.6 49,15.4 C48.7,15.3 48.3,15 48.1,15 C48,15 47.6,14.9 47.6,15 C47.6,15 47.7,15.1 47.6,15.1 L47.6,15 C47.6,15 47.6,15.5 47.5,15.7 C47.6,15.7 47.5,15.9 47.5,16 L47.5,16.7 C47.5,16.8 47.5,17.4 47.6,17.5 L47.6,16.8 L47.6,16.5 L47.6,16.1 C47.6,16 47.5,15.2 47.6,15.1 L47.6,16.4 C47.5,16.4 47.6,16.9 47.6,16.9 C47.6,17.4 47.6,17.9 48,18.3 L48.1,18.4 C48.3,18.6 48.4,18.5 48.6,18.3 L48.7,18.3 C48.8,18.3 48.9,18 49,18.1 C48.8,18 49.2,17.8 49.2,17.8 L49.2,17.7 L49.2,17.6 C49.2,17.6 49.3,17.7 49.3,17.6 L49.2,17.6 C49.3,17.5 49.3,17.5 49.4,17.5 L49.4,17.6 C49.5,17.6 49.5,17.5 49.5,17.4 C49.6,17.3 49.8,17 49.8,17 L49.8,17.1 C49.9,17.1 49.9,16.7 50,16.7 L50.1,16.7 C50.1,16.7 50.1,16.5 50.2,16.5 L50.1,16.7 C50.2,16.8 50.2,16.5 50.2,16.4 C50.2,16.4 50.3,16.2 50.3,16.1 Z M51.1,18.3 C51.1,18.3 51,18.3 51,18.4 L51,18.6 L51.1,18.5 L51.1,18.3 Z M51.2,18.2 C51.2,18.2 51.3,18.2 51.2,18.2 Z M51.4,16.9 C51.4,16.9 51.5,16.9 51.4,16.9 C51.5,16.9 51.5,16.9 51.4,16.9 C51.4,16.8 51.4,16.9 51.4,16.9 Z M51.5,17.4 C51.5,17.4 51.4,17.4 51.5,17.4 C51.4,17.4 51.4,17.4 51.5,17.4 C51.4,17.4 51.5,17.5 51.5,17.4 Z M51.5,17.2 C51.4,17.2 51.5,17.3 51.5,17.2 C51.5,17.3 51.5,17.2 51.5,17.2 Z M51.5,17 C51.5,16.9 51.5,17 51.5,17 C51.5,17 51.6,17 51.5,17 Z M51.6,7.8 C51.5,7.8 51.5,8.1 51.5,8.2 C51.6,8 51.5,7.9 51.6,7.8 C51.6,7.9 51.6,7.9 51.6,7.8 Z M51.3,9.6 L51.3,9.7 C51.4,9.7 51.4,9.7 51.3,9.6 Z M51.6,7.5 L51.5,7.6 C51.6,7.6 51.5,7.6 51.5,7.6 C51.5,7.5 51.6,7.6 51.6,7.5 Z M51.8,14.1 C51.8,14.1 52,14 51.9,14 L51.8,14.1 Z M51.4,10 C51.4,10 51.3,10.2 51.4,10.2 L51.4,10 Z M39.4,13.1 C39.4,13.1 39.4,13.2 39.4,13.1 C39.4,13.2 39.5,13.1 39.4,13.1 Z M41.4,16.4 C41.3,16.6 41.3,16.8 41.2,16.8 C41.1,16.9 41,17.1 41,17.1 C41,17.2 40.7,17.4 40.6,17.4 L40.3,17.7 C40.3,17.7 40.1,17.8 40.2,17.9 C40.2,18 40.1,18 40.1,18 C40,18.2 40,18 39.8,18 C39.8,18 39.6,18.1 39.6,18 C39.6,17.9 39.7,18.1 39.8,18 C39.5,17.8 39.4,17.5 39.3,17.1 C39.3,16.9 39.4,16.6 39.6,16.5 L39.7,16.4 C39.8,16.2 40,16 40.1,15.9 C40.2,16 40.2,16.3 40.2,16.4 C40.2,16.4 40.2,16.5 40.3,16.5 C40.3,16.5 40.4,16.5 40.5,16.4 L40.7,16.4 L40.5,16.4 C40.8,16.2 41.2,15.8 41.3,15.8 C41.5,15.6 42.3,15.2 42.3,14.9 C42.3,14.7 42.4,14.4 42.1,14.6 C42,14.6 42.1,14.5 41.9,14.6 C41.8,14.7 41.7,14.7 41.6,14.7 C41.5,14.7 41.5,14.6 41.5,14.6 L41.2,14.6 C41,14.6 40.8,14.4 40.7,14.2 C40.5,13.7 40.8,13.2 41.1,12.7 C41.2,12.5 41.3,12.3 41.5,12.2 C41.7,11.9 41.9,11.6 42,11.3 C42.1,10.8 42,10.7 41.7,10.3 C41.6,10.2 41.5,10 41.5,10 C41.5,10 41.3,9.6 41.2,9.8 C41.3,9.8 41.1,10.1 41,10.1 C40.9,10.1 40.8,10.5 40.8,10.4 C40.7,10.5 40.6,10.6 40.6,10.7 L40.6,10.9 C40.6,10.9 40.5,10.9 40.5,11 L40.5,11.1 L40.4,11.2 C40.3,11.3 40.3,11.3 40.4,11.3 C40.3,11.3 40.3,11.3 40.3,11.4 C40.3,11.4 40.3,11.7 40.1,11.7 L40.1,11.8 C40.1,11.8 39.9,11.8 40,11.9 L40,12 C40,12 40,12.1 39.9,12.1 C39.9,12.1 40,12.1 39.9,12 C39.8,12 39.9,12.1 39.8,12.2 C39.7,12.2 39.7,12.3 39.7,12.3 L39.5,12.6 C39.3,12.6 39.2,13.2 39.1,13.2 C39.1,13.2 38.8,13.7 38.8,13.8 L38.9,13.7 C38.9,13.8 38.7,13.9 38.7,14 L38.7,14.1 L38.4,14.1 L38.7,14.1 C38.6,14.2 38.5,14.1 38.5,14.2 L38.6,14.2 C38.6,14.2 38.1,14.7 38.1,14.8 L38.2,14.8 C38.2,14.8 37.5,15.4 37.4,15.4 L37.4,15.3 C37.2,15.3 37.1,15.4 36.9,15.4 C36.8,15.4 36.4,15.4 36.4,15.5 C36.3,15.5 36.3,15.4 36.2,15.4 L36.1,15.5 L36.1,15.4 C36,15.4 36.1,15.5 36,15.5 L36,15.4 C36,15.4 36,15.5 35.9,15.5 C35.9,15.3 35.9,15.1 36,14.9 C36,14.8 36.1,14.9 36.1,14.9 C36.2,14.9 36.2,14.8 36.2,14.8 L36.4,14.6 C36.5,14.7 36.5,14.4 36.6,14.4 C36.6,14.4 36.7,14.5 36.7,14.4 C36.7,14.3 36.7,14.3 36.8,14.3 L36.8,14.2 L37.1,13.9 L37.2,13.8 L37.3,13.7 C37.2,13.7 37.3,13.6 37.4,13.5 C37.5,13.5 37.5,13.4 37.5,13.4 C37.5,13.4 37.4,13.5 37.4,13.4 L37.5,13.3 L37.4,13.4 C37.4,13.4 37.5,13.1 37.5,13.3 L37.5,13.2 C37.5,13.2 37.7,13.1 37.7,13 C37.6,13 37.6,13.1 37.6,13.1 L37.6,13 L37.6,13.1 C37.6,13.1 37.7,13.1 37.6,13.1 C37.6,13.1 37.9,13 37.8,12.9 L37.7,13 L37.7,12.9 C37.7,12.8 37.8,12.8 37.8,12.8 C37.8,12.8 37.7,12.7 37.8,12.7 C37.8,12.8 37.8,12.7 37.9,12.7 C37.9,12.7 37.8,12.7 37.9,12.8 L38,12.6 L37.8,12.6 C37.8,12.6 37.8,12.5 37.9,12.5 L37.9,12.6 C37.9,12.5 38,12.6 38.1,12.5 C38.2,12.4 38.2,12.3 38.2,12.2 L38.5,12.2 L38.2,12.2 C38.3,12.2 38.4,12 38.5,11.9 C38.5,11.9 38.4,11.9 38.4,12 L38.3,11.9 C38.4,11.8 38.5,11.9 38.5,11.8 C38.6,11.7 38.8,11.4 38.7,11.4 C38.7,11.3 39.1,11.1 38.9,11 C38.9,11 39.1,10.9 39,10.8 L38.9,10.8 C38.9,10.8 39.1,10.6 39.1,10.5 C39.1,10.5 39.2,10.4 39.1,10.4 C39.1,10.3 39.1,10.3 39.2,10.3 C39.2,10.3 39.1,10.4 39.2,10.4 L39.4,10.2 L39.3,10.3 C39.2,10.2 39.4,10.2 39.4,10.2 L39.3,10.2 C39.3,10.1 39.6,9.6 39.7,9.5 L39.7,9.4 C39.8,9.4 39.9,8.8 40,8.8 C40,8.7 40.1,8.4 40.3,8.4 C40.4,8.4 40.5,8.1 40.5,8.1 C40.5,8.1 40.4,8.3 40.3,8.4 C40.3,8.2 40.7,7.6 40.7,7.5 C40.8,7.5 41,7 41,6.9 C41.1,6.7 41.2,6.4 41.3,6.3 C41.8,5.5 41.9,4.6 42.3,3.8 C42.5,3.4 42.6,3 42.6,2.6 C42.6,2.1 43.1,2.3 43.3,2.4 C43.4,2.5 43.7,2.7 43.8,2.8 C44,2.9 44,3.2 44.1,3.4 C44.3,3.8 43.9,4.2 43.9,4.5 L44.4,4.5 C44.5,4.4 44.9,4.6 45,4.7 C45.2,4.8 45.7,5 45.7,5.3 L45.8,5.5 L45.9,5.7 C46,5.7 46,6 46,6.1 C46,6.3 46.1,6.4 46,6.6 C46,6.7 45.8,7.2 45.7,7.2 C45.6,7.2 45.5,7.3 45.4,7.3 C45.3,7.4 45.1,7.3 45,7.3 C44.9,7.3 44.7,7.1 44.6,7.1 C44.5,7.1 44.2,6.9 44.1,6.9 L43.8,6.6 C43.7,6.6 43.6,6.4 43.5,6.3 C43.3,6.2 43.4,5.8 43.2,6.1 L43.1,6.2 C43,6.3 43,6.4 43,6.4 C43,6.4 42.9,6.4 42.9,6.5 L42.7,6.9 C42.6,7.1 42.4,7.4 42.3,7.6 C42.3,7.7 42.2,7.8 42.1,7.9 L41.9,8.2 C42,8.2 41.9,8.3 41.9,8.3 C41.9,8.4 41.8,8.5 41.8,8.5 C42.1,8.5 42.4,8.2 42.7,8.2 C43,8.2 43.2,7.9 43.5,7.9 C43.6,7.9 43.7,7.8 43.8,7.8 L44.3,7.8 C44.6,7.9 44.7,8.2 44.8,8.5 L44.8,8.8 C44.8,9 44.9,9.1 44.8,9.2 C44.8,9.3 44.7,9.3 44.7,9.4 C44.6,9.5 44.6,9.6 44.5,9.7 C44.4,9.8 44.3,10 44.2,10.2 C44.1,10.4 43.8,10.5 43.8,10.8 C43.9,10.8 44.2,10.7 44.3,10.7 C44.6,10.6 44.5,10.9 44.7,11 C44.8,11 44.9,11.4 44.9,11.4 C45,11.4 45.1,11.9 45.1,11.9 C45.1,11.9 45,11.9 45,12 C45.1,12 45.1,12.1 45,12.1 L44.9,12.1 C44.8,12.1 44.8,12.3 44.8,12.4 C44.8,12.4 44.7,12.3 44.7,12.4 L44.7,12.5 L44.6,12.5 C44.6,12.6 44.7,12.5 44.7,12.5 L44.7,12.6 L44.6,12.6 L44.6,12.5 L44.5,12.7 L44.5,12.6 L44.4,12.6 L44.5,12.6 C44.5,12.7 44.5,12.7 44.4,12.7 L44.4,12.6 L44.4,12.7 C44.3,12.7 44.4,12.7 44.4,12.8 C44.4,12.9 44.3,13 44.3,12.9 C44.3,12.9 44.1,13.2 44.1,13.1 L43.8,13.3 C43.7,13.4 43.4,13.6 43.5,13.8 C43.6,13.9 44.2,13.3 44.3,13.3 C44.7,13.2 45.2,13.2 45.4,13.6 C45.5,13.7 45.5,13.8 45.5,13.9 C45.5,14.1 45.3,14.3 45.1,14.5 C44.9,14.8 44.7,15.1 44.4,15.2 C44.4,15.3 44.5,15.2 44.5,15.2 C44.5,15.2 44.4,15.4 44.3,15.4 C44.3,15.4 44.3,15.3 44.3,15.4 L44.2,15.5 C44.2,15.6 44,15.8 43.8,15.8 L43.6,16 L43.5,16 L43.5,15.9 L43.5,15.8 L43.6,15.8 L43.5,15.8 L43.5,15.7 C43.5,15.7 43.4,15.7 43.4,15.8 L43.5,15.8 L43.4,15.8 L43.2,16 L43.2,16.2 C43.2,16.3 43.1,16.6 43.3,16.6 C43.4,16.6 43.6,16.4 43.6,16.3 L43.9,16 C44,15.9 44.1,15.9 44.2,15.8 C44.3,15.7 44.5,15.5 44.6,15.5 C45,16 45.2,15.8 45.4,15.6 C45.5,15.5 45.8,15.3 45.8,15.2 C45.9,15.2 45.9,15 46,15 L46,15.1 C46,15.2 45.9,15.3 45.9,15.3 L46,15.2 L46,15.4 C45.9,15.5 45.9,15.6 45.9,15.6 C46,15.7 45.7,15.9 45.8,16 C45.9,16 45.9,15.9 45.9,15.8 C46,16 45.8,16.2 45.7,16.4 L45.5,16.4 L45.7,16.4 C45.6,16.5 45.5,16.7 45.5,16.8 C45.6,16.8 45.6,16.5 45.7,16.5 L45.7,16.7 L45.8,16.6 C45.8,16.8 45.6,16.9 45.6,17.1 L45.7,17 C45.7,17.1 45.6,17.4 45.6,17.4 C45.7,17.5 45.5,17.7 45.5,17.7 C45.4,17.7 45.3,17.9 45.2,18 C45.2,17.9 45,18.1 45,18.2 L44.9,18.3 C44.7,18.5 44.4,18.7 44.2,18.8 C43.9,18.9 42.2,19.9 42.1,19.5 C42.1,19.6 41.6,19.4 41.6,19.4 C41.1,19.5 41,19 41,18.8 C41,18.7 41,18.5 41.1,18.4 C41.2,18.1 41.5,17.8 41.7,17.5 C41.9,17.2 42.3,16.8 42.5,16.4 C42.6,16.2 42.6,16 42.6,15.9 C42.6,15.3 42,16.2 41.8,16.2 C41.6,16.2 41.5,16.3 41.4,16.4 Z M43.4,16.5 C43.4,16.5 43.4,16.4 43.4,16.5 C43.4,16.4 43.4,16.5 43.4,16.5 Z M36.5,15.1 C36.5,15.1 36.4,15.1 36.5,15.1 C36.4,15.2 36.5,15.1 36.5,15.1 Z M36.6,15.7 L36.5,15.7 L36.6,15.7 Z M36.8,14.7 L36.7,14.8 L36.8,14.7 Z M37.6,15.6 C37.6,15.6 37.5,15.6 37.6,15.6 C37.5,15.7 37.6,15.6 37.6,15.6 Z M37.8,13.5 C37.7,13.4 37.7,13.5 37.8,13.5 C37.7,13.5 37.8,13.5 37.8,13.5 Z M38.1,12.9 C38.1,12.8 38,12.9 38.1,12.9 C38.1,13 38.1,12.9 38.1,12.9 Z M42,18 C42,18 41.9,18 42,18 C41.9,18 42,18 42,18 Z M42.6,17.7 C42.5,17.7 42.5,17.7 42.6,17.7 C42.5,17.6 42.2,17.8 42.2,17.9 C42.2,18 42.6,17.8 42.6,17.7 Z M45.4,17.6 L45.3,17.7 C45.3,17.8 45.4,17.7 45.4,17.6 Z M45.8,16.1 C45.8,16.1 45.7,16.2 45.8,16.1 C45.7,16.2 45.8,16.1 45.8,16.1 Z M45.8,15.9 C45.8,15.9 45.8,16 45.8,15.9 C45.7,16 45.8,16 45.8,15.9 C45.8,16 45.8,16 45.8,15.9 C45.8,16 45.8,16 45.8,15.9 Z M41,17.1 C41.1,17.1 41.1,17 41.1,17 L41,17.1 Z M43.5,16.5 L43.4,16.6 C43.4,16.6 43.6,16.5 43.5,16.5 Z" id="Shape" fill="#FFFFFF"></path>
        <path d="M96.6,11.1 C96.6,9.7 96.7,8.5 97.7,6.3 C98,5.7 98.7,4.7 97.7,3.7 C96.9,2.9 96,3 95.4,3.4 C95.7,2.8 95.9,1.9 95.1,1.1 C94,0.1 93.1,0.8 92.5,1.1 C90.3,2.1 89.1,2.2 87.7,2.2 C86.3,2.2 85.1,2.1 82.9,1.1 C82.3,0.8 81.3,0.1 80.3,1.1 C79.5,1.9 79.6,2.8 80,3.4 C79.4,3.1 78.5,2.9 77.7,3.7 C76.7,4.8 77.4,5.7 77.7,6.3 C78.7,8.5 78.8,9.7 78.8,11.1 C78.8,12.5 78.7,13.7 77.7,15.9 C77.4,16.5 76.7,17.5 77.7,18.5 C78.5,19.3 79.4,19.2 80,18.8 C79.7,19.4 79.5,20.3 80.3,21.1 C81.4,22.1 82.3,21.4 82.9,21.1 C85.1,20.1 86.3,20 87.7,20 C89.1,20 90.3,20.1 92.5,21.1 C93.1,21.4 94.1,22.1 95.1,21.1 C95.9,20.3 95.8,19.4 95.4,18.8 C96,19.1 96.9,19.3 97.7,18.5 C98.7,17.4 98,16.5 97.7,15.9 C96.7,13.7 96.6,12.5 96.6,11.1 Z M94.2,17.7 L89.1,13.4 C89.1,13.4 88.4,12.7 87.6,12.7 C86.8,12.7 86.1,13.4 86.1,13.4 L81,17.7 L85.3,12.6 C85.3,12.6 86,11.9 86,11.1 C86,10.3 85.3,9.6 85.3,9.6 L81,4.5 L86.1,8.8 C86.1,8.8 86.8,9.5 87.6,9.5 C88.4,9.5 89.1,8.8 89.1,8.8 L94.2,4.5 L90,9.6 C90,9.6 89.3,10.3 89.3,11.1 C89.3,11.9 90,12.6 90,12.6 L94.2,17.7 Z" id="Shape" fill="#E60012" fill-rule="nonzero"></path>
        <path d="M149,1.8 L149.2,1.8 L149.3,5.1 L149.1,5.1 C148.8,3.7 147.5,2.5 144.8,2.3 C141.7,2.1 140.4,4 140.3,5.7 C140.3,8 142.1,8.5 144.8,9.2 C146.1,9.5 150.7,10.1 150.4,15.4 C150.1,19.1 147,20.8 142.5,20.7 C142.5,20.7 140.6,20.6 138,19.9 C137.5,19.8 137.4,19.9 137.2,20.3 L137,20.3 L137,16.7 L137.2,16.7 C137.3,17.1 137.3,17.7 138,18.3 C138.5,18.7 139.6,19.8 142.1,19.8 C144.5,19.8 146.6,18.8 146.8,16.1 C146.9,15.4 146.8,13.7 145.2,12.9 C143.9,12.3 140.3,11.9 138.6,10.4 C138.6,10.4 136.6,9 136.9,6.3 C137.4,2.5 140.5,1.6 143.3,1.5 C143.3,1.5 145.8,1.5 147.8,2 C147.8,2 148.3,2.1 148.7,2 C148.8,2 148.9,1.9 149,1.8 Z M131.3,10.5 C135.9,11.6 136.2,15 136.1,15.9 C135.9,20.1 132.4,20.5 131,20.5 L120.2,20.5 L120.2,20.3 C121,20.2 121.6,19.8 121.6,18.4 L121.7,4.1 C121.7,2.5 121.3,2.1 120.4,2 L120.4,1.8 L128.6,1.8 C130.1,1.8 134.6,1.5 135,5.7 C135.2,8.9 131.6,10.3 131.3,10.5 Z M132.5,15.9 C132.6,11.9 129.6,10.8 126.6,10.6 C126.5,10.6 126.6,10.4 126.6,10.4 C127.6,10.4 131.5,9.9 131.4,6.1 C131.2,2.4 128.4,2.3 127.4,2.3 L126,2.3 C125.4,2.3 125.3,2.4 125.3,3 C125.3,3.1 125.2,9.6 125.1,14.2 L125.1,18.6 C125.1,19.1 125.1,19.5 126.2,19.6 C127.4,19.7 128.9,19.7 129.9,19.5 C130.8,19.4 132.4,18.7 132.5,15.9 Z M110.9,1.7 C114.8,1.7 119.9,4.4 119.9,11 C119.9,16.8 115.7,20.4 111.8,20.4 L102,20.4 L102,20.2 C102.6,20.1 103.2,19.8 103.3,19.4 C103.6,18 103.6,5.2 103.4,3.1 C103.3,2.4 102.8,2 102.2,1.9 L102.2,1.7 L110.9,1.7 Z M112.7,19.3 C114.4,18.7 116.6,15.7 116.3,11 C116,6.5 114.2,2.9 109.6,2.6 C109.6,2.6 108.7,2.5 108,2.5 C107.2,2.5 107,2.5 107,3.3 C106.9,4.9 106.9,17.1 107,18.9 C107,19.1 107,19.7 108.1,19.8 C109.8,19.9 111.3,19.8 112.7,19.3 Z" id="Shape" fill="#FFFFFF" fill-rule="nonzero"></path>
    </g>
</svg>