<?xml version="1.0" encoding="utf-8"?>
<!-- Generator: Adobe Illustrator 20.0.0, SVG Export Plug-In . SVG Version: 6.00 Build 0)  -->
<svg version="1.1" id="圖層_1" xmlns="http://www.w3.org/2000/svg" xmlns:xlink="http://www.w3.org/1999/xlink" x="0px" y="0px"
	 viewBox="0 0 111.9 60.1" style="enable-background:new 0 0 111.9 60.1;" xml:space="preserve">
<style type="text/css">
	.st0{display:none;}
	.st1{display:inline;fill:#FFFFFF;}
	.st2{fill:#D6000F;}
	.st3{fill:#FFFFFF;}
	.st4{font-family:'LiHeiPro';}
	.st5{font-size:20.1114px;}
	.st6{display:inline;}
	.st7{fill:#9E9E9F;}
	.st8{fill:none;stroke:#E50012;stroke-width:0.1481;stroke-miterlimit:10;}
	.st9{display:inline;fill:#D6000F;}
	.st10{font-size:9.008px;}
</style>
<g id="copy_2" class="st0">
	<path class="st1" d="M83.9,25.9c-0.6,0.6-0.6,1.5,0,2.1l0,0c2.4,2.4,2.4,6.3,0,8.7L71.4,49.3c-2.4,2.4-6.3,2.4-8.6,0l0,0l-1.9-1.9
		c-2.4-2.4-2.4-6.3,0-8.7l12.5-12.6c0.6-0.6,0.6-1.5,0-2.1s-1.5-0.6-2.1,0l0,0L58.8,36.6c-3.5,3.6-3.5,9.3,0,12.9l1.9,1.9
		c3.5,3.5,9.3,3.5,12.8,0l0,0L86,38.8c3.5-3.6,3.5-9.3,0-12.9C85.4,25.4,84.5,25.4,83.9,25.9L83.9,25.9z M106.1,9.4l-1.9-1.9
		c-3.5-3.5-9.3-3.5-12.8,0l0,0L78.8,20.1c-3.5,3.6-3.5,9.3,0,12.9c0.6,0.6,1.5,0.6,2.1,0s0.6-1.5,0-2.1l0,0c-2.4-2.4-2.4-6.3,0-8.7
		L93.4,9.6c2.4-2.4,6.3-2.4,8.6,0l0,0l1.9,1.9c2.4,2.4,2.4,6.3,0,8.7L91.5,32.8c-0.6,0.6-0.6,1.5,0,2.1c0.3,0.3,0.6,0.4,1,0.4
		s0.8-0.2,1-0.4L106,22.3C109.6,18.7,109.6,13,106.1,9.4z"/>
</g>
<g>
	<circle class="st2" cx="81.9" cy="30.1" r="28.7"/>
</g>
<g>
	<g>
		<path class="st3" d="M65.6,47.4c-0.1,0-0.3,0-0.4,0c-1.1-0.3-1.9-1.3-1.8-2.4l2.9-18.1c0.3-1.1,1.3-1.9,2.4-1.8
			c1.1,0.3,1.9,1.3,1.8,2.4l-2.9,18.1C67.5,46.7,66.6,47.4,65.6,47.4z"/>
	</g>
	<g>
		<path class="st3" d="M72.2,42.7c-1.1,0-2.2-1-2.2-2.2c0-1.1,1-2.2,2.2-2.2c4.6,0,8.3-3.7,8.3-8.3s-3.7-8.3-8.3-8.3
			c-1.8,0-3.6,0.6-5,1.7c-0.9,0.8-2.3,0.5-3.1-0.4c-0.8-0.9-0.5-2.3,0.4-3.1c2.2-1.7,4.8-2.6,7.7-2.6c7,0,12.6,5.6,12.6,12.6
			S79.3,42.7,72.2,42.7z"/>
	</g>
	<g>
		<path class="st3" d="M87.7,52c-0.6,0-1.4-0.4-1.8-0.9c-0.6-1-0.4-2.3,0.5-2.9c6-4.2,9.6-11,9.6-18.1s-3.6-13.9-9.4-18
			c-1-0.6-1.3-2-0.5-2.9c0.6-1,2-1.3,2.9-0.5c7,4.8,11.4,12.9,11.4,21.4S96.1,46.7,89,51.7C88.6,51.9,88.2,52,87.7,52z"/>
	</g>
	<g>
		<path class="st3" d="M81.9,47.1c-0.8,0-1.4-0.4-1.9-1c-0.6-1-0.3-2.3,0.8-2.9c4.6-2.7,7.5-7.7,7.5-13s-2.8-10.3-7.4-13
			c-1-0.6-1.4-1.9-0.8-2.9c0.6-1,1.9-1.4,2.9-0.8c5.9,3.4,9.6,9.8,9.6,16.7S89,43.4,83,46.8C82.6,47.1,82.2,47.1,81.9,47.1z"/>
	</g>
</g>
<text transform="matrix(1 0 0 1 2.1013 37.9138)" class="st2 st4 st5">感 應</text>
<g id="圖層_3" class="st0">
	<g class="st6">
		<circle class="st3" cx="81.9" cy="30.5" r="29"/>
		<path class="st2" d="M81.9,2.9c15.2,0,27.6,12.4,27.6,27.6S97.1,58.1,81.9,58.1S54.3,45.7,54.3,30.5S66.7,2.9,81.9,2.9 M81.9,1.1
			c-16.2,0-29.4,13.2-29.4,29.4s13.2,29.4,29.4,29.4s29.4-13.2,29.4-29.4S98.1,1.1,81.9,1.1L81.9,1.1z"/>
		<g>
			<path class="st2" d="M88.8,15.4H75c-1.6,0-2.9-1.3-2.9-2.9V5.2c0-1.6,1.3-2.9,2.9-2.9h13.9c1.6,0,2.9,1.3,2.9,2.9v7.3
				C91.8,14.1,90.5,15.4,88.8,15.4z"/>
			<g>
				<path class="st3" d="M75.9,13.1V8.3h0.9l2,3.2V8.3h0.9v4.8h-1L76.8,10v3.1H75.9z"/>
				<path class="st3" d="M80.7,13.1V8.3h3.2v0.8h-2.3v1.1h2v0.9h-2v2H80.7z"/>
				<path class="st3" d="M87.8,11.3l0.9,0.3c-0.1,0.5-0.4,0.9-0.7,1.2c-0.3,0.3-0.8,0.4-1.3,0.4c-0.6,0-1.2-0.2-1.6-0.6
					c-0.4-0.4-0.6-1-0.6-1.8s0.2-1.4,0.6-1.8c0.4-0.4,0.9-0.7,1.6-0.7c0.6,0,1.1,0.2,1.4,0.5c0.2,0.2,0.4,0.5,0.5,0.9l-1,0.2
					c-0.1-0.2-0.2-0.4-0.4-0.6c0-0.2-0.2-0.2-0.5-0.2c-0.4,0-0.6,0.1-0.9,0.4c-0.2,0.3-0.3,0.7-0.3,1.2c0,0.6,0.1,1,0.3,1.3
					c0.2,0.3,0.5,0.4,0.8,0.4s0.5-0.1,0.7-0.2C87.6,12,87.7,11.7,87.8,11.3z"/>
			</g>
		</g>
		<g>
			<g>
				<g>
					<g>
						<path class="st2" d="M58.2,34.7L58.2,34.7c-0.5-0.1-0.8-0.4-0.7-0.8l1-6.2c0.1-0.4,0.4-0.7,0.8-0.6c0.4,0.1,0.7,0.4,0.6,0.8
							l-1,6.2C58.9,34.4,58.6,34.7,58.2,34.7z"/>
					</g>
				</g>
				<g>
					<g>
						<path class="st2" d="M60.5,33c-0.4,0-0.7-0.3-0.7-0.7s0.3-0.7,0.7-0.7c1.6,0,2.9-1.3,2.9-2.9s-1.3-2.9-2.9-2.9
							c-0.6,0-1.2,0.2-1.7,0.6c-0.3,0.2-0.8,0.2-1-0.1c-0.2-0.3-0.2-0.8,0.1-1c0.8-0.6,1.7-0.9,2.6-0.9c2.4,0,4.3,1.9,4.3,4.3
							S62.9,33,60.5,33z"/>
					</g>
				</g>
				<g>
					<g>
						<path class="st2" d="M65.8,36.2c-0.2,0-0.5-0.1-0.6-0.3c-0.2-0.3-0.1-0.8,0.2-1c2-1.4,3.3-3.7,3.3-6.2s-1.2-4.8-3.2-6.2
							c-0.3-0.2-0.4-0.7-0.2-1c0.2-0.3,0.7-0.4,1-0.2c2.4,1.7,3.9,4.4,3.9,7.4s-1.5,5.7-3.9,7.4C66.1,36.2,66,36.2,65.8,36.2z"/>
					</g>
				</g>
				<g>
					<g>
						<path class="st2" d="M63.8,34.5c-0.3,0-0.5-0.1-0.6-0.4c-0.2-0.4-0.1-0.8,0.3-1c1.6-0.9,2.6-2.6,2.6-4.5c0-1.8-1-3.5-2.6-4.5
							c-0.3-0.2-0.5-0.7-0.3-1s0.7-0.5,1-0.3c2,1.2,3.3,3.4,3.3,5.7c0,2.4-1.3,4.6-3.3,5.7C64.1,34.5,64,34.5,63.8,34.5z"/>
					</g>
				</g>
			</g>
			<g>
				<g>
					<g>
						<path class="st7" d="M72.8,32.9l-0.3-0.7c1-0.3,1.7-0.7,2.1-1.4h-1.7l0.1-0.7h1.8V30l0.1-0.8h-0.8c-0.1,0.2-0.4,0.5-0.7,0.8
							c-0.1-0.2-0.3-0.4-0.4-0.5c0.4-0.4,0.8-0.9,1-1.5l0.6,0.3l-0.2,0.3H77l-0.1,0.6h-1.4v0.9v0.1h1.6l-0.2,0.7h-1.5
							c0.5,0.3,0.9,0.7,1.3,1l-0.5,0.6c-0.3-0.4-0.8-0.7-1.3-1.2C74.4,32.1,73.7,32.6,72.8,32.9z M78.9,36.3h-5.7
							c-0.1,0-0.1,0-0.1-0.1l0.4-3.4c0-0.1,0-0.1,0.1-0.1h5.7c0.1,0,0.1,0,0.1,0.1L78.9,36.3C79,36.3,79,36.3,78.9,36.3z M74,34.9
							l-0.1,0.7l0,0h4.4l0,0l0.1-0.7H74z M78.5,34.2l0.1-0.7l0,0h-4.4l0,0l-0.1,0.7H78.5z M80.1,32.3h-2.9c-0.1,0-0.1,0-0.1-0.1
							l0.4-3.4c0-0.1,0-0.1,0.1-0.1h2.9c0.1,0,0.1,0,0.1,0.1l-0.4,3.3C80.2,32.2,80.1,32.3,80.1,32.3z M78.2,29.3
							C78.2,29.3,78.1,29.3,78.2,29.3l-0.3,2.3l0,0h1.6l0,0l0.3-2.3l0,0H78.2z"/>
					</g>
					<g>
						<path class="st7" d="M82.4,35.1c-0.4,0.6-0.8,1.1-1.3,1.4c-0.1-0.3-0.2-0.4-0.4-0.6c0.4-0.3,0.7-0.7,1-1.2L82.4,35.1z
							 M87.9,34.2c0,0.1-0.1,0.2-0.2,0.2h-5.4l0.1-0.6h4.9c0,0,0.1,0,0.1-0.1v-0.3h-6.1l0.1-0.6h6.1v-0.4c0,0,0-0.1-0.1-0.1h-4.9
							l0.1-0.6h5.5c0.1,0,0.2,0.1,0.2,0.2l-0.1,0.8h1.2l-0.1,0.6h-1.2L87.9,34.2z M81.6,31.4v-0.6h1.6l0.1-0.4h-1.4l0.1-0.6h1.4
							v-0.4h-1.6l0.1-0.6h1.6l0.1-0.5h0.7l-0.1,0.5h1.3l-0.1,0.6h-1.3v0.4h1.1l-0.1,0.6h-1.2v0.4c0.5-0.1,0.9-0.1,1.2-0.2v0.6
							c-0.3,0.1-0.7,0.1-1.3,0.2v0.3h-0.7v-0.3H81.6z M86.1,35.8c0.1,0,0.2,0,0.3-0.1c0.1,0,0.1-0.1,0.2-0.2l0.1-0.5l0.7,0.1
							c-0.1,0.7-0.2,1-0.3,1.1c-0.2,0.2-0.5,0.3-0.9,0.3h-2.8c-0.2,0-0.4,0-0.5-0.1c-0.2-0.2-0.3-0.5-0.2-1l0.1-0.8h0.7l-0.1,0.7
							c0,0.2,0,0.3,0,0.4c0,0.1,0.2,0.1,0.4,0.2h1.3c-0.2-0.3-0.4-0.6-0.6-0.8l0.5-0.5c0.2,0.2,0.4,0.5,0.7,0.9l-0.5,0.4h0.9V35.8z
							 M85.4,31.2l0.1-0.6h1.6v-0.4h-1.3l0.1-0.6h1.3v-0.4h-1.4l0.1-0.6h1.4l0.1-0.5h0.7L88,28.6h1.5l-0.1,0.6h-1.5v0.4h1.3
							l-0.1,0.6h-1.3v0.4h1.6l-0.1,0.6h-1.6v0.3H87v-0.3H85.4z M88.1,34.6c0.2,0.4,0.5,0.9,0.7,1.5l-0.7,0.3
							c-0.2-0.6-0.4-1.1-0.6-1.4L88.1,34.6z"/>
					</g>
					<g>
						<path class="st7" d="M91.3,36.4h-0.7l0.4-3.5c-0.2,0.4-0.4,0.7-0.5,1l-0.7-0.2c0.6-1,1.1-2,1.4-3.1h-0.9l0.1-0.8h1l0.2-1.7
							h0.7l-0.2,1.7h0.7l-0.1,0.8H92v0.2c0.3,0.5,0.5,1.1,0.8,1.7l-0.7,0.4l-0.3-0.7L91.3,36.4z M93.7,35c-0.6,0.6-1.2,1.1-1.7,1.3
							l-0.4-0.6c0.6-0.3,1.2-0.7,1.6-1.1L93.7,35z M92.3,34.3l0.1-0.7h5.5l-0.1,0.7h-2.3l-0.2,1.4c0,0.3-0.2,0.6-0.5,0.8
							s-0.8,0.2-1.5-0.1l0.1-0.8l0.5,0.2c0.3,0.1,0.4,0.1,0.6,0c0.1,0,0.1-0.1,0.1-0.3l0.1-1.2C94.7,34.3,92.3,34.3,92.3,34.3z
							 M98.1,29.7C98.1,29.7,98.1,29.8,98.1,29.7l-0.2,2.2c0,0.1,0,0.1-0.1,0.1h-4.9c-0.1,0-0.1,0-0.1-0.1l0.2-2
							c0-0.1,0-0.1,0.1-0.1h1.3l0.1-0.5h-1.6l0.1-0.7h5.4l-0.1,0.7h-1.6l-0.1,0.5L98.1,29.7L98.1,29.7z M97.6,32.4l-0.1,0.7H93
							l0.1-0.7H97.6z M94.5,30.4h-0.7l0,0l-0.1,0.8l0,0h0.7L94.5,30.4z M95.9,30.4h-0.7l-0.1,0.8h0.7L95.9,30.4z M96.1,29.2h-0.7
							l-0.1,0.5H96L96.1,29.2z M96.5,34.6c0.4,0.3,0.8,0.7,1.2,1.2l-0.6,0.6c-0.4-0.5-0.8-0.9-1.1-1.2L96.5,34.6z M96.5,31.3h0.7
							l0,0l0.1-0.8l0,0h-0.7L96.5,31.3z"/>
					</g>
					<g>
						<path class="st7" d="M98.5,36.2v-0.6l1.8-0.1l0.1-0.6h-1.6l0.1-0.6h1.6l0.1-0.5h-1.7l0.1-0.6h1.6l0.1-0.4h-1.6l0.1-0.5h1.6
							l0.1-0.4h-1.7l0.1-0.6h2.2l-0.6-0.6c-0.2,0.2-0.4,0.3-0.7,0.5l-0.3-0.5c0.5-0.2,0.9-0.5,1.2-0.9l0.4,0.4l-0.2,0.2l0.6,0.4
							l-0.4,0.5h3.1v-1.2l0.7,0.1v1.2h1.6l-0.1,0.6H105c0,0.8,0.1,1.4,0.1,1.9c0.1-0.2,0.3-0.7,0.6-1.4l0.6,0.2
							c-0.3,0.8-0.6,1.5-1.1,2.1l0.2,0.8c0.1,0.2,0.1,0.3,0.1,0.3s0.1-0.1,0.1-0.2c0.1-0.3,0.1-0.6,0.1-1l0.6,0.2
							c-0.1,0.7-0.2,1.2-0.4,1.6c-0.1,0.1-0.2,0.2-0.2,0.2c-0.1,0-0.2,0-0.2,0c-0.2,0-0.3-0.1-0.4-0.3c-0.2-0.3-0.3-0.6-0.4-1
							c-0.6,0.5-1.1,1-1.5,1.2l-0.5-0.5l0.1-0.1L98.5,36.2z M100.3,29.4c-0.2,0.3-0.5,0.5-0.9,0.8c-0.1-0.3-0.2-0.4-0.3-0.6
							c0.5-0.3,0.9-0.8,1.3-1.4l0.5,0.4l-0.1,0.2h2.2l-0.1,0.6h-1l0.2,0.3l-0.5,0.4l-0.5-0.7H100.3z M101.7,35.4l0.4-3.5h-0.7
							l-0.5,3.5H101.7z M102.3,31.2l-0.4-0.4c0.4-0.3,0.7-0.6,1-1l0.5,0.3l-0.1,0.2l0.7,0.4l-0.3,0.5l-0.7-0.5L102.3,31.2z
							 M104.6,34.5c-0.1-0.8-0.2-1.7-0.3-2.7h-1.6l-0.1,0.4h1.4l-0.1,0.5h-1.4l-0.1,0.4h1.5v0.7h-1.4l-0.1,0.5h1.4l-0.1,0.6h-1.4
							l-0.1,0.5l1.2-0.1v0.3l0.8-0.7L104.6,34.5z M103.9,29.4L103.9,29.4c-0.2,0.3-0.5,0.5-0.7,0.7c-0.1-0.3-0.2-0.4-0.3-0.5
							c0.4-0.3,0.8-0.8,1.1-1.3l0.6,0.4l-0.1,0.2h2.8l-0.1,0.6h-1.6l0.1,0.4l-0.6,0.3l-0.2-0.7h-1V29.4z M105.9,29.9
							c0.2,0.1,0.5,0.4,0.8,0.6l-0.5,0.5c-0.3-0.3-0.5-0.5-0.7-0.6L105.9,29.9z"/>
					</g>
				</g>
				<g>
					<g>
						<path class="st2" d="M72.8,32.9l-0.3-0.7c1-0.3,1.7-0.7,2.1-1.4h-1.7l0.1-0.7h1.8V30l0.1-0.8h-0.8c-0.1,0.2-0.4,0.5-0.7,0.8
							c-0.1-0.2-0.3-0.4-0.4-0.5c0.4-0.4,0.8-0.9,1-1.5l0.6,0.3l-0.2,0.3H77l-0.1,0.6h-1.4v0.9v0.1h1.6l-0.2,0.7h-1.5
							c0.5,0.3,0.9,0.7,1.3,1l-0.5,0.6c-0.3-0.4-0.8-0.7-1.3-1.2C74.4,32.1,73.7,32.6,72.8,32.9z M78.9,36.3h-5.7
							c-0.1,0-0.1,0-0.1-0.1l0.4-3.4c0-0.1,0-0.1,0.1-0.1h5.7c0.1,0,0.1,0,0.1,0.1L78.9,36.3C79,36.3,79,36.3,78.9,36.3z M74,34.9
							l-0.1,0.7l0,0h4.4l0,0l0.1-0.7H74z M78.5,34.2l0.1-0.7l0,0h-4.4l0,0l-0.1,0.7H78.5z M80.1,32.3h-2.9c-0.1,0-0.1,0-0.1-0.1
							l0.4-3.4c0-0.1,0-0.1,0.1-0.1h2.9c0.1,0,0.1,0,0.1,0.1l-0.4,3.3C80.2,32.2,80.1,32.3,80.1,32.3z M78.2,29.3
							C78.2,29.3,78.1,29.3,78.2,29.3l-0.3,2.3l0,0h1.6l0,0l0.3-2.3l0,0H78.2z"/>
						<path class="st2" d="M74,28.2c-0.2,0.6-0.6,1.1-1,1.5c0.1,0.1,0.3,0.3,0.4,0.5c0.3-0.3,0.5-0.5,0.7-0.8h0.8l-0.1,0.7v0.1H73
							l-0.1,0.7h1.6c-0.4,0.6-1,1.1-2.1,1.4l0.3,0.7c0.9-0.4,1.7-0.9,2.2-1.5c0.5,0.4,0.9,0.8,1.3,1.2l0.5-0.6
							c-0.4-0.4-0.9-0.7-1.3-1h1.5l0.1-0.7h-1.6v-0.1l0.1-0.8h1.4l0.1-0.6h-2.6l0.2-0.3L74,28.2L74,28.2z M80.5,28.6h-2.9
							c-0.1,0-0.1,0-0.1,0.1l-0.4,3.4c0,0.1,0,0.1,0.1,0.1h2.9c0.1,0,0.1,0,0.1-0.1L80.5,28.6C80.6,28.7,80.6,28.6,80.5,28.6
							L80.5,28.6z M77.9,31.6L77.9,31.6l0.2-2.3l0,0h1.6l0,0l-0.3,2.3l0,0H77.9L77.9,31.6z M79.3,32.7h-5.7c-0.1,0-0.1,0-0.1,0.1
							l-0.4,3.4c0,0.1,0,0.1,0.1,0.1h5.7c0.1,0,0.1,0,0.1-0.1L79.3,32.7C79.4,32.7,79.4,32.7,79.3,32.7L79.3,32.7z M74.1,34.2
							l0.1-0.7l0,0l0,0h4.4l0,0l-0.1,0.7H74.1L74.1,34.2z M78.4,34.9l-0.1,0.7l0,0h-4.4l0,0l0.1-0.7H78.4L78.4,34.9z"/>
					</g>
					<g>
						<path class="st2" d="M82.4,35.1c-0.4,0.6-0.8,1.1-1.3,1.4c-0.1-0.3-0.2-0.4-0.4-0.6c0.4-0.3,0.7-0.7,1-1.2L82.4,35.1z
							 M87.9,34.2c0,0.1-0.1,0.2-0.2,0.2h-5.4l0.1-0.6h4.9c0,0,0.1,0,0.1-0.1v-0.3h-6.1l0.1-0.6h6.1v-0.4c0,0,0-0.1-0.1-0.1h-4.9
							l0.1-0.6h5.5c0.1,0,0.2,0.1,0.2,0.2l-0.1,0.8h1.2l-0.1,0.6h-1.2L87.9,34.2z M81.6,31.4v-0.6h1.6l0.1-0.4h-1.4l0.1-0.6h1.4
							v-0.4h-1.6l0.1-0.6h1.6l0.1-0.5h0.7l-0.1,0.5h1.3l-0.1,0.6h-1.3v0.4h1.1l-0.1,0.6h-1.2v0.4c0.5-0.1,0.9-0.1,1.2-0.2v0.6
							c-0.3,0.1-0.7,0.1-1.3,0.2v0.3h-0.7v-0.3H81.6z M86.1,35.8c0.1,0,0.2,0,0.3-0.1c0.1,0,0.1-0.1,0.2-0.2l0.1-0.5l0.7,0.1
							c-0.1,0.7-0.2,1-0.3,1.1c-0.2,0.2-0.5,0.3-0.9,0.3h-2.8c-0.2,0-0.4,0-0.5-0.1c-0.2-0.2-0.3-0.5-0.2-1l0.1-0.8h0.7l-0.1,0.7
							c0,0.2,0,0.3,0,0.4c0,0.1,0.2,0.1,0.4,0.2h1.3c-0.2-0.3-0.4-0.6-0.6-0.8l0.5-0.5c0.2,0.2,0.4,0.5,0.7,0.9l-0.5,0.4h0.9V35.8z
							 M85.4,31.2l0.1-0.6h1.6v-0.4h-1.3l0.1-0.6h1.3v-0.4h-1.4l0.1-0.6h1.4l0.1-0.5h0.7L88,28.6h1.5l-0.1,0.6h-1.5v0.4h1.3
							l-0.1,0.6h-1.3v0.4h1.6l-0.1,0.6h-1.6v0.3H87v-0.3H85.4z M88.1,34.6c0.2,0.4,0.5,0.9,0.7,1.5l-0.7,0.3
							c-0.2-0.6-0.4-1.1-0.6-1.4L88.1,34.6z"/>
						<path class="st2" d="M88.1,28.2h-0.7l-0.1,0.5h-1.4l-0.1,0.6h1.4v0.4h-1.3l-0.1,0.6h1.3v0.4h-1.6l-0.1,0.6H87v0.3h0.7v-0.3
							h1.6l0.1-0.6h-1.6v-0.4h1.3l0.1-0.6h-1.3v-0.4h1.5l0.1-0.6H88L88.1,28.2L88.1,28.2z M84.2,28.2h-0.7l-0.1,0.5h-1.5l-0.1,0.6
							h1.6v0.4h-1.5l-0.1,0.6h1.4l-0.1,0.4h-1.6v0.6l1.5-0.1v0.3h0.7v-0.3c0.6-0.1,1-0.1,1.3-0.2v-0.6c-0.3,0.1-0.7,0.1-1.2,0.2
							v-0.4h1.1l0.1-0.6h-1.1v-0.4h1.3l0.1-0.6H84L84.2,28.2L84.2,28.2z M88,31.8h-5.5l-0.1,0.6h4.9c0,0,0.1,0,0.1,0.1v0.4h-6.1
							l-0.1,0.6h6.1v0.3c0,0,0,0.1-0.1,0.1h-4.9l-0.1,0.6h5.4c0.1,0,0.2-0.1,0.2-0.2l0.1-0.8h1.2l0.1-0.6H88l0.1-0.8
							C88.2,31.9,88.1,31.8,88,31.8L88,31.8z M85.1,34.5L84.6,35c0.2,0.2,0.4,0.4,0.6,0.8h-1.3c-0.2,0-0.3-0.1-0.4-0.2
							c0-0.1,0-0.2,0-0.4l0.1-0.7h-0.7l-0.1,0.8c-0.1,0.5,0,0.8,0.2,1c0.1,0.1,0.3,0.1,0.5,0.1h2.8c0.4,0,0.7-0.1,0.9-0.3
							c0.1-0.1,0.2-0.5,0.3-1.1l-0.7-0.1l-0.1,0.5c-0.1,0.1-0.1,0.1-0.2,0.2c-0.1,0-0.2,0.1-0.3,0.1h-0.9l0.5-0.4
							C85.5,35,85.3,34.7,85.1,34.5L85.1,34.5z M88.1,34.6l-0.6,0.5c0.2,0.3,0.4,0.8,0.6,1.4l0.7-0.3C88.6,35.5,88.4,35,88.1,34.6
							L88.1,34.6z M81.8,34.7c-0.3,0.5-0.6,0.9-1,1.2c0.1,0.1,0.2,0.3,0.4,0.6c0.4-0.3,0.9-0.8,1.3-1.4L81.8,34.7L81.8,34.7z"/>
					</g>
					<g>
						<path class="st2" d="M91.3,36.4h-0.7l0.4-3.5c-0.2,0.4-0.4,0.7-0.5,1l-0.7-0.2c0.6-1,1.1-2,1.4-3.1h-0.9l0.1-0.8h1l0.2-1.7
							h0.7l-0.2,1.7h0.7l-0.1,0.8H92v0.2c0.3,0.5,0.5,1.1,0.8,1.7l-0.7,0.4l-0.3-0.7L91.3,36.4z M93.7,35c-0.6,0.6-1.2,1.1-1.7,1.3
							l-0.4-0.6c0.6-0.3,1.2-0.7,1.6-1.1L93.7,35z M92.3,34.3l0.1-0.7h5.5l-0.1,0.7h-2.3l-0.2,1.4c0,0.3-0.2,0.6-0.5,0.8
							s-0.8,0.2-1.5-0.1l0.1-0.8l0.5,0.2c0.3,0.1,0.4,0.1,0.6,0c0.1,0,0.1-0.1,0.1-0.3l0.1-1.2C94.7,34.3,92.3,34.3,92.3,34.3z
							 M98.1,29.7C98.1,29.7,98.1,29.8,98.1,29.7l-0.2,2.2c0,0.1,0,0.1-0.1,0.1h-4.9c-0.1,0-0.1,0-0.1-0.1l0.2-2
							c0-0.1,0-0.1,0.1-0.1h1.3l0.1-0.5h-1.6l0.1-0.7h5.4l-0.1,0.7h-1.6l-0.1,0.5L98.1,29.7L98.1,29.7z M97.6,32.4l-0.1,0.7H93
							l0.1-0.7H97.6z M94.5,30.4h-0.7l0,0l-0.1,0.8l0,0h0.7L94.5,30.4z M95.9,30.4h-0.7l-0.1,0.8h0.7L95.9,30.4z M96.1,29.2h-0.7
							l-0.1,0.5H96L96.1,29.2z M96.5,34.6c0.4,0.3,0.8,0.7,1.2,1.2l-0.6,0.6c-0.4-0.5-0.8-0.9-1.1-1.2L96.5,34.6z M96.5,31.3h0.7
							l0,0l0.1-0.8l0,0h-0.7L96.5,31.3z"/>
						<path class="st2" d="M92.3,28.2h-0.7l-0.2,1.7h-1l-0.1,0.8h0.9c-0.3,1.1-0.8,2.1-1.4,3.1l0.7,0.2c0.2-0.3,0.4-0.6,0.5-1
							l-0.4,3.5h0.7l0.5-4.2l0.3,0.7l0.7-0.4c-0.2-0.6-0.5-1.1-0.8-1.7v-0.2h0.7l0.1-0.8h-0.7L92.3,28.2L92.3,28.2z M98.4,28.5H93
							l-0.1,0.7h1.6l-0.1,0.5h-1.3c-0.1,0-0.1,0-0.1,0.1l-0.2,2c0,0.1,0,0.1,0.1,0.1h4.8c0.1,0,0.1,0,0.1-0.1l0.2-2
							c0-0.1,0-0.1-0.1-0.1h-1.4l0.1-0.5h1.6L98.4,28.5L98.4,28.5z M96.1,29.2L96,29.7h-0.7l0.1-0.5H96.1L96.1,29.2z M96.5,31.3
							l0.1-0.8h0.7l0,0l-0.1,0.8l0,0H96.5L96.5,31.3z M95.9,30.4l-0.1,0.8h-0.7l0.1-0.8H95.9L95.9,30.4z M94.5,30.4l-0.1,0.8h-0.7
							l0,0l0.1-0.8l0,0H94.5L94.5,30.4z M97.6,32.4h-4.5L93,33.1h4.5L97.6,32.4L97.6,32.4z M97.8,33.6h-5.5l-0.1,0.7h2.5l-0.1,1.2
							c0,0.1,0,0.2-0.1,0.3c-0.1,0-0.1,0.1-0.2,0.1c-0.1,0-0.2,0-0.3-0.1l-0.5-0.2l-0.1,0.8c0.4,0.1,0.8,0.2,1,0.2s0.4,0,0.5-0.1
							c0.3-0.2,0.4-0.4,0.5-0.8l0.2-1.4h2.3L97.8,33.6L97.8,33.6z M93.2,34.5c-0.4,0.5-0.9,0.9-1.6,1.1l0.4,0.6
							c0.5-0.2,1.1-0.6,1.7-1.3L93.2,34.5L93.2,34.5z M96.5,34.6l-0.6,0.6c0.3,0.2,0.7,0.6,1.1,1.2l0.6-0.6
							C97.2,35.3,96.8,34.9,96.5,34.6L96.5,34.6z"/>
					</g>
					<g>
						<path class="st2" d="M98.5,36.2v-0.6l1.8-0.1l0.1-0.6h-1.6l0.1-0.6h1.6l0.1-0.5h-1.7l0.1-0.6h1.6l0.1-0.4h-1.6l0.1-0.5h1.6
							l0.1-0.4h-1.7l0.1-0.6h2.2l-0.6-0.6c-0.2,0.2-0.4,0.3-0.7,0.5l-0.3-0.5c0.5-0.2,0.9-0.5,1.2-0.9l0.4,0.4l-0.2,0.2l0.6,0.4
							l-0.4,0.5h3.1v-1.2l0.7,0.1v1.2h1.6l-0.1,0.6H105c0,0.8,0.1,1.4,0.1,1.9c0.1-0.2,0.3-0.7,0.6-1.4l0.6,0.2
							c-0.3,0.8-0.6,1.5-1.1,2.1l0.2,0.8c0.1,0.2,0.1,0.3,0.1,0.3s0.1-0.1,0.1-0.2c0.1-0.3,0.1-0.6,0.1-1l0.6,0.2
							c-0.1,0.7-0.2,1.2-0.4,1.6c-0.1,0.1-0.2,0.2-0.2,0.2c-0.1,0-0.2,0-0.2,0c-0.2,0-0.3-0.1-0.4-0.3c-0.2-0.3-0.3-0.6-0.4-1
							c-0.6,0.5-1.1,1-1.5,1.2l-0.5-0.5l0.1-0.1L98.5,36.2z M100.3,29.4c-0.2,0.3-0.5,0.5-0.9,0.8c-0.1-0.3-0.2-0.4-0.3-0.6
							c0.5-0.3,0.9-0.8,1.3-1.4l0.5,0.4l-0.1,0.2h2.2l-0.1,0.6h-1l0.2,0.3l-0.5,0.4l-0.5-0.7H100.3z M101.7,35.4l0.4-3.5h-0.7
							l-0.5,3.5H101.7z M102.3,31.2l-0.4-0.4c0.4-0.3,0.7-0.6,1-1l0.5,0.3l-0.1,0.2l0.7,0.4l-0.3,0.5l-0.7-0.5L102.3,31.2z
							 M104.6,34.5c-0.1-0.8-0.2-1.7-0.3-2.7h-1.6l-0.1,0.4h1.4l-0.1,0.5h-1.4l-0.1,0.4h1.5v0.7h-1.4l-0.1,0.5h1.4l-0.1,0.6h-1.4
							l-0.1,0.5l1.2-0.1v0.3l0.8-0.7L104.6,34.5z M103.9,29.4L103.9,29.4c-0.2,0.3-0.5,0.5-0.7,0.7c-0.1-0.3-0.2-0.4-0.3-0.5
							c0.4-0.3,0.8-0.8,1.1-1.3l0.6,0.4l-0.1,0.2h2.8l-0.1,0.6h-1.6l0.1,0.4l-0.6,0.3l-0.2-0.7h-1V29.4z M105.9,29.9
							c0.2,0.1,0.5,0.4,0.8,0.6l-0.5,0.5c-0.3-0.3-0.5-0.5-0.7-0.6L105.9,29.9z"/>
						<path class="st2" d="M100.4,28.2c-0.4,0.6-0.8,1-1.3,1.4c0.1,0.1,0.2,0.3,0.3,0.6c0.3-0.2,0.6-0.5,0.9-0.8h0.9l0.5,0.7
							l0.5-0.4l-0.2-0.3h1l0.1-0.6h-2.2l0.1-0.2L100.4,28.2L100.4,28.2z M104,28.2c-0.3,0.5-0.7,1-1.1,1.3c0.1,0.1,0.2,0.3,0.3,0.5
							c0.2-0.2,0.5-0.4,0.7-0.6l0,0h0.9l0.2,0.7l0.6-0.3l-0.1-0.4h1.6l0.1-0.6h-2.8l0.1-0.2L104,28.2L104,28.2z M100.8,29.7
							c-0.3,0.4-0.7,0.7-1.2,0.9l0.3,0.5c0.3-0.1,0.5-0.3,0.7-0.5l0.6,0.6H99l-0.1,0.6h1.7l-0.1,0.4h-1.6l-0.1,0.5h1.6l-0.1,0.4
							h-1.6l0.2,0.7h1.6l-0.1,0.5h-1.6l-0.1,0.6h1.6l-0.1,0.6l-1.8,0.1v0.6l4.5-0.3l-0.1,0.1l0.5,0.5c0.4-0.3,0.9-0.7,1.5-1.2
							c0.1,0.4,0.2,0.8,0.4,1c0.1,0.2,0.3,0.3,0.4,0.3l0,0c0.1,0,0.1,0,0.2,0c0.1,0,0.2-0.1,0.2-0.2c0.2-0.3,0.3-0.9,0.4-1.6
							l-0.5-0.2c0,0.4-0.1,0.7-0.1,1c0,0.1-0.1,0.2-0.1,0.2l0,0c0,0-0.1-0.1-0.1-0.3l-0.2-0.8c0.4-0.6,0.8-1.3,1.1-2.1l-0.6-0.2
							c-0.3,0.7-0.5,1.2-0.6,1.4c-0.1-0.5-0.1-1.2-0.1-1.9h1.8l0.1-0.6h-1.9v-1.2l-0.7-0.1v1.2h-3.1l0.4-0.5l-0.6-0.4l0.2-0.2
							L100.8,29.7L100.8,29.7z M102.7,32.3l0.1-0.4h1.6c0,1,0.1,1.9,0.3,2.7l-0.3,0.3l-0.8,0.7v-0.3l-1.2,0.1l0.1-0.5h1.4l0.1-0.6
							h-1.4l0.1-0.5h1.2l0.1-0.6h-1.4l0.1-0.4h1.4l0.1-0.5H102.7L102.7,32.3z M102.1,31.8l-0.4,3.5H101l0.4-3.6h0.7V31.8z
							 M102.8,29.8c-0.2,0.4-0.6,0.7-1,1l0.4,0.4l0.6-0.5l0.7,0.5l0.3-0.5l-0.7-0.4l0.1-0.2L102.8,29.8L102.8,29.8z M105.9,29.9
							l-0.5,0.6c0.2,0.1,0.4,0.3,0.7,0.6l0.5-0.5C106.4,30.2,106.1,30,105.9,29.9L105.9,29.9z"/>
					</g>
				</g>
			</g>
			<g>
				<g>
					<g>
						<g>
							<g>
								<path class="st2" d="M75.4,22.7h0.2c0.5,0,1,0,0.9,0.7c-0.1,0.7-0.6,0.7-1.1,0.7h-0.2L75.4,22.7z M73.4,27h1.3l0.3-1.8h0.8
									c1.2,0,1.9-0.6,2.1-1.8c0.2-1.2-0.5-1.8-1.6-1.8h-2L73.4,27z"/>
							</g>
							<g>
								<path class="st2" d="M83.4,21.9L83,24.1l0,0c0.3-0.3,0.6-0.5,1-0.5c0.7,0,1,0.5,0.9,1.3l-0.3,1.9h-1l0.2-1.6
									c0.1-0.4,0.1-0.7-0.4-0.7c-0.4,0-0.6,0.4-0.6,0.7l-0.2,1.6h-1l0.7-4.9H83.4z"/>
							</g>
							<g>
								<path class="st2" d="M87.1,24.6c0.4,0,0.6,0.3,0.6,0.7c-0.1,0.4-0.3,0.7-0.8,0.7c-0.4,0-0.6-0.3-0.6-0.7
									C86.4,24.9,86.6,24.6,87.1,24.6z M87.2,23.6c-0.9,0-1.8,0.6-2,1.6c-0.2,1,0.6,1.6,1.5,1.6c0.9,0,1.8-0.6,2-1.6
									C88.8,24.2,88.1,23.6,87.2,23.6z"/>
							</g>
							<g>
								<path class="st2" d="M90.2,24.1L90.2,24.1c0.3-0.3,0.6-0.5,1-0.5c0.4,0,0.7,0.2,0.9,0.6c0.3-0.4,0.7-0.6,1.1-0.6
									c0.7,0,0.9,0.5,0.8,1.2l-0.3,1.9h-1l0.2-1.5c0-0.3,0.1-0.8-0.3-0.8c-0.5,0-0.6,0.5-0.6,0.8l-0.2,1.5h-1l0.2-1.5
									c0.1-0.3,0.1-0.9-0.3-0.9c-0.5,0-0.5,0.5-0.6,0.9l-0.2,1.5h-1l0.5-3h1L90.2,24.1z"/>
							</g>
							<g>
								<path class="st2" d="M95.3,24.8c0.1-0.3,0.4-0.5,0.7-0.5c0.3,0,0.5,0.2,0.5,0.5H95.3z M97.4,25.3c0.2-1-0.3-1.7-1.3-1.7
									c-0.9,0-1.7,0.6-1.8,1.6c-0.2,1,0.5,1.6,1.4,1.6c0.7,0,1.3-0.3,1.6-1h-1c-0.1,0.2-0.3,0.3-0.5,0.3c-0.4,0-0.6-0.2-0.5-0.7
									L97.4,25.3L97.4,25.3z"/>
							</g>
							<g>
								<g>
									<path class="st2" d="M81.8,23.5l0.2-1.6c-0.3-0.1-0.5-0.2-0.8-0.2L81,23C81.3,23,81.6,23.2,81.8,23.5z"/>
								</g>
								<g>
									<path class="st2" d="M81.5,25.2c-0.3,0.3-0.6,0.5-1,0.5L80.3,27c0.3,0,0.6-0.1,0.9-0.2L81.5,25.2z"/>
								</g>
							</g>
							<g>
								<path class="st2" d="M80.3,27l0.2-1.3c-0.1,0-0.1,0-0.2,0c-0.8,0-1.2-0.6-1.1-1.4c0.1-0.8,0.7-1.4,1.5-1.4
									c0.1,0,0.2,0,0.2,0l0.2-1.3c-0.1,0-0.2,0-0.3,0c-0.7,0-1.4,0.3-2,0.8c-0.5,0.5-0.9,1.2-1,1.9c-0.1,0.8,0,1.4,0.5,1.9
									c0.4,0.5,1,0.8,1.7,0.8C80.2,27,80.3,27,80.3,27z"/>
							</g>
						</g>
						<g>
							<path class="st2" d="M89.1,21.8c0.2,0,0.3,0.2,0.3,0.4c0,0.2-0.2,0.4-0.4,0.4s-0.3-0.2-0.3-0.4C88.8,22,88.9,21.8,89.1,21.8z
								 M89,22.8c0.3,0,0.6-0.3,0.7-0.6c0-0.3-0.1-0.6-0.5-0.6c-0.3,0-0.6,0.3-0.7,0.6C88.5,22.5,88.7,22.8,89,22.8z"/>
						</g>
						<g>
							<path class="st2" d="M90.6,21.6h0.2l0.5,0.8l0,0l0.1-0.8h0.2l-0.2,1.2h-0.2L90.7,22l0,0l-0.1,0.8h-0.2L90.6,21.6z"/>
						</g>
						<g>
							<path class="st2" d="M92.6,22.6h0.3v0.2h-0.5l0.2-1.2h0.2L92.6,22.6z"/>
						</g>
						<g>
							<path class="st2" d="M94,22.8h-0.2l0.2-1.2h0.2L94,22.8z"/>
						</g>
						<g>
							<path class="st2" d="M95.1,21.6h0.2l0.5,0.8l0,0l0.1-0.8h0.2l-0.2,1.2h-0.2L95.2,22l0,0l-0.1,0.8h-0.2L95.1,21.6z"/>
						</g>
						<g>
							<path class="st2" d="M97.2,21.8v0.3h0.4v0.2h-0.4v0.3h0.4v0.2h-0.7l0.2-1.2h0.6v0.2H97.2z"/>
						</g>
					</g>
				</g>
			</g>
		</g>
		<circle class="st8" cx="81.9" cy="30.5" r="29.4"/>
	</g>
	<polygon class="st9" points="55,39.4 109.1,39.4 105.8,46.4 102.5,50.5 97.2,54.8 89.9,57.8 84.1,58.7 76.7,58.4 67,55.3 
		59.6,48.9 56.5,43.5 	"/>
	<text transform="matrix(1 0 0 1 64.7849 50.7114)" class="st1 st4 st10">我要獲得</text>
</g>
</svg>
