<?xml version="1.0" encoding="utf-8"?>
<!-- Generator: Adobe Illustrator 20.0.0, SVG Export Plug-In . SVG Version: 6.00 Build 0)  -->
<svg version="1.1" id="圖層_1" xmlns="http://www.w3.org/2000/svg" xmlns:xlink="http://www.w3.org/1999/xlink" x="0px" y="0px"
	 viewBox="0 0 434 109" style="enable-background:new 0 0 434 109;" xml:space="preserve">
<style type="text/css">
	.st0{fill:#9D9D9E;}
	.st1{font-family:'Avenir-MediumOblique';}
	.st2{font-size:32.9138px;}
	.st3{fill:#D6000F;}
	.st4{font-family:'NewGothic-Bold';}
	.st5{font-size:29.3994px;}
	.st6{fill:none;stroke:#D6000F;stroke-width:2;stroke-linecap:round;stroke-miterlimit:10;}
	.st7{fill:none;stroke:#D6000F;stroke-width:0.75;stroke-linecap:round;stroke-miterlimit:10;}
	.st8{fill:none;stroke:#F6B42C;stroke-width:2;stroke-linecap:round;stroke-miterlimit:10;}
</style>
<g>
	<g>
		<g>
			<g>
				<g>
					<text transform="matrix(1 0 0 1 223.9111 67.52)" class="st0 st1 st2">Fa</text>
					<text transform="matrix(1 0 0 1 256.6111 67.52)" class="st0 st1 st2">stag</text>
					<text transform="matrix(1 0 0 1 223.9111 67.52)" class="st3 st1 st2">Fa</text>
					<text transform="matrix(1 0 0 1 256.6111 67.52)" class="st3 st1 st2">stag</text>
				</g>
				<g>
					<text transform="matrix(0.95 0 -0.1187 0.9929 104.7638 65.8789)" class="st0 st4 st5">智慧標籤</text>
					<text transform="matrix(0.95 0 -0.1187 0.9929 104.7638 65.8789)" class="st3 st4 st5">智慧標籤</text>
				</g>
			</g>
		</g>
	</g>
	<path class="st6" d="M98.7,81.3c-14.7,0-26.8-12-26.8-26.8l0,0c0-14.7,12-26.8,26.8-26.8H284"/>
	<path class="st7" d="M99,77.4c-12.5,0-22.7-10.2-22.7-22.7l0,0C76.3,42.2,86.5,32,99,32h142.7"/>
	<line class="st8" x1="236.5" y1="81.3" x2="103.5" y2="81.3"/>
	<path class="st6" d="M335.3,27.7c14.7,0,26.8,12,26.8,26.8l0,0c0,14.7-12,26.8-26.8,26.8h-93.8"/>
	<path class="st7" d="M334.7,31.6c12.6,0,22.9,10.3,22.9,22.9l0,0c0,12.6-10.3,22.9-22.9,22.9H256"/>
	<line class="st8" x1="289.8" y1="27.7" x2="330.3" y2="27.7"/>
</g>
</svg>
