<?xml version="1.0" encoding="utf-8"?>
<!-- Generator: Adobe Illustrator 20.0.0, SVG Export Plug-In . SVG Version: 6.00 Build 0)  -->
<svg version="1.1" id="圖層_1" xmlns="http://www.w3.org/2000/svg" xmlns:xlink="http://www.w3.org/1999/xlink" x="0px" y="0px"
	 viewBox="0 0 36.9 36.9" style="enable-background:new 0 0 36.9 36.9;" xml:space="preserve">
<style type="text/css">
	.st0{fill:#D6000F;}
	.st1{fill:#FFFFFF;}
	.st2{enable-background:new    ;}
</style>
<path class="st0" d="M30.8,36.9H6.1c-3.4,0-6.1-2.7-6.1-6.1V6.1C0,2.7,2.7,0,6.1,0h24.7c3.4,0,6.1,2.7,6.1,6.1v24.7
	C36.9,34.2,34.2,36.9,30.8,36.9z"/>
<g>
	<g>
		<path class="st1" d="M10.6,21.6c-0.1,0-0.1,0-0.2,0c-0.6-0.1-0.9-0.6-0.8-1.2l1.4-8.6c0.1-0.6,0.6-0.9,1.2-0.8
			c0.6,0.1,0.9,0.6,0.8,1.2l-1.4,8.6C11.6,21.2,11.1,21.6,10.6,21.6z"/>
	</g>
	<g>
		<path class="st1" d="M13.8,19.3c-0.6,0-1-0.5-1-1s0.5-1,1-1c2.2,0,4-1.8,4-4s-1.8-4-4-4c-0.9,0-1.7,0.3-2.4,0.8
			c-0.4,0.3-1.1,0.3-1.4-0.2c-0.3-0.4-0.3-1.1,0.2-1.4c1-0.8,2.3-1.2,3.6-1.2c3.3,0,6,2.7,6,6S17.1,19.3,13.8,19.3z"/>
	</g>
	<g>
		<path class="st1" d="M21.1,23.8c-0.3,0-0.6-0.2-0.8-0.4c-0.3-0.5-0.2-1.1,0.3-1.4c2.8-1.9,4.5-5.1,4.5-8.6c0-3.4-1.7-6.6-4.5-8.5
			c-0.5-0.3-0.6-1-0.3-1.4c0.3-0.5,1-0.6,1.4-0.3c3.4,2.3,5.4,6.1,5.4,10.2s-2,7.9-5.4,10.2C21.5,23.7,21.3,23.8,21.1,23.8z"/>
	</g>
	<g>
		<path class="st1" d="M18.4,21.4c-0.4,0-0.7-0.2-0.9-0.5c-0.3-0.5-0.1-1.1,0.4-1.4c2.2-1.3,3.6-3.7,3.6-6.2S20.1,8.4,18,7.1
			c-0.5-0.3-0.6-0.9-0.4-1.4c0.3-0.5,0.9-0.6,1.4-0.4c2.8,1.7,4.6,4.7,4.6,7.9c0,3.3-1.8,6.3-4.6,8C18.7,21.4,18.5,21.4,18.4,21.4z"
			/>
	</g>
</g>
<g class="st2">
	<path class="st1" d="M6.7,28.4H4.6v1.5c0.5-0.2,0.8-0.3,1.1-0.5l0.3,0.6c-0.4,0.2-0.8,0.3-1.4,0.5H4.6v1.8c0,0.3-0.1,0.5-0.4,0.7
		s-0.8,0.2-1.7,0v-0.7c0.7,0.2,1.1,0.2,1.2,0.1c0,0,0.1-0.1,0.1-0.2v-1.4l-1.5,0.4l-0.3-0.7c0.7-0.1,1.2-0.2,1.8-0.4v-1.7H2.2v-0.7
		h1.7v-0.9l-1.4,0.2l-0.2-0.7c1.5-0.1,2.5-0.3,3.3-0.7l0.2,0.6c-0.3,0.3-0.7,0.4-1.1,0.5l0,0v1.1h1.9c-0.1-0.6-0.1-1.4-0.1-2.1
		l0.7,0.1c0,0.7,0,1.5,0.1,2.1h2.4v0.7H7.3c0.1,0.9,0.3,1.6,0.4,2.1l0.1-0.2c0.2-0.4,0.4-0.9,0.6-1.6l0.6,0.2
		C8.8,30,8.5,30.8,8,31.4c0.1,0.2,0.2,0.5,0.4,0.7c0.2,0.3,0.3,0.4,0.4,0.4c0,0,0.1,0,0.1-0.1C9,32.2,9,31.8,9.1,31.3l0.7,0.2
		c-0.1,0.9-0.3,1.6-0.5,1.8c-0.1,0.1-0.2,0.1-0.3,0.1c-0.2,0-0.4-0.1-0.6-0.4c-0.2-0.3-0.5-0.7-0.7-1.1l0,0c-0.6,0.6-1.4,1-2.2,1.2
		L5,32.4l0.3-0.1c0.7-0.2,1.4-0.6,2-1.2C7.1,30.5,6.9,29.5,6.7,28.4z M8.2,25.8c0.8,0.5,1.2,0.8,1.5,1l-0.4,0.5
		c-0.5-0.4-1-0.7-1.5-1L8.2,25.8z"/>
	<path class="st1" d="M15.3,32l2.7,0.6l-0.3,0.6l-3.1-0.8h-0.1c-0.9,0.4-2.2,0.6-3.7,0.6l-0.1-0.7c1,0.1,2,0,2.9-0.3l-2-0.5
		l-0.1-0.4l0.8-0.7h-1.9v-0.6h2.5l0.5-0.6h-2.6c-0.1,0-0.1,0-0.1-0.1v-2.1c0-0.1,0-0.1,0.1-0.1h2v-0.5h-2.3v-0.6h7.3v0.6h-2.3v0.5h2
		c0.1,0,0.1,0,0.1,0.1V29c0,0.1,0,0.1-0.1,0.1h-3.1l-0.5,0.8H18v0.6h-1.5C16.2,31.2,15.7,31.7,15.3,32z M12.9,27.8h-1.4l0,0v0.9l0,0
		h1.4V27.8z M13.3,30.7l-0.6,0.5c-0.1,0.1-0.1,0.1,0,0.2l1.9,0.4c0.4-0.3,0.9-0.6,1.4-1.1H13.3z M14.9,26.5h-1.2V27h1.2V26.5z
		 M14.9,27.8h-1.2v0.9h1.2V27.8z M15.6,28.7h1.2l0,0v-0.9l0,0h-1.2V28.7z"/>
	<path class="st1" d="M25.2,26.8h-1.5c0.1,0.6,0.3,1.1,0.6,1.7c0.2-0.3,0.3-0.7,0.5-1.2l0.6,0.2c-0.2,0.7-0.5,1.2-0.8,1.7l0.5,0.6
		c0.1,0.1,0.2,0.2,0.3,0.2c0,0,0.1,0,0.1-0.1c0-0.2,0.1-0.5,0.1-0.8l0.6,0.2c0,0.9-0.2,1.5-0.4,1.6c-0.1,0-0.1,0.1-0.2,0.1
		c-0.2,0-0.3,0-0.5-0.2c-0.3-0.2-0.6-0.5-0.8-0.9c-0.3,0.4-0.7,0.7-1,1l-0.5-0.5c0.4-0.3,0.8-0.7,1.1-1.1c-0.4-0.6-0.7-1.5-0.9-2.3
		h-3c-0.1,0-0.1,0-0.1,0.1v1c0,1.1-0.2,2.1-0.7,2.8l-0.6-0.3c0.2-0.5,0.4-0.9,0.5-1.4c0.1-0.4,0.1-0.8,0.1-1.5v-1.2
		c0-0.1,0.1-0.2,0.2-0.2h3.4l-0.1-0.5l0.7-0.1l0.1,0.6H25L24.8,26l0.5-0.3c0.4,0.5,0.6,0.9,0.8,1.4l-0.6,0.3
		c-0.1-0.2-0.3-0.5-0.6-0.9v0.4H25.2z M20.2,31.2c-0.3,0.8-0.6,1.6-1.1,2c-0.2-0.2-0.3-0.3-0.5-0.4c0.4-0.5,0.7-1.1,0.9-1.8
		L20.2,31.2z M22.8,27.2v0.6h-2.5v-0.6H22.8z M22.8,30.3h-2.4c0,0-0.1,0-0.1-0.1v-1.8c0,0,0-0.1,0.1-0.1h2.4c0.1,0,0.1,0,0.1,0.1
		L22.8,30.3C22.9,30.3,22.8,30.3,22.8,30.3z M21.4,30.8V32c0,0.2,0,0.3,0.1,0.3c0.1,0.1,0.2,0.1,0.3,0.1h1.7h0.3
		c0.1,0,0.1-0.1,0.1-0.1c0-0.1,0.1-0.3,0.1-0.7l0.6,0.1c0,0.6-0.1,1-0.2,1.1c-0.1,0.1-0.2,0.2-0.3,0.2c-0.1,0-0.3,0-0.5,0h-2.2
		c-0.2,0-0.3,0-0.5-0.1c-0.2-0.2-0.3-0.4-0.3-0.8v-1.4C20.5,30.8,21.4,30.8,21.4,30.8z M20.9,28.9L20.9,28.9v0.8l0,0h1.4l0,0v-0.8
		l0,0H20.9z M22.6,30.6c0.3,0.3,0.5,0.7,0.8,1.2l-0.5,0.3c-0.3-0.5-0.5-0.9-0.7-1.2L22.6,30.6z M25.3,30.8c0.4,0.5,0.7,1.1,1.1,1.9
		L25.9,33c-0.4-0.8-0.8-1.5-1.1-1.9L25.3,30.8z"/>
	<path class="st1" d="M28.4,29.1c-0.1-0.2-0.2-0.3-0.3-0.4v1c0,1.5-0.1,2.6-0.4,3.5l-0.6-0.2c0.3-0.9,0.4-2.1,0.4-3.5v-3.3
		c0-0.1,0.1-0.2,0.2-0.2h3.1v-0.4h0.7V26h3.2v0.6h-6.3c-0.1,0-0.1,0-0.1,0.1v1.8c0.5-0.4,0.9-1,1.2-1.8l0.6,0.3L29.7,28v2.8h-0.6
		v-2.1L28.4,29.1z M29.4,31.5c-0.2,0.7-0.4,1.2-0.8,1.7l-0.6-0.3c0.4-0.4,0.6-0.9,0.7-1.5L29.4,31.5z M34.4,30.3v0.5h-4.1
		c-0.1,0-0.2-0.1-0.2-0.2v-1.9l-0.2,0.2c-0.2-0.2-0.3-0.3-0.4-0.4c0.4-0.4,0.7-0.9,0.9-1.6l0.6,0.2l-0.2,0.3h1.2
		c0.1-0.2,0.2-0.4,0.3-0.6l0.5,0.3l-0.2,0.3h1.7L34.2,28h-1.7v0.4h1.7v0.5h-1.7v0.4h1.7v0.5h-1.7v0.4C32.6,30.3,34.4,30.3,34.4,30.3
		z M30.4,31v1.1c0,0.1,0,0.2,0,0.3c0,0.1,0.2,0.1,0.3,0.1h1.5c0.1,0,0.2,0,0.2,0l0.1-0.1c0-0.1,0-0.2,0.1-0.6l0.6,0.1
		c0,0.6-0.1,0.9-0.2,1s-0.2,0.2-0.3,0.2c-0.1,0-0.2,0-0.4,0h-1.8c-0.2,0-0.3,0-0.4-0.1c-0.2-0.1-0.3-0.4-0.3-0.8V31
		C29.8,31,30.4,31,30.4,31z M32,29.8h-1.2v0.3c0,0.1,0,0.1,0.1,0.1H32V29.8z M32,28h-1.1c-0.1,0-0.1,0-0.1,0.1v0.3H32V28z M32,28.9
		h-1.2v0.4H32V28.9z M31.6,30.9c0.2,0.3,0.3,0.7,0.4,1.1l-0.5,0.3c-0.1-0.5-0.3-0.8-0.4-1.1L31.6,30.9z M33.8,31
		c0.3,0.4,0.5,1,0.7,1.8L33.9,33c-0.2-0.7-0.5-1.4-0.7-1.8L33.8,31z"/>
</g>
</svg>
