<?xml version="1.0" encoding="utf-8"?>
<!-- Generator: Adobe Illustrator 22.0.1, SVG Export Plug-In . SVG Version: 6.00 Build 0)  -->
<svg version="1.1" id="圖層_1" xmlns="http://www.w3.org/2000/svg" xmlns:xlink="http://www.w3.org/1999/xlink" x="0px" y="0px"
	 viewBox="0 0 99.2 99.2" style="enable-background:new 0 0 99.2 99.2;" xml:space="preserve">
<style type="text/css">
	.st0{clip-path:url(#SVGID_2_);fill:url(#SVGID_3_);}
</style>
<g>
	<defs>
		<path id="SVGID_1_" d="M49.6,0.3C36.5,0.3,24,5.5,14.8,14.8C5.5,24,0.3,36.6,0.3,49.7C0.3,76.9,22.4,99,49.6,99
			s49.3-22.1,49.3-49.3C98.9,22.4,76.8,0.3,49.6,0.3z M81.6,81.9C63.8,99.6,35,99.5,17.2,81.7s-17.7-46.6,0.2-64.4S64-0.3,81.8,17.5
			C90.3,26,95,37.6,95,49.6C95,61.7,90.2,73.3,81.6,81.9z M53.4,39.5h8l-0.6,6.1l-0.3,4H53v25.2H42.9V49.6h-5.1V39.5h5V35
			c0-4.1,1.9-10.5,10.6-10.5h7.8v8.6h-5.6c-0.1,0-0.3,0-0.4,0c-1.2,0.2-2,1.2-1.8,2.4V39.5z"/>
	</defs>
	<clipPath id="SVGID_2_">
		<use xlink:href="#SVGID_1_"  style="overflow:visible;"/>
	</clipPath>
	<linearGradient id="SVGID_3_" gradientUnits="userSpaceOnUse" x1="-1.7" y1="49.6" x2="100.9" y2="49.6">
		<stop  offset="0" style="stop-color:#4FACFE"/>
		<stop  offset="0.9879" style="stop-color:#00F2FE"/>
	</linearGradient>
	<rect x="-1.7" y="-1.7" class="st0" width="102.6" height="102.6"/>
</g>
</svg>
