<?xml version="1.0" encoding="utf-8"?>
<!-- Generator: Adobe Illustrator 22.0.1, SVG Export Plug-In . SVG Version: 6.00 Build 0)  -->
<svg version="1.1" id="ig" xmlns="http://www.w3.org/2000/svg" xmlns:xlink="http://www.w3.org/1999/xlink" x="0px" y="0px"
	 viewBox="0 0 99.2 99.2" style="enable-background:new 0 0 99.2 99.2;" xml:space="preserve">
<style type="text/css">
	.st0{clip-path:url(#SVGID_2_);fill:url(#SVGID_3_);}
</style>
<g>
	<defs>
		<path id="SVGID_1_" d="M49.6,0.4c27.2,0,49.2,22,49.2,49.1c0,13.1-5.2,25.6-14.4,34.9c-19.2,19.2-50.4,19.1-69.6-0.1
			S-4.3,34,14.9,14.8C24.1,5.6,36.6,0.4,49.6,0.4z M81.7,17.5C64-0.2,35.2-0.2,17.5,17.6s-17.7,46.5,0,64.2s46.5,17.7,64.2,0
			C90.2,73.2,95,61.7,95,49.6C95,37.6,90.2,26,81.7,17.5z M37,49.6c0-7,5.7-12.6,12.6-12.6s12.6,5.7,12.6,12.6s-5.7,12.6-12.6,12.6
			C42.6,62.2,37,56.5,37,49.6z M62.6,25h-26C30.2,25,25,30.2,25,36.6v26c0,6.4,5.2,11.6,11.6,11.7h26c6.4,0,11.7-5.2,11.7-11.7v-26
			C74.2,30.2,69,25,62.6,25z M36.6,27.9h26c4.8,0,8.7,3.9,8.7,8.7v26c0,4.8-3.9,8.7-8.7,8.7h-26c-4.8,0-8.7-3.9-8.7-8.7v-26
			C27.9,31.8,31.8,27.9,36.6,27.9z M65.2,31.6c-1.4,0-2.6,1.1-2.6,2.6c0,1.4,1.1,2.6,2.6,2.6c1.4,0,2.6-1.1,2.6-2.6l0,0
			C67.8,32.7,66.6,31.6,65.2,31.6L65.2,31.6z M65.5,49.6c0-8.8-7.1-15.9-15.9-16c-8.8,0-15.9,7.1-16,15.9c0,8.8,7.1,15.9,15.9,16
			l0,0C58.4,65.5,65.5,58.4,65.5,49.6L65.5,49.6L65.5,49.6z"/>
	</defs>
	<clipPath id="SVGID_2_">
		<use xlink:href="#SVGID_1_"  style="overflow:visible;"/>
	</clipPath>
	<linearGradient id="SVGID_3_" gradientUnits="userSpaceOnUse" x1="-1.7" y1="49.6" x2="100.9" y2="49.6">
		<stop  offset="0" style="stop-color:#4FACFE"/>
		<stop  offset="0.9879" style="stop-color:#00F2FE"/>
	</linearGradient>
	<rect x="-1.7" y="-1.7" class="st0" width="102.6" height="102.6"/>
</g>
</svg>
