<?xml version="1.0" encoding="utf-8"?>
<!-- Generator: Adobe Illustrator 22.0.1, SVG Export Plug-In . SVG Version: 6.00 Build 0)  -->
<svg version="1.1" id="圖層_3" xmlns="http://www.w3.org/2000/svg" xmlns:xlink="http://www.w3.org/1999/xlink" x="0px" y="0px"
	 viewBox="0 0 99.2 99.2" style="enable-background:new 0 0 99.2 99.2;" xml:space="preserve">
<style type="text/css">
	.st0{clip-path:url(#SVGID_2_);fill:url(#SVGID_3_);}
</style>
<g>
	<defs>
		<path id="SVGID_1_" d="M49.6,0.4c27.2,0,49.2,22,49.2,49.2s-22,49.2-49.2,49.2S0.4,76.7,0.4,49.6c0-13,5.2-25.5,14.4-34.8
			C24.1,5.6,36.6,0.4,49.6,0.4z M81.7,17.5C63.9-0.1,35.2-0.1,17.6,17.7S0,64.1,17.7,81.8s46.4,17.6,64.1-0.1
			c8.5-8.5,13.2-20,13.2-32C95,37.6,90.2,26,81.7,17.5z M74.2,39.1c0,0-0.5-3.6-2-5.2c-1.3-1.4-3.1-2.2-5-2.2
			c-7-0.5-17.6-0.5-17.6-0.5h-0.1c0,0-10.5,0-17.5,0.5c-1.9,0.1-3.7,0.9-5,2.2c-1.5,1.6-2,5.2-2,5.2c-0.3,2.8-0.5,5.6-0.5,8.5v4
			c0,2.8,0.1,5.6,0.4,8.4c0,0,0.5,3.6,2,5.2c1.9,2.1,4.4,2,5.5,2.2c4,0.4,17.1,0.5,17.1,0.5s10.5,0,17.6-0.5c1.9,0,3.7-0.9,5-2.2
			c1.5-1.6,2-5.2,2-5.2c0.3-2.8,0.5-5.6,0.5-8.4v-4C74.7,43.4,74.2,39.1,74.2,39.1L74.2,39.1z M58,49l-13.6,7.3V41.7l6.2,3.3L58,49z
			"/>
	</defs>
	<clipPath id="SVGID_2_">
		<use xlink:href="#SVGID_1_"  style="overflow:visible;"/>
	</clipPath>
	<linearGradient id="SVGID_3_" gradientUnits="userSpaceOnUse" x1="-1.7" y1="49.6" x2="100.9" y2="49.6">
		<stop  offset="0" style="stop-color:#4FACFE"/>
		<stop  offset="0.9879" style="stop-color:#00F2FE"/>
	</linearGradient>
	<rect x="-1.7" y="-1.7" class="st0" width="102.6" height="102.6"/>
</g>
</svg>
