<?xml version="1.0" encoding="utf-8"?>
<!-- Generator: Adobe Illustrator 22.0.1, SVG Export Plug-In . SVG Version: 6.00 Build 0)  -->
<svg version="1.1" id="Capa_1" xmlns="http://www.w3.org/2000/svg" xmlns:xlink="http://www.w3.org/1999/xlink" x="0px" y="0px"
	 viewBox="0 0 887.5 199.1" style="enable-background:new 0 0 887.5 199.1;" xml:space="preserve">
<style type="text/css">
	.st0{fill:#FFFFFF;}
</style>
<path class="st0" d="M72.1,42.1h8.2c18.9,0,34.9,0.3,31.2,25.3c-3.6,24.2-21,24.2-38.6,24.2h-8.2L72.1,42.1z M0,198.9h48.6l9.8-65.8
	H86c42.4,0,69.3-20.5,76.3-67.3c6.8-45.5-18-65.2-58.2-65.2H29.6L0,198.9z"/>
<path class="st0" d="M365,10.1l-12.4,83h0.4c10.4-12.2,21.7-17.8,36.3-17.8c26.6,0,36.8,18.7,32.5,46.9l-10.2,68.2h-37.3l8.5-57.1
	c1.9-13,2.1-26.5-12.9-26.5c-14.8,0-21.5,13.5-23.4,26.5l-8.5,57.1h-37.3l26.9-180.3H365z"/>
<path class="st0" d="M499.7,109.6c15.2,0,22.3,11.5,20.2,25.2c-2.1,14.1-12.5,25-27.7,25c-15.1,0-22.3-10.9-20.2-25
	C474,121.1,484.5,109.6,499.7,109.6 M504.8,75.3c-33.8,0-66.5,21.5-72.2,59.5c-5.7,38,20.9,59.3,54.5,59.3
	c33.8,0,66.5-21.5,72.2-59.3C564.9,96.8,538.6,75.3,504.8,75.3"/>
<path class="st0" d="M615.5,92.9h0.4c10.7-12.4,22.3-17.6,35.8-17.6c15.2,0,27.3,6.5,32.7,21.3c9.2-13.9,24.5-21.3,38.8-21.3
	c26.6,0,33.1,18.4,29.3,44.1l-10.6,71h-37.3l7.9-53.2c1.7-11.5,5-30.4-10.8-30.4c-17.2,0-20.4,17.1-22.4,30.4l-7.9,53.2h-37.3
	l7.9-53.2c1.8-12.4,4.7-31.3-11.9-31.3c-16.6,0-19.4,18.9-21.3,31.3l-7.9,53.2h-37.3L580.3,79h37.3L615.5,92.9z"/>
<path class="st0" d="M803.1,118.5c4-11.5,13.9-17.6,24.8-17.6c10,0,18.2,6.9,18.5,17.6H803.1z M878.1,137.2
	c5.7-38-11.8-61.9-48.3-61.9c-34.2,0-61.5,22.4-67.1,59.5c-5.7,38.5,17.2,59.3,52,59.3c24,0,49.3-12,59.2-38.2h-35.9
	c-5.2,7.4-11.4,10.2-19.3,10.2c-15.4,0-22.1-8.7-19.7-24.8h78.5L878.1,137.2z"/>
<path class="st0" d="M305.3,68.6l8.8-58.8c-9.8-4.6-19.7-7.7-30.5-8.9l-7.2,47.8C288.6,50.8,299.2,57.6,305.3,68.6"/>
<path class="st0" d="M295.9,131.4c-9.5,10.2-22.3,17.2-35.1,19.3l-7.3,47.8c10.8-1.1,20.7-4.3,33.5-8.3L295.9,131.4z"/>
<path class="st0" d="M253.6,198.6l7.2-47.8c-2.6,0.4-5.3,0.7-7.9,0.7c-28.8,0-45-21.5-40.5-51.3c4.4-29.3,27-52.3,55.3-52.3
	c2.9,0,5.8,0.3,8.6,0.8l7.2-47.8c-3.4-0.4-6.8-0.6-10.4-0.6c-25.1,0-52,11.5-72.4,30.6c-19.8,18.5-32.7,43.3-36.5,69.1
	c-4.2,28.1,1.1,52.6,17.9,71.4c15.8,17.8,37.9,27.8,62.7,27.8C247.9,199.1,250.8,198.9,253.6,198.6"/>
<path class="st0" d="M576.1,8.2c7.3,0,11.4,6.9,10.4,13.8c-0.9,6.4-7.6,14.6-14.6,14.6c-7,0-11.2-8.2-10.3-14.6
	C562.6,15.1,568.8,8.2,576.1,8.2 M570.7,44.7c12.4,0,22.5-10.3,24.3-22.4C596.7,10.4,589.6,0,577.2,0c-12.4,0-22.5,10.4-24.3,22.3
	C551.2,34.5,558.3,44.7,570.7,44.7"/>
<polygon class="st0" points="630.5,0 636.5,0 654.5,29.7 654.6,29.7 658.8,1.1 667.1,1.1 660.7,44.4 654.7,44.4 636.7,14.7 
	636.6,14.7 632.3,43.6 624.1,43.6 "/>
<polygon class="st0" points="704.4,36.4 716.1,36.4 715,43.6 695,43.6 701.3,1.1 709.5,1.1 "/>
<polygon class="st0" points="754.1,43.6 745.8,43.6 752.1,1.1 760.4,1.1 "/>
<polygon class="st0" points="794.7,0 800.7,0 818.7,29.7 818.8,29.7 823,1.1 831.3,1.1 824.9,44.4 818.9,44.4 801,14.7 800.9,14.7 
	796.6,43.6 788.3,43.6 "/>
<polygon class="st0" points="872.7,8.3 871.4,17.7 884.5,17.7 883.5,24.9 870.3,24.9 868.6,36.4 882.3,36.4 881.2,43.6 859.2,43.6 
	865.5,1.1 887.5,1.1 886.4,8.3 "/>
</svg>
