<?xml version="1.0" encoding="utf-8"?>
<!-- Generator: Adobe Illustrator 22.0.1, SVG Export Plug-In . SVG Version: 6.00 Build 0)  -->
<svg version="1.1" id="圖層_1" xmlns="http://www.w3.org/2000/svg" xmlns:xlink="http://www.w3.org/1999/xlink" x="0px" y="0px"
	 viewBox="0 0 199.3 44.7" style="enable-background:new 0 0 199.3 44.7;" xml:space="preserve">
<style type="text/css">
	.st0{fill:#0075C1;}
	.st1{fill:#00AEEB;}
	.st2{fill:#9E9E9F;}
</style>
<path class="st0" d="M16.2,9.5H18c4.2,0,7.8,0.1,7,5.7c-0.8,5.4-4.7,5.4-8.7,5.4h-1.8L16.2,9.5z M0,44.7h10.9l2.2-14.8h6.2
	c9.5,0,15.6-4.6,17.1-15.1C38,4.6,32.4,0.1,23.4,0.1H6.7L0,44.7z"/>
<path class="st1" d="M82,2.3l-2.8,18.6h0.1c2.3-2.7,4.9-4,8.2-4c6,0,8.2,4.2,7.3,10.5l-2.3,15.3h-8.4L86,29.9
	c0.4-2.9,0.5-5.9-2.9-5.9c-3.3,0-4.8,3-5.3,5.9l-1.9,12.8h-8.4l6.1-40.5H82z"/>
<path class="st1" d="M112.2,24.6c3.4,0,5,2.6,4.5,5.7c-0.5,3.2-2.8,5.6-6.2,5.6c-3.4,0-5-2.4-4.5-5.6
	C106.5,27.2,108.8,24.6,112.2,24.6 M113.4,16.9c-7.6,0-14.9,4.8-16.2,13.4c-1.3,8.5,4.7,13.3,12.2,13.3c7.6,0,14.9-4.8,16.2-13.3
	C126.9,21.7,121,16.9,113.4,16.9"/>
<path class="st1" d="M138.3,20.9L138.3,20.9c2.5-2.8,5.1-4,8.1-4c3.4,0,6.1,1.5,7.3,4.8c2.1-3.1,5.5-4.8,8.7-4.8
	c6,0,7.4,4.2,6.6,9.9l-2.4,15.9h-8.4l1.8-12c0.4-2.6,1.1-6.8-2.4-6.8c-3.9,0-4.6,3.8-5,6.8l-1.8,12h-8.4l1.8-12c0.4-2.8,1.1-7-2.7-7
	c-3.7,0-4.4,4.2-4.8,7l-1.8,12h-8.4l3.7-25h8.4L138.3,20.9z"/>
<path class="st1" d="M180.4,26.6c0.9-2.6,3.1-4,5.6-4c2.3,0,4.1,1.6,4.2,4H180.4z M197.3,30.8c1.3-8.5-2.7-13.9-10.9-13.9
	c-7.7,0-13.8,5-15.1,13.4c-1.3,8.6,3.8,13.3,11.7,13.3c5.4,0,11.1-2.7,13.3-8.6h-8.1c-1.2,1.7-2.6,2.3-4.4,2.3c-3.4,0-5-2-4.4-5.6
	h17.6L197.3,30.8z"/>
<path class="st1" d="M68.6,15.4l2-13.2c-2.2-1-4.4-1.7-6.9-2l-1.6,10.7C64.8,11.4,67.2,12.9,68.6,15.4"/>
<path class="st1" d="M66.5,29.5c-2.1,2.3-5,3.9-7.9,4.3L57,44.6c2.4-0.3,4.7-1,7.5-1.8L66.5,29.5z"/>
<path class="st0" d="M57,44.6l1.6-10.7C58,34,57.4,34,56.8,34c-6.5,0-10.1-4.8-9.1-11.5c1-6.6,6.1-11.8,12.4-11.8
	c0.7,0,1.3,0.1,1.9,0.2l1.6-10.7C62.9,0.1,62.2,0,61.4,0c-5.6,0-11.7,2.6-16.3,6.9c-4.4,4.2-7.3,9.7-8.2,15.5
	c-0.9,6.3,0.3,11.8,4,16c3.5,4,8.5,6.2,14.1,6.2C55.7,44.7,56.3,44.7,57,44.6"/>
<path class="st2" d="M129.4,1.8c1.6,0,2.6,1.6,2.3,3.1c-0.2,1.4-1.7,3.3-3.3,3.3c-1.6,0-2.5-1.8-2.3-3.3
	C126.4,3.4,127.8,1.8,129.4,1.8 M128.2,10c2.8,0,5.1-2.3,5.5-5c0.4-2.7-1.2-5-4-5c-2.8,0-5.1,2.3-5.4,5C123.8,7.7,125.4,10,128.2,10
	"/>
<polygon class="st2" points="141.6,0 143,0 147,6.7 147,6.7 148,0.3 149.8,0.3 148.4,10 147.1,10 143,3.3 143,3.3 142,9.8 
	140.2,9.8 "/>
<polygon class="st2" points="158.2,8.2 160.8,8.2 160.6,9.8 156.1,9.8 157.5,0.3 159.4,0.3 "/>
<polygon class="st2" points="169.4,9.8 167.5,9.8 168.9,0.3 170.8,0.3 "/>
<polygon class="st2" points="178.5,0 179.9,0 183.9,6.7 183.9,6.7 184.9,0.3 186.7,0.3 185.3,10 184,10 179.9,3.3 179.9,3.3 
	178.9,9.8 177.1,9.8 "/>
<polygon class="st2" points="196,1.9 195.7,4 198.7,4 198.5,5.6 195.5,5.6 195.1,8.2 198.2,8.2 197.9,9.8 193,9.8 194.4,0.3 
	199.3,0.3 199.1,1.9 "/>
</svg>
