<?xml version="1.0" encoding="utf-8"?>
<!-- Generator: Adobe Illustrator 22.1.0, SVG Export Plug-In . SVG Version: 6.00 Build 0)  -->
<svg version="1.1" id="圖層_1" xmlns="http://www.w3.org/2000/svg" xmlns:xlink="http://www.w3.org/1999/xlink" x="0px" y="0px"
	 viewBox="0 0 30 30" style="enable-background:new 0 0 30 30;" xml:space="preserve">
<style type="text/css">
	.st0{fill:#727171;}
	.st1{fill:#FFFFFF;}
</style>
<g id="hHAwF2_1_">
</g>
<g>
	<path class="st0" d="M11.8,7.1c-0.2-0.1-0.4-0.1-0.5,0c-0.2,0-0.3,0.2-0.3,0.4v15c0,0.2,0.1,0.4,0.3,0.4c0.1,0,0.2,0.1,0.2,0.1
		c0.1,0,0.2,0,0.3-0.1l11-7.5c0.1-0.1,0.2-0.2,0.2-0.4s-0.1-0.3-0.2-0.4L11.8,7.1z"/>
	<path class="st1" d="M15,0C6.7,0,0,6.7,0,15s6.7,15,15,15s15-6.7,15-15S23.3,0,15,0z M22.8,15.4l-11,7.5C11.7,23,11.6,23,11.5,23
		s-0.2,0-0.2-0.1c-0.2-0.1-0.3-0.3-0.3-0.4v-15c0-0.2,0.1-0.4,0.3-0.4c0.2-0.1,0.4-0.1,0.5,0l11,7.5c0.1,0.1,0.2,0.2,0.2,0.4
		S22.9,15.3,22.8,15.4z"/>
</g>
</svg>
