<?xml version="1.0" encoding="utf-8"?>
<!-- Generator: Adobe Illustrator 20.0.0, SVG Export Plug-In . SVG Version: 6.00 Build 0)  -->
<svg version="1.1" id="圖層_1" xmlns="http://www.w3.org/2000/svg" xmlns:xlink="http://www.w3.org/1999/xlink" x="0px" y="0px"
	 viewBox="0 0 61 78.7" style="enable-background:new 0 0 61 78.7;" xml:space="preserve">
<style type="text/css">
	.st0{display:none;}
	.st1{display:inline;fill:#FFFFFF;}
	.st2{display:inline;}
	.st3{fill:#D6000F;}
	.st4{fill:#FFFFFF;}
	.st5{font-family:'LiHeiPro';}
	.st6{font-size:9.6372px;}
	.st7{font-family:'MicrosoftJhengHeiBold';}
	.st8{font-size:13px;}
	.st9{letter-spacing:1;}
	.st10{clip-path:url(#SVGID_2_);}
	.st11{fill:#D7000F;}
	.st12{fill:#9E9E9F;}
	.st13{fill:#0075C1;}
	.st14{fill:#00AEEB;}
</style>
<g id="copy_2" class="st0">
	<path class="st1" d="M32.5,25.8c-0.6,0.6-0.6,1.5,0,2.1l0,0c2.4,2.4,2.4,6.3,0,8.7L20,49.2c-2.4,2.4-6.3,2.4-8.6,0l0,0l-1.9-1.9
		c-2.4-2.4-2.4-6.3,0-8.7L22,26c0.6-0.6,0.6-1.5,0-2.1s-1.5-0.6-2.1,0l0,0L7.4,36.5c-3.5,3.6-3.5,9.3,0,12.9l1.9,1.9
		c3.5,3.5,9.3,3.5,12.8,0l0,0l12.5-12.6c3.5-3.6,3.5-9.3,0-12.9C34,25.3,33.1,25.3,32.5,25.8L32.5,25.8z M54.7,9.3l-1.9-1.9
		c-3.5-3.5-9.3-3.5-12.8,0l0,0L27.4,20c-3.5,3.6-3.5,9.3,0,12.9c0.6,0.6,1.5,0.6,2.1,0s0.6-1.5,0-2.1l0,0c-2.4-2.4-2.4-6.3,0-8.7
		L42,9.5c2.4-2.4,6.3-2.4,8.6,0l0,0l1.9,1.9c2.4,2.4,2.4,6.3,0,8.7L40.1,32.7c-0.6,0.6-0.6,1.5,0,2.1c0.3,0.3,0.6,0.4,1,0.4
		s0.8-0.2,1-0.4l12.5-12.6C58.2,18.6,58.2,12.9,54.7,9.3z"/>
</g>
<g id="圖層_2" class="st0">
	<g class="st2">
		<circle class="st3" cx="30" cy="29.9" r="28.7"/>
	</g>
	<g class="st2">
		<g>
			<path class="st4" d="M17.7,39c-0.1,0-0.2,0-0.3,0c-0.9-0.2-1.5-1-1.4-1.9l2.3-14.2c0.2-0.9,1-1.5,1.9-1.4c0.9,0.2,1.5,1,1.4,1.9
				l-2.3,14.2C19.2,38.4,18.5,39,17.7,39z"/>
		</g>
		<g>
			<path class="st4" d="M22.9,35.3c-0.9,0-1.7-0.8-1.7-1.7s0.8-1.7,1.7-1.7c3.6,0,6.5-2.9,6.5-6.5s-2.9-6.5-6.5-6.5
				c-1.4,0-2.8,0.5-3.9,1.3c-0.7,0.6-1.8,0.4-2.4-0.3c-0.6-0.7-0.4-1.8,0.3-2.4c1.7-1.3,3.8-2,6-2c5.5,0,9.9,4.4,9.9,9.9
				S28.4,35.3,22.9,35.3z"/>
		</g>
		<g>
			<path class="st4" d="M35,42.6c-0.5,0-1.1-0.3-1.4-0.7c-0.5-0.8-0.3-1.8,0.4-2.3c4.7-3.3,7.5-8.6,7.5-14.2s-2.8-10.9-7.4-14.1
				c-0.8-0.5-1-1.6-0.4-2.3c0.5-0.8,1.6-1,2.3-0.4c5.5,3.8,8.9,10.1,8.9,16.8s-3.3,13-8.9,16.9C35.7,42.5,35.4,42.6,35,42.6z"/>
		</g>
		<g>
			<path class="st4" d="M30.5,38.7c-0.6,0-1.1-0.3-1.5-0.8c-0.5-0.8-0.2-1.8,0.6-2.3c3.6-2.1,5.9-6,5.9-10.2s-2.2-8.1-5.8-10.2
				c-0.8-0.5-1.1-1.5-0.6-2.3s1.5-1.1,2.3-0.6C36,15,38.9,20,38.9,25.4S36,35.8,31.3,38.5C31,38.7,30.7,38.7,30.5,38.7z"/>
		</g>
	</g>
	<text transform="matrix(1 0 0 1 20.8428 52.7266)" class="st1 st5 st6">感應</text>
</g>
<g>
	<g>
		<text transform="matrix(1 0 0 1 3.3546 74.8542)" class="st3 st7 st8 st9">我要獲得</text>
	</g>
	<g>
		<g>
			<g>
				<defs>
					<circle id="SVGID_1_" cx="30.5" cy="30.5" r="29.1"/>
				</defs>
				<use xlink:href="#SVGID_1_"  style="overflow:visible;fill:#FFFFFF;"/>
				<clipPath id="SVGID_2_">
					<use xlink:href="#SVGID_1_"  style="overflow:visible;"/>
				</clipPath>
				<g class="st10">
					<g>
						<path class="st11" d="M-0.7,39.1h62.5c0.1-0.3,0.2-0.7,0.3-1H-1C-0.9,38.4-0.8,38.7-0.7,39.1z"/>
					</g>
					<g>
						<path class="st11" d="M62.4,36.5H-1.3c0,0.1,0,0.2,0.1,0.3h63.6C62.3,36.7,62.3,36.6,62.4,36.5z"/>
					</g>
					<g>
						<path class="st11" d="M-1.2,37.1c0,0.2,0.1,0.4,0.1,0.6h63.1c0-0.2,0.1-0.4,0.1-0.6H-1.2z"/>
					</g>
					<g>
						<path class="st11" d="M30.5,62.9c14.8,0,27.3-9.9,31.2-23.5H-0.7C3.2,53,15.7,62.9,30.5,62.9z"/>
					</g>
				</g>
				<g class="st10">
					<path class="st11" d="M34,12.4h-7.1c-0.8,0-1.5-0.7-1.5-1.5v-1c0-0.8,0.7-1.5,1.5-1.5H34c0.8,0,1.5,0.7,1.5,1.5v1
						C35.5,11.7,34.8,12.4,34,12.4z"/>
				</g>
				<g class="st10">
					<path class="st4" d="M26.9,11.8V9.1h0.5l1.1,1.8V9.1h0.5v2.7h-0.6L27.4,10v1.8H26.9z"/>
					<path class="st4" d="M29.7,11.8V9.1h1.9v0.5h-1.3v0.6h1.1v0.5h-1.1v1.2H29.7z"/>
					<path class="st4" d="M33.8,10.8l0.5,0.2c-0.1,0.3-0.2,0.5-0.4,0.7c-0.2,0.1-0.4,0.2-0.7,0.2c-0.4,0-0.7-0.1-0.9-0.4
						s-0.3-0.6-0.3-1c0-0.5,0.1-0.8,0.4-1.1S32.8,9,33.2,9c0.3,0,0.6,0.1,0.8,0.3c0.1,0.1,0.2,0.3,0.3,0.5L33.7,10
						c0-0.1-0.1-0.3-0.2-0.3c-0.1-0.1-0.2-0.1-0.4-0.1c-0.2,0-0.4,0.1-0.5,0.2c-0.1,0.1-0.2,0.4-0.2,0.7c0,0.3,0.1,0.6,0.2,0.7
						s0.3,0.2,0.5,0.2c0.1,0,0.3,0,0.4-0.1C33.6,11.1,33.7,11,33.8,10.8z"/>
				</g>
				<use xlink:href="#SVGID_1_"  style="overflow:visible;fill:none;stroke:#D6000F;stroke-width:1.4139;stroke-miterlimit:10;"/>
			</g>
			<g>
				<g>
					<g>
						<path class="st12" d="M27,48.6l-0.2-0.4c0.6-0.2,1-0.4,1.2-0.8h-1l0-0.4h1.1l0-0.1l0.1-0.5h-0.5c-0.1,0.1-0.2,0.3-0.4,0.5
							c-0.1-0.1-0.2-0.2-0.3-0.3c0.3-0.2,0.5-0.5,0.6-0.9l0.4,0.2L28,46.1h1.5l0,0.4h-0.8l-0.1,0.5l0,0.1h0.9l0,0.4h-0.9
							c0.3,0.2,0.5,0.4,0.8,0.6l-0.3,0.4c-0.2-0.2-0.5-0.4-0.8-0.7C28,48,27.6,48.4,27,48.6z M30.7,50.6h-3.4c0,0-0.1,0-0.1-0.1
							l0.2-2c0,0,0-0.1,0.1-0.1h3.4c0,0,0.1,0,0.1,0.1L30.7,50.6C30.7,50.6,30.7,50.6,30.7,50.6z M27.8,49.7l-0.1,0.4c0,0,0,0,0,0
							h2.6l0,0l0-0.4H27.8z M30.5,49.3l0.1-0.4c0,0,0,0,0,0h-2.6c0,0,0,0,0,0l-0.1,0.4H30.5z M31.4,48.2h-1.7c0,0-0.1,0,0-0.1
							l0.2-2.1c0,0,0-0.1,0.1-0.1h1.7c0,0,0.1,0,0.1,0.1L31.4,48.2C31.4,48.1,31.4,48.2,31.4,48.2z M30.2,46.4
							C30.2,46.4,30.2,46.4,30.2,46.4l-0.2,1.4l0,0h1l0,0l0.2-1.4l0,0H30.2z"/>
						<path class="st12" d="M32.8,49.9c-0.2,0.4-0.5,0.6-0.8,0.8c-0.1-0.2-0.1-0.3-0.2-0.3c0.2-0.2,0.4-0.4,0.6-0.7L32.8,49.9z
							 M36.1,49.3c0,0.1-0.1,0.1-0.1,0.1h-3.2l0-0.4h2.9c0,0,0,0,0,0l0-0.2H32l0-0.4h3.7l0-0.2c0,0,0,0,0,0h-2.9l0-0.4h3.3
							c0.1,0,0.1,0,0.1,0.1l-0.1,0.5h0.7l0,0.4h-0.7L36.1,49.3z M32.3,47.6l0-0.4l0.9,0l0-0.3h-0.8l0-0.4h0.8l0-0.2h-0.9l0-0.4h0.9
							l0-0.3h0.4l0,0.3h0.8l0,0.4h-0.8l0,0.2h0.7l0,0.4h-0.7l0,0.2c0.3,0,0.5-0.1,0.7-0.1l0,0.4c-0.2,0-0.4,0.1-0.8,0.1l0,0.2h-0.4
							l0-0.2L32.3,47.6z M35,50.3c0.1,0,0.1,0,0.2,0c0,0,0.1,0,0.1-0.1l0-0.3l0.4,0c0,0.4-0.1,0.6-0.2,0.7c-0.1,0.1-0.3,0.2-0.5,0.2
							h-1.7c-0.1,0-0.2,0-0.3-0.1C33,50.5,33,50.3,33,50l0.1-0.5h0.4L33.4,50c0,0.1,0,0.2,0,0.2c0,0.1,0.1,0.1,0.2,0.1h0.8
							c-0.1-0.2-0.3-0.4-0.4-0.5l0.3-0.3c0.1,0.1,0.3,0.3,0.4,0.5l-0.3,0.2H35z M34.6,47.6l0-0.4h1l0-0.2h-0.8l0-0.4h0.8l0-0.2h-0.8
							l0-0.4h0.8l0-0.3h0.4l0,0.3H37l0,0.4h-0.9l0,0.2h0.8l0,0.4H36l0,0.2h1l0,0.4h-1l0,0.2h-0.4l0-0.2H34.6z M36.2,49.6
							c0.1,0.2,0.3,0.5,0.4,0.9l-0.4,0.2c-0.1-0.4-0.2-0.7-0.4-0.8L36.2,49.6z"/>
						<path class="st12" d="M38.1,50.7h-0.4l0.3-2.1c-0.1,0.2-0.2,0.4-0.3,0.6l-0.4-0.1c0.4-0.6,0.7-1.2,0.8-1.8h-0.5l0.1-0.5h0.6
							l0.1-1h0.4l-0.1,1H39l-0.1,0.5h-0.4l0,0.1c0.2,0.3,0.3,0.7,0.5,1l-0.4,0.2l-0.2-0.4L38.1,50.7z M39.5,49.8
							c-0.4,0.4-0.7,0.6-1,0.8l-0.2-0.4c0.4-0.2,0.7-0.4,0.9-0.7L39.5,49.8z M38.7,49.4l0.1-0.4H42L42,49.4h-1.4l-0.1,0.8
							c0,0.2-0.1,0.4-0.3,0.5c-0.2,0.1-0.5,0.1-0.9-0.1l0.1-0.5l0.3,0.1c0.2,0,0.3,0,0.3,0c0,0,0.1-0.1,0.1-0.2l0.1-0.7H38.7z
							 M42.2,46.6C42.2,46.6,42.2,46.7,42.2,46.6l-0.1,1.3c0,0,0,0.1-0.1,0.1h-2.9c0,0-0.1,0,0-0.1l0.1-1.2c0,0,0-0.1,0.1-0.1h0.8
							l0-0.3h-1l0-0.4h3.2l0,0.4h-1l0,0.3H42.2z M41.9,48.2l-0.1,0.4h-2.7l0.1-0.4H41.9z M40,47.1h-0.4c0,0,0,0,0,0l-0.1,0.5l0,0
							h0.4L40,47.1z M40.9,47.1h-0.4l-0.1,0.5h0.4L40.9,47.1z M41,46.3h-0.4l0,0.3h0.4L41,46.3z M41.2,49.6c0.2,0.2,0.5,0.4,0.7,0.7
							l-0.3,0.3c-0.3-0.3-0.5-0.6-0.7-0.7L41.2,49.6z M41.2,47.6h0.4l0,0l0.1-0.5l0,0h-0.4L41.2,47.6z"/>
						<path class="st12" d="M42.4,50.5l0-0.4l1.1-0.1l0-0.4h-1l0-0.3h1l0-0.3h-1l0-0.3h1l0-0.3h-1l0-0.3h1l0-0.3h-1l0-0.4h1.3
							l-0.4-0.3c-0.1,0.1-0.3,0.2-0.4,0.3l-0.2-0.3c0.3-0.1,0.5-0.3,0.7-0.6l0.3,0.2L43.9,47l0.4,0.3l-0.2,0.3h1.9l0-0.7l0.4,0
							l0,0.7h1.1l0,0.4h-1.1c0,0.5,0,0.9,0.1,1.2c0.1-0.1,0.2-0.4,0.4-0.8l0.4,0.1c-0.2,0.5-0.4,0.9-0.6,1.3l0.1,0.5
							c0,0.1,0.1,0.2,0.1,0.2c0,0,0,0,0.1-0.1c0-0.2,0.1-0.4,0.1-0.6l0.4,0.1c-0.1,0.4-0.1,0.7-0.3,0.9c-0.1,0.1-0.1,0.1-0.1,0.1
							c0,0-0.1,0-0.1,0c-0.1,0-0.2-0.1-0.3-0.2c-0.1-0.2-0.2-0.4-0.2-0.6c-0.4,0.3-0.6,0.6-0.9,0.7L45,50.4l0.1-0.1L42.4,50.5z
							 M43.5,46.4c-0.1,0.2-0.3,0.3-0.5,0.5c-0.1-0.2-0.1-0.3-0.2-0.3c0.3-0.2,0.6-0.5,0.8-0.8l0.3,0.2l-0.1,0.1h1.3l0,0.4h-0.6
							l0.1,0.2l-0.3,0.2L44,46.4H43.5z M44.3,50l0.3-2.1h-0.4L43.9,50L44.3,50z M44.7,47.5l-0.2-0.3c0.2-0.2,0.4-0.3,0.6-0.6
							l0.3,0.2L45.2,47l0.4,0.3l-0.2,0.3L45,47.2L44.7,47.5z M46.1,49.5c-0.1-0.5-0.1-1-0.2-1.6h-1l0,0.3h0.8l0,0.3h-0.8l0,0.3h0.8
							l0,0.3h-0.8l0,0.3h0.8l0,0.3h-0.8l0,0.3l0.7,0l0,0.2l0.5-0.4L46.1,49.5z M45.7,46.4L45.7,46.4c-0.1,0.2-0.3,0.3-0.4,0.4
							c-0.1-0.2-0.1-0.3-0.2-0.3c0.3-0.2,0.5-0.5,0.7-0.8l0.3,0.2L46,46.1h1.7l0,0.4h-1l0.1,0.2l-0.3,0.2l-0.1-0.4H45.7z M46.9,46.7
							c0.1,0.1,0.3,0.2,0.5,0.4L47,47.4c-0.2-0.2-0.3-0.3-0.4-0.4L46.9,46.7z"/>
					</g>
					<g>
						<path class="st4" d="M27,48.6l-0.2-0.4c0.6-0.2,1-0.4,1.2-0.8h-1l0-0.4h1.1l0-0.1l0.1-0.5h-0.5c-0.1,0.1-0.2,0.3-0.4,0.5
							c-0.1-0.1-0.2-0.2-0.3-0.3c0.3-0.2,0.5-0.5,0.6-0.9l0.4,0.2L28,46.1h1.5l0,0.4h-0.8l-0.1,0.5l0,0.1h0.9l0,0.4h-0.9
							c0.3,0.2,0.5,0.4,0.8,0.6l-0.3,0.4c-0.2-0.2-0.5-0.4-0.8-0.7C28,48,27.6,48.4,27,48.6z M30.7,50.6h-3.4c0,0-0.1,0-0.1-0.1
							l0.2-2c0,0,0-0.1,0.1-0.1h3.4c0,0,0.1,0,0.1,0.1L30.7,50.6C30.7,50.6,30.7,50.6,30.7,50.6z M27.8,49.7l-0.1,0.4c0,0,0,0,0,0
							h2.6l0,0l0-0.4H27.8z M30.5,49.3l0.1-0.4c0,0,0,0,0,0h-2.6c0,0,0,0,0,0l-0.1,0.4H30.5z M31.4,48.2h-1.7c0,0-0.1,0,0-0.1
							l0.2-2.1c0,0,0-0.1,0.1-0.1h1.7c0,0,0.1,0,0.1,0.1L31.4,48.2C31.4,48.1,31.4,48.2,31.4,48.2z M30.2,46.4
							C30.2,46.4,30.2,46.4,30.2,46.4l-0.2,1.4l0,0h1l0,0l0.2-1.4l0,0H30.2z"/>
						<path class="st4" d="M32.8,49.9c-0.2,0.4-0.5,0.6-0.8,0.8c-0.1-0.2-0.1-0.3-0.2-0.3c0.2-0.2,0.4-0.4,0.6-0.7L32.8,49.9z
							 M36.1,49.3c0,0.1-0.1,0.1-0.1,0.1h-3.2l0-0.4h2.9c0,0,0,0,0,0l0-0.2H32l0-0.4h3.7l0-0.2c0,0,0,0,0,0h-2.9l0-0.4h3.3
							c0.1,0,0.1,0,0.1,0.1l-0.1,0.5h0.7l0,0.4h-0.7L36.1,49.3z M32.3,47.6l0-0.4l0.9,0l0-0.3h-0.8l0-0.4h0.8l0-0.2h-0.9l0-0.4h0.9
							l0-0.3h0.4l0,0.3h0.8l0,0.4h-0.8l0,0.2h0.7l0,0.4h-0.7l0,0.2c0.3,0,0.5-0.1,0.7-0.1l0,0.4c-0.2,0-0.4,0.1-0.8,0.1l0,0.2h-0.4
							l0-0.2L32.3,47.6z M35,50.3c0.1,0,0.1,0,0.2,0c0,0,0.1,0,0.1-0.1l0-0.3l0.4,0c0,0.4-0.1,0.6-0.2,0.7c-0.1,0.1-0.3,0.2-0.5,0.2
							h-1.7c-0.1,0-0.2,0-0.3-0.1C33,50.5,33,50.3,33,50l0.1-0.5h0.4L33.4,50c0,0.1,0,0.2,0,0.2c0,0.1,0.1,0.1,0.2,0.1h0.8
							c-0.1-0.2-0.3-0.4-0.4-0.5l0.3-0.3c0.1,0.1,0.3,0.3,0.4,0.5l-0.3,0.2H35z M34.6,47.6l0-0.4h1l0-0.2h-0.8l0-0.4h0.8l0-0.2h-0.8
							l0-0.4h0.8l0-0.3h0.4l0,0.3H37l0,0.4h-0.9l0,0.2h0.8l0,0.4H36l0,0.2h1l0,0.4h-1l0,0.2h-0.4l0-0.2H34.6z M36.2,49.6
							c0.1,0.2,0.3,0.5,0.4,0.9l-0.4,0.2c-0.1-0.4-0.2-0.7-0.4-0.8L36.2,49.6z"/>
						<path class="st4" d="M38.1,50.7h-0.4l0.3-2.1c-0.1,0.2-0.2,0.4-0.3,0.6l-0.4-0.1c0.4-0.6,0.7-1.2,0.8-1.8h-0.5l0.1-0.5h0.6
							l0.1-1h0.4l-0.1,1H39l-0.1,0.5h-0.4l0,0.1c0.2,0.3,0.3,0.7,0.5,1l-0.4,0.2l-0.2-0.4L38.1,50.7z M39.5,49.8
							c-0.4,0.4-0.7,0.6-1,0.8l-0.2-0.4c0.4-0.2,0.7-0.4,0.9-0.7L39.5,49.8z M38.7,49.4l0.1-0.4H42L42,49.4h-1.4l-0.1,0.8
							c0,0.2-0.1,0.4-0.3,0.5c-0.2,0.1-0.5,0.1-0.9-0.1l0.1-0.5l0.3,0.1c0.2,0,0.3,0,0.3,0c0,0,0.1-0.1,0.1-0.2l0.1-0.7H38.7z
							 M42.2,46.6C42.2,46.6,42.2,46.7,42.2,46.6l-0.1,1.3c0,0,0,0.1-0.1,0.1h-2.9c0,0-0.1,0,0-0.1l0.1-1.2c0,0,0-0.1,0.1-0.1h0.8
							l0-0.3h-1l0-0.4h3.2l0,0.4h-1l0,0.3H42.2z M41.9,48.2l-0.1,0.4h-2.7l0.1-0.4H41.9z M40,47.1h-0.4c0,0,0,0,0,0l-0.1,0.5l0,0
							h0.4L40,47.1z M40.9,47.1h-0.4l-0.1,0.5h0.4L40.9,47.1z M41,46.3h-0.4l0,0.3h0.4L41,46.3z M41.2,49.6c0.2,0.2,0.5,0.4,0.7,0.7
							l-0.3,0.3c-0.3-0.3-0.5-0.6-0.7-0.7L41.2,49.6z M41.2,47.6h0.4l0,0l0.1-0.5l0,0h-0.4L41.2,47.6z"/>
						<path class="st4" d="M42.4,50.5l0-0.4l1.1-0.1l0-0.4h-1l0-0.3h1l0-0.3h-1l0-0.3h1l0-0.3h-1l0-0.3h1l0-0.3h-1l0-0.4h1.3
							l-0.4-0.3c-0.1,0.1-0.3,0.2-0.4,0.3l-0.2-0.3c0.3-0.1,0.5-0.3,0.7-0.6l0.3,0.2L43.9,47l0.4,0.3l-0.2,0.3h1.9l0-0.7l0.4,0
							l0,0.7h1.1l0,0.4h-1.1c0,0.5,0,0.9,0.1,1.2c0.1-0.1,0.2-0.4,0.4-0.8l0.4,0.1c-0.2,0.5-0.4,0.9-0.6,1.3l0.1,0.5
							c0,0.1,0.1,0.2,0.1,0.2c0,0,0,0,0.1-0.1c0-0.2,0.1-0.4,0.1-0.6l0.4,0.1c-0.1,0.4-0.1,0.7-0.3,0.9c-0.1,0.1-0.1,0.1-0.1,0.1
							c0,0-0.1,0-0.1,0c-0.1,0-0.2-0.1-0.3-0.2c-0.1-0.2-0.2-0.4-0.2-0.6c-0.4,0.3-0.6,0.6-0.9,0.7L45,50.4l0.1-0.1L42.4,50.5z
							 M43.5,46.4c-0.1,0.2-0.3,0.3-0.5,0.5c-0.1-0.2-0.1-0.3-0.2-0.3c0.3-0.2,0.6-0.5,0.8-0.8l0.3,0.2l-0.1,0.1h1.3l0,0.4h-0.6
							l0.1,0.2l-0.3,0.2L44,46.4H43.5z M44.3,50l0.3-2.1h-0.4L43.9,50L44.3,50z M44.7,47.5l-0.2-0.3c0.2-0.2,0.4-0.3,0.6-0.6
							l0.3,0.2L45.2,47l0.4,0.3l-0.2,0.3L45,47.2L44.7,47.5z M46.1,49.5c-0.1-0.5-0.1-1-0.2-1.6h-1l0,0.3h0.8l0,0.3h-0.8l0,0.3h0.8
							l0,0.3h-0.8l0,0.3h0.8l0,0.3h-0.8l0,0.3l0.7,0l0,0.2l0.5-0.4L46.1,49.5z M45.7,46.4L45.7,46.4c-0.1,0.2-0.3,0.3-0.4,0.4
							c-0.1-0.2-0.1-0.3-0.2-0.3c0.3-0.2,0.5-0.5,0.7-0.8l0.3,0.2L46,46.1h1.7l0,0.4h-1l0.1,0.2l-0.3,0.2l-0.1-0.4H45.7z M46.9,46.7
							c0.1,0.1,0.3,0.2,0.5,0.4L47,47.4c-0.2-0.2-0.3-0.3-0.4-0.4L46.9,46.7z"/>
					</g>
				</g>
				<g>
					<g>
						<path class="st4" d="M16.5,51.8C16.5,51.8,16.5,51.8,16.5,51.8c-0.4-0.1-0.6-0.3-0.5-0.6l0.7-4.6c0-0.3,0.3-0.5,0.6-0.4
							c0.3,0,0.5,0.3,0.4,0.6L17,51.3C17,51.6,16.8,51.8,16.5,51.8z"/>
					</g>
					<g>
						<path class="st4" d="M18.2,50.6c-0.3,0-0.5-0.2-0.5-0.5c0-0.3,0.2-0.5,0.5-0.5c1.2,0,2.1-0.9,2.1-2.1c0-1.2-0.9-2.1-2.1-2.1
							c-0.5,0-0.9,0.1-1.3,0.4c-0.2,0.2-0.6,0.1-0.8-0.1C16,45.3,16,45,16.3,44.8c0.6-0.4,1.2-0.6,1.9-0.6c1.8,0,3.2,1.4,3.2,3.2
							S20,50.6,18.2,50.6z"/>
					</g>
					<g>
						<path class="st4" d="M22.1,52.9c-0.2,0-0.3-0.1-0.4-0.2c-0.2-0.2-0.1-0.6,0.1-0.8c1.5-1,2.4-2.7,2.4-4.5
							c0-1.8-0.9-3.5-2.4-4.5c-0.2-0.2-0.3-0.5-0.1-0.8c0.2-0.2,0.5-0.3,0.8-0.1c1.8,1.2,2.9,3.3,2.9,5.4c0,2.2-1.1,4.2-2.9,5.4
							C22.3,52.9,22.2,52.9,22.1,52.9z"/>
					</g>
					<g>
						<path class="st4" d="M20.6,51.7c-0.2,0-0.4-0.1-0.5-0.3c-0.2-0.3-0.1-0.6,0.2-0.7c1.2-0.7,1.9-1.9,1.9-3.3
							c0-1.3-0.7-2.6-1.9-3.3c-0.3-0.2-0.3-0.5-0.2-0.7c0.2-0.3,0.5-0.3,0.7-0.2c1.5,0.9,2.4,2.5,2.4,4.2c0,1.7-0.9,3.4-2.4,4.2
							C20.8,51.6,20.7,51.7,20.6,51.7z"/>
					</g>
				</g>
			</g>
			<g>
				<g>
					<path class="st13" d="M11.5,22.2H12c1,0,1.8,0,1.6,1.3c-0.2,1.3-1.1,1.3-2,1.3h-0.4L11.5,22.2z M7.8,30.4h2.5l0.5-3.4h1.4
						c2.2,0,3.6-1.1,4-3.5c0.4-2.4-0.9-3.4-3-3.4H9.3L7.8,30.4z"/>
					<path class="st14" d="M26.8,20.6l-0.6,4.3h0c0.5-0.6,1.1-0.9,1.9-0.9c1.4,0,1.9,1,1.7,2.4L29.2,30h-1.9l0.4-3
						c0.1-0.7,0.1-1.4-0.7-1.4c-0.8,0-1.1,0.7-1.2,1.4l-0.4,3h-1.9l1.4-9.4H26.8z"/>
					<path class="st14" d="M33.8,25.7c0.8,0,1.2,0.6,1.1,1.3c-0.1,0.7-0.7,1.3-1.4,1.3c-0.8,0-1.2-0.6-1.1-1.3
						C32.5,26.3,33,25.7,33.8,25.7z M34.1,24c-1.8,0-3.5,1.1-3.8,3.1c-0.3,2,1.1,3.1,2.8,3.1c1.8,0,3.5-1.1,3.8-3.1
						C37.2,25.1,35.9,24,34.1,24z"/>
					<path class="st14" d="M39.9,24.9L39.9,24.9c0.6-0.6,1.2-0.9,1.9-0.9c0.8,0,1.4,0.3,1.7,1.1c0.5-0.7,1.3-1.1,2-1.1
						c1.4,0,1.7,1,1.5,2.3L46.5,30h-1.9l0.4-2.8c0.1-0.6,0.3-1.6-0.6-1.6c-0.9,0-1.1,0.9-1.2,1.6L42.8,30h-1.9l0.4-2.8
						c0.1-0.6,0.2-1.6-0.6-1.6c-0.9,0-1,1-1.1,1.6L39.1,30h-1.9l0.9-5.8H40L39.9,24.9z"/>
					<path class="st14" d="M49.7,26.2c0.2-0.6,0.7-0.9,1.3-0.9c0.5,0,1,0.4,1,0.9H49.7z M53.6,27.2c0.3-2-0.6-3.2-2.5-3.2
						c-1.8,0-3.2,1.2-3.5,3.1c-0.3,2,0.9,3.1,2.7,3.1c1.3,0,2.6-0.6,3.1-2h-1.9c-0.3,0.4-0.6,0.5-1,0.5c-0.8,0-1.2-0.5-1-1.3h4.1
						L53.6,27.2z"/>
					<g>
						<path class="st14" d="M23.7,23.6l0.5-3.1c-0.5-0.2-1-0.4-1.6-0.5l-0.4,2.5C22.8,22.7,23.4,23,23.7,23.6z"/>
						<path class="st14" d="M23.2,26.9c-0.5,0.5-1.2,0.9-1.8,1L21,30.4c0.6-0.1,1.1-0.2,1.7-0.4L23.2,26.9z"/>
					</g>
					<path class="st13" d="M21,30.4l0.4-2.5c-0.1,0-0.3,0-0.4,0c-1.5,0-2.3-1.1-2.1-2.7c0.2-1.5,1.4-2.7,2.9-2.7c0.2,0,0.3,0,0.4,0
						l0.4-2.5c-0.2,0-0.4,0-0.5,0c-1.3,0-2.7,0.6-3.8,1.6c-1,1-1.7,2.3-1.9,3.6c-0.2,1.5,0.1,2.7,0.9,3.7c0.8,0.9,2,1.4,3.3,1.4
						C20.7,30.4,20.9,30.4,21,30.4z"/>
				</g>
				<path class="st12" d="M37.8,20.5c0.4,0,0.6,0.4,0.5,0.7c-0.1,0.3-0.4,0.8-0.8,0.8c-0.4,0-0.6-0.4-0.5-0.8
					C37.1,20.8,37.4,20.5,37.8,20.5z M37.5,22.4c0.6,0,1.2-0.5,1.3-1.2c0.1-0.6-0.3-1.2-0.9-1.2c-0.6,0-1.2,0.5-1.3,1.2
					C36.5,21.8,36.9,22.4,37.5,22.4z"/>
				<path class="st12" d="M40.7,20H41l0.9,1.5h0l0.2-1.5h0.4l-0.3,2.3h-0.3L41,20.8h0l-0.2,1.5h-0.4L40.7,20z"/>
				<path class="st12" d="M44.5,21.9h0.6l-0.1,0.4h-1l0.3-2.2h0.4L44.5,21.9z"/>
				<path class="st12" d="M47.1,22.3h-0.4l0.3-2.2h0.4L47.1,22.3z"/>
				<path class="st12" d="M49.2,20h0.3l0.9,1.5h0l0.2-1.5h0.4l-0.3,2.3h-0.3l-0.9-1.5h0l-0.2,1.5h-0.4L49.2,20z"/>
				<path class="st12" d="M53.3,20.5L53.2,21h0.7l-0.1,0.4h-0.7l-0.1,0.6h0.7l-0.1,0.4h-1.1l0.3-2.2h1.1L54,20.5H53.3z"/>
			</g>
		</g>
	</g>
</g>
</svg>
