<?xml version="1.0" encoding="utf-8"?>
<!-- Generator: Adobe Illustrator 20.0.0, SVG Export Plug-In . SVG Version: 6.00 Build 0)  -->
<svg version="1.1" id="圖層_1" xmlns="http://www.w3.org/2000/svg" xmlns:xlink="http://www.w3.org/1999/xlink" x="0px" y="0px"
	 viewBox="0 0 62.1 78" style="enable-background:new 0 0 62.1 78;" xml:space="preserve">
<style type="text/css">
	.st0{display:none;}
	.st1{display:inline;fill:#FFFFFF;}
	.st2{display:inline;}
	.st3{fill:#FFFFFF;}
	.st4{fill:#D6000F;}
	.st5{fill:#9E9E9F;}
	.st6{fill:none;stroke:#E50012;stroke-width:0.1481;stroke-miterlimit:10;}
	.st7{display:inline;fill:#D6000F;}
	.st8{font-family:'LiHeiPro';}
	.st9{font-size:9.008px;}
	.st10{font-family:'MicrosoftJhengHeiBold';}
	.st11{font-size:13px;}
	.st12{letter-spacing:1;}
</style>
<g id="copy_2" class="st0">
	<path class="st1" d="M34.1,25.9c-0.6,0.6-0.6,1.5,0,2.1l0,0c2.4,2.4,2.4,6.3,0,8.7L21.6,49.3c-2.4,2.4-6.3,2.4-8.6,0l0,0l-1.9-1.9
		c-2.4-2.4-2.4-6.3,0-8.7l12.5-12.6c0.6-0.6,0.6-1.5,0-2.1s-1.5-0.6-2.1,0l0,0L9,36.6c-3.5,3.6-3.5,9.3,0,12.9l1.9,1.9
		c3.5,3.5,9.3,3.5,12.8,0l0,0l12.5-12.6c3.5-3.6,3.5-9.3,0-12.9C35.6,25.4,34.7,25.4,34.1,25.9L34.1,25.9z M56.3,9.4l-1.9-1.9
		C50.9,4,45.1,4,41.6,7.5l0,0L29,20.1c-3.5,3.6-3.5,9.3,0,12.9c0.6,0.6,1.5,0.6,2.1,0s0.6-1.5,0-2.1l0,0c-2.4-2.4-2.4-6.3,0-8.7
		L43.6,9.6c2.4-2.4,6.3-2.4,8.6,0l0,0l1.9,1.9c2.4,2.4,2.4,6.3,0,8.7L41.7,32.8c-0.6,0.6-0.6,1.5,0,2.1c0.3,0.3,0.6,0.4,1,0.4
		s0.8-0.2,1-0.4l12.5-12.6C59.8,18.7,59.8,13,56.3,9.4z"/>
</g>
<g id="圖層_3" class="st0">
	<g class="st2">
		<circle class="st3" cx="32.1" cy="30.5" r="29"/>
		<path class="st4" d="M32.1,2.9c15.2,0,27.6,12.4,27.6,27.6S47.3,58.1,32.1,58.1S4.5,45.7,4.5,30.5S16.9,2.9,32.1,2.9 M32.1,1.1
			C15.9,1.1,2.7,14.3,2.7,30.5s13.2,29.4,29.4,29.4s29.4-13.2,29.4-29.4S48.3,1.1,32.1,1.1L32.1,1.1z"/>
		<g>
			<path class="st4" d="M39,15.4H25.2c-1.6,0-2.9-1.3-2.9-2.9V5.2c0-1.6,1.3-2.9,2.9-2.9h13.9c1.6,0,2.9,1.3,2.9,2.9v7.3
				C42,14.1,40.7,15.4,39,15.4z"/>
			<g>
				<path class="st3" d="M26.1,13.1V8.3H27l2,3.2V8.3h0.9v4.8h-1L27,10v3.1H26.1z"/>
				<path class="st3" d="M30.9,13.1V8.3h3.2v0.8h-2.3v1.1h2v0.9h-2v2H30.9z"/>
				<path class="st3" d="M38,11.3l0.9,0.3c-0.1,0.5-0.4,0.9-0.7,1.2c-0.3,0.3-0.8,0.4-1.3,0.4c-0.6,0-1.2-0.2-1.6-0.6
					c-0.4-0.4-0.6-1-0.6-1.8s0.2-1.4,0.6-1.8c0.4-0.4,0.9-0.7,1.6-0.7c0.6,0,1.1,0.2,1.4,0.5c0.2,0.2,0.4,0.5,0.5,0.9l-1,0.2
					c-0.1-0.2-0.2-0.4-0.4-0.6c0-0.2-0.2-0.2-0.5-0.2c-0.4,0-0.6,0.1-0.9,0.4c-0.2,0.3-0.3,0.7-0.3,1.2c0,0.6,0.1,1,0.3,1.3
					c0.2,0.3,0.5,0.4,0.8,0.4s0.5-0.1,0.7-0.2C37.8,12,37.9,11.7,38,11.3z"/>
			</g>
		</g>
		<g>
			<g>
				<g>
					<g>
						<path class="st4" d="M8.4,34.7L8.4,34.7c-0.5-0.1-0.8-0.4-0.7-0.8l1-6.2c0.1-0.4,0.4-0.7,0.8-0.6c0.4,0.1,0.7,0.4,0.6,0.8
							l-1,6.2C9.1,34.4,8.8,34.7,8.4,34.7z"/>
					</g>
				</g>
				<g>
					<g>
						<path class="st4" d="M10.7,33c-0.4,0-0.7-0.3-0.7-0.7s0.3-0.7,0.7-0.7c1.6,0,2.9-1.3,2.9-2.9s-1.3-2.9-2.9-2.9
							c-0.6,0-1.2,0.2-1.7,0.6c-0.3,0.2-0.8,0.2-1-0.1c-0.2-0.3-0.2-0.8,0.1-1c0.8-0.6,1.7-0.9,2.6-0.9c2.4,0,4.3,1.9,4.3,4.3
							S13.1,33,10.7,33z"/>
					</g>
				</g>
				<g>
					<g>
						<path class="st4" d="M16,36.2c-0.2,0-0.5-0.1-0.6-0.3c-0.2-0.3-0.1-0.8,0.2-1c2-1.4,3.3-3.7,3.3-6.2s-1.2-4.8-3.2-6.2
							c-0.3-0.2-0.4-0.7-0.2-1c0.2-0.3,0.7-0.4,1-0.2c2.4,1.7,3.9,4.4,3.9,7.4s-1.5,5.7-3.9,7.4C16.3,36.2,16.2,36.2,16,36.2z"/>
					</g>
				</g>
				<g>
					<g>
						<path class="st4" d="M14,34.5c-0.3,0-0.5-0.1-0.6-0.4c-0.2-0.4-0.1-0.8,0.3-1c1.6-0.9,2.6-2.6,2.6-4.5c0-1.8-1-3.5-2.6-4.5
							c-0.3-0.2-0.5-0.7-0.3-1s0.7-0.5,1-0.3c2,1.2,3.3,3.4,3.3,5.7c0,2.4-1.3,4.6-3.3,5.7C14.3,34.5,14.2,34.5,14,34.5z"/>
					</g>
				</g>
			</g>
			<g>
				<g>
					<g>
						<path class="st5" d="M23,32.9l-0.3-0.7c1-0.3,1.7-0.7,2.1-1.4h-1.7l0.1-0.7H25V30l0.1-0.8h-0.8c-0.1,0.2-0.4,0.5-0.7,0.8
							c-0.1-0.2-0.3-0.4-0.4-0.5c0.4-0.4,0.8-0.9,1-1.5l0.6,0.3l-0.2,0.3h2.6l-0.1,0.6h-1.4v0.9v0.1h1.6l-0.2,0.7h-1.5
							c0.5,0.3,0.9,0.7,1.3,1l-0.5,0.6c-0.3-0.4-0.8-0.7-1.3-1.2C24.6,32.1,23.9,32.6,23,32.9z M29.1,36.3h-5.7
							c-0.1,0-0.1,0-0.1-0.1l0.4-3.4c0-0.1,0-0.1,0.1-0.1h5.7c0.1,0,0.1,0,0.1,0.1L29.1,36.3C29.2,36.3,29.2,36.3,29.1,36.3z
							 M24.2,34.9l-0.1,0.7l0,0h4.4l0,0l0.1-0.7H24.2z M28.7,34.2l0.1-0.7l0,0h-4.4l0,0l-0.1,0.7H28.7z M30.3,32.3h-2.9
							c-0.1,0-0.1,0-0.1-0.1l0.4-3.4c0-0.1,0-0.1,0.1-0.1h2.9c0.1,0,0.1,0,0.1,0.1l-0.4,3.3C30.4,32.2,30.3,32.3,30.3,32.3z
							 M28.4,29.3C28.4,29.3,28.3,29.3,28.4,29.3l-0.3,2.3l0,0h1.6l0,0l0.3-2.3l0,0H28.4z"/>
					</g>
					<g>
						<path class="st5" d="M32.6,35.1c-0.4,0.6-0.8,1.1-1.3,1.4c-0.1-0.3-0.2-0.4-0.4-0.6c0.4-0.3,0.7-0.7,1-1.2L32.6,35.1z
							 M38.1,34.2c0,0.1-0.1,0.2-0.2,0.2h-5.4l0.1-0.6h4.9c0,0,0.1,0,0.1-0.1v-0.3h-6.1l0.1-0.6h6.1v-0.4c0,0,0-0.1-0.1-0.1h-4.9
							l0.1-0.6h5.5c0.1,0,0.2,0.1,0.2,0.2l-0.1,0.8h1.2l-0.1,0.6h-1.2L38.1,34.2z M31.8,31.4v-0.6h1.6l0.1-0.4h-1.4l0.1-0.6h1.4
							v-0.4H32l0.1-0.6h1.6l0.1-0.5h0.7l-0.1,0.5h1.3l-0.1,0.6h-1.3v0.4h1.1l-0.1,0.6h-1.2v0.4c0.5-0.1,0.9-0.1,1.2-0.2v0.6
							c-0.3,0.1-0.7,0.1-1.3,0.2v0.3h-0.7v-0.3H31.8z M36.3,35.8c0.1,0,0.2,0,0.3-0.1c0.1,0,0.1-0.1,0.2-0.2l0.1-0.5l0.7,0.1
							c-0.1,0.7-0.2,1-0.3,1.1c-0.2,0.2-0.5,0.3-0.9,0.3h-2.8c-0.2,0-0.4,0-0.5-0.1c-0.2-0.2-0.3-0.5-0.2-1l0.1-0.8h0.7l-0.1,0.7
							c0,0.2,0,0.3,0,0.4c0,0.1,0.2,0.1,0.4,0.2h1.3c-0.2-0.3-0.4-0.6-0.6-0.8l0.5-0.5c0.2,0.2,0.4,0.5,0.7,0.9l-0.5,0.4h0.9
							C36.3,35.9,36.3,35.8,36.3,35.8z M35.6,31.2l0.1-0.6h1.6v-0.4H36l0.1-0.6h1.3v-0.4H36l0.1-0.6h1.4l0.1-0.5h0.7l-0.1,0.5h1.5
							l-0.1,0.6h-1.5v0.4h1.3l-0.1,0.6H38v0.4h1.6l-0.1,0.6h-1.6v0.3h-0.7v-0.3H35.6z M38.3,34.6c0.2,0.4,0.5,0.9,0.7,1.5l-0.7,0.3
							c-0.2-0.6-0.4-1.1-0.6-1.4L38.3,34.6z"/>
					</g>
					<g>
						<path class="st5" d="M41.5,36.4h-0.7l0.4-3.5c-0.2,0.4-0.4,0.7-0.5,1L40,33.7c0.6-1,1.1-2,1.4-3.1h-0.9l0.1-0.8h1l0.2-1.7h0.7
							l-0.2,1.7H43l-0.1,0.8h-0.7v0.2c0.3,0.5,0.5,1.1,0.8,1.7l-0.7,0.4L42,32.2L41.5,36.4z M43.9,35c-0.6,0.6-1.2,1.1-1.7,1.3
							l-0.4-0.6c0.6-0.3,1.2-0.7,1.6-1.1L43.9,35z M42.5,34.3l0.1-0.7h5.5L48,34.3h-2.3l-0.2,1.4c0,0.3-0.2,0.6-0.5,0.8
							s-0.8,0.2-1.5-0.1l0.1-0.8l0.5,0.2c0.3,0.1,0.4,0.1,0.6,0c0.1,0,0.1-0.1,0.1-0.3l0.1-1.2C44.9,34.3,42.5,34.3,42.5,34.3z
							 M48.3,29.7C48.3,29.7,48.3,29.8,48.3,29.7l-0.2,2.2c0,0.1,0,0.1-0.1,0.1h-4.9C43,32,43,32,43,31.9l0.2-2c0-0.1,0-0.1,0.1-0.1
							h1.3l0.1-0.5h-1.6l0.1-0.7h5.4l-0.1,0.7h-1.6l-0.1,0.5L48.3,29.7L48.3,29.7z M47.8,32.4l-0.1,0.7h-4.5l0.1-0.7H47.8z
							 M44.7,30.4H44l0,0l-0.1,0.8l0,0h0.7L44.7,30.4z M46.1,30.4h-0.7l-0.1,0.8H46L46.1,30.4z M46.3,29.2h-0.7l-0.1,0.5h0.7
							L46.3,29.2z M46.7,34.6c0.4,0.3,0.8,0.7,1.2,1.2l-0.6,0.6c-0.4-0.5-0.8-0.9-1.1-1.2L46.7,34.6z M46.7,31.3h0.7l0,0l0.1-0.8
							l0,0h-0.7L46.7,31.3z"/>
					</g>
					<g>
						<path class="st5" d="M48.7,36.2v-0.6l1.8-0.1l0.1-0.6H49l0.1-0.6h1.6l0.1-0.5h-1.7l0.1-0.6h1.6l0.1-0.4h-1.6l0.1-0.5H51
							l0.1-0.4h-1.7l0.1-0.6h2.2l-0.6-0.6c-0.2,0.2-0.4,0.3-0.7,0.5l-0.3-0.5c0.5-0.2,0.9-0.5,1.2-0.9l0.4,0.4l-0.2,0.2l0.6,0.4
							l-0.4,0.5h3.1v-1.2l0.7,0.1v1.2h1.6L57,32h-1.8c0,0.8,0.1,1.4,0.1,1.9c0.1-0.2,0.3-0.7,0.6-1.4l0.6,0.2
							c-0.3,0.8-0.6,1.5-1.1,2.1l0.2,0.8c0.1,0.2,0.1,0.3,0.1,0.3s0.1-0.1,0.1-0.2c0.1-0.3,0.1-0.6,0.1-1l0.6,0.2
							c-0.1,0.7-0.2,1.2-0.4,1.6c-0.1,0.1-0.2,0.2-0.2,0.2c-0.1,0-0.2,0-0.2,0c-0.2,0-0.3-0.1-0.4-0.3c-0.2-0.3-0.3-0.6-0.4-1
							c-0.6,0.5-1.1,1-1.5,1.2l-0.5-0.5L53,36L48.7,36.2z M50.5,29.4c-0.2,0.3-0.5,0.5-0.9,0.8c-0.1-0.3-0.2-0.4-0.3-0.6
							c0.5-0.3,0.9-0.8,1.3-1.4l0.5,0.4L51,28.8h2.2l-0.1,0.6h-1l0.2,0.3l-0.5,0.4l-0.5-0.7C51.3,29.4,50.5,29.4,50.5,29.4z
							 M51.9,35.4l0.4-3.5h-0.7l-0.5,3.5H51.9z M52.5,31.2l-0.4-0.4c0.4-0.3,0.7-0.6,1-1l0.5,0.3l-0.1,0.2l0.7,0.4l-0.3,0.5
							l-0.7-0.5L52.5,31.2z M54.8,34.5c-0.1-0.8-0.2-1.7-0.3-2.7h-1.6l-0.1,0.4h1.4l-0.1,0.5h-1.4l-0.1,0.4h1.5v0.7h-1.4l-0.1,0.5
							H54l-0.1,0.6h-1.4l-0.1,0.5l1.2-0.1v0.3l0.8-0.7L54.8,34.5z M54.1,29.4L54.1,29.4c-0.2,0.3-0.5,0.5-0.7,0.7
							c-0.1-0.3-0.2-0.4-0.3-0.5c0.4-0.3,0.8-0.8,1.1-1.3l0.6,0.4l-0.1,0.2h2.8l-0.1,0.6h-1.6l0.1,0.4l-0.6,0.3l-0.2-0.7h-1
							C54.1,29.5,54.1,29.4,54.1,29.4z M56.1,29.9c0.2,0.1,0.5,0.4,0.8,0.6L56.4,31c-0.3-0.3-0.5-0.5-0.7-0.6L56.1,29.9z"/>
					</g>
				</g>
				<g>
					<g>
						<path class="st4" d="M23,32.9l-0.3-0.7c1-0.3,1.7-0.7,2.1-1.4h-1.7l0.1-0.7H25V30l0.1-0.8h-0.8c-0.1,0.2-0.4,0.5-0.7,0.8
							c-0.1-0.2-0.3-0.4-0.4-0.5c0.4-0.4,0.8-0.9,1-1.5l0.6,0.3l-0.2,0.3h2.6l-0.1,0.6h-1.4v0.9v0.1h1.6l-0.2,0.7h-1.5
							c0.5,0.3,0.9,0.7,1.3,1l-0.5,0.6c-0.3-0.4-0.8-0.7-1.3-1.2C24.6,32.1,23.9,32.6,23,32.9z M29.1,36.3h-5.7
							c-0.1,0-0.1,0-0.1-0.1l0.4-3.4c0-0.1,0-0.1,0.1-0.1h5.7c0.1,0,0.1,0,0.1,0.1L29.1,36.3C29.2,36.3,29.2,36.3,29.1,36.3z
							 M24.2,34.9l-0.1,0.7l0,0h4.4l0,0l0.1-0.7H24.2z M28.7,34.2l0.1-0.7l0,0h-4.4l0,0l-0.1,0.7H28.7z M30.3,32.3h-2.9
							c-0.1,0-0.1,0-0.1-0.1l0.4-3.4c0-0.1,0-0.1,0.1-0.1h2.9c0.1,0,0.1,0,0.1,0.1l-0.4,3.3C30.4,32.2,30.3,32.3,30.3,32.3z
							 M28.4,29.3C28.4,29.3,28.3,29.3,28.4,29.3l-0.3,2.3l0,0h1.6l0,0l0.3-2.3l0,0H28.4z"/>
						<path class="st4" d="M24.2,28.2c-0.2,0.6-0.6,1.1-1,1.5c0.1,0.1,0.3,0.3,0.4,0.5c0.3-0.3,0.5-0.5,0.7-0.8h0.8L25,30.1v0.1
							h-1.8l-0.1,0.7h1.6c-0.4,0.6-1,1.1-2.1,1.4l0.3,0.7c0.9-0.4,1.7-0.9,2.2-1.5c0.5,0.4,0.9,0.8,1.3,1.2l0.5-0.6
							c-0.4-0.4-0.9-0.7-1.3-1h1.5l0.1-0.7h-1.6v-0.1l0.1-0.8h1.4l0.1-0.6h-2.6l0.2-0.3L24.2,28.2L24.2,28.2z M30.7,28.6h-2.9
							c-0.1,0-0.1,0-0.1,0.1l-0.4,3.4c0,0.1,0,0.1,0.1,0.1h2.9c0.1,0,0.1,0,0.1-0.1L30.7,28.6C30.8,28.7,30.8,28.6,30.7,28.6
							L30.7,28.6z M28.1,31.6L28.1,31.6l0.2-2.3l0,0h1.6l0,0l-0.3,2.3l0,0H28.1L28.1,31.6z M29.5,32.7h-5.7c-0.1,0-0.1,0-0.1,0.1
							l-0.4,3.4c0,0.1,0,0.1,0.1,0.1h5.7c0.1,0,0.1,0,0.1-0.1L29.5,32.7C29.6,32.7,29.6,32.7,29.5,32.7L29.5,32.7z M24.3,34.2
							l0.1-0.7l0,0l0,0h4.4l0,0l-0.1,0.7H24.3L24.3,34.2z M28.6,34.9l-0.1,0.7l0,0h-4.4l0,0l0.1-0.7H28.6L28.6,34.9z"/>
					</g>
					<g>
						<path class="st4" d="M32.6,35.1c-0.4,0.6-0.8,1.1-1.3,1.4c-0.1-0.3-0.2-0.4-0.4-0.6c0.4-0.3,0.7-0.7,1-1.2L32.6,35.1z
							 M38.1,34.2c0,0.1-0.1,0.2-0.2,0.2h-5.4l0.1-0.6h4.9c0,0,0.1,0,0.1-0.1v-0.3h-6.1l0.1-0.6h6.1v-0.4c0,0,0-0.1-0.1-0.1h-4.9
							l0.1-0.6h5.5c0.1,0,0.2,0.1,0.2,0.2l-0.1,0.8h1.2l-0.1,0.6h-1.2L38.1,34.2z M31.8,31.4v-0.6h1.6l0.1-0.4h-1.4l0.1-0.6h1.4
							v-0.4H32l0.1-0.6h1.6l0.1-0.5h0.7l-0.1,0.5h1.3l-0.1,0.6h-1.3v0.4h1.1l-0.1,0.6h-1.2v0.4c0.5-0.1,0.9-0.1,1.2-0.2v0.6
							c-0.3,0.1-0.7,0.1-1.3,0.2v0.3h-0.7v-0.3H31.8z M36.3,35.8c0.1,0,0.2,0,0.3-0.1c0.1,0,0.1-0.1,0.2-0.2l0.1-0.5l0.7,0.1
							c-0.1,0.7-0.2,1-0.3,1.1c-0.2,0.2-0.5,0.3-0.9,0.3h-2.8c-0.2,0-0.4,0-0.5-0.1c-0.2-0.2-0.3-0.5-0.2-1l0.1-0.8h0.7l-0.1,0.7
							c0,0.2,0,0.3,0,0.4c0,0.1,0.2,0.1,0.4,0.2h1.3c-0.2-0.3-0.4-0.6-0.6-0.8l0.5-0.5c0.2,0.2,0.4,0.5,0.7,0.9l-0.5,0.4h0.9
							C36.3,35.9,36.3,35.8,36.3,35.8z M35.6,31.2l0.1-0.6h1.6v-0.4H36l0.1-0.6h1.3v-0.4H36l0.1-0.6h1.4l0.1-0.5h0.7l-0.1,0.5h1.5
							l-0.1,0.6h-1.5v0.4h1.3l-0.1,0.6H38v0.4h1.6l-0.1,0.6h-1.6v0.3h-0.7v-0.3H35.6z M38.3,34.6c0.2,0.4,0.5,0.9,0.7,1.5l-0.7,0.3
							c-0.2-0.6-0.4-1.1-0.6-1.4L38.3,34.6z"/>
						<path class="st4" d="M38.3,28.2h-0.7l-0.1,0.5h-1.4L36,29.3h1.4v0.4h-1.3L36,30.3h1.3v0.4h-1.6l-0.1,0.6h1.6v0.3h0.7v-0.3h1.6
							l0.1-0.6H38v-0.4h1.3l0.1-0.6h-1.3v-0.4h1.5l0.1-0.6h-1.5L38.3,28.2L38.3,28.2z M34.4,28.2h-0.7l-0.1,0.5h-1.5L32,29.3h1.6
							v0.4h-1.5L32,30.3h1.4l-0.1,0.4h-1.6v0.6l1.5-0.1v0.3h0.7v-0.3c0.6-0.1,1-0.1,1.3-0.2v-0.6c-0.3,0.1-0.7,0.1-1.2,0.2v-0.4h1.1
							l0.1-0.6h-1.1v-0.4h1.3l0.1-0.6h-1.3L34.4,28.2L34.4,28.2z M38.2,31.8h-5.5l-0.1,0.6h4.9c0,0,0.1,0,0.1,0.1v0.4h-6.1l-0.1,0.6
							h6.1v0.3c0,0,0,0.1-0.1,0.1h-4.9l-0.1,0.6h5.4c0.1,0,0.2-0.1,0.2-0.2l0.1-0.8h1.2l0.1-0.6h-1.2l0.1-0.8
							C38.4,31.9,38.3,31.8,38.2,31.8L38.2,31.8z M35.3,34.5L34.8,35c0.2,0.2,0.4,0.4,0.6,0.8h-1.3c-0.2,0-0.3-0.1-0.4-0.2
							c0-0.1,0-0.2,0-0.4l0.1-0.7h-0.7L33,35.3c-0.1,0.5,0,0.8,0.2,1c0.1,0.1,0.3,0.1,0.5,0.1h2.8c0.4,0,0.7-0.1,0.9-0.3
							c0.1-0.1,0.2-0.5,0.3-1.1L37,34.9l-0.1,0.5c-0.1,0.1-0.1,0.1-0.2,0.2c-0.1,0-0.2,0.1-0.3,0.1h-0.9l0.5-0.4
							C35.7,35,35.5,34.7,35.3,34.5L35.3,34.5z M38.3,34.6l-0.6,0.5c0.2,0.3,0.4,0.8,0.6,1.4l0.7-0.3C38.8,35.5,38.6,35,38.3,34.6
							L38.3,34.6z M32,34.7c-0.3,0.5-0.6,0.9-1,1.2c0.1,0.1,0.2,0.3,0.4,0.6c0.4-0.3,0.9-0.8,1.3-1.4L32,34.7L32,34.7z"/>
					</g>
					<g>
						<path class="st4" d="M41.5,36.4h-0.7l0.4-3.5c-0.2,0.4-0.4,0.7-0.5,1L40,33.7c0.6-1,1.1-2,1.4-3.1h-0.9l0.1-0.8h1l0.2-1.7h0.7
							l-0.2,1.7H43l-0.1,0.8h-0.7v0.2c0.3,0.5,0.5,1.1,0.8,1.7l-0.7,0.4L42,32.2L41.5,36.4z M43.9,35c-0.6,0.6-1.2,1.1-1.7,1.3
							l-0.4-0.6c0.6-0.3,1.2-0.7,1.6-1.1L43.9,35z M42.5,34.3l0.1-0.7h5.5L48,34.3h-2.3l-0.2,1.4c0,0.3-0.2,0.6-0.5,0.8
							s-0.8,0.2-1.5-0.1l0.1-0.8l0.5,0.2c0.3,0.1,0.4,0.1,0.6,0c0.1,0,0.1-0.1,0.1-0.3l0.1-1.2C44.9,34.3,42.5,34.3,42.5,34.3z
							 M48.3,29.7C48.3,29.7,48.3,29.8,48.3,29.7l-0.2,2.2c0,0.1,0,0.1-0.1,0.1h-4.9C43,32,43,32,43,31.9l0.2-2c0-0.1,0-0.1,0.1-0.1
							h1.3l0.1-0.5h-1.6l0.1-0.7h5.4l-0.1,0.7h-1.6l-0.1,0.5L48.3,29.7L48.3,29.7z M47.8,32.4l-0.1,0.7h-4.5l0.1-0.7H47.8z
							 M44.7,30.4H44l0,0l-0.1,0.8l0,0h0.7L44.7,30.4z M46.1,30.4h-0.7l-0.1,0.8H46L46.1,30.4z M46.3,29.2h-0.7l-0.1,0.5h0.7
							L46.3,29.2z M46.7,34.6c0.4,0.3,0.8,0.7,1.2,1.2l-0.6,0.6c-0.4-0.5-0.8-0.9-1.1-1.2L46.7,34.6z M46.7,31.3h0.7l0,0l0.1-0.8
							l0,0h-0.7L46.7,31.3z"/>
						<path class="st4" d="M42.5,28.2h-0.7l-0.2,1.7h-1l-0.1,0.8h0.9c-0.3,1.1-0.8,2.1-1.4,3.1l0.7,0.2c0.2-0.3,0.4-0.6,0.5-1
							l-0.4,3.5h0.7l0.5-4.2l0.3,0.7l0.7-0.4c-0.2-0.6-0.5-1.1-0.8-1.7v-0.2h0.7l0.1-0.8h-0.7L42.5,28.2L42.5,28.2z M48.6,28.5h-5.4
							l-0.1,0.7h1.6l-0.1,0.5h-1.3c-0.1,0-0.1,0-0.1,0.1l-0.2,2c0,0.1,0,0.1,0.1,0.1h4.8c0.1,0,0.1,0,0.1-0.1l0.2-2
							c0-0.1,0-0.1-0.1-0.1h-1.4l0.1-0.5h1.6L48.6,28.5L48.6,28.5z M46.3,29.2l-0.1,0.5h-0.7l0.1-0.5H46.3L46.3,29.2z M46.7,31.3
							l0.1-0.8h0.7l0,0l-0.1,0.8l0,0H46.7L46.7,31.3z M46.1,30.4L46,31.2h-0.7l0.1-0.8H46.1L46.1,30.4z M44.7,30.4l-0.1,0.8h-0.7
							l0,0l0.1-0.8l0,0H44.7L44.7,30.4z M47.8,32.4h-4.5l-0.1,0.7h4.5L47.8,32.4L47.8,32.4z M48,33.6h-5.5l-0.1,0.7h2.5l-0.1,1.2
							c0,0.1,0,0.2-0.1,0.3c-0.1,0-0.1,0.1-0.2,0.1s-0.2,0-0.3-0.1l-0.5-0.2l-0.1,0.8c0.4,0.1,0.8,0.2,1,0.2s0.4,0,0.5-0.1
							c0.3-0.2,0.4-0.4,0.5-0.8l0.2-1.4h2.3L48,33.6L48,33.6z M43.4,34.5c-0.4,0.5-0.9,0.9-1.6,1.1l0.4,0.6c0.5-0.2,1.1-0.6,1.7-1.3
							L43.4,34.5L43.4,34.5z M46.7,34.6l-0.6,0.6c0.3,0.2,0.7,0.6,1.1,1.2l0.6-0.6C47.4,35.3,47,34.9,46.7,34.6L46.7,34.6z"/>
					</g>
					<g>
						<path class="st4" d="M48.7,36.2v-0.6l1.8-0.1l0.1-0.6H49l0.1-0.6h1.6l0.1-0.5h-1.7l0.1-0.6h1.6l0.1-0.4h-1.6l0.1-0.5H51
							l0.1-0.4h-1.7l0.1-0.6h2.2l-0.6-0.6c-0.2,0.2-0.4,0.3-0.7,0.5l-0.3-0.5c0.5-0.2,0.9-0.5,1.2-0.9l0.4,0.4l-0.2,0.2l0.6,0.4
							l-0.4,0.5h3.1v-1.2l0.7,0.1v1.2h1.6L57,32h-1.8c0,0.8,0.1,1.4,0.1,1.9c0.1-0.2,0.3-0.7,0.6-1.4l0.6,0.2
							c-0.3,0.8-0.6,1.5-1.1,2.1l0.2,0.8c0.1,0.2,0.1,0.3,0.1,0.3s0.1-0.1,0.1-0.2c0.1-0.3,0.1-0.6,0.1-1l0.6,0.2
							c-0.1,0.7-0.2,1.2-0.4,1.6c-0.1,0.1-0.2,0.2-0.2,0.2c-0.1,0-0.2,0-0.2,0c-0.2,0-0.3-0.1-0.4-0.3c-0.2-0.3-0.3-0.6-0.4-1
							c-0.6,0.5-1.1,1-1.5,1.2l-0.5-0.5L53,36L48.7,36.2z M50.5,29.4c-0.2,0.3-0.5,0.5-0.9,0.8c-0.1-0.3-0.2-0.4-0.3-0.6
							c0.5-0.3,0.9-0.8,1.3-1.4l0.5,0.4L51,28.8h2.2l-0.1,0.6h-1l0.2,0.3l-0.5,0.4l-0.5-0.7C51.3,29.4,50.5,29.4,50.5,29.4z
							 M51.9,35.4l0.4-3.5h-0.7l-0.5,3.5H51.9z M52.5,31.2l-0.4-0.4c0.4-0.3,0.7-0.6,1-1l0.5,0.3l-0.1,0.2l0.7,0.4l-0.3,0.5
							l-0.7-0.5L52.5,31.2z M54.8,34.5c-0.1-0.8-0.2-1.7-0.3-2.7h-1.6l-0.1,0.4h1.4l-0.1,0.5h-1.4l-0.1,0.4h1.5v0.7h-1.4l-0.1,0.5
							H54l-0.1,0.6h-1.4l-0.1,0.5l1.2-0.1v0.3l0.8-0.7L54.8,34.5z M54.1,29.4L54.1,29.4c-0.2,0.3-0.5,0.5-0.7,0.7
							c-0.1-0.3-0.2-0.4-0.3-0.5c0.4-0.3,0.8-0.8,1.1-1.3l0.6,0.4l-0.1,0.2h2.8l-0.1,0.6h-1.6l0.1,0.4l-0.6,0.3l-0.2-0.7h-1
							C54.1,29.5,54.1,29.4,54.1,29.4z M56.1,29.9c0.2,0.1,0.5,0.4,0.8,0.6L56.4,31c-0.3-0.3-0.5-0.5-0.7-0.6L56.1,29.9z"/>
						<path class="st4" d="M50.6,28.2c-0.4,0.6-0.8,1-1.3,1.4c0.1,0.1,0.2,0.3,0.3,0.6c0.3-0.2,0.6-0.5,0.9-0.8h0.9l0.5,0.7l0.5-0.4
							l-0.2-0.3h1l0.1-0.6h-2.2l0.1-0.2L50.6,28.2L50.6,28.2z M54.2,28.2c-0.3,0.5-0.7,1-1.1,1.3c0.1,0.1,0.2,0.3,0.3,0.5
							c0.2-0.2,0.5-0.4,0.7-0.6l0,0H55l0.2,0.7l0.6-0.3l-0.1-0.4h1.6l0.1-0.6h-2.8l0.1-0.2L54.2,28.2L54.2,28.2z M51,29.7
							c-0.3,0.4-0.7,0.7-1.2,0.9l0.3,0.5c0.3-0.1,0.5-0.3,0.7-0.5l0.6,0.6h-2.2l-0.1,0.6h1.7l-0.1,0.4h-1.6L49,32.7h1.6l-0.1,0.4
							h-1.6l0.2,0.7h1.6l-0.1,0.5H49l-0.1,0.6h1.6l-0.1,0.6l-1.8,0.1v0.6l4.5-0.3L53,36l0.5,0.5c0.4-0.3,0.9-0.7,1.5-1.2
							c0.1,0.4,0.2,0.8,0.4,1c0.1,0.2,0.3,0.3,0.4,0.3l0,0c0.1,0,0.1,0,0.2,0s0.2-0.1,0.2-0.2c0.2-0.3,0.3-0.9,0.4-1.6l-0.5-0.2
							c0,0.4-0.1,0.7-0.1,1c0,0.1-0.1,0.2-0.1,0.2l0,0c0,0-0.1-0.1-0.1-0.3l-0.2-0.8c0.4-0.6,0.8-1.3,1.1-2.1l-0.6-0.2
							c-0.3,0.7-0.5,1.2-0.6,1.4c-0.1-0.5-0.1-1.2-0.1-1.9h1.8l0.1-0.6h-1.9v-1.2L54.7,30v1.2h-3.1l0.4-0.5l-0.6-0.4l0.2-0.2
							L51,29.7L51,29.7z M52.9,32.3l0.1-0.4h1.6c0,1,0.1,1.9,0.3,2.7l-0.3,0.3l-0.8,0.7v-0.3l-1.2,0.1l0.1-0.5h1.4l0.1-0.6h-1.4
							l0.1-0.5h1.2l0.1-0.6h-1.4l0.1-0.4h1.4l0.1-0.5H52.9L52.9,32.3z M52.3,31.8l-0.4,3.5h-0.7l0.4-3.6h0.7V31.8z M53,29.8
							c-0.2,0.4-0.6,0.7-1,1l0.4,0.4l0.6-0.5l0.7,0.5l0.3-0.5l-0.7-0.4l0.1-0.2L53,29.8L53,29.8z M56.1,29.9l-0.5,0.6
							c0.2,0.1,0.4,0.3,0.7,0.6l0.5-0.5C56.6,30.2,56.3,30,56.1,29.9L56.1,29.9z"/>
					</g>
				</g>
			</g>
			<g>
				<g>
					<g>
						<g>
							<g>
								<path class="st4" d="M25.6,22.7h0.2c0.5,0,1,0,0.9,0.7s-0.6,0.7-1.1,0.7h-0.2L25.6,22.7z M23.6,27h1.3l0.3-1.8H26
									c1.2,0,1.9-0.6,2.1-1.8c0.2-1.2-0.5-1.8-1.6-1.8h-2L23.6,27z"/>
							</g>
							<g>
								<path class="st4" d="M33.6,21.9l-0.4,2.2l0,0c0.3-0.3,0.6-0.5,1-0.5c0.7,0,1,0.5,0.9,1.3l-0.3,1.9h-1l0.2-1.6
									c0.1-0.4,0.1-0.7-0.4-0.7c-0.4,0-0.6,0.4-0.6,0.7l-0.2,1.6h-1l0.7-4.9H33.6z"/>
							</g>
							<g>
								<path class="st4" d="M37.3,24.6c0.4,0,0.6,0.3,0.6,0.7c-0.1,0.4-0.3,0.7-0.8,0.7c-0.4,0-0.6-0.3-0.6-0.7
									C36.6,24.9,36.8,24.6,37.3,24.6z M37.4,23.6c-0.9,0-1.8,0.6-2,1.6s0.6,1.6,1.5,1.6s1.8-0.6,2-1.6
									C39,24.2,38.3,23.6,37.4,23.6z"/>
							</g>
							<g>
								<path class="st4" d="M40.4,24.1L40.4,24.1c0.3-0.3,0.6-0.5,1-0.5s0.7,0.2,0.9,0.6c0.3-0.4,0.7-0.6,1.1-0.6
									c0.7,0,0.9,0.5,0.8,1.2l-0.3,1.9h-1l0.2-1.5c0-0.3,0.1-0.8-0.3-0.8c-0.5,0-0.6,0.5-0.6,0.8L42,26.7h-1l0.2-1.5
									c0.1-0.3,0.1-0.9-0.3-0.9c-0.5,0-0.5,0.5-0.6,0.9l-0.2,1.5h-1l0.5-3h1L40.4,24.1z"/>
							</g>
							<g>
								<path class="st4" d="M45.5,24.8c0.1-0.3,0.4-0.5,0.7-0.5c0.3,0,0.5,0.2,0.5,0.5H45.5z M47.6,25.3c0.2-1-0.3-1.7-1.3-1.7
									c-0.9,0-1.7,0.6-1.8,1.6c-0.2,1,0.5,1.6,1.4,1.6c0.7,0,1.3-0.3,1.6-1h-1c-0.1,0.2-0.3,0.3-0.5,0.3c-0.4,0-0.6-0.2-0.5-0.7
									L47.6,25.3L47.6,25.3z"/>
							</g>
							<g>
								<g>
									<path class="st4" d="M32,23.5l0.2-1.6c-0.3-0.1-0.5-0.2-0.8-0.2L31.2,23C31.5,23,31.8,23.2,32,23.5z"/>
								</g>
								<g>
									<path class="st4" d="M31.7,25.2c-0.3,0.3-0.6,0.5-1,0.5L30.5,27c0.3,0,0.6-0.1,0.9-0.2L31.7,25.2z"/>
								</g>
							</g>
							<g>
								<path class="st4" d="M30.5,27l0.2-1.3c-0.1,0-0.1,0-0.2,0c-0.8,0-1.2-0.6-1.1-1.4s0.7-1.4,1.5-1.4c0.1,0,0.2,0,0.2,0
									l0.2-1.3c-0.1,0-0.2,0-0.3,0c-0.7,0-1.4,0.3-2,0.8c-0.5,0.5-0.9,1.2-1,1.9c-0.1,0.8,0,1.4,0.5,1.9c0.4,0.5,1,0.8,1.7,0.8
									C30.4,27,30.5,27,30.5,27z"/>
							</g>
						</g>
						<g>
							<path class="st4" d="M39.3,21.8c0.2,0,0.3,0.2,0.3,0.4c0,0.2-0.2,0.4-0.4,0.4s-0.3-0.2-0.3-0.4C39,22,39.1,21.8,39.3,21.8z
								 M39.2,22.8c0.3,0,0.6-0.3,0.7-0.6c0-0.3-0.1-0.6-0.5-0.6c-0.3,0-0.6,0.3-0.7,0.6C38.7,22.5,38.9,22.8,39.2,22.8z"/>
						</g>
						<g>
							<path class="st4" d="M40.8,21.6H41l0.5,0.8l0,0l0.1-0.8h0.2l-0.2,1.2h-0.2L40.9,22l0,0l-0.1,0.8h-0.2L40.8,21.6z"/>
						</g>
						<g>
							<path class="st4" d="M42.8,22.6h0.3v0.2h-0.5l0.2-1.2H43L42.8,22.6z"/>
						</g>
						<g>
							<path class="st4" d="M44.2,22.8H44l0.2-1.2h0.2L44.2,22.8z"/>
						</g>
						<g>
							<path class="st4" d="M45.3,21.6h0.2l0.5,0.8l0,0l0.1-0.8h0.2l-0.2,1.2h-0.2L45.4,22l0,0l-0.1,0.8h-0.2L45.3,21.6z"/>
						</g>
						<g>
							<path class="st4" d="M47.4,21.8v0.3h0.4v0.2h-0.4v0.3h0.4v0.2h-0.7l0.2-1.2h0.6v0.2H47.4z"/>
						</g>
					</g>
				</g>
			</g>
		</g>
		<circle class="st6" cx="32.1" cy="30.5" r="29.4"/>
	</g>
	<polygon class="st7" points="5.2,39.4 59.3,39.4 56,46.4 52.7,50.5 47.4,54.8 40.1,57.8 34.3,58.7 26.9,58.4 17.2,55.3 9.8,48.9 
		6.7,43.5 	"/>
	<text transform="matrix(1 0 0 1 14.9974 50.7114)" class="st1 st8 st9">我要獲得</text>
</g>
<g>
	<g>
		<g>
			<circle class="st4" cx="32.1" cy="30.1" r="28.7"/>
		</g>
		<g>
			<g>
				<path class="st3" d="M17.1,46.7c-0.1,0-0.2,0-0.3,0c-1.1-0.2-1.9-1.2-1.7-2.3l2.8-17.3c0.2-1.1,1.2-1.9,2.3-1.7
					c1.1,0.2,1.9,1.2,1.7,2.3L19.1,45C18.9,46,18.1,46.7,17.1,46.7z"/>
			</g>
			<g>
				<path class="st3" d="M23.4,42.2c-1.1,0-2-0.9-2-2c0-1.1,0.9-2,2-2c4.4,0,7.9-3.6,7.9-7.9s-3.6-7.9-7.9-7.9
					c-1.7,0-3.4,0.6-4.8,1.6c-0.9,0.7-2.2,0.5-2.8-0.4c-0.7-0.9-0.5-2.2,0.4-2.8c2.1-1.6,4.6-2.4,7.2-2.4c6.6,0,12,5.4,12,12
					S30,42.2,23.4,42.2z"/>
			</g>
			<g>
				<path class="st3" d="M38.1,51c-0.6,0-1.3-0.3-1.7-0.9c-0.6-0.9-0.4-2.2,0.5-2.8c5.7-3.9,9-10.3,9-17.1c0-6.8-3.4-13.2-9-17.1
					c-0.9-0.6-1.2-1.9-0.5-2.8c0.6-0.9,1.9-1.2,2.8-0.5C46,14.4,50,22.1,50,30.2c0,8.2-4,15.8-10.8,20.4C38.9,50.9,38.5,51,38.1,51z
					"/>
			</g>
			<g>
				<path class="st3" d="M32.5,46.4c-0.7,0-1.4-0.4-1.8-1c-0.6-1-0.2-2.2,0.7-2.8c4.4-2.6,7.1-7.3,7.1-12.4c0-5-2.7-9.8-7.1-12.3
					c-1-0.6-1.3-1.8-0.7-2.8c0.6-1,1.8-1.3,2.8-0.7c5.6,3.3,9.1,9.4,9.1,15.9c0,6.5-3.5,12.6-9.2,15.9
					C33.2,46.3,32.9,46.4,32.5,46.4z"/>
			</g>
		</g>
	</g>
	<text transform="matrix(1 0 0 1 18.3545 73.0134)" class="st4 st10 st11 st12">感應</text>
</g>
</svg>
