<?xml version="1.0" encoding="utf-8"?>
<!-- Generator: Adobe Illustrator 20.0.0, SVG Export Plug-In . SVG Version: 6.00 Build 0)  -->
<svg version="1.1" id="圖層_1" xmlns="http://www.w3.org/2000/svg" xmlns:xlink="http://www.w3.org/1999/xlink" x="0px" y="0px"
	 viewBox="0 0 172 172" style="enable-background:new 0 0 172 172;" xml:space="preserve">
<style type="text/css">
	.st0{fill:#FFFFFF;}
	.st1{fill:#C9161D;}
	.st2{font-family:'GenShinGothic-Bold';}
	.st3{font-size:32.342px;}
</style>
<g>
	<circle class="st0" cx="86" cy="86" r="84.5"/>
	<text transform="matrix(0.95 0 0 1 26.1899 59.1975)" class="st1 st2 st3">快速購物</text>
	<g>
		<path class="st1" d="M102.6,75.2c-0.3-1.5-1.6-2.6-3.2-2.6H86.3h-4.9H57.1c-0.3,0-0.5,0.1-0.7,0.1l0,0c0,0-0.1,0-0.1,0.1
			c-0.2,0-0.3,0.1-0.5,0.2c-0.2,0.1-0.3,0.2-0.4,0.3c-0.1,0.1-0.3,0.2-0.4,0.3c-0.1,0.1-0.3,0.3-0.4,0.4c-0.1,0.1-0.2,0.2-0.2,0.3
			c-0.2,0.3-0.3,0.5-0.3,0.9c0,0,0,0.1,0,0.1c0,0.2-0.1,0.4-0.1,0.7v25.2v11.3v24.1v12.8c0,0.2,0,0.4,0.1,0.7
			c0.3,1.5,1.6,2.6,3.2,2.6h42.3c1.6,0,2.9-1.1,3.2-2.6c0-0.2,0.1-0.4,0.1-0.7v-12.8v-5.3c-0.8-0.3-1.6-0.7-2.2-1.1
			c-1.3-0.7-2.7-1.5-4-2.4v4.8v3.9H60.1v-3.9v-22V97.4V82.7h2.5h15h12.5h6.3v14.6v16.5c2.1,0.1,4.2,0.9,6.2,1.8v-14.6V75.9
			C102.7,75.7,102.7,75.4,102.6,75.2z M72.4,142.9h11.7v4.1H72.4V142.9z"/>
		<path class="st1" d="M118.1,132.3l4.2,2.8l-1.6,2.3l12.8,8.7l11.9-17.5l-12.8-8.7l-1.4,2l-3-2.4c0,0-3.1-8.2-6.7-11.6
			c-3.6-3.4-14.7-5.9-14.7-5.9s0.2,8.3,0.2,15.5c-0.7,7.7-13.1-5-15.9-0.1c-1.6,3.2,5.1,7.1,9.8,9.7
			C105.6,129.6,118.1,132.3,118.1,132.3z M127.3,136.1l6.6-9.7l5,3.4l-6.6,9.7L127.3,136.1z"/>
		<g>
			<path class="st1" d="M86.1,112.3H70.5c-1.8,0-3.3-1.5-3.3-3.3V93.4c0-1.8,1.5-3.3,3.3-3.3h15.6c1.8,0,3.3,1.5,3.3,3.3V109
				C89.4,110.8,87.9,112.3,86.1,112.3z M70.5,92.7c-0.4,0-0.7,0.3-0.7,0.7V109c0,0.4,0.3,0.7,0.7,0.7h15.6c0.4,0,0.7-0.3,0.7-0.7
				V93.4c0-0.4-0.3-0.7-0.7-0.7H70.5z"/>
		</g>
	</g>
</g>
</svg>
