<?xml version="1.0" encoding="utf-8"?>
<!-- Generator: Adobe Illustrator 20.0.0, SVG Export Plug-In . SVG Version: 6.00 Build 0)  -->
<svg version="1.1" id="圖層_1" xmlns="http://www.w3.org/2000/svg" xmlns:xlink="http://www.w3.org/1999/xlink" x="0px" y="0px"
	 viewBox="0 0 172 172" style="enable-background:new 0 0 172 172;" xml:space="preserve">
<style type="text/css">
	.st0{fill:#FFFFFF;}
	.st1{fill:#C9161D;}
	.st2{enable-background:new    ;}
</style>
<g>
	<circle class="st0" cx="86" cy="86" r="84.5"/>
	<g>
		<g>
			<path class="st1" d="M126.4,67.8H74.2c-3.8,0-6.2,2.4-6.2,6.4v69.4c0,2.1,0.6,3.7,1.7,4.8c0.9,0.9,2.3,1.4,3.9,1.6v2h8.9v-1.9
				h34.7v1.9h8.9v-1.9h1c2.5,0,5.5-1.1,5.5-6.4V74.2C132.6,70.2,130.2,67.8,126.4,67.8z M89,88.7v-17h37.7c1.3,0,2.3,1.1,2.3,2.4
				v14.6H89z M71.4,88.7V74.1c0-1.3,1-2.4,2.3-2.4h11.9v17H71.4z M129,92.6v51.7c0,1.3-1,2.4-2.3,2.4h-53c-1.3,0-2.3-1.1-2.3-2.4
				V92.6H129z"/>
			<path class="st1" d="M100,136.3c10.4,0,18.8-8.5,18.8-18.8s-8.5-18.8-18.8-18.8s-18.8,8.5-18.8,18.8S89.6,136.3,100,136.3z
				 M100,100.1c9.6,0,17.4,7.8,17.4,17.4s-7.8,17.4-17.4,17.4s-17.4-7.8-17.4-17.4S90.4,100.1,100,100.1z"/>
			<path class="st1" d="M100,132.3c8.2,0,14.9-6.7,14.9-14.9s-6.7-14.9-14.9-14.9s-14.9,6.7-14.9,14.9S91.8,132.3,100,132.3z
				 M91,109.5c0.2-0.7,0.7-1.3,1.3-1.8c2.8-2.6,7-3.7,10.7-2.8c0.6,0.1,1.2,0.3,1.6,0.8c0.8,0.9,0.4,2.4-0.5,3.2
				c-1.7,1.6-4.4,1.4-6.7,2c-1.6,0.4-3.1,1.3-4.7,1.1c-0.4,0-0.9-0.2-1.2-0.4C90.9,111.1,90.7,110.2,91,109.5z"/>
			<circle class="st1" cx="120.9" cy="79.5" r="4.6"/>
			<circle class="st1" cx="112.8" cy="79.5" r="2.7"/>
			<circle class="st1" cx="106.4" cy="79.5" r="2.7"/>
		</g>
		<circle class="st0" cx="65.5" cy="92.5" r="18.7"/>
		<g>
			<path class="st1" d="M65.3,77.2c-4.4,0-8.3,1.8-11.1,4.8l-16.4,2.4l-17.6,18.7L20,127.7h3.1l0.2-23.1L39,87.9l12.4-1.8
				c-0.9,2-1.4,4.2-1.4,6.5c0,0.7,0.1,1.3,0.1,2L40,96l3.8,2.9l-1.5,1.5l-3.7,3.7l-6.1,6.1l2.6,2.6l6.6-6.6l6.2-6.2l0,0
				c0.2-0.2,0.4-0.4,0.7-0.6c0.2-0.1,0.4-0.2,0.6-0.3c0,0,0.1,0,0.1-0.1c0.5-0.2,1.1-0.4,1.7-0.4l0,0l0,0c0.1,0,0.1,0,0.2,0
				c1.1,0,2,0.4,2.8,1.1c0.7,0.7,1.1,1.8,1.1,2.9c0,0.5-0.1,0.9-0.3,1.4l0,0l0,0c-0.1,0.3-0.3,0.6-0.4,0.9c0,0,0,0,0,0.1
				c-0.2,0.3-0.4,0.6-0.6,0.8l-17.9,17.9l0,0l-4.1,4.1H37l5-5l2.8-2.8l11.6-11.6c0.6-0.6,1.2-1.4,1.6-2.2c2.2,1.2,4.7,1.9,7.4,1.9
				c8.5,0,15.4-6.9,15.4-15.4S73.8,77.2,65.3,77.2z M65.3,104.7c-6.7,0-12.1-5.4-12.1-12.1s5.4-12.1,12.1-12.1s12.1,5.4,12.1,12.1
				S72,104.7,65.3,104.7z"/>
			<g>
				<g>
					<path class="st1" d="M58.8,99.7L58.8,99.7c-0.6-0.1-0.9-0.5-0.8-1l1.2-7.5c0.1-0.5,0.5-0.8,1-0.7c0.5,0.1,0.8,0.5,0.7,1
						L59.7,99C59.6,99.4,59.2,99.7,58.8,99.7z"/>
				</g>
				<g>
					<path class="st1" d="M61.5,97.8c-0.5,0-0.9-0.4-0.9-0.9S61,96,61.5,96c1.9,0,3.4-1.5,3.4-3.4s-1.5-3.4-3.4-3.4
						c-0.8,0-1.5,0.2-2.1,0.7c-0.4,0.3-0.9,0.2-1.2-0.2c-0.3-0.4-0.2-0.9,0.2-1.2c0.9-0.7,2-1,3.1-1c2.9,0,5.2,2.3,5.2,5.2
						C66.7,95.4,64.4,97.8,61.5,97.8z"/>
				</g>
				<g>
					<path class="st1" d="M67.9,101.6c-0.3,0-0.6-0.1-0.7-0.4c-0.3-0.4-0.2-0.9,0.2-1.2c2.4-1.7,3.9-4.4,3.9-7.4
						c0-2.9-1.5-5.7-3.9-7.4c-0.4-0.3-0.5-0.8-0.2-1.2c0.3-0.4,0.8-0.5,1.2-0.2c2.9,2,4.6,5.3,4.6,8.8s-1.7,6.8-4.7,8.8
						C68.2,101.5,68.1,101.6,67.9,101.6z"/>
				</g>
				<g>
					<path class="st1" d="M65.5,99.6c-0.3,0-0.6-0.2-0.8-0.4c-0.2-0.4-0.1-1,0.3-1.2c1.9-1.1,3.1-3.2,3.1-5.4c0-2.2-1.2-4.2-3.1-5.3
						c-0.4-0.2-0.6-0.8-0.3-1.2c0.2-0.4,0.8-0.6,1.2-0.3c2.4,1.4,3.9,4.1,3.9,6.9s-1.5,5.4-4,6.9C65.8,99.5,65.6,99.6,65.5,99.6z"/>
				</g>
			</g>
		</g>
	</g>
	<g class="st2">
		<path class="st1" d="M43,34.4h5.3v2.8H43v1.2h-3.1v-1.2h-6.3v1.2h-3.1v-1.2h-5.2v-2.8h5.2V33h3.1v1.4h6.3V33H43V34.4z M47.7,48.8
			v7.3c0,0.7-0.1,1.3-0.2,1.6c-0.1,0.4-0.4,0.7-0.8,0.9c-0.5,0.3-1.6,0.4-3.3,0.4c-0.1-0.5-0.3-1.2-0.6-2.1l-1.4,0.4
			c-0.1-0.5-0.2-1-0.3-1.4c-0.9,0.1-4.4,0.3-10.5,0.7l-0.2-2.8c0.4,0,1.2-0.1,2.3-0.1c1.1-0.1,2-0.1,2.6-0.1v-2.1h-6v7.6h-3V48.8h9
			v-1.1h-7.3v-8.9h17.9v8.9h-7.6v1.1H47.7z M30.9,40.9v1.3h4.3v-1.3H30.9z M30.9,45.5h4.3v-1.3h-4.3V45.5z M42.6,42.2v-1.3h-4.4v1.3
			H42.6z M42.6,45.5v-1.3h-4.4v1.3H42.6z M38.2,53.5l1.9-0.1c-0.2-0.4-0.4-0.8-0.6-1.3l2.1-0.5h-3.4V53.5z M43.8,56.5h0.5
			c0.2,0,0.4-0.1,0.4-0.4v-4.5h-2.7C42.9,53.2,43.5,54.9,43.8,56.5z"/>
		<path class="st1" d="M72.9,34.9v20.3c0,0.9-0.1,1.6-0.3,2.1c-0.2,0.5-0.6,0.8-1.1,1.1c-0.9,0.4-2.6,0.6-5.1,0.6
			c-0.1-0.8-0.4-1.9-1-3.2c0.7,0,1.9,0.1,3.7,0.1c0.5,0,0.7-0.2,0.7-0.7V51h-5.6v7.8H61V51h-5.4c-0.6,3.6-1.7,6.4-3.3,8.3
			c-0.3-0.3-0.7-0.7-1.2-1.2c-0.5-0.5-1-0.8-1.3-1c0.7-0.8,1.3-1.7,1.7-2.7c0.4-1,0.8-2.1,0.9-3.3c0.2-1.2,0.3-2.2,0.4-3.1
			c0.1-0.9,0.1-2,0.1-3.2v-10H72.9z M55.9,47.8H61v-3.4h-5v0.5C56,45.8,56,46.8,55.9,47.8z M61,38.1h-5v3.2h5V38.1z M69.8,41.3v-3.2
			h-5.6v3.2H69.8z M64.2,47.8h5.6v-3.4h-5.6V47.8z"/>
		<path class="st1" d="M100.1,47.8h-6.6V55h6.4v3.2H84.1V55h6.1v-7.2H83v-3.2h7.2v-6.2c-1.8,0.3-3.7,0.6-5.5,0.8
			c-0.1-0.7-0.4-1.6-0.9-2.8c-0.5,1.1-1,2.3-1.6,3.4v19.3H79V44.8c-0.8,1.1-1.6,2-2.2,2.6c-0.2-0.4-0.4-1-0.8-1.7
			c-0.4-0.7-0.7-1.3-1-1.8c1.3-1.3,2.6-2.9,3.8-4.8s2.1-3.9,2.9-5.9l3.1,1c-0.2,0.5-0.5,1.3-0.9,2.2c5.7-0.8,10.2-1.8,13.3-3
			l2.3,2.8c-1.8,0.7-3.8,1.2-6,1.6v6.8h6.6V47.8z"/>
		<path class="st1" d="M103.3,58.6l-2.5-1.8c1.6-1.1,2.8-2.7,3.5-4.7l2.6,1C106.1,55.7,104.9,57.5,103.3,58.6z M124.8,39v2.6h-22.9
			V39h5.7c-0.1-0.3-0.3-0.9-0.7-1.9l0.1,0h-3.8v-2.6h8.6V33h3.1v1.5h8.6v2.6h-3.7l0.4,0.1c-0.1,0.3-0.5,0.9-1.1,1.8H124.8z
			 M112.1,56.2h3.7c0.5,0,0.8-0.1,0.9-0.4c0.1-0.3,0.3-0.9,0.3-1.9c0.7,0.5,1.6,0.8,2.7,1c-0.2,1.5-0.5,2.6-1,3.1s-1.4,0.8-2.6,0.8
			h-4.3c-1.7,0-2.8-0.2-3.3-0.7c-0.6-0.5-0.8-1.4-0.8-2.7v-2.9h2.9l-0.3-0.1l1.1-1.1h-6.6v-8.5h17.6v8.5h-8.6c1,0.5,1.9,1,2.8,1.7
			l-1.9,2c-0.8-0.8-2.1-1.6-3.7-2.4v2.8c0,0.4,0.1,0.6,0.2,0.7C111.2,56.1,111.5,56.2,112.1,56.2z M107.7,44.8V46h11.5v-1.2H107.7z
			 M107.7,47.9v1.3h11.5v-1.3H107.7z M116.6,37.1H110c0.3,0.8,0.5,1.4,0.6,1.8l-0.4,0.1h5.9l-0.4-0.1
			C116.3,38,116.5,37.4,116.6,37.1z M119,53.2l2.4-1.4c2.1,1.9,3.6,3.6,4.3,5l-2.6,1.6c-0.4-0.7-0.9-1.6-1.7-2.6S119.8,54,119,53.2z
			"/>
		<path class="st1" d="M129.2,52.3l3,0.7c-0.9,2.6-2.1,4.6-3.6,6.2c-0.7-0.7-1.5-1.3-2.5-1.8C127.5,56.1,128.5,54.4,129.2,52.3z
			 M136.9,34.1v17.9h-9.1V34.1H136.9z M133.9,39.3v-2.5h-3.3v2.5H133.9z M133.9,44.3v-2.6h-3.3v2.6H133.9z M133.9,49.4v-2.6h-3.3
			v2.6H133.9z M132.7,53.3l2.5-1.1c1.3,1.6,2.2,3.1,2.7,4.6l-2.6,1.3C134.9,56.7,134,55.1,132.7,53.3z M151.2,42.1h-5.8v4.4h4.7V59
			h-3.1v-1h-5.9v1.1h-2.9V46.5h4V33.1h3.1v6h5.8V42.1z M147.1,55v-5.6h-5.9V55H147.1z"/>
	</g>
</g>
</svg>
