<?xml version="1.0" encoding="utf-8"?>
<!-- Generator: Adobe Illustrator 20.0.0, SVG Export Plug-In . SVG Version: 6.00 Build 0)  -->
<svg version="1.1" id="圖層_1" xmlns="http://www.w3.org/2000/svg" xmlns:xlink="http://www.w3.org/1999/xlink" x="0px" y="0px"
	 viewBox="0 0 172 172" style="enable-background:new 0 0 172 172;" xml:space="preserve">
<style type="text/css">
	.st0{fill:#FFFFFF;}
	.st1{fill:#C9161D;}
	.st2{font-family:'GenShinGothic-Bold';}
	.st3{font-size:32.342px;}
</style>
<g>
	<circle class="st0" cx="86" cy="86" r="84.5"/>
	<g>
		<path class="st1" d="M92.3,120.1c-0.9-0.4-2.5-0.9-4.8-1.4c-2.8-0.6-3.7-1.1-3.9-1.3c-0.4-0.4-0.6-0.8-0.6-1.4
			c0-0.7,0.3-1.2,0.9-1.7c0.6-0.5,1.7-0.8,3.3-0.8c1.5,0,2.5,0.3,3.2,0.9c0.7,0.6,1.1,1.4,1.2,2.6l0.1,0.7l4-0.3l0-0.7
			c-0.1-1.4-0.4-2.6-1.2-3.7c-0.7-1.1-1.8-1.9-3.1-2.5c-0.4-0.2-0.8-0.3-1.2-0.4v-2.8h-5.4v2.6c-0.7,0.1-1.3,0.3-2,0.6
			c-1.3,0.5-2.3,1.3-3,2.4c-0.7,1-1,2.2-1,3.4c0,1.1,0.3,2.1,0.8,3c0.6,0.9,1.4,1.6,2.5,2.2c0.8,0.4,2.2,0.9,4.2,1.4
			c2.4,0.6,3.3,0.9,3.7,1c0.8,0.3,1.3,0.6,1.6,1c0.3,0.4,0.4,0.8,0.4,1.3c0,0.5-0.2,1-0.5,1.4c-0.3,0.4-0.8,0.8-1.5,1.1
			c-0.7,0.3-1.6,0.4-2.6,0.4c-1.1,0-2.1-0.2-3-0.6c-0.8-0.4-1.4-0.8-1.8-1.4c-0.4-0.6-0.6-1.4-0.8-2.3L82,124l-4,0.3l0,0.6
			c0,1.5,0.5,2.9,1.3,4.2c0.8,1.2,1.9,2.2,3.3,2.8c0.6,0.3,1.3,0.5,2.1,0.6v2.9h5.4v-2.9c0.7-0.1,1.3-0.4,1.9-0.6
			c1.3-0.6,2.4-1.5,3.1-2.6c0.7-1.1,1.1-2.3,1.1-3.6c0-1.3-0.3-2.4-1-3.4C94.6,121.5,93.6,120.7,92.3,120.1z"/>
		<g>
			<path class="st1" d="M113.4,108.8l3.3-1c-1.9-6.4-6-12.1-11.5-16l-2,2.8C108.1,98.1,111.7,103.1,113.4,108.8z"/>
			<path class="st1" d="M59,108l3.3,1c1.6-5.6,5.1-10.6,9.9-14l-2-2.8C64.8,96,60.8,101.6,59,108z"/>
			<path class="st1" d="M75.2,141.8l-1.6,3c4.3,2.4,9.3,3.6,14.3,3.6c4.9,0,9.7-1.2,13.9-3.4l-1.6-3C92.5,146,82.8,145.9,75.2,141.8
				z"/>
			<path class="st1" d="M57.9,127.1c4.3,0,7.8-3.5,7.8-7.8c0-4.3-3.5-7.8-7.8-7.8s-7.8,3.5-7.8,7.8
				C50.1,123.6,53.6,127.1,57.9,127.1z"/>
			<path class="st1" d="M62.8,128.8h-9.7c-4.5,0-8.2,3.7-8.2,8.2v9.3H71V137C71,132.5,67.3,128.8,62.8,128.8z"/>
			<path class="st1" d="M109.7,119.3c0,4.3,3.5,7.8,7.8,7.8c4.3,0,7.8-3.5,7.8-7.8c0-4.3-3.5-7.8-7.8-7.8
				C113.2,111.5,109.7,115,109.7,119.3z"/>
			<path class="st1" d="M122.3,128.8h-9.7c-4.5,0-8.2,3.7-8.2,8.2v9.3h26.1V137C130.5,132.5,126.8,128.8,122.3,128.8z"/>
			<path class="st1" d="M87.7,82.7c4.3,0,7.8-3.5,7.8-7.8c0-4.3-3.5-7.8-7.8-7.8c-4.3,0-7.8,3.5-7.8,7.8
				C79.9,79.2,83.4,82.7,87.7,82.7z"/>
			<path class="st1" d="M100.7,92.5c0-4.5-3.7-8.2-8.2-8.2h-9.7c-4.5,0-8.2,3.7-8.2,8.2v9.3h26.1V92.5z"/>
		</g>
	</g>
	<text transform="matrix(0.95 0 0 1 25.0822 58.1976)" class="st1 st2 st3">好友分享</text>
</g>
</svg>
