<?xml version="1.0" encoding="utf-8"?>
<!-- Generator: Adobe Illustrator 20.0.0, SVG Export Plug-In . SVG Version: 6.00 Build 0)  -->
<svg version="1.1" id="圖層_1" xmlns="http://www.w3.org/2000/svg" xmlns:xlink="http://www.w3.org/1999/xlink" x="0px" y="0px"
	 viewBox="0 0 172 172" style="enable-background:new 0 0 172 172;" xml:space="preserve">
<style type="text/css">
	.st0{fill:#FFFFFF;}
	.st1{fill:#C9161D;}
	.st2{font-family:'GenShinGothic-Bold';}
	.st3{font-size:27.9396px;}
	.st4{letter-spacing:-1.1;}
</style>
<g>
	<circle class="st0" cx="86" cy="86" r="84.5"/>
	<g>
		<g>
			<path class="st1" d="M126.4,67.8H74.2c-3.8,0-6.2,2.4-6.2,6.4v69.4c0,2.1,0.6,3.7,1.7,4.8c0.9,0.9,2.3,1.4,3.9,1.6v2h8.9v-1.9
				h34.7v1.9h8.9v-1.9h1c2.5,0,5.5-1.1,5.5-6.4V74.2C132.6,70.2,130.2,67.8,126.4,67.8z M89,88.7v-17h37.7c1.3,0,2.3,1.1,2.3,2.4
				v14.6H89z M71.4,88.7V74.1c0-1.3,1-2.4,2.3-2.4h11.9v17H71.4z M129,92.6v51.7c0,1.3-1,2.4-2.3,2.4h-53c-1.3,0-2.3-1.1-2.3-2.4
				V92.6H129z"/>
			<path class="st1" d="M100,136.3c10.4,0,18.8-8.5,18.8-18.8s-8.5-18.8-18.8-18.8s-18.8,8.5-18.8,18.8S89.6,136.3,100,136.3z
				 M100,100.1c9.6,0,17.4,7.8,17.4,17.4c0,9.6-7.8,17.4-17.4,17.4s-17.4-7.8-17.4-17.4C82.6,107.9,90.4,100.1,100,100.1z"/>
			<path class="st1" d="M100,132.3c8.2,0,14.9-6.7,14.9-14.9s-6.7-14.9-14.9-14.9s-14.9,6.7-14.9,14.9S91.8,132.3,100,132.3z
				 M91,109.5c0.2-0.7,0.7-1.3,1.3-1.8c2.8-2.6,7-3.7,10.7-2.8c0.6,0.1,1.2,0.3,1.6,0.8c0.8,0.9,0.4,2.4-0.5,3.2
				c-1.7,1.6-4.4,1.4-6.7,2c-1.6,0.4-3.1,1.3-4.7,1.1c-0.4,0-0.9-0.2-1.2-0.4C90.9,111.1,90.7,110.2,91,109.5z"/>
			<circle class="st1" cx="120.9" cy="79.5" r="4.6"/>
			<circle class="st1" cx="112.8" cy="79.5" r="2.7"/>
			<circle class="st1" cx="106.4" cy="79.5" r="2.7"/>
		</g>
		<circle class="st0" cx="65.5" cy="92.5" r="18.7"/>
		<g>
			<path class="st1" d="M65.3,77.2c-4.4,0-8.3,1.8-11.1,4.8l-16.4,2.4l-17.6,18.7L20,127.7h3.1l0.2-23.1L39,87.9l12.4-1.8
				c-0.9,2-1.4,4.2-1.4,6.5c0,0.7,0.1,1.3,0.1,2L40,96l3.8,2.9l-1.5,1.5l-3.7,3.7l-6.1,6.1l2.6,2.6l6.6-6.6l6.2-6.2c0,0,0,0,0,0
				c0.2-0.2,0.4-0.4,0.7-0.6c0.2-0.1,0.4-0.2,0.6-0.3c0,0,0.1,0,0.1-0.1c0.5-0.2,1.1-0.4,1.7-0.4c0,0,0,0,0,0l0,0c0.1,0,0.1,0,0.2,0
				c1.1,0,2,0.4,2.8,1.1c0.7,0.7,1.1,1.8,1.1,2.9c0,0.5-0.1,0.9-0.3,1.4l0,0l0,0c-0.1,0.3-0.3,0.6-0.4,0.9c0,0,0,0,0,0.1
				c-0.2,0.3-0.4,0.6-0.6,0.8l-17.9,17.9v0l-4.1,4.1h5.2l5-5l2.8-2.8l11.6-11.6c0.6-0.6,1.2-1.4,1.6-2.2c2.2,1.2,4.7,1.9,7.4,1.9
				c8.5,0,15.4-6.9,15.4-15.4S73.8,77.2,65.3,77.2z M65.3,104.7c-6.7,0-12.1-5.4-12.1-12.1s5.4-12.1,12.1-12.1s12.1,5.4,12.1,12.1
				S72,104.7,65.3,104.7z"/>
			<g>
				<g>
					<path class="st1" d="M58.8,99.7c0,0-0.1,0-0.1,0c-0.5-0.1-0.8-0.5-0.7-1l1.2-7.5c0.1-0.5,0.5-0.8,1-0.7c0.5,0.1,0.8,0.5,0.7,1
						L59.7,99C59.6,99.4,59.2,99.7,58.8,99.7z"/>
				</g>
				<g>
					<path class="st1" d="M61.5,97.8c-0.5,0-0.9-0.4-0.9-0.9s0.4-0.9,0.9-0.9c1.9,0,3.4-1.5,3.4-3.4c0-1.9-1.5-3.4-3.4-3.4
						c-0.8,0-1.5,0.2-2.1,0.7c-0.4,0.3-0.9,0.2-1.2-0.2c-0.3-0.4-0.2-0.9,0.2-1.2c0.9-0.7,2-1,3.1-1c2.9,0,5.2,2.3,5.2,5.2
						C66.7,95.4,64.4,97.8,61.5,97.8z"/>
				</g>
				<g>
					<path class="st1" d="M67.9,101.6c-0.3,0-0.6-0.1-0.7-0.4c-0.3-0.4-0.2-0.9,0.2-1.2c2.4-1.7,3.9-4.4,3.9-7.4
						c0-2.9-1.5-5.7-3.9-7.4c-0.4-0.3-0.5-0.8-0.2-1.2c0.3-0.4,0.8-0.5,1.2-0.2c2.9,2,4.6,5.3,4.6,8.8c0,3.5-1.7,6.8-4.7,8.8
						C68.2,101.5,68.1,101.6,67.9,101.6z"/>
				</g>
				<g>
					<path class="st1" d="M65.5,99.6c-0.3,0-0.6-0.2-0.8-0.4c-0.2-0.4-0.1-1,0.3-1.2c1.9-1.1,3.1-3.2,3.1-5.4c0-2.2-1.2-4.2-3.1-5.3
						c-0.4-0.2-0.6-0.8-0.3-1.2c0.2-0.4,0.8-0.6,1.2-0.3c2.4,1.4,3.9,4.1,3.9,6.9c0,2.8-1.5,5.4-4,6.9
						C65.8,99.5,65.6,99.6,65.5,99.6z"/>
				</g>
			</g>
		</g>
	</g>
	<text transform="matrix(0.95 0 0 1 23.5222 56.7035)" class="st1 st2 st3 st4">萬用任意貼</text>
</g>
</svg>
