<?xml version="1.0" encoding="utf-8"?>
<!-- Generator: Adobe Illustrator 20.0.0, SVG Export Plug-In . SVG Version: 6.00 Build 0)  -->
<svg version="1.1" id="圖層_1" xmlns="http://www.w3.org/2000/svg" xmlns:xlink="http://www.w3.org/1999/xlink" x="0px" y="0px"
	 viewBox="0 0 172 172" style="enable-background:new 0 0 172 172;" xml:space="preserve">
<style type="text/css">
	.st0{fill:#FFFFFF;}
	.st1{fill:#C9161D;}
	.st2{font-family:'GenShinGothic-Bold';}
	.st3{font-size:32.342px;}
	.st4{font-family:'CenturyGothic-Bold';}
</style>
<g>
	<circle class="st0" cx="86" cy="86" r="84.5"/>
	<text transform="matrix(0.95 0 0 1 33.3979 59.1978)"><tspan x="0" y="0" class="st1 st2 st3">品牌</tspan><tspan x="64.7" y="0" class="st1 st4 st3">VIP</tspan></text>
	<g>
		<path id="hand_3_" class="st1" d="M125.4,127.9c-0.8-1.3-2.6-2.1-4.5-2.1c-1,0-2.5,0.3-3.9,1.5c-0.9,0.8-1.5,1.4-2.3,2.1
			c-1.7,1.6-4.6,4.3-14,12.8l-11.3,0c-3.3-0.1-5.7-0.7-7-1.8c-1.3-1.1-1.2-2.4-1.2-3h10c2.4,0,4.4,0,4.7,0c5.4,0,7.7-4.6,8.1-6.4
			c0-0.1,0-0.2-0.1-0.2c-0.1-0.1-0.2-0.1-0.3-0.1H64c-0.1,0-0.2,0.1-0.3,0.1L46.8,144c-0.1,0.1-0.1,0.3,0,0.4L64,157.7
			c0.1,0.1,0.2,0.1,0.2,0.1c0.1,0,0.2,0,0.2-0.1l9.4-7.3h0.9c0,0,0,0,0.1,0l29.7,0c0.1,0,0.2,0,0.3-0.1c0.2-0.2,17.1-16.1,20.1-19.2
			C125.9,130.1,126.1,129,125.4,127.9z"/>
		<g id="present_3_">
			<path id="bow_3_" class="st1" d="M103.1,68.1c-1.5-1.1-3.2-1.6-5-1.6c-3.2,0-6.4,1.7-8.8,4.8c-0.6,0.8-1.1,1.6-1.6,2.5
				c-0.5-0.9-1-1.7-1.6-2.5c-2.4-3-5.6-4.8-8.8-4.8c-1.8,0-3.5,0.6-5,1.6c-2.9,2.1-4,5.5-3,8.9c1.2,3.8,5.7,7.9,14.4,7.9
				c1.2,0,6.6,0,7.8,0h0c8.8,0,13.2-4.1,14.4-7.9C107.1,73.7,106,70.2,103.1,68.1z M83.8,80.7c-6.5,0-9.6-2.7-10.4-5
				c-0.5-1.6,0-3.1,1.4-4.1c0.8-0.6,1.6-0.8,2.5-0.8c3.5,0,7.4,4.1,8.1,9.8C84.9,80.6,84.4,80.7,83.8,80.7z M102,75.7
				c-0.7,2.3-3.9,5-10.4,5h0c-0.5,0-1.1,0-1.6-0.1c0.7-5.7,4.6-9.8,8.1-9.8c0.9,0,1.7,0.3,2.5,0.8C102,72.6,102.5,74.1,102,75.7z"/>
			<path id="box_3_" class="st1" d="M113.8,83.3h-52c-1.2,0-2.1,1-2.1,2.1v9.4c0,1.2,1,2.1,2.1,2.1H62v28.6c0,1.2,1,2.1,2.1,2.1
				h47.3c1.2,0,2.1-1,2.1-2.1V96.9h0.2c1.2,0,2.1-1,2.1-2.1v-9.4C115.9,84.2,114.9,83.3,113.8,83.3z M111.6,92.6h-0.2H89.9v-5.1
				h21.7V92.6z M63.9,87.6h21.7v5.1H64.1h-0.2V87.6z M66.2,96.9h19.4v26.4H66.2V96.9z M89.9,123.3V96.9h19.4v26.4H89.9z"/>
		</g>
	</g>
</g>
</svg>
