<?xml version="1.0" encoding="utf-8"?>
<!-- Generator: Adobe Illustrator 20.0.0, SVG Export Plug-In . SVG Version: 6.00 Build 0)  -->
<svg version="1.1" id="圖層_1" xmlns="http://www.w3.org/2000/svg" xmlns:xlink="http://www.w3.org/1999/xlink" x="0px" y="0px"
	 viewBox="0 0 227 103" style="enable-background:new 0 0 227 103;" xml:space="preserve">
<style type="text/css">
	.st0{fill:none;stroke:#C9161D;stroke-width:1.9422;stroke-linecap:round;stroke-miterlimit:10;}
	.st1{fill:none;stroke:#C9161D;stroke-width:0.6905;stroke-linecap:round;stroke-miterlimit:10;}
	.st2{fill:none;stroke:#ECAF34;stroke-width:2;stroke-linecap:round;stroke-linejoin:round;stroke-miterlimit:10;}
	.st3{fill:#C9161D;}
	.st4{font-family:'Impact';}
	.st5{font-size:40.8643px;}
	.st6{font-family:'MicrosoftJhengHeiBold';}
	.st7{font-size:14.4979px;}
	.st8{font-family:'DFHei-UB-HK-BF';}
	.st9{font-size:26.1971px;}
	.st10{letter-spacing:-1;}
</style>
<g>
	<g>
		<path class="st0" d="M207.3,101.3H19.7c-9.9,0-18-8.1-18-18V19.2c0-9.9,8.1-18,18-18h187.5c9.9,0,18,8.1,18,18v64.1
			C225.3,93.2,217.2,101.3,207.3,101.3z"/>
		<path class="st1" d="M22.5,96.7c-9.4,0-17.2-7.6-17.2-16.8V21.4c0-9.2,7.7-16.8,17.2-16.8h182.1c9.4,0,17.2,7.6,17.2,16.8v58.5
			c0,9.2-7.7,16.8-17.2,16.8"/>
		<line class="st2" x1="28.8" y1="96.6" x2="198.2" y2="96.6"/>
	</g>
	<text transform="matrix(1.1944 0 0 1 127.5352 88.2824)" class="st3 st4 st5">10%</text>
	<g>
		<text transform="matrix(1 0 0 1 28.2353 26.7167)" class="st3 st6 st7">6/9-6/17</text>
	</g>
	<g>
		<g>
			<text transform="matrix(1 0 0 1 126.2735 48.3576)" class="st3 st8 st9 st10">結帳</text>
		</g>
	</g>
	<g>
		<g>
			<text transform="matrix(1 0 0 1 24.94 83.6911)" class="st3 st8 st9 st10">最高回饋</text>
		</g>
	</g>
</g>
</svg>
