<?xml version="1.0" encoding="utf-8"?>
<!-- Generator: Adobe Illustrator 20.0.0, SVG Export Plug-In . SVG Version: 6.00 Build 0)  -->
<svg version="1.1" id="圖層_1" xmlns="http://www.w3.org/2000/svg" xmlns:xlink="http://www.w3.org/1999/xlink" x="0px" y="0px"
	 viewBox="0 0 227 103" style="enable-background:new 0 0 227 103;" xml:space="preserve">
<style type="text/css">
	.st0{fill:#C9161D;}
	.st1{font-family:'MicrosoftJhengHeiBold';}
	.st2{font-size:14.4979px;}
	.st3{font-family:'DFHei-UB-HK-BF';}
	.st4{font-size:34.504px;}
	.st5{letter-spacing:-1;}
	.st6{font-size:17.9993px;}
	.st7{fill:none;stroke:#C9161D;stroke-width:1.9422;stroke-linecap:round;stroke-miterlimit:10;}
	.st8{fill:none;stroke:#C9161D;stroke-width:0.6905;stroke-linecap:round;stroke-miterlimit:10;}
	.st9{fill:none;stroke:#ECAF34;stroke-width:2;stroke-linecap:round;stroke-linejoin:round;stroke-miterlimit:10;}
	.st10{font-family:'Impact';}
	.st11{font-size:58.4463px;}
	.st12{font-size:10.638px;}
</style>
<g>
	<text transform="matrix(1 0 0 1 34.0496 26.9418)" class="st0 st1 st2">週一~週日 刷指定卡最高</text>
</g>
<g>
	<g>
		<text transform="matrix(1 0 0 1 13.1413 80.5479)" class="st0 st3 st4 st5">送</text>
	</g>
</g>
<g>
	<g>
		<text transform="matrix(1 0 0 1 161.8011 68.2061)" class="st0 st3 st6">刷卡金</text>
	</g>
</g>
<g>
	<path class="st7" d="M207.3,101.6H19.7c-9.9,0-18-8.1-18-18V19.4c0-9.9,8.1-18,18-18h187.5c9.9,0,18,8.1,18,18v64.1
		C225.3,93.5,217.2,101.6,207.3,101.6z"/>
	<path class="st8" d="M22.5,96.9c-9.4,0-17.2-7.6-17.2-16.8V21.6c0-9.2,7.7-16.8,17.2-16.8h182.1c9.4,0,17.2,7.6,17.2,16.8v58.5
		c0,9.2-7.7,16.8-17.2,16.8"/>
	<line class="st9" x1="28.8" y1="96.8" x2="198.2" y2="96.8"/>
</g>
<text transform="matrix(1.1944 0 0 1 47.8267 84.6504)" class="st0 st10 st11">10%</text>
<g>
	<text transform="matrix(1 0 0 1 162.3333 84.0576)" class="st0 st1 st12">限量需登錄</text>
</g>
</svg>
