<?xml version="1.0" encoding="utf-8"?>
<!-- Generator: Adobe Illustrator 20.0.0, SVG Export Plug-In . SVG Version: 6.00 Build 0)  -->
<svg version="1.1" id="圖層_1" xmlns="http://www.w3.org/2000/svg" xmlns:xlink="http://www.w3.org/1999/xlink" x="0px" y="0px"
	 viewBox="0 0 227 103" style="enable-background:new 0 0 227 103;" xml:space="preserve">
<style type="text/css">
	.st0{fill:#C9161D;}
	.st1{font-family:'MicrosoftJhengHeiBold';}
	.st2{font-size:14.4979px;}
	.st3{font-family:'DFHei-UB-HK-BF';}
	.st4{font-size:36.5415px;}
	.st5{font-size:26.2386px;}
	.st6{fill:none;stroke:#C9161D;stroke-width:1.9422;stroke-linecap:round;stroke-miterlimit:10;}
	.st7{fill:none;stroke:#C9161D;stroke-width:0.6905;stroke-linecap:round;stroke-miterlimit:10;}
	.st8{fill:none;stroke:#ECAF34;stroke-width:2;stroke-linecap:round;stroke-linejoin:round;stroke-miterlimit:10;}
	.st9{font-family:'Impact';}
	.st10{font-size:57.1031px;}
</style>
<g>
	<text transform="matrix(1 0 0 1 21.0496 26.9418)" class="st0 st1 st2">週二/週四 刷指定卡不限金額</text>
</g>
<g>
	<g>
		<text transform="matrix(1 0 0 1 11.6274 78.3574)" class="st0 st3 st4">送</text>
	</g>
</g>
<g>
	<g>
		<text transform="matrix(1 0 0 1 136.8105 79.7178)" class="st0 st3 st5">刷卡金</text>
	</g>
</g>
<g>
	<path class="st6" d="M207.3,101.6H19.7c-9.9,0-18-8.1-18-18V19.4c0-9.9,8.1-18,18-18h187.5c9.9,0,18,8.1,18,18v64.1
		C225.3,93.5,217.2,101.6,207.3,101.6z"/>
	<path class="st7" d="M22.5,96.9c-9.4,0-17.2-7.6-17.2-16.8V21.6c0-9.2,7.7-16.8,17.2-16.8h182.1c9.4,0,17.2,7.6,17.2,16.8v58.5
		c0,9.2-7.7,16.8-17.2,16.8"/>
	<line class="st8" x1="28.8" y1="96.8" x2="198.2" y2="96.8"/>
</g>
<text transform="matrix(1.1944 0 0 1 50.3057 84.2871)" class="st0 st9 st10">5%</text>
</svg>
