<?xml version="1.0" encoding="utf-8"?>
<!-- Generator: Adobe Illustrator 20.0.0, SVG Export Plug-In . SVG Version: 6.00 Build 0)  -->
<svg version="1.1" id="圖層_1" xmlns="http://www.w3.org/2000/svg" xmlns:xlink="http://www.w3.org/1999/xlink" x="0px" y="0px"
	 viewBox="0 0 434 109" style="enable-background:new 0 0 434 109;" xml:space="preserve">
<style type="text/css">
	.st0{enable-background:new    ;}
	.st1{fill:#D6000F;}
	.st2{fill:#9D9D9E;}
	.st3{fill:none;stroke:#D6000F;stroke-width:2;stroke-linecap:round;stroke-miterlimit:10;}
	.st4{fill:none;stroke:#D6000F;stroke-width:0.75;stroke-linecap:round;stroke-miterlimit:10;}
	.st5{fill:none;stroke:#F6B42C;stroke-width:2;stroke-linecap:round;stroke-miterlimit:10;}
	.st6{display:none;}
	.st7{display:inline;}
	.st8{font-family:'Arial-ItalicMT';}
	.st9{font-size:109.8763px;}
	.st10{font-family:'NewGothic-Bold';}
	.st11{font-size:31.4835px;}
</style>
<g id="圖層_1_1_">
	<g>
		<g>
			<g class="st0">
				<path class="st1" d="M293.3,45.4c-0.6,1.1-1.4,2.4-2.4,3.7c0.9,1.8,1.3,4.7,1.3,8.5c0,2.6-0.2,4.4-0.7,5.3
					c-0.4,0.9-1.2,1.3-2.2,1.3h-1.2l-0.3-1.1h1.3c0.3,0,0.6-0.1,0.9-0.3c0.3-0.2,0.5-0.7,0.7-1.7c0.1-0.9,0.2-2,0.2-3.1
					c0-0.8,0-1.8-0.1-3.3c-1,1.6-2.1,2.9-3.3,4.1l-0.7-0.9c1.4-1.4,2.7-3,3.8-5.1c-0.1-1.1-0.4-2.1-0.7-3c-0.8,0.8-1.6,1.4-2.4,1.8
					l-0.9-0.8c1-0.5,1.9-1.2,2.8-2.2c-0.5-0.9-1.2-2-2.3-3.1L288,45c0.9,0.9,1.7,1.9,2.4,3c0.7-0.8,1.3-1.9,2-3.2L293.3,45.4z
					 M305.8,57.3h-11.7v-4.9c-0.5,0.5-0.9,0.8-1.1,0.9l-0.6-0.8c1.2-0.9,2.3-2.2,3.3-4l0.9,0.5c-0.1,0.3-0.3,0.5-0.4,0.7h3.4
					c-0.2-0.4-0.4-0.8-0.5-1.1l1.1-0.3l0.6,1.3h4.8v1h-5v1.2h4.7v1h-4.7v1.2h4.7v1h-4.7v1.2h5.2V57.3z M306.3,63.3l-0.4,0.9
					c-2-0.2-3.9-0.7-5.9-1.4c-1.8,0.7-4.1,1.2-6.8,1.5l-0.4-0.9c2.4-0.2,4.4-0.6,5.9-1.1c-1.6-0.8-2.8-1.7-3.7-2.8h-1.2v-1h11l0,1
					c-1.2,1.3-2.4,2.2-3.6,2.8C302.6,62.7,304.3,63.1,306.3,63.3z M298.6,48.3h-1v-1h-4.1v-1h4.1V45h1V48.3z M299.6,51.9v-1.2h-4
					l-0.4,0.4v0.8H299.6z M299.6,54.1v-1.2h-4.3v1.2H299.6z M299.6,56.3V55h-4.3v1.2H299.6z M303.4,59.5h-7.1c0.8,0.8,2,1.6,3.6,2.3
					C301.4,61.1,302.6,60.4,303.4,59.5z M306.2,47.3h-4v1h-1.1V45h1.1v1.3h4V47.3z"/>
				<path class="st1" d="M314.7,50.1c-0.3,0.8-0.9,1.8-1.7,3v11h-1.1v-9.4c-0.8,1-1.6,1.8-2.2,2.4l-0.7-0.9c2-1.8,3.6-4,4.8-6.6
					L314.7,50.1z M314.5,45.4c-1.3,2.2-2.8,3.9-4.7,5l-0.7-1c1.6-0.9,3.1-2.4,4.4-4.6L314.5,45.4z M328.2,58.1h-2.7v4.4
					c0,0.6-0.2,1-0.5,1.3c-0.4,0.3-1.2,0.4-2.5,0.4c-0.4,0-0.8,0-1.3,0l-0.4-1.1c0.4,0,0.9,0.1,1.5,0.1c1,0,1.6,0,1.8-0.2
					s0.3-0.3,0.3-0.5v-4.3h-9.8v-1.1h9.8v-2.1H315v-1.1h12.7v1.1h-2.2v2.1h2.7V58.1z M326.8,52.3h-10.7v-6.8h10.7V52.3z M320.1,62
					l-1,0.6c-0.4-1-1.2-2.1-2.3-3.5l1-0.6C318.7,59.7,319.5,60.8,320.1,62z M325.7,48.3v-1.8h-8.4v1.8H325.7z M325.7,51.2v-1.9h-8.4
					v1.9H325.7z"/>
				<path class="st1" d="M350.2,49.7h-12c0,1.2,0,2.4-0.1,3.8h9.4c0,2.1-0.1,4.1-0.4,6c-0.2,1.8-0.5,3-0.7,3.4c-0.2,0.5-0.6,0.8-1,1
					s-1.3,0.3-2.8,0.3c-0.5,0-1,0-1.4,0l-0.3-1.2c0.7,0,1.4,0.1,2.1,0.1c1.1,0,1.7-0.1,1.9-0.2s0.4-0.3,0.5-0.6
					c0.1-0.3,0.3-1.2,0.5-2.8s0.3-3.2,0.4-4.8h-8.3c-0.3,3.8-2.3,7-6.2,9.5l-0.9-0.9c1.3-0.8,2.5-1.8,3.6-3c1.1-1.3,1.8-2.6,2.1-4
					c0.3-1.4,0.5-3.6,0.5-6.5h-5.8v-1.2h9.2c-0.6-1.1-1.3-2.2-2.1-3.1l1.1-0.5c0.8,0.9,1.6,2.2,2.3,3.7h8.5V49.7z"/>
				<path class="st1" d="M372.2,59.5c-0.7,3.3-1.6,5-2.8,5c-0.3,0-0.6-0.1-0.9-0.3c-0.3-0.2-0.7-0.6-1.2-1.3c-0.5-0.7-1-1.6-1.4-2.7
					c-0.4-1.1-0.7-2.6-0.9-4.5c-0.2-1.9-0.3-3.9-0.4-5.8h-11.5v-1.2h11.4c-0.1-1.6-0.1-2.9-0.1-3.8h1.2c0,1.7,0,3,0.1,3.8h6.4v1.2
					h-6.4c0.1,1.5,0.2,3.6,0.5,6.2c0.3,2.6,0.8,4.4,1.6,5.5c0.7,1.1,1.2,1.7,1.5,1.7c0.4,0,0.7-0.5,1-1.6c0.3-1,0.6-2,0.6-2.8
					L372.2,59.5z M364,60.3c-3.6,0.9-6.9,1.6-10,2.2l-0.3-1.1c1.2-0.2,2.7-0.5,4.5-0.8v-6.4h-3.9V53h9.1v1.2h-4.1v6.1
					c1.7-0.4,3.3-0.7,4.7-1.1V60.3z M371.1,47.6l-1,0.7c-0.8-1-1.7-1.8-2.5-2.3l0.9-0.8C369.4,45.7,370.2,46.5,371.1,47.6z"/>
			</g>
		</g>
		<g>
			<g>
				<g>
					<g>
						<g class="st0">
							<path class="st1" d="M183,44.2h3.1h11.6l-0.4,3h-11.5l-1,7.3h10.7l-0.4,3h-10.7l-1.4,10.1h-3.2L183,44.2z"/>
							<path class="st1" d="M199.9,53.8c0.9-0.8,2-1.3,3.1-1.7c1.2-0.4,2.3-0.6,3.4-0.6c1.1,0,2.1,0.1,2.9,0.4
								c0.8,0.3,1.4,0.7,1.9,1.2s0.8,1,0.9,1.7c0.2,0.6,0.2,1.3,0.1,2l-1.1,8c-0.1,0.5-0.2,1.1-0.2,1.5s-0.1,0.9-0.1,1.3h-2.6
								c0-0.4,0-0.8,0.1-1.2c0-0.4,0.1-0.8,0.1-1.2h-0.1c-0.8,1-1.7,1.7-2.6,2.1c-1,0.4-2,0.6-3.2,0.6c-0.7,0-1.4-0.1-2-0.3
								s-1.2-0.5-1.6-0.9c-0.4-0.4-0.8-0.9-1-1.5c-0.2-0.6-0.3-1.3-0.1-2c0.1-1,0.5-1.9,1-2.5c0.5-0.7,1.2-1.2,2.1-1.7
								c0.8-0.4,1.8-0.7,2.9-0.9c1.1-0.2,2.2-0.3,3.4-0.3h2.2l0.1-0.7c0.1-0.4,0-0.8,0-1.2c-0.1-0.4-0.3-0.8-0.5-1.1
								c-0.3-0.3-0.6-0.6-1.1-0.8s-1-0.3-1.6-0.3c-0.6,0-1.1,0.1-1.5,0.2c-0.5,0.1-0.9,0.2-1.2,0.4c-0.4,0.2-0.7,0.4-1,0.6
								c-0.3,0.2-0.6,0.4-0.9,0.6L199.9,53.8z M207.4,60c-0.7,0-1.4,0-2.2,0.1c-0.7,0.1-1.4,0.2-2.1,0.4c-0.6,0.2-1.2,0.5-1.6,0.9
								c-0.4,0.4-0.7,0.9-0.8,1.5c-0.1,0.9,0.1,1.5,0.6,1.9c0.6,0.4,1.3,0.6,2.4,0.6c0.8,0,1.5-0.1,2.1-0.4c0.6-0.3,1.1-0.6,1.5-1.1
								c0.4-0.4,0.7-0.9,1-1.5c0.2-0.5,0.4-1.1,0.4-1.6l0.2-1H207.4z"/>
						</g>
						<g class="st0">
							<path class="st1" d="M224.8,55.8c-0.3-0.4-0.7-0.8-1.1-1.1c-0.5-0.3-1.1-0.4-1.8-0.4c-0.7,0-1.3,0.1-1.9,0.4
								c-0.6,0.3-0.9,0.7-0.9,1.3c-0.1,0.5,0,0.8,0.3,1.1c0.3,0.3,0.6,0.5,1,0.7c0.4,0.2,0.8,0.3,1.2,0.4c0.4,0.1,0.8,0.2,1.2,0.2
								c0.6,0.2,1.2,0.3,1.7,0.6c0.5,0.2,1,0.5,1.3,0.9s0.6,0.8,0.8,1.3c0.2,0.5,0.2,1.1,0.1,1.8c-0.1,0.9-0.4,1.6-0.9,2.3
								c-0.5,0.6-1,1.1-1.7,1.5c-0.7,0.4-1.4,0.7-2.2,0.9c-0.8,0.2-1.6,0.3-2.3,0.3c-1.3,0-2.4-0.2-3.3-0.6
								c-0.9-0.4-1.7-1.1-2.3-2.2l2.5-1.8c0.4,0.5,0.9,0.9,1.5,1.3c0.6,0.4,1.3,0.6,2.1,0.6c0.8,0,1.5-0.2,2.2-0.5
								c0.7-0.3,1.1-0.8,1.2-1.5c0.1-0.4,0-0.8-0.2-1.1s-0.5-0.5-0.9-0.7c-0.4-0.2-0.8-0.3-1.2-0.4c-0.4-0.1-0.8-0.2-1.1-0.2
								c-0.6-0.2-1.2-0.3-1.8-0.5c-0.6-0.2-1-0.5-1.4-0.8c-0.4-0.3-0.7-0.7-0.9-1.3c-0.2-0.5-0.2-1.1-0.1-1.9
								c0.1-0.8,0.4-1.5,0.8-2.1s0.9-1.1,1.6-1.5c0.6-0.4,1.3-0.7,2-0.9c0.7-0.2,1.5-0.3,2.2-0.3c1.1,0,2,0.2,2.9,0.6
								c0.9,0.4,1.6,1.1,2,2L224.8,55.8z"/>
							<path class="st1" d="M239.7,54.5h-4.3l-1,7.1c-0.1,0.4-0.1,0.9-0.1,1.3c0,0.4,0,0.8,0.1,1.2c0.1,0.3,0.3,0.6,0.5,0.8
								c0.3,0.2,0.7,0.3,1.3,0.3c0.4,0,0.7,0,1.1-0.1c0.4-0.1,0.7-0.2,1.1-0.4l-0.4,2.7c-0.2,0.1-0.4,0.2-0.7,0.3
								c-0.3,0.1-0.5,0.1-0.8,0.1c-0.3,0-0.5,0.1-0.7,0.1c-0.2,0-0.4,0-0.6,0c-1.1,0-2-0.2-2.6-0.5c-0.6-0.3-1-0.7-1.2-1.2
								c-0.2-0.5-0.3-1.1-0.3-1.7c0-0.6,0.1-1.3,0.2-1.9l1.2-8.1H229l0.4-2.6h3.4l0.6-4.4h3l-0.6,4.4h4.3L239.7,54.5z"/>
							<path class="st1" d="M243.6,53.8c0.9-0.8,2-1.3,3.1-1.7s2.3-0.6,3.4-0.6c1.1,0,2.1,0.1,2.9,0.4c0.8,0.3,1.4,0.7,1.9,1.2
								s0.8,1,0.9,1.7c0.2,0.6,0.2,1.3,0.1,2l-1.1,8c-0.1,0.5-0.2,1.1-0.2,1.5s-0.1,0.9-0.1,1.3h-2.6c0-0.4,0-0.8,0.1-1.2
								c0-0.4,0.1-0.8,0.1-1.2h-0.1c-0.8,1-1.7,1.7-2.6,2.1c-1,0.4-2,0.6-3.2,0.6c-0.7,0-1.4-0.1-2-0.3c-0.6-0.2-1.2-0.5-1.6-0.9
								c-0.4-0.4-0.8-0.9-1-1.5c-0.2-0.6-0.3-1.3-0.1-2c0.1-1,0.5-1.9,1-2.5c0.5-0.7,1.2-1.2,2.1-1.7c0.8-0.4,1.8-0.7,2.9-0.9
								c1.1-0.2,2.2-0.3,3.4-0.3h2.2l0.1-0.7c0.1-0.4,0-0.8,0-1.2c-0.1-0.4-0.3-0.8-0.5-1.1c-0.3-0.3-0.6-0.6-1.1-0.8
								c-0.4-0.2-1-0.3-1.6-0.3c-0.6,0-1.1,0.1-1.5,0.2c-0.5,0.1-0.9,0.2-1.2,0.4c-0.4,0.2-0.7,0.4-1,0.6c-0.3,0.2-0.6,0.4-0.9,0.6
								L243.6,53.8z M251.1,60c-0.7,0-1.4,0-2.2,0.1s-1.4,0.2-2.1,0.4c-0.6,0.2-1.2,0.5-1.6,0.9c-0.4,0.4-0.7,0.9-0.8,1.5
								c-0.1,0.9,0.1,1.5,0.6,1.9c0.5,0.4,1.3,0.6,2.4,0.6c0.8,0,1.5-0.1,2.1-0.4c0.6-0.3,1.1-0.6,1.5-1.1c0.4-0.4,0.7-0.9,1-1.5
								c0.2-0.5,0.4-1.1,0.4-1.6l0.2-1H251.1z"/>
							<path class="st1" d="M274.4,67.4c-0.2,1.2-0.5,2.3-1.1,3.2c-0.5,1-1.2,1.8-2.1,2.5c-0.8,0.7-1.8,1.3-2.9,1.7
								c-1.1,0.4-2.3,0.6-3.6,0.6c-1.5,0-2.8-0.2-4-0.6c-1.2-0.4-2.3-1.1-3.2-2.2l2.3-2.5c0.7,0.8,1.4,1.5,2.3,1.9
								c0.8,0.4,1.8,0.6,3,0.6c1.1,0,2-0.2,2.8-0.5c0.8-0.3,1.4-0.7,1.9-1.2c0.5-0.5,0.9-1.1,1.1-1.7c0.3-0.6,0.5-1.3,0.6-2l0.3-2.3
								h-0.1c-0.7,0.9-1.6,1.6-2.6,2.1c-1,0.5-2.1,0.7-3.2,0.7c-1.1,0-2.2-0.2-3.1-0.6s-1.7-1-2.3-1.7c-0.6-0.7-1-1.6-1.3-2.5
								c-0.3-1-0.3-2-0.1-3.2c0.2-1.1,0.5-2.2,1-3.2c0.5-1,1.2-1.9,2-2.6s1.7-1.3,2.7-1.7c1-0.4,2.2-0.6,3.4-0.6c1.1,0,2,0.2,3,0.7
								s1.6,1.1,2.1,1.9h0.1l0.3-2.2h3L274.4,67.4z M268.1,54.3c-0.8,0-1.5,0.1-2.2,0.4c-0.7,0.3-1.3,0.6-1.8,1.1
								c-0.5,0.5-0.9,1-1.3,1.7c-0.3,0.7-0.5,1.4-0.7,2.2c-0.2,1.6,0,2.8,0.8,3.8s2,1.4,3.6,1.4s2.9-0.5,3.9-1.4
								c1.1-1,1.7-2.2,1.9-3.8c0.1-0.8,0.1-1.5,0-2.2c-0.1-0.7-0.4-1.2-0.8-1.7c-0.4-0.5-0.9-0.8-1.5-1.1
								C269.6,54.4,268.9,54.3,268.1,54.3z"/>
						</g>
					</g>
					<g>
						<g class="st0">
							<path class="st2" d="M60.8,56.6l-1-2.2c3.3-0.9,5.5-2.4,6.7-4.5h-5.4l0.3-2.1h5.9l0-0.3l0.3-2.5H65c-0.5,0.8-1.2,1.6-2.2,2.5
								c-0.5-0.8-0.9-1.3-1.4-1.7c1.4-1.3,2.5-2.9,3.2-4.8l2.1,1L66.2,43h8.4l-0.2,2h-4.6l-0.3,2.5l0,0.3h5.2L74.3,50h-5
								c1.5,1,2.9,2.2,4.3,3.4l-1.6,2c-1.1-1.2-2.5-2.4-4.2-3.8C66.2,53.8,63.8,55.5,60.8,56.6z M80.7,67.6H62.2
								c-0.2,0-0.3-0.1-0.3-0.3l1.3-11c0-0.2,0.2-0.3,0.4-0.3h18.5c0.2,0,0.3,0.1,0.3,0.3l-1.3,11C81.1,67.5,81,67.6,80.7,67.6z
								 M64.8,62.9l-0.3,2.3c0,0.1,0,0.1,0.1,0.1h14.2l0.1-0.1l0.3-2.3H64.8z M79.5,60.7l0.3-2.4c0-0.1,0-0.1-0.1-0.1H65.5
								c-0.1,0-0.1,0-0.1,0.1l-0.3,2.4H79.5z M84.6,54.4h-9.4c-0.2,0-0.3-0.1-0.3-0.3l1.3-11.2c0-0.2,0.1-0.3,0.3-0.3H86
								c0.2,0,0.3,0.1,0.3,0.3l-1.3,11.2C84.9,54.3,84.8,54.4,84.6,54.4z M78.4,44.7C78.3,44.7,78.3,44.8,78.4,44.7l-1,7.4l0.1,0.1
								h5.3l0.1-0.1l0.9-7.4l-0.1-0.1H78.4z"/>
							<path class="st2" d="M91.5,63.8c-1.3,1.9-2.6,3.4-4.1,4.5c-0.4-0.8-0.8-1.5-1.2-1.9c1.3-1,2.4-2.3,3.3-3.9L91.5,63.8z
								 M109.3,60.8c-0.1,0.5-0.3,0.7-0.8,0.7H90.8l0.2-2H107c0.1,0,0.2-0.1,0.2-0.2l0.1-1.1h-20l0.2-1.9h20l0.1-1.2
								c0-0.1,0-0.2-0.2-0.2h-16l0.2-2h17.8c0.5,0,0.7,0.2,0.6,0.7l-0.3,2.7h3.8l-0.2,1.9h-3.8L109.3,60.8z M88.9,51.5l0-2l5.1-0.1
								l0.2-1.4h-4.6l0.2-1.9h4.6l0.1-1.2h-5.1l0.2-1.9h5.1l0.2-1.7h2.3l-0.2,1.7h4.3l-0.2,1.9h-4.3L96.7,46h3.7l-0.2,1.9h-3.7
								l-0.1,1.2c1.6-0.2,3-0.4,3.9-0.5l0,2c-0.9,0.2-2.3,0.4-4.2,0.6l-0.1,1h-2.3l0.1-0.9L88.9,51.5z M103.7,65.9
								c0.4,0,0.7-0.1,1-0.2c0.2-0.1,0.4-0.3,0.6-0.5l0.3-1.8l2.4,0.2c-0.2,2.1-0.5,3.4-0.9,3.6c-0.6,0.7-1.6,1-2.8,1H95
								c-0.7,0-1.2-0.2-1.5-0.5c-0.7-0.6-1-1.7-0.8-3.2l0.3-2.8h2.4l-0.3,2.4c-0.1,0.6-0.1,1,0,1.1c0.1,0.3,0.5,0.5,1.2,0.5h4.2
								c-0.7-1.1-1.4-2-2-2.6l1.8-1.6c0.7,0.7,1.4,1.7,2.2,2.9l-1.6,1.3H103.7z M101.2,51.1l0.2-1.9h5.2l0.2-1.3h-4.1l0.2-1.9h4.1
								l0.2-1.3h-4.6l0.2-1.9h4.6l0.2-1.6h2.3l-0.2,1.6h5l-0.2,1.9h-5l-0.2,1.3h4.1l-0.2,1.9h-4.1l-0.2,1.3h5.3l-0.2,1.9h-5.3
								l-0.1,1.1h-2.3l0.1-1.1H101.2z M110.2,62.2c0.8,1.3,1.5,2.9,2.2,5l-2.2,1c-0.7-2-1.3-3.6-2-4.6L110.2,62.2z"/>
							<path class="st2" d="M119.9,68h-2.3l1.4-11.4c-0.6,1.3-1.2,2.4-1.7,3.3l-2.3-0.5c2.1-3.2,3.6-6.5,4.6-10h-3l0.3-2.5h3.3
								l0.7-5.6h2.3l-0.7,5.6h2.1l-0.3,2.5h-2.1l-0.1,0.7c0.9,1.8,1.8,3.6,2.6,5.5l-2.2,1.3l-0.9-2.4L119.9,68z M127.5,63.3
								c-2,2.1-3.9,3.4-5.6,4.1l-1.2-2.1c2.1-0.9,3.8-2.2,5.1-3.7L127.5,63.3z M122.9,61.1l0.3-2.4h17.9l-0.3,2.4h-7.5l-0.5,4.5
								c-0.2,1.1-0.7,1.9-1.6,2.5c-0.9,0.6-2.6,0.5-5-0.3l0.4-2.6l1.6,0.6c0.9,0.2,1.5,0.2,1.8,0c0.2-0.2,0.3-0.4,0.3-0.8l0.5-3.8
								H122.9z M141.8,46.2c0.2,0,0.3,0.1,0.3,0.3l-0.8,6.6c0,0.2-0.2,0.3-0.4,0.3h-15.8c-0.2,0-0.3-0.1-0.3-0.3l0.8-6.6
								c0-0.2,0.1-0.3,0.3-0.3h4.4l0.2-1.7h-5.3l0.3-2.3h17.6l-0.3,2.3h-5.3l-0.2,1.7H141.8z M140.3,54.8l-0.3,2.4h-14.5l0.3-2.4
								H140.3z M130.1,48.4h-2.3c-0.1,0-0.1,0-0.1,0.1l-0.3,2.6l0.1,0.1h2.3L130.1,48.4z M134.8,48.4h-2.4l-0.3,2.8h2.4L134.8,48.4z
								 M135.3,44.4h-2.4l-0.2,1.7h2.4L135.3,44.4z M136.7,62.2c1.2,0.9,2.5,2.2,3.8,4l-1.9,1.8c-1.4-1.8-2.6-3.1-3.7-3.9
								L136.7,62.2z M136.8,51.2h2.4l0.1-0.1l0.3-2.6l-0.1-0.1h-2.4L136.8,51.2z"/>
							<path class="st2" d="M142.5,67.3l0-2.1l5.9-0.3l0.2-2.1h-5.2l0.2-1.8h5.2l0.2-1.5h-5.2l0.2-1.8h5.2l0.2-1.4h-5.3l0.2-1.8h5.3
								l0.2-1.5h-5.6l0.2-1.9h7.1l-2-1.8c-0.7,0.6-1.4,1.1-2.3,1.5l-1-1.7c1.6-0.8,2.9-1.8,3.9-3.1l1.4,1.3l-0.6,0.7l1.9,1.4
								l-1.3,1.7h10.1l0.1-4.1l2.2,0.2l-0.1,3.9h6.2l-0.2,1.9h-5.9c0.1,2.5,0.2,4.6,0.4,6.3c0.4-0.7,1.1-2.2,1.9-4.6l2,0.5
								c-0.9,2.7-2,5-3.4,7l0.7,2.5c0.2,0.6,0.4,1,0.5,0.9c0.2,0,0.3-0.2,0.3-0.6c0.2-0.9,0.3-1.9,0.4-3.2l2.1,0.5
								c-0.3,2.3-0.8,4-1.4,5.2c-0.3,0.4-0.6,0.7-0.8,0.8c-0.2,0.1-0.5,0.2-0.8,0.1c-0.5,0-1-0.4-1.5-1c-0.5-0.8-0.9-1.9-1.3-3.3
								c-1.9,1.8-3.5,3.1-4.8,4l-1.5-1.5l0.5-0.3L142.5,67.3z M148.5,45c-0.8,0.9-1.8,1.7-2.9,2.5c-0.3-0.8-0.6-1.4-1-1.9
								c1.7-1.1,3.1-2.6,4.3-4.5l1.8,1.3l-0.4,0.6h7.1l-0.2,2h-3.1l0.6,1l-1.7,1.3l-1.5-2.3H148.5z M152.9,64.6l1.4-11.5H152
								l-1.4,11.7L152.9,64.6z M154.8,51l-1.3-1.4c1.3-0.8,2.3-1.9,3.1-3.1l1.6,1l-0.4,0.5l2.4,1.4l-1.1,1.8l-2.4-1.7L154.8,51z
								 M162.5,61.8c-0.5-2.5-0.8-5.5-0.9-8.8h-5.2l-0.2,1.5h4.5l-0.2,1.8h-4.5l-0.2,1.4h4.5l-0.2,1.8h-4.5l-0.2,1.5h4.5l-0.2,1.8
								h-4.5l-0.2,1.7l4.1-0.3l-0.1,0.9l2.6-2.2L162.5,61.8z M160.3,45l-0.1,0.1c-0.7,0.7-1.4,1.4-2.2,2c-0.3-0.8-0.7-1.4-1.1-1.8
								c1.4-1,2.6-2.5,3.6-4.2l1.9,1.2l-0.5,0.7h9.1l-0.2,2h-5.2l0.4,1.2l-1.9,0.9l-0.8-2.1H160.3z M166.8,46.6
								c0.8,0.5,1.6,1.2,2.5,2.1l-1.6,1.8c-0.9-0.9-1.7-1.6-2.3-2L166.8,46.6z"/>
						</g>
						<g class="st0">
							<path class="st1" d="M60.8,56.6l-1-2.2c3.3-0.9,5.5-2.4,6.7-4.5h-5.4l0.3-2.1h5.9l0-0.3l0.3-2.5H65c-0.5,0.8-1.2,1.6-2.2,2.5
								c-0.5-0.8-0.9-1.3-1.4-1.7c1.4-1.3,2.5-2.9,3.2-4.8l2.1,1L66.2,43h8.4l-0.2,2h-4.6l-0.3,2.5l0,0.3h5.2L74.3,50h-5
								c1.5,1,2.9,2.2,4.3,3.4l-1.6,2c-1.1-1.2-2.5-2.4-4.2-3.8C66.2,53.8,63.8,55.5,60.8,56.6z M80.7,67.6H62.2
								c-0.2,0-0.3-0.1-0.3-0.3l1.3-11c0-0.2,0.2-0.3,0.4-0.3h18.5c0.2,0,0.3,0.1,0.3,0.3l-1.3,11C81.1,67.5,81,67.6,80.7,67.6z
								 M64.8,62.9l-0.3,2.3c0,0.1,0,0.1,0.1,0.1h14.2l0.1-0.1l0.3-2.3H64.8z M79.5,60.7l0.3-2.4c0-0.1,0-0.1-0.1-0.1H65.5
								c-0.1,0-0.1,0-0.1,0.1l-0.3,2.4H79.5z M84.6,54.4h-9.4c-0.2,0-0.3-0.1-0.3-0.3l1.3-11.2c0-0.2,0.1-0.3,0.3-0.3H86
								c0.2,0,0.3,0.1,0.3,0.3l-1.3,11.2C84.9,54.3,84.8,54.4,84.6,54.4z M78.4,44.7C78.3,44.7,78.3,44.8,78.4,44.7l-1,7.4l0.1,0.1
								h5.3l0.1-0.1l0.9-7.4l-0.1-0.1H78.4z"/>
							<path class="st1" d="M91.5,63.8c-1.3,1.9-2.6,3.4-4.1,4.5c-0.4-0.8-0.8-1.5-1.2-1.9c1.3-1,2.4-2.3,3.3-3.9L91.5,63.8z
								 M109.3,60.8c-0.1,0.5-0.3,0.7-0.8,0.7H90.8l0.2-2H107c0.1,0,0.2-0.1,0.2-0.2l0.1-1.1h-20l0.2-1.9h20l0.1-1.2
								c0-0.1,0-0.2-0.2-0.2h-16l0.2-2h17.8c0.5,0,0.7,0.2,0.6,0.7l-0.3,2.7h3.8l-0.2,1.9h-3.8L109.3,60.8z M88.9,51.5l0-2l5.1-0.1
								l0.2-1.4h-4.6l0.2-1.9h4.6l0.1-1.2h-5.1l0.2-1.9h5.1l0.2-1.7h2.3l-0.2,1.7h4.3l-0.2,1.9h-4.3L96.7,46h3.7l-0.2,1.9h-3.7
								l-0.1,1.2c1.6-0.2,3-0.4,3.9-0.5l0,2c-0.9,0.2-2.3,0.4-4.2,0.6l-0.1,1h-2.3l0.1-0.9L88.9,51.5z M103.7,65.9
								c0.4,0,0.7-0.1,1-0.2c0.2-0.1,0.4-0.3,0.6-0.5l0.3-1.8l2.4,0.2c-0.2,2.1-0.5,3.4-0.9,3.6c-0.6,0.7-1.6,1-2.8,1H95
								c-0.7,0-1.2-0.2-1.5-0.5c-0.7-0.6-1-1.7-0.8-3.2l0.3-2.8h2.4l-0.3,2.4c-0.1,0.6-0.1,1,0,1.1c0.1,0.3,0.5,0.5,1.2,0.5h4.2
								c-0.7-1.1-1.4-2-2-2.6l1.8-1.6c0.7,0.7,1.4,1.7,2.2,2.9l-1.6,1.3H103.7z M101.2,51.1l0.2-1.9h5.2l0.2-1.3h-4.1l0.2-1.9h4.1
								l0.2-1.3h-4.6l0.2-1.9h4.6l0.2-1.6h2.3l-0.2,1.6h5l-0.2,1.9h-5l-0.2,1.3h4.1l-0.2,1.9h-4.1l-0.2,1.3h5.3l-0.2,1.9h-5.3
								l-0.1,1.1h-2.3l0.1-1.1H101.2z M110.2,62.2c0.8,1.3,1.5,2.9,2.2,5l-2.2,1c-0.7-2-1.3-3.6-2-4.6L110.2,62.2z"/>
							<path class="st1" d="M119.9,68h-2.3l1.4-11.4c-0.6,1.3-1.2,2.4-1.7,3.3l-2.3-0.5c2.1-3.2,3.6-6.5,4.6-10h-3l0.3-2.5h3.3
								l0.7-5.6h2.3l-0.7,5.6h2.1l-0.3,2.5h-2.1l-0.1,0.7c0.9,1.8,1.8,3.6,2.6,5.5l-2.2,1.3l-0.9-2.4L119.9,68z M127.5,63.3
								c-2,2.1-3.9,3.4-5.6,4.1l-1.2-2.1c2.1-0.9,3.8-2.2,5.1-3.7L127.5,63.3z M122.9,61.1l0.3-2.4h17.9l-0.3,2.4h-7.5l-0.5,4.5
								c-0.2,1.1-0.7,1.9-1.6,2.5c-0.9,0.6-2.6,0.5-5-0.3l0.4-2.6l1.6,0.6c0.9,0.2,1.5,0.2,1.8,0c0.2-0.2,0.3-0.4,0.3-0.8l0.5-3.8
								H122.9z M141.8,46.2c0.2,0,0.3,0.1,0.3,0.3l-0.8,6.6c0,0.2-0.2,0.3-0.4,0.3h-15.8c-0.2,0-0.3-0.1-0.3-0.3l0.8-6.6
								c0-0.2,0.1-0.3,0.3-0.3h4.4l0.2-1.7h-5.3l0.3-2.3h17.6l-0.3,2.3h-5.3l-0.2,1.7H141.8z M140.3,54.8l-0.3,2.4h-14.5l0.3-2.4
								H140.3z M130.1,48.4h-2.3c-0.1,0-0.1,0-0.1,0.1l-0.3,2.6l0.1,0.1h2.3L130.1,48.4z M134.8,48.4h-2.4l-0.3,2.8h2.4L134.8,48.4z
								 M135.3,44.4h-2.4l-0.2,1.7h2.4L135.3,44.4z M136.7,62.2c1.2,0.9,2.5,2.2,3.8,4l-1.9,1.8c-1.4-1.8-2.6-3.1-3.7-3.9
								L136.7,62.2z M136.8,51.2h2.4l0.1-0.1l0.3-2.6l-0.1-0.1h-2.4L136.8,51.2z"/>
							<path class="st1" d="M142.5,67.3l0-2.1l5.9-0.3l0.2-2.1h-5.2l0.2-1.8h5.2l0.2-1.5h-5.2l0.2-1.8h5.2l0.2-1.4h-5.3l0.2-1.8h5.3
								l0.2-1.5h-5.6l0.2-1.9h7.1l-2-1.8c-0.7,0.6-1.4,1.1-2.3,1.5l-1-1.7c1.6-0.8,2.9-1.8,3.9-3.1l1.4,1.3l-0.6,0.7l1.9,1.4
								l-1.3,1.7h10.1l0.1-4.1l2.2,0.2l-0.1,3.9h6.2l-0.2,1.9h-5.9c0.1,2.5,0.2,4.6,0.4,6.3c0.4-0.7,1.1-2.2,1.9-4.6l2,0.5
								c-0.9,2.7-2,5-3.4,7l0.7,2.5c0.2,0.6,0.4,1,0.5,0.9c0.2,0,0.3-0.2,0.3-0.6c0.2-0.9,0.3-1.9,0.4-3.2l2.1,0.5
								c-0.3,2.3-0.8,4-1.4,5.2c-0.3,0.4-0.6,0.7-0.8,0.8c-0.2,0.1-0.5,0.2-0.8,0.1c-0.5,0-1-0.4-1.5-1c-0.5-0.8-0.9-1.9-1.3-3.3
								c-1.9,1.8-3.5,3.1-4.8,4l-1.5-1.5l0.5-0.3L142.5,67.3z M148.5,45c-0.8,0.9-1.8,1.7-2.9,2.5c-0.3-0.8-0.6-1.4-1-1.9
								c1.7-1.1,3.1-2.6,4.3-4.5l1.8,1.3l-0.4,0.6h7.1l-0.2,2h-3.1l0.6,1l-1.7,1.3l-1.5-2.3H148.5z M152.9,64.6l1.4-11.5H152
								l-1.4,11.7L152.9,64.6z M154.8,51l-1.3-1.4c1.3-0.8,2.3-1.9,3.1-3.1l1.6,1l-0.4,0.5l2.4,1.4l-1.1,1.8l-2.4-1.7L154.8,51z
								 M162.5,61.8c-0.5-2.5-0.8-5.5-0.9-8.8h-5.2l-0.2,1.5h4.5l-0.2,1.8h-4.5l-0.2,1.4h4.5l-0.2,1.8h-4.5l-0.2,1.5h4.5l-0.2,1.8
								h-4.5l-0.2,1.7l4.1-0.3l-0.1,0.9l2.6-2.2L162.5,61.8z M160.3,45l-0.1,0.1c-0.7,0.7-1.4,1.4-2.2,2c-0.3-0.8-0.7-1.4-1.1-1.8
								c1.4-1,2.6-2.5,3.6-4.2l1.9,1.2l-0.5,0.7h9.1l-0.2,2h-5.2l0.4,1.2l-1.9,0.9l-0.8-2.1H160.3z M166.8,46.6
								c0.8,0.5,1.6,1.2,2.5,2.1l-1.6,1.8c-0.9-0.9-1.7-1.6-2.3-2L166.8,46.6z"/>
						</g>
					</g>
				</g>
			</g>
		</g>
		<path class="st3" d="M51.5,81.3c-14.7,0-26.8-12-26.8-26.8l0,0c0-14.7,12-26.8,26.8-26.8h279.7"/>
		<path class="st4" d="M51.8,77.4c-12.5,0-22.7-10.2-22.7-22.7l0,0C29.1,42.2,39.3,32,51.8,32h237"/>
		<line class="st5" x1="283.7" y1="81.3" x2="56.3" y2="81.3"/>
		<path class="st3" d="M382.5,27.7c14.7,0,26.8,12,26.8,26.8l0,0c0,14.7-12,26.8-26.8,26.8h-93.8"/>
		<path class="st4" d="M381.9,31.6c12.6,0,22.9,10.3,22.9,22.9l0,0c0,12.6-10.3,22.9-22.9,22.9h-78.7"/>
		<line class="st5" x1="337" y1="27.7" x2="377.5" y2="27.7"/>
	</g>
</g>
<g id="圖層_2" class="st6">
	<g class="st7">
		<g>
			<text transform="matrix(0.9913 0 0 1 28.583 89.0664)" class="st1 st8 st9">1</text>
		</g>
		<g>
			<g>
				<g>
					<g>
						<text transform="matrix(0.9559 0 -0.1195 0.9928 155.5657 69.072)" class="st2 st10 st11">限時首購優惠</text>
						<g>
							<text transform="matrix(0.9559 0 -0.1195 0.9928 155.5657 69.072)" class="st1 st10 st11">限時首購優惠</text>
						</g>
					</g>
				</g>
			</g>
			<path class="st3" d="M126.7,82.2c-14.7,0-26.8-12-26.8-26.8l0,0c0-14.7,12-26.8,26.8-26.8h149.8"/>
			<path class="st4" d="M127,78.4c-12.5,0-22.7-10.2-22.7-22.7l0,0c0-12.5,10.2-22.7,22.7-22.7h107.1"/>
			<line class="st5" x1="276.5" y1="82.2" x2="131.5" y2="82.2"/>
			<path class="st3" d="M375.3,28.7c14.7,0,26.8,12,26.8,26.8l0,0c0,14.7-12,26.8-26.8,26.8h-93.8"/>
			<path class="st4" d="M374.7,32.5c12.6,0,22.9,10.3,22.9,22.9l0,0c0,12.6-10.3,22.9-22.9,22.9H296"/>
			<line class="st5" x1="282.2" y1="28.7" x2="370.3" y2="28.7"/>
		</g>
	</g>
</g>
<g id="圖層_3" class="st6">
	<g class="st7">
		<g>
			<text transform="matrix(0.9913 0 0 1 29.0518 85.9468)" class="st1 st8 st9">2</text>
		</g>
		<g>
			<g>
				<g>
					<g>
						<text transform="matrix(0.9559 0 -0.1195 0.9928 142.0361 69.6184)" class="st2 st10 st11">銀行狂慶加碼送</text>
						<g>
							<text transform="matrix(0.9559 0 -0.1195 0.9928 142.0361 69.6184)" class="st1 st10 st11">銀行狂慶加碼送</text>
						</g>
					</g>
				</g>
			</g>
			<path class="st3" d="M127.1,82.8c-14.7,0-26.8-12-26.8-26.8l0,0c0-14.7,12-26.8,26.8-26.8h149.8"/>
			<path class="st4" d="M127.4,78.9c-12.5,0-22.7-10.2-22.7-22.7l0,0c0-12.5,10.2-22.7,22.7-22.7h107.1"/>
			<line class="st5" x1="276.9" y1="82.8" x2="132" y2="82.8"/>
			<path class="st3" d="M375.8,29.2c14.7,0,26.8,12,26.8,26.8l0,0c0,14.7-12,26.8-26.8,26.8H282"/>
			<path class="st4" d="M375.1,33.1c12.6,0,22.9,10.3,22.9,22.9l0,0c0,12.6-10.3,22.9-22.9,22.9h-78.7"/>
			<line class="st5" x1="282.7" y1="29.2" x2="370.8" y2="29.2"/>
		</g>
	</g>
</g>
<g id="圖層_4">
	<g>
		<g>
			<g>
				<g class="st6">
					<g class="st7">
						<g class="st0">
							<path class="st2" d="M106.3-238.9h-2.6l0.9-7.5h-3l0.3-2.7h3l1.4-11.3c0-0.4,0.3-0.7,0.7-0.7h9.1l0.3-2.8h-12.2l0.3-2.5h26.5
								l-0.3,2.5h-11.8l-0.3,2.8h9c0.4,0,0.6,0.2,0.6,0.7l-1.4,11.3h2.8l-0.3,2.7h-2.8l-0.6,4.7c-0.1,1.1-0.6,1.9-1.5,2.5
								c-1.5,1-4,1-7.6,0l0.4-2.9c2.8,0.9,4.6,1.1,5.5,0.6c0.5-0.3,0.8-0.7,0.8-1.2l0.4-3.6h-16.8L106.3-238.9z M114.7-249.1
								l0.4-3.4h-7.2l-0.4,3.4H114.7z M115.9-258.4h-7c-0.1,0-0.2,0.1-0.2,0.2l-0.4,3.2h7.2L115.9-258.4z M124.4-249.1l0.4-3.4h-7.1
								l-0.4,3.4H124.4z M118-255h7.1l0.4-3.2c0-0.1-0.1-0.2-0.2-0.2h-6.8L118-255z"/>
							<path class="st2" d="M149.7-241.9c-0.3,0.9-0.7,1.6-1.3,2.1c-2.9,2.1-6.8,2.1-11.9,0.2l0.3-2.9c1.8,0.8,3.4,1.2,4.8,1.5
								c2.4,0.3,4.1,0,5.1-1c0.2-0.2,0.4-0.5,0.5-0.9c0.1-0.6,0-1.2-0.6-2H132l0.3-2.5h11.3l-0.7-0.4l1.7-2.3l1.1,0.7l5.2-1.9H135
								l0.3-2.4h20.9l0,2.5c-2.1,1.1-4.9,2.2-8.6,3.4l0.4,0.4H159l-0.3,2.5h-9C150-243.8,149.9-242.8,149.7-241.9z M146.9-267.5h2.7
								l-0.2,1.9h12l-0.3,2.4h-26.8l0.3-2.4h12.1L146.9-267.5z M157-255.2h-20.8c-0.2,0-0.3-0.1-0.3-0.4l0.7-5.7
								c0-0.2,0.1-0.3,0.4-0.3h20.8c0.2,0,0.3,0.1,0.3,0.3l-0.7,5.7C157.4-255.3,157.3-255.2,157-255.2z M139.1-259.3
								c-0.1,0-0.1,0-0.1,0.1l-0.2,1.6c0,0.1,0,0.1,0.1,0.2H155l0.1-0.2l0.2-1.6c0-0.1,0-0.1-0.1-0.1H139.1z"/>
							<path class="st2" d="M164.2-262.4l0.3-2.3h7.2l-0.8-1.3l2.2-1.5c0.5,0.7,1.1,1.6,1.5,2.8h6.6c1.1-1.1,1.9-2.1,2.5-2.9
								l1.8,1.6l-1,1.3h6.8l-0.3,2.3h-9.4l-0.2,1.8h7.4c0.2,0,0.3,0.1,0.3,0.3l-1.6,13c0,0.2-0.2,0.3-0.4,0.3h-2.6l-0.2,1.4h4.8
								l-0.3,2.3h-4.8l-0.2,2c-0.2,1.2-0.7,2-1.6,2.6c-1.2,0.8-3.3,0.7-6.3-0.2l0.3-2.6l2.3,0.6l1.5,0.2c0.3,0,0.7-0.1,1.1-0.4
								c0.2-0.2,0.3-0.4,0.4-0.8l0.2-1.3h-20l0.3-2.3h20l0.2-1.4h-17.6c-0.2,0-0.3-0.1-0.3-0.3l1.6-13c0-0.2,0.1-0.3,0.3-0.3h7.4
								l0.2-1.8H164.2z M167-250.9l-0.2,1.7l0.1,0.1h18.4l0.1-0.1l0.2-1.7H167z M169.1-243c0.8,1,1.5,2,2.2,3.1l-2.2,1.5
								c-0.7-1.2-1.4-2.1-2.1-3L169.1-243z M173.3-258.4H168c-0.1,0-0.1,0-0.1,0.1l-0.6,5.4h18.6l0.2-1.5h-6.7c-0.7,0-1-0.4-0.9-1.1
								l0.3-2.9h-3.3c-0.1,0.5-0.2,1-0.5,1.6c-0.8,1.5-2.7,2.5-5.8,3l-0.4-2.4c2.2-0.1,3.6-0.6,4.2-1.4L173.3-258.4z M175.7-260.6
								h3.3l0.2-1.8H176L175.7-260.6z M186.3-256.5l0.2-1.8l-0.1-0.1h-5.3l-0.2,1.3c0,0.4,0.1,0.6,0.5,0.6H186.3z"/>
							<path class="st2" d="M207.4-250.1h8.3l-0.3,2.4h-7.6c3,2.6,6.8,4.4,11.4,5.6l-1.7,2.4c-4.5-1.5-8-3.4-10.7-5.7l-0.9,7.2h-2.4
								l0.9-7.4c-4.4,3-8.4,4.9-12,5.8l-0.9-2.4c4.1-1,8.1-2.8,12-5.4h-6.9l0.3-2.4h8l0.3-2.6H196c-0.2,0-0.2,0.1-0.3,0.2l-0.5,4.2
								h-2.4l0.8-6.4c0-0.3,0.2-0.5,0.5-0.5h25l2,1.1c-0.4,1.6-1.1,3.6-2.2,6l-2.2-0.9l1.4-3.4c0-0.2-0.1-0.4-0.2-0.4h-10
								L207.4-250.1z M195-255.7l-1.1-2.1c1-0.3,1.9-0.7,2.7-1.2c2.1-1.3,3.4-3,3.7-5.2l0.4-3.2h2.2l-0.4,3.2
								c-0.1,0.7-0.4,1.5-0.8,2.6c1.3,0.9,2.8,2.1,4.3,3.6l-1.6,2c-1.5-1.5-2.8-2.6-3.9-3.4C199.2-257.9,197.4-256.7,195-255.7z
								 M196.8-266.5c0.7,1.1,1.5,2.6,2.2,4.4l-2.1,1.2c-0.8-1.9-1.5-3.3-2.1-4.3L196.8-266.5z M207.9-265.6
								c-0.7,1.2-1.8,2.6-3.1,4.2l-1.7-1.3c1.4-1.6,2.4-3,3.1-4.1L207.9-265.6z M220.5-257.5l-1.5,2.1c-2.1-1.7-3.9-2.9-5.5-3.8
								c-1.3,1.4-3,2.5-5.1,3.4l-1-2.1c1-0.3,1.8-0.6,2.6-1.1c2-1.2,3.2-2.8,3.6-4.8l0.4-3.7h2.2l-0.4,3.7c-0.1,0.7-0.4,1.5-0.8,2.4
								C216.6-260.4,218.4-259.1,220.5-257.5z M210-266.5c0.7,1,1.3,2.4,1.8,4.1l-2.1,1.1c-0.6-1.7-1.2-3.1-1.8-4L210-266.5z
								 M221.2-265.3c-0.8,1.2-1.8,2.4-3.2,3.8l-1.6-1.4c1.4-1.5,2.4-2.7,3-3.7L221.2-265.3z"/>
						</g>
						<text transform="matrix(0.9559 0 -0.1195 0.9928 225.9661 -238.8417)" class="st2 st11" style="font-family:'ArialMT';">Prime</text>
						<text transform="matrix(0.9559 0 -0.1195 0.9928 312.3452 -240.9364)" class="st2 st10 st11">會員價</text>
						<g>
							<text transform="matrix(0.9559 0 -0.1195 0.9928 99.8482 -240.9364)" class="st1 st10 st11">再享尊榮</text>
							<text transform="matrix(0.9559 0 -0.1195 0.9928 225.9661 -238.8417)" class="st1 st11" style="font-family:'ArialMT';">Prime</text>
							<text transform="matrix(0.9559 0 -0.1195 0.9928 312.3452 -240.9364)" class="st1 st10 st11">會員價</text>
						</g>
					</g>
				</g>
			</g>
		</g>
	</g>
</g>
</svg>
