<?xml version="1.0" encoding="utf-8"?>
<!-- Generator: Adobe Illustrator 20.0.0, SVG Export Plug-In . SVG Version: 6.00 Build 0)  -->
<svg version="1.1" id="圖層_1" xmlns="http://www.w3.org/2000/svg" xmlns:xlink="http://www.w3.org/1999/xlink" x="0px" y="0px"
	 viewBox="0 0 434 109" style="enable-background:new 0 0 434 109;" xml:space="preserve">
<style type="text/css">
	.st0{enable-background:new    ;}
	.st1{fill:#9D9D9E;}
	.st2{fill:#D6000F;}
	.st3{fill:none;stroke:#D6000F;stroke-width:2;stroke-linecap:round;stroke-miterlimit:10;}
	.st4{fill:none;stroke:#D6000F;stroke-width:0.75;stroke-linecap:round;stroke-miterlimit:10;}
	.st5{fill:none;stroke:#F6B42C;stroke-width:2;stroke-linecap:round;stroke-miterlimit:10;}
</style>
<g>
	<g>
		<g>
			<g>
				<g>
					<g class="st0">
						<path class="st1" d="M268.8,55.8c-0.3-0.4-0.7-0.8-1.1-1.1c-0.5-0.3-1.1-0.4-1.8-0.4c-0.7,0-1.3,0.1-1.9,0.4
							c-0.6,0.3-0.9,0.7-0.9,1.3c-0.1,0.5,0,0.8,0.3,1.1c0.3,0.3,0.6,0.5,1,0.7c0.4,0.2,0.8,0.3,1.2,0.4c0.4,0.1,0.8,0.2,1.2,0.2
							c0.6,0.2,1.2,0.3,1.7,0.6c0.5,0.2,1,0.5,1.3,0.9c0.4,0.4,0.6,0.8,0.8,1.3c0.2,0.5,0.2,1.1,0.1,1.8c-0.1,0.9-0.4,1.6-0.9,2.3
							c-0.5,0.6-1,1.1-1.7,1.5c-0.7,0.4-1.4,0.7-2.2,0.9c-0.8,0.2-1.6,0.3-2.3,0.3c-1.3,0-2.4-0.2-3.3-0.6c-0.9-0.4-1.7-1.1-2.3-2.2
							l2.5-1.8c0.4,0.5,0.9,0.9,1.5,1.3c0.6,0.4,1.3,0.6,2.1,0.6c0.8,0,1.5-0.2,2.2-0.5c0.7-0.3,1.1-0.8,1.2-1.5
							c0.1-0.4,0-0.8-0.2-1.1s-0.5-0.5-0.9-0.7c-0.4-0.2-0.8-0.3-1.2-0.4c-0.4-0.1-0.8-0.2-1.1-0.2c-0.6-0.2-1.2-0.3-1.8-0.5
							c-0.6-0.2-1-0.5-1.4-0.8c-0.4-0.3-0.7-0.7-0.9-1.3s-0.2-1.1-0.1-1.9c0.1-0.8,0.4-1.5,0.8-2.1s0.9-1.1,1.6-1.5
							c0.6-0.4,1.3-0.7,2-0.9c0.7-0.2,1.5-0.3,2.2-0.3c1.1,0,2,0.2,2.9,0.6c0.9,0.4,1.6,1.1,2,2L268.8,55.8z"/>
						<path class="st1" d="M283.7,54.5h-4.3l-1,7.1c-0.1,0.4-0.1,0.9-0.1,1.3s0,0.8,0.1,1.2c0.1,0.3,0.3,0.6,0.5,0.8
							c0.3,0.2,0.7,0.3,1.3,0.3c0.4,0,0.7,0,1.1-0.1c0.4-0.1,0.7-0.2,1.1-0.4l-0.4,2.7c-0.2,0.1-0.4,0.2-0.7,0.3
							c-0.3,0.1-0.5,0.1-0.8,0.1c-0.3,0-0.5,0.1-0.7,0.1c-0.2,0-0.4,0-0.6,0c-1.1,0-2-0.2-2.6-0.5c-0.6-0.3-1-0.7-1.2-1.2
							s-0.3-1.1-0.3-1.7s0.1-1.3,0.2-1.9l1.2-8.1H273l0.4-2.6h3.4l0.6-4.4h3l-0.6,4.4h4.3L283.7,54.5z"/>
						<path class="st1" d="M287.6,53.8c0.9-0.8,2-1.3,3.1-1.7c1.2-0.4,2.3-0.6,3.4-0.6c1.1,0,2.1,0.1,2.9,0.4s1.4,0.7,1.9,1.2
							s0.8,1,0.9,1.7c0.2,0.6,0.2,1.3,0.1,2l-1.1,8c-0.1,0.5-0.2,1.1-0.2,1.5s-0.1,0.9-0.1,1.3h-2.6c0-0.4,0-0.8,0.1-1.2
							c0-0.4,0.1-0.8,0.1-1.2h-0.1c-0.8,1-1.7,1.7-2.6,2.1c-1,0.4-2,0.6-3.2,0.6c-0.7,0-1.4-0.1-2-0.3c-0.6-0.2-1.2-0.5-1.6-0.9
							c-0.4-0.4-0.8-0.9-1-1.5c-0.2-0.6-0.3-1.3-0.1-2c0.1-1,0.5-1.9,1-2.5c0.5-0.7,1.2-1.2,2.1-1.7s1.8-0.7,2.9-0.9
							s2.2-0.3,3.4-0.3h2.2l0.1-0.7c0.1-0.4,0-0.8,0-1.2c-0.1-0.4-0.3-0.8-0.5-1.1c-0.3-0.3-0.6-0.6-1.1-0.8c-0.4-0.2-1-0.3-1.6-0.3
							c-0.6,0-1.1,0.1-1.5,0.2c-0.5,0.1-0.9,0.2-1.2,0.4c-0.4,0.2-0.7,0.4-1,0.6c-0.3,0.2-0.6,0.4-0.9,0.6L287.6,53.8z M295.1,60
							c-0.7,0-1.4,0-2.2,0.1c-0.8,0.1-1.4,0.2-2.1,0.4c-0.6,0.2-1.2,0.5-1.6,0.9c-0.4,0.4-0.7,0.9-0.8,1.5c-0.1,0.9,0.1,1.5,0.6,1.9
							c0.6,0.4,1.3,0.6,2.4,0.6c0.8,0,1.5-0.1,2.1-0.4c0.6-0.3,1.1-0.6,1.5-1.1c0.4-0.4,0.7-0.9,1-1.5c0.2-0.5,0.4-1.1,0.4-1.6
							l0.2-1H295.1z"/>
						<path class="st1" d="M318.4,67.4c-0.2,1.2-0.5,2.3-1.1,3.2c-0.5,1-1.2,1.8-2.1,2.5s-1.8,1.3-2.9,1.7c-1.1,0.4-2.3,0.6-3.6,0.6
							c-1.5,0-2.8-0.2-4-0.6c-1.2-0.4-2.3-1.1-3.2-2.2l2.3-2.5c0.7,0.8,1.4,1.5,2.3,1.9c0.8,0.4,1.8,0.6,3,0.6c1.1,0,2-0.2,2.8-0.5
							c0.8-0.3,1.4-0.7,1.9-1.2s0.9-1.1,1.1-1.7c0.3-0.6,0.4-1.3,0.6-2l0.3-2.3h-0.1c-0.7,0.9-1.6,1.6-2.6,2.1
							c-1,0.5-2.1,0.7-3.2,0.7c-1.1,0-2.2-0.2-3.1-0.6c-0.9-0.4-1.7-1-2.3-1.7s-1-1.6-1.3-2.5s-0.3-2-0.1-3.2c0.2-1.1,0.5-2.2,1-3.2
							c0.5-1,1.2-1.9,2-2.6c0.8-0.7,1.7-1.3,2.7-1.7c1-0.4,2.2-0.6,3.4-0.6c1.1,0,2,0.2,3,0.7c0.9,0.5,1.6,1.1,2.1,1.9h0.1l0.3-2.2
							h3L318.4,67.4z M312.1,54.3c-0.8,0-1.5,0.1-2.2,0.4c-0.7,0.3-1.3,0.6-1.8,1.1c-0.5,0.5-0.9,1-1.3,1.7
							c-0.3,0.7-0.5,1.4-0.7,2.2c-0.2,1.6,0,2.8,0.8,3.8s2,1.4,3.6,1.4c1.6,0,2.9-0.5,4-1.4c1.1-1,1.7-2.2,1.9-3.8
							c0.1-0.8,0.1-1.5,0-2.2c-0.1-0.7-0.4-1.2-0.8-1.7c-0.4-0.5-0.9-0.8-1.5-1.1C313.6,54.4,312.9,54.3,312.1,54.3z"/>
					</g>
					<g class="st0">
						<path class="st2" d="M230.2,44.2h3.1h11.6l-0.4,3h-11.5l-1,7.3h10.7l-0.4,3h-10.7l-1.4,10.1h-3.2L230.2,44.2z"/>
						<path class="st2" d="M245.4,53.8c0.9-0.8,2-1.3,3.1-1.7s2.3-0.6,3.4-0.6c1.1,0,2.1,0.1,2.9,0.4c0.8,0.3,1.4,0.7,1.9,1.2
							s0.8,1,0.9,1.7c0.2,0.6,0.2,1.3,0.1,2l-1.1,8c-0.1,0.5-0.2,1.1-0.2,1.5s-0.1,0.9-0.1,1.3h-2.6c0-0.4,0-0.8,0.1-1.2
							c0-0.4,0.1-0.8,0.1-1.2h-0.1c-0.8,1-1.7,1.7-2.6,2.1c-1,0.4-2,0.6-3.2,0.6c-0.7,0-1.4-0.1-2-0.3c-0.6-0.2-1.2-0.5-1.6-0.9
							c-0.4-0.4-0.8-0.9-1-1.5c-0.2-0.6-0.3-1.3-0.1-2c0.1-1,0.5-1.9,1-2.5c0.5-0.7,1.2-1.2,2.1-1.7c0.8-0.4,1.8-0.7,2.9-0.9
							c1.1-0.2,2.2-0.3,3.4-0.3h2.2l0.1-0.7c0.1-0.4,0-0.8,0-1.2c-0.1-0.4-0.3-0.8-0.5-1.1c-0.3-0.3-0.6-0.6-1.1-0.8
							c-0.4-0.2-1-0.3-1.6-0.3c-0.6,0-1.1,0.1-1.5,0.2c-0.5,0.1-0.9,0.2-1.2,0.4c-0.4,0.2-0.7,0.4-1,0.6c-0.3,0.2-0.6,0.4-0.9,0.6
							L245.4,53.8z M252.9,60c-0.7,0-1.4,0-2.2,0.1s-1.4,0.2-2.1,0.4c-0.6,0.2-1.2,0.5-1.6,0.9c-0.4,0.4-0.7,0.9-0.8,1.5
							c-0.1,0.9,0.1,1.5,0.6,1.9c0.5,0.4,1.3,0.6,2.4,0.6c0.8,0,1.5-0.1,2.1-0.4c0.6-0.3,1.1-0.6,1.5-1.1c0.4-0.4,0.7-0.9,1-1.5
							c0.2-0.5,0.4-1.1,0.4-1.6l0.2-1H252.9z"/>
					</g>
					<g class="st0">
						<path class="st2" d="M268.8,55.8c-0.3-0.4-0.7-0.8-1.1-1.1c-0.5-0.3-1.1-0.4-1.8-0.4c-0.7,0-1.3,0.1-1.9,0.4
							c-0.6,0.3-0.9,0.7-0.9,1.3c-0.1,0.5,0,0.8,0.3,1.1c0.3,0.3,0.6,0.5,1,0.7c0.4,0.2,0.8,0.3,1.2,0.4c0.4,0.1,0.8,0.2,1.2,0.2
							c0.6,0.2,1.2,0.3,1.7,0.6c0.5,0.2,1,0.5,1.3,0.9c0.4,0.4,0.6,0.8,0.8,1.3c0.2,0.5,0.2,1.1,0.1,1.8c-0.1,0.9-0.4,1.6-0.9,2.3
							c-0.5,0.6-1,1.1-1.7,1.5c-0.7,0.4-1.4,0.7-2.2,0.9c-0.8,0.2-1.6,0.3-2.3,0.3c-1.3,0-2.4-0.2-3.3-0.6c-0.9-0.4-1.7-1.1-2.3-2.2
							l2.5-1.8c0.4,0.5,0.9,0.9,1.5,1.3c0.6,0.4,1.3,0.6,2.1,0.6c0.8,0,1.5-0.2,2.2-0.5c0.7-0.3,1.1-0.8,1.2-1.5
							c0.1-0.4,0-0.8-0.2-1.1s-0.5-0.5-0.9-0.7c-0.4-0.2-0.8-0.3-1.2-0.4c-0.4-0.1-0.8-0.2-1.1-0.2c-0.6-0.2-1.2-0.3-1.8-0.5
							c-0.6-0.2-1-0.5-1.4-0.8c-0.4-0.3-0.7-0.7-0.9-1.3s-0.2-1.1-0.1-1.9c0.1-0.8,0.4-1.5,0.8-2.1s0.9-1.1,1.6-1.5
							c0.6-0.4,1.3-0.7,2-0.9c0.7-0.2,1.5-0.3,2.2-0.3c1.1,0,2,0.2,2.9,0.6c0.9,0.4,1.6,1.1,2,2L268.8,55.8z"/>
						<path class="st2" d="M283.7,54.5h-4.3l-1,7.1c-0.1,0.4-0.1,0.9-0.1,1.3s0,0.8,0.1,1.2c0.1,0.3,0.3,0.6,0.5,0.8
							c0.3,0.2,0.7,0.3,1.3,0.3c0.4,0,0.7,0,1.1-0.1c0.4-0.1,0.7-0.2,1.1-0.4l-0.4,2.7c-0.2,0.1-0.4,0.2-0.7,0.3
							c-0.3,0.1-0.5,0.1-0.8,0.1c-0.3,0-0.5,0.1-0.7,0.1c-0.2,0-0.4,0-0.6,0c-1.1,0-2-0.2-2.6-0.5c-0.6-0.3-1-0.7-1.2-1.2
							s-0.3-1.1-0.3-1.7s0.1-1.3,0.2-1.9l1.2-8.1H273l0.4-2.6h3.4l0.6-4.4h3l-0.6,4.4h4.3L283.7,54.5z"/>
						<path class="st2" d="M287.6,53.8c0.9-0.8,2-1.3,3.1-1.7c1.2-0.4,2.3-0.6,3.4-0.6c1.1,0,2.1,0.1,2.9,0.4s1.4,0.7,1.9,1.2
							s0.8,1,0.9,1.7c0.2,0.6,0.2,1.3,0.1,2l-1.1,8c-0.1,0.5-0.2,1.1-0.2,1.5s-0.1,0.9-0.1,1.3h-2.6c0-0.4,0-0.8,0.1-1.2
							c0-0.4,0.1-0.8,0.1-1.2h-0.1c-0.8,1-1.7,1.7-2.6,2.1c-1,0.4-2,0.6-3.2,0.6c-0.7,0-1.4-0.1-2-0.3c-0.6-0.2-1.2-0.5-1.6-0.9
							c-0.4-0.4-0.8-0.9-1-1.5c-0.2-0.6-0.3-1.3-0.1-2c0.1-1,0.5-1.9,1-2.5c0.5-0.7,1.2-1.2,2.1-1.7s1.8-0.7,2.9-0.9
							s2.2-0.3,3.4-0.3h2.2l0.1-0.7c0.1-0.4,0-0.8,0-1.2c-0.1-0.4-0.3-0.8-0.5-1.1c-0.3-0.3-0.6-0.6-1.1-0.8c-0.4-0.2-1-0.3-1.6-0.3
							c-0.6,0-1.1,0.1-1.5,0.2c-0.5,0.1-0.9,0.2-1.2,0.4c-0.4,0.2-0.7,0.4-1,0.6c-0.3,0.2-0.6,0.4-0.9,0.6L287.6,53.8z M295.1,60
							c-0.7,0-1.4,0-2.2,0.1c-0.8,0.1-1.4,0.2-2.1,0.4c-0.6,0.2-1.2,0.5-1.6,0.9c-0.4,0.4-0.7,0.9-0.8,1.5c-0.1,0.9,0.1,1.5,0.6,1.9
							c0.6,0.4,1.3,0.6,2.4,0.6c0.8,0,1.5-0.1,2.1-0.4c0.6-0.3,1.1-0.6,1.5-1.1c0.4-0.4,0.7-0.9,1-1.5c0.2-0.5,0.4-1.1,0.4-1.6
							l0.2-1H295.1z"/>
						<path class="st2" d="M318.4,67.4c-0.2,1.2-0.5,2.3-1.1,3.2c-0.5,1-1.2,1.8-2.1,2.5s-1.8,1.3-2.9,1.7c-1.1,0.4-2.3,0.6-3.6,0.6
							c-1.5,0-2.8-0.2-4-0.6c-1.2-0.4-2.3-1.1-3.2-2.2l2.3-2.5c0.7,0.8,1.4,1.5,2.3,1.9c0.8,0.4,1.8,0.6,3,0.6c1.1,0,2-0.2,2.8-0.5
							c0.8-0.3,1.4-0.7,1.9-1.2s0.9-1.1,1.1-1.7c0.3-0.6,0.4-1.3,0.6-2l0.3-2.3h-0.1c-0.7,0.9-1.6,1.6-2.6,2.1
							c-1,0.5-2.1,0.7-3.2,0.7c-1.1,0-2.2-0.2-3.1-0.6c-0.9-0.4-1.7-1-2.3-1.7s-1-1.6-1.3-2.5s-0.3-2-0.1-3.2c0.2-1.1,0.5-2.2,1-3.2
							c0.5-1,1.2-1.9,2-2.6c0.8-0.7,1.7-1.3,2.7-1.7c1-0.4,2.2-0.6,3.4-0.6c1.1,0,2,0.2,3,0.7c0.9,0.5,1.6,1.1,2.1,1.9h0.1l0.3-2.2
							h3L318.4,67.4z M312.1,54.3c-0.8,0-1.5,0.1-2.2,0.4c-0.7,0.3-1.3,0.6-1.8,1.1c-0.5,0.5-0.9,1-1.3,1.7
							c-0.3,0.7-0.5,1.4-0.7,2.2c-0.2,1.6,0,2.8,0.8,3.8s2,1.4,3.6,1.4c1.6,0,2.9-0.5,4-1.4c1.1-1,1.7-2.2,1.9-3.8
							c0.1-0.8,0.1-1.5,0-2.2c-0.1-0.7-0.4-1.2-0.8-1.7c-0.4-0.5-0.9-0.8-1.5-1.1C313.6,54.4,312.9,54.3,312.1,54.3z"/>
					</g>
				</g>
				<g>
					<g class="st0">
						<path class="st1" d="M108,56.6l-1-2.2c3.3-0.9,5.5-2.4,6.7-4.5h-5.4l0.3-2.1h5.9l0-0.3l0.3-2.5h-2.7c-0.5,0.8-1.2,1.6-2.2,2.5
							c-0.5-0.8-0.9-1.3-1.4-1.7c1.4-1.3,2.5-2.9,3.2-4.8l2.1,1l-0.5,0.9h8.4l-0.2,2h-4.6l-0.3,2.5l0,0.3h5.2l-0.3,2.1h-5
							c1.5,1,2.9,2.2,4.3,3.4l-1.6,2c-1.1-1.2-2.5-2.4-4.2-3.8C113.4,53.8,111,55.5,108,56.6z M127.9,67.6h-18.5
							c-0.2,0-0.3-0.1-0.3-0.3l1.3-11c0-0.2,0.2-0.3,0.4-0.3h18.5c0.2,0,0.3,0.1,0.3,0.3l-1.3,11C128.2,67.5,128.1,67.6,127.9,67.6z
							 M112,62.9l-0.3,2.3c0,0.1,0,0.1,0.1,0.1H126l0.1-0.1l0.3-2.3H112z M126.7,60.7l0.3-2.4c0-0.1,0-0.1-0.1-0.1h-14.2
							c-0.1,0-0.1,0-0.1,0.1l-0.3,2.4H126.7z M131.7,54.4h-9.4c-0.2,0-0.3-0.1-0.3-0.3l1.3-11.2c0-0.2,0.1-0.3,0.3-0.3h9.4
							c0.2,0,0.3,0.1,0.3,0.3l-1.3,11.2C132.1,54.3,131.9,54.4,131.7,54.4z M125.5,44.7C125.4,44.7,125.4,44.8,125.5,44.7l-1,7.4
							l0.1,0.1h5.3l0.1-0.1l0.9-7.4l-0.1-0.1H125.5z"/>
						<path class="st1" d="M138.7,63.8c-1.3,1.9-2.6,3.4-4.1,4.5c-0.4-0.8-0.8-1.5-1.2-1.9c1.3-1,2.4-2.3,3.3-3.9L138.7,63.8z
							 M156.5,60.8c-0.1,0.5-0.3,0.7-0.8,0.7H138l0.2-2h15.9c0.1,0,0.2-0.1,0.2-0.2l0.1-1.1h-20l0.2-1.9h20l0.1-1.2
							c0-0.1,0-0.2-0.2-0.2h-16l0.2-2h17.8c0.5,0,0.7,0.2,0.6,0.7l-0.3,2.7h3.8l-0.2,1.9h-3.8L156.5,60.8z M136.1,51.5l0-2l5.1-0.1
							l0.2-1.4h-4.6L137,46h4.6l0.1-1.2h-5.1l0.2-1.9h5.1l0.2-1.7h2.3l-0.2,1.7h4.3l-0.2,1.9H144l-0.1,1.2h3.7l-0.2,1.9h-3.7
							l-0.1,1.2c1.6-0.2,3-0.4,3.9-0.5l0,2c-0.9,0.2-2.3,0.4-4.2,0.6l-0.1,1h-2.3l0.1-0.9L136.1,51.5z M150.8,65.9
							c0.4,0,0.7-0.1,1-0.2c0.2-0.1,0.4-0.3,0.6-0.5l0.3-1.8l2.4,0.2c-0.2,2.1-0.5,3.4-0.9,3.6c-0.6,0.7-1.6,1-2.8,1h-9.1
							c-0.7,0-1.2-0.2-1.5-0.5c-0.7-0.6-1-1.7-0.8-3.2l0.3-2.8h2.4l-0.3,2.4c-0.1,0.6-0.1,1,0,1.1c0.1,0.3,0.5,0.5,1.2,0.5h4.2
							c-0.7-1.1-1.4-2-2-2.6l1.8-1.6c0.7,0.7,1.4,1.7,2.2,2.9l-1.6,1.3H150.8z M148.4,51.1l0.2-1.9h5.2l0.2-1.3h-4.1l0.2-1.9h4.1
							l0.2-1.3h-4.6l0.2-1.9h4.6l0.2-1.6h2.3l-0.2,1.6h5l-0.2,1.9h-5l-0.2,1.3h4.1l-0.2,1.9h-4.1l-0.2,1.3h5.3l-0.2,1.9h-5.3
							l-0.1,1.1h-2.3l0.1-1.1H148.4z M157.3,62.2c0.8,1.3,1.5,2.9,2.2,5l-2.2,1c-0.7-2-1.3-3.6-2-4.6L157.3,62.2z"/>
						<path class="st1" d="M167.1,68h-2.3l1.4-11.4c-0.6,1.3-1.2,2.4-1.7,3.3l-2.3-0.5c2.1-3.2,3.6-6.5,4.6-10h-3l0.3-2.5h3.3
							l0.7-5.6h2.3l-0.7,5.6h2.1l-0.3,2.5h-2.1l-0.1,0.7c0.9,1.8,1.8,3.6,2.6,5.5l-2.2,1.3l-0.9-2.4L167.1,68z M174.7,63.3
							c-2,2.1-3.9,3.4-5.6,4.1l-1.2-2.1c2.1-0.9,3.8-2.2,5.1-3.7L174.7,63.3z M170.1,61.1l0.3-2.4h17.9l-0.3,2.4h-7.5l-0.5,4.5
							c-0.2,1.1-0.7,1.9-1.6,2.5c-0.9,0.6-2.6,0.5-5-0.3l0.4-2.6l1.7,0.6c0.9,0.2,1.5,0.2,1.8,0c0.2-0.2,0.3-0.4,0.3-0.8l0.5-3.8
							H170.1z M189,46.2c0.2,0,0.3,0.1,0.3,0.3l-0.8,6.6c0,0.2-0.2,0.3-0.4,0.3h-15.8c-0.2,0-0.3-0.1-0.3-0.3l0.8-6.6
							c0-0.2,0.1-0.3,0.3-0.3h4.4l0.2-1.7h-5.3l0.3-2.3h17.6l-0.3,2.3h-5.3l-0.2,1.7H189z M187.5,54.8l-0.3,2.4h-14.5l0.3-2.4H187.5
							z M177.3,48.4H175c-0.1,0-0.1,0-0.1,0.1l-0.3,2.6l0.1,0.1h2.3L177.3,48.4z M182,48.4h-2.4l-0.3,2.8h2.4L182,48.4z M182.5,44.4
							H180l-0.2,1.7h2.4L182.5,44.4z M183.8,62.2c1.2,0.9,2.5,2.2,3.8,4l-1.9,1.8c-1.4-1.8-2.6-3.1-3.7-3.9L183.8,62.2z M183.9,51.2
							h2.4l0.1-0.1l0.3-2.6l-0.1-0.1h-2.4L183.9,51.2z"/>
						<path class="st1" d="M189.7,67.3l0-2.1l5.9-0.3l0.2-2.1h-5.2l0.2-1.8h5.2l0.2-1.5H191l0.2-1.8h5.2l0.2-1.4h-5.3l0.2-1.8h5.3
							l0.2-1.5h-5.6l0.2-1.9h7.1l-2-1.8c-0.7,0.6-1.4,1.1-2.3,1.5l-1-1.7c1.6-0.8,2.9-1.8,3.9-3.1l1.4,1.3l-0.6,0.7l1.9,1.4
							l-1.3,1.7h10.1l0.1-4.1l2.2,0.2l-0.1,3.9h6.2l-0.2,1.9H211c0.1,2.5,0.2,4.6,0.4,6.3c0.4-0.7,1.1-2.2,1.9-4.6l2,0.5
							c-0.9,2.7-2,5-3.4,7l0.7,2.5c0.2,0.6,0.4,1,0.5,0.9c0.2,0,0.3-0.2,0.3-0.6c0.2-0.9,0.3-1.9,0.4-3.2l2.1,0.5
							c-0.3,2.3-0.8,4-1.4,5.2c-0.3,0.4-0.6,0.7-0.8,0.8c-0.2,0.1-0.5,0.2-0.8,0.1c-0.5,0-1-0.4-1.5-1c-0.5-0.8-0.9-1.9-1.3-3.3
							c-1.9,1.8-3.5,3.1-4.8,4l-1.5-1.5l0.5-0.3L189.7,67.3z M195.7,45c-0.8,0.9-1.8,1.7-2.9,2.5c-0.3-0.8-0.6-1.4-1-1.9
							c1.7-1.1,3.1-2.6,4.3-4.5l1.8,1.3l-0.4,0.6h7.1l-0.2,2h-3.1l0.6,1l-1.7,1.3l-1.5-2.3H195.7z M200.1,64.6l1.4-11.5h-2.3
							l-1.4,11.7L200.1,64.6z M202,51l-1.3-1.4c1.3-0.8,2.3-1.9,3.1-3.1l1.6,1L205,48l2.4,1.4l-1.1,1.8l-2.4-1.7L202,51z
							 M209.7,61.8c-0.5-2.5-0.8-5.5-0.9-8.8h-5.2l-0.2,1.5h4.5l-0.2,1.8h-4.5l-0.2,1.4h4.5l-0.2,1.8h-4.5l-0.2,1.5h4.5l-0.2,1.8
							h-4.5l-0.2,1.7l4.1-0.3l-0.1,0.9l2.6-2.2L209.7,61.8z M207.5,45l-0.1,0.1c-0.7,0.7-1.4,1.4-2.2,2c-0.3-0.8-0.7-1.4-1.1-1.8
							c1.4-1,2.6-2.5,3.6-4.2l1.9,1.2L209,43h9.1l-0.2,2h-5.2l0.4,1.2l-1.9,0.9l-0.8-2.1H207.5z M214,46.6c0.8,0.5,1.6,1.2,2.5,2.1
							l-1.6,1.8c-0.9-0.9-1.7-1.6-2.3-2L214,46.6z"/>
					</g>
					<g class="st0">
						<path class="st2" d="M108,56.6l-1-2.2c3.3-0.9,5.5-2.4,6.7-4.5h-5.4l0.3-2.1h5.9l0-0.3l0.3-2.5h-2.7c-0.5,0.8-1.2,1.6-2.2,2.5
							c-0.5-0.8-0.9-1.3-1.4-1.7c1.4-1.3,2.5-2.9,3.2-4.8l2.1,1l-0.5,0.9h8.4l-0.2,2h-4.6l-0.3,2.5l0,0.3h5.2l-0.3,2.1h-5
							c1.5,1,2.9,2.2,4.3,3.4l-1.6,2c-1.1-1.2-2.5-2.4-4.2-3.8C113.4,53.8,111,55.5,108,56.6z M127.9,67.6h-18.5
							c-0.2,0-0.3-0.1-0.3-0.3l1.3-11c0-0.2,0.2-0.3,0.4-0.3h18.5c0.2,0,0.3,0.1,0.3,0.3l-1.3,11C128.2,67.5,128.1,67.6,127.9,67.6z
							 M112,62.9l-0.3,2.3c0,0.1,0,0.1,0.1,0.1H126l0.1-0.1l0.3-2.3H112z M126.7,60.7l0.3-2.4c0-0.1,0-0.1-0.1-0.1h-14.2
							c-0.1,0-0.1,0-0.1,0.1l-0.3,2.4H126.7z M131.7,54.4h-9.4c-0.2,0-0.3-0.1-0.3-0.3l1.3-11.2c0-0.2,0.1-0.3,0.3-0.3h9.4
							c0.2,0,0.3,0.1,0.3,0.3l-1.3,11.2C132.1,54.3,131.9,54.4,131.7,54.4z M125.5,44.7C125.4,44.7,125.4,44.8,125.5,44.7l-1,7.4
							l0.1,0.1h5.3l0.1-0.1l0.9-7.4l-0.1-0.1H125.5z"/>
						<path class="st2" d="M138.7,63.8c-1.3,1.9-2.6,3.4-4.1,4.5c-0.4-0.8-0.8-1.5-1.2-1.9c1.3-1,2.4-2.3,3.3-3.9L138.7,63.8z
							 M156.5,60.8c-0.1,0.5-0.3,0.7-0.8,0.7H138l0.2-2h15.9c0.1,0,0.2-0.1,0.2-0.2l0.1-1.1h-20l0.2-1.9h20l0.1-1.2
							c0-0.1,0-0.2-0.2-0.2h-16l0.2-2h17.8c0.5,0,0.7,0.2,0.6,0.7l-0.3,2.7h3.8l-0.2,1.9h-3.8L156.5,60.8z M136.1,51.5l0-2l5.1-0.1
							l0.2-1.4h-4.6L137,46h4.6l0.1-1.2h-5.1l0.2-1.9h5.1l0.2-1.7h2.3l-0.2,1.7h4.3l-0.2,1.9H144l-0.1,1.2h3.7l-0.2,1.9h-3.7
							l-0.1,1.2c1.6-0.2,3-0.4,3.9-0.5l0,2c-0.9,0.2-2.3,0.4-4.2,0.6l-0.1,1h-2.3l0.1-0.9L136.1,51.5z M150.8,65.9
							c0.4,0,0.7-0.1,1-0.2c0.2-0.1,0.4-0.3,0.6-0.5l0.3-1.8l2.4,0.2c-0.2,2.1-0.5,3.4-0.9,3.6c-0.6,0.7-1.6,1-2.8,1h-9.1
							c-0.7,0-1.2-0.2-1.5-0.5c-0.7-0.6-1-1.7-0.8-3.2l0.3-2.8h2.4l-0.3,2.4c-0.1,0.6-0.1,1,0,1.1c0.1,0.3,0.5,0.5,1.2,0.5h4.2
							c-0.7-1.1-1.4-2-2-2.6l1.8-1.6c0.7,0.7,1.4,1.7,2.2,2.9l-1.6,1.3H150.8z M148.4,51.1l0.2-1.9h5.2l0.2-1.3h-4.1l0.2-1.9h4.1
							l0.2-1.3h-4.6l0.2-1.9h4.6l0.2-1.6h2.3l-0.2,1.6h5l-0.2,1.9h-5l-0.2,1.3h4.1l-0.2,1.9h-4.1l-0.2,1.3h5.3l-0.2,1.9h-5.3
							l-0.1,1.1h-2.3l0.1-1.1H148.4z M157.3,62.2c0.8,1.3,1.5,2.9,2.2,5l-2.2,1c-0.7-2-1.3-3.6-2-4.6L157.3,62.2z"/>
						<path class="st2" d="M167.1,68h-2.3l1.4-11.4c-0.6,1.3-1.2,2.4-1.7,3.3l-2.3-0.5c2.1-3.2,3.6-6.5,4.6-10h-3l0.3-2.5h3.3
							l0.7-5.6h2.3l-0.7,5.6h2.1l-0.3,2.5h-2.1l-0.1,0.7c0.9,1.8,1.8,3.6,2.6,5.5l-2.2,1.3l-0.9-2.4L167.1,68z M174.7,63.3
							c-2,2.1-3.9,3.4-5.6,4.1l-1.2-2.1c2.1-0.9,3.8-2.2,5.1-3.7L174.7,63.3z M170.1,61.1l0.3-2.4h17.9l-0.3,2.4h-7.5l-0.5,4.5
							c-0.2,1.1-0.7,1.9-1.6,2.5c-0.9,0.6-2.6,0.5-5-0.3l0.4-2.6l1.7,0.6c0.9,0.2,1.5,0.2,1.8,0c0.2-0.2,0.3-0.4,0.3-0.8l0.5-3.8
							H170.1z M189,46.2c0.2,0,0.3,0.1,0.3,0.3l-0.8,6.6c0,0.2-0.2,0.3-0.4,0.3h-15.8c-0.2,0-0.3-0.1-0.3-0.3l0.8-6.6
							c0-0.2,0.1-0.3,0.3-0.3h4.4l0.2-1.7h-5.3l0.3-2.3h17.6l-0.3,2.3h-5.3l-0.2,1.7H189z M187.5,54.8l-0.3,2.4h-14.5l0.3-2.4H187.5
							z M177.3,48.4H175c-0.1,0-0.1,0-0.1,0.1l-0.3,2.6l0.1,0.1h2.3L177.3,48.4z M182,48.4h-2.4l-0.3,2.8h2.4L182,48.4z M182.5,44.4
							H180l-0.2,1.7h2.4L182.5,44.4z M183.8,62.2c1.2,0.9,2.5,2.2,3.8,4l-1.9,1.8c-1.4-1.8-2.6-3.1-3.7-3.9L183.8,62.2z M183.9,51.2
							h2.4l0.1-0.1l0.3-2.6l-0.1-0.1h-2.4L183.9,51.2z"/>
						<path class="st2" d="M189.7,67.3l0-2.1l5.9-0.3l0.2-2.1h-5.2l0.2-1.8h5.2l0.2-1.5H191l0.2-1.8h5.2l0.2-1.4h-5.3l0.2-1.8h5.3
							l0.2-1.5h-5.6l0.2-1.9h7.1l-2-1.8c-0.7,0.6-1.4,1.1-2.3,1.5l-1-1.7c1.6-0.8,2.9-1.8,3.9-3.1l1.4,1.3l-0.6,0.7l1.9,1.4
							l-1.3,1.7h10.1l0.1-4.1l2.2,0.2l-0.1,3.9h6.2l-0.2,1.9H211c0.1,2.5,0.2,4.6,0.4,6.3c0.4-0.7,1.1-2.2,1.9-4.6l2,0.5
							c-0.9,2.7-2,5-3.4,7l0.7,2.5c0.2,0.6,0.4,1,0.5,0.9c0.2,0,0.3-0.2,0.3-0.6c0.2-0.9,0.3-1.9,0.4-3.2l2.1,0.5
							c-0.3,2.3-0.8,4-1.4,5.2c-0.3,0.4-0.6,0.7-0.8,0.8c-0.2,0.1-0.5,0.2-0.8,0.1c-0.5,0-1-0.4-1.5-1c-0.5-0.8-0.9-1.9-1.3-3.3
							c-1.9,1.8-3.5,3.1-4.8,4l-1.5-1.5l0.5-0.3L189.7,67.3z M195.7,45c-0.8,0.9-1.8,1.7-2.9,2.5c-0.3-0.8-0.6-1.4-1-1.9
							c1.7-1.1,3.1-2.6,4.3-4.5l1.8,1.3l-0.4,0.6h7.1l-0.2,2h-3.1l0.6,1l-1.7,1.3l-1.5-2.3H195.7z M200.1,64.6l1.4-11.5h-2.3
							l-1.4,11.7L200.1,64.6z M202,51l-1.3-1.4c1.3-0.8,2.3-1.9,3.1-3.1l1.6,1L205,48l2.4,1.4l-1.1,1.8l-2.4-1.7L202,51z
							 M209.7,61.8c-0.5-2.5-0.8-5.5-0.9-8.8h-5.2l-0.2,1.5h4.5l-0.2,1.8h-4.5l-0.2,1.4h4.5l-0.2,1.8h-4.5l-0.2,1.5h4.5l-0.2,1.8
							h-4.5l-0.2,1.7l4.1-0.3l-0.1,0.9l2.6-2.2L209.7,61.8z M207.5,45l-0.1,0.1c-0.7,0.7-1.4,1.4-2.2,2c-0.3-0.8-0.7-1.4-1.1-1.8
							c1.4-1,2.6-2.5,3.6-4.2l1.9,1.2L209,43h9.1l-0.2,2h-5.2l0.4,1.2l-1.9,0.9l-0.8-2.1H207.5z M214,46.6c0.8,0.5,1.6,1.2,2.5,2.1
							l-1.6,1.8c-0.9-0.9-1.7-1.6-2.3-2L214,46.6z"/>
					</g>
				</g>
			</g>
		</g>
	</g>
	<path class="st3" d="M98.7,81.3c-14.7,0-26.8-12-26.8-26.8l0,0c0-14.7,12-26.8,26.8-26.8H284"/>
	<path class="st4" d="M99,77.4c-12.5,0-22.7-10.2-22.7-22.7l0,0C76.3,42.2,86.5,32,99,32h142.7"/>
	<line class="st5" x1="236.5" y1="81.3" x2="103.5" y2="81.3"/>
	<path class="st3" d="M335.3,27.7c14.7,0,26.8,12,26.8,26.8l0,0c0,14.7-12,26.8-26.8,26.8h-93.8"/>
	<path class="st4" d="M334.7,31.6c12.6,0,22.9,10.3,22.9,22.9l0,0c0,12.6-10.3,22.9-22.9,22.9H256"/>
	<line class="st5" x1="289.8" y1="27.7" x2="330.3" y2="27.7"/>
</g>
</svg>
