<?xml version="1.0" encoding="utf-8"?>
<!-- Generator: Adobe Illustrator 20.0.0, SVG Export Plug-In . SVG Version: 6.00 Build 0)  -->
<svg version="1.1" id="圖層_1" xmlns="http://www.w3.org/2000/svg" xmlns:xlink="http://www.w3.org/1999/xlink" x="0px" y="0px"
	 viewBox="0 0 434 109" style="enable-background:new 0 0 434 109;" xml:space="preserve">
<style type="text/css">
	.st0{display:none;}
	.st1{display:inline;}
	.st2{font-family:'NewGothic-Bold';}
	.st3{font-size:31.4846px;}
	.st4{font-family:'Avenir-MediumOblique';}
	.st5{font-size:47.8031px;}
	.st6{fill:none;}
	.st7{fill:#9D9D9E;}
	.st8{font-size:31.4868px;}
	.st9{letter-spacing:1;}
	.st10{fill:#D6000F;}
	.st11{fill:none;stroke:#D6000F;stroke-width:2;stroke-linecap:round;stroke-miterlimit:10;}
	.st12{fill:none;stroke:#D6000F;stroke-width:0.75;stroke-linecap:round;stroke-miterlimit:10;}
	.st13{fill:none;stroke:#F6B42C;stroke-width:2;stroke-linecap:round;stroke-miterlimit:10;}
</style>
<g id="圖層_1_1_" class="st0">
	<g class="st1">
		<g>
			<g>
				<g>
					<text transform="matrix(0.9559 0 -0.1195 0.9928 136.1015 69.231)" class="st2 st3">感應   </text>
					<g>
						<text transform="matrix(0.9559 0 -0.1195 0.9928 136.1015 69.231)" class="st2 st3">感應   </text>
					</g>
				</g>
			</g>
			<g>
				<text transform="matrix(1.0062 0 -0.1195 0.9928 198.9314 72.6564)" class="st4 st5">3</text>
				<g>
					<text transform="matrix(1.0062 0 -0.1195 0.9928 198.9314 72.6564)" class="st4 st5">3</text>
				</g>
			</g>
			<g>
				<text transform="matrix(0.9559 0 -0.1195 0.9928 229.3818 69.231)" class="st2 st3">步驟</text>
				<g>
					<text transform="matrix(0.9559 0 -0.1195 0.9928 229.3818 69.231)" class="st2 st3">步驟</text>
				</g>
			</g>
		</g>
		<path class="st6" d="M116.4,81.5c-14.7,0-26.8-12-26.8-26.8l0,0c0-14.7,12-26.8,26.8-26.8h149.8"/>
		<path class="st6" d="M116.7,77.6C104.2,77.6,94,67.4,94,54.9l0,0c0-12.5,10.2-22.7,22.7-22.7h107.1"/>
		<path class="st6" d="M317.6,28c14.7,0,26.8,12,26.8,26.8l0,0c0,14.7-12,26.8-26.8,26.8h-93.8"/>
		<path class="st6" d="M316.9,31.8c12.6,0,22.9,10.3,22.9,22.9l0,0c0,12.6-10.3,22.9-22.9,22.9h-78.7"/>
	</g>
</g>
<g>
	<g>
		<g>
			<g>
				<text transform="matrix(0.9559 0 -0.1195 0.9928 151.8172 68.1173)" class="st7 st2 st8 st9">注意事項</text>
				<g>
					<text transform="matrix(0.9559 0 -0.1195 0.9928 151.8172 68.1173)" class="st10 st2 st8 st9">注意事項</text>
				</g>
			</g>
		</g>
	</g>
	<path class="st11" d="M116.4,81.3c-14.7,0-26.8-12-26.8-26.8v0c0-14.7,12-26.8,26.8-26.8h149.8"/>
	<path class="st12" d="M116.7,77.4c-12.5,0-22.7-10.2-22.7-22.7v0c0-12.5,10.2-22.7,22.7-22.7h107.1"/>
	<line class="st13" x1="218.7" y1="81.3" x2="121.3" y2="81.3"/>
	<path class="st11" d="M317.6,27.7c14.7,0,26.8,12,26.8,26.8v0c0,14.7-12,26.8-26.8,26.8h-93.8"/>
	<path class="st12" d="M316.9,31.6c12.6,0,22.9,10.3,22.9,22.9v0c0,12.6-10.3,22.9-22.9,22.9h-78.7"/>
	<line class="st13" x1="272" y1="27.7" x2="312.5" y2="27.7"/>
</g>
</svg>
