<?xml version="1.0" encoding="utf-8"?>
<!-- Generator: Adobe Illustrator 20.0.0, SVG Export Plug-In . SVG Version: 6.00 Build 0)  -->
<svg version="1.1" id="圖層_1" xmlns="http://www.w3.org/2000/svg" xmlns:xlink="http://www.w3.org/1999/xlink" x="0px" y="0px"
	 viewBox="0 0 36.9 36.9" style="enable-background:new 0 0 36.9 36.9;" xml:space="preserve">
<style type="text/css">
	.st0{fill:#D6000F;}
	.st1{fill:#FFFFFF;}
</style>
<g>
	<path class="st0" d="M30.8,36.9H6.1c-3.4,0-6.1-2.7-6.1-6.1V6.1C0,2.7,2.7,0,6.1,0h24.7c3.4,0,6.1,2.7,6.1,6.1v24.7
		C36.9,34.2,34.2,36.9,30.8,36.9z"/>
	<g>
		<g>
			<g>
				<polygon class="st1" points="34.8,18.8 23.6,18.8 23.8,18.1 34.9,18.1 				"/>
				<polygon class="st1" points="34.3,20.1 23.3,20.1 23.4,19.4 34.5,19.4 				"/>
				<polygon class="st1" points="34,21.3 22.9,21.3 23.1,20.7 34.2,20.7 				"/>
			</g>
			<path class="st1" d="M10.7,12.8c0.1-0.2,0-0.4,0-0.5c-0.1-0.1-0.2-0.1-0.4-0.1c-0.2,0-0.4,0-0.5,0.1s-0.2,0.2-0.3,0.5l-0.4,1.6
				H5.3l0.2-0.8c0.3-1.1,0.9-1.9,1.7-2.4c0.8-0.5,2-0.7,3.7-0.7c1.5,0,2.5,0.2,3.1,0.7c0.6,0.5,0.8,1.2,0.5,2.1
				c-0.3,1.1-1.6,2.5-4,4.4c-0.4,0.4-0.8,0.6-1,0.8c-0.8,0.7-1.6,1.3-1.9,1.8c-0.3,0.3-0.4,0.6-0.4,0.6h5.3L11.9,23h-9l0.5-2
				c0.1-0.5,0.4-1,0.8-1.5c0.4-0.5,1.1-1.2,2.2-2c0.2-0.2,0.6-0.4,1-0.8c1.8-1.4,2.8-2.4,2.9-2.9L10.7,12.8z"/>
			<polygon class="st1" points="16.8,23 17.6,20.1 12.1,20.1 12.6,18.1 18.1,10.6 23.3,10.6 21.5,17.5 18.3,17.5 20,12.7 19.6,12.7 
				16,18.1 23.1,18.1 22.6,20.1 20.8,20.1 19.9,23 			"/>
			<path class="st1" d="M23.9,17.5l1.8-6.9h3.3L28.2,14h0.1c0.3-0.3,0.7-0.6,1.1-0.8c0.4-0.2,0.9-0.2,1.4-0.2c0.7,0,1.2,0.1,1.5,0.4
				c0.3,0.3,0.4,0.7,0.2,1.2l-0.8,2.9h-3.3l0.6-2.2c0.1-0.2,0.1-0.4,0-0.5c0.1,0-0.1,0-0.3,0c-0.2,0-0.4,0-0.5,0.1
				c-0.1,0.1-0.2,0.2-0.3,0.4l-0.6,2.2H23.9z"/>
		</g>
		<g>
			<polygon class="st1" points="17.8,25.7 6.9,27.1 3.3,33.6 13.6,33.7 			"/>
			<polygon class="st1" points="18.4,25.9 14.1,34.2 6.9,34.2 6.9,36.4 18.4,36.4 29.8,36.4 29.8,34.2 22.7,34.2 			"/>
			<polygon class="st1" points="33.4,33.6 29.9,27.1 19,25.7 23.2,33.7 			"/>
		</g>
	</g>
</g>
</svg>
