<?xml version="1.0" encoding="utf-8"?>
<!-- Generator: Adobe Illustrator 20.0.0, SVG Export Plug-In . SVG Version: 6.00 Build 0)  -->
<svg version="1.1" id="圖層_1" xmlns="http://www.w3.org/2000/svg" xmlns:xlink="http://www.w3.org/1999/xlink" x="0px" y="0px"
	 viewBox="0 0 36.9 36.9" style="enable-background:new 0 0 36.9 36.9;" xml:space="preserve">
<style type="text/css">
	.st0{fill:#D6000F;}
	.st1{fill:#FFFFFF;}
	.st2{enable-background:new    ;}
</style>
<path class="st0" d="M11.2,0h14.5c6.2,0,11.2,5,11.2,11.2v14.5c0,6.2-5,11.2-11.2,11.2H11.2C5,36.9,0,31.8,0,25.7V11.2
	C0,5,5,0,11.2,0z"/>
<path class="st1" d="M5.8,10.1H6c0.6,0,1.2,0,1,0.9s-0.7,0.8-1.3,0.8H5.4L5.8,10.1z M3.3,15.3H5l0.3-2.2h0.9
	c1.3,0.1,2.4-0.8,2.6-2.1v-0.1c0.2-1.5-0.6-2.2-2-2.2H4.3L3.3,15.3z"/>
<path class="st1" d="M15.6,9l-0.4,2.8l0,0c0.3-0.4,0.7-0.6,1.2-0.6c0.9,0,1.2,0.6,1.1,1.6L17.2,15h-1.3l0.3-1.9
	c0.1-0.4,0.1-0.9-0.4-0.9s-0.7,0.4-0.8,0.9L14.7,15h-1.3l1-6H15.6z"/>
<path class="st1" d="M20.2,12.3c0.4,0,0.7,0.3,0.7,0.6c0,0.1,0,0.1,0,0.2c-0.1,0.5-0.5,0.8-0.9,0.8s-0.7-0.2-0.7-0.6
	c0-0.1,0-0.2,0-0.2C19.3,12.7,19.7,12.3,20.2,12.3z M20.3,11.2c-1.2,0-2.2,0.8-2.4,2c-0.2,0.9,0.4,1.8,1.3,2c0.2,0,0.3,0,0.5,0
	c1.2,0,2.2-0.8,2.4-2c0.2-0.9-0.4-1.8-1.3-2C20.7,11.2,20.5,11.1,20.3,11.2z"/>
<path class="st1" d="M24.1,11.8L24.1,11.8c0.3-0.4,0.7-0.6,1.2-0.6s0.9,0.3,1.1,0.7c0.3-0.4,0.8-0.7,1.3-0.7c0.9,0,1.1,0.6,1,1.5
	L28.3,15H27l0.3-1.8c0.1-0.4,0.2-1-0.4-1s-0.7,0.6-0.8,1L25.9,15h-1.2l0.3-1.8c0.1-0.4,0.2-1-0.4-1s-0.7,0.6-0.7,1L23.6,15h-1.3
	l0.6-3.8h1.3L24.1,11.8z"/>
<path class="st1" d="M30.4,12.6c0.1-0.4,0.5-0.6,0.8-0.6s0.6,0.2,0.6,0.6l0,0H30.4z M32.9,13.2c0.2-1.3-0.4-2.1-1.6-2.1
	c-1.2,0-2.1,0.8-2.3,2c-0.2,0.9,0.3,1.7,1.1,2c0.2,0.1,0.4,0.1,0.6,0c0.9,0.1,1.7-0.5,2-1.3h-1.2c-0.1,0.2-0.4,0.4-0.7,0.3
	c-0.5,0-0.7-0.3-0.7-0.8h2.7L32.9,13.2z"/>
<path class="st1" d="M12.9,8.7c-0.1,0-0.2,0-0.3,0c-0.9,0-1.8,0.4-2.4,1C9.4,10.3,9,11.1,8.9,12c-0.3,1.5,0.6,2.9,2,3.3
	c0.2,0.1,0.4,0.1,0.7,0.1h0.3c0.4-0.1,0.8-0.2,1.1-0.3l0.3-2c-0.3,0.3-0.7,0.6-1.2,0.6h-0.3c-0.7,0.1-1.4-0.5-1.4-1.2
	c0-0.2,0-0.3,0-0.5c0.1-1,0.9-1.7,1.9-1.8c0.5,0,1,0.3,1.3,0.7l0.3-2C13.5,8.8,13.2,8.7,12.9,8.7z"/>
<path class="st1" d="M22.7,8.9c0.2,0,0.4,0.2,0.4,0.4l0,0c0,0.2-0.2,0.4-0.5,0.5c-0.2,0-0.4-0.3-0.3-0.5C22.3,9.1,22.5,8.9,22.7,8.9
	z M22.6,10.1c0.4,0,0.8-0.3,0.8-0.8c0.1-0.3-0.1-0.7-0.5-0.7h-0.1c-0.4,0-0.8,0.3-0.8,0.8c-0.1,0.3,0.1,0.7,0.4,0.8
	C22.4,10.1,22.5,10.1,22.6,10.1L22.6,10.1z"/>
<path class="st1" d="M24.6,8.6h0.2l0.6,1l0,0l0.2-1h0.3l-0.2,1.5h-0.2l-0.6-1l0,0l-0.1,1h-0.3L24.6,8.6z"/>
<path class="st1" d="M27.1,9.9h0.4v0.2h-0.7L27,8.7h0.3L27.1,9.9z"/>
<path class="st1" d="M28.7,10.1h-0.3l0.2-1.4h0.3L28.7,10.1z"/>
<path class="st1" d="M30.1,8.6h0.2l0.6,1l0,0l0.1-1h0.3l-0.2,1.5h-0.2l-0.6-1l0,0l-0.1,1h-0.3L30.1,8.6z"/>
<path class="st1" d="M32.7,8.9v0.3h0.4v0.2h-0.4v0.4h0.5V10h-0.7V8.6h0.7v0.2L32.7,8.9z"/>
<polygon class="st1" points="34.1,25 23.1,25 23.2,24.4 34.3,24.4 "/>
<polygon class="st1" points="33.8,26.2 22.7,26.2 22.9,25.6 34,25.6 "/>
<polygon class="st1" points="33.5,27.4 22.4,27.4 22.6,26.8 33.6,26.8 "/>
<path class="st1" d="M10.3,18.9c0.1-0.1,0.1-0.3,0-0.5c-0.1-0.1-0.3-0.2-0.4-0.1c-0.2,0-0.4,0-0.5,0.1s-0.2,0.3-0.3,0.5l-0.4,1.6
	H4.9l0.2-0.8c0.2-1,0.8-1.9,1.7-2.4c1.1-0.5,2.4-0.8,3.6-0.7c1.1-0.1,2.2,0.1,3.1,0.7c0.6,0.5,0.8,1.4,0.5,2.1
	c-0.3,1.1-1.6,2.5-3.9,4.3l-1,0.8c-0.7,0.5-1.3,1.1-1.9,1.8c-0.1,0.2-0.3,0.4-0.4,0.6H12l-0.6,2.2H2.5l0.5-2
	c0.2-0.5,0.4-1.1,0.8-1.5c0.7-0.7,1.4-1.4,2.2-2l1-0.8c1.8-1.4,2.8-2.4,2.9-2.9L10.3,18.9z"/>
<polygon class="st1" points="16.4,29.1 17.1,26.2 11.7,26.2 12.2,24.3 17.6,16.9 22.8,16.9 20.9,23.7 17.8,23.7 19.5,18.8 
	19.2,18.8 15.6,24.3 22.6,24.3 22.1,26.2 20.3,26.2 19.5,29.1 "/>
<path class="st1" d="M23.4,23.7l1.8-6.9h3.3l-0.9,3.3h0.1c0.3-0.3,0.7-0.6,1.2-0.8c0.5-0.2,1-0.2,1.5-0.2c0.5-0.1,1.1,0.1,1.5,0.4
	c0.3,0.3,0.4,0.8,0.2,1.2l-0.8,2.9h-3.4l0.6-2.2c0.1-0.2,0.1-0.4,0-0.5s-0.3-0.1-0.4-0.1c-0.2,0-0.4,0-0.5,0.1s-0.2,0.3-0.3,0.4
	l-0.6,2.2h-3.3V23.7z"/>
<g>
	<g>
		<path class="st0" d="M23.7,36.7H13.4c-7.2,0-13.1-5.9-13.1-13.1V13.2C0.2,6,6.1,0.1,13.4,0.1h10.4C31,0.1,36.9,6,36.9,13.2v10.4
			C36.9,30.8,31,36.7,23.7,36.7z"/>
	</g>
	<g>
		<g>
			<path class="st1" d="M11.2,22.7c-0.1,0-0.1,0-0.2,0c-0.6-0.1-1-0.6-0.9-1.2l1.4-8.9c0.1-0.6,0.6-1,1.2-0.9c0.6,0.1,1,0.6,0.9,1.2
				l-1.4,8.9C12.2,22.3,11.7,22.7,11.2,22.7z"/>
		</g>
		<g>
			<path class="st1" d="M14.5,20.4c-0.6,0-1-0.5-1-1s0.5-1,1-1c2.2,0,4.1-1.8,4.1-4.1s-1.8-4.1-4.1-4.1c-0.9,0-1.7,0.3-2.4,0.8
				c-0.5,0.3-1.1,0.3-1.5-0.2c-0.3-0.5-0.3-1.1,0.2-1.5c1.1-0.8,2.4-1.2,3.7-1.2c3.4,0,6.1,2.8,6.1,6.1S17.9,20.4,14.5,20.4z"/>
		</g>
		<g>
			<path class="st1" d="M22,24.9c-0.3,0-0.7-0.2-0.9-0.5c-0.3-0.5-0.2-1.1,0.3-1.5c2.9-2,4.6-5.3,4.6-8.8s-1.7-6.8-4.6-8.8
				c-0.5-0.3-0.6-1-0.3-1.5c0.3-0.5,1-0.6,1.5-0.3C26,5.9,28.1,9.8,28.1,14s-2.1,8.1-5.5,10.5C22.4,24.9,22.2,24.9,22,24.9z"/>
		</g>
		<g>
			<path class="st1" d="M19.2,22.5c-0.4,0-0.7-0.2-0.9-0.5c-0.3-0.5-0.1-1.1,0.4-1.4c2.3-1.3,3.7-3.8,3.7-6.4s-1.4-5-3.6-6.3
				C18.2,7.6,18,7,18.3,6.5s0.9-0.7,1.4-0.4c2.9,1.7,4.7,4.8,4.7,8.1s-1.8,6.5-4.7,8.2C19.5,22.5,19.3,22.5,19.2,22.5z"/>
		</g>
	</g>
	<g class="st2">
		<path class="st1" d="M17.9,27.3h-1.5c0.2,0.6,0.4,1.3,0.7,1.8c0.2-0.4,0.4-0.8,0.6-1.4l0.7,0.2c-0.2,0.7-0.5,1.4-0.8,1.9l0.5,0.7
			c0.2,0.2,0.3,0.3,0.3,0.2c0,0,0.1-0.1,0.1-0.2c0-0.3,0.1-0.6,0.1-0.9l0.7,0.2c0,1-0.2,1.5-0.4,1.7c-0.1,0.1-0.1,0.1-0.2,0.1
			c-0.2,0-0.4,0-0.6-0.2c-0.3-0.2-0.6-0.6-0.9-1c-0.4,0.4-0.7,0.8-1.1,1.1L15.4,31c0.5-0.4,0.9-0.8,1.2-1.2c-0.4-0.7-0.8-1.5-1-2.5
			h-3.3c-0.1,0-0.1,0-0.1,0.1v1.1c0,1.2-0.3,2.2-0.7,3.1l-0.7-0.3c0.3-0.5,0.5-1,0.6-1.4c0.1-0.4,0.1-0.9,0.1-1.6v-1.4
			c0-0.1,0.1-0.2,0.2-0.2h3.8L15.4,26l0.7-0.1l0.1,0.7h1.6l-0.2-0.3l0.6-0.4c0.4,0.5,0.7,1,1,1.4l-0.6,0.3c-0.1-0.2-0.4-0.6-0.7-1
			V27.3z M12.5,32c-0.3,0.9-0.7,1.7-1.2,2.2c-0.2-0.2-0.4-0.4-0.5-0.5c0.5-0.5,0.8-1.2,1-2L12.5,32z M15.3,27.8v0.7h-2.7v-0.7H15.3z
			 M15.3,31h-2.6c-0.1,0-0.1,0-0.1-0.1V29c0-0.1,0-0.1,0.1-0.1h2.6c0.1,0,0.1,0,0.1,0.1L15.3,31C15.4,31,15.3,31,15.3,31z
			 M13.8,31.6V33c0,0.2,0,0.3,0.1,0.3c0.1,0.1,0.2,0.1,0.4,0.1H16l0.3,0c0.1,0,0.1-0.1,0.2-0.1c0-0.1,0.1-0.3,0.1-0.8l0.7,0.1
			c0,0.7-0.1,1.1-0.2,1.2c-0.1,0.1-0.2,0.2-0.3,0.3c-0.1,0-0.3,0-0.5,0h-2.3c-0.2,0-0.4,0-0.5-0.1c-0.3-0.2-0.4-0.5-0.4-0.9v-1.5
			H13.8z M13.3,29.5C13.2,29.5,13.2,29.6,13.3,29.5l0,0.9l0,0h1.4l0,0v-0.9l0,0H13.3z M15.1,31.4c0.3,0.4,0.6,0.8,0.8,1.4l-0.6,0.3
			c-0.3-0.6-0.6-1-0.8-1.4L15.1,31.4z M18,31.6c0.4,0.5,0.8,1.2,1.2,2.1L18.6,34c-0.4-0.9-0.8-1.6-1.2-2L18,31.6z"/>
		<path class="st1" d="M21.4,29.8c-0.1-0.2-0.3-0.4-0.4-0.5v1.1c0,1.5-0.2,2.8-0.5,3.8L19.8,34c0.3-1,0.5-2.3,0.5-3.8v-3.5
			c0-0.1,0.1-0.2,0.2-0.2h3.3V26h0.8v0.4H28v0.7h-6.9c-0.1,0-0.1,0-0.1,0.1v1.9c0.6-0.5,1-1.1,1.3-1.9l0.6,0.3l-0.6,1v3.1h-0.7v-2.3
			L21.4,29.8z M22.4,32.4c-0.2,0.7-0.5,1.3-0.8,1.8l-0.7-0.3c0.4-0.5,0.7-1,0.8-1.6L22.4,32.4z M27.8,31v0.6h-4.4
			c-0.2,0-0.2-0.1-0.2-0.2v-2.1l-0.2,0.3c-0.2-0.2-0.3-0.4-0.5-0.5c0.5-0.5,0.8-1,1-1.7l0.7,0.3L24,28h1.3c0.2-0.3,0.3-0.5,0.4-0.7
			l0.6,0.3L26,28h1.8l-0.1,0.6h-1.9V29h1.8v0.6h-1.8V30h1.8v0.5h-1.8V31H27.8z M23.5,31.8v1.3c0,0.2,0,0.3,0,0.3
			c0.1,0.1,0.2,0.1,0.4,0.1h1.5c0.1,0,0.2,0,0.3-0.1c0,0,0.1-0.1,0.1-0.1c0-0.1,0-0.3,0.1-0.6l0.7,0.1c0,0.7-0.1,1-0.2,1.1
			c-0.1,0.1-0.2,0.2-0.3,0.2c-0.1,0-0.3,0-0.5,0h-2c-0.2,0-0.4,0-0.5-0.1c-0.2-0.2-0.3-0.5-0.3-0.9v-1.4H23.5z M25.2,30.5h-1.4v0.3
			c0,0.1,0,0.1,0.1,0.1h1.3V30.5z M25.2,28.6H24c-0.1,0-0.1,0-0.1,0.1V29h1.4V28.6z M25.2,29.6h-1.4V30h1.4V29.6z M24.9,31.7
			c0.2,0.3,0.3,0.7,0.5,1.2l-0.7,0.2c-0.2-0.5-0.3-0.9-0.5-1.2L24.9,31.7z M27.3,31.8c0.3,0.5,0.6,1.1,0.8,1.9L27.4,34
			c-0.3-0.8-0.5-1.4-0.8-1.9L27.3,31.8z"/>
	</g>
</g>
</svg>
