<?xml version="1.0" encoding="utf-8"?>
<!-- Generator: Adobe Illustrator 20.0.0, SVG Export Plug-In . SVG Version: 6.00 Build 0)  -->
<svg version="1.1" id="圖層_1" xmlns="http://www.w3.org/2000/svg" xmlns:xlink="http://www.w3.org/1999/xlink" x="0px" y="0px"
	 viewBox="0 0 434 109" style="enable-background:new 0 0 434 109;" xml:space="preserve">
<style type="text/css">
	.st0{enable-background:new    ;}
	.st1{fill:#9D9D9E;}
	.st2{fill:#D6000F;}
	.st3{fill:none;stroke:#D6000F;stroke-width:2;stroke-linecap:round;stroke-miterlimit:10;}
	.st4{fill:none;stroke:#D6000F;stroke-width:0.75;stroke-linecap:round;stroke-miterlimit:10;}
	.st5{fill:none;stroke:#F6B42C;stroke-width:2;stroke-linecap:round;stroke-miterlimit:10;}
</style>
<g>
	<g>
		<g>
			<g>
				<g class="st0">
					<path class="st1" d="M159.2,71.4h-2.3l1.3-10.4c-1,1.7-1.9,3-2.8,4.1l-2.2-0.9c2.1-2.5,3.9-5.1,5.2-8h-4.1l0.3-2.4h4.4
						l1.4-11.7h2.3l-1.4,11.7h3.9l-0.3,2.4h-3.9l0,0.2c1.3,1.9,2.4,3.8,3.5,5.9l-2.1,1.4l-1.9-3.8L159.2,71.4z M157.8,44.4
						c0.4,3.3,0.7,5.7,0.7,7.2l-2.2,0.3c0-2.5-0.2-4.9-0.7-7L157.8,44.4z M166.6,45.1c-0.9,2.6-1.7,4.8-2.5,6.6l-2-0.8
						c1.1-2.4,1.9-4.6,2.4-6.4L166.6,45.1z M167,71.2h-2.4l1.8-15c0-0.4,0.2-0.6,0.6-0.6h13.8c0.4,0,0.6,0.2,0.5,0.6l-1.5,12.3
						c-0.1,1-0.6,1.8-1.4,2.4c-1.1,0.7-2.9,0.7-5.6,0.1l0.3-2.8c1.9,0.6,3.1,0.8,3.6,0.5c0.5-0.3,0.7-0.6,0.8-1.1l0.2-1.7h-10
						L167,71.2z M182.8,51.7l-0.3,2.2h-16.8l0.3-2.2h7.1l0.2-1.7h-5.8l0.3-2.2h5.8l0.2-1.7h-6.3l0.3-2.2h6.3l0.2-1.8h2.4l-0.2,1.8
						h6.9L183,46h-6.9l-0.2,1.7h6.1l-0.3,2.2h-6.1l-0.2,1.7H182.8z M177.9,63.6l0.2-1.9h-10l-0.2,1.9H177.9z M178.4,59.6l0.2-1.7
						c0-0.1,0-0.2-0.2-0.2h-9.6c-0.1,0-0.2,0.1-0.2,0.2l-0.2,1.7H178.4z"/>
					<path class="st1" d="M188.9,60.2c0-0.2-0.1-0.4-0.3-0.4h-3.4l0.3-2.7h5.6c0.4,0,0.6,0.2,0.6,0.7l-0.9,7.3c0.1,0.5,0.4,1,1,1.6
						c0.3,0.4,1.3,0.9,2.9,1.5c2,0.4,7.6,0.4,16.9-0.2l-0.9,3l-12.7,0.1c-4.4-0.2-7.2-1.1-8.5-2.9c-0.4,0.6-1.2,1.2-2.2,1.9
						c-1.1,0.7-2.1,1.1-3,1.3l-0.6-2.6c1.6-0.4,2.7-0.9,3.4-1.5c0.5-0.5,1-1.3,1.3-2.1L188.9,60.2z M187.5,48.8
						c1.4,0.8,2.8,2,4.4,3.6l-1.9,2.1c-1.6-1.6-3-2.8-4.2-3.6L187.5,48.8z M188.5,42.5c1.4,0.8,3,2,4.7,3.6l-1.8,2.2
						c-1.7-1.6-3.2-2.8-4.5-3.5L188.5,42.5z M198.1,58h-4.5l0.3-2.4h4.5l0.2-1.6h-2.9c-0.5,0-1-0.2-1.4-0.7c-0.4-0.4-0.6-1-0.5-1.5
						l1-8.1c0-0.4,0.3-0.7,0.7-0.7h7.2c0.5,0,0.7,0.2,0.6,0.7l-0.6,5.1c-0.1,0.5-0.3,0.7-0.8,0.7h-5.8l-0.2,1.4c0,0.2,0,0.4,0.2,0.6
						l0.6,0.3h2.9c0.2,0,0.4-0.1,0.7-0.2c0.3-0.2,0.6-0.8,0.7-1.7l2,0.6c-0.2,1.4-0.5,2.4-1,2.8c-0.4,0.3-0.8,0.5-1.2,0.6l-0.2,1.7
						h4.1l0.2-2.1c-0.3-0.1-0.6-0.3-0.8-0.6c-0.4-0.4-0.6-1-0.5-1.5l1-8c0-0.4,0.3-0.7,0.7-0.7h7.5c0.5,0,0.7,0.2,0.6,0.7l-0.6,4.9
						c-0.1,0.5-0.3,0.7-0.8,0.7h-6l-0.2,1.4c0,0.2,0,0.4,0.2,0.6l0.6,0.3h3.4c0.2,0,0.4-0.1,0.7-0.2c0.4-0.2,0.8-0.9,1.1-2l1.9,0.8
						c-0.3,1.5-0.7,2.5-1.3,2.9c-0.6,0.5-1.2,0.7-1.8,0.7h-3.4l-0.2,2h4.8l-0.3,2.4h-4.8l-0.2,1.9h5.9l-0.3,2.4h-19.7l0.3-2.4h5
						L198.1,58z M199.9,64.7c-2.5,1.4-4.8,2.3-7,2.6c0.1-1,0.1-1.8,0-2.5c2-0.3,4-1.1,6-2.4L199.9,64.7z M196.6,47.3h4
						c0.2,0,0.4-0.1,0.4-0.4l0.2-1.4c0-0.2-0.1-0.3-0.3-0.3h-3.7c-0.2,0-0.4,0.1-0.4,0.4L196.6,47.3z M204.4,59.9l0.2-1.9h-4.1
						l-0.2,1.9H204.4z M205.5,62.5c1.7,0.5,3.7,1.4,6,2.7l-1.4,2.5c-2.3-1.3-4.3-2.1-5.8-2.6L205.5,62.5z M206.5,46.9h4.3
						c0.2,0,0.4-0.1,0.4-0.4l0.2-1.3c0-0.2-0.1-0.3-0.3-0.3h-3.9c-0.2,0-0.4,0.1-0.4,0.4L206.5,46.9z"/>
					<path class="st1" d="M227.1,70.2h-11c-0.2,0-0.3-0.1-0.3-0.4l1.6-13.1c0-0.2,0.2-0.4,0.4-0.4h11c0.3,0,0.4,0.1,0.3,0.4
						l-1.6,13.1C227.5,70.1,227.3,70.2,227.1,70.2z M219.7,59c-0.1,0-0.1,0-0.1,0.1l-1,8.3c0,0.1,0,0.2,0.1,0.2h6.3
						c0.1,0,0.2-0.1,0.2-0.2l1-8.3l-0.1-0.1H219.7z M241.7,54h-22c-0.2,0-0.3-0.1-0.3-0.4l1.2-10c0-0.2,0.2-0.4,0.4-0.4h22
						c0.3,0,0.4,0.1,0.3,0.4l-1.2,10C242.1,53.8,242,54,241.7,54z M223,45.9c-0.1,0-0.1,0-0.1,0.1l-0.6,5.1c0,0.1,0,0.2,0.1,0.2
						h17.4c0.1,0,0.2-0.1,0.2-0.2l0.6-5.1l-0.1-0.1H223z M241.4,70.2h-11c-0.2,0-0.3-0.1-0.3-0.4l1.6-13.1c0-0.2,0.2-0.4,0.4-0.4h11
						c0.3,0,0.4,0.1,0.3,0.4l-1.6,13.1C241.8,70.1,241.7,70.2,241.4,70.2z M234.1,59c-0.1,0-0.1,0-0.1,0.1l-1,8.3
						c0,0.1,0,0.2,0.1,0.2h6.3c0.1,0,0.2-0.1,0.2-0.2l1-8.3l-0.1-0.1H234.1z"/>
					<path class="st1" d="M248.1,70.4l-2.5-0.3c1.5-4.9,2.7-10.4,3.4-16.3l1.4-11.3h2.4l-1,8.4h2.5l1-8.5h2.4l-1,8.5h1.2l-0.3,2.4
						h-6.2l-0.1,0.5l-0.4,3h4.8c0.4,0,0.6,0.2,0.5,0.6l-1.6,13.2h-2.4l1.3-11.1c0-0.2-0.1-0.3-0.3-0.3h-2.7
						C250.2,63,249.3,66.7,248.1,70.4z M256.5,65.7l0.3-2.5h2.3c1.3-1.3,2.4-2.8,3.3-4.6h-3.8c-0.4,0-0.6-0.2-0.5-0.7l1.5-12.5
						c0.1-0.4,0.3-0.6,0.7-0.6h4.7c1-1.1,1.7-2.1,2.3-2.8l1.9,1.5l-1,1.3h7.1c0.4,0,0.6,0.2,0.6,0.6l-1.5,12.5
						c-0.1,0.4-0.3,0.7-0.7,0.7h-3.2l-0.6,4.6h4.5l-0.3,2.5h-4.5l-0.7,5.4h-2.4l0.7-5.4H256.5z M265.4,53h-4.3l-0.4,3.1
						c0,0.1,0,0.1,0.1,0.2h4.2L265.4,53z M266.1,47.2h-4.2c-0.1,0-0.1,0-0.1,0.1l-0.4,3.2h4.3L266.1,47.2z M268,58.6H265
						c-1,1.8-1.9,3.3-2.9,4.6h5.2L268,58.6z M267.3,56.2h4.7l0.1-0.2l0.4-3.1h-4.8L267.3,56.2z M268,50.6h4.8l0.4-3.2
						c0-0.1,0-0.1-0.1-0.1h-4.7L268,50.6z"/>
				</g>
				<g>
					<g class="st0">
						<path class="st2" d="M159.2,71.4h-2.3l1.3-10.4c-1,1.7-1.9,3-2.8,4.1l-2.2-0.9c2.1-2.5,3.9-5.1,5.2-8h-4.1l0.3-2.4h4.4
							l1.4-11.7h2.3l-1.4,11.7h3.9l-0.3,2.4h-3.9l0,0.2c1.3,1.9,2.4,3.8,3.5,5.9l-2.1,1.4l-1.9-3.8L159.2,71.4z M157.8,44.4
							c0.4,3.3,0.7,5.7,0.7,7.2l-2.2,0.3c0-2.5-0.2-4.9-0.7-7L157.8,44.4z M166.6,45.1c-0.9,2.6-1.7,4.8-2.5,6.6l-2-0.8
							c1.1-2.4,1.9-4.6,2.4-6.4L166.6,45.1z M167,71.2h-2.4l1.8-15c0-0.4,0.2-0.6,0.6-0.6h13.8c0.4,0,0.6,0.2,0.5,0.6l-1.5,12.3
							c-0.1,1-0.6,1.8-1.4,2.4c-1.1,0.7-2.9,0.7-5.6,0.1l0.3-2.8c1.9,0.6,3.1,0.8,3.6,0.5c0.5-0.3,0.7-0.6,0.8-1.1l0.2-1.7h-10
							L167,71.2z M182.8,51.7l-0.3,2.2h-16.8l0.3-2.2h7.1l0.2-1.7h-5.8l0.3-2.2h5.8l0.2-1.7h-6.3l0.3-2.2h6.3l0.2-1.8h2.4l-0.2,1.8
							h6.9L183,46h-6.9l-0.2,1.7h6.1l-0.3,2.2h-6.1l-0.2,1.7H182.8z M177.9,63.6l0.2-1.9h-10l-0.2,1.9H177.9z M178.4,59.6l0.2-1.7
							c0-0.1,0-0.2-0.2-0.2h-9.6c-0.1,0-0.2,0.1-0.2,0.2l-0.2,1.7H178.4z"/>
						<path class="st2" d="M188.9,60.2c0-0.2-0.1-0.4-0.3-0.4h-3.4l0.3-2.7h5.6c0.4,0,0.6,0.2,0.6,0.7l-0.9,7.3c0.1,0.5,0.4,1,1,1.6
							c0.3,0.4,1.3,0.9,2.9,1.5c2,0.4,7.6,0.4,16.9-0.2l-0.9,3l-12.7,0.1c-4.4-0.2-7.2-1.1-8.5-2.9c-0.4,0.6-1.2,1.2-2.2,1.9
							c-1.1,0.7-2.1,1.1-3,1.3l-0.6-2.6c1.6-0.4,2.7-0.9,3.4-1.5c0.5-0.5,1-1.3,1.3-2.1L188.9,60.2z M187.5,48.8
							c1.4,0.8,2.8,2,4.4,3.6l-1.9,2.1c-1.6-1.6-3-2.8-4.2-3.6L187.5,48.8z M188.5,42.5c1.4,0.8,3,2,4.7,3.6l-1.8,2.2
							c-1.7-1.6-3.2-2.8-4.5-3.5L188.5,42.5z M198.1,58h-4.5l0.3-2.4h4.5l0.2-1.6h-2.9c-0.5,0-1-0.2-1.4-0.7c-0.4-0.4-0.6-1-0.5-1.5
							l1-8.1c0-0.4,0.3-0.7,0.7-0.7h7.2c0.5,0,0.7,0.2,0.6,0.7l-0.6,5.1c-0.1,0.5-0.3,0.7-0.8,0.7h-5.8l-0.2,1.4
							c0,0.2,0,0.4,0.2,0.6l0.6,0.3h2.9c0.2,0,0.4-0.1,0.7-0.2c0.3-0.2,0.6-0.8,0.7-1.7l2,0.6c-0.2,1.4-0.5,2.4-1,2.8
							c-0.4,0.3-0.8,0.5-1.2,0.6l-0.2,1.7h4.1l0.2-2.1c-0.3-0.1-0.6-0.3-0.8-0.6c-0.4-0.4-0.6-1-0.5-1.5l1-8c0-0.4,0.3-0.7,0.7-0.7
							h7.5c0.5,0,0.7,0.2,0.6,0.7l-0.6,4.9c-0.1,0.5-0.3,0.7-0.8,0.7h-6l-0.2,1.4c0,0.2,0,0.4,0.2,0.6l0.6,0.3h3.4
							c0.2,0,0.4-0.1,0.7-0.2c0.4-0.2,0.8-0.9,1.1-2l1.9,0.8c-0.3,1.5-0.7,2.5-1.3,2.9c-0.6,0.5-1.2,0.7-1.8,0.7h-3.4l-0.2,2h4.8
							l-0.3,2.4h-4.8l-0.2,1.9h5.9l-0.3,2.4h-19.7l0.3-2.4h5L198.1,58z M199.9,64.7c-2.5,1.4-4.8,2.3-7,2.6c0.1-1,0.1-1.8,0-2.5
							c2-0.3,4-1.1,6-2.4L199.9,64.7z M196.6,47.3h4c0.2,0,0.4-0.1,0.4-0.4l0.2-1.4c0-0.2-0.1-0.3-0.3-0.3h-3.7
							c-0.2,0-0.4,0.1-0.4,0.4L196.6,47.3z M204.4,59.9l0.2-1.9h-4.1l-0.2,1.9H204.4z M205.5,62.5c1.7,0.5,3.7,1.4,6,2.7l-1.4,2.5
							c-2.3-1.3-4.3-2.1-5.8-2.6L205.5,62.5z M206.5,46.9h4.3c0.2,0,0.4-0.1,0.4-0.4l0.2-1.3c0-0.2-0.1-0.3-0.3-0.3h-3.9
							c-0.2,0-0.4,0.1-0.4,0.4L206.5,46.9z"/>
						<path class="st2" d="M227.1,70.2h-11c-0.2,0-0.3-0.1-0.3-0.4l1.6-13.1c0-0.2,0.2-0.4,0.4-0.4h11c0.3,0,0.4,0.1,0.3,0.4
							l-1.6,13.1C227.5,70.1,227.3,70.2,227.1,70.2z M219.7,59c-0.1,0-0.1,0-0.1,0.1l-1,8.3c0,0.1,0,0.2,0.1,0.2h6.3
							c0.1,0,0.2-0.1,0.2-0.2l1-8.3l-0.1-0.1H219.7z M241.7,54h-22c-0.2,0-0.3-0.1-0.3-0.4l1.2-10c0-0.2,0.2-0.4,0.4-0.4h22
							c0.3,0,0.4,0.1,0.3,0.4l-1.2,10C242.1,53.8,242,54,241.7,54z M223,45.9c-0.1,0-0.1,0-0.1,0.1l-0.6,5.1c0,0.1,0,0.2,0.1,0.2
							h17.4c0.1,0,0.2-0.1,0.2-0.2l0.6-5.1l-0.1-0.1H223z M241.4,70.2h-11c-0.2,0-0.3-0.1-0.3-0.4l1.6-13.1c0-0.2,0.2-0.4,0.4-0.4
							h11c0.3,0,0.4,0.1,0.3,0.4l-1.6,13.1C241.8,70.1,241.7,70.2,241.4,70.2z M234.1,59c-0.1,0-0.1,0-0.1,0.1l-1,8.3
							c0,0.1,0,0.2,0.1,0.2h6.3c0.1,0,0.2-0.1,0.2-0.2l1-8.3l-0.1-0.1H234.1z"/>
						<path class="st2" d="M248.1,70.4l-2.5-0.3c1.5-4.9,2.7-10.4,3.4-16.3l1.4-11.3h2.4l-1,8.4h2.5l1-8.5h2.4l-1,8.5h1.2l-0.3,2.4
							h-6.2l-0.1,0.5l-0.4,3h4.8c0.4,0,0.6,0.2,0.5,0.6l-1.6,13.2h-2.4l1.3-11.1c0-0.2-0.1-0.3-0.3-0.3h-2.7
							C250.2,63,249.3,66.7,248.1,70.4z M256.5,65.7l0.3-2.5h2.3c1.3-1.3,2.4-2.8,3.3-4.6h-3.8c-0.4,0-0.6-0.2-0.5-0.7l1.5-12.5
							c0.1-0.4,0.3-0.6,0.7-0.6h4.7c1-1.1,1.7-2.1,2.3-2.8l1.9,1.5l-1,1.3h7.1c0.4,0,0.6,0.2,0.6,0.6l-1.5,12.5
							c-0.1,0.4-0.3,0.7-0.7,0.7h-3.2l-0.6,4.6h4.5l-0.3,2.5h-4.5l-0.7,5.4h-2.4l0.7-5.4H256.5z M265.4,53h-4.3l-0.4,3.1
							c0,0.1,0,0.1,0.1,0.2h4.2L265.4,53z M266.1,47.2h-4.2c-0.1,0-0.1,0-0.1,0.1l-0.4,3.2h4.3L266.1,47.2z M268,58.6H265
							c-1,1.8-1.9,3.3-2.9,4.6h5.2L268,58.6z M267.3,56.2h4.7l0.1-0.2l0.4-3.1h-4.8L267.3,56.2z M268,50.6h4.8l0.4-3.2
							c0-0.1,0-0.1-0.1-0.1h-4.7L268,50.6z"/>
					</g>
				</g>
			</g>
		</g>
	</g>
	<path class="st3" d="M116.4,81.8c-14.7,0-26.8-12-26.8-26.8l0,0c0-14.7,12-26.8,26.8-26.8h149.8"/>
	<path class="st4" d="M116.7,77.9C104.2,77.9,94,67.7,94,55.2l0,0c0-12.5,10.2-22.7,22.7-22.7h107.1"/>
	<line class="st5" x1="218.7" y1="81.8" x2="121.3" y2="81.8"/>
	<path class="st3" d="M317.6,28.2c14.7,0,26.8,12,26.8,26.8l0,0c0,14.7-12,26.8-26.8,26.8h-93.8"/>
	<path class="st4" d="M316.9,32.1c12.6,0,22.9,10.3,22.9,22.9l0,0c0,12.6-10.3,22.9-22.9,22.9h-78.7"/>
	<line class="st5" x1="272" y1="28.2" x2="312.5" y2="28.2"/>
</g>
</svg>
