<?xml version="1.0" encoding="utf-8"?>
<!-- Generator: Adobe Illustrator 20.0.0, SVG Export Plug-In . SVG Version: 6.00 Build 0)  -->
<svg version="1.1" id="圖層_1" xmlns="http://www.w3.org/2000/svg" xmlns:xlink="http://www.w3.org/1999/xlink" x="0px" y="0px"
	 viewBox="0 0 434 109" style="enable-background:new 0 0 434 109;" xml:space="preserve">
<style type="text/css">
	.st0{display:none;}
	.st1{display:inline;}
	.st2{font-family:'NewGothic-Bold';}
	.st3{font-size:31.4835px;}
	.st4{font-family:'Avenir-MediumOblique';}
	.st5{font-size:47.8015px;}
	.st6{fill:none;}
	.st7{fill:none;stroke:#D6000F;stroke-width:1.6478;stroke-linecap:round;stroke-miterlimit:10;}
	.st8{fill:none;stroke:#D6000F;stroke-width:0.6179;stroke-linecap:round;stroke-miterlimit:10;}
	.st9{fill:none;stroke:#F6B42C;stroke-width:1.6478;stroke-linecap:round;stroke-miterlimit:10;}
	.st10{fill:#9E9E9F;}
	.st11{fill:#D6000F;}
	.st12{enable-background:new    ;}
</style>
<g id="圖層_1_1_" class="st0">
	<g class="st1">
		<g>
			<g>
				<g>
					<text transform="matrix(0.9559 0 -0.1195 0.9928 136.1013 69.231)" class="st2 st3">感應   </text>
					<g>
						<text transform="matrix(0.9559 0 -0.1195 0.9928 136.1013 69.231)" class="st2 st3">感應   </text>
					</g>
				</g>
			</g>
			<g>
				<text transform="matrix(1.0062 0 -0.1195 0.9928 198.9311 72.657)" class="st4 st5">3</text>
				<g>
					<text transform="matrix(1.0062 0 -0.1195 0.9928 198.9311 72.657)" class="st4 st5">3</text>
				</g>
			</g>
			<g>
				<text transform="matrix(0.9559 0 -0.1195 0.9928 229.3815 69.231)" class="st2 st3">步驟</text>
				<g>
					<text transform="matrix(0.9559 0 -0.1195 0.9928 229.3815 69.231)" class="st2 st3">步驟</text>
				</g>
			</g>
		</g>
		<path class="st6" d="M116.4,81.5c-14.7,0-26.8-12-26.8-26.8l0,0c0-14.7,12-26.8,26.8-26.8h149.8"/>
		<path class="st6" d="M116.7,77.6C104.2,77.6,94,67.4,94,54.9l0,0c0-12.5,10.2-22.7,22.7-22.7h107.1"/>
		<path class="st6" d="M317.6,28c14.7,0,26.8,12,26.8,26.8l0,0c0,14.7-12,26.8-26.8,26.8h-93.8"/>
		<path class="st6" d="M316.9,31.8c12.6,0,22.9,10.3,22.9,22.9l0,0c0,12.6-10.3,22.9-22.9,22.9h-78.7"/>
	</g>
</g>
<g>
	<g id="圖層_2">
		<g>
			<path class="st7" d="M283.7,80.7c-12.1,0-22.1-9.9-22.1-22.1l0,0c0-12.1,9.9-22.1,22.1-22.1h72.9"/>
			<path class="st8" d="M283.9,77.6c-10.3,0-18.7-8.4-18.7-18.7l0,0c0-10.3,8.4-18.7,18.7-18.7h69.6"/>
			<line class="st9" x1="349.4" y1="80.7" x2="287.7" y2="80.7"/>
			<path class="st7" d="M401.2,36.6c12.1,0,22.1,9.9,22.1,22.1l0,0c0,12.1-9.9,22.1-22.1,22.1h-47.6"/>
			<path class="st8" d="M400.6,39.8c10.4,0,18.9,8.5,18.9,18.9l0,0c0,10.4-8.5,18.9-18.9,18.9h-35.2"/>
			<line class="st9" x1="361.4" y1="36.6" x2="397" y2="36.6"/>
		</g>
	</g>
	<g>
		<g>
			<g>
				<g>
					<path class="st10" d="M86.1,60.9l-1.5-3.2c4.8-1.3,8-3.5,9.7-6.5h-7.8l0.4-3.1h8.6l0.1-0.5L96,44h-3.9
						c-0.7,1.1-1.7,2.3-3.2,3.6c-0.7-1.1-1.3-1.9-2-2.4c2-1.9,3.6-4.2,4.7-6.9l3,1.4L94,41.1h12.2l-0.4,2.9h-6.7l-0.4,3.6l-0.1,0.5
						h7.5l-0.4,3.1h-7.2c2.2,1.5,4.2,3.2,6.2,5l-2.3,2.9c-1.6-1.7-3.6-3.5-6-5.5C93.9,56.7,90.5,59.1,86.1,60.9z M115,76.7H88.2
						c-0.3,0-0.5-0.2-0.4-0.5l1.9-16c0-0.3,0.2-0.5,0.5-0.5H117c0.3,0,0.5,0.2,0.4,0.5l-1.9,16C115.5,76.5,115.3,76.7,115,76.7z
						 M92,69.9l-0.4,3.3c-0.1,0.1,0,0.2,0.1,0.2h20.6l0.2-0.2l0.4-3.3H92z M113.3,66.7l0.4-3.5c0-0.1,0-0.2-0.1-0.2H92.9
						c-0.1,0-0.2,0-0.1,0.2l-0.4,3.5H113.3z M120.5,57.6h-13.6c-0.3,0-0.4-0.2-0.4-0.5l1.9-16.2c0-0.3,0.2-0.5,0.5-0.5h13.6
						c0.3,0,0.5,0.2,0.4,0.5L121,57.1C121,57.5,120.9,57.6,120.5,57.6z M111.6,43.6C111.5,43.6,111.4,43.6,111.6,43.6l-1.4,10.8
						l0.1,0.2h7.7l0.2-0.2l1.3-10.7l-0.1-0.1H111.6z"/>
					<path class="st10" d="M131.7,71.2c-1.8,2.8-3.8,5-5.9,6.6c-0.5-1.2-1.1-2.1-1.7-2.7c1.9-1.4,3.5-3.3,4.8-5.7L131.7,71.2z
						 M157.4,66.9c-0.1,0.7-0.5,1-1.1,1h-25.6L131,65h23.1c0.2,0,0.3-0.1,0.3-0.3l0.2-1.7h-28.9l0.3-2.8h28.9l0.2-1.7
						c0-0.2-0.1-0.2-0.2-0.2h-23.2l0.4-2.9h25.8c0.7,0,0.9,0.3,0.9,1l-0.5,3.9h5.5l-0.3,2.8H158L157.4,66.9z M127.9,53.4v-2.9
						l7.4-0.2l0.2-2h-6.6l0.3-2.8h6.6l0.2-1.7h-7.4l0.3-2.8h7.4l0.3-2.5h3.3l-0.3,2.5h6.2l-0.3,2.8h-6.2l-0.2,1.7h5.3l-0.3,2.8h-5.3
						l-0.2,1.7c2.4-0.2,4.3-0.5,5.7-0.8l0.1,2.9c-1.3,0.3-3.4,0.6-6.1,0.9l-0.2,1.5h-3.3l0.2-1.3L127.9,53.4z M149.2,74.3
						c0.6,0,1-0.1,1.4-0.2c0.3-0.1,0.5-0.4,0.8-0.7l0.4-2.6l3.4,0.2c-0.3,3.1-0.7,4.9-1.3,5.3c-0.9,1-2.3,1.4-4.1,1.4h-13.2
						c-0.9,0-1.7-0.2-2.2-0.7c-1-0.9-1.4-2.4-1.2-4.6l0.5-4h3.4l-0.4,3.4c-0.2,0.9-0.2,1.4,0,1.7c0.2,0.4,0.8,0.7,1.7,0.7h6.1
						c-1.1-1.7-2-2.9-2.9-3.7l2.6-2.3c1,1,2.1,2.4,3.2,4.1l-2.3,1.9L149.2,74.3L149.2,74.3z M145.7,52.8L146,50h7.6l0.2-1.9h-6
						l0.3-2.8h6l0.2-1.9h-6.6l0.3-2.8h6.6l0.3-2.3h3.3l-0.3,2.3h7.2l-0.3,2.8h-7.2l-0.2,1.9h5.9l-0.3,2.8h-5.9l-0.2,1.9h7.7
						l-0.3,2.8h-7.7l-0.2,1.6h-3.3l0.2-1.6H145.7z M158.7,68.9c1.1,1.8,2.2,4.2,3.1,7.3l-3.1,1.4c-1-2.9-1.9-5.2-2.9-6.7L158.7,68.9
						z"/>
					<path class="st10" d="M173.8,77.4h-3.3l2-16.5c-0.9,1.8-1.7,3.5-2.5,4.8l-3.3-0.7c3-4.6,5.2-9.4,6.6-14.5H169l0.4-3.6h4.7
						l1-8.2h3.3l-1,8.2h3.1l-0.4,3.6H177l-0.1,1c1.3,2.6,2.6,5.2,3.7,7.9l-3.2,1.9l-1.3-3.5L173.8,77.4z M184.8,70.6
						c-3,3-5.7,5-8.1,6l-1.7-3c3-1.3,5.5-3.1,7.4-5.4L184.8,70.6z M178.2,67.4l0.4-3.4h26l-0.4,3.4h-10.9l-0.8,6.5
						c-0.2,1.6-1,2.8-2.3,3.6c-1.3,0.9-3.7,0.7-7.2-0.5l0.6-3.7l2.4,0.8c1.3,0.3,2.1,0.3,2.6,0c0.3-0.2,0.4-0.6,0.5-1.2l0.7-5.6
						L178.2,67.4L178.2,67.4z M205.5,45.7c0.3,0,0.5,0.2,0.4,0.5l-1.1,9.6c0,0.3-0.2,0.5-0.5,0.5h-22.9c-0.3,0-0.4-0.2-0.4-0.5
						l1.1-9.6c0-0.3,0.2-0.5,0.5-0.5h6.4l0.3-2.5h-7.7l0.4-3.3h25.5l-0.4,3.3h-7.7l-0.3,2.5C199.1,45.7,205.5,45.7,205.5,45.7z
						 M203.3,58.2l-0.4,3.4h-21.1l0.4-3.4H203.3z M188.6,49h-3.4c-0.1,0-0.2,0-0.1,0.1l-0.4,3.7l0.1,0.2h3.4L188.6,49z M195.4,49
						h-3.5l-0.5,4h3.5L195.4,49z M196.1,43.2h-3.5l-0.3,2.5h3.5L196.1,43.2z M198.1,68.9c1.7,1.3,3.6,3.2,5.5,5.8l-2.7,2.6
						c-2-2.6-3.8-4.5-5.3-5.7L198.1,68.9z M198.2,53h3.5l0.2-0.2l0.4-3.7l-0.1-0.1h-3.5L198.2,53z"/>
					<path class="st10" d="M207.5,76.3v-3.1l8.6-0.5l0.4-3H209l0.3-2.6h7.5L217,65h-7.5l0.3-2.6h7.5l0.2-2h-7.7l0.3-2.6h7.7l0.3-2.1
						H210l0.3-2.8h10.3l-2.8-2.6c-0.9,0.9-2,1.6-3.3,2.2l-1.5-2.4c2.3-1.1,4.2-2.6,5.7-4.4l2,1.8l-0.9,1l2.8,2l-1.9,2.4h14.6
						l0.2-5.9l3.1,0.3l-0.2,5.6h9l-0.3,2.8h-8.6c0.1,3.7,0.3,6.7,0.6,9.2c0.6-1,1.5-3.2,2.8-6.7l3,0.7c-1.3,3.9-2.9,7.2-5,10.1
						l1,3.6c0.3,0.9,0.5,1.4,0.7,1.4c0.2-0.1,0.4-0.3,0.5-0.9c0.3-1.2,0.5-2.8,0.6-4.6l3,0.8c-0.5,3.3-1.2,5.8-2,7.5
						c-0.4,0.6-0.8,1-1.2,1.1c-0.4,0.2-0.7,0.2-1.1,0.2c-0.8-0.1-1.5-0.5-2.1-1.4c-0.7-1.2-1.3-2.8-1.8-4.8c-2.8,2.6-5.1,4.5-7,5.9
						l-2.1-2.2l0.7-0.5L207.5,76.3z M216.2,44c-1.1,1.2-2.5,2.4-4.2,3.6c-0.4-1.2-0.9-2.1-1.4-2.7c2.4-1.6,4.5-3.8,6.2-6.6l2.5,1.9
						l-0.6,0.8H229l-0.4,2.9h-4.5l0.9,1.4l-2.4,1.8l-2.2-3.3h-4.2V44z M222.6,72.3l2-16.7h-3.4l-2,16.9L222.6,72.3z M225.4,52.7
						l-1.9-2.1c1.9-1.2,3.4-2.7,4.5-4.5l2.3,1.4l-0.6,0.8l3.5,2l-1.6,2.6l-3.5-2.5L225.4,52.7z M236.5,68.4
						c-0.7-3.7-1.1-7.9-1.2-12.7h-7.5l-0.3,2.1h6.5l-0.3,2.6h-6.5l-0.2,2h6.5l-0.3,2.6h-6.5l-0.3,2.2h6.5l-0.3,2.6H226l-0.3,2.4
						l5.9-0.4l-0.1,1.2l3.7-3.2L236.5,68.4z M233.3,44l-0.1,0.2c-0.9,1-2,2-3.2,2.9c-0.5-1.2-1-2-1.6-2.6c2-1.5,3.7-3.6,5.2-6.1
						l2.7,1.7l-0.7,0.9h13.2l-0.4,2.9h-7.6l0.6,1.8l-2.7,1.3l-1.1-3.1L233.3,44L233.3,44z M242.7,46.3c1.1,0.7,2.3,1.7,3.6,3
						l-2.3,2.6c-1.3-1.3-2.4-2.3-3.4-2.9L242.7,46.3z"/>
				</g>
				<g>
					<path class="st11" d="M86.1,60.9l-1.5-3.2c4.8-1.3,8-3.5,9.7-6.5h-7.8l0.4-3.1h8.6l0.1-0.5L96,44h-3.9
						c-0.7,1.1-1.7,2.3-3.2,3.6c-0.7-1.1-1.3-1.9-2-2.4c2-1.9,3.6-4.2,4.7-6.9l3,1.4L94,41.1h12.2l-0.4,2.9h-6.7l-0.4,3.6l-0.1,0.5
						h7.5l-0.4,3.1h-7.2c2.2,1.5,4.2,3.2,6.2,5l-2.3,2.9c-1.6-1.7-3.6-3.5-6-5.5C93.9,56.7,90.5,59.1,86.1,60.9z M115,76.7H88.2
						c-0.3,0-0.5-0.2-0.4-0.5l1.9-16c0-0.3,0.2-0.5,0.5-0.5H117c0.3,0,0.5,0.2,0.4,0.5l-1.9,16C115.5,76.5,115.3,76.7,115,76.7z
						 M92,69.9l-0.4,3.3c-0.1,0.1,0,0.2,0.1,0.2h20.6l0.2-0.2l0.4-3.3H92z M113.3,66.7l0.4-3.5c0-0.1,0-0.2-0.1-0.2H92.9
						c-0.1,0-0.2,0-0.1,0.2l-0.4,3.5H113.3z M120.5,57.6h-13.6c-0.3,0-0.4-0.2-0.4-0.5l1.9-16.2c0-0.3,0.2-0.5,0.5-0.5h13.6
						c0.3,0,0.5,0.2,0.4,0.5L121,57.1C121,57.5,120.9,57.6,120.5,57.6z M111.6,43.6C111.5,43.6,111.4,43.6,111.6,43.6l-1.4,10.8
						l0.1,0.2h7.7l0.2-0.2l1.3-10.7l-0.1-0.1H111.6z"/>
					<path class="st11" d="M131.7,71.2c-1.8,2.8-3.8,5-5.9,6.6c-0.5-1.2-1.1-2.1-1.7-2.7c1.9-1.4,3.5-3.3,4.8-5.7L131.7,71.2z
						 M157.4,66.9c-0.1,0.7-0.5,1-1.1,1h-25.6L131,65h23.1c0.2,0,0.3-0.1,0.3-0.3l0.2-1.7h-28.9l0.3-2.8h28.9l0.2-1.7
						c0-0.2-0.1-0.2-0.2-0.2h-23.2l0.4-2.9h25.8c0.7,0,0.9,0.3,0.9,1l-0.5,3.9h5.5l-0.3,2.8H158L157.4,66.9z M127.9,53.4v-2.9
						l7.4-0.2l0.2-2h-6.6l0.3-2.8h6.6l0.2-1.7h-7.4l0.3-2.8h7.4l0.3-2.5h3.3l-0.3,2.5h6.2l-0.3,2.8h-6.2l-0.2,1.7h5.3l-0.3,2.8h-5.3
						l-0.2,1.7c2.4-0.2,4.3-0.5,5.7-0.8l0.1,2.9c-1.3,0.3-3.4,0.6-6.1,0.9l-0.2,1.5h-3.3l0.2-1.3L127.9,53.4z M149.2,74.3
						c0.6,0,1-0.1,1.4-0.2c0.3-0.1,0.5-0.4,0.8-0.7l0.4-2.6l3.4,0.2c-0.3,3.1-0.7,4.9-1.3,5.3c-0.9,1-2.3,1.4-4.1,1.4h-13.2
						c-0.9,0-1.7-0.2-2.2-0.7c-1-0.9-1.4-2.4-1.2-4.6l0.5-4h3.4l-0.4,3.4c-0.2,0.9-0.2,1.4,0,1.7c0.2,0.4,0.8,0.7,1.7,0.7h6.1
						c-1.1-1.7-2-2.9-2.9-3.7l2.6-2.3c1,1,2.1,2.4,3.2,4.1l-2.3,1.9L149.2,74.3L149.2,74.3z M145.7,52.8L146,50h7.6l0.2-1.9h-6
						l0.3-2.8h6l0.2-1.9h-6.6l0.3-2.8h6.6l0.3-2.3h3.3l-0.3,2.3h7.2l-0.3,2.8h-7.2l-0.2,1.9h5.9l-0.3,2.8h-5.9l-0.2,1.9h7.7
						l-0.3,2.8h-7.7l-0.2,1.6h-3.3l0.2-1.6H145.7z M158.7,68.9c1.1,1.8,2.2,4.2,3.1,7.3l-3.1,1.4c-1-2.9-1.9-5.2-2.9-6.7L158.7,68.9
						z"/>
					<path class="st11" d="M173.8,77.4h-3.3l2-16.5c-0.9,1.8-1.7,3.5-2.5,4.8l-3.3-0.7c3-4.6,5.2-9.4,6.6-14.5H169l0.4-3.6h4.7
						l1-8.2h3.3l-1,8.2h3.1l-0.4,3.6H177l-0.1,1c1.3,2.6,2.6,5.2,3.7,7.9l-3.2,1.9l-1.3-3.5L173.8,77.4z M184.8,70.6
						c-3,3-5.7,5-8.1,6l-1.7-3c3-1.3,5.5-3.1,7.4-5.4L184.8,70.6z M178.2,67.4l0.4-3.4h26l-0.4,3.4h-10.9l-0.8,6.5
						c-0.2,1.6-1,2.8-2.3,3.6c-1.3,0.9-3.7,0.7-7.2-0.5l0.6-3.7l2.4,0.8c1.3,0.3,2.1,0.3,2.6,0c0.3-0.2,0.4-0.6,0.5-1.2l0.7-5.6
						L178.2,67.4L178.2,67.4z M205.5,45.7c0.3,0,0.5,0.2,0.4,0.5l-1.1,9.6c0,0.3-0.2,0.5-0.5,0.5h-22.9c-0.3,0-0.4-0.2-0.4-0.5
						l1.1-9.6c0-0.3,0.2-0.5,0.5-0.5h6.4l0.3-2.5h-7.7l0.4-3.3h25.5l-0.4,3.3h-7.7l-0.3,2.5C199.1,45.7,205.5,45.7,205.5,45.7z
						 M203.3,58.2l-0.4,3.4h-21.1l0.4-3.4H203.3z M188.6,49h-3.4c-0.1,0-0.2,0-0.1,0.1l-0.4,3.7l0.1,0.2h3.4L188.6,49z M195.4,49
						h-3.5l-0.5,4h3.5L195.4,49z M196.1,43.2h-3.5l-0.3,2.5h3.5L196.1,43.2z M198.1,68.9c1.7,1.3,3.6,3.2,5.5,5.8l-2.7,2.6
						c-2-2.6-3.8-4.5-5.3-5.7L198.1,68.9z M198.2,53h3.5l0.2-0.2l0.4-3.7l-0.1-0.1h-3.5L198.2,53z"/>
					<path class="st11" d="M207.5,76.3v-3.1l8.6-0.5l0.4-3H209l0.3-2.6h7.5L217,65h-7.5l0.3-2.6h7.5l0.2-2h-7.7l0.3-2.6h7.7l0.3-2.1
						H210l0.3-2.8h10.3l-2.8-2.6c-0.9,0.9-2,1.6-3.3,2.2l-1.5-2.4c2.3-1.1,4.2-2.6,5.7-4.4l2,1.8l-0.9,1l2.8,2l-1.9,2.4h14.6
						l0.2-5.9l3.1,0.3l-0.2,5.6h9l-0.3,2.8h-8.6c0.1,3.7,0.3,6.7,0.6,9.2c0.6-1,1.5-3.2,2.8-6.7l3,0.7c-1.3,3.9-2.9,7.2-5,10.1
						l1,3.6c0.3,0.9,0.5,1.4,0.7,1.4c0.2-0.1,0.4-0.3,0.5-0.9c0.3-1.2,0.5-2.8,0.6-4.6l3,0.8c-0.5,3.3-1.2,5.8-2,7.5
						c-0.4,0.6-0.8,1-1.2,1.1c-0.4,0.2-0.7,0.2-1.1,0.2c-0.8-0.1-1.5-0.5-2.1-1.4c-0.7-1.2-1.3-2.8-1.8-4.8c-2.8,2.6-5.1,4.5-7,5.9
						l-2.1-2.2l0.7-0.5L207.5,76.3z M216.2,44c-1.1,1.2-2.5,2.4-4.2,3.6c-0.4-1.2-0.9-2.1-1.4-2.7c2.4-1.6,4.5-3.8,6.2-6.6l2.5,1.9
						l-0.6,0.8H229l-0.4,2.9h-4.5l0.9,1.4l-2.4,1.8l-2.2-3.3h-4.2V44z M222.6,72.3l2-16.7h-3.4l-2,16.9L222.6,72.3z M225.4,52.7
						l-1.9-2.1c1.9-1.2,3.4-2.7,4.5-4.5l2.3,1.4l-0.6,0.8l3.5,2l-1.6,2.6l-3.5-2.5L225.4,52.7z M236.5,68.4
						c-0.7-3.7-1.1-7.9-1.2-12.7h-7.5l-0.3,2.1h6.5l-0.3,2.6h-6.5l-0.2,2h6.5l-0.3,2.6h-6.5l-0.3,2.2h6.5l-0.3,2.6H226l-0.3,2.4
						l5.9-0.4l-0.1,1.2l3.7-3.2L236.5,68.4z M233.3,44l-0.1,0.2c-0.9,1-2,2-3.2,2.9c-0.5-1.2-1-2-1.6-2.6c2-1.5,3.7-3.6,5.2-6.1
						l2.7,1.7l-0.7,0.9h13.2l-0.4,2.9h-7.6l0.6,1.8l-2.7,1.3l-1.1-3.1L233.3,44L233.3,44z M242.7,46.3c1.1,0.7,2.3,1.7,3.6,3
						l-2.3,2.6c-1.3-1.3-2.4-2.3-3.4-2.9L242.7,46.3z"/>
				</g>
			</g>
			<g>
				<g>
					<path class="st11" d="M12.6,84.8c-0.2,0-0.4,0-0.6-0.1c-2-0.3-3.4-2.3-3.1-4.3L14,48.7c0.3-2,2.3-3.4,4.3-3.1
						c2,0.3,3.4,2.3,3.1,4.3l-5.1,31.8C16,83.5,14.4,84.8,12.6,84.8z"/>
				</g>
				<g>
					<path class="st11" d="M24.3,76.5c-2.1,0-3.7-1.7-3.7-3.7s1.7-3.7,3.7-3.7c8,0,14.6-6.5,14.6-14.6s-6.5-14.6-14.6-14.6
						c-3.2,0-6.2,1-8.8,3c-1.6,1.2-4,0.9-5.2-0.7c-1.2-1.6-0.9-4,0.7-5.2c3.9-2.9,8.5-4.5,13.3-4.5c12.2,0,22.1,9.9,22.1,22.1
						S36.5,76.5,24.3,76.5z"/>
				</g>
				<g>
					<path class="st11" d="M51.3,92.8c-1.2,0-2.4-0.6-3.1-1.6c-1.2-1.7-0.7-4,1-5.2c10.4-7.2,16.6-19,16.6-31.5s-6.2-24.3-16.5-31.4
						c-1.7-1.2-2.1-3.5-1-5.2c1.2-1.7,3.5-2.1,5.2-1c12.4,8.6,19.8,22.6,19.8,37.6s-7.4,29.1-19.9,37.7C52.8,92.6,52,92.8,51.3,92.8
						z"/>
				</g>
				<g>
					<path class="st11" d="M41.1,84.2c-1.3,0-2.5-0.7-3.2-1.9c-1-1.8-0.4-4.1,1.3-5.1c8.1-4.7,13.1-13.5,13.1-22.8s-5-18-13-22.7
						c-1.8-1-2.4-3.3-1.3-5.1c1.1-1.8,3.3-2.4,5.1-1.3c10.3,6.1,16.7,17.3,16.7,29.2c0,12-6.5,23.2-16.9,29.3
						C42.4,84.1,41.7,84.2,41.1,84.2z"/>
				</g>
			</g>
		</g>
	</g>
	<g>
		<g class="st12">
			<path class="st11" d="M295.9,71.8h-2.1l2.7-22.6l0.1-0.2l0.2-0.1h6l1.4,1l-3,6.6c-0.2,0.3-0.2,0.6-0.1,0.8
				c0.7,1.1,1.2,2.2,1.4,3.2c0.3,1.7,0.1,3.2-0.7,4.4c-0.5,0.6-1,1-1.7,1.3c-1.1,0.4-2.3,0.3-3.6-0.1L295.9,71.8z M298.6,51l-0.1,0
				l-0.1,0.1l-1.5,12.6c0.8,0.5,1.7,0.6,2.5,0.4c0.4-0.1,0.7-0.3,0.8-0.6c0.8-1.3,0.3-3.3-1.4-6.3l0-0.2l0.1-0.2l2.5-5.6
				c0.2-0.4,0.1-0.5-0.3-0.5H298.6z M316.2,70.4l-1.8,1.6c-0.9-0.7-1.6-1.3-2.2-1.8c-2.5-2.2-3.9-5.6-4.3-9.9H306l-1.1,8.9
				c1.4-0.3,2.6-0.7,3.7-1l0.2,2.2c-2.4,0.8-5.4,1.5-8.8,1.9l-0.1-2.2l2.8-0.4l2.4-20c0.1-0.4,0.3-0.7,0.7-0.7h10.6
				c0.4,0,0.6,0.2,0.6,0.7l-1.2,10c-0.1,0.5-0.3,0.7-0.8,0.7h-5.2c0.1,1.5,0.4,2.9,0.9,4.3c1.8-1.2,3.2-2.3,4.3-3.3l1.2,1.7
				c-1.2,1.1-2.7,2.3-4.5,3.5C312.6,67.7,314.1,69.1,316.2,70.4z M306.6,55.7l-0.3,2.3h7.3c0.2,0,0.4-0.1,0.4-0.4l0.2-2H306.6z
				 M314.5,53.5l0.2-1.9c0-0.4-0.1-0.5-0.5-0.5h-6.6c-0.3,0-0.5,0.2-0.6,0.5l-0.2,1.9H314.5z"/>
			<path class="st11" d="M325.1,70h-6.2c-0.2,0-0.3-0.1-0.3-0.3l2.4-20.3c0-0.2,0.1-0.3,0.3-0.3h6.2c0.2,0,0.3,0.1,0.3,0.3
				l-2.4,20.3C325.4,69.9,325.3,70,325.1,70z M321.8,60.2l-0.9,7.4c0,0.1,0,0.1,0.1,0.1h2.4c0.1,0,0.1-0.1,0.1-0.1l0.9-7.4H321.8z
				 M324.7,58.1l0.8-6.7l-0.1-0.1H323c-0.1,0-0.1,0-0.1,0.1l-0.8,6.7H324.7z M327.2,62.4l0.3-2.2h9.8l0.3-2.4h-9.8l0.3-2.1h6.2
				l0.4-3h-5.5l0.3-2.1h5.5l0.3-2.4h2.1l-0.3,2.4h5.5l-0.3,2.1h-5.5l-0.4,3h6.3l-0.3,2.1h-2.6l-0.3,2.4h2.6l-0.3,2.2h-2.6l-0.9,7.1
				c-0.1,1-0.6,1.7-1.4,2.2c-1,0.6-2.8,0.5-5.4-0.3l0.4-2.3c2.2,0.7,3.5,0.9,4,0.5c0.2-0.1,0.3-0.4,0.3-0.7l0.8-6.6H327.2z
				 M330.3,63.1c0.7,1.2,1.3,2.7,1.9,4.6l-2,1c-0.6-2-1.2-3.5-1.9-4.5L330.3,63.1z"/>
			<path class="st11" d="M347.8,55.9c-0.7,0.9-1.3,1.6-1.9,2.3l-1.7-1.1c1.2-1.2,2.2-2.5,3.1-3.7c-0.5-1.2-1.1-2.4-1.9-3.6l1.9-1.2
				c0.5,0.8,1,1.6,1.4,2.5c0.5-0.9,0.9-1.8,1.3-2.8l1.9,0.6c-0.8,1.8-1.5,3.3-2.3,4.6c0.6,2.5,0.8,5.3,0.5,8.5
				c-0.5,5.5-1.6,8.8-3.2,9.9c-0.3,0.2-0.7,0.3-1.1,0.3c-0.5,0-1.3-0.2-2.5-0.6l0.3-2.3c1.3,0.4,2.2,0.6,2.5,0.4
				c0.4-0.3,0.7-1,1.1-2.2c0.5-1.7,0.8-3.6,1-5.7c-1.1,1.4-2.1,2.4-3.2,3.2l-1.5-1.4c1.9-1.4,3.5-3.1,4.8-5.1L347.8,55.9z
				 M350.2,69.7l-0.2-2.1c1.5-0.2,3.3-0.4,5.2-0.7l0.3-2.2h-4.2c-0.2,0-0.3-0.1-0.2-0.3l0.6-4.9c0-0.2,0.1-0.3,0.3-0.3h4.2l0.2-1.3
				H353l-0.1,0.1l-1.3,1.3l-1.4-1.3c1.4-1.1,2.4-2.3,3-3.5h-1.4c-0.2,0-0.3-0.1-0.2-0.3l0.6-5.2c0-0.2,0.1-0.3,0.3-0.3h15
				c0.2,0,0.3,0.1,0.3,0.3l-0.6,5.2c0,0.2-0.1,0.3-0.3,0.3h-11.5l-0.5,0.9l-0.3,0.5h11.9c0.3,0,0.5,0.1,0.7,0.4
				c0.1,0.2-0.1,1.9-0.6,5.2c-0.6,4.4-1.3,7.2-2,8.4c-0.6,1-1.3,1.6-2.2,2c-1.2,0.5-2.9,0.5-5.3-0.3l0.3-2.6c1.9,0.8,3.2,1,4,0.7
				c0.5-0.2,1-0.7,1.5-1.4c0.3-0.6,0.6-1.4,0.8-2.5c0.8-4.8,1.2-7.4,1-7.8c-0.1-0.1-0.1-0.2-0.2-0.2h-6.3l-0.2,1.3h4.1
				c0.2,0,0.3,0.1,0.3,0.3l-0.6,4.9c0,0.2-0.1,0.3-0.3,0.3h-0.4c0.5,1,0.9,2.4,1.4,3.9l-1.9,0.8l-0.4-1.5
				C356.4,68.8,353.1,69.4,350.2,69.7z M355.9,60.9h-2.4c-0.1,0-0.1,0-0.1,0.1l-0.2,1.8l0.1,0.1h2.4L355.9,60.9z M356.6,50.6h-2.6
				c-0.1,0-0.1,0-0.1,0.1l-0.2,1.7l0.1,0.1h2.6L356.6,50.6z M360.6,64.7h-3.1l-0.2,1.8l2.2-0.5l-0.3-0.6L360.6,64.7z M357.7,62.9
				h2.3l0.1-0.1l0.2-1.8l-0.1-0.1h-2.3L357.7,62.9z M361.1,50.6h-2.4l-0.2,1.8h2.4L361.1,50.6z M362.9,52.4h2.3l0.1-0.1l0.2-1.7
				l-0.1-0.1h-2.3L362.9,52.4z"/>
			<path class="st11" d="M382.9,69.1c-0.2,0.7-0.6,1.3-1.1,1.7c-2.4,1.7-5.6,1.8-9.8,0.2l0.2-2.4c1.5,0.6,2.8,1,4,1.2
				c2,0.2,3.4,0,4.2-0.8c0.2-0.2,0.3-0.4,0.4-0.7c0.1-0.5,0-1-0.5-1.6h-12.1l0.3-2.1h9.3l-0.6-0.4l1.4-1.9l0.9,0.6l4.3-1.6h-13.1
				l0.2-2h17.2l0,2c-1.7,0.9-4.1,1.8-7.1,2.8l0.3,0.3h9.1l-0.3,2.1H383C383.2,67.6,383.1,68.4,382.9,69.1z M380.6,48h2.2l-0.2,1.6
				h9.9l-0.2,2h-22.1l0.2-2h10L380.6,48z M389,58.2h-17.1c-0.2,0-0.3-0.1-0.2-0.3l0.6-4.7c0-0.2,0.1-0.3,0.3-0.3h17.1
				c0.2,0,0.3,0.1,0.3,0.3l-0.6,4.7C389.3,58.1,389.2,58.2,389,58.2z M374.2,54.8c-0.1,0-0.1,0-0.1,0.1l-0.2,1.3c0,0,0,0.1,0.1,0.1
				h13.3l0.1-0.1l0.2-1.3c0-0.1,0-0.1-0.1-0.1H374.2z"/>
		</g>
	</g>
</g>
</svg>
