<?xml version="1.0" encoding="utf-8"?>
<!-- Generator: Adobe Illustrator 20.0.0, SVG Export Plug-In . SVG Version: 6.00 Build 0)  -->
<svg version="1.1" id="圖層_1" xmlns="http://www.w3.org/2000/svg" xmlns:xlink="http://www.w3.org/1999/xlink" x="0px" y="0px"
	 viewBox="0 0 434 109" style="enable-background:new 0 0 434 109;" xml:space="preserve">
<style type="text/css">
	.st0{fill:#FFFFFF;}
	.st1{font-family:'MicrosoftJhengHeiRegular';}
	.st2{font-size:22px;}
	.st3{letter-spacing:1;}
	.st4{fill:#9D9D9E;}
	.st5{font-family:'Avenir-MediumOblique';}
	.st6{font-size:32.9138px;}
	.st7{font-family:'NewGothic-Bold';}
	.st8{font-size:29.3994px;}
	.st9{fill:none;stroke:#FFFFFF;stroke-width:2;stroke-linecap:round;stroke-miterlimit:10;}
	.st10{fill:none;stroke:#FFFFFF;stroke-width:0.75;stroke-linecap:round;stroke-miterlimit:10;}
	.st11{fill:none;stroke:#F6B42C;stroke-width:2;stroke-linecap:round;stroke-miterlimit:10;}
	.st12{display:none;}
	.st13{display:inline;}
	.st14{fill:#D6000F;}
	.st15{font-family:'Arial-ItalicMT';}
	.st16{font-size:109.8763px;}
	.st17{letter-spacing:-1;}
	.st18{font-size:31.4857px;}
	.st19{fill:none;stroke:#D6000F;stroke-width:2;stroke-linecap:round;stroke-miterlimit:10;}
	.st20{fill:none;stroke:#D6000F;stroke-width:0.75;stroke-linecap:round;stroke-miterlimit:10;}
	.st21{enable-background:new    ;}
</style>
<g id="圖層_1_1_">
	<g>
		<g>
			<text transform="matrix(1 0 0 1 285.5415 63.0837)" class="st0 st1 st2 st3">獲得方式</text>
		</g>
		<g>
			<g>
				<g>
					<g>
						<text transform="matrix(1 0 0 1 176.748 67.52)" class="st4 st5 st6">Fa</text>
						<text transform="matrix(1 0 0 1 209.448 67.52)" class="st4 st5 st6">stag</text>
						<text transform="matrix(1 0 0 1 176.748 67.52)" class="st0 st5 st6">Fa</text>
						<text transform="matrix(1 0 0 1 209.448 67.52)" class="st0 st5 st6">stag</text>
					</g>
					<g>
						<text transform="matrix(0.95 0 -0.1187 0.9929 57.6007 65.8789)" class="st4 st7 st8">智慧標籤</text>
						<text transform="matrix(0.95 0 -0.1187 0.9929 57.6007 65.8789)" class="st0 st7 st8">智慧標籤</text>
					</g>
				</g>
			</g>
		</g>
		<path class="st9" d="M51.5,81.3c-14.7,0-26.8-12-26.8-26.8l0,0c0-14.7,12-26.8,26.8-26.8h279.7"/>
		<path class="st10" d="M51.8,77.4c-12.5,0-22.7-10.2-22.7-22.7l0,0C29.1,42.2,39.3,32,51.8,32h237"/>
		<line class="st11" x1="283.7" y1="81.3" x2="56.3" y2="81.3"/>
		<path class="st9" d="M382.5,27.7c14.7,0,26.8,12,26.8,26.8l0,0c0,14.7-12,26.8-26.8,26.8h-93.8"/>
		<path class="st10" d="M381.9,31.6c12.6,0,22.9,10.3,22.9,22.9l0,0c0,12.6-10.3,22.9-22.9,22.9h-78.7"/>
		<line class="st11" x1="337" y1="27.7" x2="377.5" y2="27.7"/>
	</g>
</g>
<g id="圖層_2" class="st12">
	<g class="st13">
		<g>
			<text transform="matrix(0.9913 0 0 1 28.583 89.0664)" class="st14 st15 st16 st17">1</text>
		</g>
		<g>
			<g>
				<g>
					<g>
						<text transform="matrix(0.9559 0 -0.1195 0.9928 155.5659 69.072)" class="st4 st7 st18">限時首購優惠</text>
						<g>
							<text transform="matrix(0.9559 0 -0.1195 0.9928 155.5659 69.072)" class="st14 st7 st18">限時首購優惠</text>
						</g>
					</g>
				</g>
			</g>
			<path class="st19" d="M126.7,82.2c-14.7,0-26.8-12-26.8-26.8l0,0c0-14.7,12-26.8,26.8-26.8h149.8"/>
			<path class="st20" d="M127,78.4c-12.5,0-22.7-10.2-22.7-22.7l0,0c0-12.5,10.2-22.7,22.7-22.7h107.1"/>
			<line class="st11" x1="276.5" y1="82.2" x2="131.5" y2="82.2"/>
			<path class="st19" d="M375.3,28.7c14.7,0,26.8,12,26.8,26.8l0,0c0,14.7-12,26.8-26.8,26.8h-93.8"/>
			<path class="st20" d="M374.7,32.5c12.6,0,22.9,10.3,22.9,22.9l0,0c0,12.6-10.3,22.9-22.9,22.9H296"/>
			<line class="st11" x1="282.2" y1="28.7" x2="370.3" y2="28.7"/>
		</g>
	</g>
</g>
<g id="圖層_3" class="st12">
	<g class="st13">
		<g>
			<text transform="matrix(0.9913 0 0 1 29.0518 85.9468)" class="st14 st15 st16 st17">2</text>
		</g>
		<g>
			<g>
				<g>
					<g>
						<text transform="matrix(0.9559 0 -0.1195 0.9928 142.0354 69.6178)" class="st4 st7 st18">銀行狂慶加碼送</text>
						<g>
							<text transform="matrix(0.9559 0 -0.1195 0.9928 142.0354 69.6178)" class="st14 st7 st18">銀行狂慶加碼送</text>
						</g>
					</g>
				</g>
			</g>
			<path class="st19" d="M127.1,82.8c-14.7,0-26.8-12-26.8-26.8l0,0c0-14.7,12-26.8,26.8-26.8h149.8"/>
			<path class="st20" d="M127.4,78.9c-12.5,0-22.7-10.2-22.7-22.7l0,0c0-12.5,10.2-22.7,22.7-22.7h107.1"/>
			<line class="st11" x1="276.9" y1="82.8" x2="132" y2="82.8"/>
			<path class="st19" d="M375.8,29.2c14.7,0,26.8,12,26.8,26.8l0,0c0,14.7-12,26.8-26.8,26.8H282"/>
			<path class="st20" d="M375.1,33.1c12.6,0,22.9,10.3,22.9,22.9l0,0c0,12.6-10.3,22.9-22.9,22.9h-78.7"/>
			<line class="st11" x1="282.7" y1="29.2" x2="370.8" y2="29.2"/>
		</g>
	</g>
</g>
<g id="圖層_4">
	<g>
		<g>
			<g>
				<g class="st12">
					<g class="st13">
						<text transform="matrix(0.9559 0 -0.1195 0.9928 99.8478 -240.937)" class="st4 st7 st18">再享尊榮</text>
						<text transform="matrix(0.9559 0 -0.1195 0.9928 225.9657 -238.8418)" class="st4 st18" style="font-family:'ArialMT';">Prime</text>
						<text transform="matrix(0.9559 0 -0.1195 0.9928 312.3448 -240.937)" class="st4 st7 st18">會員價</text>
						<g>
							<text transform="matrix(0.9559 0 -0.1195 0.9928 99.8478 -240.937)" class="st14 st7 st18">再享尊榮</text>
							<text transform="matrix(0.9559 0 -0.1195 0.9928 225.9657 -238.8418)" class="st14 st18" style="font-family:'ArialMT';">Prime</text>
							<text transform="matrix(0.9559 0 -0.1195 0.9928 312.3448 -240.937)" class="st14 st7 st18">會員價</text>
						</g>
					</g>
				</g>
			</g>
		</g>
	</g>
</g>
</svg>
