<?xml version="1.0" encoding="utf-8"?>
<!-- Generator: Adobe Illustrator 20.0.0, SVG Export Plug-In . SVG Version: 6.00 Build 0)  -->
<svg version="1.1" id="more3_-2" xmlns="http://www.w3.org/2000/svg" xmlns:xlink="http://www.w3.org/1999/xlink" x="0px" y="0px"
	 viewBox="0 0 60 60" style="enable-background:new 0 0 60 60;" xml:space="preserve">
<style type="text/css">
	.st0{enable-background:new    ;}
	.st1{fill:#FFFEFE;}
	.st2{fill:#FFF8F8;}
</style>
<g class="st0">
	<path class="st1" d="M20.6,55.5v-7.6h1.2V49c0.2-0.4,0.6-0.7,1-0.9c0.4-0.2,0.9-0.3,1.4-0.3c0.6,0,1,0.1,1.4,0.3
		c0.4,0.2,0.6,0.6,0.8,1c0.6-0.9,1.4-1.3,2.4-1.3c0.8,0,1.4,0.2,1.8,0.6c0.4,0.4,0.6,1.1,0.6,1.9v5.2h-1.3v-4.8c0-0.5,0-0.9-0.1-1.1
		c-0.1-0.2-0.2-0.4-0.5-0.5c-0.2-0.1-0.5-0.2-0.8-0.2c-0.5,0-1,0.2-1.4,0.5s-0.5,0.9-0.5,1.7v4.4h-1.3v-4.9c0-0.6-0.1-1-0.3-1.3
		c-0.2-0.3-0.6-0.4-1-0.4c-0.4,0-0.7,0.1-1,0.3c-0.3,0.2-0.5,0.5-0.7,0.8c-0.1,0.4-0.2,0.9-0.2,1.6v3.9H20.6z"/>
	<path class="st1" d="M32.5,51.7c0-1.4,0.4-2.4,1.2-3.1c0.7-0.6,1.5-0.8,2.4-0.8c1.1,0,1.9,0.3,2.6,1c0.7,0.7,1,1.6,1,2.8
		c0,1-0.1,1.7-0.4,2.3s-0.7,1-1.3,1.3s-1.2,0.5-1.9,0.5c-1.1,0-2-0.3-2.6-1C32.9,54,32.5,53,32.5,51.7z M33.9,51.7
		c0,1,0.2,1.7,0.6,2.2c0.4,0.5,1,0.7,1.6,0.7c0.6,0,1.2-0.2,1.6-0.7c0.4-0.5,0.6-1.2,0.6-2.2c0-0.9-0.2-1.7-0.7-2.1s-1-0.7-1.6-0.7
		c-0.7,0-1.2,0.2-1.6,0.7C34.1,50,33.9,50.8,33.9,51.7z"/>
	<path class="st1" d="M41.3,55.5v-7.6h1.2v1.2c0.3-0.5,0.6-0.9,0.8-1.1c0.3-0.2,0.5-0.3,0.8-0.3c0.4,0,0.9,0.1,1.3,0.4L45,49.4
		c-0.3-0.2-0.6-0.3-1-0.3c-0.3,0-0.5,0.1-0.8,0.3c-0.2,0.2-0.4,0.4-0.5,0.7c-0.1,0.5-0.2,1-0.2,1.5v4H41.3z"/>
	<path class="st1" d="M51.5,53.1l1.4,0.2c-0.2,0.8-0.6,1.4-1.2,1.8c-0.6,0.4-1.3,0.6-2.2,0.6c-1.1,0-2-0.3-2.7-1s-1-1.6-1-2.9
		c0-1.3,0.3-2.3,1-3c0.7-0.7,1.5-1.1,2.6-1.1c1,0,1.9,0.3,2.5,1s1,1.7,1,2.9c0,0.1,0,0.2,0,0.3h-5.8c0,0.8,0.3,1.5,0.7,1.9
		c0.4,0.4,1,0.7,1.6,0.7c0.5,0,0.9-0.1,1.2-0.4C51.1,54,51.3,53.6,51.5,53.1z M47.2,51h4.3c-0.1-0.6-0.2-1.1-0.5-1.4
		c-0.4-0.5-1-0.7-1.6-0.7c-0.6,0-1.1,0.2-1.5,0.6C47.5,49.8,47.3,50.3,47.2,51z"/>
</g>
<g id="群組_1">
	<circle id="橢圓_2" class="st2" cx="18.6" cy="6.5" r="3"/>
	<circle id="橢圓_2_拷貝" class="st2" cx="32" cy="6.5" r="3"/>
	<circle id="橢圓_2_拷貝_2" class="st2" cx="44.8" cy="6.5" r="3"/>
	<circle id="橢圓_2_拷貝_3" class="st2" cx="18.2" cy="19.5" r="2.9"/>
	<circle id="橢圓_2_拷貝_3-2" class="st2" cx="32" cy="19.5" r="3"/>
	<circle id="橢圓_2_拷貝_3-3" class="st2" cx="44.8" cy="19.5" r="3"/>
	<circle id="橢圓_2_拷貝_4" class="st2" cx="18.6" cy="32.4" r="3"/>
	<circle id="橢圓_2_拷貝_4-2" class="st2" cx="32" cy="32.4" r="3"/>
	<circle id="橢圓_2_拷貝_4-3" class="st2" cx="44.8" cy="32.4" r="3"/>
</g>
</svg>
