<?xml version="1.0" encoding="utf-8"?>
<!-- Generator: Adobe Illustrator 22.0.1, SVG Export Plug-In . SVG Version: 6.00 Build 0)  -->
<svg version="1.1" id="Layer_1" xmlns="http://www.w3.org/2000/svg" xmlns:xlink="http://www.w3.org/1999/xlink" x="0px" y="0px"
	 viewBox="0 0 60 60" style="enable-background:new 0 0 60 60;" xml:space="preserve">
<style type="text/css">
	.st0{fill:#FFFFFF;}
	.st1{fill:#00A5C8;}
</style>
<g>
	<g>
		<g>
			<g>
				<path class="st0" d="M42.8,35.8H17c-3.5,0-6.4-2.9-6.4-6.4V10.3c0-0.3,0.2-0.5,0.5-0.5h37.5c0.3,0,0.5,0.2,0.5,0.5v19
					C49.2,32.9,46.3,35.8,42.8,35.8z"/>
				<path class="st1" d="M42.8,36.8H17c-4.1,0-7.4-3.3-7.4-7.4V10.3c0-0.9,0.7-1.5,1.5-1.5h37.5c0.9,0,1.5,0.7,1.5,1.5v19
					C50.2,33.4,46.9,36.8,42.8,36.8z M11.6,10.8v18.6c0,3,2.4,5.4,5.4,5.4h25.7c3,0,5.4-2.4,5.4-5.4V10.8H11.6z"/>
			</g>
		</g>
		<g>
			<g>
				<path class="st1" d="M22.1,19.1h-6.5c-0.5,0-0.8-0.4-0.8-0.8v-1.1c0-0.5,0.4-0.8,0.8-0.8h6.5c0.5,0,0.8,0.4,0.8,0.8v1.1
					C23,18.7,22.6,19.1,22.1,19.1z"/>
			</g>
			<g>
				<circle class="st1" cx="20.2" cy="22.8" r="1.9"/>
			</g>
			<g>
				<path class="st1" d="M37.7,19.1h6.5c0.5,0,0.8-0.4,0.8-0.8v-1.1c0-0.5-0.4-0.8-0.8-0.8h-6.5c-0.5,0-0.8,0.4-0.8,0.8v1.1
					C36.9,18.7,37.2,19.1,37.7,19.1z"/>
			</g>
			<g>
				<circle class="st1" cx="39.6" cy="22.8" r="1.9"/>
			</g>
		</g>
		<g>
			<g>
				<path class="st1" d="M27.9,24.9c0.4,0,0.6-0.3,0.6-0.6c0-0.4-0.3-0.6-0.6-0.6c-0.4,0-0.6,0.3-0.6,0.6
					C27.3,24.6,27.6,24.9,27.9,24.9z"/>
			</g>
			<g>
				<path class="st1" d="M31.8,24.9c0.4,0,0.6-0.3,0.6-0.6c0-0.4-0.3-0.6-0.6-0.6c-0.4,0-0.6,0.3-0.6,0.6
					C31.2,24.6,31.5,24.9,31.8,24.9z"/>
			</g>
			<g>
				<path class="st1" d="M34.3,25.1c-0.2-0.3-0.7-0.4-1-0.1c-0.1,0.1-0.2,0.3-0.3,0.5c0,0.2,0,0.4,0.1,0.5c0,0.1,0.1,0.2,0.1,0.3
					c0,0.1-0.4,0.7-3.3,0.7c-3,0-3.3-0.6-3.3-0.6c0,0,0-0.1,0.1-0.2c0.2-0.3,0.2-0.7-0.1-1c-0.3-0.2-0.7-0.2-1,0.1
					c-0.2,0.3-0.6,0.9-0.2,1.6c0.4,1,1.9,1.4,4.6,1.4c2.6,0,4-0.5,4.5-1.4C34.8,26.1,34.5,25.4,34.3,25.1z"/>
			</g>
		</g>
	</g>
	<g>
		<path class="st1" d="M13.2,43.1h-1.3v0.7h-1v-0.7H8.7v-0.9h2.3v-0.7h1v0.7h1.3V43.1z M12.3,49.9h-0.9v-0.5H10v0.8H9v-6h3.3V49.9z
			 M11.4,46.3v-1.2H10v1.2H11.4z M11.4,48.5v-1.3H10v1.3H11.4z M17.8,50.2c0,0.2-0.1,0.4-0.2,0.6c-0.2,0.2-0.5,0.3-1.1,0.3
			c-0.2,0-0.5,0-0.8,0l-0.3-0.9c0.6,0,1.1,0,1.2,0s0.3-0.1,0.3-0.2v-1.3h-2.5c-0.2,1-0.6,1.8-1.3,2.6l-0.7-0.6
			c0.8-0.8,1.2-1.7,1.2-2.7v-3.7h4.4V50.2z M18.2,43.1H16v0.7h-1v-0.7h-1.3v-0.9H15v-0.7h1v0.7h2.3V43.1z M16.8,46v-0.9h-2.5V46
			H16.8z M16.8,47.8v-1h-2.5v1H16.8z"/>
		<path class="st1" d="M24.2,43.1h-1.3v0.7h-1v-0.7h-2.3v-0.9h2.3v-0.7h1v0.7h1.3V43.1z M23.3,49.9h-0.9v-0.5H21v0.8H20v-6h3.3V49.9
			z M22.4,46.3v-1.2H21v1.2H22.4z M22.4,48.5v-1.3H21v1.3H22.4z M28.8,50.2c0,0.2-0.1,0.4-0.2,0.6c-0.2,0.2-0.5,0.3-1.1,0.3
			c-0.2,0-0.5,0-0.8,0l-0.3-0.9c0.6,0,1.1,0,1.2,0s0.3-0.1,0.3-0.2v-1.3h-2.5c-0.2,1-0.6,1.8-1.3,2.6l-0.7-0.6
			c0.8-0.8,1.2-1.7,1.2-2.7v-3.7h4.4V50.2z M29.2,43.1H27v0.7h-1v-0.7h-1.3v-0.9H26v-0.7h1v0.7h2.3V43.1z M27.8,46v-0.9h-2.5V46
			H27.8z M27.8,47.8v-1h-2.5v1H27.8z"/>
		<path class="st1" d="M34.8,51h-0.9v-0.7h-2v0.8h-1v-8h1c0.3-0.5,0.5-1.1,0.6-1.7l1,0.2c-0.1,0.3-0.2,0.9-0.5,1.5h1.8V51z
			 M33.9,46.1v-2h-2v2H33.9z M33.9,49.3V47h-2v2.3H33.9z M40.1,43.2c0,1.1,0,2.4-0.1,4.1s-0.2,2.7-0.3,3s-0.3,0.5-0.6,0.7
			s-0.9,0.2-2,0.2l-0.4-1l1.5,0c0.1,0,0.3-0.1,0.4-0.2c0.2-0.1,0.3-0.9,0.4-2.4c0.1-1.5,0.1-2.6,0.1-3.4H37
			c-0.3,0.9-0.7,1.6-1.2,2.2L35,45.7c0.8-1.3,1.3-2.7,1.7-4.3l1,0.2c-0.1,0.4-0.2,0.9-0.4,1.5H40.1z M38.6,48.1l-0.9,0.6
			c-0.5-0.9-1-1.7-1.5-2.4l0.9-0.5C37.8,46.6,38.3,47.4,38.6,48.1z"/>
		<path class="st1" d="M51.3,48.9c-0.1,0.7-0.3,1.2-0.6,1.6c-0.2,0.4-0.5,0.6-0.9,0.6c-0.6,0-1.2-0.5-1.8-1.6
			c-0.6,0.5-1.3,0.9-2,1.2l-0.5-0.8c0.8-0.4,1.6-0.8,2.2-1.3c-0.2-0.7-0.3-1.8-0.4-3.3H45v1.5c0.5-0.1,1.2-0.3,1.8-0.5l0,1
			c-0.7,0.2-1.3,0.3-1.8,0.5v2.4c0,0.3-0.1,0.5-0.2,0.6c-0.1,0.1-0.3,0.2-0.4,0.3c-0.2,0-0.5,0.1-0.9,0.1c-0.3,0-0.7,0-1,0l-0.3-1
			c0.5,0,0.9,0,1.2,0c0.3,0,0.5,0,0.6,0c0.1,0,0.1-0.1,0.1-0.2v-1.9c-0.8,0.2-1.5,0.3-2.2,0.3l-0.2-0.9c0.7-0.1,1.5-0.2,2.3-0.4
			v-1.7h-2.3v-0.9H44v-1.2c-0.5,0.1-1.1,0.1-1.9,0.2l-0.4-0.9c1.9-0.1,3.4-0.4,4.7-0.9l0.6,0.8c-0.7,0.2-1.3,0.4-1.9,0.5v1.5h2.3
			c0-0.4,0-1.4,0-2.8h1c0,1,0,1.9,0,2.8h3v0.9h-3c0,0.9,0.1,1.8,0.2,2.6c0.5-0.6,1-1.3,1.4-2.1l0.9,0.4c-0.6,1.2-1.2,2.1-1.9,2.7
			c0.2,0.4,0.4,0.7,0.6,0.9c0.2,0.2,0.3,0.3,0.4,0.3c0.3,0,0.5-0.6,0.7-1.7L51.3,48.9z M51,43.4L50.2,44c-0.4-0.6-0.9-1.1-1.4-1.6
			l0.8-0.6C50.1,42.2,50.5,42.8,51,43.4z"/>
	</g>
</g>
</svg>
