<?xml version="1.0" encoding="utf-8"?>
<!-- Generator: Adobe Illustrator 22.0.1, SVG Export Plug-In . SVG Version: 6.00 Build 0)  -->
<svg version="1.1" id="Layer_1" xmlns="http://www.w3.org/2000/svg" xmlns:xlink="http://www.w3.org/1999/xlink" x="0px" y="0px"
	 viewBox="0 0 45 45" style="enable-background:new 0 0 45 45;" xml:space="preserve">
<style type="text/css">
	.st0{fill:none;}
	.st1{fill:#EE4552;}
	.st2{fill:#EE5BA0;}
	.st3{fill:#FFFFFF;}
	.st4{fill:#F7F0E2;}
</style>
<g>
	<path class="st0" d="M236.2-63.5l-13.7-13.7l-13.7,13.7c-0.1,0.1-0.1,0.1-0.2,0.1v19.9c0,0.5,0.4,0.9,0.9,0.9h8.4v-13.2
		c0-0.4,0.3-0.7,0.7-0.7h7.7c0.4,0,0.7,0.3,0.7,0.7v13.2h8.4c0.5,0,0.9-0.4,0.9-0.9L236.2-63.5C236.3-63.4,236.3-63.5,236.2-63.5z"
		/>
	<path class="st1" d="M242.2-64.8c-0.1-0.1-0.2-0.3-0.3-0.4L225-82.1c-1.3-1.3-3.8-1.3-5.1,0L203-65.2c-0.2,0.2-0.3,0.3-0.4,0.6
		c-0.2,0.3-0.2,0.6,0,0.9c0.2,0.3,0.5,0.5,0.8,0.5h2.5v19.8c0,2,1.6,3.6,3.6,3.6h26.1c2,0,3.6-1.6,3.6-3.6v-19.8h2.5l0,0
		c0.5,0,0.9-0.4,0.9-0.9C242.5-64.4,242.4-64.6,242.2-64.8z M235.5-42.6h-8.4v-13.2c0-0.4-0.3-0.7-0.7-0.7h-7.7
		c-0.4,0-0.7,0.3-0.7,0.7v13.2h-8.4c-0.5,0-0.9-0.4-0.9-0.9v-19.9c0.1,0,0.1-0.1,0.2-0.1l13.7-13.7l13.7,13.7
		c0.1,0.1,0.1,0.1,0.2,0.1v19.9C236.4-43,236-42.6,235.5-42.6z"/>
</g>
<g>
	<g>
		<g>
			<path class="st1" d="M296.1-49.7h-25.3c-4,0-7.3-3.3-7.3-7.3v-18.7c0-0.9,0.7-1.6,1.6-1.6h36.8c0.9,0,1.6,0.7,1.6,1.6V-57
				C303.5-53,300.2-49.7,296.1-49.7z M265.6-75.2V-57c0,2.9,2.3,5.2,5.2,5.2h25.3c2.9,0,5.3-2.4,5.3-5.3v-18.2h-35.8V-75.2z"/>
		</g>
	</g>
	<g>
		<g>
			<path class="st1" d="M275.8-67.1h-6.3c-0.5,0-0.9-0.4-0.9-0.9v-1c0-0.5,0.4-0.9,0.9-0.9h6.3c0.5,0,0.9,0.4,0.9,0.9v1
				C276.7-67.5,276.3-67.1,275.8-67.1z"/>
		</g>
		<g>
			<circle class="st1" cx="273.9" cy="-63.5" r="1.9"/>
		</g>
		<g>
			<path class="st1" d="M291.2-67.1h6.3c0.5,0,0.9-0.4,0.9-0.9v-1c0-0.5-0.4-0.9-0.9-0.9h-6.3c-0.5,0-0.9,0.4-0.9,0.9v1
				C290.3-67.5,290.7-67.1,291.2-67.1z"/>
		</g>
		<g>
			<circle class="st1" cx="293.1" cy="-63.5" r="1.9"/>
		</g>
	</g>
	<g>
		<g>
			<path class="st1" d="M281.5-61.4c0.3,0,0.6-0.3,0.6-0.6s-0.3-0.6-0.6-0.6c-0.3,0-0.6,0.3-0.6,0.6S281.2-61.4,281.5-61.4z"/>
		</g>
		<g>
			<path class="st1" d="M285.4-61.4c0.3,0,0.6-0.3,0.6-0.6s-0.3-0.6-0.6-0.6c-0.3,0-0.6,0.3-0.6,0.6S285-61.4,285.4-61.4z"/>
		</g>
		<g>
			<path class="st1" d="M287.8-61.2c-0.2-0.3-0.7-0.3-0.9-0.1c-0.1,0.1-0.2,0.3-0.3,0.4c0,0.2,0,0.4,0.1,0.5c0,0.1,0.1,0.2,0.1,0.3
				s-0.4,0.7-3.2,0.7c-2.9,0-3.3-0.6-3.3-0.6s0-0.1,0.1-0.2c0.2-0.3,0.2-0.7-0.1-0.9c-0.3-0.2-0.7-0.2-0.9,0.1
				c-0.2,0.3-0.5,0.9-0.2,1.6c0.4,0.9,1.9,1.4,4.5,1.4c2.5,0,4-0.5,4.4-1.4C288.3-60.2,288-60.9,287.8-61.2z"/>
		</g>
	</g>
</g>
<g>
	<path class="st0" d="M380.5-74.4c-2.4,0-4.4,2-4.4,4.4s2,4.4,4.4,4.4s4.4-2,4.4-4.4S382.9-74.4,380.5-74.4z"/>
	<path class="st0" d="M373.8-70c0-1.5,0.5-2.9,1.4-4.1c-2.8,1.2-4.7,3-5.5,3.9c0.6,1.1,2.3,3.2,5.7,4.5
		C374.3-66.9,373.8-68.3,373.8-70z"/>
	<path class="st0" d="M385.7-74.1c0.9,1.1,1.5,2.6,1.5,4.2c0,1.7-0.6,3.2-1.6,4.4c3.4-1.2,5.1-3.5,5.8-4.6
		C390.5-71.1,388.6-73,385.7-74.1z"/>
	<g>
		<path class="st1" d="M375.3-65.7c-1-1.2-1.5-2.7-1.5-4.3c0-1.5,0.5-2.9,1.4-4.1c-2.8,1.2-4.7,3-5.5,3.9
			C370.2-69.1,371.9-66.9,375.3-65.7z"/>
		<path class="st1" d="M385.7-74.1c0.9,1.1,1.5,2.6,1.5,4.2c0,1.7-0.6,3.2-1.6,4.4c3.4-1.2,5.1-3.5,5.8-4.6
			C390.5-71.1,388.6-73,385.7-74.1z"/>
		<path class="st1" d="M380.5-74.4c-2.4,0-4.4,2-4.4,4.4s2,4.4,4.4,4.4s4.4-2,4.4-4.4S382.9-74.4,380.5-74.4z"/>
		<g>
			<path class="st1" d="M375.1-74c-2.8,1.2-4.7,3-5.5,3.9c0.6,1.1,2.3,3.2,5.7,4.5c-1-1.2-1.5-2.7-1.5-4.3
				C373.8-71.5,374.3-72.9,375.1-74z"/>
			<path class="st1" d="M380.5-74.4c-2.4,0-4.4,2-4.4,4.4s2,4.4,4.4,4.4s4.4-2,4.4-4.4S382.9-74.4,380.5-74.4z"/>
			<path class="st1" d="M380.5-91.5c-11,0-20,9-20,20s9,20,20,20s20-9,20-20S391.5-91.5,380.5-91.5z M393.6-71
				c0.2,0.3,0.3,0.8,0.1,1.1c-0.1,0.3-3.4,7.3-13,7.3c-0.3,0-0.6,0-1,0c-9.7-0.5-12.5-7.1-12.6-7.4c-0.2-0.4-0.1-0.8,0.1-1.1
				c0.1-0.1,1.6-2.1,4.3-3.8l-3.4-3.1c-0.5-0.4-0.5-1.2-0.1-1.6c0.4-0.5,1.2-0.5,1.6-0.1l3.9,3.7c1.6-0.7,3.5-1.3,5.7-1.4v-5
				c0-0.6,0.5-1.1,1.1-1.1l0,0c0.6,0,1.1,0.5,1.1,1.1v5c2.4,0.2,4.5,0.8,6.1,1.7l4.2-3.5c0.5-0.4,1.2-0.3,1.6,0.1
				c0.4,0.5,0.3,1.2-0.1,1.6l-3.6,3C392.3-72.8,393.5-71.1,393.6-71z"/>
			<path class="st1" d="M387.2-70c0,1.7-0.6,3.2-1.6,4.4c3.4-1.2,5.1-3.5,5.8-4.6c-0.8-0.9-2.7-2.8-5.6-4
				C386.6-73,387.2-71.5,387.2-70z"/>
		</g>
	</g>
</g>
<g>
	<g>
		<path class="st1" d="M39.2-58.1c-11,0-20,9-20,20s9,20,20,20s20-9,20-20S50.2-58.1,39.2-58.1z M30-42.7c0.5-0.4,1.2-0.3,1.6,0.2
			l6.3,8v-13.6c0-0.6,0.5-1.1,1.1-1.1c0.6,0,1.1,0.5,1.1,1.1v13.5l6.3-8c0.4-0.5,1.1-0.6,1.6-0.2s0.6,1.1,0.2,1.6l-6.9,8.7
			c-0.5,0.6-1.4,1-2.3,1s-1.8-0.4-2.3-1l-6.9-8.7C29.5-41.6,29.5-42.4,30-42.7z M47.7-27.7H30.9c-0.6,0-1.1-0.5-1.1-1.1
			s0.5-1.1,1.1-1.1h16.9c0.6,0,1.1,0.5,1.1,1.1S48.3-27.7,47.7-27.7z"/>
	</g>
</g>
<g>
	<path class="st0" d="M487.5-22h-20.3c-0.5,0-0.9,0.4-0.9,0.9v14c0,0.5,0.4,0.9,0.9,0.9h20.3c0.5,0,0.9-0.4,0.9-0.9v-14
		C488.4-21.6,488-22,487.5-22z"/>
	<g>
		<g>
			<path class="st0" d="M487.5-22h-20.3c-0.5,0-0.9,0.4-0.9,0.9v14c0,0.5,0.4,0.9,0.9,0.9h20.3c0.5,0,0.9-0.4,0.9-0.9v-14
				C488.4-21.6,488-22,487.5-22z M477.4-8.4c-3.1,0-5.7-2.6-5.7-5.7s2.6-5.7,5.7-5.7s5.7,2.6,5.7,5.7S480.5-8.4,477.4-8.4z
				 M486.1-18.7h-2.3c-0.6,0-1.1-0.5-1.1-1.1s0.5-1.1,1.1-1.1h2.3c0.6,0,1.1,0.5,1.1,1.1C487.3-19.2,486.7-18.7,486.1-18.7z"/>
			<path class="st0" d="M477.4-17.5c-1.9,0-3.4,1.5-3.4,3.4s1.5,3.4,3.4,3.4s3.4-1.5,3.4-3.4S479.2-17.5,477.4-17.5z"/>
			<path class="st1" d="M477.5-34.5c-11,0-20,9-20,20s9,20,20,20s20-9,20-20S488.5-34.5,477.5-34.5z M490.7-7.2
				c0,1.8-1.4,3.2-3.2,3.2h-20.3c-1.8,0-3.2-1.4-3.2-3.2v-14c0-1.8,1.4-3.2,3.2-3.2h0.3V-25c0-0.4,0.3-0.8,0.8-0.8h2
				c0.4,0,0.8,0.3,0.8,0.8v0.7h16.5c1.8,0,3.2,1.4,3.2,3.2L490.7-7.2L490.7-7.2z"/>
			<g>
				<path class="st1" d="M477.4-17.5c-1.9,0-3.4,1.5-3.4,3.4s1.5,3.4,3.4,3.4s3.4-1.5,3.4-3.4S479.2-17.5,477.4-17.5z"/>
				<path class="st1" d="M487.5-22h-20.3c-0.5,0-0.9,0.4-0.9,0.9v14c0,0.5,0.4,0.9,0.9,0.9h20.3c0.5,0,0.9-0.4,0.9-0.9v-14
					C488.4-21.6,488-22,487.5-22z M477.4-8.4c-3.1,0-5.7-2.6-5.7-5.7s2.6-5.7,5.7-5.7s5.7,2.6,5.7,5.7S480.5-8.4,477.4-8.4z
					 M486.1-18.7h-2.3c-0.6,0-1.1-0.5-1.1-1.1s0.5-1.1,1.1-1.1h2.3c0.6,0,1.1,0.5,1.1,1.1C487.3-19.2,486.7-18.7,486.1-18.7z"/>
			</g>
		</g>
	</g>
</g>
<g>
	<g>
		<circle class="st2" cx="22.5" cy="22.5" r="20"/>
	</g>
	<g>
		<line class="st3" x1="22.4" y1="27.5" x2="22.4" y2="12.5"/>
		<path class="st4" d="M31.4,17.9c-0.5-0.4-1.2-0.3-1.6,0.2l-6.3,8V12.5c0-0.6-0.5-1.1-1.1-1.1c-0.6,0-1.1,0.5-1.1,1.1V26l-6.3-8
			c-0.4-0.5-1.1-0.6-1.6-0.2c-0.5,0.4-0.6,1.1-0.2,1.6l6.9,8.7c0.5,0.6,1.4,1,2.3,1c0.9,0,1.8-0.4,2.3-1l6.9-8.7
			C32,19,31.9,18.2,31.4,17.9z"/>
	</g>
	<g>
		<line class="st3" x1="14.1" y1="31.8" x2="31" y2="31.8"/>
		<path class="st4" d="M31,32.9H14.1c-0.6,0-1.1-0.5-1.1-1.1c0-0.6,0.5-1.1,1.1-1.1H31c0.6,0,1.1,0.5,1.1,1.1
			C32.1,32.4,31.6,32.9,31,32.9z"/>
	</g>
</g>
</svg>
