<?xml version="1.0" encoding="utf-8"?>
<!-- Generator: Adobe Illustrator 22.0.1, SVG Export Plug-In . SVG Version: 6.00 Build 0)  -->
<svg version="1.1" id="Layer_1" xmlns="http://www.w3.org/2000/svg" xmlns:xlink="http://www.w3.org/1999/xlink" x="0px" y="0px"
	 viewBox="0 0 60 60" style="enable-background:new 0 0 60 60;" xml:space="preserve">
<style type="text/css">
	.st0{fill:#FFFFFF;}
	.st1{fill:#00A5C8;}
</style>
<g>
	<g>
		<g>
			<circle class="st0" cx="29.9" cy="23.1" r="17.5"/>
			<path class="st1" d="M29.9,41.6c-10.2,0-18.5-8.3-18.5-18.5c0-10.2,8.3-18.5,18.5-18.5c10.2,0,18.5,8.3,18.5,18.5
				C48.4,33.3,40.1,41.6,29.9,41.6z M29.9,6.6c-9.1,0-16.5,7.4-16.5,16.5c0,9.1,7.4,16.5,16.5,16.5s16.5-7.4,16.5-16.5
				C46.4,14,39,6.6,29.9,6.6z"/>
		</g>
		<g>
			<path class="st0" d="M37.1,19.8l-6,7.6c-0.6,0.7-1.9,0.7-2.5,0l-6-7.6"/>
			<path class="st1" d="M29.8,29c-0.8,0-1.6-0.3-2-0.9l-6-7.6c-0.3-0.4-0.3-1.1,0.2-1.4c0.4-0.3,1.1-0.3,1.4,0.2l6,7.6
				c0.1,0.1,0.8,0.1,0.9,0l6-7.6c0.3-0.4,1-0.5,1.4-0.2c0.4,0.3,0.5,1,0.2,1.4l-6,7.6C31.4,28.6,30.6,29,29.8,29z"/>
		</g>
		<g>
			<line class="st0" x1="29.8" y1="27.4" x2="29.8" y2="14.3"/>
			<path class="st1" d="M29.8,28.4c-0.6,0-1-0.4-1-1V14.3c0-0.6,0.4-1,1-1s1,0.4,1,1v13.1C30.8,28,30.4,28.4,29.8,28.4z"/>
		</g>
		<g>
			<line class="st0" x1="22.5" y1="31.2" x2="37.3" y2="31.2"/>
			<path class="st1" d="M37.3,32.2H22.5c-0.6,0-1-0.4-1-1s0.4-1,1-1h14.8c0.6,0,1,0.4,1,1S37.8,32.2,37.3,32.2z"/>
		</g>
	</g>
	<g>
		<path class="st1" d="M12.3,53.5c-0.8,0.6-1.8,1.2-3.1,1.7l-0.6-0.8c1.2-0.4,2.1-0.9,2.9-1.5L12.3,53.5z M18.3,52.6H14v2.7h-1v-2.7
			H8.7v-0.8H13v-0.6H9.8v-3.6h3v-1.9h1v0.5h3.8V47h-3.8v0.6h3.5v3.6H14v0.6h4.3V52.6z M16.2,49v-0.7h-5.5V49H16.2z M16.2,50.4v-0.7
			h-5.5v0.7H16.2z M18.3,54.4l-0.5,0.8c-1.1-0.6-2.1-1.2-3.3-1.5l0.6-0.7C16.5,53.4,17.6,53.9,18.3,54.4z"/>
		<path class="st1" d="M29.2,47.9h-5.3c-0.4,0.6-0.8,1.3-1.4,2h1.9v-1.4h1v1.4h3.1v3.9c0,0.3-0.1,0.5-0.2,0.6
			c-0.1,0.2-0.3,0.3-0.5,0.3c-0.2,0.1-0.5,0.1-1,0.1c-0.2,0-0.4,0-0.6,0L26,53.7c0.4,0,0.8,0,1.3,0c0.2,0,0.3-0.1,0.3-0.3v-2.7h-2.1
			v4.6h-1v-4.6h-2.1v3.9h-1v-3.7c-0.5,0.4-0.9,0.7-1.2,0.8l-0.6-0.8c1.2-0.7,2.3-1.8,3.2-3.2h-3.1v-1h3.7c0.2-0.3,0.4-0.7,0.6-1.2
			l1,0.3c-0.1,0.3-0.3,0.6-0.4,0.9h4.8V47.9z"/>
		<path class="st1" d="M40.2,47h-4.8v1.8c1.7,0.9,3.1,1.7,4,2.5l-0.6,0.8c-0.8-0.7-2-1.5-3.4-2.2v5.5h-1V47h-3.8v-1h9.6V47z"/>
		<path class="st1" d="M51.3,53.1c-0.1,0.7-0.2,1.2-0.4,1.6c-0.2,0.4-0.5,0.6-0.9,0.6c-0.2,0-0.4-0.1-0.5-0.2
			c-0.2-0.1-0.4-0.5-0.6-1c-0.5,0.6-0.9,1-1.1,1.3l-0.8-0.6c0.1-0.1,0.2-0.2,0.3-0.3h-2.1v0.8h-0.9v-0.8h-2.5v-0.7h2.5v-0.6h-2.1v-3
			h2.1v-0.5h-2.4V49h2.4v-0.6h-2.6v-0.8h2.6v-0.6H42v-0.7h2.3v-0.6h0.9v0.6h2.3v0.7h-2.3v0.6H48c0-0.6,0-1.2,0-1.9h0.9l0,1.9h2.3
			v0.8H49c0,1.4,0.1,2.5,0.2,3.4c0.3-0.7,0.6-1.6,0.8-2.7l0.9,0.3c-0.4,1.5-0.8,2.8-1.4,3.8c0,0.2,0.1,0.4,0.2,0.7
			c0.1,0.3,0.2,0.4,0.2,0.4c0,0,0,0,0.1,0c0.2,0,0.3-0.5,0.4-1.6L51.3,53.1z M44.2,51.4v-0.5h-1.2v0.5H44.2z M44.2,52.5V52h-1.2v0.5
			H44.2z M48.5,53c-0.3-1.2-0.5-2.7-0.5-4.6h-2.9V49h2.3v0.7h-2.3v0.5h2.1v3h-2.1v0.6h2.3v0.5C47.8,53.9,48.2,53.5,48.5,53z
			 M46.3,51.4v-0.5h-1.2v0.5H46.3z M46.3,52.5V52h-1.2v0.5H46.3z M51,46.9l-0.7,0.5c-0.3-0.5-0.6-0.9-1-1.2l0.7-0.5
			C50.3,46,50.6,46.4,51,46.9z"/>
	</g>
</g>
</svg>
