<?xml version="1.0" encoding="utf-8"?>
<!-- Generator: Adobe Illustrator 22.0.1, SVG Export Plug-In . SVG Version: 6.00 Build 0)  -->
<svg version="1.1" id="Layer_1" xmlns="http://www.w3.org/2000/svg" xmlns:xlink="http://www.w3.org/1999/xlink" x="0px" y="0px"
	 viewBox="0 0 60 60" style="enable-background:new 0 0 60 60;" xml:space="preserve">
<style type="text/css">
	.st0{fill:#FFFFFF;}
	.st1{fill:#00A5C8;}
</style>
<g>
	<g>
		<g>
			<circle class="st0" cx="30.1" cy="23" r="17.5"/>
			<path class="st1" d="M30.1,41.5c-10.2,0-18.5-8.3-18.5-18.5S19.9,4.5,30.1,4.5c10.2,0,18.5,8.3,18.5,18.5S40.3,41.5,30.1,41.5z
				 M30.1,6.5C21,6.5,13.6,14,13.6,23S21,39.5,30.1,39.5S46.6,32.1,46.6,23S39.2,6.5,30.1,6.5z"/>
		</g>
		<g>
			<g>
				<path class="st0" d="M19.3,24.1c0,0,4.1-5.5,11.3-5.2c6.7,0.3,10.1,5.2,10.1,5.2s-2.7,6.2-11.3,5.8
					C21.5,29.5,19.3,24.1,19.3,24.1z"/>
				<path class="st1" d="M30.3,30.9c-0.3,0-0.6,0-0.9,0c-8.5-0.4-10.9-6.2-11-6.4c-0.1-0.3-0.1-0.7,0.1-1c0.2-0.2,4.5-5.9,12.1-5.6
					c7.1,0.3,10.7,5.4,10.9,5.6c0.2,0.3,0.2,0.7,0.1,1C41.5,24.8,38.7,30.9,30.3,30.9z M20.5,24.2c0.7,1.3,3.2,4.4,9,4.7
					c6.3,0.3,9.2-3.3,10-4.7c-1-1.2-4.1-4.1-9-4.3C25.3,19.7,21.7,23,20.5,24.2z M19.3,24.1L19.3,24.1L19.3,24.1z"/>
			</g>
			<g>
				<path class="st1" d="M24,21.4c-0.2,0-0.5-0.1-0.7-0.3l-4-3.7c-0.4-0.4-0.4-1-0.1-1.4c0.4-0.4,1-0.4,1.4-0.1l4,3.7
					c0.4,0.4,0.4,1,0.1,1.4C24.5,21.3,24.2,21.4,24,21.4z"/>
			</g>
			<g>
				<path class="st1" d="M30.1,19.9L30.1,19.9c-0.6,0-1-0.4-1-1l0-5.4c0-0.6,0.4-1,1-1l0,0c0.6,0,1,0.4,1,1l0,5.4
					C31.1,19.4,30.7,19.9,30.1,19.9z"/>
			</g>
			<g>
				<path class="st1" d="M37,21.2c-0.3,0-0.6-0.1-0.8-0.4c-0.4-0.4-0.3-1.1,0.1-1.4l3.8-3.2c0.4-0.4,1.1-0.3,1.4,0.1
					c0.4,0.4,0.3,1.1-0.1,1.4L37.6,21C37.4,21.2,37.2,21.2,37,21.2z"/>
			</g>
			<g>
				<circle class="st0" cx="30" cy="24.4" r="4.9"/>
				<path class="st1" d="M30,30.3c-3.2,0-5.9-2.6-5.9-5.9s2.6-5.9,5.9-5.9c3.2,0,5.9,2.6,5.9,5.9S33.3,30.3,30,30.3z M30,20.5
					c-2.1,0-3.9,1.7-3.9,3.9c0,2.1,1.7,3.9,3.9,3.9s3.9-1.7,3.9-3.9C33.9,22.3,32.2,20.5,30,20.5z"/>
			</g>
		</g>
	</g>
	<g>
		<path class="st1" d="M18.4,47.7h-5.3c-0.1,0.3-0.3,0.6-0.6,0.9h5.2v5.9c0,0.2-0.1,0.4-0.2,0.6c-0.1,0.1-0.3,0.2-0.6,0.2
			c-0.3,0-0.5,0-0.8,0c-0.4,0-0.8,0-1,0l-0.4-1c0.5,0,1.1,0,1.8,0c0.2,0,0.2-0.1,0.2-0.3v-1h-4.9c-0.2,0.8-0.6,1.5-1.1,2.2l-0.9-0.5
			c0.8-0.9,1.2-1.7,1.2-2.4v-1.8c-0.5,0.5-1,0.9-1.4,1.2l-0.7-0.7c1.3-0.9,2.4-2,3.2-3.4H8.8v-1h3.6c0.2-0.4,0.4-0.8,0.5-1.1l1,0.2
			c-0.1,0.3-0.2,0.6-0.4,0.9h4.9V47.7z M16.6,50.4v-0.9h-4.8v0.9H16.6z M16.6,52.2v-0.9h-4.8v0.9H16.6z"/>
		<path class="st1" d="M24,55.2H23v-0.7h-2v0.8h-1v-8h1c0.3-0.5,0.5-1.1,0.6-1.7l1,0.2c-0.1,0.3-0.2,0.9-0.5,1.5H24V55.2z M23,50.3
			v-2h-2v2H23z M23,53.5v-2.3h-2v2.3H23z M29.3,47.4c0,1.1,0,2.4-0.1,4.1s-0.2,2.7-0.3,3s-0.3,0.5-0.6,0.7s-0.9,0.2-2,0.2l-0.4-1
			l1.5,0c0.1,0,0.3-0.1,0.4-0.2c0.2-0.1,0.3-0.9,0.4-2.4c0.1-1.5,0.1-2.6,0.1-3.4h-2.2c-0.3,0.9-0.7,1.6-1.2,2.2l-0.8-0.7
			c0.8-1.3,1.3-2.7,1.7-4.3l1,0.2c-0.1,0.4-0.2,0.9-0.4,1.5H29.3z M27.7,52.3l-0.9,0.6c-0.5-0.9-1-1.7-1.5-2.4l0.9-0.5
			C26.9,50.9,27.4,51.6,27.7,52.3z"/>
		<path class="st1" d="M33.4,49.9l-0.6,0.7c-0.6-0.5-1.3-1-2.1-1.4l0.6-0.8C32.1,48.8,32.8,49.3,33.4,49.9z M33.6,51.7
			c-0.5,1.3-1.2,2.5-2,3.7l-0.8-0.6c0.8-1.2,1.4-2.4,2-3.7L33.6,51.7z M33.6,47.3l-0.7,0.7c-0.6-0.7-1.3-1.2-2-1.7l0.6-0.8
			C32.3,46.2,33,46.8,33.6,47.3z M40.6,54.6l-0.5,0.9c-1.3-0.4-2.3-0.8-3.1-1.3c-1,0.6-2.1,1-3.3,1.2l-0.5-0.8c1-0.2,2-0.6,2.9-1
			c-0.6-0.5-1.1-1.2-1.6-2.1h-0.4v-1h5.7v1c-0.5,0.7-1.2,1.5-1.9,2.1C38.6,54,39.5,54.3,40.6,54.6z M40,46.7c0,0.8-0.1,1.5-0.1,1.9
			c-0.1,0.5-0.2,0.8-0.3,1c-0.1,0.2-0.3,0.3-0.5,0.3C38.8,50,38.4,50,37.7,50c-0.2,0-0.4,0-0.6,0l-0.4-0.9c0.3,0,0.9,0,1.7,0
			c0.2,0,0.3-0.1,0.4-0.3c0.1-0.2,0.1-0.6,0.1-1.1H36c-0.4,0.9-1,1.8-1.6,2.5l-0.8-0.5c1-1.3,1.7-2.7,2-4l1,0.2
			c0,0.3-0.1,0.6-0.2,0.8H40z M38.5,51.4h-2.9C36,52,36.5,52.6,37,53C37.6,52.6,38,52.1,38.5,51.4z"/>
		<path class="st1" d="M46,55.2H45v-0.7h-2v0.8h-1v-8h1c0.3-0.5,0.5-1.1,0.6-1.7l1,0.2c-0.1,0.3-0.2,0.9-0.5,1.5H46V55.2z M45,50.3
			v-2h-2v2H45z M45,53.5v-2.3h-2v2.3H45z M51.3,47.4c0,1.1,0,2.4-0.1,4.1s-0.2,2.7-0.3,3s-0.3,0.5-0.6,0.7s-0.9,0.2-2,0.2l-0.4-1
			l1.5,0c0.1,0,0.3-0.1,0.4-0.2c0.2-0.1,0.3-0.9,0.4-2.4c0.1-1.5,0.1-2.6,0.1-3.4h-2.2c-0.3,0.9-0.7,1.6-1.2,2.2l-0.8-0.7
			c0.8-1.3,1.3-2.7,1.7-4.3l1,0.2c-0.1,0.4-0.2,0.9-0.4,1.5H51.3z M49.7,52.3l-0.9,0.6c-0.5-0.9-1-1.7-1.5-2.4l0.9-0.5
			C48.9,50.9,49.4,51.6,49.7,52.3z"/>
	</g>
</g>
</svg>
