<?xml version="1.0" encoding="utf-8"?>
<!-- Generator: Adobe Illustrator 20.0.0, SVG Export Plug-In . SVG Version: 6.00 Build 0)  -->
<svg version="1.1" id="圖層_1" xmlns="http://www.w3.org/2000/svg" xmlns:xlink="http://www.w3.org/1999/xlink" x="0px" y="0px"
	 viewBox="0 0 172 172" style="enable-background:new 0 0 172 172;" xml:space="preserve">
<style type="text/css">
	.st0{fill:#FFFFFF;}
	.st1{enable-background:new    ;}
	.st2{fill:#C9161D;}
</style>
<g>
	<circle class="st0" cx="86" cy="86" r="84.5"/>
	<g class="st1">
		<path class="st2" d="M28.4,59.2V44.6h11.7V59h-3.7v-1.5h-4.6v1.6H28.4z M36.5,48.3h-4.6v5.6h4.6V48.3z M50.7,30.3v11.7h-18V30.3
			H50.7z M46.9,38.3v-4.4H36.2v4.4H46.9z M42.7,44.6h12.1v14.4h-3.7v-1.5h-4.9v1.6h-3.5V44.6z M46.3,53.9h4.9v-5.6h-4.9V53.9z"/>
		<path class="st2" d="M62.8,40.7v1.1c0,1.1,0,2,0,2.6h5.8v14.8h-3.2V47.7h-2.7c-0.3,4.9-0.9,8.8-1.9,11.6c-1-0.5-2-0.9-3-1.1
			c1.3-3.6,1.9-9,1.9-16.3v-12h3.2v7.6h1.9V29h3.2v8.4h2v3.3H62.8z M86.4,49.6v3.2h-4v6.4H79v-6.4h-9.6v-3.2h2.7
			c-0.6-0.7-1.3-1.2-1.9-1.6c1.9-0.8,3.4-1.9,4.4-3.1h-4.2V32h4.8c0.5-1.3,0.8-2.4,1-3l4,0.7c0,0.1-0.5,0.9-1.3,2.3h6.7v12.9h-7.2
			c-1,2-2.7,3.6-4.9,4.8H79v-4.1h3.4v4.1H86.4z M73.7,34.9v2.2h2.8v-2.2H73.7z M73.7,41.9h2.5c0.2-0.6,0.3-1.4,0.3-2.2h-2.8V41.9z
			 M82.3,41.9v-2.2h-2.8c0,0.6-0.1,1.4-0.2,2.2H82.3z M82.3,37.1v-2.2h-2.8v2.2H82.3z"/>
	</g>
	<g>
		<g>
			<path class="st2" d="M97.1,57.8l-7.8-27h5.4l3.4,13.1c0.2,0.9,0.6,2.4,1,4.3c0.4,1.9,0.8,3.4,1.1,4.4h0.2c0.3-1,0.6-2.4,1.1-4.3
				c0.5-1.9,0.8-3.4,1.1-4.4l3.3-13.1h5.2l-7.8,27H97.1z"/>
			<path class="st2" d="M114,57.8v-27h5.1v27H114z"/>
			<path class="st2" d="M125.4,57.8v-27h8.4c6.7,0,10,2.8,10,8.5c0,2.9-0.9,5.2-2.8,6.7c-1.8,1.5-4.2,2.3-7.1,2.3h-3.4v9.6H125.4z
				 M130.5,43.9h3.1c3.5,0,5.2-1.6,5.2-4.7c0-1.5-0.4-2.6-1.3-3.2c-0.9-0.6-2.2-1-4.1-1h-2.9V43.9z"/>
		</g>
	</g>
	<g>
		<path id="hand_3_" class="st2" d="M125.4,127.9c-0.8-1.3-2.6-2.1-4.5-2.1c-1,0-2.5,0.3-3.9,1.5c-0.9,0.8-1.5,1.4-2.3,2.1
			c-1.7,1.6-4.6,4.3-14,12.8H89.4c-3.3-0.1-5.7-0.7-7-1.8s-1.2-2.4-1.2-3h10c2.4,0,4.4,0,4.7,0c5.4,0,7.7-4.6,8.1-6.4
			c0-0.1,0-0.2-0.1-0.2c-0.1-0.1-0.2-0.1-0.3-0.1H64c-0.1,0-0.2,0.1-0.3,0.1L46.8,144c-0.1,0.1-0.1,0.3,0,0.4L64,157.7
			c0.1,0.1,0.2,0.1,0.2,0.1c0.1,0,0.2,0,0.2-0.1l9.4-7.3h0.9c0,0,0,0,0.1,0h29.7c0.1,0,0.2,0,0.3-0.1c0.2-0.2,17.1-16.1,20.1-19.2
			C125.9,130.1,126.1,129,125.4,127.9z"/>
		<g id="present_3_">
			<path id="bow_3_" class="st2" d="M103.1,68.1c-1.5-1.1-3.2-1.6-5-1.6c-3.2,0-6.4,1.7-8.8,4.8c-0.6,0.8-1.1,1.6-1.6,2.5
				c-0.5-0.9-1-1.7-1.6-2.5c-2.4-3-5.6-4.8-8.8-4.8c-1.8,0-3.5,0.6-5,1.6c-2.9,2.1-4,5.5-3,8.9c1.2,3.8,5.7,7.9,14.4,7.9
				c1.2,0,6.6,0,7.8,0l0,0c8.8,0,13.2-4.1,14.4-7.9C107.1,73.7,106,70.2,103.1,68.1z M83.8,80.7c-6.5,0-9.6-2.7-10.4-5
				c-0.5-1.6,0-3.1,1.4-4.1c0.8-0.6,1.6-0.8,2.5-0.8c3.5,0,7.4,4.1,8.1,9.8C84.9,80.6,84.4,80.7,83.8,80.7z M102,75.7
				c-0.7,2.3-3.9,5-10.4,5l0,0c-0.5,0-1.1,0-1.6-0.1c0.7-5.7,4.6-9.8,8.1-9.8c0.9,0,1.7,0.3,2.5,0.8C102,72.6,102.5,74.1,102,75.7z"
				/>
			<path id="box_3_" class="st2" d="M113.8,83.3h-52c-1.2,0-2.1,1-2.1,2.1v9.4c0,1.2,1,2.1,2.1,2.1H62v28.6c0,1.2,1,2.1,2.1,2.1
				h47.3c1.2,0,2.1-1,2.1-2.1V96.9h0.2c1.2,0,2.1-1,2.1-2.1v-9.4C115.9,84.2,114.9,83.3,113.8,83.3z M111.6,92.6h-0.2H89.9v-5.1
				h21.7C111.6,87.5,111.6,92.6,111.6,92.6z M63.9,87.6h21.7v5.1H64.1h-0.2C63.9,92.7,63.9,87.6,63.9,87.6z M66.2,96.9h19.4v26.4
				H66.2V96.9z M89.9,123.3V96.9h19.4v26.4H89.9z"/>
		</g>
	</g>
</g>
</svg>
