<?xml version="1.0" encoding="utf-8"?>
<!-- Generator: Adobe Illustrator 20.0.0, SVG Export Plug-In . SVG Version: 6.00 Build 0)  -->
<svg version="1.1" id="圖層_1" xmlns="http://www.w3.org/2000/svg" xmlns:xlink="http://www.w3.org/1999/xlink" x="0px" y="0px"
	 viewBox="0 0 172 172" style="enable-background:new 0 0 172 172;" xml:space="preserve">
<style type="text/css">
	.st0{fill:#FFFFFF;}
	.st1{fill:#C9161D;}
	.st2{enable-background:new    ;}
</style>
<g>
	<circle class="st0" cx="86" cy="86" r="84.5"/>
	<g>
		<path class="st1" d="M92.3,120.1c-0.9-0.4-2.5-0.9-4.8-1.4c-2.8-0.6-3.7-1.1-3.9-1.3c-0.4-0.4-0.6-0.8-0.6-1.4
			c0-0.7,0.3-1.2,0.9-1.7s1.7-0.8,3.3-0.8c1.5,0,2.5,0.3,3.2,0.9s1.1,1.4,1.2,2.6l0.1,0.7l4-0.3v-0.7c-0.1-1.4-0.4-2.6-1.2-3.7
			c-0.7-1.1-1.8-1.9-3.1-2.5c-0.4-0.2-0.8-0.3-1.2-0.4v-2.8h-5.4v2.6c-0.7,0.1-1.3,0.3-2,0.6c-1.3,0.5-2.3,1.3-3,2.4
			c-0.7,1-1,2.2-1,3.4c0,1.1,0.3,2.1,0.8,3c0.6,0.9,1.4,1.6,2.5,2.2c0.8,0.4,2.2,0.9,4.2,1.4c2.4,0.6,3.3,0.9,3.7,1
			c0.8,0.3,1.3,0.6,1.6,1c0.3,0.4,0.4,0.8,0.4,1.3s-0.2,1-0.5,1.4s-0.8,0.8-1.5,1.1s-1.6,0.4-2.6,0.4c-1.1,0-2.1-0.2-3-0.6
			c-0.8-0.4-1.4-0.8-1.8-1.4s-0.6-1.4-0.8-2.3L82,124l-4,0.3v0.6c0,1.5,0.5,2.9,1.3,4.2c0.8,1.2,1.9,2.2,3.3,2.8
			c0.6,0.3,1.3,0.5,2.1,0.6v2.9h5.4v-2.9c0.7-0.1,1.3-0.4,1.9-0.6c1.3-0.6,2.4-1.5,3.1-2.6s1.1-2.3,1.1-3.6c0-1.3-0.3-2.4-1-3.4
			C94.6,121.5,93.6,120.7,92.3,120.1z"/>
		<g>
			<path class="st1" d="M113.4,108.8l3.3-1c-1.9-6.4-6-12.1-11.5-16l-2,2.8C108.1,98.1,111.7,103.1,113.4,108.8z"/>
			<path class="st1" d="M59,108l3.3,1c1.6-5.6,5.1-10.6,9.9-14l-2-2.8C64.8,96,60.8,101.6,59,108z"/>
			<path class="st1" d="M75.2,141.8l-1.6,3c4.3,2.4,9.3,3.6,14.3,3.6c4.9,0,9.7-1.2,13.9-3.4l-1.6-3C92.5,146,82.8,145.9,75.2,141.8
				z"/>
			<path class="st1" d="M57.9,127.1c4.3,0,7.8-3.5,7.8-7.8s-3.5-7.8-7.8-7.8s-7.8,3.5-7.8,7.8C50.1,123.6,53.6,127.1,57.9,127.1z"/>
			<path class="st1" d="M62.8,128.8h-9.7c-4.5,0-8.2,3.7-8.2,8.2v9.3H71V137C71,132.5,67.3,128.8,62.8,128.8z"/>
			<path class="st1" d="M109.7,119.3c0,4.3,3.5,7.8,7.8,7.8s7.8-3.5,7.8-7.8s-3.5-7.8-7.8-7.8S109.7,115,109.7,119.3z"/>
			<path class="st1" d="M122.3,128.8h-9.7c-4.5,0-8.2,3.7-8.2,8.2v9.3h26.1V137C130.5,132.5,126.8,128.8,122.3,128.8z"/>
			<path class="st1" d="M87.7,82.7c4.3,0,7.8-3.5,7.8-7.8s-3.5-7.8-7.8-7.8s-7.8,3.5-7.8,7.8C79.9,79.2,83.4,82.7,87.7,82.7z"/>
			<path class="st1" d="M100.7,92.5c0-4.5-3.7-8.2-8.2-8.2h-9.7c-4.5,0-8.2,3.7-8.2,8.2v9.3h26.1C100.7,101.8,100.7,92.5,100.7,92.5
				z"/>
		</g>
	</g>
	<g class="st2">
		<path class="st1" d="M36.2,37.1l2.2,0.4c-0.3,5.8-1.2,10.6-2.6,14.3c1.5,1.3,2.6,2.4,3.3,3.4l-2.2,3.1c-0.6-0.8-1.5-1.8-2.7-3.1
			c-1.4,2.5-3.3,4.4-5.6,5.9c-0.6-1.2-1.3-2.2-2.2-3c2-1.1,3.7-2.9,5-5.3c-0.4-0.4-1-0.8-1.7-1.3l-0.3,1l-3-1.6
			c0.5-2,1.3-5.4,2.2-10h-2.4v-3.5h3c0.5-3.2,0.9-5.3,1.1-6.4l3.5,0.3c-0.2,1-0.5,3-1.1,6.1h2.8L36.2,37.1z M34.7,40.8H32
			c-0.2,1-0.7,3.4-1.5,7.1c0.2,0.2,1,0.7,2.3,1.6C33.7,47.1,34.3,44.2,34.7,40.8z M54.8,43.6v3.6h-6.8v9.5c0,1-0.1,1.8-0.3,2.3
			c-0.2,0.5-0.6,1-1.2,1.2c-1,0.5-2.7,0.7-5.1,0.7c-0.2-1-0.6-2.3-1.3-3.8c1.9,0.1,3.2,0.1,3.7,0.1c0.3,0,0.4,0,0.5-0.1
			c0.1-0.1,0.1-0.2,0.1-0.4v-9.4H38v-3.6h6.5v-3.8h1.1c1-1.1,2-2.4,2.9-3.9H39v-3.6h12l0.8-0.2l2.4,1.9c-1.9,3-4,5.6-6.1,7.7v1.8
			H54.8z"/>
		<path class="st1" d="M79.4,42.5l2.5,1.1c-1.1,4.2-2.9,7.7-5.4,10.5c2.5,1.5,5.5,2.6,8.8,3.2c-0.9,0.9-1.7,2.1-2.4,3.5
			c-3.6-0.8-6.7-2.2-9.4-4.1c-2.3,1.8-5.1,3.2-8.1,4.2c-0.6-1.3-1.3-2.4-2.1-3.3c2.7-0.7,5.2-1.9,7.3-3.4c-1.7-1.9-3.1-3.9-4.1-6.1
			c-1.7,5-3.9,8.9-6.8,11.7c-0.8-1-1.8-1.9-3.1-2.7c4.3-3.7,7-9.6,8.2-17.8h-7v-3.8h7.4c0.1-0.8,0.1-1.9,0.2-3l0.1-1.8h3.8
			c-0.1,1.8-0.2,3.4-0.3,4.8h15.5v3.8H68.6c-0.2,1.1-0.4,2.2-0.6,3.3h10.7L79.4,42.5z M77.1,46.4h-7.6c1.1,2.2,2.4,4,4.1,5.4
			C75,50.2,76.2,48.4,77.1,46.4z"/>
		<path class="st1" d="M104.1,32.7l3.6-1.5c1,2,2.3,4.1,4,6.2c1.7,2.1,3.4,3.9,5.1,5.3c-1.2,1-2.3,2.2-3.1,3.5c-0.3-0.3-1-1-2-2.1
			v0.2c-0.2,5-0.4,8.6-0.6,10.7c-0.3,2.1-0.7,3.6-1.2,4.2c-0.4,0.5-0.8,0.9-1.2,1.1c-0.4,0.2-1,0.4-1.6,0.4
			c-0.9,0.1-2.5,0.2-4.7,0.1c-0.1-1.4-0.5-2.7-1.2-3.9c1.4,0.1,2.8,0.2,4.1,0.2c0.6,0,1-0.1,1.2-0.4c0.6-0.7,1-4.1,1.2-10.3h-6.1
			c-0.2,1.7-0.5,3.2-0.9,4.6c-0.4,1.3-1,2.6-1.7,4c-0.8,1.3-1.8,2.5-3.2,3.6c-1.3,1.1-3,2-4.9,2.7c-0.2-0.5-0.6-1.2-1-1.8
			c-0.5-0.7-0.9-1.2-1.4-1.7c1.7-0.6,3.1-1.3,4.2-2.1c1.2-0.8,2.1-1.7,2.7-2.7c0.6-1,1.1-2,1.5-3c0.3-1,0.6-2.2,0.7-3.5h-5.2v-2.2
			c-0.7,0.7-1.5,1.5-2.5,2.3c-0.3-0.4-0.8-1-1.5-1.6c-0.6-0.6-1.2-1.1-1.7-1.5c1.9-1.4,3.7-3.1,5.3-5.2c1.6-2.1,2.9-4.4,3.8-6.9
			l3.9,1.2c-1.5,3.7-3.5,7.1-6.1,10.2h16.6C107.9,39.5,105.8,36.2,104.1,32.7z"/>
		<path class="st1" d="M146.4,51.9v3.3h-11.9v2.3c0,0.9-0.1,1.7-0.4,2.1c-0.3,0.5-0.8,0.8-1.5,1c-0.9,0.3-3,0.4-6.1,0.4
			c-0.2-0.9-0.6-2-1.3-3.2c1.2,0.1,2.8,0.1,4.7,0.1c0.3,0,0.5-0.1,0.6-0.2c0.1-0.1,0.2-0.3,0.2-0.5v-2.2h-11.8v-3.3h11.8v-1.4h1.7
			c0.8-0.3,1.8-0.7,3-1.2h-13.5v-3h18.5l0.8-0.2l2.2,2.1c-2.2,1.4-4.6,2.6-7.3,3.6H146.4z M145.9,33.2v3.3h-26.7v-3.3h11.3v-2.4h3.8
			v2.4H145.9z M142.7,45h-19.9v-7.1h19.9V45z M126.4,40.5v1.8h12.4v-1.8H126.4z"/>
	</g>
</g>
</svg>
