<?xml version="1.0" encoding="utf-8"?>
<!-- Generator: Adobe Illustrator 20.0.0, SVG Export Plug-In . SVG Version: 6.00 Build 0)  -->
<svg version="1.1" id="圖層_1" xmlns="http://www.w3.org/2000/svg" xmlns:xlink="http://www.w3.org/1999/xlink" x="0px" y="0px"
	 viewBox="0 0 227 103" style="enable-background:new 0 0 227 103;" xml:space="preserve">
<style type="text/css">
	.st0{fill:none;stroke:#C9161D;stroke-width:1.9422;stroke-linecap:round;stroke-miterlimit:10;}
	.st1{fill:none;stroke:#C9161D;stroke-width:0.6905;stroke-linecap:round;stroke-miterlimit:10;}
	.st2{fill:none;stroke:#ECAF34;stroke-width:2;stroke-linecap:round;stroke-linejoin:round;stroke-miterlimit:10;}
	.st3{fill:#C9161D;}
	.st4{font-family:'MicrosoftJhengHeiBold';}
	.st5{font-size:14.4979px;}
	.st6{font-family:'DFHei-UB-HK-BF';}
	.st7{font-size:26.1971px;}
	.st8{letter-spacing:-1;}
	.st9{font-family:'Impact';}
	.st10{font-size:40.8643px;}
	.st11{letter-spacing:-0.8;}
</style>
<g>
	<g>
		<path class="st0" d="M207.3,101.6H19.7c-9.9,0-18-8.1-18-18V19.4c0-9.9,8.1-18,18-18h187.5c9.9,0,18,8.1,18,18v64.1
			C225.3,93.5,217.2,101.6,207.3,101.6z"/>
		<path class="st1" d="M22.5,96.9c-9.4,0-17.2-7.6-17.2-16.8V21.6c0-9.2,7.7-16.8,17.2-16.8h182.1c9.4,0,17.2,7.6,17.2,16.8v58.5
			c0,9.2-7.7,16.8-17.2,16.8"/>
		<line class="st2" x1="28.8" y1="96.8" x2="198.2" y2="96.8"/>
	</g>
	<g>
		<text transform="matrix(1 0 0 1 36.7716 26.9418)" class="st3 st4 st5">6/15-6/18刷指定卡買儲值</text>
	</g>
	<g>
		<text transform="matrix(1 0 0 1 72.959 88.0634)" class="st3 st4 st5">限1期。限量</text>
	</g>
	<g>
		<g>
			<text transform="matrix(1 0 0 1 14.1432 62.2497)" class="st3 st6 st7 st8">最高回饋</text>
		</g>
	</g>
	<text transform="matrix(1.1944 0 0 1 115.61 67.508)" class="st3 st9 st10 st11">2500</text>
</g>
</svg>
