<?xml version="1.0" encoding="utf-8"?>
<!-- Generator: Adobe Illustrator 20.0.0, SVG Export Plug-In . SVG Version: 6.00 Build 0)  -->
<svg version="1.1" id="圖層_1" xmlns="http://www.w3.org/2000/svg" xmlns:xlink="http://www.w3.org/1999/xlink" x="0px" y="0px"
	 viewBox="0 0 434 109" style="enable-background:new 0 0 434 109;" xml:space="preserve">
<style type="text/css">
	.st0{enable-background:new    ;}
	.st1{fill:#9D9D9E;}
	.st2{fill:#D6000F;}
	.st3{fill:none;stroke:#D6000F;stroke-width:2;stroke-linecap:round;stroke-miterlimit:10;}
	.st4{fill:none;stroke:#D6000F;stroke-width:0.75;stroke-linecap:round;stroke-miterlimit:10;}
	.st5{fill:none;stroke:#F6B42C;stroke-width:2;stroke-linecap:round;stroke-miterlimit:10;}
</style>
<g>
	<g>
		<g>
			<g>
				<g class="st0">
					<path class="st1" d="M143.5,63.9c-1.5,3.2-3.1,5.8-5,7.6c-0.5-0.8-1.1-1.3-1.6-1.7c1.8-1.9,3.2-4.1,4.3-6.8L143.5,63.9z
						 M163.5,47.5h-5.1c0.3,2.3,0.8,4.4,1.5,6.4c0.8-1.3,1.7-2.9,2.6-4.8l2.2,0.8c-1.1,2.6-2.3,4.7-3.6,6.5l1.4,2.3
						c0.5,0.6,0.8,0.9,1,0.9c0.1,0,0.3-0.2,0.4-0.6c0.2-0.9,0.5-2,0.7-3.2l2.3,0.6c-0.5,3.4-1.2,5.4-2.1,6c-0.3,0.2-0.5,0.3-0.8,0.3
						c-0.6,0.1-1.3-0.2-1.9-0.7c-1-0.8-1.9-2-2.7-3.4c-1.4,1.5-2.8,2.8-4.3,3.8l-1.5-1.9c1.7-1.3,3.2-2.7,4.6-4.2
						c-1.1-2.5-1.9-5.4-2.3-8.7h-11.1c-0.2,0-0.3,0.1-0.3,0.3l-0.5,3.8c-0.5,4.2-1.8,7.7-3.8,10.7l-2.2-1c1.1-1.8,2-3.5,2.5-5
						c0.5-1.5,0.8-3.3,1.1-5.4l0.6-5.1c0-0.4,0.3-0.7,0.7-0.7h12.6l0-2.1l2.5-0.3l0,2.4h5.5l-0.6-1l2.2-1.4c1.2,1.8,2,3.5,2.6,5
						l-2.3,1.2c-0.3-0.9-0.9-2-1.8-3.5L163.5,47.5z M153.2,60.5h-8.7c-0.2,0-0.3-0.1-0.2-0.3l0.8-6.7c0-0.2,0.1-0.3,0.3-0.3h8.7
						c0.2,0,0.3,0.1,0.3,0.3l-0.8,6.7C153.5,60.4,153.4,60.5,153.2,60.5z M147.9,62.4l-0.6,4.8c-0.1,0.6-0.1,1,0.1,1.2
						c0.2,0.3,0.6,0.5,1.3,0.5h6l1.1-0.2c0.2-0.1,0.4-0.3,0.6-0.5c0.2-0.2,0.4-1.1,0.7-2.7l2.4,0.4c-0.4,2.5-0.8,3.9-1.3,4.3
						c-0.5,0.5-0.9,0.8-1.2,0.9c-0.4,0.1-1,0.2-1.8,0.2h-7.8c-0.7,0-1.3-0.2-1.6-0.5c-0.8-0.7-1.1-1.8-0.8-3.3l0.6-5.3H147.9z
						 M154.7,49.2l-0.3,2.3h-9.2l0.3-2.3H154.7z M147,55.2C146.9,55.2,146.9,55.3,147,55.2l-0.5,3.1l0.1,0.1h4.9l0.1-0.1l0.4-3
						l-0.1-0.1H147z M152.3,61.7c0.8,1.2,1.6,2.9,2.3,4.9l-2.2,1.2c-0.8-2.1-1.5-3.6-2.2-4.7L152.3,61.7z M161.9,62.6
						c1.2,1.8,2.2,4.2,3.3,7.2l-2.2,1.2c-1.1-3.1-2.2-5.4-3.2-7.1L161.9,62.6z"/>
					<path class="st1" d="M175.1,56c-0.4-0.7-0.7-1.3-1.1-1.7l-0.5,4c-0.6,5.3-1.7,9.7-3.3,13.2l-2.3-0.8c1.4-3.5,2.5-7.9,3.2-13.2
						l1.5-12.4c0-0.4,0.3-0.7,0.7-0.7h11.2l0.2-1.5h2.6l-0.2,1.5h11.6l-0.3,2.4h-23.2c-0.2,0-0.3,0.1-0.3,0.3l-0.8,6.8
						c2.1-1.8,3.8-4,5.2-6.7l2,1.2l-2.4,3.6l-1.3,10.8h-2.2l1-8L175.1,56z M177.4,65.2c-1,2.6-2.2,4.7-3.6,6.2l-2.1-1.2
						c1.5-1.6,2.7-3.5,3.4-5.6L177.4,65.2z M181.6,63.2l-0.5,4.5c-0.1,0.6-0.1,0.9,0,1.1c0.1,0.3,0.5,0.5,1.1,0.5h5.1
						c0.4,0,0.7-0.1,0.9-0.2c0.2-0.1,0.3-0.3,0.5-0.5c0.1-0.2,0.3-1,0.5-2.3l2.3,0.3c-0.4,2.3-0.7,3.6-1.1,4
						c-0.4,0.4-0.8,0.7-1.1,0.8c-0.4,0.1-0.9,0.2-1.6,0.2H181c-0.7,0-1.2-0.2-1.5-0.4c-0.7-0.6-1-1.6-0.8-3.1l0.6-4.9H181.6z
						 M196.1,60.3l-0.2,2h-14.7c-0.5,0-0.7-0.3-0.7-0.8l0.9-7.3l-0.9,0.9c-0.5-0.8-1-1.4-1.4-1.7c1.8-1.6,3.2-3.6,4.2-6l2.1,1
						l-0.8,1.4h4.4c0.6-0.9,1.1-1.7,1.5-2.4l1.8,1l-0.8,1.4h6l-0.5,2h-6.3l-0.2,1.6h6l-0.2,1.9h-6l-0.2,1.5h6l-0.2,1.9h-6l-0.2,1.6
						H196.1z M187.8,58.7h-4.6l-0.1,1.2c0,0.2,0,0.3,0.3,0.3h4.3L187.8,58.7z M188.2,55.3h-4.6l-0.2,1.5h4.6L188.2,55.3z
						 M188.7,51.8h-4.3c-0.2,0-0.3,0.1-0.3,0.3l-0.2,1.3h4.6L188.7,51.8z M186.2,62.9c0.5,1.2,0.9,2.6,1.2,4.4l-2.3,0.9
						c-0.3-1.8-0.7-3.2-1.1-4.2L186.2,62.9z M194.1,63.1c0.8,1.7,1.5,4,2,6.7l-2.3,0.9c-0.6-2.8-1.2-5-1.9-6.6L194.1,63.1z"/>
				</g>
				<g>
					<g class="st0">
						<path class="st2" d="M143.5,63.9c-1.5,3.2-3.1,5.8-5,7.6c-0.5-0.8-1.1-1.3-1.6-1.7c1.8-1.9,3.2-4.1,4.3-6.8L143.5,63.9z
							 M163.5,47.5h-5.1c0.3,2.3,0.8,4.4,1.5,6.4c0.8-1.3,1.7-2.9,2.6-4.8l2.2,0.8c-1.1,2.6-2.3,4.7-3.6,6.5l1.4,2.3
							c0.5,0.6,0.8,0.9,1,0.9c0.1,0,0.3-0.2,0.4-0.6c0.2-0.9,0.5-2,0.7-3.2l2.3,0.6c-0.5,3.4-1.2,5.4-2.1,6
							c-0.3,0.2-0.5,0.3-0.8,0.3c-0.6,0.1-1.3-0.2-1.9-0.7c-1-0.8-1.9-2-2.7-3.4c-1.4,1.5-2.8,2.8-4.3,3.8l-1.5-1.9
							c1.7-1.3,3.2-2.7,4.6-4.2c-1.1-2.5-1.9-5.4-2.3-8.7h-11.1c-0.2,0-0.3,0.1-0.3,0.3l-0.5,3.8c-0.5,4.2-1.8,7.7-3.8,10.7l-2.2-1
							c1.1-1.8,2-3.5,2.5-5c0.5-1.5,0.8-3.3,1.1-5.4l0.6-5.1c0-0.4,0.3-0.7,0.7-0.7h12.6l0-2.1l2.5-0.3l0,2.4h5.5l-0.6-1l2.2-1.4
							c1.2,1.8,2,3.5,2.6,5l-2.3,1.2c-0.3-0.9-0.9-2-1.8-3.5L163.5,47.5z M153.2,60.5h-8.7c-0.2,0-0.3-0.1-0.2-0.3l0.8-6.7
							c0-0.2,0.1-0.3,0.3-0.3h8.7c0.2,0,0.3,0.1,0.3,0.3l-0.8,6.7C153.5,60.4,153.4,60.5,153.2,60.5z M147.9,62.4l-0.6,4.8
							c-0.1,0.6-0.1,1,0.1,1.2c0.2,0.3,0.6,0.5,1.3,0.5h6l1.1-0.2c0.2-0.1,0.4-0.3,0.6-0.5c0.2-0.2,0.4-1.1,0.7-2.7l2.4,0.4
							c-0.4,2.5-0.8,3.9-1.3,4.3c-0.5,0.5-0.9,0.8-1.2,0.9c-0.4,0.1-1,0.2-1.8,0.2h-7.8c-0.7,0-1.3-0.2-1.6-0.5
							c-0.8-0.7-1.1-1.8-0.8-3.3l0.6-5.3H147.9z M154.7,49.2l-0.3,2.3h-9.2l0.3-2.3H154.7z M147,55.2
							C146.9,55.2,146.9,55.3,147,55.2l-0.5,3.1l0.1,0.1h4.9l0.1-0.1l0.4-3l-0.1-0.1H147z M152.3,61.7c0.8,1.2,1.6,2.9,2.3,4.9
							l-2.2,1.2c-0.8-2.1-1.5-3.6-2.2-4.7L152.3,61.7z M161.9,62.6c1.2,1.8,2.2,4.2,3.3,7.2l-2.2,1.2c-1.1-3.1-2.2-5.4-3.2-7.1
							L161.9,62.6z"/>
						<path class="st2" d="M175.1,56c-0.4-0.7-0.7-1.3-1.1-1.7l-0.5,4c-0.6,5.3-1.7,9.7-3.3,13.2l-2.3-0.8c1.4-3.5,2.5-7.9,3.2-13.2
							l1.5-12.4c0-0.4,0.3-0.7,0.7-0.7h11.2l0.2-1.5h2.6l-0.2,1.5h11.6l-0.3,2.4h-23.2c-0.2,0-0.3,0.1-0.3,0.3l-0.8,6.8
							c2.1-1.8,3.8-4,5.2-6.7l2,1.2l-2.4,3.6l-1.3,10.8h-2.2l1-8L175.1,56z M177.4,65.2c-1,2.6-2.2,4.7-3.6,6.2l-2.1-1.2
							c1.5-1.6,2.7-3.5,3.4-5.6L177.4,65.2z M181.6,63.2l-0.5,4.5c-0.1,0.6-0.1,0.9,0,1.1c0.1,0.3,0.5,0.5,1.1,0.5h5.1
							c0.4,0,0.7-0.1,0.9-0.2c0.2-0.1,0.3-0.3,0.5-0.5c0.1-0.2,0.3-1,0.5-2.3l2.3,0.3c-0.4,2.3-0.7,3.6-1.1,4
							c-0.4,0.4-0.8,0.7-1.1,0.8c-0.4,0.1-0.9,0.2-1.6,0.2H181c-0.7,0-1.2-0.2-1.5-0.4c-0.7-0.6-1-1.6-0.8-3.1l0.6-4.9H181.6z
							 M196.1,60.3l-0.2,2h-14.7c-0.5,0-0.7-0.3-0.7-0.8l0.9-7.3l-0.9,0.9c-0.5-0.8-1-1.4-1.4-1.7c1.8-1.6,3.2-3.6,4.2-6l2.1,1
							l-0.8,1.4h4.4c0.6-0.9,1.1-1.7,1.5-2.4l1.8,1l-0.8,1.4h6l-0.5,2h-6.3l-0.2,1.6h6l-0.2,1.9h-6l-0.2,1.5h6l-0.2,1.9h-6l-0.2,1.6
							H196.1z M187.8,58.7h-4.6l-0.1,1.2c0,0.2,0,0.3,0.3,0.3h4.3L187.8,58.7z M188.2,55.3h-4.6l-0.2,1.5h4.6L188.2,55.3z
							 M188.7,51.8h-4.3c-0.2,0-0.3,0.1-0.3,0.3l-0.2,1.3h4.6L188.7,51.8z M186.2,62.9c0.5,1.2,0.9,2.6,1.2,4.4l-2.3,0.9
							c-0.3-1.8-0.7-3.2-1.1-4.2L186.2,62.9z M194.1,63.1c0.8,1.7,1.5,4,2,6.7l-2.3,0.9c-0.6-2.8-1.2-5-1.9-6.6L194.1,63.1z"/>
					</g>
				</g>
			</g>
		</g>
		<g>
			<g class="st0">
				<path class="st1" d="M208.1,64.4c0.1,1.6,0.5,2.8,1.2,3.6c0.7,0.8,1.9,1.2,3.7,1.2c0.9,0,1.8-0.1,2.6-0.5
					c0.9-0.3,1.7-0.7,2.4-1.2c0.7-0.5,1.4-1.2,1.9-1.9c0.6-0.7,0.9-1.6,1.2-2.5c0.4-1.4,0.4-2.5,0-3.3c-0.4-0.8-1-1.5-1.8-1.9
					c-0.8-0.4-1.8-0.7-2.8-0.8c-1.1-0.1-2.2-0.2-3.3-0.2l1.1-4c1.8,0,3.2-0.1,4.4-0.4c1.2-0.2,2.2-0.6,2.9-1c0.8-0.4,1.4-1,1.8-1.7
					c0.4-0.7,0.7-1.4,1-2.2c0.4-1.8,0.2-3.1-0.6-4.1c-0.8-0.9-2.1-1.4-3.7-1.4c-1.2,0-2.5,0.4-3.7,1.1c-1.2,0.7-2.2,1.7-3,2.8
					l-4.3-1.6c1.4-2.2,3.2-3.7,5.4-4.8c2.1-1,4.3-1.5,6.6-1.5c1.4,0,2.7,0.2,3.8,0.5c1.2,0.4,2.1,0.9,2.9,1.7
					c0.7,0.8,1.2,1.7,1.5,2.9c0.3,1.2,0.2,2.5-0.2,4.1c-0.5,1.8-1.4,3.4-2.8,4.7c-1.4,1.4-3.1,2.3-5,2.8l0,0.1c1,0.2,1.9,0.5,2.6,1
					c0.7,0.5,1.2,1.1,1.6,1.9c0.4,0.8,0.6,1.6,0.6,2.5c0,0.9-0.1,1.9-0.3,3c-0.4,1.6-1.1,3-2,4.2c-0.9,1.2-2,2.2-3.3,3
					c-1.3,0.8-2.6,1.4-4.1,1.8c-1.5,0.4-3,0.6-4.5,0.6c-2.6,0-4.7-0.6-6.4-1.8c-1.7-1.2-2.6-3-2.7-5.6L208.1,64.4z"/>
			</g>
			<g>
				<g class="st0">
					<path class="st2" d="M208.1,64.4c0.1,1.6,0.5,2.8,1.2,3.6c0.7,0.8,1.9,1.2,3.7,1.2c0.9,0,1.8-0.1,2.6-0.5
						c0.9-0.3,1.7-0.7,2.4-1.2c0.7-0.5,1.4-1.2,1.9-1.9c0.6-0.7,0.9-1.6,1.2-2.5c0.4-1.4,0.4-2.5,0-3.3c-0.4-0.8-1-1.5-1.8-1.9
						c-0.8-0.4-1.8-0.7-2.8-0.8c-1.1-0.1-2.2-0.2-3.3-0.2l1.1-4c1.8,0,3.2-0.1,4.4-0.4c1.2-0.2,2.2-0.6,2.9-1c0.8-0.4,1.4-1,1.8-1.7
						c0.4-0.7,0.7-1.4,1-2.2c0.4-1.8,0.2-3.1-0.6-4.1c-0.8-0.9-2.1-1.4-3.7-1.4c-1.2,0-2.5,0.4-3.7,1.1c-1.2,0.7-2.2,1.7-3,2.8
						l-4.3-1.6c1.4-2.2,3.2-3.7,5.4-4.8c2.1-1,4.3-1.5,6.6-1.5c1.4,0,2.7,0.2,3.8,0.5c1.2,0.4,2.1,0.9,2.9,1.7
						c0.7,0.8,1.2,1.7,1.5,2.9c0.3,1.2,0.2,2.5-0.2,4.1c-0.5,1.8-1.4,3.4-2.8,4.7c-1.4,1.4-3.1,2.3-5,2.8l0,0.1c1,0.2,1.9,0.5,2.6,1
						c0.7,0.5,1.2,1.1,1.6,1.9c0.4,0.8,0.6,1.6,0.6,2.5c0,0.9-0.1,1.9-0.3,3c-0.4,1.6-1.1,3-2,4.2c-0.9,1.2-2,2.2-3.3,3
						c-1.3,0.8-2.6,1.4-4.1,1.8c-1.5,0.4-3,0.6-4.5,0.6c-2.6,0-4.7-0.6-6.4-1.8c-1.7-1.2-2.6-3-2.7-5.6L208.1,64.4z"/>
				</g>
			</g>
		</g>
		<g>
			<g class="st0">
				<path class="st1" d="M241.1,57.8c-2.9,3.8-5.7,6.5-8.4,8l-1.6-2c3.3-2,5.9-4.5,8-7.5L241.1,57.8z M232.6,54.7l0.3-2.7h5.1
					l0.9-7.5h2.6l-0.9,7.5h5.4l1.1-9.1h2.6l-0.4,3h8.3l-0.3,2.7H249l-0.4,3.4H260l-0.3,2.7h-11.4l-1,7.9c-0.2,1.2-0.7,2.1-1.7,2.7
					c-1.1,0.8-3.1,0.7-5.9-0.1l0.3-2.7c2.4,0.6,3.9,0.7,4.4,0.3c0.2-0.2,0.3-0.5,0.4-0.9l0.9-7.2H232.6z M257.9,58.1
					c-0.9,2.2-2.1,4.1-3.6,5.9c-0.8,0.9-1.6,1.7-2.5,2.5c-3.9,3.3-9.6,5.1-16.9,5.4l-0.1-3c3.9-0.1,6.8-0.5,8.9-1
					c5.5-1.4,9.4-5,11.7-10.7L257.9,58.1z"/>
				<path class="st1" d="M264.5,61c-0.7,4.2-1.3,7.4-1.9,9.6l-1.5-0.2c0.9-3.2,1.5-6.4,1.9-9.6L264.5,61z M272.8,56.8l0.4,0.1
					l0.1,1.2c-0.8,6.2-1.4,10.2-2,12.1c-0.3,0.5-0.7,0.9-1.3,1.2c-0.5,0.2-1.5,0.2-2.9,0l0-2.3c1.1,0.3,1.7,0.5,1.9,0.4
					c0.3-0.2,0.5-0.4,0.7-0.8c0.4-1.5,0.9-4.5,1.4-8.8c0.1-0.4,0-0.7-0.1-0.8l-0.3-0.1H264l-0.3-0.2c-0.1-0.1-0.1-0.2-0.1-0.3
					l1.7-14.4c0-0.3,0.2-0.5,0.5-0.5h8.1l-0.3,2.2h-2.6l-0.3,2.2h2.4l-0.3,2.2h-2.4l-0.3,2.2h2.2l-0.3,2.2H270l-0.3,2.2H272.8z
					 M266.4,60.9c0,2.7-0.1,5.4-0.5,8h-1.5c0.3-2.2,0.5-4.9,0.5-8H266.4z M268,54.6h-1.9l-0.3,2.2h1.9L268,54.6z M268.6,50.2h-1.9
					l-0.3,2.2h1.9L268.6,50.2z M268.2,60.8c0.2,2.2,0.3,4.3,0.2,6.4l-1.4,0.1c0-2,0-4.1-0.2-6.3L268.2,60.8z M269.1,45.8h-1.6
					c-0.2,0-0.3,0.1-0.3,0.3l-0.2,2h1.9L269.1,45.8z M270,60.6c0.3,1.9,0.4,3.3,0.4,4.2l-1.3,0.2c0-1.4-0.2-2.7-0.4-4.1L270,60.6z
					 M279.4,65.7c-1.6,1.6-3.6,3.2-6.1,5l-1.2-1.8c2.6-1.9,4.6-3.5,6-4.9L279.4,65.7z M275.9,45.9h-1l0.3-2.2h8.8l-0.3,2.2h-1.1
					L281.3,58h-2.1l0.1-1l-5.5,1.1l-0.3-2.1l1.3-0.2L275.9,45.9z M279.7,60.7c-1.3,1.1-2.9,2.3-4.9,3.5l-1-1.9
					c2.1-1.3,3.7-2.5,4.8-3.4L279.7,60.7z M279.6,54.9l0.2-1.5h-2.6l-0.2,2L279.6,54.9z M280,51.4l0.2-1.7h-2.6l-0.2,1.7H280z
					 M280.4,47.6l0.2-1.7H278l-0.2,1.7H280.4z M288.2,60.5l1.1,2l-2.3,1.6l-1.5,1c1.1,1.3,2.5,2.5,4.1,3.6l-2.1,1.7
					c-1.7-1.5-3.4-3.4-5.1-5.8l-0.9,7.1h-2.3l1.5-12.8c0-0.3,0.2-0.5,0.6-0.5c1.9-0.3,3.9-0.7,5.8-1.4l1,2.1c-1.4,0.6-3.1,1-5,1.3
					c-0.2,0-0.2,0.1-0.3,0.2c0.4,1,0.8,1.9,1.3,2.7L288.2,60.5z M283.8,57l-1.6-1.6c1.7-1,2.9-1.8,3.7-2.7c-0.8-1.4-1.4-2.9-1.9-4.4
					L286,47c0.3,1.3,0.8,2.6,1.5,3.9c1-1.5,1.6-2.8,1.9-3.9c0-0.3,0-0.5-0.1-0.6c-0.1-0.1-0.3-0.2-0.6-0.2h-4l0.3-2.2h5.7l1.1,0.7
					c-0.6,2.8-1.7,5.4-3.2,7.8c1.1,1.3,2,2.3,2.7,2.9l-2.2,1.4c-0.9-1-1.6-1.8-2.1-2.5C286.1,55.2,285.1,56.1,283.8,57z"/>
			</g>
			<g>
				<g class="st0">
					<path class="st2" d="M241.1,57.8c-2.9,3.8-5.7,6.5-8.4,8l-1.6-2c3.3-2,5.9-4.5,8-7.5L241.1,57.8z M232.6,54.7l0.3-2.7h5.1
						l0.9-7.5h2.6l-0.9,7.5h5.4l1.1-9.1h2.6l-0.4,3h8.3l-0.3,2.7H249l-0.4,3.4H260l-0.3,2.7h-11.4l-1,7.9c-0.2,1.2-0.7,2.1-1.7,2.7
						c-1.1,0.8-3.1,0.7-5.9-0.1l0.3-2.7c2.4,0.6,3.9,0.7,4.4,0.3c0.2-0.2,0.3-0.5,0.4-0.9l0.9-7.2H232.6z M257.9,58.1
						c-0.9,2.2-2.1,4.1-3.6,5.9c-0.8,0.9-1.6,1.7-2.5,2.5c-3.9,3.3-9.6,5.1-16.9,5.4l-0.1-3c3.9-0.1,6.8-0.5,8.9-1
						c5.5-1.4,9.4-5,11.7-10.7L257.9,58.1z"/>
					<path class="st2" d="M264.5,61c-0.7,4.2-1.3,7.4-1.9,9.6l-1.5-0.2c0.9-3.2,1.5-6.4,1.9-9.6L264.5,61z M272.8,56.8l0.4,0.1
						l0.1,1.2c-0.8,6.2-1.4,10.2-2,12.1c-0.3,0.5-0.7,0.9-1.3,1.2c-0.5,0.2-1.5,0.2-2.9,0l0-2.3c1.1,0.3,1.7,0.5,1.9,0.4
						c0.3-0.2,0.5-0.4,0.7-0.8c0.4-1.5,0.9-4.5,1.4-8.8c0.1-0.4,0-0.7-0.1-0.8l-0.3-0.1H264l-0.3-0.2c-0.1-0.1-0.1-0.2-0.1-0.3
						l1.7-14.4c0-0.3,0.2-0.5,0.5-0.5h8.1l-0.3,2.2h-2.6l-0.3,2.2h2.4l-0.3,2.2h-2.4l-0.3,2.2h2.2l-0.3,2.2H270l-0.3,2.2H272.8z
						 M266.4,60.9c0,2.7-0.1,5.4-0.5,8h-1.5c0.3-2.2,0.5-4.9,0.5-8H266.4z M268,54.6h-1.9l-0.3,2.2h1.9L268,54.6z M268.6,50.2h-1.9
						l-0.3,2.2h1.9L268.6,50.2z M268.2,60.8c0.2,2.2,0.3,4.3,0.2,6.4l-1.4,0.1c0-2,0-4.1-0.2-6.3L268.2,60.8z M269.1,45.8h-1.6
						c-0.2,0-0.3,0.1-0.3,0.3l-0.2,2h1.9L269.1,45.8z M270,60.6c0.3,1.9,0.4,3.3,0.4,4.2l-1.3,0.2c0-1.4-0.2-2.7-0.4-4.1L270,60.6z
						 M279.4,65.7c-1.6,1.6-3.6,3.2-6.1,5l-1.2-1.8c2.6-1.9,4.6-3.5,6-4.9L279.4,65.7z M275.9,45.9h-1l0.3-2.2h8.8l-0.3,2.2h-1.1
						L281.3,58h-2.1l0.1-1l-5.5,1.1l-0.3-2.1l1.3-0.2L275.9,45.9z M279.7,60.7c-1.3,1.1-2.9,2.3-4.9,3.5l-1-1.9
						c2.1-1.3,3.7-2.5,4.8-3.4L279.7,60.7z M279.6,54.9l0.2-1.5h-2.6l-0.2,2L279.6,54.9z M280,51.4l0.2-1.7h-2.6l-0.2,1.7H280z
						 M280.4,47.6l0.2-1.7H278l-0.2,1.7H280.4z M288.2,60.5l1.1,2l-2.3,1.6l-1.5,1c1.1,1.3,2.5,2.5,4.1,3.6l-2.1,1.7
						c-1.7-1.5-3.4-3.4-5.1-5.8l-0.9,7.1h-2.3l1.5-12.8c0-0.3,0.2-0.5,0.6-0.5c1.9-0.3,3.9-0.7,5.8-1.4l1,2.1c-1.4,0.6-3.1,1-5,1.3
						c-0.2,0-0.2,0.1-0.3,0.2c0.4,1,0.8,1.9,1.3,2.7L288.2,60.5z M283.8,57l-1.6-1.6c1.7-1,2.9-1.8,3.7-2.7
						c-0.8-1.4-1.4-2.9-1.9-4.4L286,47c0.3,1.3,0.8,2.6,1.5,3.9c1-1.5,1.6-2.8,1.9-3.9c0-0.3,0-0.5-0.1-0.6
						c-0.1-0.1-0.3-0.2-0.6-0.2h-4l0.3-2.2h5.7l1.1,0.7c-0.6,2.8-1.7,5.4-3.2,7.8c1.1,1.3,2,2.3,2.7,2.9l-2.2,1.4
						c-0.9-1-1.6-1.8-2.1-2.5C286.1,55.2,285.1,56.1,283.8,57z"/>
				</g>
			</g>
		</g>
	</g>
	<path class="st3" d="M116.4,81.5c-14.7,0-26.8-12-26.8-26.8l0,0c0-14.7,12-26.8,26.8-26.8h149.8"/>
	<path class="st4" d="M116.7,77.6C104.2,77.6,94,67.4,94,54.9l0,0c0-12.5,10.2-22.7,22.7-22.7h107.1"/>
	<line class="st5" x1="218.7" y1="81.5" x2="121.3" y2="81.5"/>
	<path class="st3" d="M317.6,28c14.7,0,26.8,12,26.8,26.8l0,0c0,14.7-12,26.8-26.8,26.8h-93.8"/>
	<path class="st4" d="M316.9,31.8c12.6,0,22.9,10.3,22.9,22.9l0,0c0,12.6-10.3,22.9-22.9,22.9h-78.7"/>
	<line class="st5" x1="272" y1="28" x2="312.5" y2="28"/>
</g>
</svg>
