<?xml version="1.0" encoding="utf-8"?>
<!-- Generator: Adobe Illustrator 20.0.0, SVG Export Plug-In . SVG Version: 6.00 Build 0)  -->
<svg version="1.1" id="圖層_1" xmlns="http://www.w3.org/2000/svg" xmlns:xlink="http://www.w3.org/1999/xlink" x="0px" y="0px"
	 viewBox="0 0 248 65" style="enable-background:new 0 0 248 65;" xml:space="preserve">
<style type="text/css">
	.st0{enable-background:new    ;}
	.st1{fill:#9D9D9E;}
	.st2{fill:#D6000F;}
	.st3{fill:url(#SVGID_1_);}
	.st4{fill:#FFFFFF;}
</style>
<g>
	<g>
		<g class="st0">
			<path class="st1" d="M175.7,33.3h2.5h9.3l-0.3,2.4h-9.2l-0.8,5.9h8.6l-0.3,2.4h-8.6l-1.1,8.1h-2.5L175.7,33.3z"/>
			<path class="st1" d="M188.2,41.1c0.8-0.6,1.6-1.1,2.5-1.4c0.9-0.3,1.8-0.5,2.7-0.5c0.9,0,1.7,0.1,2.3,0.3
				c0.6,0.2,1.1,0.5,1.5,0.9c0.4,0.4,0.6,0.8,0.7,1.3c0.1,0.5,0.1,1,0.1,1.6l-0.9,6.4c-0.1,0.4-0.1,0.8-0.2,1.2
				c0,0.4-0.1,0.7-0.1,1.1h-2.1c0-0.3,0-0.6,0.1-1s0.1-0.6,0.1-1H195c-0.7,0.8-1.4,1.4-2.1,1.7c-0.8,0.3-1.6,0.5-2.6,0.5
				c-0.6,0-1.1-0.1-1.6-0.2s-0.9-0.4-1.3-0.7c-0.4-0.3-0.6-0.7-0.8-1.2c-0.2-0.5-0.2-1-0.1-1.6c0.1-0.8,0.4-1.5,0.8-2
				c0.4-0.5,1-1,1.7-1.3c0.7-0.3,1.4-0.6,2.3-0.7c0.9-0.1,1.8-0.2,2.7-0.2h1.7l0.1-0.5c0.1-0.3,0-0.6,0-1c-0.1-0.3-0.2-0.6-0.4-0.9
				c-0.2-0.3-0.5-0.5-0.8-0.6s-0.8-0.2-1.3-0.2c-0.5,0-0.9,0-1.2,0.1c-0.4,0.1-0.7,0.2-1,0.3c-0.3,0.1-0.6,0.3-0.8,0.5
				c-0.3,0.2-0.5,0.3-0.8,0.5L188.2,41.1z M194.3,46c-0.6,0-1.1,0-1.8,0.1c-0.6,0.1-1.2,0.2-1.7,0.4s-0.9,0.4-1.3,0.7
				s-0.6,0.7-0.6,1.2c-0.1,0.7,0.1,1.2,0.5,1.6c0.4,0.3,1.1,0.5,1.9,0.5c0.7,0,1.2-0.1,1.7-0.3c0.5-0.2,0.9-0.5,1.2-0.9
				c0.3-0.4,0.6-0.7,0.8-1.2c0.2-0.4,0.3-0.9,0.4-1.3l0.1-0.8H194.3z"/>
		</g>
		<g class="st0">
			<path class="st1" d="M206.6,42.7c-0.2-0.4-0.5-0.6-0.9-0.9c-0.4-0.2-0.9-0.4-1.5-0.4c-0.6,0-1.1,0.1-1.5,0.4
				c-0.4,0.2-0.7,0.6-0.8,1c-0.1,0.4,0,0.7,0.2,0.9c0.2,0.2,0.5,0.4,0.8,0.6c0.3,0.1,0.6,0.2,1,0.3c0.4,0.1,0.7,0.1,0.9,0.2
				c0.5,0.1,1,0.3,1.4,0.4c0.4,0.2,0.8,0.4,1.1,0.7c0.3,0.3,0.5,0.6,0.6,1c0.1,0.4,0.1,0.9,0.1,1.5c-0.1,0.7-0.3,1.3-0.7,1.8
				s-0.8,0.9-1.3,1.2c-0.5,0.3-1.1,0.5-1.7,0.7c-0.6,0.1-1.2,0.2-1.9,0.2c-1,0-1.9-0.2-2.7-0.5c-0.7-0.3-1.4-0.9-1.9-1.7l2-1.5
				c0.3,0.4,0.7,0.7,1.2,1c0.4,0.3,1,0.4,1.7,0.4c0.6,0,1.2-0.1,1.8-0.4c0.6-0.3,0.9-0.7,1-1.2c0.1-0.4,0-0.6-0.2-0.9
				c-0.2-0.2-0.4-0.4-0.7-0.5c-0.3-0.1-0.6-0.2-1-0.3s-0.6-0.1-0.9-0.2c-0.5-0.1-1-0.3-1.4-0.4c-0.4-0.2-0.8-0.4-1.1-0.6
				c-0.3-0.3-0.6-0.6-0.7-1c-0.1-0.4-0.2-0.9-0.1-1.5c0.1-0.7,0.3-1.2,0.6-1.7s0.8-0.9,1.3-1.2c0.5-0.3,1-0.6,1.6-0.7
				c0.6-0.2,1.2-0.2,1.8-0.2c0.8,0,1.6,0.2,2.4,0.5c0.7,0.3,1.3,0.8,1.6,1.6L206.6,42.7z"/>
			<path class="st1" d="M218.6,41.6h-3.4l-0.8,5.7c-0.1,0.4-0.1,0.7-0.1,1s0,0.7,0.1,0.9s0.2,0.5,0.4,0.7c0.2,0.2,0.6,0.3,1,0.3
				c0.3,0,0.6,0,0.9-0.1c0.3-0.1,0.6-0.1,0.9-0.3l-0.3,2.2c-0.2,0.1-0.3,0.2-0.5,0.2c-0.2,0.1-0.4,0.1-0.6,0.1c-0.2,0-0.4,0-0.6,0.1
				c-0.2,0-0.3,0-0.5,0c-0.9,0-1.6-0.1-2.1-0.4c-0.5-0.3-0.8-0.6-1-1s-0.3-0.9-0.2-1.4s0.1-1,0.1-1.5l0.9-6.5H210l0.3-2.1h2.7
				l0.5-3.5h2.4l-0.5,3.5h3.4L218.6,41.6z"/>
			<path class="st1" d="M221.8,41.1c0.8-0.6,1.6-1.1,2.5-1.4c0.9-0.3,1.8-0.5,2.7-0.5c0.9,0,1.7,0.1,2.3,0.3
				c0.6,0.2,1.1,0.5,1.5,0.9c0.4,0.4,0.6,0.8,0.7,1.3c0.1,0.5,0.1,1,0.1,1.6l-0.9,6.4c-0.1,0.4-0.1,0.8-0.2,1.2
				c0,0.4-0.1,0.7-0.1,1.1h-2.1c0-0.3,0-0.6,0.1-1s0.1-0.6,0.1-1h-0.1c-0.7,0.8-1.4,1.4-2.1,1.7c-0.8,0.3-1.6,0.5-2.6,0.5
				c-0.6,0-1.1-0.1-1.6-0.2s-0.9-0.4-1.3-0.7c-0.4-0.3-0.6-0.7-0.8-1.2c-0.2-0.5-0.2-1-0.1-1.6c0.1-0.8,0.4-1.5,0.8-2
				c0.4-0.5,1-1,1.7-1.3c0.7-0.3,1.4-0.6,2.3-0.7c0.9-0.1,1.8-0.2,2.7-0.2h1.7l0.1-0.5c0.1-0.3,0-0.6,0-1c-0.1-0.3-0.2-0.6-0.4-0.9
				c-0.2-0.3-0.5-0.5-0.8-0.6s-0.8-0.2-1.3-0.2c-0.5,0-0.9,0-1.2,0.1c-0.4,0.1-0.7,0.2-1,0.3c-0.3,0.1-0.6,0.3-0.8,0.5
				c-0.3,0.2-0.5,0.3-0.8,0.5L221.8,41.1z M227.8,46c-0.6,0-1.1,0-1.8,0.1c-0.6,0.1-1.2,0.2-1.7,0.4s-0.9,0.4-1.3,0.7
				s-0.6,0.7-0.6,1.2c-0.1,0.7,0.1,1.2,0.5,1.6c0.4,0.3,1.1,0.5,1.9,0.5c0.7,0,1.2-0.1,1.7-0.3c0.5-0.2,0.9-0.5,1.2-0.9
				c0.3-0.4,0.6-0.7,0.8-1.2c0.2-0.4,0.3-0.9,0.4-1.3l0.1-0.8H227.8z"/>
			<path class="st1" d="M246.5,51.9c-0.1,1-0.4,1.8-0.9,2.6c-0.4,0.8-1,1.5-1.7,2c-0.7,0.6-1.5,1-2.4,1.3c-0.9,0.3-1.8,0.5-2.9,0.5
				c-1.2,0-2.3-0.2-3.2-0.5c-1-0.3-1.8-0.9-2.6-1.7l1.9-2c0.5,0.7,1.1,1.2,1.8,1.5c0.7,0.3,1.5,0.5,2.4,0.5c0.9,0,1.6-0.1,2.2-0.4
				c0.6-0.3,1.1-0.6,1.5-1c0.4-0.4,0.7-0.9,0.9-1.4c0.2-0.5,0.4-1,0.4-1.6l0.2-1.8h-0.1c-0.6,0.8-1.3,1.3-2.1,1.7
				c-0.8,0.4-1.7,0.5-2.5,0.5c-0.9,0-1.7-0.2-2.5-0.5c-0.7-0.3-1.4-0.8-1.8-1.3s-0.8-1.2-1-2c-0.2-0.8-0.2-1.6-0.1-2.5
				c0.1-0.9,0.4-1.8,0.8-2.6c0.4-0.8,0.9-1.5,1.6-2.1c0.6-0.6,1.4-1.1,2.2-1.4s1.7-0.5,2.7-0.5c0.8,0,1.6,0.2,2.4,0.6
				c0.7,0.4,1.3,0.9,1.7,1.6h0.1l0.2-1.8h2.4L246.5,51.9z M241.4,41.4c-0.6,0-1.2,0.1-1.8,0.3c-0.5,0.2-1,0.5-1.4,0.9
				c-0.4,0.4-0.8,0.8-1,1.4c-0.3,0.5-0.4,1.1-0.5,1.8c-0.2,1.3,0,2.3,0.7,3.1s1.6,1.1,2.9,1.1c1.3,0,2.3-0.4,3.2-1.1
				c0.8-0.8,1.4-1.8,1.6-3.1c0.1-0.6,0.1-1.2,0-1.8c-0.1-0.5-0.3-1-0.6-1.4c-0.3-0.4-0.7-0.7-1.2-0.9
				C242.6,41.5,242,41.4,241.4,41.4z"/>
		</g>
		<g class="st0">
			<path class="st2" d="M175.7,33.3h2.5h9.3l-0.3,2.4h-9.2l-0.8,5.9h8.6l-0.3,2.4h-8.6l-1.1,8.1h-2.5L175.7,33.3z"/>
			<path class="st2" d="M188.2,41.1c0.8-0.6,1.6-1.1,2.5-1.4c0.9-0.3,1.8-0.5,2.7-0.5c0.9,0,1.7,0.1,2.3,0.3
				c0.6,0.2,1.1,0.5,1.5,0.9c0.4,0.4,0.6,0.8,0.7,1.3c0.1,0.5,0.1,1,0.1,1.6l-0.9,6.4c-0.1,0.4-0.1,0.8-0.2,1.2
				c0,0.4-0.1,0.7-0.1,1.1h-2.1c0-0.3,0-0.6,0.1-1s0.1-0.6,0.1-1H195c-0.7,0.8-1.4,1.4-2.1,1.7c-0.8,0.3-1.6,0.5-2.6,0.5
				c-0.6,0-1.1-0.1-1.6-0.2s-0.9-0.4-1.3-0.7c-0.4-0.3-0.6-0.7-0.8-1.2c-0.2-0.5-0.2-1-0.1-1.6c0.1-0.8,0.4-1.5,0.8-2
				c0.4-0.5,1-1,1.7-1.3c0.7-0.3,1.4-0.6,2.3-0.7c0.9-0.1,1.8-0.2,2.7-0.2h1.7l0.1-0.5c0.1-0.3,0-0.6,0-1c-0.1-0.3-0.2-0.6-0.4-0.9
				c-0.2-0.3-0.5-0.5-0.8-0.6s-0.8-0.2-1.3-0.2c-0.5,0-0.9,0-1.2,0.1c-0.4,0.1-0.7,0.2-1,0.3c-0.3,0.1-0.6,0.3-0.8,0.5
				c-0.3,0.2-0.5,0.3-0.8,0.5L188.2,41.1z M194.3,46c-0.6,0-1.1,0-1.8,0.1c-0.6,0.1-1.2,0.2-1.7,0.4s-0.9,0.4-1.3,0.7
				s-0.6,0.7-0.6,1.2c-0.1,0.7,0.1,1.2,0.5,1.6c0.4,0.3,1.1,0.5,1.9,0.5c0.7,0,1.2-0.1,1.7-0.3c0.5-0.2,0.9-0.5,1.2-0.9
				c0.3-0.4,0.6-0.7,0.8-1.2c0.2-0.4,0.3-0.9,0.4-1.3l0.1-0.8H194.3z"/>
		</g>
		<g class="st0">
			<path class="st2" d="M206.6,42.7c-0.2-0.4-0.5-0.6-0.9-0.9c-0.4-0.2-0.9-0.4-1.5-0.4c-0.6,0-1.1,0.1-1.5,0.4
				c-0.4,0.2-0.7,0.6-0.8,1c-0.1,0.4,0,0.7,0.2,0.9c0.2,0.2,0.5,0.4,0.8,0.6c0.3,0.1,0.6,0.2,1,0.3c0.4,0.1,0.7,0.1,0.9,0.2
				c0.5,0.1,1,0.3,1.4,0.4c0.4,0.2,0.8,0.4,1.1,0.7c0.3,0.3,0.5,0.6,0.6,1c0.1,0.4,0.1,0.9,0.1,1.5c-0.1,0.7-0.3,1.3-0.7,1.8
				s-0.8,0.9-1.3,1.2c-0.5,0.3-1.1,0.5-1.7,0.7c-0.6,0.1-1.2,0.2-1.9,0.2c-1,0-1.9-0.2-2.7-0.5c-0.7-0.3-1.4-0.9-1.9-1.7l2-1.5
				c0.3,0.4,0.7,0.7,1.2,1c0.4,0.3,1,0.4,1.7,0.4c0.6,0,1.2-0.1,1.8-0.4c0.6-0.3,0.9-0.7,1-1.2c0.1-0.4,0-0.6-0.2-0.9
				c-0.2-0.2-0.4-0.4-0.7-0.5c-0.3-0.1-0.6-0.2-1-0.3s-0.6-0.1-0.9-0.2c-0.5-0.1-1-0.3-1.4-0.4c-0.4-0.2-0.8-0.4-1.1-0.6
				c-0.3-0.3-0.6-0.6-0.7-1c-0.1-0.4-0.2-0.9-0.1-1.5c0.1-0.7,0.3-1.2,0.6-1.7s0.8-0.9,1.3-1.2c0.5-0.3,1-0.6,1.6-0.7
				c0.6-0.2,1.2-0.2,1.8-0.2c0.8,0,1.6,0.2,2.4,0.5c0.7,0.3,1.3,0.8,1.6,1.6L206.6,42.7z"/>
			<path class="st2" d="M218.6,41.6h-3.4l-0.8,5.7c-0.1,0.4-0.1,0.7-0.1,1s0,0.7,0.1,0.9s0.2,0.5,0.4,0.7c0.2,0.2,0.6,0.3,1,0.3
				c0.3,0,0.6,0,0.9-0.1c0.3-0.1,0.6-0.1,0.9-0.3l-0.3,2.2c-0.2,0.1-0.3,0.2-0.5,0.2c-0.2,0.1-0.4,0.1-0.6,0.1c-0.2,0-0.4,0-0.6,0.1
				c-0.2,0-0.3,0-0.5,0c-0.9,0-1.6-0.1-2.1-0.4c-0.5-0.3-0.8-0.6-1-1s-0.3-0.9-0.2-1.4s0.1-1,0.1-1.5l0.9-6.5H210l0.3-2.1h2.7
				l0.5-3.5h2.4l-0.5,3.5h3.4L218.6,41.6z"/>
			<path class="st2" d="M221.8,41.1c0.8-0.6,1.6-1.1,2.5-1.4c0.9-0.3,1.8-0.5,2.7-0.5c0.9,0,1.7,0.1,2.3,0.3
				c0.6,0.2,1.1,0.5,1.5,0.9c0.4,0.4,0.6,0.8,0.7,1.3c0.1,0.5,0.1,1,0.1,1.6l-0.9,6.4c-0.1,0.4-0.1,0.8-0.2,1.2
				c0,0.4-0.1,0.7-0.1,1.1h-2.1c0-0.3,0-0.6,0.1-1s0.1-0.6,0.1-1h-0.1c-0.7,0.8-1.4,1.4-2.1,1.7c-0.8,0.3-1.6,0.5-2.6,0.5
				c-0.6,0-1.1-0.1-1.6-0.2s-0.9-0.4-1.3-0.7c-0.4-0.3-0.6-0.7-0.8-1.2c-0.2-0.5-0.2-1-0.1-1.6c0.1-0.8,0.4-1.5,0.8-2
				c0.4-0.5,1-1,1.7-1.3c0.7-0.3,1.4-0.6,2.3-0.7c0.9-0.1,1.8-0.2,2.7-0.2h1.7l0.1-0.5c0.1-0.3,0-0.6,0-1c-0.1-0.3-0.2-0.6-0.4-0.9
				c-0.2-0.3-0.5-0.5-0.8-0.6s-0.8-0.2-1.3-0.2c-0.5,0-0.9,0-1.2,0.1c-0.4,0.1-0.7,0.2-1,0.3c-0.3,0.1-0.6,0.3-0.8,0.5
				c-0.3,0.2-0.5,0.3-0.8,0.5L221.8,41.1z M227.8,46c-0.6,0-1.1,0-1.8,0.1c-0.6,0.1-1.2,0.2-1.7,0.4s-0.9,0.4-1.3,0.7
				s-0.6,0.7-0.6,1.2c-0.1,0.7,0.1,1.2,0.5,1.6c0.4,0.3,1.1,0.5,1.9,0.5c0.7,0,1.2-0.1,1.7-0.3c0.5-0.2,0.9-0.5,1.2-0.9
				c0.3-0.4,0.6-0.7,0.8-1.2c0.2-0.4,0.3-0.9,0.4-1.3l0.1-0.8H227.8z"/>
			<path class="st2" d="M246.5,51.9c-0.1,1-0.4,1.8-0.9,2.6c-0.4,0.8-1,1.5-1.7,2c-0.7,0.6-1.5,1-2.4,1.3c-0.9,0.3-1.8,0.5-2.9,0.5
				c-1.2,0-2.3-0.2-3.2-0.5c-1-0.3-1.8-0.9-2.6-1.7l1.9-2c0.5,0.7,1.1,1.2,1.8,1.5c0.7,0.3,1.5,0.5,2.4,0.5c0.9,0,1.6-0.1,2.2-0.4
				c0.6-0.3,1.1-0.6,1.5-1c0.4-0.4,0.7-0.9,0.9-1.4c0.2-0.5,0.4-1,0.4-1.6l0.2-1.8h-0.1c-0.6,0.8-1.3,1.3-2.1,1.7
				c-0.8,0.4-1.7,0.5-2.5,0.5c-0.9,0-1.7-0.2-2.5-0.5c-0.7-0.3-1.4-0.8-1.8-1.3s-0.8-1.2-1-2c-0.2-0.8-0.2-1.6-0.1-2.5
				c0.1-0.9,0.4-1.8,0.8-2.6c0.4-0.8,0.9-1.5,1.6-2.1c0.6-0.6,1.4-1.1,2.2-1.4s1.7-0.5,2.7-0.5c0.8,0,1.6,0.2,2.4,0.6
				c0.7,0.4,1.3,0.9,1.7,1.6h0.1l0.2-1.8h2.4L246.5,51.9z M241.4,41.4c-0.6,0-1.2,0.1-1.8,0.3c-0.5,0.2-1,0.5-1.4,0.9
				c-0.4,0.4-0.8,0.8-1,1.4c-0.3,0.5-0.4,1.1-0.5,1.8c-0.2,1.3,0,2.3,0.7,3.1s1.6,1.1,2.9,1.1c1.3,0,2.3-0.4,3.2-1.1
				c0.8-0.8,1.4-1.8,1.6-3.1c0.1-0.6,0.1-1.2,0-1.8c-0.1-0.5-0.3-1-0.6-1.4c-0.3-0.4-0.7-0.7-1.2-0.9
				C242.6,41.5,242,41.4,241.4,41.4z"/>
		</g>
	</g>
	<g>
		<g>
			<g class="st0">
				<path class="st1" d="M79.6,43.4l-0.8-1.8c2.6-0.7,4.4-1.9,5.3-3.6h-4.3l0.2-1.7h4.7l0-0.2l0.2-2h-2.1c-0.4,0.6-1,1.3-1.7,2
					c-0.4-0.6-0.7-1.1-1.1-1.3c1.1-1.1,2-2.3,2.6-3.8l1.7,0.8l-0.4,0.8h6.7l-0.2,1.6h-3.7l-0.2,2l0,0.2h4.1l-0.2,1.7h-4
					c1.2,0.8,2.3,1.7,3.4,2.7l-1.3,1.6c-0.9-0.9-2-1.9-3.3-3C83.9,41.1,82,42.4,79.6,43.4z M95.5,52.1H80.7c-0.2,0-0.2-0.1-0.2-0.3
					l1.1-8.8c0-0.2,0.1-0.3,0.3-0.3h14.8c0.2,0,0.2,0.1,0.2,0.3l-1.1,8.8C95.7,52,95.6,52.1,95.5,52.1z M82.8,48.4l-0.2,1.8
					c0,0,0,0.1,0.1,0.1H94l0.1-0.1l0.2-1.8H82.8z M94.5,46.6l0.2-1.9c0-0.1,0-0.1-0.1-0.1H83.3c-0.1,0-0.1,0-0.1,0.1L83,46.6H94.5z
					 M98.5,41.6H91c-0.2,0-0.2-0.1-0.2-0.3l1.1-8.9c0-0.2,0.1-0.2,0.3-0.2h7.5c0.2,0,0.3,0.1,0.2,0.2l-1.1,8.9
					C98.8,41.5,98.7,41.6,98.5,41.6z M93.6,33.9C93.5,33.9,93.5,33.9,93.6,33.9l-0.8,5.9l0.1,0.1h4.2l0.1-0.1l0.7-5.9l-0.1-0.1H93.6
					z"/>
				<path class="st1" d="M104.1,49.1c-1,1.5-2.1,2.8-3.3,3.6c-0.3-0.7-0.6-1.2-0.9-1.5c1-0.8,1.9-1.8,2.7-3.1L104.1,49.1z
					 M118.2,46.7c0,0.4-0.2,0.6-0.6,0.6h-14.1l0.2-1.6h12.7c0.1,0,0.2-0.1,0.2-0.2l0.1-0.9h-15.9l0.2-1.5h15.9l0.1-0.9
					c0-0.1,0-0.1-0.1-0.1h-12.8l0.2-1.6h14.2c0.4,0,0.5,0.2,0.5,0.5l-0.3,2.1h3l-0.2,1.5h-3L118.2,46.7z M102,39.3l0-1.6l4.1-0.1
					l0.1-1.1h-3.7l0.2-1.5h3.7l0.1-0.9h-4.1l0.2-1.5h4.1l0.2-1.4h1.8l-0.2,1.4h3.4l-0.2,1.5h-3.4l-0.1,0.9h2.9l-0.2,1.5H108l-0.1,1
					c1.3-0.1,2.4-0.3,3.1-0.4l0,1.6c-0.7,0.2-1.9,0.3-3.4,0.5l-0.1,0.8h-1.8l0.1-0.7L102,39.3z M113.7,50.8c0.3,0,0.6,0,0.8-0.1
					c0.2-0.1,0.3-0.2,0.4-0.4l0.2-1.4l1.9,0.1c-0.2,1.7-0.4,2.7-0.7,2.9c-0.5,0.5-1.3,0.8-2.3,0.8h-7.3c-0.5,0-0.9-0.1-1.2-0.4
					c-0.6-0.5-0.8-1.3-0.6-2.5l0.3-2.2h1.9l-0.2,1.9c-0.1,0.5-0.1,0.8,0,0.9c0.1,0.2,0.4,0.4,0.9,0.4h3.4c-0.6-0.9-1.1-1.6-1.6-2
					l1.4-1.3c0.6,0.6,1.1,1.3,1.8,2.3l-1.3,1H113.7z M111.8,39l0.2-1.5h4.2l0.1-1H113l0.2-1.5h3.3l0.1-1h-3.7l0.2-1.5h3.7l0.2-1.3
					h1.8l-0.2,1.3h4l-0.2,1.5h-4l-0.1,1h3.3l-0.2,1.5h-3.3l-0.1,1h4.2L122,39h-4.2l-0.1,0.9h-1.8L116,39H111.8z M118.9,47.8
					c0.6,1,1.2,2.3,1.7,4l-1.7,0.8c-0.5-1.6-1.1-2.8-1.6-3.7L118.9,47.8z"/>
				<path class="st1" d="M126.7,52.5h-1.8l1.1-9.1c-0.5,1-0.9,1.9-1.4,2.7l-1.8-0.4c1.7-2.5,2.9-5.2,3.6-8h-2.4l0.2-2h2.6l0.5-4.5
					h1.8l-0.5,4.5h1.7l-0.2,2h-1.7l-0.1,0.5c0.7,1.4,1.4,2.9,2,4.4l-1.8,1l-0.7-1.9L126.7,52.5z M132.8,48.7
					c-1.6,1.7-3.1,2.8-4.4,3.3l-1-1.6c1.6-0.7,3-1.7,4.1-3L132.8,48.7z M129.1,47l0.2-1.9h14.3l-0.2,1.9h-6l-0.4,3.6
					c-0.1,0.9-0.5,1.5-1.2,2c-0.7,0.5-2.1,0.4-4-0.2l0.3-2l1.3,0.5c0.7,0.2,1.2,0.2,1.4,0c0.1-0.1,0.2-0.3,0.3-0.7l0.4-3.1H129.1z
					 M144.2,35c0.2,0,0.3,0.1,0.2,0.2l-0.6,5.3c0,0.2-0.1,0.3-0.3,0.3h-12.6c-0.2,0-0.2-0.1-0.2-0.3l0.6-5.3c0-0.2,0.1-0.2,0.3-0.2
					h3.5l0.2-1.4H131l0.2-1.8h14l-0.2,1.8h-4.2l-0.2,1.4H144.2z M143,41.9l-0.2,1.9h-11.6l0.2-1.9H143z M134.9,36.8H133
					c-0.1,0-0.1,0-0.1,0.1l-0.2,2l0.1,0.1h1.9L134.9,36.8z M138.6,36.8h-1.9l-0.3,2.2h1.9L138.6,36.8z M139,33.6H137l-0.2,1.4h1.9
					L139,33.6z M140.1,47.8c1,0.7,2,1.8,3,3.2l-1.5,1.5c-1.1-1.4-2.1-2.5-2.9-3.1L140.1,47.8z M140.1,39h1.9l0.1-0.1l0.2-2l-0.1-0.1
					h-1.9L140.1,39z"/>
				<path class="st1" d="M144.7,51.9l0-1.7l4.7-0.3l0.2-1.6h-4.1l0.2-1.4h4.1l0.1-1.2h-4.1l0.2-1.4h4.1l0.1-1.1H146l0.2-1.4h4.2
					l0.1-1.2h-4.5l0.2-1.5h5.7l-1.6-1.5c-0.5,0.5-1.1,0.9-1.8,1.2l-0.8-1.3c1.3-0.6,2.3-1.4,3.1-2.4l1.1,1l-0.5,0.5l1.5,1.1l-1,1.3
					h8l0.1-3.3l1.7,0.2l-0.1,3.1h4.9l-0.2,1.5h-4.7c0,2,0.2,3.7,0.3,5c0.3-0.5,0.8-1.8,1.5-3.7l1.6,0.4c-0.7,2.1-1.6,4-2.7,5.6
					l0.5,2c0.2,0.5,0.3,0.8,0.4,0.8c0.1,0,0.2-0.2,0.3-0.5c0.2-0.7,0.3-1.5,0.3-2.5l1.6,0.4c-0.3,1.8-0.6,3.2-1.1,4.1
					c-0.2,0.3-0.5,0.5-0.6,0.6c-0.2,0.1-0.4,0.1-0.6,0.1c-0.4,0-0.8-0.3-1.2-0.8c-0.4-0.7-0.7-1.5-1-2.6c-1.5,1.4-2.8,2.5-3.9,3.2
					l-1.2-1.2l0.4-0.3L144.7,51.9z M149.5,34.1c-0.6,0.7-1.4,1.3-2.3,2c-0.2-0.7-0.5-1.1-0.8-1.5c1.3-0.9,2.5-2.1,3.4-3.6l1.4,1
					l-0.3,0.5h5.7l-0.2,1.6h-2.5l0.5,0.8l-1.3,1l-1.2-1.8H149.5z M153,49.7l1.1-9.2h-1.8l-1.1,9.3L153,49.7z M154.6,38.9l-1-1.1
					c1-0.7,1.8-1.5,2.5-2.5l1.3,0.8l-0.3,0.4l1.9,1.1l-0.9,1.4l-1.9-1.4L154.6,38.9z M160.7,47.5c-0.4-2-0.6-4.3-0.7-7h-4.2
					l-0.1,1.2h3.6l-0.2,1.4h-3.6l-0.1,1.1h3.6l-0.2,1.4h-3.6l-0.1,1.2h3.6l-0.2,1.4h-3.6l-0.2,1.3l3.2-0.2l-0.1,0.7l2.1-1.8
					L160.7,47.5z M158.9,34.1l-0.1,0.1c-0.5,0.6-1.1,1.1-1.7,1.6c-0.3-0.7-0.6-1.1-0.9-1.4c1.1-0.8,2.1-2,2.8-3.4l1.5,0.9l-0.4,0.5
					h7.2l-0.2,1.6H163l0.3,1l-1.5,0.7l-0.6-1.7H158.9z M164.1,35.4c0.6,0.4,1.3,0.9,2,1.7l-1.3,1.4c-0.7-0.7-1.3-1.3-1.9-1.6
					L164.1,35.4z"/>
			</g>
			<g class="st0">
				<path class="st2" d="M79.6,43.4l-0.8-1.8c2.6-0.7,4.4-1.9,5.3-3.6h-4.3l0.2-1.7h4.7l0-0.2l0.2-2h-2.1c-0.4,0.6-1,1.3-1.7,2
					c-0.4-0.6-0.7-1.1-1.1-1.3c1.1-1.1,2-2.3,2.6-3.8l1.7,0.8l-0.4,0.8h6.7l-0.2,1.6h-3.7l-0.2,2l0,0.2h4.1l-0.2,1.7h-4
					c1.2,0.8,2.3,1.7,3.4,2.7l-1.3,1.6c-0.9-0.9-2-1.9-3.3-3C83.9,41.1,82,42.4,79.6,43.4z M95.5,52.1H80.7c-0.2,0-0.2-0.1-0.2-0.3
					l1.1-8.8c0-0.2,0.1-0.3,0.3-0.3h14.8c0.2,0,0.2,0.1,0.2,0.3l-1.1,8.8C95.7,52,95.6,52.1,95.5,52.1z M82.8,48.4l-0.2,1.8
					c0,0,0,0.1,0.1,0.1H94l0.1-0.1l0.2-1.8H82.8z M94.5,46.6l0.2-1.9c0-0.1,0-0.1-0.1-0.1H83.3c-0.1,0-0.1,0-0.1,0.1L83,46.6H94.5z
					 M98.5,41.6H91c-0.2,0-0.2-0.1-0.2-0.3l1.1-8.9c0-0.2,0.1-0.2,0.3-0.2h7.5c0.2,0,0.3,0.1,0.2,0.2l-1.1,8.9
					C98.8,41.5,98.7,41.6,98.5,41.6z M93.6,33.9C93.5,33.9,93.5,33.9,93.6,33.9l-0.8,5.9l0.1,0.1h4.2l0.1-0.1l0.7-5.9l-0.1-0.1H93.6
					z"/>
				<path class="st2" d="M104.1,49.1c-1,1.5-2.1,2.8-3.3,3.6c-0.3-0.7-0.6-1.2-0.9-1.5c1-0.8,1.9-1.8,2.7-3.1L104.1,49.1z
					 M118.2,46.7c0,0.4-0.2,0.6-0.6,0.6h-14.1l0.2-1.6h12.7c0.1,0,0.2-0.1,0.2-0.2l0.1-0.9h-15.9l0.2-1.5h15.9l0.1-0.9
					c0-0.1,0-0.1-0.1-0.1h-12.8l0.2-1.6h14.2c0.4,0,0.5,0.2,0.5,0.5l-0.3,2.1h3l-0.2,1.5h-3L118.2,46.7z M102,39.3l0-1.6l4.1-0.1
					l0.1-1.1h-3.7l0.2-1.5h3.7l0.1-0.9h-4.1l0.2-1.5h4.1l0.2-1.4h1.8l-0.2,1.4h3.4l-0.2,1.5h-3.4l-0.1,0.9h2.9l-0.2,1.5H108l-0.1,1
					c1.3-0.1,2.4-0.3,3.1-0.4l0,1.6c-0.7,0.2-1.9,0.3-3.4,0.5l-0.1,0.8h-1.8l0.1-0.7L102,39.3z M113.7,50.8c0.3,0,0.6,0,0.8-0.1
					c0.2-0.1,0.3-0.2,0.4-0.4l0.2-1.4l1.9,0.1c-0.2,1.7-0.4,2.7-0.7,2.9c-0.5,0.5-1.3,0.8-2.3,0.8h-7.3c-0.5,0-0.9-0.1-1.2-0.4
					c-0.6-0.5-0.8-1.3-0.6-2.5l0.3-2.2h1.9l-0.2,1.9c-0.1,0.5-0.1,0.8,0,0.9c0.1,0.2,0.4,0.4,0.9,0.4h3.4c-0.6-0.9-1.1-1.6-1.6-2
					l1.4-1.3c0.6,0.6,1.1,1.3,1.8,2.3l-1.3,1H113.7z M111.8,39l0.2-1.5h4.2l0.1-1H113l0.2-1.5h3.3l0.1-1h-3.7l0.2-1.5h3.7l0.2-1.3
					h1.8l-0.2,1.3h4l-0.2,1.5h-4l-0.1,1h3.3l-0.2,1.5h-3.3l-0.1,1h4.2L122,39h-4.2l-0.1,0.9h-1.8L116,39H111.8z M118.9,47.8
					c0.6,1,1.2,2.3,1.7,4l-1.7,0.8c-0.5-1.6-1.1-2.8-1.6-3.7L118.9,47.8z"/>
				<path class="st2" d="M126.7,52.5h-1.8l1.1-9.1c-0.5,1-0.9,1.9-1.4,2.7l-1.8-0.4c1.7-2.5,2.9-5.2,3.6-8h-2.4l0.2-2h2.6l0.5-4.5
					h1.8l-0.5,4.5h1.7l-0.2,2h-1.7l-0.1,0.5c0.7,1.4,1.4,2.9,2,4.4l-1.8,1l-0.7-1.9L126.7,52.5z M132.8,48.7
					c-1.6,1.7-3.1,2.8-4.4,3.3l-1-1.6c1.6-0.7,3-1.7,4.1-3L132.8,48.7z M129.1,47l0.2-1.9h14.3l-0.2,1.9h-6l-0.4,3.6
					c-0.1,0.9-0.5,1.5-1.2,2c-0.7,0.5-2.1,0.4-4-0.2l0.3-2l1.3,0.5c0.7,0.2,1.2,0.2,1.4,0c0.1-0.1,0.2-0.3,0.3-0.7l0.4-3.1H129.1z
					 M144.2,35c0.2,0,0.3,0.1,0.2,0.2l-0.6,5.3c0,0.2-0.1,0.3-0.3,0.3h-12.6c-0.2,0-0.2-0.1-0.2-0.3l0.6-5.3c0-0.2,0.1-0.2,0.3-0.2
					h3.5l0.2-1.4H131l0.2-1.8h14l-0.2,1.8h-4.2l-0.2,1.4H144.2z M143,41.9l-0.2,1.9h-11.6l0.2-1.9H143z M134.9,36.8H133
					c-0.1,0-0.1,0-0.1,0.1l-0.2,2l0.1,0.1h1.9L134.9,36.8z M138.6,36.8h-1.9l-0.3,2.2h1.9L138.6,36.8z M139,33.6H137l-0.2,1.4h1.9
					L139,33.6z M140.1,47.8c1,0.7,2,1.8,3,3.2l-1.5,1.5c-1.1-1.4-2.1-2.5-2.9-3.1L140.1,47.8z M140.1,39h1.9l0.1-0.1l0.2-2l-0.1-0.1
					h-1.9L140.1,39z"/>
				<path class="st2" d="M144.7,51.9l0-1.7l4.7-0.3l0.2-1.6h-4.1l0.2-1.4h4.1l0.1-1.2h-4.1l0.2-1.4h4.1l0.1-1.1H146l0.2-1.4h4.2
					l0.1-1.2h-4.5l0.2-1.5h5.7l-1.6-1.5c-0.5,0.5-1.1,0.9-1.8,1.2l-0.8-1.3c1.3-0.6,2.3-1.4,3.1-2.4l1.1,1l-0.5,0.5l1.5,1.1l-1,1.3
					h8l0.1-3.3l1.7,0.2l-0.1,3.1h4.9l-0.2,1.5h-4.7c0,2,0.2,3.7,0.3,5c0.3-0.5,0.8-1.8,1.5-3.7l1.6,0.4c-0.7,2.1-1.6,4-2.7,5.6
					l0.5,2c0.2,0.5,0.3,0.8,0.4,0.8c0.1,0,0.2-0.2,0.3-0.5c0.2-0.7,0.3-1.5,0.3-2.5l1.6,0.4c-0.3,1.8-0.6,3.2-1.1,4.1
					c-0.2,0.3-0.5,0.5-0.6,0.6c-0.2,0.1-0.4,0.1-0.6,0.1c-0.4,0-0.8-0.3-1.2-0.8c-0.4-0.7-0.7-1.5-1-2.6c-1.5,1.4-2.8,2.5-3.9,3.2
					l-1.2-1.2l0.4-0.3L144.7,51.9z M149.5,34.1c-0.6,0.7-1.4,1.3-2.3,2c-0.2-0.7-0.5-1.1-0.8-1.5c1.3-0.9,2.5-2.1,3.4-3.6l1.4,1
					l-0.3,0.5h5.7l-0.2,1.6h-2.5l0.5,0.8l-1.3,1l-1.2-1.8H149.5z M153,49.7l1.1-9.2h-1.8l-1.1,9.3L153,49.7z M154.6,38.9l-1-1.1
					c1-0.7,1.8-1.5,2.5-2.5l1.3,0.8l-0.3,0.4l1.9,1.1l-0.9,1.4l-1.9-1.4L154.6,38.9z M160.7,47.5c-0.4-2-0.6-4.3-0.7-7h-4.2
					l-0.1,1.2h3.6l-0.2,1.4h-3.6l-0.1,1.1h3.6l-0.2,1.4h-3.6l-0.1,1.2h3.6l-0.2,1.4h-3.6l-0.2,1.3l3.2-0.2l-0.1,0.7l2.1-1.8
					L160.7,47.5z M158.9,34.1l-0.1,0.1c-0.5,0.6-1.1,1.1-1.7,1.6c-0.3-0.7-0.6-1.1-0.9-1.4c1.1-0.8,2.1-2,2.8-3.4l1.5,0.9l-0.4,0.5
					h7.2l-0.2,1.6H163l0.3,1l-1.5,0.7l-0.6-1.7H158.9z M164.1,35.4c0.6,0.4,1.3,0.9,2,1.7l-1.3,1.4c-0.7-0.7-1.3-1.3-1.9-1.6
					L164.1,35.4z"/>
			</g>
		</g>
		<g>
			<g>
				<g>
					<g>
						<path class="st2" d="M84.3,18.8h0.4c0.8,0,1.5,0,1.3,1.1c-0.2,1-0.9,1-1.7,1H84L84.3,18.8z M81.2,25.6h2.1l0.4-2.8h1.2
							c1.8,0,3-0.9,3.3-2.9s-0.8-2.8-2.5-2.8h-3.2L81.2,25.6z"/>
						<path class="st2" d="M97,17.4L96.4,21l0,0c0.5-0.5,0.9-0.8,1.6-0.8c1.2,0,1.6,0.8,1.4,2l-0.4,3h-1.6l0.4-2.5
							c0.1-0.6,0.1-1.1-0.6-1.1c-0.6,0-0.9,0.6-1,1.1l-0.4,2.5h-1.6l1.2-7.8C95.4,17.4,97,17.4,97,17.4z"/>
						<path class="st2" d="M102.8,21.7c0.7,0,1,0.5,0.9,1.1s-0.5,1.1-1.2,1.1s-1-0.5-0.9-1.1C101.7,22.2,102.1,21.7,102.8,21.7z
							 M103,20.2c-1.5,0-2.9,0.9-3.1,2.6c-0.2,1.6,0.9,2.6,2.4,2.6s2.9-0.9,3.1-2.6C105.6,21.2,104.5,20.2,103,20.2z"/>
						<path class="st2" d="M107.8,21L107.8,21c0.5-0.5,1-0.8,1.6-0.8c0.7,0,1.2,0.3,1.4,0.9c0.4-0.6,1.1-0.9,1.7-0.9
							c1.2,0,1.4,0.8,1.3,1.9l-0.5,3.1h-1.6l0.3-2.3c0.1-0.5,0.2-1.3-0.5-1.3s-0.9,0.7-1,1.3l-0.3,2.3h-1.6l0.3-2.3
							c0.1-0.5,0.2-1.4-0.5-1.4s-0.8,0.8-0.9,1.4l-0.3,2.3h-1.6l0.7-4.8h1.6L107.8,21z"/>
						<path class="st2" d="M115.9,22.1c0.2-0.5,0.6-0.8,1.1-0.8c0.4,0,0.8,0.3,0.8,0.8H115.9z M119.1,22.9c0.2-1.6-0.5-2.7-2.1-2.7
							c-1.5,0-2.7,1-2.9,2.6c-0.2,1.7,0.7,2.6,2.2,2.6c1,0,2.1-0.5,2.6-1.7h-1.5c-0.2,0.3-0.5,0.4-0.8,0.4c-0.7,0-1-0.4-0.8-1.1
							L119.1,22.9L119.1,22.9z"/>
						<g>
							<path class="st2" d="M94.4,19.9l0.4-2.5c-0.4-0.2-0.9-0.3-1.3-0.4l-0.3,2.1C93.7,19.2,94.1,19.5,94.4,19.9z"/>
							<path class="st2" d="M94,22.7c-0.4,0.4-1,0.7-1.5,0.8l-0.3,2.1c0.5,0,0.9-0.2,1.4-0.4L94,22.7z"/>
						</g>
						<path class="st2" d="M92.2,25.5l0.3-2.1c-0.1,0-0.2,0-0.3,0c-1.2,0-1.9-0.9-1.8-2.2c0.2-1.3,1.2-2.3,2.4-2.3
							c0.1,0,0.2,0,0.4,0l0.3-2.1c-0.1,0-0.3,0-0.4,0c-1.1,0-2.2,0.5-3.1,1.3s-1.4,1.9-1.6,3c-0.2,1.2,0,2.3,0.8,3.1
							c0.7,0.8,1.6,1.2,2.7,1.2C91.9,25.6,92.1,25.6,92.2,25.5z"/>
					</g>
					<path class="st2" d="M106.1,17.3c0.3,0,0.5,0.3,0.5,0.6c0,0.3-0.3,0.6-0.6,0.6c-0.3,0-0.5-0.4-0.4-0.6
						C105.5,17.6,105.8,17.3,106.1,17.3z M105.9,18.9c0.5,0,1-0.4,1.1-1c0.1-0.5-0.2-1-0.8-1c-0.5,0-1,0.4-1,1
						C105,18.5,105.3,18.9,105.9,18.9z"/>
					<path class="st2" d="M108.4,17h0.3l0.8,1.3l0,0l0.2-1.2h0.4l-0.3,1.9h-0.3l-0.8-1.3l0,0l-0.2,1.2h-0.4L108.4,17z"/>
					<path class="st2" d="M111.6,18.5h0.5v0.3h-0.9l0.3-1.8h0.4L111.6,18.5z"/>
					<path class="st2" d="M113.8,18.9h-0.4l0.3-1.8h0.4L113.8,18.9z"/>
					<path class="st2" d="M115.5,17h0.3l0.8,1.3l0,0l0.2-1.2h0.4l-0.3,1.9h-0.3l-0.8-1.3l0,0l-0.2,1.2h-0.4L115.5,17z"/>
					<path class="st2" d="M118.9,17.3l-0.1,0.4h0.6V18h-0.6l-0.1,0.5h0.6v0.3h-0.9l0.3-1.8h0.9v0.3
						C119.6,17.3,118.9,17.3,118.9,17.3z"/>
				</g>
				<g>
					<path class="st2" d="M154.6,21.6c-0.1,0.7-0.4,1.4-0.7,2.3l-0.9-0.3c0.4-0.9,0.6-1.7,0.7-2.2L154.6,21.6z M156.2,21h-2.9
						c-0.1,0-0.1,0-0.1-0.1v-7.4c0-0.1,0.1-0.1,0.1-0.1h2.9c0.1,0,0.1,0.1,0.1,0.1v7.4C156.4,20.9,156.3,21,156.2,21z M155.4,15.6
						v-1.3l0,0h-1.1l0,0v1.3H155.4z M155.4,17.8v-1.3h-1.2v1.3H155.4z M154.2,18.7V20l0,0h1.1l0,0v-1.3H154.2z M155.9,21.4
						c0.3,0.5,0.5,1.1,0.7,1.9l-0.9,0.3c-0.2-0.8-0.5-1.4-0.7-1.8L155.9,21.4z M158.3,23.8h-1v-1.6h-0.7v-0.8h0.7v-3.1
						c0-0.1,0.1-0.2,0.2-0.2h2.6v-0.7h-3.3v-0.8h1.8V16h-1.4v-0.8h1.4v-0.6H157v-0.8h1.7V13h1v0.8h2.1V13h1v0.8h1.7v0.8h-1.7v0.6
						h1.4V16h-1.4v0.7h1.9v0.8h-3.4v0.7h2.6c0.2,0,0.2,0.1,0.2,0.2v3.1h0.6v0.8h-0.6v0.6c0,0.4-0.2,0.7-0.5,0.8
						c-0.4,0.2-1.1,0.3-2.1,0.1v-1c0.7,0.2,1.2,0.2,1.4,0.1s0.3-0.2,0.3-0.4v-0.3h-4.6v1.6H158.3z M160.1,19h-1.7c0,0-0.1,0-0.1,0.1
						v0.8h1.8V19z M160.1,21.4v-0.8h-1.8v0.8H160.1z M161.7,14.6h-2.1v0.6h2.1V14.6z M161.7,16.7V16h-2.1v0.7H161.7z M161.1,19.8
						h1.9V19c0,0,0-0.1-0.1-0.1h-1.8L161.1,19.8L161.1,19.8z M163,21.4v-0.8h-1.9v0.8H163z"/>
					<path class="st2" d="M167.7,16.2h-0.8c-0.2,1-0.3,1.7-0.4,2.1l-1-0.1c0.4-1.2,0.6-2.6,0.6-4.1v-0.6h1V14c0,0.3,0,0.7-0.1,1.2
						h0.7V13h1.1v2.2h1.1v1h-1.1V19c0.4-0.2,0.7-0.4,1-0.6l0.6,0.8c-0.5,0.3-1,0.6-1.6,0.8v3.8h-1.1v-3.3c-0.5,0.2-1.1,0.4-1.7,0.7
						l-0.6-0.9c0.9-0.3,1.7-0.6,2.2-0.8v-3.3H167.7z M173.4,15.4c-0.1,0.5-0.1,0.9-0.2,1.4c-0.4,1.6-1.4,3.2-3,4.8l-0.9-0.5
						c1.2-1.1,2-2.2,2.5-3.1c0.3-0.6,0.5-1.5,0.7-2.6h-0.9c-0.4,1-0.8,1.8-1.2,2.5l-1-0.4c1-1.4,1.5-2.9,1.7-4.5l1,0.1
						c-0.1,0.4-0.2,0.8-0.3,1.2h4.8c0.1,0,0.2,0,0.2,0c0.1,0.1,0.2,0.2,0.2,0.5c0,1.7,0,3.3-0.1,4.6c-0.1,2.2-0.5,3.6-1.3,4.1
						c-0.5,0.3-1.4,0.3-2.7-0.1v-1.2c1.2,0.4,1.9,0.5,2.2,0.2c0.2-0.2,0.4-0.5,0.6-0.9c0.2-0.5,0.2-1.3,0.3-2.4
						c0.1-2.5,0.1-3.8,0-3.9c0-0.1-0.1-0.1-0.1-0.1h-0.5c0,1.6-0.4,3.2-1.1,4.8c-0.7,1.3-1.7,2.5-3.1,3.4l-0.8-0.7
						c2.6-1.4,3.9-3.9,4-7.4h-1V15.4z"/>
				</g>
				<g>
					<g>
						<polygon class="st2" points="151.9,21.3 141,21.3 141.2,20.7 152.1,20.7 						"/>
						<polygon class="st2" points="151.6,22.5 140.7,22.5 140.9,21.9 151.8,21.9 						"/>
						<polygon class="st2" points="151.3,23.7 140.4,23.7 140.5,23.1 151.4,23.1 						"/>
					</g>
					<path class="st2" d="M128.4,15.3c0.1-0.2,0-0.4,0-0.5c-0.1-0.1-0.2-0.1-0.4-0.1c-0.2,0-0.4,0-0.5,0.1s-0.2,0.2-0.3,0.5
						l-0.4,1.6h-3.7l0.2-0.7c0.3-1.1,0.9-1.9,1.7-2.4c0.8-0.5,2-0.7,3.6-0.7c1.5,0,2.5,0.2,3.1,0.7s0.8,1.2,0.5,2.1
						c-0.3,1.1-1.6,2.5-3.8,4.3c-0.4,0.3-0.8,0.6-1,0.8c-0.8,0.6-1.6,1.3-1.9,1.7c-0.3,0.3-0.4,0.6-0.4,0.6h5.1l-0.6,2.1h-8.8l0.5-2
						c0.1-0.5,0.4-1,0.8-1.5s1.1-1.1,2.2-2c0.2-0.2,0.6-0.4,1-0.8c1.8-1.4,2.7-2.3,2.9-2.9L128.4,15.3z"/>
					<polygon class="st2" points="134.4,25.4 135.2,22.5 129.8,22.5 130.3,20.7 135.7,13.3 140.7,13.3 138.9,20.1 135.9,20.1 
						137.5,15.2 137.2,15.2 133.6,20.7 140.5,20.7 140.1,22.5 138.3,22.5 137.5,25.4 					"/>
					<path class="st2" d="M141.4,20.1l1.8-6.8h3.3l-0.9,3.2h0.1c0.3-0.3,0.7-0.6,1.1-0.8c0.4-0.2,0.9-0.2,1.4-0.2
						c0.7,0,1.2,0.1,1.5,0.4s0.4,0.7,0.2,1.2l-0.8,2.9h-3.3l0.6-2.2c0.1-0.2,0.1-0.4,0-0.5s-0.2-0.1-0.4-0.1s-0.4,0-0.5,0.1
						s-0.2,0.2-0.3,0.4l-0.6,2.2h-3.2V20.1z"/>
				</g>
			</g>
		</g>
	</g>
</g>
<linearGradient id="SVGID_1_" gradientUnits="userSpaceOnUse" x1="19.4409" y1="48.6454" x2="72.4409" y2="-12.3546" gradientTransform="matrix(1 0 0 -1 0 66)">
	<stop  offset="0" style="stop-color:#EF0000"/>
	<stop  offset="1" style="stop-color:#A00000"/>
</linearGradient>
<rect x="0.1" class="st3" width="65" height="65"/>
<g>
	<g>
		<path class="st4" d="M16.2,51.2c-0.1,0-0.3,0-0.4,0c-1.3-0.2-2.1-1.4-1.9-2.7L17,28.9c0.2-1.3,1.4-2.1,2.7-1.9
			c1.3,0.2,2.1,1.4,1.9,2.7l-3.1,19.6C18.3,50.4,17.4,51.2,16.2,51.2z"/>
	</g>
	<g>
		<path class="st4" d="M23.5,46.1c-1.3,0-2.3-1-2.3-2.3s1-2.3,2.3-2.3c5,0,9-4,9-9s-4-9-9-9c-2,0-3.9,0.6-5.4,1.8
			c-1,0.8-2.5,0.6-3.2-0.4c-0.8-1-0.6-2.5,0.4-3.2c2.4-1.8,5.2-2.8,8.2-2.8c7.5,0,13.6,6.1,13.6,13.6S31,46.1,23.5,46.1z"/>
	</g>
	<g>
		<path class="st4" d="M40.1,56.2c-0.7,0-1.5-0.4-1.9-1c-0.7-1.1-0.5-2.5,0.6-3.2c6.4-4.4,10.3-11.7,10.3-19.4s-3.8-15-10.2-19.4
			c-1.1-0.7-1.3-2.2-0.6-3.2c0.7-1.1,2.2-1.3,3.2-0.6c7.6,5.3,12.2,14,12.2,23.2c0,9.3-4.6,18-12.3,23.3C41,56,40.6,56.2,40.1,56.2z
			"/>
	</g>
	<g>
		<path class="st4" d="M33.8,50.9c-0.8,0-1.6-0.4-2-1.1c-0.6-1.1-0.3-2.5,0.8-3.2c5-2.9,8.1-8.3,8.1-14.1c0-5.7-3.1-11.1-8.1-14
			c-1.1-0.6-1.5-2.1-0.8-3.2c0.6-1.1,2.1-1.5,3.2-0.8c6.4,3.8,10.3,10.7,10.3,18c0,7.4-4,14.3-10.4,18.1
			C34.6,50.8,34.2,50.9,33.8,50.9z"/>
	</g>
</g>
</svg>
