<?xml version="1.0" encoding="utf-8"?>
<!-- Generator: Adobe Illustrator 22.0.1, SVG Export Plug-In . SVG Version: 6.00 Build 0)  -->
<svg version="1.1" id="Layer_1" xmlns="http://www.w3.org/2000/svg" xmlns:xlink="http://www.w3.org/1999/xlink" x="0px" y="0px"
	 viewBox="0 0 339 50" style="enable-background:new 0 0 339 50;" xml:space="preserve">
<style type="text/css">
	.st0{fill:#D71921;}
</style>
<g>
	<path class="st0" d="M85.9,1.6H68.2c-7.9,0-14.3,6.4-14.3,14.3v19.2c0,7.9,6.4,14.3,14.3,14.3h17.7c7.9,0,14.3-6.4,14.3-14.3V15.9
		C100.2,8,93.8,1.6,85.9,1.6 M65.7,15.9c0-1.4,1.1-2.5,2.5-2.5h17.7c1.4,0,2.5,1.1,2.5,2.5v19.2c0,1.4-1.1,2.5-2.5,2.5H68.2
		c-1.4,0-2.5-1.1-2.5-2.5V15.9z"/>
	<path class="st0" d="M38.5,26.1c-1.8-1.9-4.3-3.2-7.4-3.8V22c2.2-1,3.9-2.4,5.2-4.1c1.2-1.8,1.8-3.8,1.8-6.1c0-2-0.4-3.8-1.3-5.3
		c-0.9-1.6-2.2-2.8-4.1-3.7c-1.8-0.9-3.5-1.4-5.3-1.7c-1.8-0.3-4.6-0.4-8.5-0.4H8.2H5H4.6C2.3,0.7,0.3,2.6,0.3,5v6.1v27.5v5.5
		c0,2.4,1.9,4.3,4.3,4.3h16.6c3.5,0,6.3-0.3,8.6-0.9c2.3-0.6,4.3-1.6,6.2-3c1.6-1.2,2.9-2.7,3.8-4.5c0.9-1.8,1.4-3.9,1.4-6.2
		C41.2,30.6,40.3,28,38.5,26.1 M12.6,9.4h1.2c2.4,0,4.3,0,5.6,0c1.3,0,2.5,0.2,3.4,0.6c1,0.4,1.7,1,2.1,1.8c0.4,0.8,0.6,1.6,0.6,2.4
		c0,1-0.2,1.9-0.5,2.7c-0.3,0.8-1.1,1.4-2.2,1.9c-0.8,0.4-1.9,0.6-3.2,0.6c-1.4,0.1-3,0.1-5,0.1h-1.9V9.4z M27.7,36.7
		c-0.5,0.9-1.4,1.6-2.6,2.1c-1.3,0.5-2.6,0.8-4.1,0.8c-1.5,0-4,0-7.4,0h-0.9V27.8h2.7c1.8,0,3.6,0,5.3,0c1.7,0,3,0.2,4,0.4
		c1.4,0.4,2.4,1,3,1.8c0.6,0.8,0.9,2,0.9,3.5C28.4,34.8,28.2,35.8,27.7,36.7"/>
	<path class="st0" d="M216.5,0.7h-7.6c-1.7,0-3.2,1.1-3.8,2.6l-9.3,20.6l-9.3-20.6c-0.6-1.5-2-2.6-3.8-2.6h-7.6
		c-2.4,0-4.3,1.9-4.3,4.3v39.2c0,2.4,1.9,4.3,4.3,4.3h3.5c2.4,0,4.3-1.9,4.3-4.3V17.2l5.4,12.7c0,0,0,0,0,0l2,4.7c0,0,0,0,0,0
		c0.6,1.6,2,2.7,3.8,2.7h3.3c1.7,0,3.2-1.1,3.8-2.7c0,0,0,0,0,0l7.4-17.4v26.9c0,2.4,1.9,4.3,4.3,4.3h3.5c2.4,0,4.3-1.9,4.3-4.3V5
		C220.8,2.6,218.9,0.7,216.5,0.7"/>
	<path class="st0" d="M280.7,44.3L266.8,5.1c-0.8-2.4-3.4-4.4-5.8-4.4h-6.6c-2.4,0-4.9,1.9-5.8,4.3l-13.9,39.2
		c-0.8,2.4,0.4,4.3,2.7,4.3h3.5c2.4,0,4.9-1.9,5.8-4.3l1.9-5.4h18.1l2,5.5c0.8,2.4,3.4,4.2,5.8,4.2h3.5
		C280.3,48.4,281.5,46.6,280.7,44.3 M251.7,29.9l5.9-16.7l5.9,16.7H251.7z"/>
	<path class="st0" d="M334.4,0.7h-3.5c-2.4,0-4.3,1.9-4.3,4.3v23.4c0,0-11.8-18.7-15.5-24.7c-1.1-1.8-2.7-3-4.9-3h-8.3
		c-2.4,0-4.3,1.9-4.3,4.3v39.2c0,2.4,1.9,4.3,4.3,4.3h3.5c2.4,0,4.3-1.9,4.3-4.3V15.7c0,0,16.4,26.4,18.4,29.6
		c1.1,1.8,2.2,3.1,4.1,3.1h6.2c2.4,0,4.3-1.9,4.3-4.3V5C338.7,2.6,336.7,0.7,334.4,0.7"/>
	<path class="st0" d="M112.9,48.1c-0.8,0-1.3-0.3-1.6-0.7c-0.3-0.6-0.1-1.6,0.7-2.7c2-2.7,8.2-11.4,14.4-20c6.1-8.4,13-18,14.3-19.8
		c1.8-2.6,3.9-3.8,6.5-3.8l7.4,0c0.8,0,1.3,0.3,1.6,0.7c0.3,0.6,0.1,1.6-0.7,2.7c-1.9,2.7-8.1,11.2-14.2,19.7l-0.6,0.9
		c-6.5,9-12.6,17.4-13.9,19.2c-1.8,2.6-3.9,3.8-6.5,3.8l-2.3,0H112.9z"/>
	<path class="st0" d="M115.7,1c-0.8,0-1.3,0.3-1.6,0.7c-0.3,0.6-0.1,1.6,0.7,2.7c2,2.7,8.2,11.4,14.4,20c6.1,8.4,13,18,14.3,19.8
		c1.8,2.6,3.9,3.8,6.5,3.8l7.4,0c0.8,0,1.3-0.3,1.6-0.7c0.3-0.6,0.1-1.6-0.7-2.7c-1.9-2.7-8.1-11.2-14.2-19.7l-0.6-0.9
		c-6.5-9-12.6-17.4-13.9-19.2C127.7,2.2,125.6,1,123,1l-2.3,0H115.7z"/>
</g>
</svg>
