<?xml version="1.0" encoding="utf-8"?>
<!-- Generator: Adobe Illustrator 20.0.0, SVG Export Plug-In . SVG Version: 6.00 Build 0)  -->
<svg version="1.1" id="圖層_1" xmlns="http://www.w3.org/2000/svg" xmlns:xlink="http://www.w3.org/1999/xlink" x="0px" y="0px"
	 viewBox="0 0 462.9 109" style="enable-background:new 0 0 462.9 109;" xml:space="preserve">
<style type="text/css">
	.st0{display:none;}
	.st1{display:inline;}
	.st2{fill:#FFFFFF;}
	.st3{font-family:'AdobeMingStd-Light-B5pc-H';}
	.st4{font-size:21.6717px;}
	.st5{font-family:'MicrosoftSansSerif';}
	.st6{fill:#9D9D9E;}
	.st7{font-family:'Avenir-MediumOblique';}
	.st8{font-size:32.9138px;}
	.st9{font-family:'NewGothic-Bold';}
	.st10{font-size:29.3994px;}
	.st11{display:inline;fill:none;stroke:#FFFFFF;stroke-width:2;stroke-linecap:round;stroke-miterlimit:10;}
	.st12{display:inline;fill:none;stroke:#FFFFFF;stroke-width:0.75;stroke-linecap:round;stroke-miterlimit:10;}
	.st13{display:inline;fill:none;stroke:#F6B42C;stroke-width:2;stroke-linecap:round;stroke-miterlimit:10;}
	.st14{fill:#D6000F;}
	.st15{font-family:'Arial-ItalicMT';}
	.st16{font-size:109.8763px;}
	.st17{letter-spacing:-1;}
	.st18{font-size:31.4857px;}
	.st19{fill:none;stroke:#D6000F;stroke-width:2;stroke-linecap:round;stroke-miterlimit:10;}
	.st20{fill:none;stroke:#D6000F;stroke-width:0.75;stroke-linecap:round;stroke-miterlimit:10;}
	.st21{fill:none;stroke:#F6B42C;stroke-width:2;stroke-linecap:round;stroke-miterlimit:10;}
	.st22{enable-background:new    ;}
</style>
<g id="圖層_1_1_">
	<g class="st0">
		<g class="st1">
			<text transform="matrix(1 0 0 1 299.2076 62.0831)" class="st2 st3 st4">如何獲得</text>
			<text transform="matrix(1 0 0 1 393.9076 62.9814)" class="st2 st5 st4">?</text>
		</g>
		<g class="st1">
			<g>
				<g>
					<g>
						<text transform="matrix(1 0 0 1 191.4147 67.52)" class="st6 st7 st8">Fa</text>
						<text transform="matrix(1 0 0 1 224.1147 67.52)" class="st6 st7 st8">stag</text>
						<text transform="matrix(1 0 0 1 191.4147 67.52)" class="st2 st7 st8">Fa</text>
						<text transform="matrix(1 0 0 1 224.1147 67.52)" class="st2 st7 st8">stag</text>
					</g>
					<g>
						<text transform="matrix(0.95 0 -0.1187 0.9929 72.2677 65.8793)" class="st6 st9 st10">智慧標籤</text>
						<text transform="matrix(0.95 0 -0.1187 0.9929 72.2677 65.8793)" class="st2 st9 st10">智慧標籤</text>
					</g>
				</g>
			</g>
		</g>
		<path class="st11" d="M66.2,81.3c-14.7,0-26.8-12-26.8-26.8l0,0c0-14.7,12-26.8,26.8-26.8h279.7"/>
		<path class="st12" d="M66.5,77.4c-12.5,0-22.7-10.2-22.7-22.7l0,0C43.8,42.2,54,32,66.5,32h237"/>
		<line class="st13" x1="298.4" y1="81.3" x2="71" y2="81.3"/>
		<path class="st11" d="M397.2,27.7c14.7,0,26.8,12,26.8,26.8l0,0c0,14.7-12,26.8-26.8,26.8h-93.8"/>
		<path class="st12" d="M396.6,31.6c12.6,0,22.9,10.3,22.9,22.9l0,0c0,12.6-10.3,22.9-22.9,22.9h-78.7"/>
		<line class="st13" x1="351.7" y1="27.7" x2="392.2" y2="27.7"/>
	</g>
</g>
<g id="圖層_2" class="st0">
	<g class="st1">
		<g>
			<text transform="matrix(0.9913 0 0 1 43.2495 89.0664)" class="st14 st15 st16 st17">1</text>
		</g>
		<g>
			<g>
				<g>
					<g>
						<text transform="matrix(0.9559 0 -0.1195 0.9928 170.2324 69.0715)" class="st6 st9 st18">限時首購優惠</text>
						<g>
							<text transform="matrix(0.9559 0 -0.1195 0.9928 170.2324 69.0715)" class="st14 st9 st18">限時首購優惠</text>
						</g>
					</g>
				</g>
			</g>
			<path class="st19" d="M141.3,82.2c-14.7,0-26.8-12-26.8-26.8l0,0c0-14.7,12-26.8,26.8-26.8h149.8"/>
			<path class="st20" d="M141.6,78.4c-12.5,0-22.7-10.2-22.7-22.7l0,0c0-12.5,10.2-22.7,22.7-22.7h107.1"/>
			<line class="st21" x1="291.1" y1="82.2" x2="146.2" y2="82.2"/>
			<path class="st19" d="M390,28.7c14.7,0,26.8,12,26.8,26.8l0,0c0,14.7-12,26.8-26.8,26.8h-93.8"/>
			<path class="st20" d="M389.3,32.5c12.6,0,22.9,10.3,22.9,22.9l0,0c0,12.6-10.3,22.9-22.9,22.9h-78.7"/>
			<line class="st21" x1="296.9" y1="28.7" x2="385" y2="28.7"/>
		</g>
	</g>
</g>
<g id="圖層_3" class="st0">
	<g class="st1">
		<g>
			<text transform="matrix(0.9913 0 0 1 43.7183 85.9468)" class="st14 st15 st16 st17">2</text>
		</g>
		<g>
			<g>
				<g>
					<g>
						<text transform="matrix(0.9559 0 -0.1195 0.9928 156.7019 69.6174)" class="st6 st9 st18">銀行狂慶加碼送</text>
						<g>
							<text transform="matrix(0.9559 0 -0.1195 0.9928 156.7019 69.6174)" class="st14 st9 st18">銀行狂慶加碼送</text>
						</g>
					</g>
				</g>
			</g>
			<path class="st19" d="M141.8,82.8c-14.7,0-26.8-12-26.8-26.8l0,0c0-14.7,12-26.8,26.8-26.8h149.8"/>
			<path class="st20" d="M142.1,78.9c-12.5,0-22.7-10.2-22.7-22.7l0,0c0-12.5,10.2-22.7,22.7-22.7h107.1"/>
			<line class="st21" x1="291.6" y1="82.8" x2="146.7" y2="82.8"/>
			<path class="st19" d="M390.4,29.2c14.7,0,26.8,12,26.8,26.8l0,0c0,14.7-12,26.8-26.8,26.8h-93.8"/>
			<path class="st20" d="M389.8,33.1c12.6,0,22.9,10.3,22.9,22.9l0,0c0,12.6-10.3,22.9-22.9,22.9h-78.7"/>
			<line class="st21" x1="297.4" y1="29.2" x2="385.4" y2="29.2"/>
		</g>
	</g>
</g>
<g id="圖層_4">
	<g>
		<g>
			<g class="st22">
				<path class="st14" d="M2.2,63.1l9.4-1.2c0.7,5.5,2.3,9.5,4.7,11.8c2.4,2.4,5.6,3.6,9.5,3.6c4.8,0,8.9-1.7,12.3-5.2
					s5.2-7.4,5.2-11.8c0-3.9-1.3-7.1-3.9-9.6C36.9,48.3,33.4,47,29,47c-0.5,0-1.5,0.1-3.1,0.2l1.6-8.1c0.9,0.1,1.8,0.2,2.7,0.2
					c5.5,0,9.7-1.3,12.7-4.1c3-2.7,4.4-6,4.4-10c0-3.6-1.2-6.7-3.6-9.1c-2.4-2.5-5.4-3.7-8.9-3.7c-3.4,0-6.5,1.3-9.3,3.8
					c-2.7,2.5-4.5,6.1-5.3,10.7l-9.5-1.9c1.6-6.5,4.6-11.5,9-15c4.4-3.5,9.7-5.3,15.7-5.3c6.4,0,11.5,1.9,15.5,5.8
					C55,14.5,57,19.3,57,25c0,4.1-1.1,7.8-3.2,10.9c-2.1,3.1-5.4,5.7-9.7,7.7c3,1.8,5.3,4,6.8,6.6c1.5,2.6,2.3,5.5,2.3,8.9
					c0,7-2.6,13.2-7.8,18.3c-5.2,5.2-11.5,7.8-18.7,7.8c-7.1,0-12.8-2-17.1-6C5.2,75.1,2.7,69.8,2.2,63.1z"/>
			</g>
		</g>
		<g>
			<g>
				<g>
					<g>
						<g class="st22">
							<path class="st6" d="M116,69.1h-2.6l0.9-7.5h-3l0.3-2.7h3l1.4-11.3c0-0.4,0.3-0.7,0.7-0.7h9.1l0.3-2.8H114l0.3-2.5h26.5
								l-0.3,2.5h-11.8l-0.3,2.8h9c0.4,0,0.6,0.2,0.6,0.7l-1.4,11.3h2.8l-0.3,2.7h-2.8l-0.6,4.7c-0.1,1.1-0.6,1.9-1.5,2.5
								c-1.5,1-4,1-7.6,0l0.4-2.9c2.8,0.9,4.6,1.1,5.5,0.6c0.5-0.3,0.8-0.7,0.8-1.2l0.4-3.6h-16.8L116,69.1z M124.4,58.9l0.4-3.4
								h-7.2l-0.4,3.4H124.4z M125.5,49.6h-7c-0.1,0-0.2,0.1-0.2,0.2l-0.4,3.2h7.2L125.5,49.6z M134,58.9l0.4-3.4h-7.1l-0.4,3.4H134
								z M127.7,53h7.1l0.4-3.2c0-0.1-0.1-0.2-0.2-0.2h-6.8L127.7,53z"/>
							<path class="st6" d="M160.3,66.1c-0.3,0.9-0.7,1.6-1.3,2.1c-2.9,2.1-6.8,2.1-11.9,0.2l0.3-2.9c1.8,0.8,3.4,1.2,4.8,1.5
								c2.4,0.3,4.1,0,5.1-1c0.2-0.2,0.4-0.5,0.5-0.9c0.1-0.6,0-1.2-0.6-2h-14.6l0.3-2.5h11.3l-0.7-0.4l1.7-2.3l1.1,0.7l5.2-1.9
								h-15.9l0.3-2.4h20.9l0,2.5c-2.1,1.1-4.9,2.2-8.6,3.4l0.4,0.4h11.1l-0.3,2.5h-9C160.6,64.2,160.6,65.2,160.3,66.1z
								 M157.5,40.5h2.7l-0.2,1.9H172l-0.3,2.4h-26.8l0.3-2.4h12.1L157.5,40.5z M167.7,52.8h-20.8c-0.2,0-0.3-0.1-0.3-0.4l0.7-5.7
								c0-0.2,0.1-0.3,0.4-0.3h20.8c0.2,0,0.3,0.1,0.3,0.3l-0.7,5.7C168,52.7,167.9,52.8,167.7,52.8z M149.7,48.7
								c-0.1,0-0.1,0-0.1,0.1l-0.2,1.6c0,0.1,0,0.1,0.1,0.2h16.2l0.1-0.2l0.2-1.6c0-0.1,0-0.1-0.1-0.1H149.7z"/>
							<path class="st6" d="M175.8,45.6l0.3-2.3h7.2l-0.8-1.3l2.2-1.5c0.5,0.7,1.1,1.6,1.5,2.8h6.6c1.1-1.1,1.9-2.1,2.5-2.9L197,42
								l-1,1.3h6.8l-0.3,2.3h-9.4l-0.2,1.8h7.4c0.2,0,0.3,0.1,0.3,0.3l-1.6,13c0,0.2-0.2,0.3-0.4,0.3h-2.6l-0.2,1.4h4.8l-0.3,2.3
								h-4.8l-0.2,2c-0.2,1.2-0.7,2-1.6,2.6c-1.2,0.8-3.3,0.7-6.3-0.2l0.3-2.6l2.3,0.6l1.5,0.2c0.3,0,0.7-0.1,1.1-0.4
								c0.2-0.2,0.3-0.4,0.4-0.8l0.2-1.3h-20l0.3-2.3h20l0.2-1.4H176c-0.2,0-0.3-0.1-0.3-0.3l1.6-13c0-0.2,0.1-0.3,0.3-0.3h7.4
								l0.2-1.8H175.8z M178.5,57.1l-0.2,1.7l0.1,0.1h18.4l0.1-0.1l0.2-1.7H178.5z M180.6,65c0.8,1,1.5,2,2.2,3.1l-2.2,1.5
								c-0.7-1.2-1.4-2.1-2.1-3L180.6,65z M184.8,49.6h-5.3c-0.1,0-0.1,0-0.1,0.1l-0.6,5.4h18.6l0.2-1.5h-6.7c-0.7,0-1-0.4-0.9-1.1
								l0.3-2.9H187c-0.1,0.5-0.2,1-0.5,1.6c-0.8,1.5-2.7,2.5-5.8,3l-0.4-2.4c2.2-0.1,3.6-0.6,4.2-1.4L184.8,49.6z M187.3,47.4h3.3
								l0.2-1.8h-3.3L187.3,47.4z M197.8,51.5l0.2-1.8l-0.1-0.1h-5.3l-0.2,1.3c0,0.4,0.1,0.6,0.5,0.6H197.8z"/>
							<path class="st6" d="M219.9,57.9h8.3l-0.3,2.4h-7.6c3,2.6,6.8,4.4,11.4,5.6l-1.7,2.3c-4.5-1.5-8-3.4-10.7-5.7l-0.9,7.2H216
								l0.9-7.4c-4.4,3-8.4,4.9-12,5.8l-0.9-2.4c4.1-1,8.1-2.8,12-5.4h-6.9l0.3-2.4h8l0.3-2.6h-9.3c-0.2,0-0.2,0.1-0.3,0.2l-0.5,4.2
								h-2.4l0.8-6.4c0-0.3,0.2-0.5,0.5-0.5h25l2,1.1c-0.4,1.6-1.1,3.6-2.2,6l-2.2-0.9l1.4-3.4c0-0.2-0.1-0.4-0.2-0.4h-10
								L219.9,57.9z M207.5,52.3l-1.1-2.1c1-0.3,1.9-0.7,2.7-1.2c2.1-1.3,3.4-3,3.7-5.2l0.4-3.2h2.2l-0.4,3.2
								c-0.1,0.7-0.4,1.5-0.8,2.6c1.3,0.9,2.8,2.1,4.3,3.6l-1.6,2c-1.5-1.5-2.8-2.6-3.9-3.4C211.7,50.1,209.9,51.3,207.5,52.3z
								 M209.3,41.5c0.7,1.1,1.5,2.6,2.2,4.4l-2.1,1.2c-0.8-1.9-1.5-3.3-2.1-4.3L209.3,41.5z M220.4,42.4c-0.7,1.2-1.8,2.6-3.1,4.2
								l-1.7-1.3c1.4-1.6,2.4-3,3.1-4.1L220.4,42.4z M232.9,50.5l-1.5,2.1c-2.1-1.7-3.9-2.9-5.5-3.8c-1.3,1.4-3,2.5-5.1,3.4l-1-2.1
								c1-0.3,1.8-0.6,2.6-1.1c2-1.2,3.2-2.8,3.6-4.8l0.4-3.7h2.2l-0.4,3.7c-0.1,0.7-0.4,1.5-0.8,2.4
								C229.1,47.6,230.9,48.9,232.9,50.5z M222.5,41.5c0.7,1,1.3,2.4,1.8,4.1l-2.1,1.1c-0.6-1.7-1.2-3.1-1.8-4L222.5,41.5z
								 M233.7,42.7c-0.8,1.2-1.8,2.4-3.2,3.8l-1.6-1.4c1.4-1.5,2.4-2.7,3-3.7L233.7,42.7z"/>
						</g>
						<g class="st22">
							<path class="st6" d="M238,69.2l2.7-22.4h8.1c1.4,0,2.5,0.1,3.3,0.2c1,0.2,1.9,0.5,2.5,1c0.7,0.5,1.1,1.2,1.5,2.2
								c0.3,0.9,0.4,1.9,0.3,3.1c-0.2,1.9-1,3.5-2.3,4.8c-1.3,1.3-3.5,2-6.6,2h-5.5l-1.1,9.1H238z M242.2,57.4h5.6
								c1.8,0,3.2-0.4,4.1-1.1c0.9-0.7,1.4-1.7,1.5-3c0.1-0.9,0-1.7-0.4-2.4c-0.4-0.7-0.9-1.1-1.6-1.3c-0.5-0.1-1.3-0.2-2.6-0.2
								h-5.5L242.2,57.4z"/>
							<path class="st6" d="M258.6,69.2l2-16.2h2.4l-0.3,2.5c0.7-1.1,1.4-1.9,2-2.3c0.6-0.4,1.1-0.5,1.8-0.5c0.9,0,1.8,0.3,2.6,0.9
								l-1.2,2.5c-0.6-0.4-1.2-0.6-1.9-0.6c-0.6,0-1.1,0.2-1.6,0.5c-0.5,0.4-0.9,0.9-1.2,1.5c-0.4,1-0.7,2-0.8,3.2l-1,8.5H258.6z"/>
							<path class="st6" d="M269.6,69.2l2-16.2h2.6l-2,16.2H269.6z M271.9,49.9l0.4-3.2h2.6l-0.4,3.2H271.9z"/>
							<path class="st6" d="M277.2,69.2l2-16.2h2.4l-0.3,2.3c0.6-0.8,1.3-1.4,2.2-1.9c0.9-0.5,1.8-0.7,2.9-0.7
								c1.2,0,2.1,0.2,2.8,0.7c0.7,0.5,1.1,1.2,1.3,2.1c1.5-1.9,3.2-2.8,5.2-2.8c1.5,0,2.7,0.4,3.4,1.3c0.7,0.9,1,2.3,0.8,4.1
								l-1.3,11.1h-2.6l1.2-10.2c0.1-1.1,0.1-1.9,0-2.4c-0.1-0.5-0.4-0.9-0.8-1.2c-0.4-0.3-0.9-0.4-1.5-0.4c-1.1,0-2.1,0.4-2.9,1.1
								c-0.8,0.8-1.3,2-1.5,3.6l-1.1,9.4h-2.6l1.3-10.5c0.1-1.2,0-2.1-0.3-2.7c-0.4-0.6-1-0.9-2-0.9c-0.7,0-1.5,0.2-2.1,0.6
								s-1.2,1-1.6,1.8c-0.4,0.8-0.7,1.9-0.8,3.4l-1,8.4H277.2z"/>
							<path class="st6" d="M314.5,63.9l2.7,0.4c-0.6,1.7-1.6,2.9-2.9,3.9c-1.3,0.9-2.8,1.4-4.6,1.4c-2.3,0-4-0.7-5.2-2.2
								c-1.2-1.5-1.6-3.5-1.3-6.1c0.3-2.7,1.3-4.8,2.8-6.3c1.5-1.5,3.4-2.3,5.5-2.3c2.1,0,3.7,0.7,4.8,2.2c1.1,1.5,1.6,3.6,1.2,6.2
								c0,0.2-0.1,0.4-0.1,0.7h-11.6c-0.1,1.8,0.2,3.1,1,4.1c0.8,0.9,1.8,1.4,3.1,1.4c1,0,1.8-0.3,2.6-0.8
								C313.3,65.9,314,65.1,314.5,63.9z M306.4,59.5h8.7c0-1.4-0.2-2.4-0.6-3.1c-0.7-1.1-1.7-1.6-3.1-1.6c-1.2,0-2.3,0.4-3.2,1.3
								C307.2,57,306.6,58.1,306.4,59.5z"/>
						</g>
						<g class="st22">
							<path class="st6" d="M344.7,47.8h-10.4l0.2-2c-2.4,0.8-5.2,1.6-8.4,2.3l-0.6-2.5c6.9-1,11.7-2.7,14.4-5l2.1,0.9l-0.2,0.2
								c3.5,2,7.5,3.3,12,3.8l-1.2,2.5c-2.3-0.5-4.8-1.3-7.6-2.2L344.7,47.8z M349.4,57.4h-22.6c-0.2,0-0.3-0.1-0.3-0.3l0.9-7.5
								c0-0.2,0.1-0.3,0.3-0.3h22.6c0.2,0,0.3,0.1,0.3,0.3l-0.9,7.5C349.7,57.3,349.6,57.4,349.4,57.4z M346.5,69.4h-19.6
								c-0.2,0-0.3-0.1-0.3-0.4l1.2-9.8c0-0.2,0.1-0.3,0.4-0.3h19.6c0.2,0,0.3,0.1,0.3,0.3l-1.2,9.8
								C346.9,69.3,346.8,69.4,346.5,69.4z M332.8,55.2h4.5l0.5-3.8h-8.2c-0.1,0-0.1,0-0.1,0.1l-0.4,3.6l0.1,0.1H332.8
								c-0.5-1.1-0.9-1.9-1.2-2.4l2.1-1.3c0.4,0.6,0.9,1.5,1.3,2.5L332.8,55.2z M329.6,65.2l-0.2,1.9l0.1,0.1h15l0.1-0.1l0.2-1.9
								H329.6z M345.1,63.1l0.2-1.9c0-0.1,0-0.1-0.1-0.1h-15c-0.1,0-0.1,0-0.1,0.1l-0.2,1.9H345.1z M339.8,43.3
								c-0.8,0.5-2.3,1.3-4.5,2.3h8.8C342.8,44.9,341.3,44.2,339.8,43.3z M344.1,55.2h3.5l0.1-0.1l0.4-3.6l-0.1-0.1h-7.9l-0.5,3.8
								h1.6c1.2-1.5,2-2.7,2.6-3.7l1.9,1.2C345.3,53.5,344.7,54.4,344.1,55.2z"/>
							<path class="st6" d="M364.2,67.8c-3.5,0.9-6.8,1.6-9.8,2l0-2.6c3.1-0.4,6.3-1,9.6-2L364.2,67.8z M379.7,64.9H357
								c-0.2,0-0.3-0.1-0.3-0.4l1.8-14.6c0-0.2,0.2-0.4,0.4-0.4h22.7c0.2,0,0.3,0.1,0.3,0.4l-1.8,14.6
								C380.1,64.8,379.9,64.9,379.7,64.9z M381.2,48.1h-21.6c-0.2,0-0.3-0.1-0.3-0.4l0.7-5.9c0-0.2,0.1-0.3,0.4-0.3H382
								c0.2,0,0.3,0.1,0.3,0.3l-0.7,5.9C381.6,48,381.4,48.1,381.2,48.1z M359.9,60.5l-0.2,2c0,0.1,0,0.1,0.1,0.2h17.8l0.1-0.2
								l0.2-2H359.9z M378.2,58.3l0.3-2.2h-18l-0.3,2.2H378.2z M378.7,53.9l0.2-1.9c0-0.1,0-0.1-0.1-0.1H361c-0.1,0-0.1,0-0.1,0.1
								l-0.2,1.9H378.7z M362.4,43.8c-0.1,0-0.1,0-0.1,0.1l-0.2,1.7c0,0.1,0,0.1,0.1,0.2h17l0.1-0.2l0.2-1.7c0-0.1,0-0.1-0.1-0.1
								H362.4z M373,65.3c3.3,0.5,6.3,1.2,9,2.1l-1,2.5c-2.8-0.9-5.7-1.6-8.8-2L373,65.3z"/>
							<path class="st6" d="M388.7,54.9l-2.2-0.9c3-4.2,4.9-8.5,5.8-13.1l2.4,0.3c-0.6,2.4-1.3,4.5-2,6.4l-2.6,21.9h-2.4l1.9-15.7
								L388.7,54.9z M399.1,67.5c-1.9,0.9-4.3,1.7-7.1,2.3l-0.4-2.5c2.9-0.7,5.2-1.5,6.9-2.2L399.1,67.5z M410.8,64.8H394
								c-0.4,0-0.6-0.2-0.5-0.6l1.3-10.8c0-0.4,0.3-0.6,0.7-0.6h16.9c0.4,0,0.6,0.2,0.5,0.6l-1.3,10.8
								C411.5,64.6,411.2,64.8,410.8,64.8z M414.5,45.4c0.2,0,0.3,0.1,0.3,0.3l-0.7,5.7c0,0.2-0.2,0.3-0.4,0.3h-19.6
								c-0.2,0-0.3-0.1-0.3-0.3l0.7-5.7c0-0.2,0.1-0.3,0.3-0.3h5.7l0.2-1.6h-5.6l0.3-2.2h19.7l-0.3,2.2H409l-0.2,1.6H414.5z
								 M396.2,61.4l-0.1,1.2c0,0.1,0,0.1,0.1,0.2h13l0.1-0.2l0.1-1.2H396.2z M400.3,47.5h-3.6c-0.1,0-0.1,0-0.1,0.1l-0.2,1.8
								l0.1,0.1h3.6L400.3,47.5z M409.6,59.5l0.2-1.5h-13.2l-0.2,1.5H409.6z M410.1,56.1l0.1-1.2c0-0.1,0-0.1-0.1-0.1h-13
								c-0.1,0-0.1,0-0.1,0.1l-0.1,1.2H410.1z M406.2,47.5h-3.6l-0.2,2h3.6L406.2,47.5z M406.7,43.7h-3.6l-0.2,1.6h3.6L406.7,43.7z
								 M406.2,65.1c1.9,0.4,4,1.2,6.5,2.3l-1.2,2.3c-2.5-1.1-4.5-1.8-6-2.2L406.2,65.1z M408.3,49.5h3.6l0.1-0.1l0.2-1.8l-0.1-0.1
								h-3.6L408.3,49.5z"/>
						</g>
						<g>
							<g class="st22">
								<path class="st14" d="M116,69.1h-2.6l0.9-7.5h-3l0.3-2.7h3l1.4-11.3c0-0.4,0.3-0.7,0.7-0.7h9.1l0.3-2.8H114l0.3-2.5h26.5
									l-0.3,2.5h-11.8l-0.3,2.8h9c0.4,0,0.6,0.2,0.6,0.7l-1.4,11.3h2.8l-0.3,2.7h-2.8l-0.6,4.7c-0.1,1.1-0.6,1.9-1.5,2.5
									c-1.5,1-4,1-7.6,0l0.4-2.9c2.8,0.9,4.6,1.1,5.5,0.6c0.5-0.3,0.8-0.7,0.8-1.2l0.4-3.6h-16.8L116,69.1z M124.4,58.9l0.4-3.4
									h-7.2l-0.4,3.4H124.4z M125.5,49.6h-7c-0.1,0-0.2,0.1-0.2,0.2l-0.4,3.2h7.2L125.5,49.6z M134,58.9l0.4-3.4h-7.1l-0.4,3.4
									H134z M127.7,53h7.1l0.4-3.2c0-0.1-0.1-0.2-0.2-0.2h-6.8L127.7,53z"/>
								<path class="st14" d="M160.3,66.1c-0.3,0.9-0.7,1.6-1.3,2.1c-2.9,2.1-6.8,2.1-11.9,0.2l0.3-2.9c1.8,0.8,3.4,1.2,4.8,1.5
									c2.4,0.3,4.1,0,5.1-1c0.2-0.2,0.4-0.5,0.5-0.9c0.1-0.6,0-1.2-0.6-2h-14.6l0.3-2.5h11.3l-0.7-0.4l1.7-2.3l1.1,0.7l5.2-1.9
									h-15.9l0.3-2.4h20.9l0,2.5c-2.1,1.1-4.9,2.2-8.6,3.4l0.4,0.4h11.1l-0.3,2.5h-9C160.6,64.2,160.6,65.2,160.3,66.1z
									 M157.5,40.5h2.7l-0.2,1.9H172l-0.3,2.4h-26.8l0.3-2.4h12.1L157.5,40.5z M167.7,52.8h-20.8c-0.2,0-0.3-0.1-0.3-0.4l0.7-5.7
									c0-0.2,0.1-0.3,0.4-0.3h20.8c0.2,0,0.3,0.1,0.3,0.3l-0.7,5.7C168,52.7,167.9,52.8,167.7,52.8z M149.7,48.7
									c-0.1,0-0.1,0-0.1,0.1l-0.2,1.6c0,0.1,0,0.1,0.1,0.2h16.2l0.1-0.2l0.2-1.6c0-0.1,0-0.1-0.1-0.1H149.7z"/>
								<path class="st14" d="M175.8,45.6l0.3-2.3h7.2l-0.8-1.3l2.2-1.5c0.5,0.7,1.1,1.6,1.5,2.8h6.6c1.1-1.1,1.9-2.1,2.5-2.9
									L197,42l-1,1.3h6.8l-0.3,2.3h-9.4l-0.2,1.8h7.4c0.2,0,0.3,0.1,0.3,0.3l-1.6,13c0,0.2-0.2,0.3-0.4,0.3h-2.6l-0.2,1.4h4.8
									l-0.3,2.3h-4.8l-0.2,2c-0.2,1.2-0.7,2-1.6,2.6c-1.2,0.8-3.3,0.7-6.3-0.2l0.3-2.6l2.3,0.6l1.5,0.2c0.3,0,0.7-0.1,1.1-0.4
									c0.2-0.2,0.3-0.4,0.4-0.8l0.2-1.3h-20l0.3-2.3h20l0.2-1.4H176c-0.2,0-0.3-0.1-0.3-0.3l1.6-13c0-0.2,0.1-0.3,0.3-0.3h7.4
									l0.2-1.8H175.8z M178.5,57.1l-0.2,1.7l0.1,0.1h18.4l0.1-0.1l0.2-1.7H178.5z M180.6,65c0.8,1,1.5,2,2.2,3.1l-2.2,1.5
									c-0.7-1.2-1.4-2.1-2.1-3L180.6,65z M184.8,49.6h-5.3c-0.1,0-0.1,0-0.1,0.1l-0.6,5.4h18.6l0.2-1.5h-6.7c-0.7,0-1-0.4-0.9-1.1
									l0.3-2.9H187c-0.1,0.5-0.2,1-0.5,1.6c-0.8,1.5-2.7,2.5-5.8,3l-0.4-2.4c2.2-0.1,3.6-0.6,4.2-1.4L184.8,49.6z M187.3,47.4h3.3
									l0.2-1.8h-3.3L187.3,47.4z M197.8,51.5l0.2-1.8l-0.1-0.1h-5.3l-0.2,1.3c0,0.4,0.1,0.6,0.5,0.6H197.8z"/>
								<path class="st14" d="M219.9,57.9h8.3l-0.3,2.4h-7.6c3,2.6,6.8,4.4,11.4,5.6l-1.7,2.3c-4.5-1.5-8-3.4-10.7-5.7l-0.9,7.2H216
									l0.9-7.4c-4.4,3-8.4,4.9-12,5.8l-0.9-2.4c4.1-1,8.1-2.8,12-5.4h-6.9l0.3-2.4h8l0.3-2.6h-9.3c-0.2,0-0.2,0.1-0.3,0.2
									l-0.5,4.2h-2.4l0.8-6.4c0-0.3,0.2-0.5,0.5-0.5h25l2,1.1c-0.4,1.6-1.1,3.6-2.2,6l-2.2-0.9l1.4-3.4c0-0.2-0.1-0.4-0.2-0.4h-10
									L219.9,57.9z M207.5,52.3l-1.1-2.1c1-0.3,1.9-0.7,2.7-1.2c2.1-1.3,3.4-3,3.7-5.2l0.4-3.2h2.2l-0.4,3.2
									c-0.1,0.7-0.4,1.5-0.8,2.6c1.3,0.9,2.8,2.1,4.3,3.6l-1.6,2c-1.5-1.5-2.8-2.6-3.9-3.4C211.7,50.1,209.9,51.3,207.5,52.3z
									 M209.3,41.5c0.7,1.1,1.5,2.6,2.2,4.4l-2.1,1.2c-0.8-1.9-1.5-3.3-2.1-4.3L209.3,41.5z M220.4,42.4c-0.7,1.2-1.8,2.6-3.1,4.2
									l-1.7-1.3c1.4-1.6,2.4-3,3.1-4.1L220.4,42.4z M232.9,50.5l-1.5,2.1c-2.1-1.7-3.9-2.9-5.5-3.8c-1.3,1.4-3,2.5-5.1,3.4l-1-2.1
									c1-0.3,1.8-0.6,2.6-1.1c2-1.2,3.2-2.8,3.6-4.8l0.4-3.7h2.2l-0.4,3.7c-0.1,0.7-0.4,1.5-0.8,2.4
									C229.1,47.6,230.9,48.9,232.9,50.5z M222.5,41.5c0.7,1,1.3,2.4,1.8,4.1l-2.1,1.1c-0.6-1.7-1.2-3.1-1.8-4L222.5,41.5z
									 M233.7,42.7c-0.8,1.2-1.8,2.4-3.2,3.8l-1.6-1.4c1.4-1.5,2.4-2.7,3-3.7L233.7,42.7z"/>
							</g>
							<g class="st22">
								<path class="st14" d="M238,69.2l2.7-22.4h8.1c1.4,0,2.5,0.1,3.3,0.2c1,0.2,1.9,0.5,2.5,1c0.7,0.5,1.1,1.2,1.5,2.2
									c0.3,0.9,0.4,1.9,0.3,3.1c-0.2,1.9-1,3.5-2.3,4.8c-1.3,1.3-3.5,2-6.6,2h-5.5l-1.1,9.1H238z M242.2,57.4h5.6
									c1.8,0,3.2-0.4,4.1-1.1c0.9-0.7,1.4-1.7,1.5-3c0.1-0.9,0-1.7-0.4-2.4c-0.4-0.7-0.9-1.1-1.6-1.3c-0.5-0.1-1.3-0.2-2.6-0.2
									h-5.5L242.2,57.4z"/>
								<path class="st14" d="M258.6,69.2l2-16.2h2.4l-0.3,2.5c0.7-1.1,1.4-1.9,2-2.3c0.6-0.4,1.1-0.5,1.8-0.5
									c0.9,0,1.8,0.3,2.6,0.9l-1.2,2.5c-0.6-0.4-1.2-0.6-1.9-0.6c-0.6,0-1.1,0.2-1.6,0.5c-0.5,0.4-0.9,0.9-1.2,1.5
									c-0.4,1-0.7,2-0.8,3.2l-1,8.5H258.6z"/>
								<path class="st14" d="M269.6,69.2l2-16.2h2.6l-2,16.2H269.6z M271.9,49.9l0.4-3.2h2.6l-0.4,3.2H271.9z"/>
								<path class="st14" d="M277.2,69.2l2-16.2h2.4l-0.3,2.3c0.6-0.8,1.3-1.4,2.2-1.9c0.9-0.5,1.8-0.7,2.9-0.7
									c1.2,0,2.1,0.2,2.8,0.7c0.7,0.5,1.1,1.2,1.3,2.1c1.5-1.9,3.2-2.8,5.2-2.8c1.5,0,2.7,0.4,3.4,1.3c0.7,0.9,1,2.3,0.8,4.1
									l-1.3,11.1h-2.6l1.2-10.2c0.1-1.1,0.1-1.9,0-2.4c-0.1-0.5-0.4-0.9-0.8-1.2c-0.4-0.3-0.9-0.4-1.5-0.4c-1.1,0-2.1,0.4-2.9,1.1
									c-0.8,0.8-1.3,2-1.5,3.6l-1.1,9.4h-2.6l1.3-10.5c0.1-1.2,0-2.1-0.3-2.7c-0.4-0.6-1-0.9-2-0.9c-0.7,0-1.5,0.2-2.1,0.6
									s-1.2,1-1.6,1.8c-0.4,0.8-0.7,1.9-0.8,3.4l-1,8.4H277.2z"/>
								<path class="st14" d="M314.5,63.9l2.7,0.4c-0.6,1.7-1.6,2.9-2.9,3.9c-1.3,0.9-2.8,1.4-4.6,1.4c-2.3,0-4-0.7-5.2-2.2
									c-1.2-1.5-1.6-3.5-1.3-6.1c0.3-2.7,1.3-4.8,2.8-6.3c1.5-1.5,3.4-2.3,5.5-2.3c2.1,0,3.7,0.7,4.8,2.2c1.1,1.5,1.6,3.6,1.2,6.2
									c0,0.2-0.1,0.4-0.1,0.7h-11.6c-0.1,1.8,0.2,3.1,1,4.1c0.8,0.9,1.8,1.4,3.1,1.4c1,0,1.8-0.3,2.6-0.8
									C313.3,65.9,314,65.1,314.5,63.9z M306.4,59.5h8.7c0-1.4-0.2-2.4-0.6-3.1c-0.7-1.1-1.7-1.6-3.1-1.6c-1.2,0-2.3,0.4-3.2,1.3
									C307.2,57,306.6,58.1,306.4,59.5z"/>
							</g>
							<g class="st22">
								<path class="st14" d="M344.7,47.8h-10.4l0.2-2c-2.4,0.8-5.2,1.6-8.4,2.3l-0.6-2.5c6.9-1,11.7-2.7,14.4-5l2.1,0.9l-0.2,0.2
									c3.5,2,7.5,3.3,12,3.8l-1.2,2.5c-2.3-0.5-4.8-1.3-7.6-2.2L344.7,47.8z M349.4,57.4h-22.6c-0.2,0-0.3-0.1-0.3-0.3l0.9-7.5
									c0-0.2,0.1-0.3,0.3-0.3h22.6c0.2,0,0.3,0.1,0.3,0.3l-0.9,7.5C349.7,57.3,349.6,57.4,349.4,57.4z M346.5,69.4h-19.6
									c-0.2,0-0.3-0.1-0.3-0.4l1.2-9.8c0-0.2,0.1-0.3,0.4-0.3h19.6c0.2,0,0.3,0.1,0.3,0.3l-1.2,9.8
									C346.9,69.3,346.8,69.4,346.5,69.4z M332.8,55.2h4.5l0.5-3.8h-8.2c-0.1,0-0.1,0-0.1,0.1l-0.4,3.6l0.1,0.1H332.8
									c-0.5-1.1-0.9-1.9-1.2-2.4l2.1-1.3c0.4,0.6,0.9,1.5,1.3,2.5L332.8,55.2z M329.6,65.2l-0.2,1.9l0.1,0.1h15l0.1-0.1l0.2-1.9
									H329.6z M345.1,63.1l0.2-1.9c0-0.1,0-0.1-0.1-0.1h-15c-0.1,0-0.1,0-0.1,0.1l-0.2,1.9H345.1z M339.8,43.3
									c-0.8,0.5-2.3,1.3-4.5,2.3h8.8C342.8,44.9,341.3,44.2,339.8,43.3z M344.1,55.2h3.5l0.1-0.1l0.4-3.6l-0.1-0.1h-7.9l-0.5,3.8
									h1.6c1.2-1.5,2-2.7,2.6-3.7l1.9,1.2C345.3,53.5,344.7,54.4,344.1,55.2z"/>
								<path class="st14" d="M364.2,67.8c-3.5,0.9-6.8,1.6-9.8,2l0-2.6c3.1-0.4,6.3-1,9.6-2L364.2,67.8z M379.7,64.9H357
									c-0.2,0-0.3-0.1-0.3-0.4l1.8-14.6c0-0.2,0.2-0.4,0.4-0.4h22.7c0.2,0,0.3,0.1,0.3,0.4l-1.8,14.6
									C380.1,64.8,379.9,64.9,379.7,64.9z M381.2,48.1h-21.6c-0.2,0-0.3-0.1-0.3-0.4l0.7-5.9c0-0.2,0.1-0.3,0.4-0.3H382
									c0.2,0,0.3,0.1,0.3,0.3l-0.7,5.9C381.6,48,381.4,48.1,381.2,48.1z M359.9,60.5l-0.2,2c0,0.1,0,0.1,0.1,0.2h17.8l0.1-0.2
									l0.2-2H359.9z M378.2,58.3l0.3-2.2h-18l-0.3,2.2H378.2z M378.7,53.9l0.2-1.9c0-0.1,0-0.1-0.1-0.1H361c-0.1,0-0.1,0-0.1,0.1
									l-0.2,1.9H378.7z M362.4,43.8c-0.1,0-0.1,0-0.1,0.1l-0.2,1.7c0,0.1,0,0.1,0.1,0.2h17l0.1-0.2l0.2-1.7c0-0.1,0-0.1-0.1-0.1
									H362.4z M373,65.3c3.3,0.5,6.3,1.2,9,2.1l-1,2.5c-2.8-0.9-5.7-1.6-8.8-2L373,65.3z"/>
								<path class="st14" d="M388.7,54.9l-2.2-0.9c3-4.2,4.9-8.5,5.8-13.1l2.4,0.3c-0.6,2.4-1.3,4.5-2,6.4l-2.6,21.9h-2.4l1.9-15.7
									L388.7,54.9z M399.1,67.5c-1.9,0.9-4.3,1.7-7.1,2.3l-0.4-2.5c2.9-0.7,5.2-1.5,6.9-2.2L399.1,67.5z M410.8,64.8H394
									c-0.4,0-0.6-0.2-0.5-0.6l1.3-10.8c0-0.4,0.3-0.6,0.7-0.6h16.9c0.4,0,0.6,0.2,0.5,0.6l-1.3,10.8
									C411.5,64.6,411.2,64.8,410.8,64.8z M414.5,45.4c0.2,0,0.3,0.1,0.3,0.3l-0.7,5.7c0,0.2-0.2,0.3-0.4,0.3h-19.6
									c-0.2,0-0.3-0.1-0.3-0.3l0.7-5.7c0-0.2,0.1-0.3,0.3-0.3h5.7l0.2-1.6h-5.6l0.3-2.2h19.7l-0.3,2.2H409l-0.2,1.6H414.5z
									 M396.2,61.4l-0.1,1.2c0,0.1,0,0.1,0.1,0.2h13l0.1-0.2l0.1-1.2H396.2z M400.3,47.5h-3.6c-0.1,0-0.1,0-0.1,0.1l-0.2,1.8
									l0.1,0.1h3.6L400.3,47.5z M409.6,59.5l0.2-1.5h-13.2l-0.2,1.5H409.6z M410.1,56.1l0.1-1.2c0-0.1,0-0.1-0.1-0.1h-13
									c-0.1,0-0.1,0-0.1,0.1l-0.1,1.2H410.1z M406.2,47.5h-3.6l-0.2,2h3.6L406.2,47.5z M406.7,43.7h-3.6l-0.2,1.6h3.6L406.7,43.7z
									 M406.2,65.1c1.9,0.4,4,1.2,6.5,2.3l-1.2,2.3c-2.5-1.1-4.5-1.8-6-2.2L406.2,65.1z M408.3,49.5h3.6l0.1-0.1l0.2-1.8l-0.1-0.1
									h-3.6L408.3,49.5z"/>
							</g>
						</g>
					</g>
				</g>
			</g>
			<path class="st19" d="M94.4,82.3c-14.7,0-26.8-12-26.8-26.8l0,0c0-14.7,12-26.8,26.8-26.8h149.8"/>
			<path class="st20" d="M94.7,78.5C82.2,78.5,72,68.3,72,55.8l0,0c0-12.5,10.2-22.7,22.7-22.7h107.1"/>
			<line class="st21" x1="329.7" y1="82.3" x2="99.2" y2="82.3"/>
			<path class="st19" d="M428.5,28.8c14.7,0,26.8,12,26.8,26.8l0,0c0,14.7-12,26.8-26.8,26.8h-93.8"/>
			<path class="st20" d="M427.9,32.6c12.6,0,22.9,10.3,22.9,22.9l0,0c0,12.6-10.3,22.9-22.9,22.9h-78.7"/>
			<line class="st21" x1="249.9" y1="28.8" x2="423.5" y2="28.8"/>
		</g>
	</g>
</g>
</svg>
