<?xml version="1.0" encoding="utf-8"?>
<!-- Generator: Adobe Illustrator 20.0.0, SVG Export Plug-In . SVG Version: 6.00 Build 0)  -->
<svg version="1.1" id="圖層_1" xmlns="http://www.w3.org/2000/svg" xmlns:xlink="http://www.w3.org/1999/xlink" x="0px" y="0px"
	 viewBox="0 0 434 109" style="enable-background:new 0 0 434 109;" xml:space="preserve">
<style type="text/css">
	.st0{display:none;}
	.st1{display:inline;}
	.st2{fill:#FFFFFF;}
	.st3{font-family:'AdobeMingStd-Light-B5pc-H';}
	.st4{font-size:21.6717px;}
	.st5{font-family:'MicrosoftSansSerif';}
	.st6{fill:#9D9D9E;}
	.st7{font-family:'Avenir-MediumOblique';}
	.st8{font-size:32.9138px;}
	.st9{font-family:'NewGothic-Bold';}
	.st10{font-size:29.3994px;}
	.st11{display:inline;fill:none;stroke:#FFFFFF;stroke-width:2;stroke-linecap:round;stroke-miterlimit:10;}
	.st12{display:inline;fill:none;stroke:#FFFFFF;stroke-width:0.75;stroke-linecap:round;stroke-miterlimit:10;}
	.st13{display:inline;fill:none;stroke:#F6B42C;stroke-width:2;stroke-linecap:round;stroke-miterlimit:10;}
	.st14{fill:#D6000F;}
	.st15{font-family:'Arial-ItalicMT';}
	.st16{font-size:109.8763px;}
	.st17{letter-spacing:-1;}
	.st18{font-size:31.4857px;}
	.st19{fill:none;stroke:#D6000F;stroke-width:2;stroke-linecap:round;stroke-miterlimit:10;}
	.st20{fill:none;stroke:#D6000F;stroke-width:0.75;stroke-linecap:round;stroke-miterlimit:10;}
	.st21{fill:none;stroke:#F6B42C;stroke-width:2;stroke-linecap:round;stroke-miterlimit:10;}
	.st22{enable-background:new    ;}
</style>
<g id="圖層_1_1_">
	<g class="st0">
		<g class="st1">
			<text transform="matrix(1 0 0 1 284.5409 62.0831)" class="st2 st3 st4">如何獲得</text>
			<text transform="matrix(1 0 0 1 379.2409 62.9814)" class="st2 st5 st4">?</text>
		</g>
		<g class="st1">
			<g>
				<g>
					<g>
						<text transform="matrix(1 0 0 1 176.748 67.52)" class="st6 st7 st8">Fa</text>
						<text transform="matrix(1 0 0 1 209.448 67.52)" class="st6 st7 st8">stag</text>
						<text transform="matrix(1 0 0 1 176.748 67.52)" class="st2 st7 st8">Fa</text>
						<text transform="matrix(1 0 0 1 209.448 67.52)" class="st2 st7 st8">stag</text>
					</g>
					<g>
						<text transform="matrix(0.95 0 -0.1187 0.9929 57.6008 65.8793)" class="st6 st9 st10">智慧標籤</text>
						<text transform="matrix(0.95 0 -0.1187 0.9929 57.6008 65.8793)" class="st2 st9 st10">智慧標籤</text>
					</g>
				</g>
			</g>
		</g>
		<path class="st11" d="M51.5,81.3c-14.7,0-26.8-12-26.8-26.8l0,0c0-14.7,12-26.8,26.8-26.8h279.7"/>
		<path class="st12" d="M51.8,77.4c-12.5,0-22.7-10.2-22.7-22.7l0,0C29.1,42.2,39.3,32,51.8,32h237"/>
		<line class="st13" x1="283.7" y1="81.3" x2="56.3" y2="81.3"/>
		<path class="st11" d="M382.5,27.7c14.7,0,26.8,12,26.8,26.8l0,0c0,14.7-12,26.8-26.8,26.8h-93.8"/>
		<path class="st12" d="M381.9,31.6c12.6,0,22.9,10.3,22.9,22.9l0,0c0,12.6-10.3,22.9-22.9,22.9h-78.7"/>
		<line class="st13" x1="337" y1="27.7" x2="377.5" y2="27.7"/>
	</g>
</g>
<g id="圖層_2" class="st0">
	<g class="st1">
		<g>
			<text transform="matrix(0.9913 0 0 1 28.583 89.0664)" class="st14 st15 st16 st17">1</text>
		</g>
		<g>
			<g>
				<g>
					<g>
						<text transform="matrix(0.9559 0 -0.1195 0.9928 155.5664 69.0715)" class="st6 st9 st18">限時首購優惠</text>
						<g>
							<text transform="matrix(0.9559 0 -0.1195 0.9928 155.5664 69.0715)" class="st14 st9 st18">限時首購優惠</text>
						</g>
					</g>
				</g>
			</g>
			<path class="st19" d="M126.7,82.2c-14.7,0-26.8-12-26.8-26.8l0,0c0-14.7,12-26.8,26.8-26.8h149.8"/>
			<path class="st20" d="M127,78.4c-12.5,0-22.7-10.2-22.7-22.7l0,0c0-12.5,10.2-22.7,22.7-22.7h107.1"/>
			<line class="st21" x1="276.5" y1="82.2" x2="131.5" y2="82.2"/>
			<path class="st19" d="M375.3,28.7c14.7,0,26.8,12,26.8,26.8l0,0c0,14.7-12,26.8-26.8,26.8h-93.8"/>
			<path class="st20" d="M374.7,32.5c12.6,0,22.9,10.3,22.9,22.9l0,0c0,12.6-10.3,22.9-22.9,22.9H296"/>
			<line class="st21" x1="282.2" y1="28.7" x2="370.3" y2="28.7"/>
		</g>
	</g>
</g>
<g id="圖層_3">
	<g>
		<g>
			<g class="st22">
				<path class="st14" d="M35.4,85.9c1-4.7,2.4-8.6,4.1-11.8c1.8-3.2,4.1-6.2,7-9c2.9-2.8,8.5-7.6,16.8-14.3c5-4,8.5-7,10.3-9
					c2.7-2.8,4.6-5.5,5.8-8.2c0.8-1.8,1.2-3.8,1.2-6c0-3.6-1.3-6.7-3.8-9.2c-2.5-2.5-5.6-3.8-9.3-3.8c-3.7,0-6.8,1.3-9.6,3.8
					c-2.7,2.6-4.7,6.7-5.9,12.3l-9.4-1.4c0.9-7,3.6-12.5,8.1-16.5c4.4-4,10-6,16.6-6c4.4,0,8.4,0.9,12,2.8c3.6,1.9,6.3,4.5,8.1,7.8
					c1.8,3.4,2.7,6.8,2.7,10.4c0,5.2-1.8,10.2-5.5,15.1c-2.3,3-8.9,8.9-20,17.8c-4.8,3.8-8.3,6.9-10.6,9.3c-2.3,2.4-4.1,4.7-5.2,6.9
					h34.9l-1.9,8.9H35.4z"/>
			</g>
		</g>
		<g>
			<g>
				<g>
					<g>
						<g class="st22">
							<path class="st6" d="M149.3,58.9h-4.5l0.3-2.4h4.5l0.4-3.2h-3.2l0.3-2.4h8.8l-0.3,2.4h-3.2l-0.4,3.2h4.2l-0.3,2.4h-4.2
								l-1.1,8.8l3.9-1.1l0.2,2.5c-4.6,1.2-8.3,2-11.1,2.5l0-2.5l4.5-0.8L149.3,58.9z M146.4,60.3c0.4,1.6,0.7,3.5,0.8,5.9l-2.4,0.6
								c-0.1-2.5-0.4-4.4-0.8-5.8L146.4,60.3z M147.3,50.4l-2-1.6c3.5-2.1,5.9-4.1,7.1-6h2.3l-0.2,0.5l0-0.1
								c1.2,1.3,2.4,2.5,3.7,3.7l-2.1,1.8c-1.1-1.1-2.1-2.3-2.9-3.4C151.8,47,149.8,48.7,147.3,50.4z M155.6,61.1
								c-0.5,1.4-1.2,2.9-1.9,4.5l-1.9-0.9c0.8-1.6,1.4-3.1,1.8-4.3L155.6,61.1z M170.2,59.3l1.4,1.8c-1.4,1.3-3.1,2.8-5.2,4.3
								c1.2,1.9,2.8,3.5,4.7,4.9l-2.4,1.8c-2-1.8-3.2-3.1-3.7-3.9c-1.9-2.7-2.7-6-2.4-9.9h-2.7l-1.2,10.3c1.7-0.5,3.2-1,4.4-1.6
								l0.5,2.4c-2.5,1.1-5.5,2-9.1,2.8l-0.4-2.5l2-0.5l3-24.6c0.1-0.5,0.3-0.7,0.8-0.7h11.7c0.5,0,0.7,0.2,0.6,0.7l-1.5,12.9
								c-0.1,0.5-0.4,0.8-0.9,0.8H165c-0.1,2,0.1,3.6,0.4,4.9C167.5,61.7,169.1,60.4,170.2,59.3z M160.6,52.3l-0.4,3.6h7.6
								c0.4,0,0.7-0.2,0.7-0.7l0.3-2.9H160.6z M169.2,49.9l0.4-3c0-0.4-0.1-0.6-0.5-0.6h-7.1c-0.4,0-0.7,0.2-0.7,0.6l-0.4,3H169.2z"
								/>
							<path class="st6" d="M177,61.8l-1.9-1.7c3.2-2.5,5.8-5.6,7.6-9l2.2,1.1c-1,1.6-1.9,3-2.8,4.2l-1.9,15.6h-2.6l1.5-12.2
								L177,61.8z M184.9,44.2c-2,3.9-4.2,6.8-6.5,8.7l-2-1.6c2.6-2.2,4.7-4.9,6.2-8.1L184.9,44.2z M185.8,54.6l0.3-2.7h18l-0.3,2.7
								h-4.7l-1.7,14c-0.2,1.2-0.7,2.1-1.7,2.7c-1.8,1.1-4.7,1-8.8-0.3l0.3-2.8c1.5,0.4,2.9,0.8,4.4,1.1c1.3,0.2,2.3,0,2.9-0.5
								c0.2-0.2,0.3-0.5,0.4-0.9l1.6-13.3H185.8z M203.8,44.6l-0.3,2.7h-15.9l0.3-2.7H203.8z"/>
							<path class="st6" d="M212.4,52.2c-1.3,1.4-2.5,2.6-3.7,3.4l-1.9-1.6c1.8-1.4,3.3-2.9,4.6-4.4c-0.7-1.4-1.7-2.8-2.9-4.1
								l2.2-1.6c1,1.1,1.8,2.2,2.5,3.5c0.9-1.3,1.8-2.7,2.6-4.2l2.2,1.1c-1.3,2.2-2.5,4.1-3.7,5.6c1,2.4,1.3,5.6,1,9.5
								c-0.3,3.4-0.8,6.3-1.6,8.5c-0.6,1.9-1.4,3.2-2.3,3.8c-0.4,0.3-0.9,0.4-1.5,0.4c-0.6,0-1.8-0.4-3.5-1l0.4-2.8
								c1.6,0.6,2.6,0.9,3,0.9l0.8-0.2c0.4-0.3,0.8-1.2,1.2-2.7c0.5-2,0.8-4.3,1-7c-1.8,2.4-3.6,4.3-5.4,5.6l-1.8-1.7
								c3-2.3,5.5-4.9,7.3-7.8C212.9,54.2,212.7,53.2,212.4,52.2z M223.9,58.3h-6.1l0.3-2.7h6.1l1-8.6h-6.8l0.3-2.7h16.8l-0.3,2.7
								h-7.3l-1,8.6h6.6l-0.3,2.7h-6.6l-1.2,10.2h7.8l-0.3,2.7h-18.4l0.3-2.7h7.9L223.9,58.3z"/>
							<path class="st6" d="M241,68.7l-0.9-2.1c2.5-1.1,4.7-2.8,6.5-5c-0.3-0.5-0.5-1-0.4-1.5l0.4-3.2h-4.8l-0.1,0.6
								c-0.6,5.1-1.7,9.6-3.2,13.7l-2.3-0.7c0.9-2.4,1.5-4.6,2-6.6c0.4-1.9,0.8-4.3,1.1-7.1l1.4-11.7c0.1-0.4,0.3-0.6,0.7-0.6h10.7
								l0.2-1.3h2.6l-0.2,1.3h11.9l-0.3,2.2H258l-0.2,1.4h6.8c0.5,0,0.7,0.2,0.6,0.7l-0.5,4.2c-0.1,0.5-0.3,0.7-0.8,0.7h-21.9
								l-0.2,1.3h22.9l1.1,0.9c-0.7,1.4-1.4,2.8-2.2,4l-1.9-0.8l0.9-1.5l0.2-0.5l-0.2-0.1h-9.6c0.5,0.4,1,1,1.5,1.7l-1.7,1.6
								c-0.7-0.9-1.3-1.6-1.9-2.1l1.2-1.2h-3.5l-0.2,2.1c0,0.3,0,0.7,0.2,0.9c0.2,0.2,0.5,0.3,0.8,0.4h5.9c0.2,0,0.4-0.1,0.7-0.2
								l0.6-1.5l1.9,0.8c-0.5,1.3-0.8,2.1-0.9,2.3c-0.7,0.6-1.2,0.9-1.6,0.9h-7.5l-0.9,1.1h12.4l1.4,1.2c0.1,0.1,0.1,0.2,0,0.4
								c-1.3,1.4-3.5,2.7-6.5,4.1c2.9,0.6,5.8,0.9,8.8,1l-1.1,2.4c-4.2-0.4-7.9-1.1-10.9-2.1c-4,1.2-8,1.9-12.1,2l-0.1-2.5
								c2.8,0,5.7-0.3,8.7-0.9l-4.3-2.2C243.1,67.6,242,68.2,241,68.7z M245.6,58.7c-0.6,1.2-1.4,2.6-2.4,4.2l-2-1.1
								c1.1-1.6,1.8-3,2.3-4L245.6,58.7z M247.3,50h-4.8l-0.2,1.5h4.8L247.3,50z M247.8,46.5h-4.6c-0.2,0-0.3,0.1-0.3,0.3l-0.1,1.1
								h4.8L247.8,46.5z M251.7,68.1c2.9-1.1,4.8-1.9,5.6-2.4c0-0.2-0.1-0.2-0.3-0.2h-10.6c1.3,0.8,2.5,1.4,3.8,2L251.7,68.1z
								 M255.1,50h-5.3l-0.2,1.5h5.3L255.1,50z M255.5,46.5h-5.3L250,48h5.3L255.5,46.5z M257.4,51.5h4.9c0.1,0,0.2-0.1,0.2-0.2
								l0.1-1.1c0-0.1,0-0.2-0.2-0.2h-4.9L257.4,51.5z M260.9,57.9c1,1,1.9,2.4,2.9,4.2l-2,1.5c-1-1.8-1.9-3.2-2.8-4.1L260.9,57.9z"
								/>
							<path class="st6" d="M270,49.5l0.3-2.7h3.9l0.4-3.3h2.6l-0.4,3.3h5.7l0.5,0.1c0.3,0.2,0.4,0.7,0.3,1.4l-1.6,12.1
								c-0.8,6-2,9.6-3.5,10.8c-0.4,0.4-1.1,0.6-2,0.6c-0.9,0-2.1-0.2-3.4-0.5l0.1-3.2c1.2,0.3,2.2,0.5,2.9,0.6c0.7,0,1.1,0,1.3-0.2
								c0.3-0.4,0.7-1.2,1-2.3c0.3-1.2,0.7-3.3,1.1-6.2c0.9-6.7,1.2-10.2,1.2-10.4c-0.1-0.1-0.2-0.2-0.3-0.2h-3.6l-1.6,8.2
								c-1.7,6.3-3.4,10.8-5.3,13.7l-2.6-0.6c3.8-6.4,6.1-13.5,7-21.3H270z M293.7,71.2h-9.9c-0.2,0-0.3-0.1-0.3-0.4l3-25.3
								c0-0.2,0.2-0.4,0.4-0.4h9.9c0.3,0,0.4,0.1,0.3,0.4l-3,25.3C294.1,71.1,293.9,71.2,293.7,71.2z M288.9,47.8
								c-0.1,0-0.1,0-0.1,0.1l-2.5,20.5c0,0.1,0,0.2,0.1,0.2h5.3c0.1,0,0.2-0.1,0.2-0.2l2.5-20.5l-0.1-0.1H288.9z"/>
							<path class="st6" d="M307.5,70.5h-6.3c-0.2,0-0.3-0.1-0.3-0.4l1.4-11.7l-0.5,0.9l-2.4-0.8c2.5-3.9,4.1-7.9,4.8-12h-2.6
								l0.3-2.5h9l-0.3,2.5h-3.9c-0.5,2.3-1,4.3-1.6,6h4.7c0.2,0,0.3,0.1,0.3,0.4l-2.1,17.2C307.9,70.4,307.7,70.5,307.5,70.5z
								 M305.2,55.1L305.2,55.1l-1.6,12.7l0.1,0.1h1.9c0.1,0,0.1,0,0.1-0.1l1.5-12.6l-0.1-0.1H305.2z M309.9,62h2.7
								c-0.3,3.7-1.1,7-2.5,9.9c-0.9-0.5-1.6-0.8-2.3-0.9c0.7-1.5,1.3-3,1.6-4.3C309.7,65.3,309.8,63.8,309.9,62z M312.2,44.8
								c0-0.4,0.2-0.6,0.6-0.6h15.8l-0.3,2.5h-6.5l-0.2,1.9h5.9l-0.3,2.4h-5.9l-0.2,2h6l-0.3,2.4h-6l-0.3,2.2h6.7
								c0.3,0,0.5,0.2,0.4,0.6c-0.5,5.2-1.1,8.8-1.6,10.6c-0.3,1.1-0.9,2-1.7,2.7c-1,0.8-3.1,0.9-6.4,0.3l0.3-2.8
								c1.7,0.5,2.8,0.8,3.3,0.8c0.5,0,0.9-0.1,1.1-0.3c0.6-0.6,1-1.2,1.2-2c0.3-1.1,0.7-3.4,1-7.2c0-0.1-0.1-0.2-0.3-0.2h-13.6
								c-0.3,0-0.4-0.2-0.4-0.5l0.2-2.1L312.2,44.8z M313.1,62.1l2.4-0.1c0,3.1-0.1,5.8-0.4,8h-2.4c0.2-1.3,0.3-2.8,0.4-4.5
								L313.1,62.1z M317.9,57.6l0.3-2.2h-4.7l-0.3,2.2H317.9z M318.7,51.1H314l-0.2,2h4.7L318.7,51.1z M319.3,46.7h-4.5
								c-0.2,0-0.3,0.1-0.3,0.3l-0.2,1.6h4.7L319.3,46.7z M316.2,61.9l2.3-0.5c0.5,3.6,0.7,5.9,0.7,6.9l-2.3,0.3
								c0-1.1-0.1-2.4-0.3-3.8L316.2,61.9z M319.3,61.6l2.3-0.6c0.4,2,0.7,3.8,0.9,5.4l-2.3,0.5l-0.4-3L319.3,61.6z"/>
							<path class="st6" d="M334.7,60.1c0-0.2-0.1-0.4-0.3-0.4h-3.5l0.3-2.7h5.7c0.4,0,0.6,0.2,0.6,0.7l-0.9,7.1
								c0.1,0.6,0.3,1.2,0.8,1.8c0.3,0.6,0.8,1,1.6,1.4c1.5,0.8,7.4,0.9,18,0.3l-1,3l-12.9-0.1c-4.1,0-6.7-1.2-7.8-3.5
								c-0.4,0.7-1.1,1.5-2.2,2.3c-1.1,0.8-2.1,1.4-3.1,1.7l-0.9-2.4c1.8-0.7,3-1.4,3.7-2c0.5-0.7,0.9-1.4,1.2-2.3L334.7,60.1z
								 M332.6,50.1c1.5,0.5,3.2,1.5,5.1,2.7l-1.5,2.4c-2-1.3-3.6-2.2-5-2.7L332.6,50.1z M334.9,43.5c1.4,0.7,3,1.7,4.8,3.1
								l-1.7,2.3c-1.8-1.5-3.4-2.5-4.6-3.1L334.9,43.5z M346,46.8c-2.3,2.7-4.7,4.7-7.1,6c-0.3-1-0.6-1.8-1-2.4
								c2.4-1.3,4.4-3.2,6.1-5.4L346,46.8z M339.8,67l-1.2-2.4c3.9-1.2,6.4-3.1,7.6-5.6H339l0.3-2.5h7.6l0.4-3.3h-5.3l0.3-2.5h13.1
								l-0.3,2.5h-5.2l-0.4,3.3h7.6l-0.3,2.5h-7l0.1,0.2c1.1,2.6,3.7,4.4,7.6,5.4l-1.6,2.6c-3.6-1.1-6.3-3.2-8-6.2
								C346.4,63.4,343.7,65.4,339.8,67z M354.4,44c0.2,0,0.4,0.1,0.5,0.3c1.2,2.8,2.8,4.9,4.7,6.4l-2.5,1.8
								c-1.5-1.3-2.8-3.3-3.9-5.9c0-0.1-0.1-0.2-0.3-0.2h-6.5l0.3-2.4H354.4z"/>
						</g>
						<g>
							<g class="st22">
								<path class="st14" d="M149.3,58.9h-4.5l0.3-2.4h4.5l0.4-3.2h-3.2l0.3-2.4h8.8l-0.3,2.4h-3.2l-0.4,3.2h4.2l-0.3,2.4h-4.2
									l-1.1,8.8l3.9-1.1l0.2,2.5c-4.6,1.2-8.3,2-11.1,2.5l0-2.5l4.5-0.8L149.3,58.9z M146.4,60.3c0.4,1.6,0.7,3.5,0.8,5.9
									l-2.4,0.6c-0.1-2.5-0.4-4.4-0.8-5.8L146.4,60.3z M147.3,50.4l-2-1.6c3.5-2.1,5.9-4.1,7.1-6h2.3l-0.2,0.5l0-0.1
									c1.2,1.3,2.4,2.5,3.7,3.7l-2.1,1.8c-1.1-1.1-2.1-2.3-2.9-3.4C151.8,47,149.8,48.7,147.3,50.4z M155.6,61.1
									c-0.5,1.4-1.2,2.9-1.9,4.5l-1.9-0.9c0.8-1.6,1.4-3.1,1.8-4.3L155.6,61.1z M170.2,59.3l1.4,1.8c-1.4,1.3-3.1,2.8-5.2,4.3
									c1.2,1.9,2.8,3.5,4.7,4.9l-2.4,1.8c-2-1.8-3.2-3.1-3.7-3.9c-1.9-2.7-2.7-6-2.4-9.9h-2.7l-1.2,10.3c1.7-0.5,3.2-1,4.4-1.6
									l0.5,2.4c-2.5,1.1-5.5,2-9.1,2.8l-0.4-2.5l2-0.5l3-24.6c0.1-0.5,0.3-0.7,0.8-0.7h11.7c0.5,0,0.7,0.2,0.6,0.7l-1.5,12.9
									c-0.1,0.5-0.4,0.8-0.9,0.8H165c-0.1,2,0.1,3.6,0.4,4.9C167.5,61.7,169.1,60.4,170.2,59.3z M160.6,52.3l-0.4,3.6h7.6
									c0.4,0,0.7-0.2,0.7-0.7l0.3-2.9H160.6z M169.2,49.9l0.4-3c0-0.4-0.1-0.6-0.5-0.6h-7.1c-0.4,0-0.7,0.2-0.7,0.6l-0.4,3H169.2z
									"/>
								<path class="st14" d="M177,61.8l-1.9-1.7c3.2-2.5,5.8-5.6,7.6-9l2.2,1.1c-1,1.6-1.9,3-2.8,4.2l-1.9,15.6h-2.6l1.5-12.2
									L177,61.8z M184.9,44.2c-2,3.9-4.2,6.8-6.5,8.7l-2-1.6c2.6-2.2,4.7-4.9,6.2-8.1L184.9,44.2z M185.8,54.6l0.3-2.7h18
									l-0.3,2.7h-4.7l-1.7,14c-0.2,1.2-0.7,2.1-1.7,2.7c-1.8,1.1-4.7,1-8.8-0.3l0.3-2.8c1.5,0.4,2.9,0.8,4.4,1.1
									c1.3,0.2,2.3,0,2.9-0.5c0.2-0.2,0.3-0.5,0.4-0.9l1.6-13.3H185.8z M203.8,44.6l-0.3,2.7h-15.9l0.3-2.7H203.8z"/>
								<path class="st14" d="M212.4,52.2c-1.3,1.4-2.5,2.6-3.7,3.4l-1.9-1.6c1.8-1.4,3.3-2.9,4.6-4.4c-0.7-1.4-1.7-2.8-2.9-4.1
									l2.2-1.6c1,1.1,1.8,2.2,2.5,3.5c0.9-1.3,1.8-2.7,2.6-4.2l2.2,1.1c-1.3,2.2-2.5,4.1-3.7,5.6c1,2.4,1.3,5.6,1,9.5
									c-0.3,3.4-0.8,6.3-1.6,8.5c-0.6,1.9-1.4,3.2-2.3,3.8c-0.4,0.3-0.9,0.4-1.5,0.4c-0.6,0-1.8-0.4-3.5-1l0.4-2.8
									c1.6,0.6,2.6,0.9,3,0.9l0.8-0.2c0.4-0.3,0.8-1.2,1.2-2.7c0.5-2,0.8-4.3,1-7c-1.8,2.4-3.6,4.3-5.4,5.6l-1.8-1.7
									c3-2.3,5.5-4.9,7.3-7.8C212.9,54.2,212.7,53.2,212.4,52.2z M223.9,58.3h-6.1l0.3-2.7h6.1l1-8.6h-6.8l0.3-2.7h16.8l-0.3,2.7
									h-7.3l-1,8.6h6.6l-0.3,2.7h-6.6l-1.2,10.2h7.8l-0.3,2.7h-18.4l0.3-2.7h7.9L223.9,58.3z"/>
								<path class="st14" d="M241,68.7l-0.9-2.1c2.5-1.1,4.7-2.8,6.5-5c-0.3-0.5-0.5-1-0.4-1.5l0.4-3.2h-4.8l-0.1,0.6
									c-0.6,5.1-1.7,9.6-3.2,13.7l-2.3-0.7c0.9-2.4,1.5-4.6,2-6.6c0.4-1.9,0.8-4.3,1.1-7.1l1.4-11.7c0.1-0.4,0.3-0.6,0.7-0.6h10.7
									l0.2-1.3h2.6l-0.2,1.3h11.9l-0.3,2.2H258l-0.2,1.4h6.8c0.5,0,0.7,0.2,0.6,0.7l-0.5,4.2c-0.1,0.5-0.3,0.7-0.8,0.7h-21.9
									l-0.2,1.3h22.9l1.1,0.9c-0.7,1.4-1.4,2.8-2.2,4l-1.9-0.8l0.9-1.5l0.2-0.5l-0.2-0.1h-9.6c0.5,0.4,1,1,1.5,1.7l-1.7,1.6
									c-0.7-0.9-1.3-1.6-1.9-2.1l1.2-1.2h-3.5l-0.2,2.1c0,0.3,0,0.7,0.2,0.9c0.2,0.2,0.5,0.3,0.8,0.4h5.9c0.2,0,0.4-0.1,0.7-0.2
									l0.6-1.5l1.9,0.8c-0.5,1.3-0.8,2.1-0.9,2.3c-0.7,0.6-1.2,0.9-1.6,0.9h-7.5l-0.9,1.1h12.4l1.4,1.2c0.1,0.1,0.1,0.2,0,0.4
									c-1.3,1.4-3.5,2.7-6.5,4.1c2.9,0.6,5.8,0.9,8.8,1l-1.1,2.4c-4.2-0.4-7.9-1.1-10.9-2.1c-4,1.2-8,1.9-12.1,2l-0.1-2.5
									c2.8,0,5.7-0.3,8.7-0.9l-4.3-2.2C243.1,67.6,242,68.2,241,68.7z M245.6,58.7c-0.6,1.2-1.4,2.6-2.4,4.2l-2-1.1
									c1.1-1.6,1.8-3,2.3-4L245.6,58.7z M247.3,50h-4.8l-0.2,1.5h4.8L247.3,50z M247.8,46.5h-4.6c-0.2,0-0.3,0.1-0.3,0.3l-0.1,1.1
									h4.8L247.8,46.5z M251.7,68.1c2.9-1.1,4.8-1.9,5.6-2.4c0-0.2-0.1-0.2-0.3-0.2h-10.6c1.3,0.8,2.5,1.4,3.8,2L251.7,68.1z
									 M255.1,50h-5.3l-0.2,1.5h5.3L255.1,50z M255.5,46.5h-5.3L250,48h5.3L255.5,46.5z M257.4,51.5h4.9c0.1,0,0.2-0.1,0.2-0.2
									l0.1-1.1c0-0.1,0-0.2-0.2-0.2h-4.9L257.4,51.5z M260.9,57.9c1,1,1.9,2.4,2.9,4.2l-2,1.5c-1-1.8-1.9-3.2-2.8-4.1L260.9,57.9z
									"/>
								<path class="st14" d="M270,49.5l0.3-2.7h3.9l0.4-3.3h2.6l-0.4,3.3h5.7l0.5,0.1c0.3,0.2,0.4,0.7,0.3,1.4l-1.6,12.1
									c-0.8,6-2,9.6-3.5,10.8c-0.4,0.4-1.1,0.6-2,0.6c-0.9,0-2.1-0.2-3.4-0.5l0.1-3.2c1.2,0.3,2.2,0.5,2.9,0.6
									c0.7,0,1.1,0,1.3-0.2c0.3-0.4,0.7-1.2,1-2.3c0.3-1.2,0.7-3.3,1.1-6.2c0.9-6.7,1.2-10.2,1.2-10.4c-0.1-0.1-0.2-0.2-0.3-0.2
									h-3.6l-1.6,8.2c-1.7,6.3-3.4,10.8-5.3,13.7l-2.6-0.6c3.8-6.4,6.1-13.5,7-21.3H270z M293.7,71.2h-9.9c-0.2,0-0.3-0.1-0.3-0.4
									l3-25.3c0-0.2,0.2-0.4,0.4-0.4h9.9c0.3,0,0.4,0.1,0.3,0.4l-3,25.3C294.1,71.1,293.9,71.2,293.7,71.2z M288.9,47.8
									c-0.1,0-0.1,0-0.1,0.1l-2.5,20.5c0,0.1,0,0.2,0.1,0.2h5.3c0.1,0,0.2-0.1,0.2-0.2l2.5-20.5l-0.1-0.1H288.9z"/>
								<path class="st14" d="M307.5,70.5h-6.3c-0.2,0-0.3-0.1-0.3-0.4l1.4-11.7l-0.5,0.9l-2.4-0.8c2.5-3.9,4.1-7.9,4.8-12h-2.6
									l0.3-2.5h9l-0.3,2.5h-3.9c-0.5,2.3-1,4.3-1.6,6h4.7c0.2,0,0.3,0.1,0.3,0.4l-2.1,17.2C307.9,70.4,307.7,70.5,307.5,70.5z
									 M305.2,55.1L305.2,55.1l-1.6,12.7l0.1,0.1h1.9c0.1,0,0.1,0,0.1-0.1l1.5-12.6l-0.1-0.1H305.2z M309.9,62h2.7
									c-0.3,3.7-1.1,7-2.5,9.9c-0.9-0.5-1.6-0.8-2.3-0.9c0.7-1.5,1.3-3,1.6-4.3C309.7,65.3,309.8,63.8,309.9,62z M312.2,44.8
									c0-0.4,0.2-0.6,0.6-0.6h15.8l-0.3,2.5h-6.5l-0.2,1.9h5.9l-0.3,2.4h-5.9l-0.2,2h6l-0.3,2.4h-6l-0.3,2.2h6.7
									c0.3,0,0.5,0.2,0.4,0.6c-0.5,5.2-1.1,8.8-1.6,10.6c-0.3,1.1-0.9,2-1.7,2.7c-1,0.8-3.1,0.9-6.4,0.3l0.3-2.8
									c1.7,0.5,2.8,0.8,3.3,0.8c0.5,0,0.9-0.1,1.1-0.3c0.6-0.6,1-1.2,1.2-2c0.3-1.1,0.7-3.4,1-7.2c0-0.1-0.1-0.2-0.3-0.2h-13.6
									c-0.3,0-0.4-0.2-0.4-0.5l0.2-2.1L312.2,44.8z M313.1,62.1l2.4-0.1c0,3.1-0.1,5.8-0.4,8h-2.4c0.2-1.3,0.3-2.8,0.4-4.5
									L313.1,62.1z M317.9,57.6l0.3-2.2h-4.7l-0.3,2.2H317.9z M318.7,51.1H314l-0.2,2h4.7L318.7,51.1z M319.3,46.7h-4.5
									c-0.2,0-0.3,0.1-0.3,0.3l-0.2,1.6h4.7L319.3,46.7z M316.2,61.9l2.3-0.5c0.5,3.6,0.7,5.9,0.7,6.9l-2.3,0.3
									c0-1.1-0.1-2.4-0.3-3.8L316.2,61.9z M319.3,61.6l2.3-0.6c0.4,2,0.7,3.8,0.9,5.4l-2.3,0.5l-0.4-3L319.3,61.6z"/>
								<path class="st14" d="M334.7,60.1c0-0.2-0.1-0.4-0.3-0.4h-3.5l0.3-2.7h5.7c0.4,0,0.6,0.2,0.6,0.7l-0.9,7.1
									c0.1,0.6,0.3,1.2,0.8,1.8c0.3,0.6,0.8,1,1.6,1.4c1.5,0.8,7.4,0.9,18,0.3l-1,3l-12.9-0.1c-4.1,0-6.7-1.2-7.8-3.5
									c-0.4,0.7-1.1,1.5-2.2,2.3c-1.1,0.8-2.1,1.4-3.1,1.7l-0.9-2.4c1.8-0.7,3-1.4,3.7-2c0.5-0.7,0.9-1.4,1.2-2.3L334.7,60.1z
									 M332.6,50.1c1.5,0.5,3.2,1.5,5.1,2.7l-1.5,2.4c-2-1.3-3.6-2.2-5-2.7L332.6,50.1z M334.9,43.5c1.4,0.7,3,1.7,4.8,3.1
									l-1.7,2.3c-1.8-1.5-3.4-2.5-4.6-3.1L334.9,43.5z M346,46.8c-2.3,2.7-4.7,4.7-7.1,6c-0.3-1-0.6-1.8-1-2.4
									c2.4-1.3,4.4-3.2,6.1-5.4L346,46.8z M339.8,67l-1.2-2.4c3.9-1.2,6.4-3.1,7.6-5.6H339l0.3-2.5h7.6l0.4-3.3h-5.3l0.3-2.5h13.1
									l-0.3,2.5h-5.2l-0.4,3.3h7.6l-0.3,2.5h-7l0.1,0.2c1.1,2.6,3.7,4.4,7.6,5.4l-1.6,2.6c-3.6-1.1-6.3-3.2-8-6.2
									C346.4,63.4,343.7,65.4,339.8,67z M354.4,44c0.2,0,0.4,0.1,0.5,0.3c1.2,2.8,2.8,4.9,4.7,6.4l-2.5,1.8
									c-1.5-1.3-2.8-3.3-3.9-5.9c0-0.1-0.1-0.2-0.3-0.2h-6.5l0.3-2.4H354.4z"/>
							</g>
						</g>
					</g>
				</g>
			</g>
			<path class="st19" d="M127.1,82.8c-14.7,0-26.8-12-26.8-26.8l0,0c0-14.7,12-26.8,26.8-26.8h149.8"/>
			<path class="st20" d="M127.4,78.9c-12.5,0-22.7-10.2-22.7-22.7l0,0c0-12.5,10.2-22.7,22.7-22.7h107.1"/>
			<line class="st21" x1="276.9" y1="82.8" x2="132" y2="82.8"/>
			<path class="st19" d="M375.8,29.2c14.7,0,26.8,12,26.8,26.8l0,0c0,14.7-12,26.8-26.8,26.8H282"/>
			<path class="st20" d="M375.1,33.1c12.6,0,22.9,10.3,22.9,22.9l0,0c0,12.6-10.3,22.9-22.9,22.9h-78.7"/>
			<line class="st21" x1="282.7" y1="29.2" x2="370.8" y2="29.2"/>
		</g>
	</g>
</g>
<g id="圖層_4">
	<g>
		<g>
			<g>
				<g class="st0">
					<g class="st1">
						<g class="st22">
							<path class="st6" d="M72.3-208.9h-2.6l0.9-7.5h-3l0.3-2.7h3l1.4-11.3c0-0.4,0.3-0.7,0.7-0.7h9.1l0.3-2.8H70.3l0.3-2.5h26.5
								l-0.3,2.5H85.1l-0.3,2.8h9c0.4,0,0.6,0.2,0.6,0.7l-1.4,11.3h2.8l-0.3,2.7h-2.8l-0.6,4.7c-0.1,1.1-0.6,1.9-1.5,2.5
								c-1.5,1-4,1-7.6,0l0.4-2.9c2.8,0.9,4.6,1.1,5.5,0.6c0.5-0.3,0.8-0.7,0.8-1.2l0.4-3.6H73.2L72.3-208.9z M80.7-219.1l0.4-3.4
								h-7.2l-0.4,3.4H80.7z M81.9-228.4h-7c-0.1,0-0.2,0.1-0.2,0.2l-0.4,3.2h7.2L81.9-228.4z M90.4-219.1l0.4-3.4h-7.1l-0.4,3.4
								H90.4z M84-225h7.1l0.4-3.2c0-0.1-0.1-0.2-0.2-0.2h-6.8L84-225z"/>
							<path class="st6" d="M116.6-211.9c-0.3,0.9-0.7,1.6-1.3,2.1c-2.9,2.1-6.8,2.1-11.9,0.2l0.3-2.9c1.8,0.8,3.4,1.2,4.8,1.5
								c2.4,0.3,4.1,0,5.1-1c0.2-0.2,0.4-0.5,0.5-0.9c0.1-0.6,0-1.2-0.6-2H99l0.3-2.5h11.3l-0.7-0.4l1.7-2.3l1.1,0.7l5.2-1.9h-15.9
								l0.3-2.4h20.9l0,2.5c-2.1,1.1-4.9,2.2-8.6,3.4l0.4,0.4H126l-0.3,2.5h-9C116.9-213.8,116.9-212.8,116.6-211.9z M113.8-237.5
								h2.7l-0.2,1.9h12.1l-0.3,2.4h-26.8l0.3-2.4h12.1L113.8-237.5z M124-225.2h-20.8c-0.2,0-0.3-0.1-0.3-0.4l0.7-5.7
								c0-0.2,0.1-0.3,0.4-0.3h20.8c0.2,0,0.3,0.1,0.3,0.3l-0.7,5.7C124.4-225.3,124.2-225.2,124-225.2z M106-229.3
								c-0.1,0-0.1,0-0.1,0.1l-0.2,1.6c0,0.1,0,0.1,0.1,0.2h16.2l0.1-0.2l0.2-1.6c0-0.1,0-0.1-0.1-0.1H106z"/>
							<path class="st6" d="M132.1-232.4l0.3-2.3h7.2l-0.8-1.3l2.2-1.5c0.5,0.7,1.1,1.6,1.5,2.8h6.6c1.1-1.1,1.9-2.1,2.5-2.9
								l1.8,1.6l-1,1.3h6.8l-0.3,2.3h-9.4l-0.2,1.8h7.4c0.2,0,0.3,0.1,0.3,0.3l-1.6,13c0,0.2-0.2,0.3-0.4,0.3h-2.6l-0.2,1.4h4.8
								l-0.3,2.3H152l-0.2,2c-0.2,1.2-0.7,2-1.6,2.6c-1.2,0.8-3.3,0.7-6.3-0.2l0.3-2.6l2.3,0.6l1.5,0.2c0.3,0,0.7-0.1,1.1-0.4
								c0.2-0.2,0.3-0.4,0.4-0.8l0.2-1.3h-20l0.3-2.3h20l0.2-1.4h-17.6c-0.2,0-0.3-0.1-0.3-0.3l1.6-13c0-0.2,0.1-0.3,0.3-0.3h7.4
								l0.2-1.8H132.1z M134.9-220.9l-0.2,1.7l0.1,0.1h18.4l0.1-0.1l0.2-1.7H134.9z M137-213c0.8,1,1.5,2,2.2,3.1l-2.2,1.5
								c-0.7-1.2-1.4-2.1-2.1-3L137-213z M141.1-228.4h-5.3c-0.1,0-0.1,0-0.1,0.1l-0.6,5.4h18.6l0.2-1.5h-6.7c-0.7,0-1-0.4-0.9-1.1
								l0.3-2.9h-3.3c-0.1,0.5-0.2,1-0.5,1.6c-0.8,1.5-2.7,2.5-5.8,3l-0.4-2.4c2.2-0.1,3.6-0.6,4.2-1.4L141.1-228.4z M143.6-230.6
								h3.3l0.2-1.8h-3.3L143.6-230.6z M154.1-226.5l0.2-1.8l-0.1-0.1h-5.3l-0.2,1.3c0,0.4,0.1,0.6,0.5,0.6H154.1z"/>
							<path class="st6" d="M176.2-220.1h8.3l-0.3,2.4h-7.6c3,2.6,6.8,4.4,11.4,5.6l-1.7,2.4c-4.5-1.5-8-3.4-10.7-5.7l-0.9,7.2h-2.4
								l0.9-7.4c-4.4,3-8.4,4.9-12,5.8l-0.9-2.4c4.1-1,8.1-2.8,12-5.4h-6.9l0.3-2.4h8l0.3-2.6h-9.3c-0.2,0-0.2,0.1-0.3,0.2l-0.5,4.2
								h-2.4l0.8-6.4c0-0.3,0.2-0.5,0.5-0.5h25l2,1.1c-0.4,1.6-1.1,3.6-2.2,6l-2.2-0.9l1.4-3.4c0-0.2-0.1-0.4-0.2-0.4h-10
								L176.2-220.1z M163.8-225.7l-1.1-2.1c1-0.3,1.9-0.7,2.7-1.2c2.1-1.3,3.4-3,3.7-5.2l0.4-3.2h2.2l-0.4,3.2
								c-0.1,0.7-0.4,1.5-0.8,2.6c1.3,0.9,2.8,2.1,4.3,3.6l-1.6,2c-1.5-1.5-2.8-2.6-3.9-3.4C168-227.9,166.2-226.7,163.8-225.7z
								 M165.6-236.5c0.7,1.1,1.5,2.6,2.2,4.4l-2.1,1.2c-0.8-1.9-1.5-3.3-2.1-4.3L165.6-236.5z M176.8-235.6
								c-0.7,1.2-1.8,2.6-3.1,4.2l-1.7-1.3c1.4-1.6,2.4-3,3.1-4.1L176.8-235.6z M189.3-227.5l-1.5,2.1c-2.1-1.7-3.9-2.9-5.5-3.8
								c-1.3,1.4-3,2.5-5.1,3.4l-1-2.1c1-0.3,1.8-0.6,2.6-1.1c2-1.2,3.2-2.8,3.6-4.8l0.4-3.7h2.2l-0.4,3.7c-0.1,0.7-0.4,1.5-0.8,2.4
								C185.4-230.4,187.2-229.1,189.3-227.5z M178.8-236.5c0.7,1,1.3,2.4,1.8,4.1l-2.1,1.1c-0.6-1.7-1.2-3.1-1.8-4L178.8-236.5z
								 M190-235.3c-0.8,1.2-1.8,2.4-3.2,3.8l-1.6-1.4c1.4-1.5,2.4-2.7,3-3.7L190-235.3z"/>
						</g>
						<text transform="matrix(0.9559 0 -0.1195 0.9928 191.9652 -208.8422)" class="st6 st18" style="font-family:'ArialMT';">Prime</text>
						<text transform="matrix(0.9559 0 -0.1195 0.9928 278.3444 -210.9374)" class="st6 st9 st18">會員價</text>
						<g>
							<text transform="matrix(0.9559 0 -0.1195 0.9928 65.8473 -210.9374)" class="st14 st9 st18">再享尊榮</text>
							<text transform="matrix(0.9559 0 -0.1195 0.9928 191.9652 -208.8422)" class="st14 st18" style="font-family:'ArialMT';">Prime</text>
							<text transform="matrix(0.9559 0 -0.1195 0.9928 278.3444 -210.9374)" class="st14 st9 st18">會員價</text>
						</g>
					</g>
				</g>
			</g>
		</g>
	</g>
</g>
</svg>
