<?xml version="1.0" encoding="utf-8"?>
<!-- Generator: Adobe Illustrator 22.0.1, SVG Export Plug-In . SVG Version: 6.00 Build 0)  -->
<svg version="1.1" id="Layer_1" xmlns="http://www.w3.org/2000/svg" xmlns:xlink="http://www.w3.org/1999/xlink" x="0px" y="0px"
	 viewBox="0 0 60 60" style="enable-background:new 0 0 60 60;" xml:space="preserve">
<style type="text/css">
	.st0{fill:#00A5C8;}
	.st1{fill:#FFFFFF;}
</style>
<g>
	<g>
		<path class="st0" d="M19.1,53.2c-0.1,0.7-0.3,1.2-0.6,1.6s-0.5,0.6-0.9,0.6c-0.6,0-1.2-0.6-1.8-1.6c-0.6,0.5-1.3,0.9-2,1.2
			l-0.5-0.8c0.8-0.4,1.6-0.8,2.2-1.3c-0.2-0.7-0.3-1.8-0.4-3.3h-2.3V51c0.5-0.1,1.2-0.3,1.8-0.5l0,1c-0.7,0.2-1.3,0.3-1.8,0.5v2.4
			c0,0.3-0.1,0.5-0.2,0.6c-0.1,0.1-0.3,0.2-0.4,0.3c-0.2,0-0.5,0.1-0.9,0.1c-0.3,0-0.7,0-1,0l-0.3-1c0.5,0,0.9,0,1.2,0
			c0.3,0,0.5,0,0.6,0c0.1,0,0.1-0.1,0.1-0.2v-1.9c-0.8,0.2-1.5,0.3-2.2,0.3l-0.2-0.9c0.7-0.1,1.5-0.2,2.3-0.4v-1.7H9.4v-0.9h2.3
			v-1.2c-0.5,0.1-1.1,0.1-1.9,0.2l-0.4-0.9c1.9-0.1,3.4-0.4,4.7-0.9l0.6,0.8c-0.7,0.2-1.3,0.4-1.9,0.5v1.5H15c0-0.4,0-1.4,0-2.8h1
			c0,1,0,1.9,0,2.8h3v0.9h-3c0,0.9,0.1,1.8,0.2,2.6c0.5-0.6,1-1.3,1.4-2.1l0.9,0.4c-0.6,1.2-1.2,2.1-1.9,2.7
			c0.2,0.4,0.4,0.7,0.6,0.9s0.3,0.3,0.4,0.3c0.3,0,0.5-0.6,0.7-1.7L19.1,53.2z M18.7,47.6l-0.8,0.6c-0.4-0.6-0.9-1.1-1.4-1.6
			l0.8-0.6C17.8,46.5,18.3,47,18.7,47.6z"/>
		<path class="st0" d="M24.6,55.3h-0.9v-0.7h-2v0.8h-1v-8h1c0.3-0.5,0.5-1.1,0.6-1.7l1,0.2c-0.1,0.3-0.2,0.9-0.5,1.5h1.8V55.3z
			 M23.6,50.4v-2h-2v2H23.6z M23.6,53.6v-2.3h-2v2.3H23.6z M29.9,47.4c0,1.1,0,2.4-0.1,4.1s-0.2,2.7-0.3,3s-0.3,0.5-0.6,0.7
			c-0.3,0.1-0.9,0.2-2,0.2l-0.4-1l1.5,0c0.1,0,0.3-0.1,0.4-0.2c0.2-0.1,0.3-0.9,0.4-2.4c0.1-1.5,0.1-2.6,0.1-3.4h-2.2
			c-0.3,0.9-0.7,1.6-1.2,2.2l-0.8-0.7c0.8-1.3,1.3-2.7,1.7-4.3l1,0.2c-0.1,0.4-0.2,0.9-0.4,1.5H29.9z M28.3,52.3l-0.9,0.6
			c-0.5-0.9-1-1.7-1.5-2.4l0.9-0.5C27.5,50.9,28,51.7,28.3,52.3z"/>
		<path class="st0" d="M33.6,53.1c-0.4,0.8-0.8,1.6-1.3,2.3l-0.9-0.6c0.5-0.6,0.9-1.3,1.3-2.1L33.6,53.1z M34.9,52.4h-3.1v-6.3h3.1
			V52.4z M33.9,48.7V47h-1.2v1.7H33.9z M33.9,51.5v-1.9h-1.2v1.9H33.9z M35.8,55.2l-1,0.2c-0.1-0.7-0.3-1.4-0.6-2.3l1-0.2
			C35.4,53.6,35.6,54.3,35.8,55.2z M40.7,45.9c0,0.7,0,1.3-0.1,1.8s-0.1,0.8-0.3,1s-0.3,0.3-0.4,0.4c-0.2,0.1-0.5,0.1-1.1,0.1
			c-0.2,0-0.3,0-0.5,0L38,48.3c0.8,0,1.2,0,1.3,0c0.1,0,0.2,0,0.2-0.1s0.1-0.3,0.2-0.5s0-0.6,0-0.8h-1.6c-0.3,1.3-1.1,2.2-2.4,2.7
			l-0.6-0.8c1.2-0.5,1.9-1.1,2-1.9h-1.7v-0.9H40.7z M40.5,52.5h-4.8v-2.9h4.8V52.5z M38.4,55.1l-1,0.3c-0.2-0.8-0.5-1.6-0.9-2.2
			l0.9-0.3C38,53.7,38.3,54.4,38.4,55.1z M39.5,51.6v-1.1h-2.8v1.1H39.5z M41.1,55l-0.9,0.4c-0.2-0.6-0.6-1.4-1.2-2.2l0.9-0.4
			C40.3,53.5,40.7,54.2,41.1,55z"/>
		<path class="st0" d="M50.6,55.4h-1v-3.5h-4.3c-0.2,1.3-0.7,2.4-1.6,3.5l-0.9-0.6c1-1.2,1.6-2.9,1.6-5v-3.8h1v2.2h3.8v-2.4h1v3.3
			h-4.8c0,0.6,0,1.2-0.1,1.8h5.3V55.4z"/>
	</g>
	<g>
		<g>
			<circle class="st1" cx="30.7" cy="23.1" r="17.5"/>
			<path class="st0" d="M30.7,41.6c-10.2,0-18.5-8.3-18.5-18.5c0-10.2,8.3-18.5,18.5-18.5c10.2,0,18.5,8.3,18.5,18.5
				C49.2,33.3,40.9,41.6,30.7,41.6z M30.7,6.6c-9.1,0-16.5,7.4-16.5,16.5c0,9.1,7.4,16.5,16.5,16.5s16.5-7.4,16.5-16.5
				C47.2,14,39.8,6.6,30.7,6.6z"/>
		</g>
		<g>
			<g>
				<path class="st1" d="M39.4,31.3H21.6c-1,0-1.8-0.8-1.8-1.8V17.3c0-1,0.8-1.8,1.8-1.8h17.8c1,0,1.8,0.8,1.8,1.8v12.2
					C41.2,30.5,40.4,31.3,39.4,31.3z"/>
				<path class="st0" d="M39.4,32.3H21.6c-1.5,0-2.8-1.2-2.8-2.8V17.3c0-1.5,1.2-2.8,2.8-2.8h17.8c1.5,0,2.8,1.2,2.8,2.8v12.2
					C42.2,31.1,40.9,32.3,39.4,32.3z M21.6,16.5c-0.4,0-0.8,0.4-0.8,0.8v12.2c0,0.4,0.4,0.8,0.8,0.8h17.8c0.4,0,0.8-0.4,0.8-0.8
					V17.3c0-0.4-0.4-0.8-0.8-0.8H21.6z"/>
			</g>
			<g>
				<path class="st0" d="M24.3,13.2h-1.7c-0.4,0-0.7,0.3-0.7,0.7v1.7c0,0.4,0.3,0.7,0.7,0.7h1.7c0.4,0,0.7-0.3,0.7-0.7v-1.7
					C25,13.5,24.7,13.2,24.3,13.2z"/>
			</g>
			<g>
				<circle class="st1" cx="30.5" cy="23.4" r="4"/>
				<path class="st0" d="M30.5,28.4c-2.7,0-5-2.2-5-5s2.2-5,5-5c2.8,0,5,2.2,5,5S33.3,28.4,30.5,28.4z M30.5,20.4c-1.6,0-3,1.3-3,3
					s1.3,3,3,3s3-1.3,3-3S32.2,20.4,30.5,20.4z"/>
			</g>
			<g>
				<line class="st1" x1="36.2" y1="18.4" x2="38.2" y2="18.4"/>
				<path class="st0" d="M38.2,19.4h-2c-0.6,0-1-0.4-1-1s0.4-1,1-1h2c0.6,0,1,0.4,1,1S38.7,19.4,38.2,19.4z"/>
			</g>
		</g>
	</g>
</g>
</svg>
