<?xml version="1.0" encoding="utf-8"?>
<!-- Generator: Adobe Illustrator 22.0.1, SVG Export Plug-In . SVG Version: 6.00 Build 0)  -->
<svg version="1.1" id="Layer_1" xmlns="http://www.w3.org/2000/svg" xmlns:xlink="http://www.w3.org/1999/xlink" x="0px" y="0px"
	 viewBox="0 0 45 45" style="enable-background:new 0 0 45 45;" xml:space="preserve">
<style type="text/css">
	.st0{fill:none;}
	.st1{fill:#EE4552;}
</style>
<g>
	<path class="st0" d="M236.2-63.5l-13.7-13.7l-13.7,13.7c-0.1,0.1-0.1,0.1-0.2,0.1v19.9c0,0.5,0.4,0.9,0.9,0.9h8.4v-13.2
		c0-0.4,0.3-0.7,0.7-0.7h7.7c0.4,0,0.7,0.3,0.7,0.7v13.2h8.4c0.5,0,0.9-0.4,0.9-0.9v-19.9C236.3-63.4,236.3-63.5,236.2-63.5z"/>
	<path class="st1" d="M242.2-64.8c-0.1-0.1-0.2-0.3-0.3-0.4L225-82.1c-1.3-1.3-3.8-1.3-5.1,0L203-65.2c-0.2,0.2-0.3,0.3-0.4,0.6
		c-0.2,0.3-0.2,0.6,0,0.9c0.2,0.3,0.5,0.5,0.8,0.5h2.5v19.8c0,2,1.6,3.6,3.6,3.6h26.1c2,0,3.6-1.6,3.6-3.6v-19.8h2.5c0,0,0,0,0,0
		c0.5,0,0.9-0.4,0.9-0.9C242.5-64.4,242.4-64.6,242.2-64.8z M235.5-42.6h-8.4v-13.2c0-0.4-0.3-0.7-0.7-0.7h-7.7
		c-0.4,0-0.7,0.3-0.7,0.7v13.2h-8.4c-0.5,0-0.9-0.4-0.9-0.9v-19.9c0.1,0,0.1-0.1,0.2-0.1l13.7-13.7l13.7,13.7
		c0.1,0.1,0.1,0.1,0.2,0.1v19.9C236.4-43,236-42.6,235.5-42.6z"/>
</g>
<g>
	<g>
		<g>
			<path class="st1" d="M296.1-49.7h-25.3c-4,0-7.3-3.3-7.3-7.3v-18.7c0-0.9,0.7-1.6,1.6-1.6h36.8c0.9,0,1.6,0.7,1.6,1.6v18.7
				C303.5-53,300.2-49.7,296.1-49.7z M265.6-75.2V-57c0,2.9,2.3,5.2,5.2,5.2h25.3c2.9,0,5.3-2.4,5.3-5.3v-18.2H265.6z"/>
		</g>
	</g>
	<g>
		<g>
			<path class="st1" d="M275.8-67.1h-6.3c-0.5,0-0.9-0.4-0.9-0.9v-1c0-0.5,0.4-0.9,0.9-0.9h6.3c0.5,0,0.9,0.4,0.9,0.9v1
				C276.7-67.5,276.3-67.1,275.8-67.1z"/>
		</g>
		<g>
			<circle class="st1" cx="273.9" cy="-63.5" r="1.9"/>
		</g>
		<g>
			<path class="st1" d="M291.2-67.1h6.3c0.5,0,0.9-0.4,0.9-0.9v-1c0-0.5-0.4-0.9-0.9-0.9h-6.3c-0.5,0-0.9,0.4-0.9,0.9v1
				C290.3-67.5,290.7-67.1,291.2-67.1z"/>
		</g>
		<g>
			<circle class="st1" cx="293.1" cy="-63.5" r="1.9"/>
		</g>
	</g>
	<g>
		<g>
			<path class="st1" d="M281.5-61.4c0.3,0,0.6-0.3,0.6-0.6c0-0.3-0.3-0.6-0.6-0.6c-0.3,0-0.6,0.3-0.6,0.6
				C280.9-61.7,281.2-61.4,281.5-61.4z"/>
		</g>
		<g>
			<path class="st1" d="M285.4-61.4c0.3,0,0.6-0.3,0.6-0.6c0-0.3-0.3-0.6-0.6-0.6c-0.3,0-0.6,0.3-0.6,0.6
				C284.8-61.7,285-61.4,285.4-61.4z"/>
		</g>
		<g>
			<path class="st1" d="M287.8-61.2c-0.2-0.3-0.7-0.3-0.9-0.1c-0.1,0.1-0.2,0.3-0.3,0.4c0,0.2,0,0.4,0.1,0.5c0,0.1,0.1,0.2,0.1,0.3
				c0,0.1-0.4,0.7-3.2,0.7c-2.9,0-3.3-0.6-3.3-0.6c0,0,0-0.1,0.1-0.2c0.2-0.3,0.2-0.7-0.1-0.9c-0.3-0.2-0.7-0.2-0.9,0.1
				c-0.2,0.3-0.5,0.9-0.2,1.6c0.4,0.9,1.9,1.4,4.5,1.4c2.5,0,4-0.5,4.4-1.4C288.3-60.2,288-60.9,287.8-61.2z"/>
		</g>
	</g>
</g>
<g>
	<path class="st0" d="M380.5-74.4c-2.4,0-4.4,2-4.4,4.4c0,2.4,2,4.4,4.4,4.4c2.4,0,4.4-2,4.4-4.4C384.9-72.4,382.9-74.4,380.5-74.4z
		"/>
	<path class="st0" d="M373.8-70c0-1.5,0.5-2.9,1.4-4.1c-2.8,1.2-4.7,3-5.5,3.9c0.6,1.1,2.3,3.2,5.7,4.5
		C374.3-66.9,373.8-68.3,373.8-70z"/>
	<path class="st0" d="M385.7-74.1c0.9,1.1,1.5,2.6,1.5,4.2c0,1.7-0.6,3.2-1.6,4.4c3.4-1.2,5.1-3.5,5.8-4.6
		C390.5-71.1,388.6-73,385.7-74.1z"/>
	<g>
		<path class="st1" d="M375.3-65.7c-1-1.2-1.5-2.7-1.5-4.3c0-1.5,0.5-2.9,1.4-4.1c-2.8,1.2-4.7,3-5.5,3.9
			C370.2-69.1,371.9-66.9,375.3-65.7z"/>
		<path class="st1" d="M385.7-74.1c0.9,1.1,1.5,2.6,1.5,4.2c0,1.7-0.6,3.2-1.6,4.4c3.4-1.2,5.1-3.5,5.8-4.6
			C390.5-71.1,388.6-73,385.7-74.1z"/>
		<path class="st1" d="M380.5-74.4c-2.4,0-4.4,2-4.4,4.4c0,2.4,2,4.4,4.4,4.4c2.4,0,4.4-2,4.4-4.4C384.9-72.4,382.9-74.4,380.5-74.4
			z"/>
		<g>
			<path class="st1" d="M375.1-74c-2.8,1.2-4.7,3-5.5,3.9c0.6,1.1,2.3,3.2,5.7,4.5c-1-1.2-1.5-2.7-1.5-4.3
				C373.8-71.5,374.3-72.9,375.1-74z"/>
			<path class="st1" d="M380.5-74.4c-2.4,0-4.4,2-4.4,4.4c0,2.4,2,4.4,4.4,4.4c2.4,0,4.4-2,4.4-4.4
				C384.9-72.4,382.9-74.4,380.5-74.4z"/>
			<path class="st1" d="M380.5-91.5c-11,0-20,9-20,20c0,11,9,20,20,20s20-9,20-20C400.5-82.5,391.5-91.5,380.5-91.5z M393.6-71
				c0.2,0.3,0.3,0.8,0.1,1.1c-0.1,0.3-3.4,7.3-13,7.3c-0.3,0-0.6,0-1,0c-9.7-0.5-12.5-7.1-12.6-7.4c-0.2-0.4-0.1-0.8,0.1-1.1
				c0.1-0.1,1.6-2.1,4.3-3.8l-3.4-3.1c-0.5-0.4-0.5-1.2-0.1-1.6c0.4-0.5,1.2-0.5,1.6-0.1l3.9,3.7c1.6-0.7,3.5-1.3,5.7-1.4l0-5
				c0-0.6,0.5-1.1,1.1-1.1c0,0,0,0,0,0c0.6,0,1.1,0.5,1.1,1.1l0,5c2.4,0.2,4.5,0.8,6.1,1.7l4.2-3.5c0.5-0.4,1.2-0.3,1.6,0.1
				c0.4,0.5,0.3,1.2-0.1,1.6l-3.6,3C392.3-72.8,393.5-71.1,393.6-71z"/>
			<path class="st1" d="M387.2-70c0,1.7-0.6,3.2-1.6,4.4c3.4-1.2,5.1-3.5,5.8-4.6c-0.8-0.9-2.7-2.8-5.6-4
				C386.6-73,387.2-71.5,387.2-70z"/>
		</g>
	</g>
</g>
<g>
	<g>
		<path class="st1" d="M305.5,8.2c-11,0-20,9-20,20c0,11,9,20,20,20s20-9,20-20C325.5,17.1,316.6,8.2,305.5,8.2z M296.4,23.5
			c0.5-0.4,1.2-0.3,1.6,0.2l6.3,8V18.2c0-0.6,0.5-1.1,1.1-1.1c0.6,0,1.1,0.5,1.1,1.1v13.5l6.3-8c0.4-0.5,1.1-0.6,1.6-0.2
			c0.5,0.4,0.6,1.1,0.2,1.6l-6.9,8.7c-0.5,0.6-1.4,1-2.3,1c-0.9,0-1.8-0.4-2.3-1l-6.9-8.7C295.8,24.7,295.9,23.9,296.4,23.5z
			 M314,38.6h-16.9c-0.6,0-1.1-0.5-1.1-1.1c0-0.6,0.5-1.1,1.1-1.1H314c0.6,0,1.1,0.5,1.1,1.1C315.1,38.1,314.6,38.6,314,38.6z"/>
	</g>
</g>
<g>
	<path class="st0" d="M32.5,15H12.2c-0.5,0-0.9,0.4-0.9,0.9v14c0,0.5,0.4,0.9,0.9,0.9h20.3c0.5,0,0.9-0.4,0.9-0.9v-14
		C33.4,15.4,33,15,32.5,15z"/>
	<g>
		<g>
			<path class="st0" d="M32.5,15H12.2c-0.5,0-0.9,0.4-0.9,0.9v14c0,0.5,0.4,0.9,0.9,0.9h20.3c0.5,0,0.9-0.4,0.9-0.9v-14
				C33.4,15.4,33,15,32.5,15z M22.4,28.6c-3.1,0-5.7-2.6-5.7-5.7s2.6-5.7,5.7-5.7c3.1,0,5.7,2.6,5.7,5.7S25.5,28.6,22.4,28.6z
				 M31.1,18.3h-2.3c-0.6,0-1.1-0.5-1.1-1.1c0-0.6,0.5-1.1,1.1-1.1h2.3c0.6,0,1.1,0.5,1.1,1.1C32.3,17.8,31.7,18.3,31.1,18.3z"/>
			<path class="st0" d="M22.4,19.5c-1.9,0-3.4,1.5-3.4,3.4s1.5,3.4,3.4,3.4c1.9,0,3.4-1.5,3.4-3.4S24.2,19.5,22.4,19.5z"/>
			<path class="st1" d="M22.5,2.5c-11,0-20,9-20,20c0,11,9,20,20,20c11,0,20-9,20-20C42.5,11.5,33.5,2.5,22.5,2.5z M35.7,29.8
				c0,1.8-1.4,3.2-3.2,3.2H12.2C10.4,33,9,31.6,9,29.8v-14c0-1.8,1.4-3.2,3.2-3.2h0.3V12c0-0.4,0.3-0.8,0.8-0.8h2
				c0.4,0,0.8,0.3,0.8,0.8v0.7h16.5c1.8,0,3.2,1.4,3.2,3.2V29.8z"/>
			<g>
				<path class="st1" d="M22.4,19.5c-1.9,0-3.4,1.5-3.4,3.4s1.5,3.4,3.4,3.4c1.9,0,3.4-1.5,3.4-3.4S24.2,19.5,22.4,19.5z"/>
				<path class="st1" d="M32.5,15H12.2c-0.5,0-0.9,0.4-0.9,0.9v14c0,0.5,0.4,0.9,0.9,0.9h20.3c0.5,0,0.9-0.4,0.9-0.9v-14
					C33.4,15.4,33,15,32.5,15z M22.4,28.6c-3.1,0-5.7-2.6-5.7-5.7s2.6-5.7,5.7-5.7c3.1,0,5.7,2.6,5.7,5.7S25.5,28.6,22.4,28.6z
					 M31.1,18.3h-2.3c-0.6,0-1.1-0.5-1.1-1.1c0-0.6,0.5-1.1,1.1-1.1h2.3c0.6,0,1.1,0.5,1.1,1.1C32.3,17.8,31.7,18.3,31.1,18.3z"/>
			</g>
		</g>
	</g>
</g>
</svg>
