<?xml version="1.0" encoding="utf-8"?>
<!-- Generator: Adobe Illustrator 20.0.0, SVG Export Plug-In . SVG Version: 6.00 Build 0)  -->
<svg version="1.1" id="share_拷貝" xmlns="http://www.w3.org/2000/svg" xmlns:xlink="http://www.w3.org/1999/xlink" x="0px"
	 y="0px" viewBox="0 0 60 60" style="enable-background:new 0 0 60 60;" xml:space="preserve">
<style type="text/css">
	.st0{fill:#FFFFFF;}
	.st1{enable-background:new    ;}
</style>
<g id="群組_3">
	<g id="群組_2">
		<ellipse id="橢圓_3" class="st0" cx="37.4" cy="7" rx="5.3" ry="5.5"/>
		<path id="形狀_1" class="st0" d="M33.6,7.2l0.9,1.4L12.2,23.2l-0.9-1.4L33.6,7.2z"/>
		<circle id="橢圓_3_拷貝" class="st0" cx="16.3" cy="20.5" r="5.3"/>
		<circle id="橢圓_3_拷貝_2" class="st0" cx="37.4" cy="33.5" r="5.3"/>
		<path id="形狀_2" class="st0" d="M15.3,21.8l0.8-1.4l21.4,13.8l-0.8,1.4L15.3,21.8z"/>
	</g>
</g>
<g class="st1">
	<path class="st0" d="M3,53.9l1.3-0.1c0.1,0.5,0.2,0.9,0.4,1.3c0.2,0.3,0.6,0.6,1,0.8s1,0.3,1.6,0.3c0.5,0,1-0.1,1.4-0.2
		s0.7-0.4,0.9-0.6s0.3-0.6,0.3-0.9c0-0.3-0.1-0.6-0.3-0.8c-0.2-0.2-0.5-0.4-0.9-0.6c-0.3-0.1-0.9-0.3-1.8-0.5
		c-0.9-0.2-1.6-0.4-2-0.6c-0.5-0.3-0.9-0.6-1.1-1c-0.2-0.4-0.4-0.8-0.4-1.3c0-0.5,0.1-1,0.4-1.5c0.3-0.5,0.7-0.8,1.3-1
		c0.6-0.2,1.2-0.3,1.9-0.3c0.8,0,1.4,0.1,2,0.4c0.6,0.2,1,0.6,1.3,1.1s0.5,1,0.5,1.6l-1.3,0.1c-0.1-0.6-0.3-1.1-0.7-1.5
		s-1-0.5-1.8-0.5c-0.8,0-1.4,0.2-1.8,0.5s-0.6,0.7-0.6,1.1c0,0.4,0.1,0.7,0.4,0.9c0.3,0.2,0.9,0.5,2.1,0.7c1.1,0.2,1.9,0.5,2.3,0.7
		c0.6,0.3,1,0.6,1.3,1c0.3,0.4,0.4,0.9,0.4,1.5c0,0.5-0.2,1.1-0.5,1.5c-0.3,0.5-0.8,0.9-1.4,1.1c-0.6,0.3-1.2,0.4-2,0.4
		c-0.9,0-1.7-0.1-2.3-0.4c-0.6-0.3-1.1-0.7-1.5-1.2S3.1,54.6,3,53.9z"/>
	<path class="st0" d="M13.1,57.2V46.9h1.4v4.2h5.4v-4.2h1.4v10.3h-1.4v-4.8h-5.4v4.8H13.1z"/>
	<path class="st0" d="M22.4,57.2l4-10.3h1.5L32,57.2h-1.6l-1.2-3.1h-4.3l-1.1,3.1H22.4z M25.3,53h3.5l-1.1-2.8
		c-0.3-0.9-0.6-1.6-0.7-2.1c-0.1,0.7-0.3,1.3-0.6,2L25.3,53z"/>
	<path class="st0" d="M33.1,57.2V46.9h4.6c0.9,0,1.6,0.1,2.1,0.3c0.5,0.2,0.9,0.5,1.1,1c0.3,0.5,0.4,1,0.4,1.5
		c0,0.7-0.2,1.3-0.7,1.8s-1.2,0.8-2.2,1c0.4,0.2,0.6,0.3,0.8,0.5c0.4,0.4,0.8,0.8,1.1,1.4l1.8,2.8h-1.7L39.1,55
		c-0.4-0.6-0.7-1.1-1-1.4c-0.3-0.3-0.5-0.6-0.7-0.7c-0.2-0.1-0.4-0.2-0.6-0.3c-0.2,0-0.4,0-0.8,0h-1.6v4.6H33.1z M34.5,51.4h2.9
		c0.6,0,1.1-0.1,1.5-0.2c0.4-0.1,0.6-0.3,0.8-0.6c0.2-0.3,0.3-0.6,0.3-0.9c0-0.5-0.2-0.9-0.5-1.2c-0.4-0.3-0.9-0.5-1.7-0.5h-3.3
		V51.4z"/>
	<path class="st0" d="M43.5,57.2V46.9H51v1.2h-6.1v3.1h5.7v1.2h-5.7V56h6.3v1.2H43.5z"/>
</g>
</svg>
