<?xml version="1.0" encoding="utf-8"?>
<!-- Generator: Adobe Illustrator 20.0.0, SVG Export Plug-In . SVG Version: 6.00 Build 0)  -->
<svg version="1.1" id="圖層_1" xmlns="http://www.w3.org/2000/svg" xmlns:xlink="http://www.w3.org/1999/xlink" x="0px" y="0px"
	 viewBox="0 0 142 142" style="enable-background:new 0 0 142 142;" xml:space="preserve">
<style type="text/css">
	.st0{enable-background:new    ;}
	.st1{fill:#D6000F;}
	.st2{fill:#9D9D9E;}
	.st3{fill:none;stroke:#D6000F;stroke-width:2;stroke-linecap:round;stroke-miterlimit:10;}
	.st4{fill:none;stroke:#D6000F;stroke-width:0.75;stroke-linecap:round;stroke-miterlimit:10;}
	.st5{fill:none;stroke:#F6B42C;stroke-width:2;stroke-linecap:round;stroke-miterlimit:10;}
	.st6{fill:#FFFFFF;}
	.st7{fill:none;stroke:#FFFFFF;stroke-width:2;stroke-linecap:round;stroke-miterlimit:10;}
	.st8{fill:none;stroke:#FFFFFF;stroke-width:0.75;stroke-linecap:round;stroke-miterlimit:10;}
	.st9{clip-path:url(#SVGID_2_);fill:#FFFFFF;}
</style>
<g>
	<g>
		<g class="st0">
			<path class="st1" d="M675,18l-0.7,1.8c-1.4,0-2.5,0-3.5,0c-2,0-3.7,0-5-0.1s-2.5-0.4-3.4-0.8s-1.7-1.1-2.4-1.9
				c-1.1,1.5-2.1,2.6-3,3.3l-1.3-1.6c1.7-1.1,3.1-3,4.1-5.7l1.9,0.5c-0.2,0.6-0.5,1.2-0.8,1.8c0.7,1.1,2,1.9,3.7,2.4v-5.5h-8.7v-1.7
				h18.9v1.7h-8.2v2h7.1v1.7h-7.1v2C668,18,670.8,18,675,18z M672.4,9.1h-13.9V1.5h13.9V9.1z M670.4,4.5V3.2h-9.9v1.3H670.4z
				 M670.4,7.4V6.1h-9.9v1.3H670.4z"/>
			<path class="st1" d="M685.8,1.4c-0.2,0.6-0.6,1.4-1,2.4l-0.7,1.4V20h-2V9c-0.6,0.8-1.1,1.5-1.6,2.1l-1.1-2c1.7-2,3.1-4.7,4.4-8.1
				L685.8,1.4z M698.5,9.2h-5.7v10.9h-2V9.2h-5.8v-2h5.8V1.1h2v6.1h5.7V9.2z"/>
			<path class="st1" d="M722.2,4.2h-3.4v1.2h3v1.5h-3v5.2H717V6.9h-2.6V5.4h2.6V4.2h-5.9v1.2h2.6v1.5h-2.6v5.2h-1.7V6.9h-2.5V5.4
				h2.5V4.2h-3.2v10.1c0,2.2-0.4,4.2-1.3,6.1l-1.6-1.3c0.7-1.7,1.1-3.6,1.1-5.7V2.5h7.9c-0.2-0.4-0.3-0.7-0.5-1l1.9-0.6
				c0.3,0.6,0.5,1.1,0.8,1.6h7.8V4.2z M708.9,7.8c-0.1,1.5-0.4,2.9-0.9,4.3l-1.3-0.7c0.5-1.3,0.7-2.6,0.8-3.8L708.9,7.8z
				 M722.4,19.4l-1.7,0.9c-0.3-0.4-0.6-0.8-0.9-1.2c-5.2,0.5-9.5,0.8-12.9,0.9l-0.2-1.4c1.8-0.4,4-1.2,6.5-2.5
				c-1.9,0.1-3.8,0.2-5.7,0.1l-0.2-1.4c2-0.4,3.9-1.4,5.6-3l1.9,0.7c-1.2,1-2.5,1.7-3.7,2.2l3-0.2l2-0.2c0.1,0,0.5-0.3,1.2-0.8
				c0.4-0.3,0.8-0.6,1.1-1l1.9,0.7c-2,2-5.1,3.7-9.1,5.1c2.1-0.1,4.5-0.3,7.2-0.6c-0.5-0.6-1-1.1-1.2-1.4l1.6-0.9
				C720.4,16.8,721.5,18.1,722.4,19.4z M714,11.3h-1.2c-0.7,0-1-0.4-1-1.2V7.6h1.4v1.9c0,0.2,0.1,0.3,0.3,0.3h0.4V11.3z M716.5,7.8
				c0,1.5-0.3,2.9-0.9,4.4l-1.3-0.7c0.5-1.4,0.7-2.6,0.8-3.9L716.5,7.8z M722.2,11.8h-1.4c-0.9,0-1.3-0.4-1.3-1.3V7.6h1.4v2.3
				c0,0.2,0.1,0.3,0.3,0.3h1V11.8z"/>
			<path class="st1" d="M729,14.4c-0.2-0.5-0.3-1-0.3-1.6c0-0.6,0.1-1.1,0.4-1.6c0.3-0.5,0.8-1.1,1.5-1.7c0.8-0.8,1.4-1.4,1.6-1.8
				c0.2-0.4,0.3-0.8,0.3-1.2c0-0.6-0.2-1.1-0.7-1.5c-0.4-0.4-1-0.6-1.7-0.6c-1.3,0-2.5,0.5-3.5,1.5V3.4c1.2-0.7,2.4-1.1,3.8-1.1
				c1.4,0,2.4,0.3,3.3,1c0.8,0.7,1.2,1.6,1.2,2.8c0,0.7-0.2,1.3-0.5,2c-0.3,0.6-0.9,1.3-1.8,2c-0.8,0.7-1.3,1.3-1.5,1.7
				s-0.3,0.8-0.3,1.1c0,0.5,0.1,1,0.3,1.5H729z M728.7,17.7c0-0.4,0.2-0.8,0.5-1.1c0.3-0.3,0.7-0.4,1.1-0.4c0.4,0,0.8,0.1,1.1,0.4
				s0.5,0.6,0.5,1.1c0,0.4-0.1,0.8-0.4,1c-0.3,0.3-0.7,0.4-1.1,0.4c-0.5,0-0.9-0.1-1.2-0.4C728.9,18.5,728.7,18.1,728.7,17.7z"/>
		</g>
	</g>
	<g>
		<g>
			<g>
				<g>
					<g class="st0">
						<path class="st2" d="M541,0.2h3.1h11.6l-0.4,3h-11.5l-1,7.3h10.7l-0.4,3h-10.7l-1.4,10.1h-3.2L541,0.2z"/>
						<path class="st2" d="M556.9,9.8c0.9-0.8,2-1.3,3.1-1.7s2.3-0.6,3.4-0.6c1.1,0,2.1,0.1,2.9,0.4c0.8,0.3,1.4,0.7,1.9,1.2
							s0.8,1,0.9,1.7c0.2,0.6,0.2,1.3,0.1,2l-1.1,8c-0.1,0.5-0.2,1.1-0.2,1.5s-0.1,0.9-0.1,1.3h-2.6c0-0.4,0-0.8,0.1-1.2
							c0-0.4,0.1-0.8,0.1-1.2h-0.1c-0.8,1-1.7,1.7-2.6,2.1c-1,0.4-2,0.6-3.2,0.6c-0.7,0-1.4-0.1-2-0.3c-0.6-0.2-1.2-0.5-1.6-0.9
							c-0.4-0.4-0.8-0.9-1-1.5c-0.2-0.6-0.3-1.3-0.1-2c0.1-1,0.5-1.9,1-2.5c0.5-0.7,1.2-1.2,2.1-1.7c0.8-0.4,1.8-0.7,2.9-0.9
							c1.1-0.2,2.2-0.3,3.4-0.3h2.2l0.1-0.7c0.1-0.4,0-0.8,0-1.2c-0.1-0.4-0.3-0.8-0.5-1.1c-0.3-0.3-0.6-0.6-1.1-0.8
							c-0.4-0.2-1-0.3-1.6-0.3c-0.6,0-1.1,0.1-1.5,0.2c-0.5,0.1-0.9,0.2-1.2,0.4c-0.4,0.2-0.7,0.4-1,0.6c-0.3,0.2-0.6,0.4-0.9,0.6
							L556.9,9.8z M564.4,16c-0.7,0-1.4,0-2.2,0.1s-1.4,0.2-2.1,0.4c-0.6,0.2-1.2,0.5-1.6,0.9c-0.4,0.4-0.7,0.9-0.8,1.5
							c-0.1,0.9,0.1,1.5,0.6,1.9c0.5,0.4,1.3,0.6,2.4,0.6c0.8,0,1.5-0.1,2.1-0.4c0.6-0.3,1.1-0.6,1.5-1.1c0.4-0.4,0.7-0.9,1-1.5
							c0.2-0.5,0.4-1.1,0.4-1.6l0.2-1H564.4z"/>
					</g>
					<g class="st0">
						<path class="st2" d="M579.6,11.8c-0.3-0.4-0.7-0.8-1.1-1.1c-0.5-0.3-1.1-0.4-1.8-0.4c-0.7,0-1.3,0.1-1.9,0.4s-0.9,0.7-0.9,1.3
							c-0.1,0.5,0,0.8,0.3,1.1c0.3,0.3,0.6,0.5,1,0.7c0.4,0.2,0.8,0.3,1.2,0.4c0.4,0.1,0.8,0.2,1.2,0.2c0.6,0.2,1.2,0.3,1.7,0.6
							c0.5,0.2,1,0.5,1.3,0.9c0.4,0.4,0.6,0.8,0.8,1.3c0.2,0.5,0.2,1.1,0.1,1.8c-0.1,0.9-0.4,1.6-0.9,2.3c-0.5,0.6-1,1.1-1.7,1.5
							c-0.7,0.4-1.4,0.7-2.2,0.9c-0.8,0.2-1.6,0.3-2.3,0.3c-1.3,0-2.4-0.2-3.3-0.6c-0.9-0.4-1.7-1.1-2.3-2.2l2.5-1.8
							c0.4,0.5,0.9,0.9,1.5,1.3c0.6,0.4,1.3,0.6,2.1,0.6c0.8,0,1.5-0.2,2.2-0.5c0.7-0.3,1.1-0.8,1.2-1.5c0.1-0.4,0-0.8-0.2-1.1
							s-0.5-0.5-0.9-0.7c-0.4-0.2-0.8-0.3-1.2-0.4c-0.4-0.1-0.8-0.2-1.1-0.2c-0.6-0.2-1.2-0.3-1.8-0.5c-0.6-0.2-1-0.5-1.4-0.8
							c-0.4-0.3-0.7-0.7-0.9-1.3s-0.2-1.1-0.1-1.9c0.1-0.8,0.4-1.5,0.8-2.1s0.9-1.1,1.6-1.5c0.6-0.4,1.3-0.7,2-0.9
							c0.7-0.2,1.5-0.3,2.2-0.3c1.1,0,2,0.2,2.9,0.6c0.9,0.4,1.6,1.1,2,2L579.6,11.8z"/>
						<path class="st2" d="M594.5,10.5h-4.3l-1,7.1c-0.1,0.4-0.1,0.9-0.1,1.3s0,0.8,0.1,1.2c0.1,0.3,0.3,0.6,0.5,0.8
							c0.3,0.2,0.7,0.3,1.3,0.3c0.4,0,0.7,0,1.1-0.1c0.4-0.1,0.7-0.2,1.1-0.4l-0.4,2.7c-0.2,0.1-0.4,0.2-0.7,0.3
							c-0.3,0.1-0.5,0.1-0.8,0.1c-0.3,0-0.5,0.1-0.7,0.1c-0.2,0-0.4,0-0.6,0c-1.1,0-2-0.2-2.6-0.5c-0.6-0.3-1-0.7-1.2-1.2
							s-0.3-1.1-0.3-1.7s0.1-1.3,0.2-1.9l1.2-8.1h-3.4l0.4-2.6h3.4l0.6-4.4h3l-0.6,4.4h4.3L594.5,10.5z"/>
						<path class="st2" d="M598.5,9.8c0.9-0.8,2-1.3,3.1-1.7c1.2-0.4,2.3-0.6,3.4-0.6c1.1,0,2.1,0.1,2.9,0.4s1.4,0.7,1.9,1.2
							s0.8,1,0.9,1.7c0.2,0.6,0.2,1.3,0.1,2l-1.1,8c-0.1,0.5-0.2,1.1-0.2,1.5s-0.1,0.9-0.1,1.3h-2.6c0-0.4,0-0.8,0.1-1.2
							c0-0.4,0.1-0.8,0.1-1.2h-0.1c-0.8,1-1.7,1.7-2.6,2.1c-1,0.4-2,0.6-3.2,0.6c-0.7,0-1.4-0.1-2-0.3c-0.6-0.2-1.2-0.5-1.6-0.9
							c-0.4-0.4-0.8-0.9-1-1.5c-0.2-0.6-0.3-1.3-0.1-2c0.1-1,0.5-1.9,1-2.5c0.5-0.7,1.2-1.2,2.1-1.7s1.8-0.7,2.9-0.9
							s2.2-0.3,3.4-0.3h2.2l0.1-0.7c0.1-0.4,0-0.8,0-1.2c-0.1-0.4-0.3-0.8-0.5-1.1c-0.3-0.3-0.6-0.6-1.1-0.8c-0.4-0.2-1-0.3-1.6-0.3
							c-0.6,0-1.1,0.1-1.5,0.2c-0.5,0.1-0.9,0.2-1.2,0.4c-0.4,0.2-0.7,0.4-1,0.6c-0.3,0.2-0.6,0.4-0.9,0.6L598.5,9.8z M606,16
							c-0.7,0-1.4,0-2.2,0.1c-0.8,0.1-1.4,0.2-2.1,0.4c-0.6,0.2-1.2,0.5-1.6,0.9c-0.4,0.4-0.7,0.9-0.8,1.5c-0.1,0.9,0.1,1.5,0.6,1.9
							c0.6,0.4,1.3,0.6,2.4,0.6c0.8,0,1.5-0.1,2.1-0.4c0.6-0.3,1.1-0.6,1.5-1.1c0.4-0.4,0.7-0.9,1-1.5c0.2-0.5,0.4-1.1,0.4-1.6
							l0.2-1H606z"/>
						<path class="st2" d="M629.2,23.4c-0.2,1.2-0.5,2.3-1.1,3.2c-0.5,1-1.2,1.8-2.1,2.5s-1.8,1.3-2.9,1.7c-1.1,0.4-2.3,0.6-3.6,0.6
							c-1.5,0-2.8-0.2-4-0.6c-1.2-0.4-2.3-1.1-3.2-2.2l2.3-2.5c0.7,0.8,1.4,1.5,2.3,1.9c0.8,0.4,1.8,0.6,3,0.6c1.1,0,2-0.2,2.8-0.5
							c0.8-0.3,1.4-0.7,1.9-1.2s0.9-1.1,1.1-1.7c0.3-0.6,0.4-1.3,0.6-2l0.3-2.3h-0.1c-0.7,0.9-1.6,1.6-2.6,2.1
							c-1,0.5-2.1,0.7-3.2,0.7c-1.1,0-2.2-0.2-3.1-0.6c-0.9-0.4-1.7-1-2.3-1.7s-1-1.6-1.3-2.5s-0.3-2-0.1-3.2c0.2-1.1,0.5-2.2,1-3.2
							c0.5-1,1.2-1.9,2-2.6c0.8-0.7,1.7-1.3,2.7-1.7c1-0.4,2.2-0.6,3.4-0.6c1.1,0,2,0.2,3,0.7c0.9,0.5,1.6,1.1,2.1,1.9h0.1l0.3-2.2
							h3L629.2,23.4z M622.9,10.3c-0.8,0-1.5,0.1-2.2,0.4c-0.7,0.3-1.3,0.6-1.8,1.1c-0.5,0.5-0.9,1-1.3,1.7
							c-0.3,0.7-0.5,1.4-0.7,2.2c-0.2,1.6,0,2.8,0.8,3.8s2,1.4,3.6,1.4c1.6,0,2.9-0.5,4-1.4c1.1-1,1.7-2.2,1.9-3.8
							c0.1-0.8,0.1-1.5,0-2.2c-0.1-0.7-0.4-1.2-0.8-1.7c-0.4-0.5-0.9-0.8-1.5-1.1C624.4,10.4,623.7,10.3,622.9,10.3z"/>
					</g>
					<g class="st0">
						<path class="st1" d="M541,0.2h3.1h11.6l-0.4,3h-11.5l-1,7.3h10.7l-0.4,3h-10.7l-1.4,10.1h-3.2L541,0.2z"/>
						<path class="st1" d="M556.9,9.8c0.9-0.8,2-1.3,3.1-1.7s2.3-0.6,3.4-0.6c1.1,0,2.1,0.1,2.9,0.4c0.8,0.3,1.4,0.7,1.9,1.2
							s0.8,1,0.9,1.7c0.2,0.6,0.2,1.3,0.1,2l-1.1,8c-0.1,0.5-0.2,1.1-0.2,1.5s-0.1,0.9-0.1,1.3h-2.6c0-0.4,0-0.8,0.1-1.2
							c0-0.4,0.1-0.8,0.1-1.2h-0.1c-0.8,1-1.7,1.7-2.6,2.1c-1,0.4-2,0.6-3.2,0.6c-0.7,0-1.4-0.1-2-0.3c-0.6-0.2-1.2-0.5-1.6-0.9
							c-0.4-0.4-0.8-0.9-1-1.5c-0.2-0.6-0.3-1.3-0.1-2c0.1-1,0.5-1.9,1-2.5c0.5-0.7,1.2-1.2,2.1-1.7c0.8-0.4,1.8-0.7,2.9-0.9
							c1.1-0.2,2.2-0.3,3.4-0.3h2.2l0.1-0.7c0.1-0.4,0-0.8,0-1.2c-0.1-0.4-0.3-0.8-0.5-1.1c-0.3-0.3-0.6-0.6-1.1-0.8
							c-0.4-0.2-1-0.3-1.6-0.3c-0.6,0-1.1,0.1-1.5,0.2c-0.5,0.1-0.9,0.2-1.2,0.4c-0.4,0.2-0.7,0.4-1,0.6c-0.3,0.2-0.6,0.4-0.9,0.6
							L556.9,9.8z M564.4,16c-0.7,0-1.4,0-2.2,0.1s-1.4,0.2-2.1,0.4c-0.6,0.2-1.2,0.5-1.6,0.9c-0.4,0.4-0.7,0.9-0.8,1.5
							c-0.1,0.9,0.1,1.5,0.6,1.9c0.5,0.4,1.3,0.6,2.4,0.6c0.8,0,1.5-0.1,2.1-0.4c0.6-0.3,1.1-0.6,1.5-1.1c0.4-0.4,0.7-0.9,1-1.5
							c0.2-0.5,0.4-1.1,0.4-1.6l0.2-1H564.4z"/>
					</g>
					<g class="st0">
						<path class="st1" d="M579.6,11.8c-0.3-0.4-0.7-0.8-1.1-1.1c-0.5-0.3-1.1-0.4-1.8-0.4c-0.7,0-1.3,0.1-1.9,0.4s-0.9,0.7-0.9,1.3
							c-0.1,0.5,0,0.8,0.3,1.1c0.3,0.3,0.6,0.5,1,0.7c0.4,0.2,0.8,0.3,1.2,0.4c0.4,0.1,0.8,0.2,1.2,0.2c0.6,0.2,1.2,0.3,1.7,0.6
							c0.5,0.2,1,0.5,1.3,0.9c0.4,0.4,0.6,0.8,0.8,1.3c0.2,0.5,0.2,1.1,0.1,1.8c-0.1,0.9-0.4,1.6-0.9,2.3c-0.5,0.6-1,1.1-1.7,1.5
							c-0.7,0.4-1.4,0.7-2.2,0.9c-0.8,0.2-1.6,0.3-2.3,0.3c-1.3,0-2.4-0.2-3.3-0.6c-0.9-0.4-1.7-1.1-2.3-2.2l2.5-1.8
							c0.4,0.5,0.9,0.9,1.5,1.3c0.6,0.4,1.3,0.6,2.1,0.6c0.8,0,1.5-0.2,2.2-0.5c0.7-0.3,1.1-0.8,1.2-1.5c0.1-0.4,0-0.8-0.2-1.1
							s-0.5-0.5-0.9-0.7c-0.4-0.2-0.8-0.3-1.2-0.4c-0.4-0.1-0.8-0.2-1.1-0.2c-0.6-0.2-1.2-0.3-1.8-0.5c-0.6-0.2-1-0.5-1.4-0.8
							c-0.4-0.3-0.7-0.7-0.9-1.3s-0.2-1.1-0.1-1.9c0.1-0.8,0.4-1.5,0.8-2.1s0.9-1.1,1.6-1.5c0.6-0.4,1.3-0.7,2-0.9
							c0.7-0.2,1.5-0.3,2.2-0.3c1.1,0,2,0.2,2.9,0.6c0.9,0.4,1.6,1.1,2,2L579.6,11.8z"/>
						<path class="st1" d="M594.5,10.5h-4.3l-1,7.1c-0.1,0.4-0.1,0.9-0.1,1.3s0,0.8,0.1,1.2c0.1,0.3,0.3,0.6,0.5,0.8
							c0.3,0.2,0.7,0.3,1.3,0.3c0.4,0,0.7,0,1.1-0.1c0.4-0.1,0.7-0.2,1.1-0.4l-0.4,2.7c-0.2,0.1-0.4,0.2-0.7,0.3
							c-0.3,0.1-0.5,0.1-0.8,0.1c-0.3,0-0.5,0.1-0.7,0.1c-0.2,0-0.4,0-0.6,0c-1.1,0-2-0.2-2.6-0.5c-0.6-0.3-1-0.7-1.2-1.2
							s-0.3-1.1-0.3-1.7s0.1-1.3,0.2-1.9l1.2-8.1h-3.4l0.4-2.6h3.4l0.6-4.4h3l-0.6,4.4h4.3L594.5,10.5z"/>
						<path class="st1" d="M598.5,9.8c0.9-0.8,2-1.3,3.1-1.7c1.2-0.4,2.3-0.6,3.4-0.6c1.1,0,2.1,0.1,2.9,0.4s1.4,0.7,1.9,1.2
							s0.8,1,0.9,1.7c0.2,0.6,0.2,1.3,0.1,2l-1.1,8c-0.1,0.5-0.2,1.1-0.2,1.5s-0.1,0.9-0.1,1.3h-2.6c0-0.4,0-0.8,0.1-1.2
							c0-0.4,0.1-0.8,0.1-1.2h-0.1c-0.8,1-1.7,1.7-2.6,2.1c-1,0.4-2,0.6-3.2,0.6c-0.7,0-1.4-0.1-2-0.3c-0.6-0.2-1.2-0.5-1.6-0.9
							c-0.4-0.4-0.8-0.9-1-1.5c-0.2-0.6-0.3-1.3-0.1-2c0.1-1,0.5-1.9,1-2.5c0.5-0.7,1.2-1.2,2.1-1.7s1.8-0.7,2.9-0.9
							s2.2-0.3,3.4-0.3h2.2l0.1-0.7c0.1-0.4,0-0.8,0-1.2c-0.1-0.4-0.3-0.8-0.5-1.1c-0.3-0.3-0.6-0.6-1.1-0.8c-0.4-0.2-1-0.3-1.6-0.3
							c-0.6,0-1.1,0.1-1.5,0.2c-0.5,0.1-0.9,0.2-1.2,0.4c-0.4,0.2-0.7,0.4-1,0.6c-0.3,0.2-0.6,0.4-0.9,0.6L598.5,9.8z M606,16
							c-0.7,0-1.4,0-2.2,0.1c-0.8,0.1-1.4,0.2-2.1,0.4c-0.6,0.2-1.2,0.5-1.6,0.9c-0.4,0.4-0.7,0.9-0.8,1.5c-0.1,0.9,0.1,1.5,0.6,1.9
							c0.6,0.4,1.3,0.6,2.4,0.6c0.8,0,1.5-0.1,2.1-0.4c0.6-0.3,1.1-0.6,1.5-1.1c0.4-0.4,0.7-0.9,1-1.5c0.2-0.5,0.4-1.1,0.4-1.6
							l0.2-1H606z"/>
						<path class="st1" d="M629.2,23.4c-0.2,1.2-0.5,2.3-1.1,3.2c-0.5,1-1.2,1.8-2.1,2.5s-1.8,1.3-2.9,1.7c-1.1,0.4-2.3,0.6-3.6,0.6
							c-1.5,0-2.8-0.2-4-0.6c-1.2-0.4-2.3-1.1-3.2-2.2l2.3-2.5c0.7,0.8,1.4,1.5,2.3,1.9c0.8,0.4,1.8,0.6,3,0.6c1.1,0,2-0.2,2.8-0.5
							c0.8-0.3,1.4-0.7,1.9-1.2s0.9-1.1,1.1-1.7c0.3-0.6,0.4-1.3,0.6-2l0.3-2.3h-0.1c-0.7,0.9-1.6,1.6-2.6,2.1
							c-1,0.5-2.1,0.7-3.2,0.7c-1.1,0-2.2-0.2-3.1-0.6c-0.9-0.4-1.7-1-2.3-1.7s-1-1.6-1.3-2.5s-0.3-2-0.1-3.2c0.2-1.1,0.5-2.2,1-3.2
							c0.5-1,1.2-1.9,2-2.6c0.8-0.7,1.7-1.3,2.7-1.7c1-0.4,2.2-0.6,3.4-0.6c1.1,0,2,0.2,3,0.7c0.9,0.5,1.6,1.1,2.1,1.9h0.1l0.3-2.2
							h3L629.2,23.4z M622.9,10.3c-0.8,0-1.5,0.1-2.2,0.4c-0.7,0.3-1.3,0.6-1.8,1.1c-0.5,0.5-0.9,1-1.3,1.7
							c-0.3,0.7-0.5,1.4-0.7,2.2c-0.2,1.6,0,2.8,0.8,3.8s2,1.4,3.6,1.4c1.6,0,2.9-0.5,4-1.4c1.1-1,1.7-2.2,1.9-3.8
							c0.1-0.8,0.1-1.5,0-2.2c-0.1-0.7-0.4-1.2-0.8-1.7c-0.4-0.5-0.9-0.8-1.5-1.1C624.4,10.4,623.7,10.3,622.9,10.3z"/>
					</g>
				</g>
				<g>
					<g class="st0">
						<path class="st2" d="M418.8,12.6l-1-2.2c3.3-0.9,5.5-2.4,6.7-4.5h-5.4l0.3-2.1h5.9l0-0.3l0.3-2.5H423
							c-0.5,0.8-1.2,1.6-2.2,2.5c-0.5-0.8-0.9-1.3-1.4-1.7c1.4-1.3,2.5-2.9,3.2-4.8l2.1,1L424.2-1h8.4l-0.2,2h-4.6l-0.3,2.5l0,0.3
							h5.2L432.3,6h-5c1.5,1,2.9,2.2,4.3,3.4l-1.6,2c-1.1-1.2-2.5-2.4-4.2-3.8C424.2,9.8,421.8,11.5,418.8,12.6z M438.7,23.6h-18.5
							c-0.2,0-0.3-0.1-0.3-0.3l1.3-11c0-0.2,0.1-0.3,0.4-0.3h18.5c0.2,0,0.3,0.1,0.3,0.3l-1.3,11C439.1,23.5,439,23.6,438.7,23.6z
							 M422.8,18.9l-0.3,2.3c0,0.1,0,0.1,0.1,0.1h14.2l0.1-0.1l0.3-2.3H422.8z M437.5,16.7l0.3-2.4c0-0.1,0-0.1-0.1-0.1h-14.2
							c-0.1,0-0.1,0-0.1,0.1l-0.3,2.4H437.5z M442.6,10.4h-9.4c-0.2,0-0.3-0.1-0.3-0.3l1.3-11.2c0-0.2,0.1-0.3,0.3-0.3h9.4
							c0.2,0,0.3,0.1,0.3,0.3l-1.3,11.2C442.9,10.3,442.8,10.4,442.6,10.4z M436.4,0.7C436.3,0.7,436.3,0.8,436.4,0.7l-1,7.4
							l0.1,0.1h5.3l0.1-0.1l0.9-7.4l-0.1-0.1H436.4z"/>
						<path class="st2" d="M449.5,19.8c-1.3,1.9-2.6,3.4-4.1,4.5c-0.4-0.8-0.8-1.5-1.2-1.9c1.3-1,2.4-2.3,3.3-3.9L449.5,19.8z
							 M467.3,16.8c-0.1,0.5-0.3,0.7-0.8,0.7h-17.7l0.2-2H465c0.1,0,0.2-0.1,0.2-0.2l0.1-1.1h-20l0.2-1.9h20l0.1-1.2
							c0-0.1,0-0.2-0.2-0.2h-16l0.2-2h17.8c0.5,0,0.7,0.2,0.6,0.7l-0.3,2.7h3.8l-0.2,1.9h-3.8L467.3,16.8z M446.9,7.5l0-2l5.1-0.1
							l0.2-1.4h-4.6l0.2-1.9h4.6l0.1-1.2h-5.1l0.2-1.9h5.1l0.2-1.7h2.3l-0.2,1.7h4.3l-0.2,1.9h-4.3L454.7,2h3.7l-0.2,1.9h-3.7
							l-0.1,1.2c1.6-0.2,3-0.4,3.9-0.5l0,2c-0.9,0.2-2.3,0.4-4.2,0.6l-0.1,1h-2.3l0.1-0.9L446.9,7.5z M461.7,21.9
							c0.4,0,0.7-0.1,1-0.2c0.2-0.1,0.4-0.3,0.6-0.5l0.3-1.8l2.4,0.2c-0.2,2.1-0.5,3.4-0.9,3.6c-0.6,0.7-1.6,1-2.8,1H453
							c-0.7,0-1.2-0.2-1.5-0.5c-0.7-0.6-1-1.7-0.8-3.2l0.3-2.8h2.4l-0.3,2.4c-0.1,0.6-0.1,1,0,1.1c0.1,0.3,0.5,0.5,1.2,0.5h4.2
							c-0.7-1.1-1.4-2-2-2.6l1.8-1.6c0.7,0.7,1.4,1.7,2.2,2.9l-1.6,1.3H461.7z M459.2,7.1l0.2-1.9h5.2l0.2-1.3h-4.1l0.2-1.9h4.1
							l0.2-1.3h-4.6l0.2-1.9h4.6l0.2-1.6h2.3l-0.2,1.6h5l-0.2,1.9h-5L467.3,2h4.1l-0.2,1.9h-4.1L467,5.2h5.3L472,7.1h-5.3l-0.1,1.1
							h-2.3l0.1-1.1H459.2z M468.2,18.2c0.8,1.3,1.5,2.9,2.2,5l-2.2,1c-0.7-2-1.3-3.6-2-4.6L468.2,18.2z"/>
						<path class="st2" d="M477.9,24h-2.3l1.4-11.4c-0.6,1.3-1.2,2.4-1.7,3.3l-2.3-0.5c2.1-3.2,3.6-6.5,4.6-10h-3l0.3-2.5h3.3
							l0.7-5.6h2.3L480.4,3h2.1l-0.3,2.5h-2.1l-0.1,0.7c0.9,1.8,1.8,3.6,2.6,5.5l-2.2,1.3l-0.9-2.4L477.9,24z M485.5,19.3
							c-2,2.1-3.9,3.4-5.6,4.1l-1.2-2.1c2.1-0.9,3.8-2.2,5.1-3.7L485.5,19.3z M480.9,17.1l0.3-2.4h17.9l-0.3,2.4h-7.5l-0.5,4.5
							c-0.1,1.1-0.7,1.9-1.6,2.5c-0.9,0.6-2.6,0.5-5-0.3l0.4-2.6l1.6,0.6c0.9,0.2,1.5,0.2,1.8,0c0.2-0.2,0.3-0.4,0.3-0.8l0.5-3.8
							H480.9z M499.8,2.2c0.2,0,0.3,0.1,0.3,0.3l-0.8,6.6c0,0.2-0.2,0.3-0.4,0.3h-15.8c-0.2,0-0.3-0.1-0.3-0.3l0.8-6.6
							c0-0.2,0.1-0.3,0.3-0.3h4.4l0.2-1.7h-5.3l0.3-2.3h17.6l-0.3,2.3h-5.3l-0.2,1.7H499.8z M498.3,10.8l-0.3,2.4h-14.5l0.3-2.4
							H498.3z M488.1,4.4h-2.3c-0.1,0-0.1,0-0.1,0.1l-0.3,2.6l0.1,0.1h2.3L488.1,4.4z M492.8,4.4h-2.4l-0.3,2.8h2.4L492.8,4.4z
							 M493.3,0.4h-2.4l-0.2,1.7h2.4L493.3,0.4z M494.7,18.2c1.2,0.9,2.5,2.2,3.8,4l-1.9,1.8c-1.4-1.8-2.6-3.1-3.7-3.9L494.7,18.2z
							 M494.8,7.2h2.4l0.1-0.1l0.3-2.6l-0.1-0.1h-2.4L494.8,7.2z"/>
						<path class="st2" d="M500.5,23.3l0-2.1l5.9-0.3l0.2-2.1h-5.2l0.2-1.8h5.2l0.2-1.5h-5.2l0.2-1.8h5.2l0.2-1.4h-5.3l0.2-1.8h5.3
							l0.2-1.5h-5.6l0.2-1.9h7.1l-2-1.8c-0.7,0.6-1.4,1.1-2.3,1.5l-1-1.7c1.6-0.8,2.9-1.8,3.9-3.1l1.4,1.3l-0.6,0.7l1.9,1.4
							l-1.3,1.7h10.1l0.1-4.1l2.2,0.2l-0.1,3.9h6.2l-0.2,1.9h-5.9c0.1,2.5,0.2,4.6,0.4,6.3c0.4-0.7,1.1-2.2,1.9-4.6l2,0.5
							c-0.9,2.7-2,5-3.4,7l0.7,2.5c0.2,0.6,0.4,1,0.5,0.9c0.2,0,0.3-0.2,0.3-0.6c0.2-0.9,0.3-1.9,0.4-3.2l2.1,0.5
							c-0.3,2.3-0.8,4-1.4,5.2c-0.3,0.4-0.6,0.7-0.8,0.8c-0.2,0.1-0.5,0.2-0.8,0.1c-0.5,0-1-0.4-1.5-1c-0.5-0.8-0.9-1.9-1.3-3.3
							c-1.9,1.8-3.5,3.1-4.8,4l-1.5-1.5l0.5-0.3L500.5,23.3z M506.5,1c-0.8,0.9-1.8,1.7-2.9,2.5c-0.3-0.8-0.6-1.4-1-1.9
							c1.7-1.1,3.1-2.6,4.3-4.5l1.8,1.3L508.2-1h7.1l-0.2,2h-3.1l0.6,1l-1.7,1.3L509.4,1H506.5z M510.9,20.6l1.4-11.5H510l-1.4,11.7
							L510.9,20.6z M512.8,7l-1.3-1.4c1.3-0.8,2.3-1.9,3.1-3.1l1.6,1L515.8,4l2.4,1.4l-1.1,1.8l-2.4-1.7L512.8,7z M520.5,17.8
							c-0.5-2.5-0.8-5.5-0.9-8.8h-5.2l-0.2,1.5h4.5l-0.2,1.8h-4.5l-0.2,1.4h4.5l-0.2,1.8h-4.5l-0.2,1.5h4.5l-0.2,1.8h-4.5l-0.2,1.7
							l4.1-0.3l-0.1,0.9l2.6-2.2L520.5,17.8z M518.3,1l-0.1,0.1c-0.7,0.7-1.4,1.4-2.2,2c-0.3-0.8-0.7-1.4-1.1-1.8
							c1.4-1,2.6-2.5,3.6-4.2l1.9,1.2L519.9-1h9.1l-0.2,2h-5.2l0.4,1.2L522,3.2L521.2,1H518.3z M524.8,2.6c0.8,0.5,1.6,1.2,2.5,2.1
							l-1.6,1.8c-0.9-0.9-1.7-1.6-2.3-2L524.8,2.6z"/>
					</g>
					<g class="st0">
						<path class="st1" d="M418.8,12.6l-1-2.2c3.3-0.9,5.5-2.4,6.7-4.5h-5.4l0.3-2.1h5.9l0-0.3l0.3-2.5H423
							c-0.5,0.8-1.2,1.6-2.2,2.5c-0.5-0.8-0.9-1.3-1.4-1.7c1.4-1.3,2.5-2.9,3.2-4.8l2.1,1L424.2-1h8.4l-0.2,2h-4.6l-0.3,2.5l0,0.3
							h5.2L432.3,6h-5c1.5,1,2.9,2.2,4.3,3.4l-1.6,2c-1.1-1.2-2.5-2.4-4.2-3.8C424.2,9.8,421.8,11.5,418.8,12.6z M438.7,23.6h-18.5
							c-0.2,0-0.3-0.1-0.3-0.3l1.3-11c0-0.2,0.1-0.3,0.4-0.3h18.5c0.2,0,0.3,0.1,0.3,0.3l-1.3,11C439.1,23.5,439,23.6,438.7,23.6z
							 M422.8,18.9l-0.3,2.3c0,0.1,0,0.1,0.1,0.1h14.2l0.1-0.1l0.3-2.3H422.8z M437.5,16.7l0.3-2.4c0-0.1,0-0.1-0.1-0.1h-14.2
							c-0.1,0-0.1,0-0.1,0.1l-0.3,2.4H437.5z M442.6,10.4h-9.4c-0.2,0-0.3-0.1-0.3-0.3l1.3-11.2c0-0.2,0.1-0.3,0.3-0.3h9.4
							c0.2,0,0.3,0.1,0.3,0.3l-1.3,11.2C442.9,10.3,442.8,10.4,442.6,10.4z M436.4,0.7C436.3,0.7,436.3,0.8,436.4,0.7l-1,7.4
							l0.1,0.1h5.3l0.1-0.1l0.9-7.4l-0.1-0.1H436.4z"/>
						<path class="st1" d="M449.5,19.8c-1.3,1.9-2.6,3.4-4.1,4.5c-0.4-0.8-0.8-1.5-1.2-1.9c1.3-1,2.4-2.3,3.3-3.9L449.5,19.8z
							 M467.3,16.8c-0.1,0.5-0.3,0.7-0.8,0.7h-17.7l0.2-2H465c0.1,0,0.2-0.1,0.2-0.2l0.1-1.1h-20l0.2-1.9h20l0.1-1.2
							c0-0.1,0-0.2-0.2-0.2h-16l0.2-2h17.8c0.5,0,0.7,0.2,0.6,0.7l-0.3,2.7h3.8l-0.2,1.9h-3.8L467.3,16.8z M446.9,7.5l0-2l5.1-0.1
							l0.2-1.4h-4.6l0.2-1.9h4.6l0.1-1.2h-5.1l0.2-1.9h5.1l0.2-1.7h2.3l-0.2,1.7h4.3l-0.2,1.9h-4.3L454.7,2h3.7l-0.2,1.9h-3.7
							l-0.1,1.2c1.6-0.2,3-0.4,3.9-0.5l0,2c-0.9,0.2-2.3,0.4-4.2,0.6l-0.1,1h-2.3l0.1-0.9L446.9,7.5z M461.7,21.9
							c0.4,0,0.7-0.1,1-0.2c0.2-0.1,0.4-0.3,0.6-0.5l0.3-1.8l2.4,0.2c-0.2,2.1-0.5,3.4-0.9,3.6c-0.6,0.7-1.6,1-2.8,1H453
							c-0.7,0-1.2-0.2-1.5-0.5c-0.7-0.6-1-1.7-0.8-3.2l0.3-2.8h2.4l-0.3,2.4c-0.1,0.6-0.1,1,0,1.1c0.1,0.3,0.5,0.5,1.2,0.5h4.2
							c-0.7-1.1-1.4-2-2-2.6l1.8-1.6c0.7,0.7,1.4,1.7,2.2,2.9l-1.6,1.3H461.7z M459.2,7.1l0.2-1.9h5.2l0.2-1.3h-4.1l0.2-1.9h4.1
							l0.2-1.3h-4.6l0.2-1.9h4.6l0.2-1.6h2.3l-0.2,1.6h5l-0.2,1.9h-5L467.3,2h4.1l-0.2,1.9h-4.1L467,5.2h5.3L472,7.1h-5.3l-0.1,1.1
							h-2.3l0.1-1.1H459.2z M468.2,18.2c0.8,1.3,1.5,2.9,2.2,5l-2.2,1c-0.7-2-1.3-3.6-2-4.6L468.2,18.2z"/>
						<path class="st1" d="M477.9,24h-2.3l1.4-11.4c-0.6,1.3-1.2,2.4-1.7,3.3l-2.3-0.5c2.1-3.2,3.6-6.5,4.6-10h-3l0.3-2.5h3.3
							l0.7-5.6h2.3L480.4,3h2.1l-0.3,2.5h-2.1l-0.1,0.7c0.9,1.8,1.8,3.6,2.6,5.5l-2.2,1.3l-0.9-2.4L477.9,24z M485.5,19.3
							c-2,2.1-3.9,3.4-5.6,4.1l-1.2-2.1c2.1-0.9,3.8-2.2,5.1-3.7L485.5,19.3z M480.9,17.1l0.3-2.4h17.9l-0.3,2.4h-7.5l-0.5,4.5
							c-0.1,1.1-0.7,1.9-1.6,2.5c-0.9,0.6-2.6,0.5-5-0.3l0.4-2.6l1.6,0.6c0.9,0.2,1.5,0.2,1.8,0c0.2-0.2,0.3-0.4,0.3-0.8l0.5-3.8
							H480.9z M499.8,2.2c0.2,0,0.3,0.1,0.3,0.3l-0.8,6.6c0,0.2-0.2,0.3-0.4,0.3h-15.8c-0.2,0-0.3-0.1-0.3-0.3l0.8-6.6
							c0-0.2,0.1-0.3,0.3-0.3h4.4l0.2-1.7h-5.3l0.3-2.3h17.6l-0.3,2.3h-5.3l-0.2,1.7H499.8z M498.3,10.8l-0.3,2.4h-14.5l0.3-2.4
							H498.3z M488.1,4.4h-2.3c-0.1,0-0.1,0-0.1,0.1l-0.3,2.6l0.1,0.1h2.3L488.1,4.4z M492.8,4.4h-2.4l-0.3,2.8h2.4L492.8,4.4z
							 M493.3,0.4h-2.4l-0.2,1.7h2.4L493.3,0.4z M494.7,18.2c1.2,0.9,2.5,2.2,3.8,4l-1.9,1.8c-1.4-1.8-2.6-3.1-3.7-3.9L494.7,18.2z
							 M494.8,7.2h2.4l0.1-0.1l0.3-2.6l-0.1-0.1h-2.4L494.8,7.2z"/>
						<path class="st1" d="M500.5,23.3l0-2.1l5.9-0.3l0.2-2.1h-5.2l0.2-1.8h5.2l0.2-1.5h-5.2l0.2-1.8h5.2l0.2-1.4h-5.3l0.2-1.8h5.3
							l0.2-1.5h-5.6l0.2-1.9h7.1l-2-1.8c-0.7,0.6-1.4,1.1-2.3,1.5l-1-1.7c1.6-0.8,2.9-1.8,3.9-3.1l1.4,1.3l-0.6,0.7l1.9,1.4
							l-1.3,1.7h10.1l0.1-4.1l2.2,0.2l-0.1,3.9h6.2l-0.2,1.9h-5.9c0.1,2.5,0.2,4.6,0.4,6.3c0.4-0.7,1.1-2.2,1.9-4.6l2,0.5
							c-0.9,2.7-2,5-3.4,7l0.7,2.5c0.2,0.6,0.4,1,0.5,0.9c0.2,0,0.3-0.2,0.3-0.6c0.2-0.9,0.3-1.9,0.4-3.2l2.1,0.5
							c-0.3,2.3-0.8,4-1.4,5.2c-0.3,0.4-0.6,0.7-0.8,0.8c-0.2,0.1-0.5,0.2-0.8,0.1c-0.5,0-1-0.4-1.5-1c-0.5-0.8-0.9-1.9-1.3-3.3
							c-1.9,1.8-3.5,3.1-4.8,4l-1.5-1.5l0.5-0.3L500.5,23.3z M506.5,1c-0.8,0.9-1.8,1.7-2.9,2.5c-0.3-0.8-0.6-1.4-1-1.9
							c1.7-1.1,3.1-2.6,4.3-4.5l1.8,1.3L508.2-1h7.1l-0.2,2h-3.1l0.6,1l-1.7,1.3L509.4,1H506.5z M510.9,20.6l1.4-11.5H510l-1.4,11.7
							L510.9,20.6z M512.8,7l-1.3-1.4c1.3-0.8,2.3-1.9,3.1-3.1l1.6,1L515.8,4l2.4,1.4l-1.1,1.8l-2.4-1.7L512.8,7z M520.5,17.8
							c-0.5-2.5-0.8-5.5-0.9-8.8h-5.2l-0.2,1.5h4.5l-0.2,1.8h-4.5l-0.2,1.4h4.5l-0.2,1.8h-4.5l-0.2,1.5h4.5l-0.2,1.8h-4.5l-0.2,1.7
							l4.1-0.3l-0.1,0.9l2.6-2.2L520.5,17.8z M518.3,1l-0.1,0.1c-0.7,0.7-1.4,1.4-2.2,2c-0.3-0.8-0.7-1.4-1.1-1.8
							c1.4-1,2.6-2.5,3.6-4.2l1.9,1.2L519.9-1h9.1l-0.2,2h-5.2l0.4,1.2L522,3.2L521.2,1H518.3z M524.8,2.6c0.8,0.5,1.6,1.2,2.5,2.1
							l-1.6,1.8c-0.9-0.9-1.7-1.6-2.3-2L524.8,2.6z"/>
					</g>
				</g>
			</g>
		</g>
	</g>
	<path class="st3" d="M409.5,37.3c-14.7,0-26.8-12-26.8-26.8l0,0c0-14.7,12-26.8,26.8-26.8h279.7"/>
	<path class="st4" d="M409.8,33.4c-12.5,0-22.7-10.2-22.7-22.7l0,0c0-12.5,10.2-22.7,22.7-22.7h237"/>
	<line class="st5" x1="641.7" y1="37.3" x2="414.3" y2="37.3"/>
	<path class="st3" d="M740.5-16.3c14.7,0,26.8,12,26.8,26.8l0,0c0,14.7-12,26.8-26.8,26.8h-93.8"/>
	<path class="st4" d="M739.9-12.4c12.6,0,22.9,10.3,22.9,22.9l0,0c0,12.6-10.3,22.9-22.9,22.9h-78.7"/>
	<line class="st5" x1="695" y1="-16.3" x2="735.5" y2="-16.3"/>
</g>
<g>
	<g>
		<g>
			<g>
				<g class="st0">
					<path class="st2" d="M511.5,93.9c-1.5,3.2-3.1,5.8-5,7.6c-0.5-0.8-1.1-1.3-1.6-1.7c1.8-1.9,3.2-4.1,4.3-6.8L511.5,93.9z
						 M531.5,77.5h-5.1c0.3,2.3,0.8,4.4,1.5,6.4c0.8-1.3,1.7-2.9,2.6-4.8l2.2,0.8c-1.1,2.6-2.3,4.7-3.6,6.5l1.4,2.3
						c0.5,0.6,0.8,0.9,1,0.9c0.1,0,0.3-0.2,0.4-0.6c0.2-0.9,0.5-2,0.7-3.2l2.3,0.6c-0.5,3.4-1.2,5.4-2.1,6c-0.3,0.2-0.5,0.3-0.8,0.3
						c-0.6,0.1-1.3-0.2-1.9-0.7c-1-0.8-1.9-2-2.7-3.4c-1.4,1.5-2.8,2.8-4.3,3.8l-1.5-1.9c1.7-1.3,3.2-2.7,4.6-4.2
						c-1.1-2.5-1.9-5.4-2.3-8.7h-11.1c-0.2,0-0.3,0.1-0.3,0.3l-0.5,3.8c-0.5,4.2-1.8,7.7-3.8,10.7l-2.2-1c1.1-1.8,2-3.5,2.5-5
						c0.5-1.5,0.8-3.3,1.1-5.4l0.6-5.1c0-0.4,0.3-0.7,0.7-0.7h12.6l0-2.1l2.5-0.3l0,2.4h5.5l-0.6-1l2.2-1.4c1.2,1.8,2,3.5,2.6,5
						l-2.3,1.2c-0.3-0.9-0.9-2-1.8-3.5L531.5,77.5z M521.2,90.5h-8.7c-0.2,0-0.3-0.1-0.2-0.3l0.8-6.7c0-0.2,0.1-0.3,0.3-0.3h8.7
						c0.2,0,0.3,0.1,0.3,0.3l-0.8,6.7C521.5,90.4,521.4,90.5,521.2,90.5z M515.9,92.4l-0.6,4.8c-0.1,0.6-0.1,1,0.1,1.2
						c0.2,0.3,0.6,0.5,1.3,0.5h6l1.1-0.2c0.2-0.1,0.4-0.3,0.6-0.5c0.2-0.2,0.4-1.1,0.7-2.7l2.4,0.4c-0.4,2.5-0.8,3.9-1.3,4.3
						c-0.5,0.5-0.9,0.8-1.2,0.9c-0.4,0.1-1,0.2-1.8,0.2h-7.8c-0.7,0-1.3-0.2-1.6-0.5c-0.8-0.7-1.1-1.8-0.8-3.3l0.6-5.3H515.9z
						 M522.7,79.2l-0.3,2.3h-9.2l0.3-2.3H522.7z M515,85.2C514.9,85.2,514.9,85.3,515,85.2l-0.5,3.1l0.1,0.1h4.9l0.1-0.1l0.4-3
						l-0.1-0.1H515z M520.3,91.7c0.8,1.2,1.6,2.9,2.3,4.9l-2.2,1.2c-0.8-2.1-1.5-3.6-2.2-4.7L520.3,91.7z M529.9,92.6
						c1.2,1.8,2.2,4.2,3.3,7.2l-2.2,1.2c-1.1-3.1-2.2-5.4-3.2-7.1L529.9,92.6z"/>
					<path class="st2" d="M543.1,86c-0.4-0.7-0.7-1.3-1.1-1.7l-0.5,4c-0.6,5.3-1.7,9.7-3.3,13.2l-2.3-0.8c1.4-3.5,2.5-7.9,3.2-13.2
						l1.5-12.4c0-0.4,0.3-0.7,0.7-0.7h11.2l0.2-1.5h2.6l-0.2,1.5h11.6l-0.3,2.4h-23.2c-0.2,0-0.3,0.1-0.3,0.3l-0.8,6.8
						c2.1-1.8,3.8-4,5.2-6.7l2,1.2l-2.4,3.6l-1.3,10.8h-2.2l1-8L543.1,86z M545.4,95.2c-1,2.6-2.2,4.7-3.6,6.2l-2.1-1.2
						c1.5-1.6,2.7-3.5,3.4-5.6L545.4,95.2z M549.6,93.2l-0.5,4.5c-0.1,0.6-0.1,0.9,0,1.1c0.1,0.3,0.5,0.5,1.1,0.5h5.1
						c0.4,0,0.7-0.1,0.9-0.2c0.2-0.1,0.3-0.3,0.5-0.5c0.1-0.2,0.3-1,0.5-2.3l2.3,0.3c-0.4,2.3-0.7,3.6-1.1,4
						c-0.4,0.4-0.8,0.7-1.1,0.8c-0.4,0.1-0.9,0.2-1.6,0.2H549c-0.7,0-1.2-0.2-1.5-0.4c-0.7-0.6-1-1.6-0.8-3.1l0.6-4.9H549.6z
						 M564.1,90.3l-0.2,2h-14.7c-0.5,0-0.7-0.3-0.7-0.8l0.9-7.3l-0.9,0.9c-0.5-0.8-1-1.4-1.4-1.7c1.8-1.6,3.2-3.6,4.2-6l2.1,1
						l-0.8,1.4h4.4c0.6-0.9,1.1-1.7,1.5-2.4l1.8,1l-0.8,1.4h6l-0.5,2h-6.3l-0.2,1.6h6l-0.2,1.9h-6l-0.2,1.5h6l-0.2,1.9h-6l-0.2,1.6
						H564.1z M555.8,88.7h-4.6l-0.1,1.2c0,0.2,0,0.3,0.3,0.3h4.3L555.8,88.7z M556.2,85.3h-4.6l-0.2,1.5h4.6L556.2,85.3z
						 M556.7,81.8h-4.3c-0.2,0-0.3,0.1-0.3,0.3l-0.2,1.3h4.6L556.7,81.8z M554.2,92.9c0.5,1.2,0.9,2.6,1.2,4.4l-2.3,0.9
						c-0.3-1.8-0.7-3.2-1.1-4.2L554.2,92.9z M562.1,93.1c0.8,1.7,1.5,4,2,6.7l-2.3,0.9c-0.6-2.8-1.2-5-1.9-6.6L562.1,93.1z"/>
				</g>
				<g>
					<g class="st0">
						<path class="st1" d="M511.5,93.9c-1.5,3.2-3.1,5.8-5,7.6c-0.5-0.8-1.1-1.3-1.6-1.7c1.8-1.9,3.2-4.1,4.3-6.8L511.5,93.9z
							 M531.5,77.5h-5.1c0.3,2.3,0.8,4.4,1.5,6.4c0.8-1.3,1.7-2.9,2.6-4.8l2.2,0.8c-1.1,2.6-2.3,4.7-3.6,6.5l1.4,2.3
							c0.5,0.6,0.8,0.9,1,0.9c0.1,0,0.3-0.2,0.4-0.6c0.2-0.9,0.5-2,0.7-3.2l2.3,0.6c-0.5,3.4-1.2,5.4-2.1,6
							c-0.3,0.2-0.5,0.3-0.8,0.3c-0.6,0.1-1.3-0.2-1.9-0.7c-1-0.8-1.9-2-2.7-3.4c-1.4,1.5-2.8,2.8-4.3,3.8l-1.5-1.9
							c1.7-1.3,3.2-2.7,4.6-4.2c-1.1-2.5-1.9-5.4-2.3-8.7h-11.1c-0.2,0-0.3,0.1-0.3,0.3l-0.5,3.8c-0.5,4.2-1.8,7.7-3.8,10.7l-2.2-1
							c1.1-1.8,2-3.5,2.5-5c0.5-1.5,0.8-3.3,1.1-5.4l0.6-5.1c0-0.4,0.3-0.7,0.7-0.7h12.6l0-2.1l2.5-0.3l0,2.4h5.5l-0.6-1l2.2-1.4
							c1.2,1.8,2,3.5,2.6,5l-2.3,1.2c-0.3-0.9-0.9-2-1.8-3.5L531.5,77.5z M521.2,90.5h-8.7c-0.2,0-0.3-0.1-0.2-0.3l0.8-6.7
							c0-0.2,0.1-0.3,0.3-0.3h8.7c0.2,0,0.3,0.1,0.3,0.3l-0.8,6.7C521.5,90.4,521.4,90.5,521.2,90.5z M515.9,92.4l-0.6,4.8
							c-0.1,0.6-0.1,1,0.1,1.2c0.2,0.3,0.6,0.5,1.3,0.5h6l1.1-0.2c0.2-0.1,0.4-0.3,0.6-0.5c0.2-0.2,0.4-1.1,0.7-2.7l2.4,0.4
							c-0.4,2.5-0.8,3.9-1.3,4.3c-0.5,0.5-0.9,0.8-1.2,0.9c-0.4,0.1-1,0.2-1.8,0.2h-7.8c-0.7,0-1.3-0.2-1.6-0.5
							c-0.8-0.7-1.1-1.8-0.8-3.3l0.6-5.3H515.9z M522.7,79.2l-0.3,2.3h-9.2l0.3-2.3H522.7z M515,85.2
							C514.9,85.2,514.9,85.3,515,85.2l-0.5,3.1l0.1,0.1h4.9l0.1-0.1l0.4-3l-0.1-0.1H515z M520.3,91.7c0.8,1.2,1.6,2.9,2.3,4.9
							l-2.2,1.2c-0.8-2.1-1.5-3.6-2.2-4.7L520.3,91.7z M529.9,92.6c1.2,1.8,2.2,4.2,3.3,7.2l-2.2,1.2c-1.1-3.1-2.2-5.4-3.2-7.1
							L529.9,92.6z"/>
						<path class="st1" d="M543.1,86c-0.4-0.7-0.7-1.3-1.1-1.7l-0.5,4c-0.6,5.3-1.7,9.7-3.3,13.2l-2.3-0.8c1.4-3.5,2.5-7.9,3.2-13.2
							l1.5-12.4c0-0.4,0.3-0.7,0.7-0.7h11.2l0.2-1.5h2.6l-0.2,1.5h11.6l-0.3,2.4h-23.2c-0.2,0-0.3,0.1-0.3,0.3l-0.8,6.8
							c2.1-1.8,3.8-4,5.2-6.7l2,1.2l-2.4,3.6l-1.3,10.8h-2.2l1-8L543.1,86z M545.4,95.2c-1,2.6-2.2,4.7-3.6,6.2l-2.1-1.2
							c1.5-1.6,2.7-3.5,3.4-5.6L545.4,95.2z M549.6,93.2l-0.5,4.5c-0.1,0.6-0.1,0.9,0,1.1c0.1,0.3,0.5,0.5,1.1,0.5h5.1
							c0.4,0,0.7-0.1,0.9-0.2c0.2-0.1,0.3-0.3,0.5-0.5c0.1-0.2,0.3-1,0.5-2.3l2.3,0.3c-0.4,2.3-0.7,3.6-1.1,4
							c-0.4,0.4-0.8,0.7-1.1,0.8c-0.4,0.1-0.9,0.2-1.6,0.2H549c-0.7,0-1.2-0.2-1.5-0.4c-0.7-0.6-1-1.6-0.8-3.1l0.6-4.9H549.6z
							 M564.1,90.3l-0.2,2h-14.7c-0.5,0-0.7-0.3-0.7-0.8l0.9-7.3l-0.9,0.9c-0.5-0.8-1-1.4-1.4-1.7c1.8-1.6,3.2-3.6,4.2-6l2.1,1
							l-0.8,1.4h4.4c0.6-0.9,1.1-1.7,1.5-2.4l1.8,1l-0.8,1.4h6l-0.5,2h-6.3l-0.2,1.6h6l-0.2,1.9h-6l-0.2,1.5h6l-0.2,1.9h-6l-0.2,1.6
							H564.1z M555.8,88.7h-4.6l-0.1,1.2c0,0.2,0,0.3,0.3,0.3h4.3L555.8,88.7z M556.2,85.3h-4.6l-0.2,1.5h4.6L556.2,85.3z
							 M556.7,81.8h-4.3c-0.2,0-0.3,0.1-0.3,0.3l-0.2,1.3h4.6L556.7,81.8z M554.2,92.9c0.5,1.2,0.9,2.6,1.2,4.4l-2.3,0.9
							c-0.3-1.8-0.7-3.2-1.1-4.2L554.2,92.9z M562.1,93.1c0.8,1.7,1.5,4,2,6.7l-2.3,0.9c-0.6-2.8-1.2-5-1.9-6.6L562.1,93.1z"/>
					</g>
				</g>
			</g>
		</g>
		<g>
			<g class="st0">
				<path class="st2" d="M576.1,94.4c0.1,1.6,0.5,2.8,1.2,3.6s2,1.2,3.7,1.2c0.9,0,1.8-0.1,2.6-0.5c0.9-0.3,1.7-0.7,2.4-1.2
					c0.7-0.5,1.4-1.2,1.9-1.9c0.6-0.7,0.9-1.6,1.2-2.5c0.4-1.4,0.4-2.5,0-3.3c-0.4-0.8-1-1.5-1.8-1.9c-0.8-0.4-1.8-0.7-2.8-0.8
					c-1.1-0.1-2.2-0.2-3.3-0.2l1.1-4c1.8,0,3.2-0.1,4.4-0.4c1.2-0.2,2.2-0.6,2.9-1c0.8-0.4,1.4-1,1.8-1.7c0.4-0.7,0.7-1.4,1-2.2
					c0.4-1.8,0.2-3.1-0.6-4.1c-0.8-0.9-2.1-1.4-3.7-1.4c-1.2,0-2.5,0.4-3.7,1.1c-1.2,0.7-2.2,1.7-3,2.8l-4.3-1.6
					c1.4-2.2,3.2-3.7,5.4-4.8c2.1-1,4.3-1.5,6.6-1.5c1.4,0,2.7,0.2,3.8,0.5c1.2,0.4,2.1,0.9,2.9,1.7c0.7,0.8,1.2,1.7,1.5,2.9
					c0.3,1.2,0.2,2.5-0.2,4.1c-0.5,1.8-1.4,3.4-2.8,4.7c-1.4,1.4-3.1,2.3-5,2.8l0,0.1c1,0.2,1.9,0.5,2.6,1c0.7,0.5,1.2,1.1,1.6,1.9
					c0.4,0.8,0.6,1.6,0.6,2.5c0,0.9-0.1,1.9-0.3,3c-0.4,1.6-1.1,3-2.1,4.2c-0.9,1.2-2,2.2-3.3,3c-1.3,0.8-2.6,1.4-4.1,1.8
					s-3,0.6-4.5,0.6c-2.6,0-4.7-0.6-6.4-1.8c-1.7-1.2-2.6-3-2.7-5.6L576.1,94.4z"/>
			</g>
			<g>
				<g class="st0">
					<path class="st1" d="M576.1,94.4c0.1,1.6,0.5,2.8,1.2,3.6s2,1.2,3.7,1.2c0.9,0,1.8-0.1,2.6-0.5c0.9-0.3,1.7-0.7,2.4-1.2
						c0.7-0.5,1.4-1.2,1.9-1.9c0.6-0.7,0.9-1.6,1.2-2.5c0.4-1.4,0.4-2.5,0-3.3c-0.4-0.8-1-1.5-1.8-1.9c-0.8-0.4-1.8-0.7-2.8-0.8
						c-1.1-0.1-2.2-0.2-3.3-0.2l1.1-4c1.8,0,3.2-0.1,4.4-0.4c1.2-0.2,2.2-0.6,2.9-1c0.8-0.4,1.4-1,1.8-1.7c0.4-0.7,0.7-1.4,1-2.2
						c0.4-1.8,0.2-3.1-0.6-4.1c-0.8-0.9-2.1-1.4-3.7-1.4c-1.2,0-2.5,0.4-3.7,1.1c-1.2,0.7-2.2,1.7-3,2.8l-4.3-1.6
						c1.4-2.2,3.2-3.7,5.4-4.8c2.1-1,4.3-1.5,6.6-1.5c1.4,0,2.7,0.2,3.8,0.5c1.2,0.4,2.1,0.9,2.9,1.7c0.7,0.8,1.2,1.7,1.5,2.9
						c0.3,1.2,0.2,2.5-0.2,4.1c-0.5,1.8-1.4,3.4-2.8,4.7c-1.4,1.4-3.1,2.3-5,2.8l0,0.1c1,0.2,1.9,0.5,2.6,1c0.7,0.5,1.2,1.1,1.6,1.9
						c0.4,0.8,0.6,1.6,0.6,2.5c0,0.9-0.1,1.9-0.3,3c-0.4,1.6-1.1,3-2.1,4.2c-0.9,1.2-2,2.2-3.3,3c-1.3,0.8-2.6,1.4-4.1,1.8
						s-3,0.6-4.5,0.6c-2.6,0-4.7-0.6-6.4-1.8c-1.7-1.2-2.6-3-2.7-5.6L576.1,94.4z"/>
				</g>
			</g>
		</g>
		<g>
			<g class="st0">
				<path class="st2" d="M609.1,87.8c-2.9,3.8-5.7,6.5-8.4,8l-1.6-2c3.3-2,5.9-4.5,8-7.5L609.1,87.8z M600.6,84.7l0.3-2.7h5.1
					l0.9-7.5h2.6l-0.9,7.5h5.4l1.1-9.1h2.6l-0.4,3h8.3l-0.3,2.7H617l-0.4,3.4H628l-0.3,2.7h-11.4l-1,7.9c-0.2,1.2-0.7,2.1-1.7,2.7
					c-1.1,0.8-3.1,0.7-5.9-0.1l0.3-2.7c2.4,0.6,3.8,0.7,4.4,0.3c0.2-0.2,0.3-0.5,0.4-0.9l0.9-7.2H600.6z M625.9,88.1
					c-0.9,2.2-2.1,4.1-3.6,5.9c-0.8,0.9-1.6,1.7-2.5,2.5c-3.9,3.3-9.6,5.1-16.9,5.4l-0.1-3c3.9-0.1,6.8-0.5,8.9-1
					c5.5-1.4,9.4-5,11.7-10.7L625.9,88.1z"/>
				<path class="st2" d="M632.5,91c-0.7,4.2-1.3,7.4-1.9,9.6l-1.5-0.2c0.9-3.2,1.5-6.4,1.9-9.6L632.5,91z M640.8,86.8l0.4,0.1
					l0.1,1.2c-0.7,6.2-1.4,10.2-2,12.1c-0.3,0.5-0.7,0.9-1.3,1.2c-0.5,0.2-1.5,0.2-2.9,0l0-2.3c1.1,0.3,1.7,0.5,1.9,0.4
					c0.3-0.2,0.5-0.4,0.7-0.8c0.4-1.5,0.9-4.5,1.4-8.8c0.1-0.4,0-0.7-0.1-0.8l-0.3-0.1H632l-0.3-0.2c-0.1-0.1-0.1-0.2-0.1-0.3
					l1.7-14.4c0-0.3,0.2-0.5,0.5-0.5h8.1l-0.3,2.2h-2.6l-0.3,2.2h2.4l-0.3,2.2h-2.4l-0.3,2.2h2.2l-0.3,2.2H638l-0.3,2.2H640.8z
					 M634.4,90.9c0,2.7-0.1,5.4-0.5,8h-1.5c0.3-2.2,0.5-4.9,0.5-8H634.4z M636,84.6h-1.9l-0.3,2.2h1.9L636,84.6z M636.6,80.2h-1.9
					l-0.3,2.2h1.9L636.6,80.2z M636.2,90.8c0.2,2.2,0.3,4.3,0.2,6.4l-1.4,0.1c0-2,0-4.1-0.2-6.3L636.2,90.8z M637.1,75.8h-1.6
					c-0.2,0-0.3,0.1-0.3,0.3l-0.2,2h1.9L637.1,75.8z M638,90.6c0.3,1.9,0.4,3.3,0.4,4.2l-1.3,0.2c0-1.4-0.2-2.7-0.4-4.1L638,90.6z
					 M647.4,95.7c-1.6,1.6-3.6,3.2-6.1,5l-1.2-1.8c2.6-1.9,4.6-3.5,6-4.9L647.4,95.7z M643.9,75.9h-1l0.3-2.2h8.8l-0.3,2.2h-1.1
					L649.3,88h-2.1l0.1-1l-5.5,1.1l-0.3-2.1l1.3-0.2L643.9,75.9z M647.7,90.7c-1.3,1.1-2.9,2.3-4.9,3.5l-1-1.9
					c2.1-1.3,3.7-2.5,4.8-3.5L647.7,90.7z M647.6,84.9l0.2-1.5h-2.6l-0.2,2L647.6,84.9z M648,81.4l0.2-1.7h-2.6l-0.2,1.7H648z
					 M648.4,77.6l0.2-1.7H646l-0.2,1.7H648.4z M656.2,90.5l1.1,2l-2.3,1.6l-1.5,1c1.1,1.3,2.5,2.5,4.1,3.6l-2.1,1.7
					c-1.7-1.5-3.4-3.4-5.1-5.8l-0.9,7.1h-2.3l1.5-12.8c0-0.3,0.2-0.5,0.6-0.5c1.9-0.3,3.9-0.7,5.8-1.4l1,2.1c-1.4,0.5-3.1,1-5,1.3
					c-0.2,0-0.2,0.1-0.3,0.2c0.4,1,0.8,1.9,1.3,2.7L656.2,90.5z M651.8,87l-1.6-1.6c1.7-1,2.9-1.8,3.7-2.7c-0.8-1.4-1.4-2.9-1.9-4.4
					L654,77c0.3,1.3,0.8,2.6,1.5,3.9c1-1.5,1.6-2.8,1.9-3.9c0-0.3,0-0.5-0.1-0.6c-0.1-0.1-0.3-0.2-0.6-0.2h-4l0.3-2.2h5.7l1.1,0.7
					c-0.6,2.8-1.7,5.4-3.2,7.8c1.1,1.3,2,2.3,2.7,2.9l-2.2,1.4c-0.9-1-1.6-1.8-2.1-2.5C654.1,85.2,653.1,86.1,651.8,87z"/>
			</g>
			<g>
				<g class="st0">
					<path class="st1" d="M609.1,87.8c-2.9,3.8-5.7,6.5-8.4,8l-1.6-2c3.3-2,5.9-4.5,8-7.5L609.1,87.8z M600.6,84.7l0.3-2.7h5.1
						l0.9-7.5h2.6l-0.9,7.5h5.4l1.1-9.1h2.6l-0.4,3h8.3l-0.3,2.7H617l-0.4,3.4H628l-0.3,2.7h-11.4l-1,7.9c-0.2,1.2-0.7,2.1-1.7,2.7
						c-1.1,0.8-3.1,0.7-5.9-0.1l0.3-2.7c2.4,0.6,3.8,0.7,4.4,0.3c0.2-0.2,0.3-0.5,0.4-0.9l0.9-7.2H600.6z M625.9,88.1
						c-0.9,2.2-2.1,4.1-3.6,5.9c-0.8,0.9-1.6,1.7-2.5,2.5c-3.9,3.3-9.6,5.1-16.9,5.4l-0.1-3c3.9-0.1,6.8-0.5,8.9-1
						c5.5-1.4,9.4-5,11.7-10.7L625.9,88.1z"/>
					<path class="st1" d="M632.5,91c-0.7,4.2-1.3,7.4-1.9,9.6l-1.5-0.2c0.9-3.2,1.5-6.4,1.9-9.6L632.5,91z M640.8,86.8l0.4,0.1
						l0.1,1.2c-0.7,6.2-1.4,10.2-2,12.1c-0.3,0.5-0.7,0.9-1.3,1.2c-0.5,0.2-1.5,0.2-2.9,0l0-2.3c1.1,0.3,1.7,0.5,1.9,0.4
						c0.3-0.2,0.5-0.4,0.7-0.8c0.4-1.5,0.9-4.5,1.4-8.8c0.1-0.4,0-0.7-0.1-0.8l-0.3-0.1H632l-0.3-0.2c-0.1-0.1-0.1-0.2-0.1-0.3
						l1.7-14.4c0-0.3,0.2-0.5,0.5-0.5h8.1l-0.3,2.2h-2.6l-0.3,2.2h2.4l-0.3,2.2h-2.4l-0.3,2.2h2.2l-0.3,2.2H638l-0.3,2.2H640.8z
						 M634.4,90.9c0,2.7-0.1,5.4-0.5,8h-1.5c0.3-2.2,0.5-4.9,0.5-8H634.4z M636,84.6h-1.9l-0.3,2.2h1.9L636,84.6z M636.6,80.2h-1.9
						l-0.3,2.2h1.9L636.6,80.2z M636.2,90.8c0.2,2.2,0.3,4.3,0.2,6.4l-1.4,0.1c0-2,0-4.1-0.2-6.3L636.2,90.8z M637.1,75.8h-1.6
						c-0.2,0-0.3,0.1-0.3,0.3l-0.2,2h1.9L637.1,75.8z M638,90.6c0.3,1.9,0.4,3.3,0.4,4.2l-1.3,0.2c0-1.4-0.2-2.7-0.4-4.1L638,90.6z
						 M647.4,95.7c-1.6,1.6-3.6,3.2-6.1,5l-1.2-1.8c2.6-1.9,4.6-3.5,6-4.9L647.4,95.7z M643.9,75.9h-1l0.3-2.2h8.8l-0.3,2.2h-1.1
						L649.3,88h-2.1l0.1-1l-5.5,1.1l-0.3-2.1l1.3-0.2L643.9,75.9z M647.7,90.7c-1.3,1.1-2.9,2.3-4.9,3.5l-1-1.9
						c2.1-1.3,3.7-2.5,4.8-3.5L647.7,90.7z M647.6,84.9l0.2-1.5h-2.6l-0.2,2L647.6,84.9z M648,81.4l0.2-1.7h-2.6l-0.2,1.7H648z
						 M648.4,77.6l0.2-1.7H646l-0.2,1.7H648.4z M656.2,90.5l1.1,2l-2.3,1.6l-1.5,1c1.1,1.3,2.5,2.5,4.1,3.6l-2.1,1.7
						c-1.7-1.5-3.4-3.4-5.1-5.8l-0.9,7.1h-2.3l1.5-12.8c0-0.3,0.2-0.5,0.6-0.5c1.9-0.3,3.9-0.7,5.8-1.4l1,2.1c-1.4,0.5-3.1,1-5,1.3
						c-0.2,0-0.2,0.1-0.3,0.2c0.4,1,0.8,1.9,1.3,2.7L656.2,90.5z M651.8,87l-1.6-1.6c1.7-1,2.9-1.8,3.7-2.7
						c-0.8-1.4-1.4-2.9-1.9-4.4L654,77c0.3,1.3,0.8,2.6,1.5,3.9c1-1.5,1.6-2.8,1.9-3.9c0-0.3,0-0.5-0.1-0.6
						c-0.1-0.1-0.3-0.2-0.6-0.2h-4l0.3-2.2h5.7l1.1,0.7c-0.6,2.8-1.7,5.4-3.2,7.8c1.1,1.3,2,2.3,2.7,2.9l-2.2,1.4
						c-0.9-1-1.6-1.8-2.1-2.5C654.1,85.2,653.1,86.1,651.8,87z"/>
				</g>
			</g>
		</g>
	</g>
	<path class="st3" d="M484.4,111.5c-14.7,0-26.8-12-26.8-26.8l0,0c0-14.7,12-26.8,26.8-26.8h149.8"/>
	<path class="st4" d="M484.7,107.6c-12.5,0-22.7-10.2-22.7-22.7l0,0c0-12.5,10.2-22.7,22.7-22.7h107.1"/>
	<line class="st5" x1="586.7" y1="111.5" x2="489.3" y2="111.5"/>
	<path class="st3" d="M685.6,58c14.7,0,26.8,12,26.8,26.8l0,0c0,14.7-12,26.8-26.8,26.8h-93.8"/>
	<path class="st4" d="M684.9,61.8c12.6,0,22.9,10.3,22.9,22.9l0,0c0,12.6-10.3,22.9-22.9,22.9h-78.7"/>
	<line class="st5" x1="640" y1="58" x2="680.5" y2="58"/>
</g>
<g>
	<g>
		<g class="st0">
			<path class="st6" d="M663.9-91.5l-1.2,0.1c-0.3,3.4-1,5.9-2.1,7.7c1,0.8,1.9,1.6,2.9,2.5l-1.5,1.5c-0.8-0.8-1.6-1.6-2.5-2.3
				c-1,1.3-2.4,2.6-4.3,4l-1.3-1.6c1.8-1.2,3.2-2.4,4-3.6c-0.8-0.6-2-1.4-3.4-2.2c0.6-1.6,1.1-3.4,1.5-5.4l-1.9,0.1l-0.1-1.9
				c0.8,0,1.7,0,2.4-0.1c0.4-1.5,0.6-2.9,0.7-4.3l2,0.3c-0.2,1.3-0.4,2.6-0.7,3.8c0.9,0,1.7-0.1,2.5-0.2c0.1-0.6,0.1-1.2,0.1-1.7
				h1.9c0,0.2,0,0.7-0.1,1.5l1-0.1V-91.5z M660.7-91.1c-1.2,0.1-2.1,0.2-2.6,0.2c-0.3,1.4-0.7,3-1.2,4.8c1,0.6,1.7,1.1,2.1,1.4
				C659.8-86.4,660.4-88.5,660.7-91.1z M672.1-78.4h-1.8v-1.9h-3.9v1.9h-1.9v-16.7h7.7V-78.4z M670.2-82.3v-10.9h-3.9v10.9H670.2z"
				/>
			<path class="st6" d="M683.1-96.7c-0.2,0.6-0.4,1.5-0.8,2.5l-0.6,1.5V-78h-1.9v-10.8c-0.5,0.8-0.9,1.4-1.3,1.9l-1.1-2
				c1.6-2.2,2.9-4.9,3.8-8.2L683.1-96.7z M696.6-94.3h-1.4v14.1c0,0.5-0.1,1-0.4,1.3c-0.3,0.4-0.6,0.6-1.1,0.8
				c-0.4,0.1-1.3,0.2-2.6,0.2c-0.5,0-0.9,0-1.4,0l-0.6-1.9c2.2,0.1,3.4,0,3.7-0.1c0.3-0.1,0.4-0.3,0.4-0.7v-13.7h-9.9v-1.9h13.2
				V-94.3z M691-82.9H684V-92h6.9V-82.9z M689.1-84.8v-5.4h-3.2v5.4H689.1z"/>
			<path class="st6" d="M707.4-96.4c-0.5,1.2-1.1,2.3-1.8,3.5c0.9,2.1,1.3,4.8,1.3,8.2c0,3-0.2,4.9-0.6,5.7s-1.3,1.2-2.9,1.2
				c-0.4,0-0.7,0-1-0.1l-0.6-1.9c0.6,0.1,1.2,0.1,1.7,0.1c0.6,0,1-0.2,1.2-0.6c0.2-0.4,0.3-1.6,0.3-3.6c0-0.8,0-1.6-0.1-2.5
				c-0.9,1.5-1.8,2.8-2.8,3.7l-1-1.6c1.3-1.2,2.5-2.8,3.6-4.9c-0.1-0.8-0.3-1.4-0.4-1.9c-0.7,0.9-1.5,1.6-2.2,2.2l-1-1.6
				c1-0.9,1.8-1.7,2.3-2.5c-0.6-1-1.4-2-2.3-2.8l1.4-1.1c0.5,0.4,1.2,1.2,1.9,2.2c0.4-0.7,0.8-1.4,1.1-2.2L707.4-96.4z M720.6-79.5
				l-0.8,1.7c-2.3-0.3-4.3-0.7-6-1.4c-2,0.6-4.1,1.1-6.3,1.5l-0.8-1.7c2-0.2,3.7-0.5,4.9-0.9c-1.1-0.7-2-1.4-2.6-2.2H708V-84h11.6
				v1.5c-1,0.9-2.1,1.7-3.4,2.3C717.2-79.9,718.6-79.7,720.6-79.5z M720.2-84.9h-11.8v-3.7c-0.2,0.3-0.5,0.5-0.8,0.8l-0.8-1.7
				c1-1,1.9-2.4,2.8-4.1l1.7,0.5c-0.1,0.2-0.2,0.4-0.3,0.6h2.3c-0.1-0.2-0.2-0.4-0.4-0.7l1.7-0.6c0.2,0.4,0.5,0.8,0.7,1.3h4.6v1.4
				h-4.6v0.7h4.3v1.3h-4.3v0.8h4.3v1.3h-4.3v0.8h4.9V-84.9z M712.8-96.9v3.3H711v-0.8h-3.5V-96h3.5v-0.9H712.8z M713.5-90.4v-0.7
				h-3.2v0.7H713.5z M713.5-88.3v-0.8h-3.2v0.8H713.5z M713.5-86.3v-0.8h-3.2v0.8H713.5z M716.9-82.5h-5.7c0.6,0.5,1.4,1,2.6,1.5
				C714.8-81.3,715.8-81.8,716.9-82.5z M720.2-94.4h-3.4v0.8h-1.9v-3.3h1.9v0.9h3.4V-94.4z"/>
			<path class="st6" d="M731-96c-1.7,2.2-3.4,3.8-5.2,4.9l-1-1.7c1.4-0.7,2.9-2.1,4.6-4.2L731-96z M731.2-91.7c-0.5,1-1,1.9-1.6,2.7
				v11h-1.9v-8.4c-0.8,0.8-1.3,1.3-1.8,1.6l-0.9-1.8c1.5-1.2,3.1-3.2,4.7-5.9L731.2-91.7z M743.9-83.9h-2.5v4c0,1.3-0.9,2-2.6,2
				c-0.5,0-1,0-1.5-0.1l-0.5-1.8c0.6,0,1.1,0.1,1.6,0.1c0.5,0,0.9-0.1,1-0.2s0.2-0.3,0.2-0.6v-3.5h-9.1v-1.7h9.1V-87h-8.7v-1.7h12.5
				v1.7h-2v1.3h2.5V-83.9z M742.5-89.7h-10.8v-6.8h10.8V-89.7z M736.6-81.1l-1.4,1.3c-1.1-1.1-2.1-2-3.1-2.6l1.2-1.3
				C734.3-83.2,735.4-82.3,736.6-81.1z M740.7-93.9v-0.9h-7v0.9H740.7z M740.7-91.4v-1h-7v1H740.7z"/>
			<path class="st6" d="M750.7-83.6c-0.2-0.5-0.3-1-0.3-1.6c0-0.6,0.1-1.1,0.4-1.6c0.3-0.5,0.8-1.1,1.5-1.7c0.8-0.8,1.4-1.4,1.6-1.8
				c0.2-0.4,0.3-0.8,0.3-1.2c0-0.6-0.2-1.1-0.7-1.5c-0.4-0.4-1-0.6-1.7-0.6c-1.3,0-2.5,0.5-3.5,1.5v-2.5c1.2-0.7,2.4-1.1,3.8-1.1
				c1.4,0,2.4,0.3,3.3,1c0.8,0.7,1.2,1.6,1.2,2.8c0,0.7-0.2,1.3-0.5,2c-0.3,0.6-0.9,1.3-1.8,2c-0.8,0.7-1.3,1.3-1.5,1.7
				c-0.2,0.4-0.3,0.8-0.3,1.1c0,0.5,0.1,1,0.3,1.5H750.7z M750.4-80.3c0-0.4,0.2-0.8,0.5-1.1c0.3-0.3,0.7-0.4,1.1-0.4
				c0.4,0,0.8,0.1,1.1,0.4c0.3,0.3,0.5,0.6,0.5,1.1c0,0.4-0.2,0.8-0.5,1c-0.3,0.3-0.7,0.4-1.1,0.4c-0.5,0-0.9-0.1-1.2-0.4
				C750.6-79.5,750.4-79.9,750.4-80.3z"/>
		</g>
	</g>
	<g>
		<g>
			<g>
				<g>
					<g class="st0">
						<path class="st2" d="M551-97.8h3.1h11.6l-0.4,3h-11.5l-1,7.3h10.7l-0.4,3h-10.7l-1.4,10.1h-3.2L551-97.8z"/>
						<path class="st2" d="M566.9-88.2c0.9-0.8,2-1.3,3.1-1.7s2.3-0.6,3.4-0.6c1.1,0,2.1,0.1,2.9,0.4c0.8,0.3,1.4,0.7,1.9,1.2
							s0.8,1,0.9,1.7c0.2,0.6,0.2,1.3,0.1,2l-1.1,8c-0.1,0.5-0.2,1.1-0.2,1.5s-0.1,0.9-0.1,1.3h-2.6c0-0.4,0-0.8,0.1-1.2
							c0-0.4,0.1-0.8,0.1-1.2h-0.1c-0.8,1-1.7,1.7-2.6,2.1c-1,0.4-2,0.6-3.2,0.6c-0.7,0-1.4-0.1-2-0.3c-0.6-0.2-1.2-0.5-1.6-0.9
							c-0.4-0.4-0.8-0.9-1-1.5c-0.2-0.6-0.3-1.3-0.1-2c0.1-1,0.5-1.9,1-2.5c0.5-0.7,1.2-1.2,2.1-1.7c0.8-0.4,1.8-0.7,2.9-0.9
							c1.1-0.2,2.2-0.3,3.4-0.3h2.2l0.1-0.7c0.1-0.4,0-0.8,0-1.2c-0.1-0.4-0.3-0.8-0.5-1.1c-0.3-0.3-0.6-0.6-1.1-0.8
							c-0.4-0.2-1-0.3-1.6-0.3c-0.6,0-1.1,0.1-1.5,0.2c-0.5,0.1-0.9,0.2-1.2,0.4c-0.4,0.2-0.7,0.4-1,0.6c-0.3,0.2-0.6,0.4-0.9,0.6
							L566.9-88.2z M574.4-82c-0.7,0-1.4,0-2.2,0.1s-1.4,0.2-2.1,0.4c-0.6,0.2-1.2,0.5-1.6,0.9c-0.4,0.4-0.7,0.9-0.8,1.5
							c-0.1,0.9,0.1,1.5,0.6,1.9c0.5,0.4,1.3,0.6,2.4,0.6c0.8,0,1.5-0.1,2.1-0.4c0.6-0.3,1.1-0.6,1.5-1.1c0.4-0.4,0.7-0.9,1-1.5
							c0.2-0.5,0.4-1.1,0.4-1.6l0.2-1H574.4z"/>
					</g>
					<g class="st0">
						<path class="st2" d="M589.6-86.2c-0.3-0.4-0.7-0.8-1.1-1.1c-0.5-0.3-1.1-0.4-1.8-0.4c-0.7,0-1.3,0.1-1.9,0.4s-0.9,0.7-0.9,1.3
							c-0.1,0.5,0,0.8,0.3,1.1c0.3,0.3,0.6,0.5,1,0.7c0.4,0.2,0.8,0.3,1.2,0.4c0.4,0.1,0.8,0.2,1.2,0.2c0.6,0.2,1.2,0.3,1.7,0.6
							c0.5,0.2,1,0.5,1.3,0.9c0.4,0.4,0.6,0.8,0.8,1.3c0.2,0.5,0.2,1.1,0.1,1.8c-0.1,0.9-0.4,1.6-0.9,2.3c-0.5,0.6-1,1.1-1.7,1.5
							c-0.7,0.4-1.4,0.7-2.2,0.9c-0.8,0.2-1.6,0.3-2.3,0.3c-1.3,0-2.4-0.2-3.3-0.6c-0.9-0.4-1.7-1.1-2.3-2.2l2.5-1.8
							c0.4,0.5,0.9,0.9,1.5,1.3c0.6,0.4,1.3,0.6,2.1,0.6c0.8,0,1.5-0.2,2.2-0.5c0.7-0.3,1.1-0.8,1.2-1.5c0.1-0.4,0-0.8-0.2-1.1
							s-0.5-0.5-0.9-0.7c-0.4-0.2-0.8-0.3-1.2-0.4c-0.4-0.1-0.8-0.2-1.1-0.2c-0.6-0.2-1.2-0.3-1.8-0.5c-0.6-0.2-1-0.5-1.4-0.8
							c-0.4-0.3-0.7-0.7-0.9-1.3s-0.2-1.1-0.1-1.9c0.1-0.8,0.4-1.5,0.8-2.1s0.9-1.1,1.6-1.5c0.6-0.4,1.3-0.7,2-0.9
							c0.7-0.2,1.5-0.3,2.2-0.3c1.1,0,2,0.2,2.9,0.6c0.9,0.4,1.6,1.1,2,2L589.6-86.2z"/>
						<path class="st2" d="M604.5-87.5h-4.3l-1,7.1c-0.1,0.4-0.1,0.9-0.1,1.3s0,0.8,0.1,1.2c0.1,0.3,0.3,0.6,0.5,0.8
							c0.3,0.2,0.7,0.3,1.3,0.3c0.4,0,0.7,0,1.1-0.1c0.4-0.1,0.7-0.2,1.1-0.4l-0.4,2.7c-0.2,0.1-0.4,0.2-0.7,0.3
							c-0.3,0.1-0.5,0.1-0.8,0.1c-0.3,0-0.5,0.1-0.7,0.1c-0.2,0-0.4,0-0.6,0c-1.1,0-2-0.2-2.6-0.5c-0.6-0.3-1-0.7-1.2-1.2
							s-0.3-1.1-0.3-1.7s0.1-1.3,0.2-1.9l1.2-8.1h-3.4l0.4-2.6h3.4l0.6-4.4h3l-0.6,4.4h4.3L604.5-87.5z"/>
						<path class="st2" d="M608.5-88.2c0.9-0.8,2-1.3,3.1-1.7c1.2-0.4,2.3-0.6,3.4-0.6c1.1,0,2.1,0.1,2.9,0.4s1.4,0.7,1.9,1.2
							s0.8,1,0.9,1.7c0.2,0.6,0.2,1.3,0.1,2l-1.1,8c-0.1,0.5-0.2,1.1-0.2,1.5s-0.1,0.9-0.1,1.3h-2.6c0-0.4,0-0.8,0.1-1.2
							c0-0.4,0.1-0.8,0.1-1.2h-0.1c-0.8,1-1.7,1.7-2.6,2.1c-1,0.4-2,0.6-3.2,0.6c-0.7,0-1.4-0.1-2-0.3c-0.6-0.2-1.2-0.5-1.6-0.9
							c-0.4-0.4-0.8-0.9-1-1.5c-0.2-0.6-0.3-1.3-0.1-2c0.1-1,0.5-1.9,1-2.5c0.5-0.7,1.2-1.2,2.1-1.7s1.8-0.7,2.9-0.9
							s2.2-0.3,3.4-0.3h2.2l0.1-0.7c0.1-0.4,0-0.8,0-1.2c-0.1-0.4-0.3-0.8-0.5-1.1c-0.3-0.3-0.6-0.6-1.1-0.8c-0.4-0.2-1-0.3-1.6-0.3
							c-0.6,0-1.1,0.1-1.5,0.2c-0.5,0.1-0.9,0.2-1.2,0.4c-0.4,0.2-0.7,0.4-1,0.6c-0.3,0.2-0.6,0.4-0.9,0.6L608.5-88.2z M616-82
							c-0.7,0-1.4,0-2.2,0.1c-0.8,0.1-1.4,0.2-2.1,0.4c-0.6,0.2-1.2,0.5-1.6,0.9c-0.4,0.4-0.7,0.9-0.8,1.5c-0.1,0.9,0.1,1.5,0.6,1.9
							c0.6,0.4,1.3,0.6,2.4,0.6c0.8,0,1.5-0.1,2.1-0.4c0.6-0.3,1.1-0.6,1.5-1.1c0.4-0.4,0.7-0.9,1-1.5c0.2-0.5,0.4-1.1,0.4-1.6
							l0.2-1H616z"/>
						<path class="st2" d="M639.2-74.6c-0.2,1.2-0.5,2.3-1.1,3.2c-0.5,1-1.2,1.8-2.1,2.5s-1.8,1.3-2.9,1.7c-1.1,0.4-2.3,0.6-3.6,0.6
							c-1.5,0-2.8-0.2-4-0.6c-1.2-0.4-2.3-1.1-3.2-2.2l2.3-2.5c0.7,0.8,1.4,1.5,2.3,1.9c0.8,0.4,1.8,0.6,3,0.6c1.1,0,2-0.2,2.8-0.5
							c0.8-0.3,1.4-0.7,1.9-1.2s0.9-1.1,1.1-1.7c0.3-0.6,0.4-1.3,0.6-2l0.3-2.3h-0.1c-0.7,0.9-1.6,1.6-2.6,2.1
							c-1,0.5-2.1,0.7-3.2,0.7c-1.1,0-2.2-0.2-3.1-0.6c-0.9-0.4-1.7-1-2.3-1.7s-1-1.6-1.3-2.5s-0.3-2-0.1-3.2c0.2-1.1,0.5-2.2,1-3.2
							c0.5-1,1.2-1.9,2-2.6c0.8-0.7,1.7-1.3,2.7-1.7c1-0.4,2.2-0.6,3.4-0.6c1.1,0,2,0.2,3,0.7c0.9,0.5,1.6,1.1,2.1,1.9h0.1l0.3-2.2
							h3L639.2-74.6z M632.9-87.7c-0.8,0-1.5,0.1-2.2,0.4c-0.7,0.3-1.3,0.6-1.8,1.1c-0.5,0.5-0.9,1-1.3,1.7
							c-0.3,0.7-0.5,1.4-0.7,2.2c-0.2,1.6,0,2.8,0.8,3.8s2,1.4,3.6,1.4c1.6,0,2.9-0.5,4-1.4c1.1-1,1.7-2.2,1.9-3.8
							c0.1-0.8,0.1-1.5,0-2.2c-0.1-0.7-0.4-1.2-0.8-1.7c-0.4-0.5-0.9-0.8-1.5-1.1C634.4-87.6,633.7-87.7,632.9-87.7z"/>
					</g>
					<g class="st0">
						<path class="st6" d="M551-97.8h3.1h11.6l-0.4,3h-11.5l-1,7.3h10.7l-0.4,3h-10.7l-1.4,10.1h-3.2L551-97.8z"/>
						<path class="st6" d="M566.9-88.2c0.9-0.8,2-1.3,3.1-1.7s2.3-0.6,3.4-0.6c1.1,0,2.1,0.1,2.9,0.4c0.8,0.3,1.4,0.7,1.9,1.2
							s0.8,1,0.9,1.7c0.2,0.6,0.2,1.3,0.1,2l-1.1,8c-0.1,0.5-0.2,1.1-0.2,1.5s-0.1,0.9-0.1,1.3h-2.6c0-0.4,0-0.8,0.1-1.2
							c0-0.4,0.1-0.8,0.1-1.2h-0.1c-0.8,1-1.7,1.7-2.6,2.1c-1,0.4-2,0.6-3.2,0.6c-0.7,0-1.4-0.1-2-0.3c-0.6-0.2-1.2-0.5-1.6-0.9
							c-0.4-0.4-0.8-0.9-1-1.5c-0.2-0.6-0.3-1.3-0.1-2c0.1-1,0.5-1.9,1-2.5c0.5-0.7,1.2-1.2,2.1-1.7c0.8-0.4,1.8-0.7,2.9-0.9
							c1.1-0.2,2.2-0.3,3.4-0.3h2.2l0.1-0.7c0.1-0.4,0-0.8,0-1.2c-0.1-0.4-0.3-0.8-0.5-1.1c-0.3-0.3-0.6-0.6-1.1-0.8
							c-0.4-0.2-1-0.3-1.6-0.3c-0.6,0-1.1,0.1-1.5,0.2c-0.5,0.1-0.9,0.2-1.2,0.4c-0.4,0.2-0.7,0.4-1,0.6c-0.3,0.2-0.6,0.4-0.9,0.6
							L566.9-88.2z M574.4-82c-0.7,0-1.4,0-2.2,0.1s-1.4,0.2-2.1,0.4c-0.6,0.2-1.2,0.5-1.6,0.9c-0.4,0.4-0.7,0.9-0.8,1.5
							c-0.1,0.9,0.1,1.5,0.6,1.9c0.5,0.4,1.3,0.6,2.4,0.6c0.8,0,1.5-0.1,2.1-0.4c0.6-0.3,1.1-0.6,1.5-1.1c0.4-0.4,0.7-0.9,1-1.5
							c0.2-0.5,0.4-1.1,0.4-1.6l0.2-1H574.4z"/>
					</g>
					<g class="st0">
						<path class="st6" d="M589.6-86.2c-0.3-0.4-0.7-0.8-1.1-1.1c-0.5-0.3-1.1-0.4-1.8-0.4c-0.7,0-1.3,0.1-1.9,0.4s-0.9,0.7-0.9,1.3
							c-0.1,0.5,0,0.8,0.3,1.1c0.3,0.3,0.6,0.5,1,0.7c0.4,0.2,0.8,0.3,1.2,0.4c0.4,0.1,0.8,0.2,1.2,0.2c0.6,0.2,1.2,0.3,1.7,0.6
							c0.5,0.2,1,0.5,1.3,0.9c0.4,0.4,0.6,0.8,0.8,1.3c0.2,0.5,0.2,1.1,0.1,1.8c-0.1,0.9-0.4,1.6-0.9,2.3c-0.5,0.6-1,1.1-1.7,1.5
							c-0.7,0.4-1.4,0.7-2.2,0.9c-0.8,0.2-1.6,0.3-2.3,0.3c-1.3,0-2.4-0.2-3.3-0.6c-0.9-0.4-1.7-1.1-2.3-2.2l2.5-1.8
							c0.4,0.5,0.9,0.9,1.5,1.3c0.6,0.4,1.3,0.6,2.1,0.6c0.8,0,1.5-0.2,2.2-0.5c0.7-0.3,1.1-0.8,1.2-1.5c0.1-0.4,0-0.8-0.2-1.1
							s-0.5-0.5-0.9-0.7c-0.4-0.2-0.8-0.3-1.2-0.4c-0.4-0.1-0.8-0.2-1.1-0.2c-0.6-0.2-1.2-0.3-1.8-0.5c-0.6-0.2-1-0.5-1.4-0.8
							c-0.4-0.3-0.7-0.7-0.9-1.3s-0.2-1.1-0.1-1.9c0.1-0.8,0.4-1.5,0.8-2.1s0.9-1.1,1.6-1.5c0.6-0.4,1.3-0.7,2-0.9
							c0.7-0.2,1.5-0.3,2.2-0.3c1.1,0,2,0.2,2.9,0.6c0.9,0.4,1.6,1.1,2,2L589.6-86.2z"/>
						<path class="st6" d="M604.5-87.5h-4.3l-1,7.1c-0.1,0.4-0.1,0.9-0.1,1.3s0,0.8,0.1,1.2c0.1,0.3,0.3,0.6,0.5,0.8
							c0.3,0.2,0.7,0.3,1.3,0.3c0.4,0,0.7,0,1.1-0.1c0.4-0.1,0.7-0.2,1.1-0.4l-0.4,2.7c-0.2,0.1-0.4,0.2-0.7,0.3
							c-0.3,0.1-0.5,0.1-0.8,0.1c-0.3,0-0.5,0.1-0.7,0.1c-0.2,0-0.4,0-0.6,0c-1.1,0-2-0.2-2.6-0.5c-0.6-0.3-1-0.7-1.2-1.2
							s-0.3-1.1-0.3-1.7s0.1-1.3,0.2-1.9l1.2-8.1h-3.4l0.4-2.6h3.4l0.6-4.4h3l-0.6,4.4h4.3L604.5-87.5z"/>
						<path class="st6" d="M608.5-88.2c0.9-0.8,2-1.3,3.1-1.7c1.2-0.4,2.3-0.6,3.4-0.6c1.1,0,2.1,0.1,2.9,0.4s1.4,0.7,1.9,1.2
							s0.8,1,0.9,1.7c0.2,0.6,0.2,1.3,0.1,2l-1.1,8c-0.1,0.5-0.2,1.1-0.2,1.5s-0.1,0.9-0.1,1.3h-2.6c0-0.4,0-0.8,0.1-1.2
							c0-0.4,0.1-0.8,0.1-1.2h-0.1c-0.8,1-1.7,1.7-2.6,2.1c-1,0.4-2,0.6-3.2,0.6c-0.7,0-1.4-0.1-2-0.3c-0.6-0.2-1.2-0.5-1.6-0.9
							c-0.4-0.4-0.8-0.9-1-1.5c-0.2-0.6-0.3-1.3-0.1-2c0.1-1,0.5-1.9,1-2.5c0.5-0.7,1.2-1.2,2.1-1.7s1.8-0.7,2.9-0.9
							s2.2-0.3,3.4-0.3h2.2l0.1-0.7c0.1-0.4,0-0.8,0-1.2c-0.1-0.4-0.3-0.8-0.5-1.1c-0.3-0.3-0.6-0.6-1.1-0.8c-0.4-0.2-1-0.3-1.6-0.3
							c-0.6,0-1.1,0.1-1.5,0.2c-0.5,0.1-0.9,0.2-1.2,0.4c-0.4,0.2-0.7,0.4-1,0.6c-0.3,0.2-0.6,0.4-0.9,0.6L608.5-88.2z M616-82
							c-0.7,0-1.4,0-2.2,0.1c-0.8,0.1-1.4,0.2-2.1,0.4c-0.6,0.2-1.2,0.5-1.6,0.9c-0.4,0.4-0.7,0.9-0.8,1.5c-0.1,0.9,0.1,1.5,0.6,1.9
							c0.6,0.4,1.3,0.6,2.4,0.6c0.8,0,1.5-0.1,2.1-0.4c0.6-0.3,1.1-0.6,1.5-1.1c0.4-0.4,0.7-0.9,1-1.5c0.2-0.5,0.4-1.1,0.4-1.6
							l0.2-1H616z"/>
						<path class="st6" d="M639.2-74.6c-0.2,1.2-0.5,2.3-1.1,3.2c-0.5,1-1.2,1.8-2.1,2.5s-1.8,1.3-2.9,1.7c-1.1,0.4-2.3,0.6-3.6,0.6
							c-1.5,0-2.8-0.2-4-0.6c-1.2-0.4-2.3-1.1-3.2-2.2l2.3-2.5c0.7,0.8,1.4,1.5,2.3,1.9c0.8,0.4,1.8,0.6,3,0.6c1.1,0,2-0.2,2.8-0.5
							c0.8-0.3,1.4-0.7,1.9-1.2s0.9-1.1,1.1-1.7c0.3-0.6,0.4-1.3,0.6-2l0.3-2.3h-0.1c-0.7,0.9-1.6,1.6-2.6,2.1
							c-1,0.5-2.1,0.7-3.2,0.7c-1.1,0-2.2-0.2-3.1-0.6c-0.9-0.4-1.7-1-2.3-1.7s-1-1.6-1.3-2.5s-0.3-2-0.1-3.2c0.2-1.1,0.5-2.2,1-3.2
							c0.5-1,1.2-1.9,2-2.6c0.8-0.7,1.7-1.3,2.7-1.7c1-0.4,2.2-0.6,3.4-0.6c1.1,0,2,0.2,3,0.7c0.9,0.5,1.6,1.1,2.1,1.9h0.1l0.3-2.2
							h3L639.2-74.6z M632.9-87.7c-0.8,0-1.5,0.1-2.2,0.4c-0.7,0.3-1.3,0.6-1.8,1.1c-0.5,0.5-0.9,1-1.3,1.7
							c-0.3,0.7-0.5,1.4-0.7,2.2c-0.2,1.6,0,2.8,0.8,3.8s2,1.4,3.6,1.4c1.6,0,2.9-0.5,4-1.4c1.1-1,1.7-2.2,1.9-3.8
							c0.1-0.8,0.1-1.5,0-2.2c-0.1-0.7-0.4-1.2-0.8-1.7c-0.4-0.5-0.9-0.8-1.5-1.1C634.4-87.6,633.7-87.7,632.9-87.7z"/>
					</g>
				</g>
				<g>
					<g class="st0">
						<path class="st2" d="M428.8-85.4l-1-2.2c3.3-0.9,5.5-2.4,6.7-4.5h-5.4l0.3-2.1h5.9l0-0.3l0.3-2.5H433
							c-0.5,0.8-1.2,1.6-2.2,2.5c-0.5-0.8-0.9-1.3-1.4-1.7c1.4-1.3,2.5-2.9,3.2-4.8l2.1,1l-0.5,0.9h8.4l-0.2,2h-4.6l-0.3,2.5l0,0.3
							h5.2l-0.3,2.1h-5c1.5,1,2.9,2.2,4.3,3.4l-1.6,2c-1.1-1.2-2.5-2.4-4.2-3.8C434.2-88.2,431.8-86.5,428.8-85.4z M448.7-74.4
							h-18.5c-0.2,0-0.3-0.1-0.3-0.3l1.3-11c0-0.2,0.1-0.3,0.4-0.3h18.5c0.2,0,0.3,0.1,0.3,0.3l-1.3,11
							C449.1-74.5,449-74.4,448.7-74.4z M432.8-79.1l-0.3,2.3c0,0.1,0,0.1,0.1,0.1h14.2l0.1-0.1l0.3-2.3H432.8z M447.5-81.3l0.3-2.4
							c0-0.1,0-0.1-0.1-0.1h-14.2c-0.1,0-0.1,0-0.1,0.1l-0.3,2.4H447.5z M452.6-87.6h-9.4c-0.2,0-0.3-0.1-0.3-0.3l1.3-11.2
							c0-0.2,0.1-0.3,0.3-0.3h9.4c0.2,0,0.3,0.1,0.3,0.3l-1.3,11.2C452.9-87.7,452.8-87.6,452.6-87.6z M446.4-97.3
							C446.3-97.3,446.3-97.2,446.4-97.3l-1,7.4l0.1,0.1h5.3l0.1-0.1l0.9-7.4l-0.1-0.1H446.4z"/>
						<path class="st2" d="M459.5-78.2c-1.3,1.9-2.6,3.4-4.1,4.5c-0.4-0.8-0.8-1.5-1.2-1.9c1.3-1,2.4-2.3,3.3-3.9L459.5-78.2z
							 M477.3-81.2c-0.1,0.5-0.3,0.7-0.8,0.7h-17.7l0.2-2H475c0.1,0,0.2-0.1,0.2-0.2l0.1-1.1h-20l0.2-1.9h20l0.1-1.2
							c0-0.1,0-0.2-0.2-0.2h-16l0.2-2h17.8c0.5,0,0.7,0.2,0.6,0.7l-0.3,2.7h3.8l-0.2,1.9h-3.8L477.3-81.2z M456.9-90.5l0-2l5.1-0.1
							l0.2-1.4h-4.6l0.2-1.9h4.6l0.1-1.2h-5.1l0.2-1.9h5.1l0.2-1.7h2.3l-0.2,1.7h4.3l-0.2,1.9h-4.3l-0.1,1.2h3.7l-0.2,1.9h-3.7
							l-0.1,1.2c1.6-0.2,3-0.4,3.9-0.5l0,2c-0.9,0.2-2.3,0.4-4.2,0.6l-0.1,1h-2.3l0.1-0.9L456.9-90.5z M471.7-76.1
							c0.4,0,0.7-0.1,1-0.2c0.2-0.1,0.4-0.3,0.6-0.5l0.3-1.8l2.4,0.2c-0.2,2.1-0.5,3.4-0.9,3.6c-0.6,0.7-1.6,1-2.8,1H463
							c-0.7,0-1.2-0.2-1.5-0.5c-0.7-0.6-1-1.7-0.8-3.2l0.3-2.8h2.4l-0.3,2.4c-0.1,0.6-0.1,1,0,1.1c0.1,0.3,0.5,0.5,1.2,0.5h4.2
							c-0.7-1.1-1.4-2-2-2.6l1.8-1.6c0.7,0.7,1.4,1.7,2.2,2.9l-1.6,1.3H471.7z M469.2-90.9l0.2-1.9h5.2l0.2-1.3h-4.1l0.2-1.9h4.1
							l0.2-1.3h-4.6l0.2-1.9h4.6l0.2-1.6h2.3l-0.2,1.6h5l-0.2,1.9h-5l-0.2,1.3h4.1l-0.2,1.9h-4.1l-0.2,1.3h5.3l-0.2,1.9h-5.3
							l-0.1,1.1h-2.3l0.1-1.1H469.2z M478.2-79.8c0.8,1.3,1.5,2.9,2.2,5l-2.2,1c-0.7-2-1.3-3.6-2-4.6L478.2-79.8z"/>
						<path class="st2" d="M487.9-74h-2.3l1.4-11.4c-0.6,1.3-1.2,2.4-1.7,3.3l-2.3-0.5c2.1-3.2,3.6-6.5,4.6-10h-3l0.3-2.5h3.3
							l0.7-5.6h2.3l-0.7,5.6h2.1l-0.3,2.5h-2.1l-0.1,0.7c0.9,1.8,1.8,3.6,2.6,5.5l-2.2,1.3l-0.9-2.4L487.9-74z M495.5-78.7
							c-2,2.1-3.9,3.4-5.6,4.1l-1.2-2.1c2.1-0.9,3.8-2.2,5.1-3.7L495.5-78.7z M490.9-80.9l0.3-2.4h17.9l-0.3,2.4h-7.5l-0.5,4.5
							c-0.1,1.1-0.7,1.9-1.6,2.5c-0.9,0.6-2.6,0.5-5-0.3l0.4-2.6l1.6,0.6c0.9,0.2,1.5,0.2,1.8,0c0.2-0.2,0.3-0.4,0.3-0.8l0.5-3.8
							H490.9z M509.8-95.8c0.2,0,0.3,0.1,0.3,0.3l-0.8,6.6c0,0.2-0.2,0.3-0.4,0.3h-15.8c-0.2,0-0.3-0.1-0.3-0.3l0.8-6.6
							c0-0.2,0.1-0.3,0.3-0.3h4.4l0.2-1.7h-5.3l0.3-2.3h17.6l-0.3,2.3h-5.3l-0.2,1.7H509.8z M508.3-87.2l-0.3,2.4h-14.5l0.3-2.4
							H508.3z M498.1-93.6h-2.3c-0.1,0-0.1,0-0.1,0.1l-0.3,2.6l0.1,0.1h2.3L498.1-93.6z M502.8-93.6h-2.4l-0.3,2.8h2.4L502.8-93.6z
							 M503.3-97.6h-2.4l-0.2,1.7h2.4L503.3-97.6z M504.7-79.8c1.2,0.9,2.5,2.2,3.8,4l-1.9,1.8c-1.4-1.8-2.6-3.1-3.7-3.9L504.7-79.8
							z M504.8-90.8h2.4l0.1-0.1l0.3-2.6l-0.1-0.1h-2.4L504.8-90.8z"/>
						<path class="st2" d="M510.5-74.7l0-2.1l5.9-0.3l0.2-2.1h-5.2l0.2-1.8h5.2l0.2-1.5h-5.2l0.2-1.8h5.2l0.2-1.4h-5.3l0.2-1.8h5.3
							l0.2-1.5h-5.6l0.2-1.9h7.1l-2-1.8c-0.7,0.6-1.4,1.1-2.3,1.5l-1-1.7c1.6-0.8,2.9-1.8,3.9-3.1l1.4,1.3l-0.6,0.7l1.9,1.4
							l-1.3,1.7h10.1l0.1-4.1l2.2,0.2l-0.1,3.9h6.2l-0.2,1.9h-5.9c0.1,2.5,0.2,4.6,0.4,6.3c0.4-0.7,1.1-2.2,1.9-4.6l2,0.5
							c-0.9,2.7-2,5-3.4,7l0.7,2.5c0.2,0.6,0.4,1,0.5,0.9c0.2,0,0.3-0.2,0.3-0.6c0.2-0.9,0.3-1.9,0.4-3.2l2.1,0.5
							c-0.3,2.3-0.8,4-1.4,5.2c-0.3,0.4-0.6,0.7-0.8,0.8c-0.2,0.1-0.5,0.2-0.8,0.1c-0.5,0-1-0.4-1.5-1c-0.5-0.8-0.9-1.9-1.3-3.3
							c-1.9,1.8-3.5,3.1-4.8,4l-1.5-1.5l0.5-0.3L510.5-74.7z M516.5-97c-0.8,0.9-1.8,1.7-2.9,2.5c-0.3-0.8-0.6-1.4-1-1.9
							c1.7-1.1,3.1-2.6,4.3-4.5l1.8,1.3l-0.4,0.6h7.1l-0.2,2h-3.1l0.6,1l-1.7,1.3l-1.5-2.3H516.5z M520.9-77.4l1.4-11.5H520
							l-1.4,11.7L520.9-77.4z M522.8-91l-1.3-1.4c1.3-0.8,2.3-1.9,3.1-3.1l1.6,1l-0.4,0.5l2.4,1.4l-1.1,1.8l-2.4-1.7L522.8-91z
							 M530.5-80.2c-0.5-2.5-0.8-5.5-0.9-8.8h-5.2l-0.2,1.5h4.5l-0.2,1.8h-4.5l-0.2,1.4h4.5l-0.2,1.8h-4.5l-0.2,1.5h4.5l-0.2,1.8
							h-4.5l-0.2,1.7l4.1-0.3l-0.1,0.9l2.6-2.2L530.5-80.2z M528.3-97l-0.1,0.1c-0.7,0.7-1.4,1.4-2.2,2c-0.3-0.8-0.7-1.4-1.1-1.8
							c1.4-1,2.6-2.5,3.6-4.2l1.9,1.2l-0.5,0.7h9.1l-0.2,2h-5.2l0.4,1.2l-1.9,0.9l-0.8-2.1H528.3z M534.8-95.4
							c0.8,0.5,1.6,1.2,2.5,2.1l-1.6,1.8c-0.9-0.9-1.7-1.6-2.3-2L534.8-95.4z"/>
					</g>
					<g class="st0">
						<path class="st6" d="M428.8-85.4l-1-2.2c3.3-0.9,5.5-2.4,6.7-4.5h-5.4l0.3-2.1h5.9l0-0.3l0.3-2.5H433
							c-0.5,0.8-1.2,1.6-2.2,2.5c-0.5-0.8-0.9-1.3-1.4-1.7c1.4-1.3,2.5-2.9,3.2-4.8l2.1,1l-0.5,0.9h8.4l-0.2,2h-4.6l-0.3,2.5l0,0.3
							h5.2l-0.3,2.1h-5c1.5,1,2.9,2.2,4.3,3.4l-1.6,2c-1.1-1.2-2.5-2.4-4.2-3.8C434.2-88.2,431.8-86.5,428.8-85.4z M448.7-74.4
							h-18.5c-0.2,0-0.3-0.1-0.3-0.3l1.3-11c0-0.2,0.1-0.3,0.4-0.3h18.5c0.2,0,0.3,0.1,0.3,0.3l-1.3,11
							C449.1-74.5,449-74.4,448.7-74.4z M432.8-79.1l-0.3,2.3c0,0.1,0,0.1,0.1,0.1h14.2l0.1-0.1l0.3-2.3H432.8z M447.5-81.3l0.3-2.4
							c0-0.1,0-0.1-0.1-0.1h-14.2c-0.1,0-0.1,0-0.1,0.1l-0.3,2.4H447.5z M452.6-87.6h-9.4c-0.2,0-0.3-0.1-0.3-0.3l1.3-11.2
							c0-0.2,0.1-0.3,0.3-0.3h9.4c0.2,0,0.3,0.1,0.3,0.3l-1.3,11.2C452.9-87.7,452.8-87.6,452.6-87.6z M446.4-97.3
							C446.3-97.3,446.3-97.2,446.4-97.3l-1,7.4l0.1,0.1h5.3l0.1-0.1l0.9-7.4l-0.1-0.1H446.4z"/>
						<path class="st6" d="M459.5-78.2c-1.3,1.9-2.6,3.4-4.1,4.5c-0.4-0.8-0.8-1.5-1.2-1.9c1.3-1,2.4-2.3,3.3-3.9L459.5-78.2z
							 M477.3-81.2c-0.1,0.5-0.3,0.7-0.8,0.7h-17.7l0.2-2H475c0.1,0,0.2-0.1,0.2-0.2l0.1-1.1h-20l0.2-1.9h20l0.1-1.2
							c0-0.1,0-0.2-0.2-0.2h-16l0.2-2h17.8c0.5,0,0.7,0.2,0.6,0.7l-0.3,2.7h3.8l-0.2,1.9h-3.8L477.3-81.2z M456.9-90.5l0-2l5.1-0.1
							l0.2-1.4h-4.6l0.2-1.9h4.6l0.1-1.2h-5.1l0.2-1.9h5.1l0.2-1.7h2.3l-0.2,1.7h4.3l-0.2,1.9h-4.3l-0.1,1.2h3.7l-0.2,1.9h-3.7
							l-0.1,1.2c1.6-0.2,3-0.4,3.9-0.5l0,2c-0.9,0.2-2.3,0.4-4.2,0.6l-0.1,1h-2.3l0.1-0.9L456.9-90.5z M471.7-76.1
							c0.4,0,0.7-0.1,1-0.2c0.2-0.1,0.4-0.3,0.6-0.5l0.3-1.8l2.4,0.2c-0.2,2.1-0.5,3.4-0.9,3.6c-0.6,0.7-1.6,1-2.8,1H463
							c-0.7,0-1.2-0.2-1.5-0.5c-0.7-0.6-1-1.7-0.8-3.2l0.3-2.8h2.4l-0.3,2.4c-0.1,0.6-0.1,1,0,1.1c0.1,0.3,0.5,0.5,1.2,0.5h4.2
							c-0.7-1.1-1.4-2-2-2.6l1.8-1.6c0.7,0.7,1.4,1.7,2.2,2.9l-1.6,1.3H471.7z M469.2-90.9l0.2-1.9h5.2l0.2-1.3h-4.1l0.2-1.9h4.1
							l0.2-1.3h-4.6l0.2-1.9h4.6l0.2-1.6h2.3l-0.2,1.6h5l-0.2,1.9h-5l-0.2,1.3h4.1l-0.2,1.9h-4.1l-0.2,1.3h5.3l-0.2,1.9h-5.3
							l-0.1,1.1h-2.3l0.1-1.1H469.2z M478.2-79.8c0.8,1.3,1.5,2.9,2.2,5l-2.2,1c-0.7-2-1.3-3.6-2-4.6L478.2-79.8z"/>
						<path class="st6" d="M487.9-74h-2.3l1.4-11.4c-0.6,1.3-1.2,2.4-1.7,3.3l-2.3-0.5c2.1-3.2,3.6-6.5,4.6-10h-3l0.3-2.5h3.3
							l0.7-5.6h2.3l-0.7,5.6h2.1l-0.3,2.5h-2.1l-0.1,0.7c0.9,1.8,1.8,3.6,2.6,5.5l-2.2,1.3l-0.9-2.4L487.9-74z M495.5-78.7
							c-2,2.1-3.9,3.4-5.6,4.1l-1.2-2.1c2.1-0.9,3.8-2.2,5.1-3.7L495.5-78.7z M490.9-80.9l0.3-2.4h17.9l-0.3,2.4h-7.5l-0.5,4.5
							c-0.1,1.1-0.7,1.9-1.6,2.5c-0.9,0.6-2.6,0.5-5-0.3l0.4-2.6l1.6,0.6c0.9,0.2,1.5,0.2,1.8,0c0.2-0.2,0.3-0.4,0.3-0.8l0.5-3.8
							H490.9z M509.8-95.8c0.2,0,0.3,0.1,0.3,0.3l-0.8,6.6c0,0.2-0.2,0.3-0.4,0.3h-15.8c-0.2,0-0.3-0.1-0.3-0.3l0.8-6.6
							c0-0.2,0.1-0.3,0.3-0.3h4.4l0.2-1.7h-5.3l0.3-2.3h17.6l-0.3,2.3h-5.3l-0.2,1.7H509.8z M508.3-87.2l-0.3,2.4h-14.5l0.3-2.4
							H508.3z M498.1-93.6h-2.3c-0.1,0-0.1,0-0.1,0.1l-0.3,2.6l0.1,0.1h2.3L498.1-93.6z M502.8-93.6h-2.4l-0.3,2.8h2.4L502.8-93.6z
							 M503.3-97.6h-2.4l-0.2,1.7h2.4L503.3-97.6z M504.7-79.8c1.2,0.9,2.5,2.2,3.8,4l-1.9,1.8c-1.4-1.8-2.6-3.1-3.7-3.9L504.7-79.8
							z M504.8-90.8h2.4l0.1-0.1l0.3-2.6l-0.1-0.1h-2.4L504.8-90.8z"/>
						<path class="st6" d="M510.5-74.7l0-2.1l5.9-0.3l0.2-2.1h-5.2l0.2-1.8h5.2l0.2-1.5h-5.2l0.2-1.8h5.2l0.2-1.4h-5.3l0.2-1.8h5.3
							l0.2-1.5h-5.6l0.2-1.9h7.1l-2-1.8c-0.7,0.6-1.4,1.1-2.3,1.5l-1-1.7c1.6-0.8,2.9-1.8,3.9-3.1l1.4,1.3l-0.6,0.7l1.9,1.4
							l-1.3,1.7h10.1l0.1-4.1l2.2,0.2l-0.1,3.9h6.2l-0.2,1.9h-5.9c0.1,2.5,0.2,4.6,0.4,6.3c0.4-0.7,1.1-2.2,1.9-4.6l2,0.5
							c-0.9,2.7-2,5-3.4,7l0.7,2.5c0.2,0.6,0.4,1,0.5,0.9c0.2,0,0.3-0.2,0.3-0.6c0.2-0.9,0.3-1.9,0.4-3.2l2.1,0.5
							c-0.3,2.3-0.8,4-1.4,5.2c-0.3,0.4-0.6,0.7-0.8,0.8c-0.2,0.1-0.5,0.2-0.8,0.1c-0.5,0-1-0.4-1.5-1c-0.5-0.8-0.9-1.9-1.3-3.3
							c-1.9,1.8-3.5,3.1-4.8,4l-1.5-1.5l0.5-0.3L510.5-74.7z M516.5-97c-0.8,0.9-1.8,1.7-2.9,2.5c-0.3-0.8-0.6-1.4-1-1.9
							c1.7-1.1,3.1-2.6,4.3-4.5l1.8,1.3l-0.4,0.6h7.1l-0.2,2h-3.1l0.6,1l-1.7,1.3l-1.5-2.3H516.5z M520.9-77.4l1.4-11.5H520
							l-1.4,11.7L520.9-77.4z M522.8-91l-1.3-1.4c1.3-0.8,2.3-1.9,3.1-3.1l1.6,1l-0.4,0.5l2.4,1.4l-1.1,1.8l-2.4-1.7L522.8-91z
							 M530.5-80.2c-0.5-2.5-0.8-5.5-0.9-8.8h-5.2l-0.2,1.5h4.5l-0.2,1.8h-4.5l-0.2,1.4h4.5l-0.2,1.8h-4.5l-0.2,1.5h4.5l-0.2,1.8
							h-4.5l-0.2,1.7l4.1-0.3l-0.1,0.9l2.6-2.2L530.5-80.2z M528.3-97l-0.1,0.1c-0.7,0.7-1.4,1.4-2.2,2c-0.3-0.8-0.7-1.4-1.1-1.8
							c1.4-1,2.6-2.5,3.6-4.2l1.9,1.2l-0.5,0.7h9.1l-0.2,2h-5.2l0.4,1.2l-1.9,0.9l-0.8-2.1H528.3z M534.8-95.4
							c0.8,0.5,1.6,1.2,2.5,2.1l-1.6,1.8c-0.9-0.9-1.7-1.6-2.3-2L534.8-95.4z"/>
					</g>
				</g>
			</g>
		</g>
	</g>
	<path class="st7" d="M419.5-60.7c-14.7,0-26.8-12-26.8-26.8l0,0c0-14.7,12-26.8,26.8-26.8h279.7"/>
	<path class="st8" d="M419.8-64.6c-12.5,0-22.7-10.2-22.7-22.7l0,0c0-12.5,10.2-22.7,22.7-22.7h237"/>
	<line class="st5" x1="651.7" y1="-60.7" x2="424.3" y2="-60.7"/>
	<path class="st7" d="M750.5-114.3c14.7,0,26.8,12,26.8,26.8l0,0c0,14.7-12,26.8-26.8,26.8h-93.8"/>
	<path class="st8" d="M749.9-110.4c12.6,0,22.9,10.3,22.9,22.9l0,0c0,12.6-10.3,22.9-22.9,22.9h-78.7"/>
	<line class="st5" x1="705" y1="-114.3" x2="745.5" y2="-114.3"/>
</g>
<g>
	<g>
		<g>
			<g>
				<g class="st0">
					<path class="st2" d="M546.9,203.7h-24.6c-0.4,0-0.6-0.3-0.6-0.7l3.1-25.6c0-0.4,0.3-0.7,0.7-0.7h24.6c0.5,0,0.7,0.2,0.6,0.7
						l-3.1,25.6C547.6,203.5,547.4,203.7,546.9,203.7z M539.9,179.4h-4.1l-0.8,7c-0.4,2.9-1.1,5.1-2,6.6c-1.1,1.8-2.9,3-5.2,3.6
						l-1.5-2.3c0.9-0.1,1.8-0.4,2.8-0.9c1.7-1,2.8-3.3,3.4-7l0.8-7h-5.8c-0.2,0-0.3,0.1-0.3,0.3l-2.5,21.1c0,0.2,0.1,0.3,0.2,0.3
						h20.3c0.2,0,0.3-0.1,0.3-0.3l0.6-5.1h-6.9c-0.8,0-1.2-0.4-1.1-1.3L539.9,179.4z M546.3,193l1.6-13.3c0-0.2-0.1-0.3-0.3-0.3
						h-5.3l-1.6,12.9c-0.1,0.5,0.1,0.7,0.6,0.7H546.3z"/>
					<path class="st2" d="M566.8,190.9c-2.9,5.7-7.3,10.1-13.4,13.4l-1.6-2.2c7.4-3.4,12.2-9,14.5-17h-11.5l0.3-2.8h11.7l0.3-1.6
						l0.5-4.5h2.8l-0.5,4.5l-0.2,1.6h11.7l-0.3,2.8h-11.4c0,1.2,0,2.3,0.2,3.3c1,5.2,4.3,9.9,10.1,14.2l-2.6,2l-1.5-1.3
						c-4.8-4.3-7.6-8.8-8.5-13.7L566.8,190.9z"/>
					<path class="st2" d="M590.8,184.3h-2.2c-0.6,2.1-1.3,3.6-1.9,4.6l-2.3-0.5c1.6-2.8,2.6-6,3.1-9.6l0.2-1.5h2.3l-0.2,1.5
						l-0.6,2.9h1.9l0.7-6.1h2.4l-0.7,6.1h3l-0.3,2.5h-3l-0.6,5.3l1.7-1.4l1.5,1.9c-1.1,0.9-2.3,1.8-3.6,2.7l-1.4,11.9h-2.4l1.2-10.2
						l-4.3,2.5l-1.4-2.1c2.5-1.3,4.5-2.4,6.1-3.4L590.8,184.3z M595.5,193.4l0.3-2.7h10.4l0.4-3.4h-11.2l0.3-2.5h7l0.4-3.6h-5.8
						l0.3-2.5h5.8l0.4-3.2h2.6l-0.4,3.2h6.6l-0.3,2.5h-6.6l-0.4,3.6h7.6l-0.3,2.5h-3.4l-0.4,3.4h3.2l-0.3,2.7h-3.2l-1,7.9
						c-0.2,1.2-0.7,2.1-1.7,2.7c-1.4,0.9-3.7,0.8-7-0.3l0.4-2.7l2.6,0.8l1.7,0.3c0.4,0,0.8-0.1,1.1-0.5c0.2-0.2,0.3-0.5,0.4-0.9
						l0.9-7.2H595.5z M598.3,194c1.1,1.2,2.2,2.7,3.3,4.7l-2.1,1.6c-1.2-2.1-2.3-3.6-3.3-4.6L598.3,194z"/>
					<path class="st2" d="M618,197.8c-0.6,2.9-1.5,5.2-2.8,7.1c-0.7-0.6-1.3-1-1.9-1.2c1.1-1.7,1.9-3.8,2.2-6.2L618,197.8z
						 M621.3,191.6h-5.3l0.3-2.4h5.3l0.3-2.1h-5.5c-0.2,0-0.3-0.1-0.3-0.3l1.2-10.2c0-0.2,0.1-0.3,0.3-0.3H631
						c0.2,0,0.3,0.1,0.3,0.3l-1.2,10.2c0,0.2-0.2,0.3-0.4,0.3h-5.6l-0.3,2.1h5.3l-0.3,2.4h-5.3l-0.2,1.7l5.6-0.4l-0.1,2.5l-13.8,1
						l0-2.5l6-0.4L621.3,191.6z M621.1,197.9c-0.3,2.5-0.6,4.6-0.9,6.2l-2.3-0.3c0.5-2.3,0.8-4.3,0.9-6L621.1,197.9z M622.8,178.4
						h-3.6l-0.1,0.1l-0.8,6.3l0.1,0.1h3.6L622.8,178.4z M621.6,179.7c0.1,0.9,0.1,2.2,0.1,4.1l-2,0.1c0.1-1.4,0.1-2.7-0.1-4
						L621.6,179.7z M624.3,197.5c0.2,2.1,0.3,4,0.3,6l-2.2,0.2c0.1-1.9,0-3.8-0.3-5.8L624.3,197.5z M624.4,184.9h3.7
						c0.1,0,0.1,0,0.1-0.1l0.8-6.3l-0.1-0.1h-3.7L624.4,184.9z M628.2,179.9l-1.1,4.2l-1.9-0.5l1.1-4.1L628.2,179.9z M627.5,196.8
						c0.5,1.5,0.9,3.2,1.2,5l-2.1,0.5c-0.3-1.5-0.7-3.2-1.2-4.8L627.5,196.8z M640.3,204.2h-11.1c-0.2,0-0.3-0.1-0.3-0.4l1.7-14.3
						c0-0.2,0.1-0.3,0.4-0.3h3.5l1.6-13.5h2.4l-0.6,4.7h6.4l-0.3,2.4h-6.4l-0.8,6.4h5.1c0.2,0,0.3,0.1,0.3,0.3l-1.7,14.3
						C640.7,204.1,640.5,204.2,640.3,204.2z M632.8,191.6L632.8,191.6l-1.3,10l0.1,0.1h6.9c0.1,0,0.1,0,0.1-0.1l1.2-10l-0.1-0.1
						H632.8z"/>
				</g>
				<g>
					<g class="st0">
						<path class="st6" d="M546.9,203.7h-24.6c-0.4,0-0.6-0.3-0.6-0.7l3.1-25.6c0-0.4,0.3-0.7,0.7-0.7h24.6c0.5,0,0.7,0.2,0.6,0.7
							l-3.1,25.6C547.6,203.5,547.4,203.7,546.9,203.7z M539.9,179.4h-4.1l-0.8,7c-0.4,2.9-1.1,5.1-2,6.6c-1.1,1.8-2.9,3-5.2,3.6
							l-1.5-2.3c0.9-0.1,1.8-0.4,2.8-0.9c1.7-1,2.8-3.3,3.4-7l0.8-7h-5.8c-0.2,0-0.3,0.1-0.3,0.3l-2.5,21.1c0,0.2,0.1,0.3,0.2,0.3
							h20.3c0.2,0,0.3-0.1,0.3-0.3l0.6-5.1h-6.9c-0.8,0-1.2-0.4-1.1-1.3L539.9,179.4z M546.3,193l1.6-13.3c0-0.2-0.1-0.3-0.3-0.3
							h-5.3l-1.6,12.9c-0.1,0.5,0.1,0.7,0.6,0.7H546.3z"/>
						<path class="st6" d="M566.8,190.9c-2.9,5.7-7.3,10.1-13.4,13.4l-1.6-2.2c7.4-3.4,12.2-9,14.5-17h-11.5l0.3-2.8h11.7l0.3-1.6
							l0.5-4.5h2.8l-0.5,4.5l-0.2,1.6h11.7l-0.3,2.8h-11.4c0,1.2,0,2.3,0.2,3.3c1,5.2,4.3,9.9,10.1,14.2l-2.6,2l-1.5-1.3
							c-4.8-4.3-7.6-8.8-8.5-13.7L566.8,190.9z"/>
						<path class="st6" d="M590.8,184.3h-2.2c-0.6,2.1-1.3,3.6-1.9,4.6l-2.3-0.5c1.6-2.8,2.6-6,3.1-9.6l0.2-1.5h2.3l-0.2,1.5
							l-0.6,2.9h1.9l0.7-6.1h2.4l-0.7,6.1h3l-0.3,2.5h-3l-0.6,5.3l1.7-1.4l1.5,1.9c-1.1,0.9-2.3,1.8-3.6,2.7l-1.4,11.9h-2.4
							l1.2-10.2l-4.3,2.5l-1.4-2.1c2.5-1.3,4.5-2.4,6.1-3.4L590.8,184.3z M595.5,193.4l0.3-2.7h10.4l0.4-3.4h-11.2l0.3-2.5h7
							l0.4-3.6h-5.8l0.3-2.5h5.8l0.4-3.2h2.6l-0.4,3.2h6.6l-0.3,2.5h-6.6l-0.4,3.6h7.6l-0.3,2.5h-3.4l-0.4,3.4h3.2l-0.3,2.7h-3.2
							l-1,7.9c-0.2,1.2-0.7,2.1-1.7,2.7c-1.4,0.9-3.7,0.8-7-0.3l0.4-2.7l2.6,0.8l1.7,0.3c0.4,0,0.8-0.1,1.1-0.5
							c0.2-0.2,0.3-0.5,0.4-0.9l0.9-7.2H595.5z M598.3,194c1.1,1.2,2.2,2.7,3.3,4.7l-2.1,1.6c-1.2-2.1-2.3-3.6-3.3-4.6L598.3,194z"
							/>
						<path class="st6" d="M618,197.8c-0.6,2.9-1.5,5.2-2.8,7.1c-0.7-0.6-1.3-1-1.9-1.2c1.1-1.7,1.9-3.8,2.2-6.2L618,197.8z
							 M621.3,191.6h-5.3l0.3-2.4h5.3l0.3-2.1h-5.5c-0.2,0-0.3-0.1-0.3-0.3l1.2-10.2c0-0.2,0.1-0.3,0.3-0.3H631
							c0.2,0,0.3,0.1,0.3,0.3l-1.2,10.2c0,0.2-0.2,0.3-0.4,0.3h-5.6l-0.3,2.1h5.3l-0.3,2.4h-5.3l-0.2,1.7l5.6-0.4l-0.1,2.5l-13.8,1
							l0-2.5l6-0.4L621.3,191.6z M621.1,197.9c-0.3,2.5-0.6,4.6-0.9,6.2l-2.3-0.3c0.5-2.3,0.8-4.3,0.9-6L621.1,197.9z M622.8,178.4
							h-3.6l-0.1,0.1l-0.8,6.3l0.1,0.1h3.6L622.8,178.4z M621.6,179.7c0.1,0.9,0.1,2.2,0.1,4.1l-2,0.1c0.1-1.4,0.1-2.7-0.1-4
							L621.6,179.7z M624.3,197.5c0.2,2.1,0.3,4,0.3,6l-2.2,0.2c0.1-1.9,0-3.8-0.3-5.8L624.3,197.5z M624.4,184.9h3.7
							c0.1,0,0.1,0,0.1-0.1l0.8-6.3l-0.1-0.1h-3.7L624.4,184.9z M628.2,179.9l-1.1,4.2l-1.9-0.5l1.1-4.1L628.2,179.9z M627.5,196.8
							c0.5,1.5,0.9,3.2,1.2,5l-2.1,0.5c-0.3-1.5-0.7-3.2-1.2-4.8L627.5,196.8z M640.3,204.2h-11.1c-0.2,0-0.3-0.1-0.3-0.4l1.7-14.3
							c0-0.2,0.1-0.3,0.4-0.3h3.5l1.6-13.5h2.4l-0.6,4.7h6.4l-0.3,2.4h-6.4l-0.8,6.4h5.1c0.2,0,0.3,0.1,0.3,0.3l-1.7,14.3
							C640.7,204.1,640.5,204.2,640.3,204.2z M632.8,191.6L632.8,191.6l-1.3,10l0.1,0.1h6.9c0.1,0,0.1,0,0.1-0.1l1.2-10l-0.1-0.1
							H632.8z"/>
					</g>
				</g>
			</g>
		</g>
	</g>
	<path class="st7" d="M484.4,215.3c-14.7,0-26.8-12-26.8-26.8l0,0c0-14.7,12-26.8,26.8-26.8h149.8"/>
	<path class="st8" d="M484.7,211.4c-12.5,0-22.7-10.2-22.7-22.7l0,0c0-12.5,10.2-22.7,22.7-22.7h107.1"/>
	<line class="st5" x1="586.7" y1="215.3" x2="489.3" y2="215.3"/>
	<path class="st7" d="M685.6,161.7c14.7,0,26.8,12,26.8,26.8l0,0c0,14.7-12,26.8-26.8,26.8h-93.8"/>
	<path class="st8" d="M684.9,165.6c12.6,0,22.9,10.3,22.9,22.9l0,0c0,12.6-10.3,22.9-22.9,22.9h-78.7"/>
	<line class="st5" x1="640" y1="161.7" x2="680.5" y2="161.7"/>
</g>
<g>
	<path id="hand_1_" class="st1" d="M98.2-63.4c-0.8-1.3-2.7-2.2-4.6-2.2c-1.1,0-2.6,0.3-4,1.5c-0.9,0.8-1.5,1.4-2.4,2.2
		c-1.8,1.7-4.8,4.4-14.4,13.2H61.2c-3.4-0.1-5.8-0.7-7.2-1.8c-1.3-1.1-1.2-2.5-1.2-3.1H63c2.5,0,4.5,0,4.8,0c5.6,0,7.9-4.7,8.3-6.6
		c0-0.1,0-0.2-0.1-0.2c-0.1-0.1-0.2-0.1-0.3-0.1H35.2c-0.1,0-0.2,0.1-0.3,0.1L17.5-46.9c-0.1,0.1-0.1,0.3,0,0.4l17.7,13.7
		c0.1,0.1,0.2,0.1,0.3,0.1s0.2,0,0.3-0.1l9.6-7.5h0.9h0.1h30.4c0.1,0,0.2,0,0.3-0.1c0.2-0.2,17.5-16.6,20.6-19.7
		C98.7-61.1,98.9-62.3,98.2-63.4z"/>
	<g id="present_1_">
		<path id="bow_1_" class="st1" d="M75.3-124.7c-1.5-1.1-3.3-1.7-5.1-1.7c-3.3,0-6.5,1.8-9,4.9c-0.6,0.8-1.2,1.6-1.7,2.5
			c-0.5-0.9-1-1.7-1.7-2.5c-2.5-3.1-5.7-4.9-9-4.9c-1.8,0-3.6,0.6-5.1,1.7c-2.9,2.1-4.1,5.7-3,9.1c1.3,3.9,5.8,8.2,14.8,8.2
			c1.3,0,6.7,0,8,0l0,0c9,0,13.5-4.2,14.8-8.2C79.5-119,78.3-122.6,75.3-124.7z M55.5-111.8c-6.6,0-9.9-2.8-10.6-5.1
			c-0.5-1.6,0-3.2,1.4-4.2c0.8-0.6,1.7-0.9,2.6-0.9c3.6,0,7.6,4.2,8.3,10.1C56.6-111.8,56.1-111.8,55.5-111.8z M74.2-116.9
			c-0.8,2.4-4,5.1-10.6,5.1l0,0c-0.5,0-1.1,0-1.7-0.1c0.8-5.9,4.7-10.1,8.3-10.1c0.9,0,1.8,0.3,2.6,0.9
			C74.2-120.1,74.7-118.5,74.2-116.9z"/>
		<path id="box_1_" class="st1" d="M86.2-109.1H32.8c-1.2,0-2.2,1-2.2,2.2v9.6c0,1.2,1,2.2,2.2,2.2H33v29.3c0,1.2,1,2.2,2.2,2.2
			h48.5c1.2,0,2.2-1,2.2-2.2v-29.3h0.2c1.2,0,2.2-1,2.2-2.2v-9.6C88.4-108.2,87.4-109.1,86.2-109.1z M84-99.5h-0.2H61.7v-5.2H84
			V-99.5z M35-104.7h22.3v5.2h-22H35V-104.7z M37.5-95.1h19.9V-68H37.5V-95.1z M61.7-68v-27.1h19.9V-68H61.7z"/>
	</g>
</g>
<g>
	<path class="st1" d="M62.8-73.6c-0.9-0.4-2.6-0.9-5-1.5c-3-0.7-3.8-1.2-4.1-1.4c-0.4-0.4-0.6-0.8-0.6-1.4c0-0.7,0.3-1.3,0.9-1.8
		c0.7-0.5,1.8-0.8,3.4-0.8c1.5,0,2.7,0.3,3.4,0.9s1.1,1.5,1.3,2.7l0.1,0.7l4.2-0.3v-0.7c-0.1-1.4-0.5-2.7-1.2-3.9
		c-0.8-1.1-1.8-2-3.2-2.6c-0.4-0.2-0.8-0.3-1.3-0.4v-3H55v2.8c-0.7,0.1-1.4,0.3-2,0.6c-1.4,0.6-2.4,1.4-3.1,2.5
		c-0.7,1.1-1.1,2.3-1.1,3.5s0.3,2.2,0.9,3.1c0.6,0.9,1.5,1.7,2.6,2.3c0.9,0.5,2.3,0.9,4.4,1.4c2.5,0.6,3.5,0.9,3.9,1.1
		c0.8,0.3,1.4,0.7,1.7,1.1s0.5,0.9,0.5,1.4s-0.2,1-0.5,1.5s-0.9,0.8-1.6,1.1c-0.8,0.3-1.7,0.5-2.7,0.5c-1.2,0-2.2-0.2-3.1-0.6
		c-0.9-0.4-1.5-0.9-1.9-1.5s-0.7-1.4-0.8-2.4L52-69.4L47.9-69v0.7c0,1.6,0.5,3.1,1.3,4.4c0.8,1.3,2,2.3,3.5,2.9
		c0.7,0.3,1.4,0.5,2.2,0.7v3h5.6v-3c0.7-0.2,1.4-0.4,2-0.7c1.4-0.6,2.5-1.5,3.2-2.7s1.1-2.4,1.1-3.7s-0.4-2.5-1-3.6
		S64.2-73,62.8-73.6z"/>
	<g>
		<path class="st1" d="M85-85.4l3.4-1c-2-6.7-6.3-12.7-12.1-16.8l-2.1,2.9C79.4-96.6,83.2-91.4,85-85.4z"/>
		<path class="st1" d="M27.9-86.3l3.5,1c1.7-5.8,5.4-11.1,10.4-14.7l-2.1-2.9C34-98.8,29.9-92.9,27.9-86.3z"/>
		<path class="st1" d="M44.9-50.8l-1.7,3.2c4.6,2.5,9.7,3.8,15,3.8c5.1,0,10.1-1.2,14.6-3.6l-1.7-3.2C63.1-46.4,52.9-46.5,44.9-50.8
			z"/>
		<path class="st1" d="M26.8-66.2c4.5,0,8.2-3.7,8.2-8.2s-3.7-8.2-8.2-8.2s-8.2,3.7-8.2,8.2C18.6-69.9,22.3-66.2,26.8-66.2z"/>
		<path class="st1" d="M31.9-64.5H21.7c-4.8,0-8.6,3.9-8.6,8.6v9.8h27.4v-9.8C40.5-60.6,36.6-64.5,31.9-64.5z"/>
		<path class="st1" d="M81-74.4c0,4.5,3.7,8.2,8.2,8.2s8.2-3.7,8.2-8.2s-3.7-8.2-8.2-8.2S81-78.9,81-74.4z"/>
		<path class="st1" d="M94.3-64.5H84.1c-4.8,0-8.6,3.9-8.6,8.6v9.8h27.4v-9.8C102.9-60.6,99-64.5,94.3-64.5z"/>
		<path class="st1" d="M58-112.8c4.5,0,8.2-3.7,8.2-8.2s-3.7-8.2-8.2-8.2s-8.2,3.7-8.2,8.2C49.8-116.5,53.5-112.8,58-112.8z"/>
		<path class="st1" d="M71.7-102.4c0-4.8-3.9-8.6-8.6-8.6H52.9c-4.8,0-8.6,3.9-8.6,8.6v9.8h27.4C71.7-92.6,71.7-102.4,71.7-102.4z"
			/>
	</g>
</g>
<g>
	<path class="st1" d="M238-126.6c-0.3-1.5-1.6-2.6-3.2-2.6h-13.5h-5h-24.9c-0.3,0-0.5,0.1-0.8,0.1l0,0c-0.1,0-0.1,0-0.1,0.1
		c-0.2,0.1-0.3,0.1-0.5,0.2c-0.2,0.1-0.3,0.2-0.4,0.3c-0.1,0.1-0.3,0.2-0.4,0.3c-0.1,0.1-0.3,0.3-0.4,0.4c-0.1,0.1-0.2,0.2-0.2,0.3
		c-0.2,0.3-0.3,0.6-0.3,0.9v0.1c0,0.2-0.1,0.4-0.1,0.7v25.7v11.5V-64v13c0,0.2,0,0.5,0.1,0.7c0.3,1.5,1.6,2.6,3.2,2.6h43.3
		c1.6,0,2.9-1.1,3.2-2.6c0-0.2,0.1-0.4,0.1-0.7v-13.1v-5.4c-0.8-0.4-1.6-0.7-2.3-1.1c-1.3-0.7-2.7-1.5-4.1-2.4v4.9v3.9h-37.2v-3.9
		v-22.4V-104v-15h2.6h15.3h12.8h6.5v15v16.8c2.2,0.1,4.3,0.9,6.4,1.8v-14.9V-126C238.1-126.2,238.1-126.4,238-126.6z M207.2-57.5h12
		v4.2h-12V-57.5z"/>
	<path class="st1" d="M253.8-68.4l4.2,2.8l-1.6,2.4l13.1,8.9l12.2-17.9l-13.1-8.9l-1.4,2.1l-3.1-2.5c0,0-3.2-8.3-6.8-11.8
		c-3.7-3.5-15-6-15-6s0.2,8.5,0.2,15.8c-0.7,7.9-13.4-5.1-16.2-0.1c-1.6,3.2,5.2,7.2,10,9.9C241-71,253.8-68.4,253.8-68.4z
		 M263.2-64.4l6.8-9.9l5.2,3.5l-6.8,9.9L263.2-64.4z"/>
	<g>
		<path class="st1" d="M221.1-88.7h-16c-1.9,0-3.4-1.5-3.4-3.4v-16c0-1.9,1.5-3.4,3.4-3.4h16c1.9,0,3.4,1.5,3.4,3.4v16
			C224.4-90.3,222.9-88.7,221.1-88.7z M205.1-108.8c-0.4,0-0.7,0.3-0.7,0.7v16c0,0.4,0.3,0.7,0.7,0.7h16c0.4,0,0.7-0.3,0.7-0.7v-16
			c0-0.4-0.3-0.7-0.7-0.7H205.1z"/>
	</g>
</g>
<g>
	<g>
		<path class="st1" d="M313.5-14.6h-52.3c-3.8,0-6.2,2.4-6.2,6.4v69.4c0,2.1,0.6,3.7,1.7,4.8c0.9,0.9,2.3,1.4,3.9,1.6v2h8.9v-1.9
			h34.7v1.9h8.9v-1.9h1c2.5,0,5.5-1.1,5.5-6.4V-8.2C319.7-12.1,317.3-14.6,313.5-14.6z M276.2,6.4v-17h37.7c1.3,0,2.3,1.1,2.3,2.4
			V6.4H276.2z M258.5,6.4V-8.2c0-1.3,1-2.4,2.3-2.4h11.9v17C272.7,6.4,258.5,6.4,258.5,6.4z M316.1,10.3V62c0,1.3-1,2.4-2.3,2.4h-53
			c-1.3,0-2.3-1.1-2.3-2.4V10.3H316.1z"/>
		<path class="st1" d="M287.1,54c10.4,0,18.8-8.5,18.8-18.8s-8.5-18.8-18.8-18.8s-18.8,8.5-18.8,18.8S276.7,54,287.1,54z
			 M287.1,17.7c9.6,0,17.4,7.8,17.4,17.4s-7.8,17.4-17.4,17.4s-17.4-7.8-17.4-17.4S277.5,17.7,287.1,17.7z"/>
		<path class="st1" d="M287.1,50c8.2,0,14.9-6.7,14.9-14.9s-6.7-14.9-14.9-14.9s-14.9,6.7-14.9,14.9S278.9,50,287.1,50z M278.1,27.2
			c0.2-0.7,0.7-1.3,1.3-1.8c2.8-2.6,7-3.7,10.7-2.8c0.6,0.1,1.2,0.3,1.6,0.8c0.8,0.9,0.4,2.4-0.5,3.2c-1.7,1.6-4.4,1.4-6.7,2
			c-1.6,0.4-3.1,1.3-4.7,1.1c-0.4,0-0.9-0.2-1.2-0.4C278,28.8,277.9,27.9,278.1,27.2z"/>
		<circle class="st1" cx="308.1" cy="-2.9" r="4.6"/>
		<circle class="st1" cx="299.9" cy="-2.9" r="2.7"/>
		<circle class="st1" cx="293.5" cy="-2.9" r="2.7"/>
	</g>
	<circle class="st6" cx="252.6" cy="10.2" r="18.7"/>
	<g>
		<path class="st1" d="M252.4-5.1c-4.4,0-8.3,1.8-11.1,4.8l-16.4,2.4l-17.6,18.7l-0.2,24.6h3.1l0.2-23.1l15.7-16.6l12.4-1.8
			c-0.9,2-1.4,4.2-1.4,6.5c0,0.7,0.1,1.3,0.1,2l-10.1,1.5l3.8,2.9l-1.5,1.5l-3.7,3.7l-6.1,6.1l2.6,2.6l6.6-6.6l6.2-6.2l0,0
			c0.2-0.2,0.4-0.4,0.7-0.6c0.2-0.1,0.4-0.2,0.6-0.3c0,0,0.1,0,0.1-0.1c0.5-0.2,1.1-0.4,1.7-0.4l0,0l0,0c0.1,0,0.1,0,0.2,0
			c1.1,0,2,0.4,2.8,1.1c0.7,0.7,1.1,1.8,1.1,2.9c0,0.5-0.1,0.9-0.3,1.4l0,0l0,0c-0.1,0.3-0.3,0.6-0.4,0.9c0,0,0,0,0,0.1
			c-0.2,0.3-0.4,0.6-0.6,0.8L223,41.6l0,0l-4.1,4.1h5.2l5-5l2.8-2.8L243.5,26c0.6-0.6,1.2-1.4,1.6-2.2c2.2,1.2,4.7,1.9,7.4,1.9
			c8.5,0,15.4-6.9,15.4-15.4S260.9-5.1,252.4-5.1z M252.4,22.4c-6.7,0-12.1-5.4-12.1-12.1s5.4-12.1,12.1-12.1s12.1,5.4,12.1,12.1
			S259.1,22.4,252.4,22.4z"/>
		<g>
			<g>
				<path class="st1" d="M245.9,17.4h-0.1c-0.5-0.1-0.8-0.5-0.7-1l1.2-7.5c0.1-0.5,0.5-0.8,1-0.7s0.8,0.5,0.7,1l-1.2,7.5
					C246.7,17.1,246.4,17.4,245.9,17.4z"/>
			</g>
			<g>
				<path class="st1" d="M248.7,15.4c-0.5,0-0.9-0.4-0.9-0.9s0.4-0.9,0.9-0.9c1.9,0,3.4-1.5,3.4-3.4s-1.5-3.4-3.4-3.4
					c-0.8,0-1.5,0.2-2.1,0.7c-0.4,0.3-0.9,0.2-1.2-0.2c-0.3-0.4-0.2-0.9,0.2-1.2c0.9-0.7,2-1,3.1-1c2.9,0,5.2,2.3,5.2,5.2
					S251.5,15.4,248.7,15.4z"/>
			</g>
			<g>
				<path class="st1" d="M255,19.2c-0.3,0-0.6-0.1-0.7-0.4c-0.3-0.4-0.2-0.9,0.2-1.2c2.4-1.7,3.9-4.4,3.9-7.4c0-2.9-1.5-5.7-3.9-7.4
					c-0.4-0.3-0.5-0.8-0.2-1.2s0.8-0.5,1.2-0.2c2.9,2,4.6,5.3,4.6,8.8s-1.7,6.8-4.7,8.8C255.4,19.2,255.2,19.2,255,19.2z"/>
			</g>
			<g>
				<path class="st1" d="M252.6,17.2c-0.3,0-0.6-0.2-0.8-0.4c-0.2-0.4-0.1-1,0.3-1.2c1.9-1.1,3.1-3.2,3.1-5.4S254,6,252.1,4.9
					c-0.4-0.2-0.6-0.8-0.3-1.2c0.2-0.4,0.8-0.6,1.2-0.3c2.4,1.4,3.9,4.1,3.9,6.9s-1.5,5.4-4,6.9C252.9,17.2,252.8,17.2,252.6,17.2z"
					/>
			</g>
		</g>
	</g>
</g>
<g>
	<path class="st1" d="M287,60.8c-38,0-69,30.9-69,69c0,38,30.9,69,69,69c38,0,69-30.9,69-69C355.9,91.7,325,60.8,287,60.8z
		 M292.8,179.7l-13.2-16c-0.7-1.3-5.7-10.5-13.2-15.1c-1.1-0.7-1.6-1.5-1.6-2.4c0.1-0.9,0.8-1.8,1.7-2.2c1.4-0.6,5.8-2.5,14.4,9
		c0.4,0.5,0.9,0.7,1.5,0.5l2.7-0.7c0.6-0.2,1.1-0.7,1.1-1.4v-35.5c0-1.8,1.5-3.3,3.3-3.3s3.3,1.5,3.3,3.3v10.6c0,0,0,0,0,0.1v16.7
		c0,0.8,0.6,1.4,1.4,1.4s1.4-0.6,1.4-1.4v-1.2l0,0V136c0-1.8,1.5-3.3,3.3-3.3s3.3,1.5,3.3,3.3v6.4c0,0.8,0.6,1.4,1.4,1.4
		s1.4-0.6,1.4-1.4V136c0-1.8,1.5-3.3,3.3-3.3s3.3,1.5,3.3,3.3v6.4c0,0.8,0.6,1.4,1.4,1.4c0,0,0,0,0.1,0c0,0,0,0,0.1,0
		c0.8,0,1.4-0.6,1.4-1.4v-2.2c0-1.8,1.5-3.3,3.3-3.3s3.3,1.5,3.3,3.3v31.5l-2.1,7.9c0,0.1,0,0.3,0,0.4v2.9
		c-7.7,4.6-16.5,7.7-25.8,8.6v-10.9C293.1,180.3,293,179.9,292.8,179.7z M301.9,115.2c1.4-1.2,3.4-1,4.6,0.3c1.2,1.4,1,3.4-0.3,4.6
		l-0.4,0.3l-0.1,0.1l-2,1.8c-1.4,1.2-3.4,1-4.6-0.3c-1.2-1.4-1-3.4,0.3-4.6l2.3-2C301.8,115.4,301.9,115.3,301.9,115.2z
		 M301.8,111.5v-8.7c0.1,0,0.2-0.1,0.3-0.2c0.7-0.5,1.5-0.8,2.4-0.7c0.9,0.1,1.6,0.6,2.2,1.2c1.1,1.4,0.8,3.5-0.6,4.6L301.8,111.5z
		 M308.1,126.7c0.8,0.9,1,2.1,0.6,3.2c-0.2,0-0.3,0-0.5,0c-1.9,0-3.6,0.9-4.7,2.2c-0.9-1.1-2.2-1.8-3.6-2.1c0.2-0.5,0.5-1,1-1.4
		l0.7-0.6c0.1-0.1,0.3-0.1,0.4-0.2l1.8-1.6C305.1,125.2,307,125.4,308.1,126.7z M299.8,125.8l-0.7,0.6c-1.1,1-1.8,2.3-2,3.7
		c-0.3,0.1-0.6,0.2-0.9,0.4v-7.6c0.2,0.4,0.4,0.7,0.7,1.1C297.7,124.9,298.7,125.5,299.8,125.8z M298.9,114l-1.4,1.2
		c-0.6,0.5-1,1.1-1.3,1.7V88.7c0-0.4-0.3-0.7-0.7-0.7h-25.9c-0.4,0-0.7,0.3-0.7,0.7v42.4c0,0.4,0.3,0.7,0.7,0.7h13.8v2.7
		c-0.1,0-0.3-0.1-0.4-0.1h-2.9c-0.8,0-1.4,0.6-1.4,1.4s0.6,1.4,1.4,1.4h2.9c0.1,0,0.3,0,0.4-0.1v2.9h-14.7c-1.4,0-2.6-1.1-2.6-2.6
		V84.1c0-1.4,1.1-2.6,2.6-2.6h27.7c1.4,0,2.6,1.1,2.6,2.6V114H298.9z M290.1,101.9h-4.8c-1,0-1.8,0.8-1.8,1.8v4.8
		c0,1,0.8,1.8,1.8,1.8h1.5c-2.1,1-3.6,3.1-3.6,5.6v14.5h-13.1v-41h24.5v23.3c-0.8-1.3-2.1-2.3-3.6-2.8c0.5-0.3,0.8-0.8,0.8-1.5v-4.8
		C291.9,102.7,291.1,101.9,290.1,101.9z M278.8,143h4.5v7.3l-0.7,0.2c-1.3-1.7-2.6-3.1-3.7-4.3C279,144.8,278.9,143.7,278.8,143z
		 M277.5,144.8c-0.8-0.7-1.5-1.3-2.2-1.8h2.1C277.4,143.4,277.5,144,277.5,144.8z M321.8,181.1v-0.9l2.1-7.9c0-0.1,0-0.2,0-0.4
		v-31.7c0-3.4-2.8-6.1-6.1-6.1c-1.3,0-2.5,0.4-3.5,1.1c-0.3-1.8-1.4-3.4-2.9-4.3c0.7-2,0.3-4.3-1.2-6c-0.8-0.9-1.8-1.5-2.9-1.8
		l0.7-0.6c2.6-2.2,2.8-6.1,0.6-8.7c-0.8-0.9-1.8-1.5-2.9-1.8l2-1.7c2.7-2.1,3.2-5.9,1.1-8.6c-1-1.3-2.5-2.1-4.1-2.3
		c-1.1-0.1-2.1,0-3.1,0.4V84.1c0-3-2.4-5.4-5.4-5.4h-27.7c-3,0-5.4,2.4-5.4,5.4v23.6c-1.6-2.2-3.6-3-5.1-3.3c-2-0.5-4.2,0.2-5.5,1.7
		s-1.5,3.7-0.6,5.9c3.2,7.9,1.7,18.5,1.6,18.6c0,0.1,0,0.2,0,0.3l1.3,20.3l-5.2,7.2c-0.5,0.6-0.3,1.5,0.3,2c0.3,0.2,0.5,0.3,0.8,0.3
		c0.4,0,0.9-0.2,1.2-0.6l5.5-7.6c0.2-0.3,0.3-0.6,0.3-0.9l-1.3-20.7c0.2-1.5,1.5-11.8-1.8-20c-0.5-1.2-0.4-2.2,0.2-2.9
		c0.6-0.7,1.7-1,2.6-0.8c1.2,0.3,4,0.9,5.5,7.1c0,0.2,0.1,0.4,0.3,0.5v22.7c0,1.6,0.7,3,1.8,4c-1.7,0.9-2.8,2.6-3,4.4
		c-0.2,2,0.9,3.9,2.9,5.1c7.2,4.5,12.2,14,12.2,14.1s0.1,0.2,0.2,0.3l1.1,1.4c-0.1,0.1-0.2,0.2-0.3,0.3l-5.6,7.8
		c-0.5,0.6-0.3,1.5,0.3,2c0.3,0.2,0.5,0.3,0.8,0.3c0.4,0,0.9-0.2,1.2-0.6l5.3-7.4l0,0l9.9,12v10.6c-1.1,0.1-2.2,0.1-3.3,0.1
		c-34.2,0-62-27.8-62-62s27.8-62,62-62s62,27.8,62,62C349,151.1,338.2,169.9,321.8,181.1z"/>
	<path class="st1" d="M288,83.5h-10.8c-0.8,0-1.4,0.6-1.4,1.4s0.6,1.4,1.4,1.4H288c0.8,0,1.4-0.6,1.4-1.4
		C289.4,84.2,288.8,83.5,288,83.5z"/>
	<path class="st1" d="M279.9,102.9c0.4,0,0.8,0.4,0.8,0.8v4.8c0,0.4-0.4,0.8-0.8,0.8h-4.8c-0.4,0-0.8-0.4-0.8-0.8v-4.8
		c0-0.4,0.4-0.8,0.8-0.8H279.9 M279.9,101.9h-4.8c-1,0-1.8,0.8-1.8,1.8v4.8c0,1,0.8,1.8,1.8,1.8h4.8c1,0,1.8-0.8,1.8-1.8v-4.8
		C281.7,102.7,280.9,101.9,279.9,101.9L279.9,101.9z"/>
	<path class="st1" d="M279.9,93.1c0.4,0,0.8,0.4,0.8,0.8v4.8c0,0.4-0.4,0.8-0.8,0.8h-4.8c-0.4,0-0.8-0.4-0.8-0.8v-4.8
		c0-0.4,0.4-0.8,0.8-0.8H279.9 M279.9,92.1h-4.8c-1,0-1.8,0.8-1.8,1.8v4.8c0,1,0.8,1.8,1.8,1.8h4.8c1,0,1.8-0.8,1.8-1.8v-4.8
		C281.7,92.9,280.9,92.1,279.9,92.1L279.9,92.1z"/>
	<path class="st1" d="M290.1,93.1c0.4,0,0.8,0.4,0.8,0.8v4.8c0,0.4-0.4,0.8-0.8,0.8h-4.8c-0.4,0-0.8-0.4-0.8-0.8v-4.8
		c0-0.4,0.4-0.8,0.8-0.8H290.1 M290.1,92.1h-4.8c-1,0-1.8,0.8-1.8,1.8v4.8c0,1,0.8,1.8,1.8,1.8h4.8c1,0,1.8-0.8,1.8-1.8v-4.8
		C291.9,92.9,291.1,92.1,290.1,92.1L290.1,92.1z"/>
</g>
<g>
	<g>
		<g>
			<path class="st1" d="M287.7,177.7c-2.9,0-5.3-2.4-5.3-5.3s2.4-5.3,5.3-5.3s5.3,2.4,5.3,5.3S290.6,177.7,287.7,177.7z
				 M287.7,168.5c-2.2,0-3.9,1.8-3.9,3.9s1.8,3.9,3.9,3.9s3.9-1.8,3.9-3.9S289.9,168.5,287.7,168.5z"/>
		</g>
		<g>
			<path class="st1" d="M287.7,182.3c-5.4,0-9.9-4.4-9.9-9.9s4.4-9.9,9.9-9.9s9.9,4.4,9.9,9.9S293.2,182.3,287.7,182.3z
				 M287.7,163.9c-4.7,0-8.5,3.8-8.5,8.5s3.8,8.5,8.5,8.5s8.5-3.8,8.5-8.5S292.4,163.9,287.7,163.9z"/>
		</g>
		<g>
			<path class="st1" d="M287.7,186.9c-8,0-14.5-6.5-14.5-14.5s6.5-14.5,14.5-14.5s14.5,6.5,14.5,14.5S295.7,186.9,287.7,186.9z
				 M287.7,159.2c-7.2,0-13.1,5.9-13.1,13.1s5.9,13.1,13.1,13.1s13.1-5.9,13.1-13.1S295,159.2,287.7,159.2z"/>
		</g>
		<g>
			<path class="st1" d="M287.7,193.8c-11.8,0-21.4-9.6-21.4-21.4s9.6-21.4,21.4-21.4s21.4,9.6,21.4,21.4S299.5,193.8,287.7,193.8z
				 M287.7,152.3c-11.1,0-20.1,9-20.1,20.1s9,20.1,20.1,20.1s20.1-9,20.1-20.1S298.8,152.3,287.7,152.3z"/>
		</g>
		<g>
			<path class="st1" d="M287.7,204.1c-17.5,0-31.7-14.2-31.7-31.7s14.2-31.7,31.7-31.7s31.7,14.2,31.7,31.7S305.2,204.1,287.7,204.1
				z M287.7,142c-16.8,0-30.4,13.6-30.4,30.4s13.6,30.4,30.4,30.4s30.4-13.6,30.4-30.4S304.5,142,287.7,142z"/>
		</g>
		<g>
			<path class="st1" d="M287.7,219.7c-26.1,0-47.3-21.2-47.3-47.3s21.2-47.3,47.3-47.3s47.3,21.2,47.3,47.3S313.8,219.7,287.7,219.7
				z M287.7,126.4c-25.3,0-46,20.6-46,46s20.6,46,46,46s46-20.6,46-46S313,126.4,287.7,126.4z"/>
		</g>
	</g>
	<g>
		<g>
			<defs>
				<path id="SVGID_1_" d="M336.6,225l-0.3-0.3l-7.7-8.3l-0.1-6.8c0.2-5.2,0.6-10.8,1-14.6c0.6-6.9-1.9-11.6-3.9-15.4l-0.2-0.3
					c-4.5-8.5-7.7-14.7-7.7-14.8c-0.1-0.2-0.2-0.4-0.4-0.5l-7.1-6l0,0v-15.8c0-3.3-2.7-6-6-6h-30.4c-3.3,0-6,2.7-6,6v58.7
					c0,3.3,2.7,6,6,6h21.4c-0.1,1.9,0.1,10.5,8,18.4l8.9,12.8c0.1,0.1,0.2,0.1,0.3,0.2c0.3,0.3,0.7,0.5,1,0.5s0.6-0.1,0.9-0.3
					c0.4-0.2,0.6-0.6,0.6-1c7-2.4,13.4-6.1,18.9-10.7l0.3,0.3c0.3,0.3,0.7,0.5,1.2,0.5c0.4,0,0.8-0.1,1.1-0.4
					C337.1,226.6,337.2,225.6,336.6,225z"/>
			</defs>
			<clipPath id="SVGID_2_">
				<use xlink:href="#SVGID_1_"  style="overflow:visible;"/>
			</clipPath>
			<rect x="25.2" y="-126.8" class="st9" width="539.7" height="903.6"/>
		</g>
	</g>
	<g>
		<path class="st1" d="M289.8,246.7c-38,0-69-30.9-69-69c0-38,30.9-69,69-69c38,0,69,30.9,69,69S327.8,246.7,289.8,246.7z
			 M289.8,115.7c-34.2,0-62,27.8-62,62s27.8,62,62,62s62-27.8,62-62C351.9,143.6,324,115.7,289.8,115.7z"/>
	</g>
	<g>
		<path class="st1" d="M328.6,209.6c0.2-5.2,0.6-10.8,1-14.6c0.6-6.9-1.9-11.6-3.9-15.4l-0.2-0.3c-4.5-8.5-7.7-14.7-7.7-14.8
			c-0.1-0.2-0.2-0.4-0.4-0.5l-7.1-6l0,0v-15.8c0-3.3-2.7-6-6-6h-30.4c-3.3,0-6,2.7-6,6v58.7c0,3.3,2.7,6,6,6h21.4
			c-0.1,1.9,0.1,10.5,8,18.4l8.9,12.8c0.1,0.1,0.2,0.1,0.3,0.2c0.9-0.3,1.7-0.5,2.6-0.8c0.1-0.4,0-0.8-0.2-1.2l-9-12.9
			c-0.1-0.1-0.1-0.1-0.2-0.2c-7.4-7.4-7.2-15.3-7.2-16.3h5.2c-0.1,1.9-0.1,3.5,0.1,4.3c0.5,2.5,4,8.1,7.1,10
			c0.3,0.2,0.5,0.2,0.8,0.2c0.5,0,1.1-0.3,1.4-0.8c0.4-0.7,0.2-1.7-0.5-2.2c-2.3-1.4-5.3-6.3-5.6-7.9c-0.3-1.4,0.2-8,0.6-11.9
			c0-0.4-0.1-0.8-0.4-1.2l-10.9-13c-1.9-2.4-2.5-5.1-1.3-6.6c0.3-0.4,0.7-0.6,1.2-0.6c1.4-0.1,3.4,1.1,5.2,2.9
			c6.7,6.9,12,10.4,13.3,11.2c1,1.3,3.3,4.4,3.9,6c0.3,0.8,1.2,1.2,2,0.9s1.2-1.2,0.9-2c-0.9-2.4-4.1-6.5-4.5-7
			c-0.1-0.2-0.3-0.3-0.4-0.4c0,0-1.8-1.1-4.7-3.4c0.7-0.6,2.3-1.5,4.8-1.9c0.4-0.1,0.7-0.5,0.7-0.9c-0.1-0.4-0.5-0.7-0.9-0.7
			c-3.1,0.4-5,1.7-5.8,2.4c-0.1-0.1-0.2-0.1-0.2-0.2v-10.5c0.9-2.2,2.1-2.8,2.1-2.9c0.4-0.2,0.5-0.7,0.3-1.1
			c-0.2-0.4-0.7-0.5-1.1-0.4c0,0-0.7,0.3-1.4,1.2v-8.5l4.8,4.1c0.7,1.3,3.6,7.1,7.6,14.5l0.2,0.3c1.9,3.6,4.1,7.7,3.5,13.6
			c-0.3,3.8-0.8,9.5-1,14.8l0.1,7.4c0,0.4,0.2,0.8,0.4,1.1l8.1,8.7c0.8-0.7,1.6-1.4,2.4-2.1l-7.7-8.3L328.6,209.6z M302.6,177
			c-2.2-2-4.6-3-6.7-2.9c-1.4,0.1-2.6,0.7-3.5,1.8c-2.1,2.7-1.5,7,1.4,10.6l5.5,6.5h-23.6v-45h26.9L302.6,177L302.6,177z
			 M307.2,181.5c-1-0.9-2-1.9-3-2.9v-31.3c0-0.4-0.4-0.8-0.8-0.8h-28.5c-0.4,0-0.8,0.4-0.8,0.8v46.6c0,0.4,0.4,0.8,0.8,0.8h25.7
			l3.7,4.4c-0.1,1-0.2,2.8-0.4,4.7h-30c-1.5,0-2.8-1.3-2.8-2.8v-58.7c0-1.5,1.3-2.8,2.8-2.8h30.4c1.5,0,2.8,1.3,2.8,2.8L307.2,181.5
			L307.2,181.5z"/>
		<path class="st1" d="M295,141.7h-11.9c-0.9,0-1.6,0.7-1.6,1.6s0.7,1.6,1.6,1.6H295c0.9,0,1.6-0.7,1.6-1.6S295.9,141.7,295,141.7z"
			/>
		<path class="st1" d="M286.3,200.6h5.5c0.9,0,1.6-0.7,1.6-1.6c0-0.9-0.7-1.6-1.6-1.6h-5.5c-0.9,0-1.6,0.7-1.6,1.6
			C284.7,199.9,285.4,200.6,286.3,200.6z"/>
	</g>
	<g>
		<g>
			<path class="st1" d="M280.8,173.4c-0.1,0-0.1,0-0.2,0c-0.6-0.1-1-0.7-0.9-1.3l1.5-9.6c0.1-0.6,0.7-1,1.3-0.9
				c0.6,0.1,1,0.7,0.9,1.3l-1.5,9.6C281.8,173,281.3,173.4,280.8,173.4z"/>
		</g>
		<g>
			<path class="st1" d="M284.3,170.9c-0.6,0-1.1-0.5-1.1-1.1s0.5-1.1,1.1-1.1c2.4,0,4.4-2,4.4-4.4s-2-4.4-4.4-4.4
				c-1,0-1.9,0.3-2.7,0.9c-0.5,0.4-1.2,0.3-1.6-0.2s-0.3-1.2,0.2-1.6c1.2-0.9,2.6-1.3,4-1.3c3.7,0,6.7,3,6.7,6.7
				S288,170.9,284.3,170.9z"/>
		</g>
		<g>
			<path class="st1" d="M292.5,175.8c-0.4,0-0.7-0.2-0.9-0.5c-0.4-0.5-0.2-1.2,0.3-1.6c3.1-2.2,5-5.7,5-9.5s-1.9-7.3-5-9.5
				c-0.5-0.4-0.6-1.1-0.3-1.6c0.4-0.5,1.1-0.6,1.6-0.3c3.7,2.6,6,6.8,6,11.3s-2.2,8.8-6,11.4C292.9,175.7,292.7,175.8,292.5,175.8z"
				/>
		</g>
		<g>
			<path class="st1" d="M289.4,173.2c-0.4,0-0.8-0.2-1-0.6c-0.3-0.5-0.1-1.2,0.4-1.5c2.4-1.4,4-4.1,4-6.9c0-2.8-1.5-5.4-3.9-6.9
				c-0.5-0.3-0.7-1-0.4-1.5c0.3-0.5,1-0.7,1.5-0.4c3.1,1.8,5,5.2,5,8.8s-1.9,7-5.1,8.8C289.8,173.1,289.6,173.2,289.4,173.2z"/>
		</g>
	</g>
</g>
<g>
	<path class="st1" d="M71,2C33,2,2,33,2,71s30.9,69,69,69c38,0,69-30.9,69-69C140,33,109,2,71,2z M71,133c-34.2,0-62-27.8-62-62
		S36.8,9,71,9s62,27.8,62,62S105.2,133,71,133z"/>
	<path class="st1" d="M66,38h15.1c1.1,0,2-0.9,2-2s-0.9-2-2-2H66c-1.1,0-2,0.9-2,2S64.9,38,66,38z"/>
	<path class="st1" d="M91.5,40H55.3c-0.6,0-1,0.4-1,1v59.3c0,0.6,0.5,1,1,1h36.2c0.6,0,1-0.4,1-1V41C92.5,40.5,92.1,40,91.5,40z
		 M90.5,99.3H56.3V42.1h34.2V99.3z"/>
	<path class="st1" d="M77,105h-7c-1.1,0-2,0.9-2,2s0.9,2,2,2h7c1.1,0,2-0.9,2-2C79.1,105.9,78.2,105,77,105z"/>
	<path class="st1" d="M92.8,27.1H54c-4.2,0-7.6,3.4-7.6,7.6v56.8v13.1v4.7c0,4.2,3.4,7.6,7.6,7.6h38.7c3.2,0,6-2,7.1-4.8
		c0.5-1.3,0.5-6,0.5-6V65V34.7C100.4,30.5,97,27.1,92.8,27.1z M96.4,109.4c0,2-1.6,3.6-3.6,3.6H54c-2,0-3.6-1.6-3.6-3.6V34.7
		c0-2,1.6-3.6,3.6-3.6h38.7c2,0,3.6,1.6,3.6,3.6v74.7H96.4z"/>
	<path class="st1" d="M62.5,74.9h21.8c1.4,0,2.5-1.1,2.5-2.5V50.6c0-1.4-1.1-2.5-2.5-2.5H62.5c-1.4,0-2.5,1.1-2.5,2.5v21.8
		C60,73.8,61.2,74.9,62.5,74.9z M75.3,51.9c0.3-0.4,0.9-0.6,1.4-0.2c3.2,2.2,5.2,5.9,5.2,9.9c0,3.9-1.9,7.6-5.2,9.9
		c-0.2,0.1-0.4,0.2-0.6,0.2c-0.3,0-0.6-0.1-0.8-0.4c-0.3-0.4-0.2-1.1,0.3-1.4c2.7-1.9,4.4-5,4.4-8.3s-1.6-6.4-4.3-8.2
		C75.1,53,75,52.4,75.3,51.9z M72.6,54.2c0.3-0.5,0.9-0.6,1.3-0.3c2.7,1.6,4.4,4.5,4.4,7.7c0,3.1-1.7,6.1-4.4,7.7
		c-0.2,0.1-0.3,0.1-0.5,0.1c-0.3,0-0.7-0.2-0.8-0.5c-0.3-0.5-0.1-1.1,0.4-1.3c2.1-1.2,3.4-3.5,3.4-6c0-2.4-1.3-4.7-3.4-6
		C72.5,55.3,72.3,54.7,72.6,54.2z M65.5,56.9c1-0.8,2.2-1.2,3.5-1.2c3.2,0,5.8,2.6,5.8,5.8c0,3.2-2.6,5.8-5.8,5.8c-0.5,0-1-0.4-1-1
		c0-0.5,0.4-1,1-1c2.1,0,3.8-1.7,3.8-3.8s-1.7-3.8-3.8-3.8c-0.8,0-1.6,0.3-2.3,0.8c-0.4,0.3-1,0.2-1.4-0.2
		C65,57.9,65.1,57.2,65.5,56.9z M66.3,60c0.1-0.5,0.6-0.9,1.1-0.8c0.5,0.1,0.9,0.6,0.8,1.1l-1.3,8.3c-0.1,0.5-0.5,0.8-1,0.8
		c-0.1,0-0.1,0-0.2,0c-0.5-0.1-0.9-0.6-0.8-1.1L66.3,60z"/>
	<polygon class="st1" points="66.5,93.4 62.6,87.1 60.8,87.1 60.8,96.6 62.5,96.6 62.5,90.4 66.4,96.6 68.3,96.6 68.3,87.1 
		66.5,87.1 	"/>
	<polygon class="st1" points="70.3,96.6 72.3,96.6 72.3,92.5 76.2,92.5 76.2,90.9 72.3,90.9 72.3,88.7 76.9,88.7 76.9,87.1 
		70.3,87.1 	"/>
	<path class="st1" d="M83.7,94.6c-0.4,0.3-0.8,0.5-1.3,0.5c-0.7,0-1.3-0.3-1.7-0.8c-0.4-0.5-0.6-1.4-0.6-2.6c0-1.1,0.2-2,0.7-2.5
		c0.4-0.5,1-0.8,1.7-0.8c0.5,0,0.9,0.1,1.3,0.4s0.6,0.7,0.7,1.2l1.9-0.5c-0.2-0.8-0.5-1.3-1-1.8c-0.7-0.7-1.7-1-2.8-1
		c-1.3,0-2.4,0.4-3.2,1.3c-0.8,0.9-1.2,2.1-1.2,3.7c0,1.5,0.4,2.7,1.2,3.5c0.8,0.9,1.8,1.3,3.1,1.3c1,0,1.9-0.3,2.5-0.8
		c0.7-0.5,1.1-1.3,1.4-2.3l-1.9-0.6C84.4,93.8,84.1,94.3,83.7,94.6z"/>
	<path class="st1" d="M41.1,55.6c-0.3-0.3-0.9-0.3-1.2,0c-1.8,1.8-2.8,4.1-2.8,6.6s1,4.9,2.8,6.6c0.2,0.2,0.4,0.3,0.6,0.3
		c0.2,0,0.4-0.1,0.6-0.3c0.3-0.3,0.3-0.9,0-1.2c-1.5-1.5-2.3-3.4-2.3-5.4c0-2.1,0.8-4,2.3-5.4C41.4,56.5,41.4,55.9,41.1,55.6z"/>
	<path class="st1" d="M36.6,50.5c-0.5-0.5-1.3-0.5-1.8,0c-3.1,3.1-4.9,7.3-4.9,11.8c0,4.4,1.7,8.6,4.9,11.8c0.3,0.3,0.6,0.4,0.9,0.4
		s0.7-0.1,0.9-0.4c0.5-0.5,0.5-1.3,0-1.8c-2.7-2.7-4.1-6.2-4.1-10s1.5-7.3,4.1-10C37.1,51.8,37.1,51,36.6,50.5z"/>
	<path class="st1" d="M26,62.2c0-5.5,2.1-10.6,6-14.5c0.7-0.7,0.7-1.7,0-2.4s-1.7-0.7-2.4,0c-4.5,4.5-7,10.5-7,16.9s2.5,12.4,7,16.9
		c0.3,0.3,0.8,0.5,1.2,0.5c0.4,0,0.9-0.2,1.2-0.5c0.7-0.7,0.7-1.7,0-2.4C28.2,72.9,26,67.7,26,62.2z"/>
</g>
</svg>
