<?xml version="1.0" encoding="utf-8"?>
<!-- Generator: Adobe Illustrator 20.0.0, SVG Export Plug-In . SVG Version: 6.00 Build 0)  -->
<svg version="1.1" id="top" xmlns="http://www.w3.org/2000/svg" xmlns:xlink="http://www.w3.org/1999/xlink" x="0px" y="0px"
	 viewBox="0 0 60 60" style="enable-background:new 0 0 60 60;" xml:space="preserve">
<style type="text/css">
	.st0{fill:#FFFFFF;}
	.st1{enable-background:new    ;}
</style>
<path id="Forma_1" class="st0" d="M4,28.6c-0.7,0.7-0.7,1.8-0.1,2.5c0,0,0.1,0.1,0.1,0.1c0.8,0.7,1.9,0.7,2.7,0L30.2,8.6l23.6,22.6
	c0.8,0.7,1.9,0.7,2.7,0c0.7-0.7,0.7-1.8,0.1-2.5c0,0-0.1-0.1-0.1-0.1L31.6,4.7c-0.8-0.7-1.9-0.7-2.7,0L4,28.6z"/>
<g class="st1">
	<path class="st0" d="M30.8,54.3l0.2,1.2c-0.4,0.1-0.7,0.1-1,0.1c-0.5,0-0.9-0.1-1.2-0.2c-0.3-0.2-0.5-0.4-0.6-0.6
		c-0.1-0.3-0.2-0.8-0.2-1.6v-4.6h-1v-1.1h1v-2l1.4-0.8v2.8h1.4v1.1h-1.4v4.7c0,0.4,0,0.6,0.1,0.8s0.1,0.2,0.2,0.3
		c0.1,0.1,0.3,0.1,0.5,0.1C30.4,54.3,30.6,54.3,30.8,54.3z"/>
	<path class="st0" d="M31.7,51.4c0-1.5,0.4-2.6,1.3-3.3c0.7-0.6,1.6-0.9,2.6-0.9c1.1,0,2,0.4,2.8,1.1c0.7,0.7,1.1,1.7,1.1,3
		c0,1-0.2,1.9-0.5,2.4c-0.3,0.6-0.8,1.1-1.4,1.4c-0.6,0.3-1.3,0.5-2,0.5c-1.1,0-2.1-0.4-2.8-1.1C32,53.8,31.7,52.8,31.7,51.4z
		 M33.1,51.4c0,1,0.2,1.8,0.7,2.3c0.5,0.5,1,0.8,1.7,0.8c0.7,0,1.3-0.3,1.7-0.8s0.7-1.3,0.7-2.4c0-1-0.2-1.8-0.7-2.3
		c-0.5-0.5-1-0.8-1.7-0.8c-0.7,0-1.3,0.3-1.7,0.8C33.3,49.6,33.1,50.4,33.1,51.4z"/>
	<path class="st0" d="M41,58.6V47.4h1.3v1c0.3-0.4,0.6-0.7,1-0.9c0.4-0.2,0.8-0.3,1.4-0.3c0.7,0,1.3,0.2,1.8,0.5
		c0.5,0.4,0.9,0.9,1.2,1.5s0.4,1.4,0.4,2.1c0,0.8-0.2,1.6-0.5,2.2c-0.3,0.7-0.7,1.2-1.3,1.5s-1.2,0.5-1.8,0.5
		c-0.5,0-0.9-0.1-1.2-0.3c-0.4-0.2-0.7-0.4-0.9-0.7v3.9H41z M42.2,51.5c0,1,0.2,1.8,0.6,2.3c0.4,0.5,0.9,0.7,1.5,0.7
		c0.6,0,1.1-0.3,1.6-0.8c0.4-0.5,0.7-1.3,0.7-2.4c0-1-0.2-1.8-0.6-2.3c-0.4-0.5-0.9-0.8-1.5-0.8c-0.6,0-1.1,0.3-1.6,0.8
		C42.4,49.7,42.2,50.5,42.2,51.5z"/>
</g>
</svg>
