<?xml version="1.0" encoding="utf-8"?>
<!-- Generator: Adobe Illustrator 22.0.1, SVG Export Plug-In . SVG Version: 6.00 Build 0)  -->
<svg version="1.1" id="Layer_1" xmlns="http://www.w3.org/2000/svg" xmlns:xlink="http://www.w3.org/1999/xlink" x="0px" y="0px"
	 viewBox="0 0 60 60" style="enable-background:new 0 0 60 60;" xml:space="preserve">
<style type="text/css">
	.st0{fill:#00A5C8;}
</style>
<g>
	<g>
		<path class="st0" d="M21.5,48.5v-6.5h-2.3v-1.3h6.3v1.3h-2.3v6.5H21.5z"/>
		<path class="st0" d="M25.9,44.6c0-0.8,0.1-1.5,0.4-2c0.2-0.4,0.4-0.8,0.7-1.1c0.3-0.3,0.6-0.6,1-0.7c0.5-0.2,1.1-0.3,1.7-0.3
			c1.2,0,2.1,0.4,2.8,1.1c0.7,0.7,1,1.7,1,3c0,1.3-0.3,2.3-1,3c-0.7,0.7-1.6,1.1-2.8,1.1c-1.2,0-2.1-0.4-2.8-1.1
			C26.2,46.8,25.9,45.8,25.9,44.6z M27.5,44.5c0,0.9,0.2,1.6,0.6,2c0.4,0.5,0.9,0.7,1.6,0.7c0.6,0,1.2-0.2,1.6-0.7
			c0.4-0.5,0.6-1.1,0.6-2.1c0-0.9-0.2-1.6-0.6-2c-0.4-0.4-0.9-0.7-1.6-0.7c-0.7,0-1.2,0.2-1.6,0.7C27.7,43,27.5,43.6,27.5,44.5z"/>
		<path class="st0" d="M34.8,48.5v-7.9h2.6c1,0,1.6,0,1.9,0.1c0.5,0.1,0.8,0.4,1.1,0.8c0.3,0.4,0.5,0.9,0.5,1.5
			c0,0.5-0.1,0.9-0.3,1.2c-0.2,0.3-0.4,0.6-0.7,0.8c-0.3,0.2-0.5,0.3-0.8,0.4c-0.4,0.1-0.9,0.1-1.7,0.1h-1v3H34.8z M36.4,41.9v2.2
			h0.9c0.6,0,1,0,1.3-0.1c0.2-0.1,0.4-0.2,0.5-0.4c0.1-0.2,0.2-0.4,0.2-0.6c0-0.3-0.1-0.5-0.3-0.7c-0.2-0.2-0.4-0.3-0.6-0.3
			c-0.2,0-0.6-0.1-1.1-0.1H36.4z"/>
	</g>
	<g>
		<g>
			<path class="st0" d="M41.1,21.7c0-0.1-0.1-0.2-0.2-0.2l-9.5-9.5c-0.7-0.7-2.1-0.7-2.8,0l-9.5,9.5c-0.1,0.1-0.2,0.2-0.2,0.3
				c-0.1,0.2-0.1,0.4,0,0.5c0.1,0.2,0.3,0.3,0.4,0.3h2.7c0.1,0,0.3-0.1,0.4-0.1l7.7-7.7l7.7,7.7c0.1,0.1,0.2,0.1,0.4,0.1h2.7
				c0,0,0,0,0,0c0.3,0,0.5-0.2,0.5-0.5C41.2,21.9,41.2,21.7,41.1,21.7z"/>
		</g>
		<g>
			<path class="st0" d="M32,34.6H28c-0.3,0-0.5-0.2-0.5-0.5v-7.2c0-0.3,0.2-0.5,0.5-0.5H32c0.3,0,0.5,0.2,0.5,0.5v7.2
				C32.6,34.4,32.3,34.6,32,34.6z"/>
		</g>
		<g>
			<path class="st0" d="M37.3,35.9H22.7c-1.2,0-2.3-1-2.3-2.3V21.2h2v12.4c0,0.1,0.1,0.3,0.3,0.3h14.6c0.1,0,0.3-0.1,0.3-0.3V21.4h2
				v12.2C39.6,34.9,38.5,35.9,37.3,35.9z"/>
		</g>
	</g>
</g>
</svg>
