<?xml version="1.0" encoding="utf-8"?>
<!-- Generator: Adobe Illustrator 22.0.1, SVG Export Plug-In . SVG Version: 6.00 Build 0)  -->
<svg version="1.1" id="Layer_1" xmlns="http://www.w3.org/2000/svg" xmlns:xlink="http://www.w3.org/1999/xlink" x="0px" y="0px"
	 viewBox="0 0 45 45" style="enable-background:new 0 0 45 45;" xml:space="preserve">
<style type="text/css">
	.st0{fill:none;}
	.st1{fill:#EE4552;}
</style>
<g>
	<path class="st0" d="M36.2,20.5L22.5,6.7L8.8,20.5c-0.1,0.1-0.1,0.1-0.2,0.1v19.9c0,0.5,0.4,0.9,0.9,0.9h8.4V28.2
		c0-0.4,0.3-0.7,0.7-0.7h7.7c0.4,0,0.7,0.3,0.7,0.7v13.2h8.4c0.5,0,0.9-0.4,0.9-0.9V20.6C36.3,20.6,36.3,20.5,36.2,20.5z"/>
	<path class="st1" d="M42.2,19.2c-0.1-0.1-0.2-0.3-0.3-0.4L25,1.9c-1.3-1.3-3.8-1.3-5.1,0L3,18.8c-0.2,0.2-0.3,0.3-0.4,0.6
		c-0.2,0.3-0.2,0.6,0,0.9c0.2,0.3,0.5,0.5,0.8,0.5h2.5v19.8c0,2,1.6,3.6,3.6,3.6h26.1c2,0,3.6-1.6,3.6-3.6V20.7h2.5c0,0,0,0,0,0
		c0.5,0,0.9-0.4,0.9-0.9C42.5,19.6,42.4,19.4,42.2,19.2z M35.5,41.4h-8.4V28.2c0-0.4-0.3-0.7-0.7-0.7h-7.7c-0.4,0-0.7,0.3-0.7,0.7
		v13.2H9.5c-0.5,0-0.9-0.4-0.9-0.9V20.6c0.1,0,0.1-0.1,0.2-0.1L22.5,6.7l13.7,13.7c0.1,0.1,0.1,0.1,0.2,0.1v19.9
		C36.4,41,36,41.4,35.5,41.4z"/>
</g>
<g>
	<g>
		<g>
			<path class="st1" d="M167.1,45.6h-25.3c-4,0-7.3-3.3-7.3-7.3V19.6c0-0.9,0.7-1.6,1.6-1.6h36.8c0.9,0,1.6,0.7,1.6,1.6v18.7
				C174.5,42.3,171.2,45.6,167.1,45.6z M136.6,20.1v18.2c0,2.9,2.3,5.2,5.2,5.2h25.3c2.9,0,5.3-2.4,5.3-5.3V20.1H136.6z"/>
		</g>
	</g>
	<g>
		<g>
			<path class="st1" d="M146.8,28.2h-6.3c-0.5,0-0.9-0.4-0.9-0.9v-1c0-0.5,0.4-0.9,0.9-0.9h6.3c0.5,0,0.9,0.4,0.9,0.9v1
				C147.7,27.8,147.3,28.2,146.8,28.2z"/>
		</g>
		<g>
			<circle class="st1" cx="145" cy="31.8" r="1.9"/>
		</g>
		<g>
			<path class="st1" d="M162.2,28.2h6.3c0.5,0,0.9-0.4,0.9-0.9v-1c0-0.5-0.4-0.9-0.9-0.9h-6.3c-0.5,0-0.9,0.4-0.9,0.9v1
				C161.4,27.8,161.7,28.2,162.2,28.2z"/>
		</g>
		<g>
			<circle class="st1" cx="164.1" cy="31.8" r="1.9"/>
		</g>
	</g>
	<g>
		<g>
			<path class="st1" d="M152.6,33.9c0.3,0,0.6-0.3,0.6-0.6c0-0.3-0.3-0.6-0.6-0.6c-0.3,0-0.6,0.3-0.6,0.6
				C151.9,33.6,152.2,33.9,152.6,33.9z"/>
		</g>
		<g>
			<path class="st1" d="M156.4,33.9c0.3,0,0.6-0.3,0.6-0.6c0-0.3-0.3-0.6-0.6-0.6c-0.3,0-0.6,0.3-0.6,0.6
				C155.8,33.6,156.1,33.9,156.4,33.9z"/>
		</g>
		<g>
			<path class="st1" d="M158.8,34.1c-0.2-0.3-0.7-0.3-0.9-0.1c-0.1,0.1-0.2,0.3-0.3,0.4c0,0.2,0,0.4,0.1,0.5c0,0.1,0.1,0.2,0.1,0.3
				c0,0.1-0.4,0.7-3.2,0.7c-2.9,0-3.3-0.6-3.3-0.6c0,0,0-0.1,0.1-0.2c0.2-0.3,0.2-0.7-0.1-0.9c-0.3-0.2-0.7-0.2-0.9,0.1
				c-0.2,0.3-0.5,0.9-0.2,1.6c0.4,0.9,1.9,1.4,4.5,1.4c2.5,0,4-0.5,4.4-1.4C159.3,35.1,159,34.4,158.8,34.1z"/>
		</g>
	</g>
</g>
<g>
	<path class="st0" d="M200.5,25.2c-2.4,0-4.4,2-4.4,4.4c0,2.4,2,4.4,4.4,4.4c2.4,0,4.4-2,4.4-4.4C204.9,27.1,202.9,25.2,200.5,25.2z
		"/>
	<path class="st0" d="M193.8,29.6c0-1.5,0.5-2.9,1.4-4.1c-2.8,1.2-4.7,3-5.5,3.9c0.6,1.1,2.3,3.2,5.7,4.5
		C194.4,32.7,193.8,31.2,193.8,29.6z"/>
	<path class="st0" d="M205.8,25.4c0.9,1.1,1.5,2.6,1.5,4.2c0,1.7-0.6,3.2-1.6,4.4c3.4-1.2,5.1-3.5,5.8-4.6
		C210.6,28.4,208.7,26.6,205.8,25.4z"/>
	<g>
		<path class="st1" d="M195.3,33.9c-1-1.2-1.5-2.7-1.5-4.3c0-1.5,0.5-2.9,1.4-4.1c-2.8,1.2-4.7,3-5.5,3.9
			C190.3,30.4,191.9,32.6,195.3,33.9z"/>
		<path class="st1" d="M205.8,25.4c0.9,1.1,1.5,2.6,1.5,4.2c0,1.7-0.6,3.2-1.6,4.4c3.4-1.2,5.1-3.5,5.8-4.6
			C210.6,28.4,208.7,26.6,205.8,25.4z"/>
		<path class="st1" d="M200.5,25.2c-2.4,0-4.4,2-4.4,4.4c0,2.4,2,4.4,4.4,4.4c2.4,0,4.4-2,4.4-4.4C204.9,27.1,202.9,25.2,200.5,25.2
			z"/>
		<g>
			<path class="st1" d="M195.2,25.5c-2.8,1.2-4.7,3-5.5,3.9c0.6,1.1,2.3,3.2,5.7,4.5c-1-1.2-1.5-2.7-1.5-4.3
				C193.8,28,194.3,26.6,195.2,25.5z"/>
			<path class="st1" d="M200.5,25.2c-2.4,0-4.4,2-4.4,4.4c0,2.4,2,4.4,4.4,4.4c2.4,0,4.4-2,4.4-4.4
				C204.9,27.1,202.9,25.2,200.5,25.2z"/>
			<path class="st1" d="M200.5,8c-11,0-20,9-20,20c0,11,9,20,20,20s20-9,20-20C220.5,17,211.6,8,200.5,8z M213.7,28.6
				c0.2,0.3,0.3,0.8,0.1,1.1c-0.1,0.3-3.4,7.3-13,7.3c-0.3,0-0.6,0-1,0c-9.7-0.5-12.5-7.1-12.6-7.4c-0.2-0.4-0.1-0.8,0.1-1.1
				c0.1-0.1,1.6-2.1,4.3-3.8l-3.4-3.1c-0.5-0.4-0.5-1.2-0.1-1.6c0.4-0.5,1.2-0.5,1.6-0.1l3.9,3.7c1.6-0.7,3.5-1.3,5.7-1.4l0-5
				c0-0.6,0.5-1.1,1.1-1.1c0,0,0,0,0,0c0.6,0,1.1,0.5,1.1,1.1l0,5c2.4,0.2,4.5,0.8,6.1,1.7l4.2-3.5c0.5-0.4,1.2-0.3,1.6,0.1
				c0.4,0.5,0.3,1.2-0.1,1.6l-3.6,3C212.3,26.7,213.6,28.4,213.7,28.6z"/>
			<path class="st1" d="M207.2,29.6c0,1.7-0.6,3.2-1.6,4.4c3.4-1.2,5.1-3.5,5.8-4.6c-0.8-0.9-2.7-2.8-5.6-4
				C206.7,26.6,207.2,28,207.2,29.6z"/>
		</g>
	</g>
</g>
<g>
	<g>
		<path class="st1" d="M305.5,8.2c-11,0-20,9-20,20c0,11,9,20,20,20s20-9,20-20C325.5,17.1,316.6,8.2,305.5,8.2z M296.4,23.5
			c0.5-0.4,1.2-0.3,1.6,0.2l6.3,8V18.2c0-0.6,0.5-1.1,1.1-1.1c0.6,0,1.1,0.5,1.1,1.1v13.5l6.3-8c0.4-0.5,1.1-0.6,1.6-0.2
			c0.5,0.4,0.6,1.1,0.2,1.6l-6.9,8.7c-0.5,0.6-1.4,1-2.3,1c-0.9,0-1.8-0.4-2.3-1l-6.9-8.7C295.8,24.7,295.9,23.9,296.4,23.5z
			 M314,38.6h-16.9c-0.6,0-1.1-0.5-1.1-1.1c0-0.6,0.5-1.1,1.1-1.1H314c0.6,0,1.1,0.5,1.1,1.1C315.1,38.1,314.6,38.6,314,38.6z"/>
	</g>
</g>
<g>
	<path class="st0" d="M268.5,20.6h-20.3c-0.5,0-0.9,0.4-0.9,0.9v14c0,0.5,0.4,0.9,0.9,0.9h20.3c0.5,0,0.9-0.4,0.9-0.9v-14
		C269.4,21,269,20.6,268.5,20.6z"/>
	<g>
		<g>
			<path class="st0" d="M268.5,20.6h-20.3c-0.5,0-0.9,0.4-0.9,0.9v14c0,0.5,0.4,0.9,0.9,0.9h20.3c0.5,0,0.9-0.4,0.9-0.9v-14
				C269.4,21,269,20.6,268.5,20.6z M258.4,34.3c-3.1,0-5.7-2.6-5.7-5.7s2.6-5.7,5.7-5.7c3.1,0,5.7,2.6,5.7,5.7
				S261.5,34.3,258.4,34.3z M267.1,24h-2.3c-0.6,0-1.1-0.5-1.1-1.1c0-0.6,0.5-1.1,1.1-1.1h2.3c0.6,0,1.1,0.5,1.1,1.1
				C268.3,23.4,267.8,24,267.1,24z"/>
			<path class="st0" d="M258.4,25.1c-1.9,0-3.4,1.5-3.4,3.4s1.5,3.4,3.4,3.4c1.9,0,3.4-1.5,3.4-3.4S260.3,25.1,258.4,25.1z"/>
			<path class="st1" d="M258.5,8.2c-11,0-20,9-20,20c0,11,9,20,20,20c11,0,20-9,20-20C278.5,17.1,269.6,8.2,258.5,8.2z M271.7,35.5
				c0,1.8-1.4,3.2-3.2,3.2h-20.3c-1.8,0-3.2-1.4-3.2-3.2v-14c0-1.8,1.4-3.2,3.2-3.2h0.3v-0.7c0-0.4,0.3-0.8,0.8-0.8h2
				c0.4,0,0.8,0.3,0.8,0.8v0.7h16.5c1.8,0,3.2,1.4,3.2,3.2V35.5z"/>
			<g>
				<path class="st1" d="M258.4,25.1c-1.9,0-3.4,1.5-3.4,3.4s1.5,3.4,3.4,3.4c1.9,0,3.4-1.5,3.4-3.4S260.3,25.1,258.4,25.1z"/>
				<path class="st1" d="M268.5,20.6h-20.3c-0.5,0-0.9,0.4-0.9,0.9v14c0,0.5,0.4,0.9,0.9,0.9h20.3c0.5,0,0.9-0.4,0.9-0.9v-14
					C269.4,21,269,20.6,268.5,20.6z M258.4,34.3c-3.1,0-5.7-2.6-5.7-5.7s2.6-5.7,5.7-5.7c3.1,0,5.7,2.6,5.7,5.7
					S261.5,34.3,258.4,34.3z M267.1,24h-2.3c-0.6,0-1.1-0.5-1.1-1.1c0-0.6,0.5-1.1,1.1-1.1h2.3c0.6,0,1.1,0.5,1.1,1.1
					C268.3,23.4,267.8,24,267.1,24z"/>
			</g>
		</g>
	</g>
</g>
</svg>
